<?xml version="1.0" encoding="UTF-8"?>
<svg xmlns="http://www.w3.org/2000/svg" xmlns:xlink="http://www.w3.org/1999/xlink" width="512" height="512" viewBox="0 0 59 60" version="1.1"><!-- Generator: Sketch 51.3 (57544) - http://www.bohemiancoding.com/sketch --><title>002 - Love</title><desc>Created with Sketch.</desc><defs/><g id="Page-1" stroke="none" stroke-width="1" fill="none" fill-rule="evenodd"><g id="002---Love" transform="translate(-1.000000, -1.000000)"><path d="M47.13,38.71 C45.8503538,41.6319437 45.3706323,44.8415908 45.74,48.01 C45.9651005,50.0721875 46.3733794,52.1102353 46.96,54.1 C47.2748963,55.1305317 47.672868,56.1338218 48.15,57.1 C48.7418004,58.0090608 49.2761765,58.9542385 49.75,59.93 L24.65,60 L24.65,59.99 C24.57,59.69 23.06,53.81 19.72,52.3 C19.13,52.51 18.51,52.72 17.87,52.94 C15.6155402,53.7203881 13.3225261,54.3845945 11,54.93 C10.384199,55.0711979 9.73814792,54.9860044 9.18,54.69 C8.51754291,54.2970873 8.02278713,53.6741934 7.79,52.94 C7.52484783,52.2284319 7.42566071,51.4657172 7.5,50.71 C7.73858566,49.940746 7.82020035,49.1314004 7.74,48.33 C7.48,47.32 6.51,47.07 5.75,46.53 C5.14,46.09 6.25,44.68 6.25,44.68 C6.25,44.68 5.07,43.81 4.65,43.43 C4.21,43.07 4.82,42.45 5.38,41.28 C5.60694079,40.7719796 5.67323378,40.2067446 5.57,39.66 C5.36,38.59 3.73,38.18 2.93,37.59 C2.56,37.31 1.95,36.89 1.88,36.38 C1.77,35.67 2.61,34.67 3.02,34.17 C4.76454657,31.9217816 6.25996718,29.4908848 7.48,26.92 C7.64010631,26.6486227 7.73589137,26.3441631 7.76,26.03 C7.74,24.6 5.67,24.01 5.47,22.62 C5.44871368,22.2115508 5.52408857,21.8038412 5.69,21.43 C6.26667192,20.2042401 6.76109856,18.9414478 7.17,17.65 C7.41142981,16.464203 7.72874925,15.2951313 8.12,14.15 C8.95859812,11.8496676 10.2508376,9.74127689 11.92,7.95 C14.37,5.36 17.99,4.08 21.41,3.4 C24.4740825,2.7301327 27.5819199,2.27899501 30.71,2.05 C30.7861548,2.03837718 30.8629821,2.03169654 30.94,2.03 C37.34,1.71 42.4,3.88 47.35,7.76 C50.0585045,9.77277844 52.0382351,12.6124983 52.99,15.85 C53.7151888,18.5213389 54.0552867,21.2825294 54,24.05 C53.980834,26.7831121 53.1829958,29.4541358 51.7,31.75 C50.21,34.1 48.25,36.14 47.13,38.71 Z" id="Shape" fill="#549414" fill-rule="nonzero"/><path d="M44.26,38.71 C42.9803538,41.6319437 42.5006323,44.8415908 42.87,48.01 C43.0951005,50.0721875 43.5033794,52.1102353 44.09,54.1 C44.4048963,55.1305317 44.802868,56.1338218 45.28,57.1 C45.8718004,58.0090608 46.4061765,58.9542385 46.88,59.93 L24.65,59.99 C24.57,59.69 23.06,53.81 19.72,52.3 C19.13,52.51 18.51,52.72 17.87,52.94 C17.5612075,52.6805581 17.2179405,52.4651749 16.85,52.3 C14.4,53.15 11.42,54.13 9.18,54.69 C8.51754291,54.2970873 8.02278713,53.6741934 7.79,52.94 C7.52484783,52.2284319 7.42566071,51.4657172 7.5,50.71 C7.73858566,49.940746 7.82020035,49.1314004 7.74,48.33 C7.48,47.32 6.51,47.07 5.75,46.53 C5.14,46.09 6.25,44.68 6.25,44.68 C6.25,44.68 5.07,43.81 4.65,43.43 C4.21,43.07 4.82,42.45 5.38,41.28 C5.60694079,40.7719796 5.67323378,40.2067446 5.57,39.66 C5.36,38.59 3.73,38.18 2.93,37.59 C2.56,37.31 1.95,36.89 1.88,36.38 C1.77,35.67 2.61,34.67 3.02,34.17 C4.76454657,31.9217816 6.25996718,29.4908848 7.48,26.92 C7.64010631,26.6486227 7.73589137,26.3441631 7.76,26.03 C7.74,24.6 5.67,24.01 5.47,22.62 C5.44871368,22.2115508 5.52408857,21.8038412 5.69,21.43 C6.26667192,20.2042401 6.76109856,18.9414478 7.17,17.65 C7.41142981,16.464203 7.72874925,15.2951313 8.12,14.15 C8.95859812,11.8496676 10.2508376,9.74127689 11.92,7.95 C14.37,5.36 17.99,4.08 21.41,3.4 C24.4740825,2.7301327 27.5819199,2.27899501 30.71,2.05 C35.9,2.36 40.23,4.43 44.49,7.76 C47.1927291,9.77631392 49.1683037,12.6151058 50.12,15.85 C50.8451888,18.5213389 51.1852867,21.2825294 51.13,24.05 C51.110834,26.7831121 50.3129958,29.4541358 48.83,31.75 C47.34,34.1 45.38,36.14 44.26,38.71 Z" id="Shape" fill="#60A917" fill-rule="nonzero"/><path d="M38.58,29.88 C39.74,30.65 40.89,31.36 42,32 C47.37,28.89 53.81,24.23 56.32,19.57 C59.89,13.36 59.89,7.15 56.32,4.04 C54.0912285,2.28941508 51.1977681,1.62420812 48.4282568,2.22568718 C45.6587455,2.82716623 43.3018636,4.6326361 42,7.15 C40.6981364,4.6326361 38.3412545,2.82716623 35.5717432,2.22568718 C32.8022319,1.62420812 29.9087715,2.28941508 27.68,4.04 C24.37,6.92 24.13,12.47 26.96,18.21 L38.58,29.88 Z" id="Shape" fill="#C81E1E"/><path d="M37.381,29.88 C38.439,30.65 39.487,31.36 40.5,32 C45.4,28.89 51.269,24.23 53.558,19.57 C56.814,13.36 56.814,7.15 53.558,4.04 C50.302,0.93 43.764,0.93 40.5,7.15 C37.235,0.93 30.706,0.93 27.441,4.04 C24.422,6.92 24.203,12.47 26.784,18.21 L37.381,29.88 Z" id="Shape" fill="#F44335"/><path d="M40.57,27.37 C39.23,29.86 35.8,32.34 32.93,34 C30.07,32.34 26.63,29.86 25.3,27.37 C23.39,24.06 23.39,20.75 25.3,19.09 C26.2885374,18.2726192 27.564211,17.8870343 28.84,18.02 C30.5736044,18.1901174 32.1079294,19.2142512 32.93,20.75 C33.7520706,19.2142512 35.2863956,18.1901174 37.02,18.02 C38.2988833,17.8867915 39.5777434,18.2722507 40.57,19.09 C42.48,20.75 42.48,24.06 40.57,27.37 Z" id="Shape" fill="#AD1457"/><path d="M37.817,27.377 C36.707,29.851 33.867,32.338 31.495,34 C29.133,32.338 26.295,29.851 25.183,27.377 C23.606,24.052 23.606,20.741 25.183,19.077 C25.7566815,18.4885462 26.514893,18.1147352 27.331,18.018 C29.2213184,18.3145105 30.8102174,19.5962249 31.5,21.381 C32.1893027,19.5986584 33.7754072,18.3181162 35.663,18.02 C36.4854459,18.1059162 37.2506176,18.4812366 37.822,19.079 C39.394,20.741 39.394,24.052 37.817,27.377 Z" id="Shape" fill="#E91E63"/><path d="M10.511,56 C8.86133749,55.9693354 7.42609992,54.8626511 6.977,53.275 C6.6618426,52.4141982 6.54959663,51.4922755 6.649,50.581 C6.682,50.318 6.74,50.05 6.798,49.781 C6.91957463,49.3932994 6.95372661,48.9834757 6.898,48.581 C6.817,48.267 6.586,48.111 5.998,47.774 C5.764,47.641 5.527,47.505 5.305,47.349 C4.97992342,47.1169696 4.76529209,46.7608192 4.712,46.365 C4.67385435,45.8622176 4.78741543,45.359553 5.038,44.922 C4.697,44.661 4.324,44.367 4.108,44.172 C3.184,43.416 3.796,42.333 4.163,41.687 C4.297,41.449 4.454,41.174 4.603,40.854 C4.74079442,40.5365542 4.78015866,40.1850629 4.716,39.845 C4.666,39.586 3.941,39.216 3.509,38.995 C3.14677307,38.8238802 2.79926375,38.6232011 2.47,38.395 C1.75415682,37.9904637 1.23094481,37.3151886 1.018,36.521 C0.859,35.492 1.618,34.464 2.341,33.583 C4.05386969,31.3753774 5.5221301,28.9884064 6.72,26.464 C6.79665216,26.3279802 6.85387471,26.1818944 6.89,26.03 C6.89,25.755 6.565,25.439 6.077,24.991 C5.33779367,24.4453722 4.82013234,23.6514828 4.619,22.755 C4.56307696,22.1851159 4.65324528,21.610379 4.881,21.085 C5.062,20.611 5.265,20.156 5.468,19.701 C5.82559624,18.9699027 6.11288832,18.2064692 6.326,17.421 L6.426,16.999 C6.65555464,15.9178276 6.95144756,14.8518115 7.312,13.807 C8.19429313,11.3777039 9.55900834,9.15204797 11.324,7.264 C13.558,4.9 16.836,3.316 21.345,2.419 C24.5307746,1.72073844 27.7634281,1.25682993 31.017,1.031 C31.782,1 32.458,0.99 33.1,1.01 C33.9887529,1.04153721 34.8750947,1.12199235 35.755,1.251 C36.1167735,1.29328264 36.4269451,1.52892449 36.5646704,1.86611827 C36.7023957,2.20331206 36.6458897,2.58872169 36.4171675,2.87218961 C36.1884453,3.15565753 35.8236854,3.29234581 35.465,3.229 C34.65964,3.11122212 33.8484176,3.03777812 33.035,3.009 C32.45,2.991 31.818,2.998 31.114,3.029 C27.9606069,3.25049357 24.8276045,3.70202828 21.74,4.38 C17.704,5.18 14.689,6.615 12.776,8.637 C11.1971652,10.3296077 9.97673014,12.3238693 9.188,14.5 C8.85614522,15.4674021 8.58396707,16.4542566 8.373,17.455 L8.273,17.881 C8.03242184,18.790144 7.70456527,19.6739167 7.294,20.52 C7.106,20.94 6.917,21.36 6.754,21.788 C6.65950369,22.0048357 6.60691104,22.2376006 6.599,22.474 C6.643,22.798 7.025,23.148 7.429,23.519 C8.25493667,24.1015488 8.78786015,25.0134644 8.89,26.019 C8.86993297,26.4934145 8.73617951,26.9560643 8.5,27.368 C7.24784001,30.0034832 5.71353526,32.4953873 3.924,34.8 C3.162,35.731 3,36.1 3,36.249 C3.18487589,36.4288287 3.3857006,36.5914967 3.6,36.735 C3.8610164,36.9170713 4.13661917,37.0772821 4.424,37.214 C5.277,37.65 6.446,38.248 6.686,39.468 C6.82918406,40.2237094 6.73595159,41.0051861 6.419,41.706 C6.245,42.076 6.065,42.396 5.908,42.672 C5.859,42.758 5.808,42.854 5.757,42.941 C6.172,43.275 6.738,43.699 6.978,43.875 C7.19568419,44.0363089 7.33859797,44.2790429 7.37403559,44.5476525 C7.40947321,44.8162621 7.33440129,45.087755 7.166,45.3 C7.01761396,45.493007 6.88833948,45.6999801 6.78,45.918 C6.849,45.958 6.918,45.998 6.988,46.037 C7.87254397,46.4174365 8.54781232,47.1638818 8.838,48.082 C8.98493135,48.7872637 8.95538984,49.5179007 8.752,50.209 C8.706,50.418 8.659,50.627 8.632,50.836 C8.57367075,51.4411271 8.65403967,52.0515889 8.867,52.621 C9.08924005,53.5418186 9.99404705,54.1269975 10.925,53.952 C13.8392719,53.2514045 16.7107073,52.3832961 19.525,51.352 C19.862616,51.2348169 20.2371025,51.3066512 20.507394,51.5404437 C20.7776856,51.7742361 20.9027185,52.1344681 20.835394,52.4854437 C20.7680696,52.8364192 20.518616,53.1248169 20.181,53.242 C17.2866763,54.3026468 14.3325972,55.1925101 11.334,55.907 C11.063591,55.9661968 10.7878001,55.9973615 10.511,56 Z M5.411,42.66 L5.442,42.688 L5.411,42.66 Z" id="Shape" fill="#000000" fill-rule="nonzero"/><path d="M11.194,19.567 C10.8888508,19.5670321 10.6003862,19.4277344 10.4106651,19.1887325 C10.2209439,18.9497305 10.1507311,18.6371832 10.22,18.34 L10.32,17.907 C10.5131488,16.9905545 10.7602456,16.086314 11.06,15.199 C11.7556722,13.274706 12.8328806,11.5107644 14.227,10.013 C15.7595511,8.5356103 17.6468677,7.47795529 19.707,6.942 C20.0487245,6.83767844 20.4201459,6.92358921 20.6813533,7.16737057 C20.9425607,7.41115192 21.0538705,7.77576767 20.9733533,8.12387058 C20.8928362,8.47197349 20.6327245,8.75067845 20.291,8.855 C18.56399,9.29262258 16.9772482,10.1637817 15.681,11.386 C14.4731212,12.6862822 13.5398535,14.2167868 12.937,15.886 C12.6666327,16.6961058 12.4432611,17.5211451 12.268,18.357 L12.168,18.79 C12.064068,19.2443274 11.6600634,19.5666185 11.194,19.567 Z" id="Shape" fill="#000000" fill-rule="nonzero"/><path d="M24.78,61 C24.3194886,60.9998779 23.9186017,60.6852787 23.809,60.238 C23.42,58.657 21.879,54.314 19.438,53.211 C19.0639436,53.0419148 18.8312137,52.6614066 18.8510746,52.25139 C18.8709354,51.8413735 19.1393525,51.4851405 19.528,51.353 C20.572,50.999 21.517,50.668 22.261,50.408 C22.952,50.167 23.473,49.985 23.744,49.898 C27.902,48.583 28.744,47.082 28.721,46.053 C28.7080213,45.5007153 29.1452153,45.0424787 29.6975,45.0295 C30.2497847,45.0165213 30.7080213,45.4537153 30.721,46.006 C30.779,48.498 28.637,50.449 24.352,51.806 C24.094,51.889 23.59,52.065 22.921,52.298 L22.021,52.614 C23.670109,54.4426539 24.87322,56.6284481 25.536,59 L48.218,58.937 L48.151,58.837 C47.8629147,58.4221101 47.6039597,57.987734 47.376,57.537 C46.8786739,56.5263955 46.4636619,55.4773282 46.135,54.4 C45.5282684,52.3530291 45.1072324,50.2555471 44.877,48.133 C44.4831884,44.7875341 44.9892651,41.3975796 46.343,38.313 C47.141408,36.6438155 48.1288779,35.0718493 49.286,33.628 C49.866,32.846 50.466,32.038 50.986,31.217 C52.3711468,29.0779657 53.1154304,26.5873047 53.131,24.039 C53.141,23.6 53.131,23.169 53.122,22.73 L54.122,22.653 L55.122,22.653 C55.133,23.153 55.142,23.616 55.131,24.075 C55.1123421,26.9913473 54.2605588,29.8416121 52.676,32.29 C52.117,33.17 51.496,34.009 50.894,34.819 C49.8284731,36.142142 48.9172569,37.5824407 48.178,39.112 C46.9664389,41.8699237 46.5131643,44.9013057 46.865,47.893 C47.0806037,49.8964849 47.4762015,51.8764821 48.047,53.809 C48.3468821,54.7865634 48.7244175,55.7385946 49.176,56.656 C49.3673284,57.0297119 49.5834791,57.3901857 49.823,57.735 C50.2477579,58.3180683 50.5890507,58.9575717 50.837,59.635 C50.9324293,59.9384437 50.8777998,60.2691879 50.6898608,60.5258273 C50.5019218,60.7824667 50.203095,60.9343833 49.885,60.935 L24.785,61.005 L24.78,61 Z" id="Shape" fill="#000000" fill-rule="nonzero"/><path d="M45.466,10.146 C45.1087389,10.1459909 44.7786202,9.95538842 44.5999936,9.645989 C44.4213671,9.33658958 44.4213695,8.95539715 44.6,8.646 C45.5752383,6.77357938 47.3637439,5.45934916 49.442,5.088 C51.1759705,4.76345799 52.9655322,5.20546915 54.349,6.3 C54.6187355,6.53454486 54.7428532,6.89517543 54.6745992,7.24604568 C54.6063451,7.59691592 54.3560887,7.88472029 54.0180992,8.00104568 C53.6801096,8.11737106 53.3057355,8.04454486 53.036,7.81 C52.1014361,7.11390934 50.9177067,6.84182934 49.773,7.06 C48.2873983,7.34066761 47.016404,8.2953912 46.333,9.644 C46.1547026,9.95447277 45.824027,10.1459366 45.466,10.146 Z" id="Shape" fill="#000000" fill-rule="nonzero"/><path d="M42,33 C41.824461,32.9999923 41.6520167,32.9537772 41.5,32.866 C40.339,32.197 39.171,31.472 38.027,30.713 C37.5778334,30.403435 37.4596398,29.7910065 37.7613524,29.336528 C38.0630649,28.8820496 38.673347,28.753231 39.133,29.047 C40.078,29.674 41.04,30.276 41.999,30.842 C45.499,28.771 52.772,24.048 55.439,19.096 C58.766,13.308 58.851,7.571 55.663,4.796 C53.8261849,3.31114002 51.4346486,2.69801915 49.11,3.116 C46.4482023,3.59960887 44.1508812,5.26767819 42.867,7.649 C42.6740541,7.93932926 42.348596,8.11381253 42,8.11381253 C41.651404,8.11381253 41.3259459,7.93932926 41.133,7.649 C39.8491188,5.26767819 37.5517977,3.59960887 34.89,3.116 C32.5643861,2.69732627 30.1717344,3.31209977 28.336,4.8 C25.414,7.343 25.225,12.435 27.857,17.773 C28.0976487,18.267844 27.8932961,18.8641344 27.3997092,19.1073511 C26.9061224,19.3505678 26.3087782,19.1493164 26.063,18.657 C23.017,12.48 23.395,6.448 27.024,3.291 C29.3065456,1.40041792 32.3084368,0.61626538 35.224,1.149 C37.9397889,1.61615097 40.3686738,3.11807355 42,5.339 C43.6311412,3.11554007 46.0613404,1.61167734 48.779,1.144 C51.6944192,0.610849562 54.6963517,1.39464683 56.979,3.285 C60.909,6.708 60.993,13.453 57.19,20.068 C54.269,25.493 46.734,30.416 42.504,32.868 C42.3506145,32.9557598 42.1767122,33.0013056 42,33 Z" id="Shape" fill="#000000" fill-rule="nonzero"/><path d="M32.933,35 C32.7574981,34.9997119 32.5851249,34.9535159 32.433,34.866 C30.133,33.535 26.033,30.854 24.418,27.846 C22.284,24.141 22.369,20.308 24.644,18.333 C25.967461,17.2354882 27.7081753,16.7787155 29.4,17.085 C30.7681376,17.3160066 32.0159745,18.0083867 32.936,19.047 C33.8563323,18.008769 35.1040245,17.3164692 36.472,17.085 C38.1635179,16.7786022 39.9039753,17.2354036 41.227,18.333 C43.502,20.308 43.587,24.141 41.438,27.872 C39.838,30.854 35.738,33.535 33.438,34.866 C33.2844059,34.9543628 33.110197,35.0005885 32.933,35 Z M28.382,19 C27.4983272,18.9853733 26.6380683,19.284409 25.954,19.844 C24.423,21.172 24.508,23.997 26.165,26.874 C27.141,28.688 29.588,30.838 32.933,32.84 C36.278,30.84 38.725,28.69 39.688,26.899 C41.359,23.999 41.443,21.172 39.913,19.844 C39.0385625,19.1434225 37.903354,18.8563373 36.801,19.057 C35.5162685,19.2820574 34.4083405,20.0897368 33.801,21.244 C33.6221932,21.5537028 33.2916137,21.7443484 32.934,21.744 C32.5763863,21.7443484 32.2458068,21.5537028 32.067,21.244 C31.4598959,20.0895325 30.3518537,19.2817697 29.067,19.057 C28.8406455,19.0190127 28.6115199,18.9999468 28.382,19 Z" id="Shape" fill="#000000" fill-rule="nonzero"/><circle id="Oval" fill="#000000" fill-rule="nonzero" cx="10" cy="22" r="1"/></g></g></svg>
