<?xml version="1.0" encoding="UTF-8"?>
<svg xmlns="http://www.w3.org/2000/svg" xmlns:xlink="http://www.w3.org/1999/xlink" width="512" height="512" viewBox="0 0 59 60" version="1.1"><!-- Generator: Sketch 51.3 (57544) - http://www.bohemiancoding.com/sketch --><title>003 - Dreaming</title><desc>Created with Sketch.</desc><defs/><g id="Page-1" stroke="none" stroke-width="1" fill="none" fill-rule="evenodd"><g id="003---Dreaming" transform="translate(-1.000000, -1.000000)" fill-rule="nonzero"><path d="M47.13,38.71 C45.8503538,41.6319437 45.3706323,44.8415908 45.74,48.01 C45.9651005,50.0721875 46.3733794,52.1102353 46.96,54.1 C47.2748963,55.1305317 47.672868,56.1338218 48.15,57.1 C48.7418004,58.0090608 49.2761765,58.9542385 49.75,59.93 L24.65,60 L24.65,59.99 C24.57,59.69 23.06,53.81 19.72,52.3 C19.13,52.51 18.51,52.72 17.87,52.94 C15.6155402,53.7203881 13.3225261,54.3845945 11,54.93 C10.384199,55.0711979 9.73814792,54.9860044 9.18,54.69 C8.51754291,54.2970873 8.02278713,53.6741934 7.79,52.94 C7.52484783,52.2284319 7.42566071,51.4657172 7.5,50.71 C7.73858566,49.940746 7.82020035,49.1314004 7.74,48.33 C7.48,47.32 6.51,47.07 5.75,46.53 C5.14,46.09 6.25,44.68 6.25,44.68 C6.25,44.68 5.07,43.81 4.65,43.43 C4.21,43.07 4.82,42.45 5.38,41.28 C5.60694079,40.7719796 5.67323378,40.2067446 5.57,39.66 C5.36,38.59 3.73,38.18 2.93,37.59 C2.56,37.31 1.95,36.89 1.88,36.38 C1.77,35.67 2.61,34.67 3.02,34.17 C4.76454657,31.9217816 6.25996718,29.4908848 7.48,26.92 C7.64010631,26.6486227 7.73589137,26.3441631 7.76,26.03 C7.74,24.6 5.67,24.01 5.47,22.62 C5.44871368,22.2115508 5.52408857,21.8038412 5.69,21.43 C6.26667192,20.2042401 6.76109856,18.9414478 7.17,17.65 C7.41142981,16.464203 7.72874925,15.2951313 8.12,14.15 C8.95859812,11.8496676 10.2508376,9.74127689 11.92,7.95 C14.37,5.36 17.99,4.08 21.41,3.4 C24.4740825,2.7301327 27.5819199,2.27899501 30.71,2.05 C30.7861548,2.03837718 30.8629821,2.03169654 30.94,2.03 C37.34,1.71 42.4,3.88 47.35,7.76 C50.0585045,9.77277844 52.0382351,12.6124983 52.99,15.85 C53.7151888,18.5213389 54.0552867,21.2825294 54,24.05 C53.980834,26.7831121 53.1829958,29.4541358 51.7,31.75 C50.21,34.1 48.25,36.14 47.13,38.71 Z" id="Shape" fill="#BB193B"/><path d="M44.26,38.71 C42.9803538,41.6319437 42.5006323,44.8415908 42.87,48.01 C43.0951005,50.0721875 43.5033794,52.1102353 44.09,54.1 C44.4048963,55.1305317 44.802868,56.1338218 45.28,57.1 C45.8718004,58.0090608 46.4061765,58.9542385 46.88,59.93 L24.65,59.99 C24.57,59.69 23.06,53.81 19.72,52.3 C19.13,52.51 18.51,52.72 17.87,52.94 C17.5612075,52.6805581 17.2179405,52.4651749 16.85,52.3 C14.4,53.15 11.42,54.13 9.18,54.69 C8.51754291,54.2970873 8.02278713,53.6741934 7.79,52.94 C7.52484783,52.2284319 7.42566071,51.4657172 7.5,50.71 C7.73858566,49.940746 7.82020035,49.1314004 7.74,48.33 C7.48,47.32 6.51,47.07 5.75,46.53 C5.14,46.09 6.25,44.68 6.25,44.68 C6.25,44.68 5.07,43.81 4.65,43.43 C4.21,43.07 4.82,42.45 5.38,41.28 C5.60694079,40.7719796 5.67323378,40.2067446 5.57,39.66 C5.36,38.59 3.73,38.18 2.93,37.59 C2.56,37.31 1.95,36.89 1.88,36.38 C1.77,35.67 2.61,34.67 3.02,34.17 C4.76454657,31.9217816 6.25996718,29.4908848 7.48,26.92 C7.64010631,26.6486227 7.73589137,26.3441631 7.76,26.03 C7.74,24.6 5.67,24.01 5.47,22.62 C5.44871368,22.2115508 5.52408857,21.8038412 5.69,21.43 C6.26667192,20.2042401 6.76109856,18.9414478 7.17,17.65 C7.41142981,16.464203 7.72874925,15.2951313 8.12,14.15 C8.95859812,11.8496676 10.2508376,9.74127689 11.92,7.95 C14.37,5.36 17.99,4.08 21.41,3.4 C24.4740825,2.7301327 27.5819199,2.27899501 30.71,2.05 C35.9,2.36 40.23,4.43 44.49,7.76 C47.1927291,9.77631392 49.1683037,12.6151058 50.12,15.85 C50.8451888,18.5213389 51.1852867,21.2825294 51.13,24.05 C51.110834,26.7831121 50.3129958,29.4541358 48.83,31.75 C47.34,34.1 45.38,36.14 44.26,38.71 Z" id="Shape" fill="#EF314C"/><path d="M59,22 C58.9930558,23.8792453 58.2073519,25.6715193 56.83,26.95 C55.409655,28.2781215 53.5345177,29.0117152 51.59,29 L45.56,29 L26.75,28.09 C24.4693911,26.9103061 23.0267862,24.5675157 23,22 C23.0069442,20.1207547 23.7926481,18.3284807 25.17,17.05 C26.0524373,16.22502 27.1184375,15.621753 28.28,15.29 C27.6013396,14.3273237 27.2379789,13.1778461 27.24,12 C27.2981276,9.16299711 29.3109516,6.74345818 32.09,6.17 C32.5819991,6.05700596 33.0851923,5.9999774 33.59,6 C33.8272798,5.99808402 34.0644369,6.01144498 34.3,6.04 C35.1787231,6.12895098 36.0297225,6.39786681 36.8,6.83 C38.2564729,4.25689635 40.8306296,2.51120386 43.76,2.11 C44.2500079,2.03744479 44.7446501,2.00068084 45.24,2 C50.3528041,1.85994808 54.6129453,5.88739254 54.76,11 C54.7609779,12.4986699 54.3678311,13.9712463 53.62,15.27 C56.7302512,16.0364759 58.9372787,18.7973114 59,22 Z" id="Shape" fill="#CFD8DC"/><path d="M56,22 C55.9930558,23.8792453 55.2073519,25.6715193 53.83,26.95 C52.409655,28.2781215 50.5345177,29.0117152 48.59,29 L45.56,29 L26.75,28.09 C24.4693911,26.9103061 23.0267862,24.5675157 23,22 C23.0069442,20.1207547 23.7926481,18.3284807 25.17,17.05 C26.0524373,16.22502 27.1184375,15.621753 28.28,15.29 C27.6013396,14.3273237 27.2379789,13.1778461 27.24,12 C27.2981276,9.16299711 29.3109516,6.74345818 32.09,6.17 C32.6890353,6.30576257 33.2650884,6.52809885 33.8,6.83 C33.9476567,6.55510487 34.114748,6.29110061 34.3,6.04 C35.1787231,6.12895098 36.0297225,6.39786681 36.8,6.83 C38.2564729,4.25689635 40.8306296,2.51120386 43.76,2.11 C48.2572137,2.68908608 51.65676,6.46683187 51.76,11 C51.7609779,12.4986699 51.3678311,13.9712463 50.62,15.27 C53.7302512,16.0364759 55.9372787,18.7973114 56,22 Z" id="Shape" fill="#F5F5F5"/><path d="M46.41,31.59 C46.4126631,32.7604191 45.9488946,33.8836678 45.1212812,34.7112812 C44.2936678,35.5388946 43.1704191,36.0026631 42,36 L29.41,36 C27.2025915,36.0174288 25.3239457,34.3965285 25.0177844,32.2103855 C24.7116232,30.0242425 26.0727258,27.9496274 28.2,27.36 C27.7499336,26.5350954 27.5160013,25.6096869 27.52,24.67 C27.5187935,22.1110593 29.2378807,19.8709123 31.71,19.21 C32.1906181,19.0689633 32.6891188,18.9982301 33.19,19 C35.1214188,18.9975462 36.9188341,19.9868798 37.95,21.62 C38.04,21.76 38.12,21.9 38.2,22.04 C38.3313896,21.9601434 38.4684184,21.8899579 38.61,21.83 C39.0831359,21.6239018 39.593927,21.5183383 40.11,21.52 C41.4986744,21.5189987 42.7758995,22.2801067 43.4358885,23.5019218 C44.0958775,24.7237369 44.0321722,26.2091765 43.27,27.37 C43.9685992,27.5821569 44.6040501,27.9634275 45.12,28.48 C45.9484107,29.3025668 46.4129817,30.4225791 46.41,31.59 Z" id="Shape" fill="#37474F"/><path d="M43.41,31.59 C43.4126631,32.7604191 42.9488946,33.8836678 42.1212812,34.7112812 C41.2936678,35.5388946 40.1704191,36.0026631 39,36 L29.41,36 C27.2025915,36.0174288 25.3239457,34.3965285 25.0177844,32.2103855 C24.7116232,30.0242425 26.0727258,27.9496274 28.2,27.36 C27.7499336,26.5350954 27.5160013,25.6096869 27.52,24.67 C27.5187935,22.1110593 29.2378807,19.8709123 31.71,19.21 C33.2144245,19.6305208 34.4777269,20.6549179 35.2,22.04 C35.7784653,21.6984034 36.4382047,21.5187884 37.11,21.52 C37.3931114,21.5175103 37.6753857,21.5511144 37.95,21.62 C38.1761951,21.6687863 38.3972025,21.7391068 38.61,21.83 C39.6343623,22.2720319 40.4108127,23.144433 40.7310429,24.2131532 C41.0512732,25.2818734 40.8824992,26.4375006 40.27,27.37 C40.9685992,27.5821569 41.6040501,27.9634275 42.12,28.48 C42.9484107,29.3025668 43.4129817,30.4225791 43.41,31.59 Z" id="Shape" fill="#607D8B"/><path d="M10.511,56 C8.86133749,55.9693354 7.42609992,54.8626511 6.977,53.275 C6.6618426,52.4141982 6.54959663,51.4922755 6.649,50.581 C6.682,50.318 6.74,50.05 6.798,49.781 C6.91957463,49.3932994 6.95372661,48.9834757 6.898,48.581 C6.817,48.267 6.586,48.111 5.998,47.774 C5.764,47.641 5.527,47.505 5.305,47.349 C4.97992342,47.1169696 4.76529209,46.7608192 4.712,46.365 C4.67385435,45.8622176 4.78741543,45.359553 5.038,44.922 C4.697,44.661 4.324,44.367 4.108,44.172 C3.184,43.416 3.796,42.333 4.163,41.687 C4.297,41.449 4.454,41.174 4.603,40.854 C4.74079442,40.5365542 4.78015866,40.1850629 4.716,39.845 C4.666,39.586 3.941,39.216 3.509,38.995 C3.14677307,38.8238802 2.79926375,38.6232011 2.47,38.395 C1.75415682,37.9904637 1.23094481,37.3151886 1.018,36.521 C0.859,35.492 1.618,34.464 2.341,33.583 C4.05386969,31.3753774 5.5221301,28.9884064 6.72,26.464 C6.79665216,26.3279802 6.85387471,26.1818944 6.89,26.03 C6.89,25.755 6.565,25.439 6.077,24.991 C5.33779367,24.4453722 4.82013234,23.6514828 4.619,22.755 C4.56307696,22.1851159 4.65324528,21.610379 4.881,21.085 C5.062,20.611 5.265,20.156 5.468,19.701 C5.82559624,18.9699027 6.11288832,18.2064692 6.326,17.421 L6.426,16.999 C6.65555464,15.9178276 6.95144756,14.8518115 7.312,13.807 C8.19429313,11.3777039 9.55900834,9.15204797 11.324,7.264 C13.558,4.9 16.836,3.316 21.345,2.419 C24.5307746,1.72073844 27.7634281,1.25682993 31.017,1.031 C34.2327445,0.841899412 37.451742,1.34276874 40.458,2.5 C40.7986719,2.62275987 41.046362,2.92009902 41.1055456,3.27734492 C41.1647292,3.63459081 41.0261582,3.99592039 40.7432744,4.2219824 C40.4603905,4.44804441 40.0773969,4.50351452 39.742,4.367 C36.9964579,3.31209094 34.0570532,2.85657015 31.121,3.031 C27.9653437,3.25182898 24.8300142,3.70269345 21.74,4.38 C17.704,5.18 14.689,6.615 12.776,8.637 C11.1971652,10.3296077 9.97673014,12.3238693 9.188,14.5 C8.85614522,15.4674021 8.58396707,16.4542566 8.373,17.455 L8.273,17.881 C8.03242184,18.790144 7.70456527,19.6739167 7.294,20.52 C7.106,20.94 6.917,21.36 6.754,21.788 C6.65950369,22.0048357 6.60691104,22.2376006 6.599,22.474 C6.643,22.798 7.025,23.148 7.429,23.519 C8.25493667,24.1015488 8.78786015,25.0134644 8.89,26.019 C8.86993297,26.4934145 8.73617951,26.9560643 8.5,27.368 C7.24784001,30.0034832 5.71353526,32.4953873 3.924,34.8 C3.162,35.731 3,36.1 3,36.249 C3.18487589,36.4288287 3.3857006,36.5914967 3.6,36.735 C3.8610164,36.9170713 4.13661917,37.0772821 4.424,37.214 C5.277,37.65 6.446,38.248 6.686,39.468 C6.82918406,40.2237094 6.73595159,41.0051861 6.419,41.706 C6.245,42.076 6.065,42.396 5.908,42.672 C5.859,42.758 5.808,42.854 5.757,42.941 C6.172,43.275 6.738,43.699 6.978,43.875 C7.19568419,44.0363089 7.33859797,44.2790429 7.37403559,44.5476525 C7.40947321,44.8162621 7.33440129,45.087755 7.166,45.3 C7.01761396,45.493007 6.88833948,45.6999801 6.78,45.918 C6.849,45.958 6.918,45.998 6.988,46.037 C7.87254397,46.4174365 8.54781232,47.1638818 8.838,48.082 C8.98493135,48.7872637 8.95538984,49.5179007 8.752,50.209 C8.706,50.418 8.659,50.627 8.632,50.836 C8.57367075,51.4411271 8.65403967,52.0515889 8.867,52.621 C9.08700586,53.5434005 9.99352073,54.1296839 10.925,53.952 C13.8392719,53.2514045 16.7107073,52.3832961 19.525,51.352 C19.862616,51.2348169 20.2371025,51.3066512 20.507394,51.5404437 C20.7776856,51.7742361 20.9027185,52.1344681 20.835394,52.4854437 C20.7680696,52.8364192 20.518616,53.1248169 20.181,53.242 C17.2866763,54.3026468 14.3325972,55.1925101 11.334,55.907 C11.063591,55.9661968 10.7878001,55.9973615 10.511,56 Z M5.411,42.66 L5.442,42.688 L5.411,42.66 Z" id="Shape" fill="#000000"/><path d="M24.78,61 C24.3194886,60.9998779 23.9186017,60.6852787 23.809,60.238 C23.42,58.657 21.879,54.314 19.438,53.211 C19.0639436,53.0419148 18.8312137,52.6614066 18.8510746,52.25139 C18.8709354,51.8413735 19.1393525,51.4851405 19.528,51.353 C20.572,50.999 21.517,50.668 22.261,50.408 C22.952,50.167 23.473,49.985 23.744,49.898 C27.902,48.583 28.744,47.082 28.721,46.053 C28.714833,45.7874245 28.8145893,45.530309 28.9982574,45.3383861 C29.1819255,45.1464632 29.43441,45.035507 29.7,45.03 C29.9668944,45.0171324 30.2273934,45.1142516 30.4207244,45.2987003 C30.6140553,45.483149 30.72331,45.7387958 30.723,46.006 C30.781,48.498 28.639,50.449 24.354,51.806 C24.096,51.889 23.592,52.065 22.923,52.298 L22.023,52.614 C23.6713886,54.4428529 24.8738065,56.6286317 25.536,59 L48.218,58.937 L48.151,58.837 C47.8629147,58.4221101 47.6039597,57.987734 47.376,57.537 C46.8786739,56.5263955 46.4636619,55.4773282 46.135,54.4 C45.5282684,52.3530291 45.1072324,50.2555471 44.877,48.133 C44.4831396,44.7875333 44.9892182,41.3975661 46.343,38.313 C47.141408,36.6438155 48.1288779,35.0718493 49.286,33.628 C49.866,32.846 50.466,32.038 50.986,31.217 C51.5369584,30.3565226 51.9907349,29.4375664 52.339,28.477 C52.4590412,28.1404558 52.7495081,27.8935174 53.1009845,27.8292041 C53.452461,27.7648907 53.8115493,27.8929732 54.0429845,28.1652041 C54.2744197,28.4374349 54.3430412,28.8124558 54.223,29.149 C53.8240909,30.2484396 53.3056501,31.3007471 52.677,32.287 C52.116,33.17 51.495,34.009 50.893,34.819 C49.8274731,36.142142 48.9162569,37.5824407 48.177,39.112 C46.9654389,41.8699237 46.5121643,44.9013057 46.864,47.893 C47.0796037,49.8964849 47.4752015,51.8764821 48.046,53.809 C48.3458821,54.7865634 48.7234175,55.7385946 49.175,56.656 C49.3663284,57.0297119 49.5824791,57.3901857 49.822,57.735 C50.2467579,58.3180683 50.5880507,58.9575717 50.836,59.635 C50.9314293,59.9384437 50.8767998,60.2691879 50.6888608,60.5258273 C50.5009218,60.7824667 50.202095,60.9343833 49.884,60.935 L24.784,61.005 L24.78,61 Z" id="Shape" fill="#000000"/><path d="M51.59,30 L45.56,30 C45.0077153,30 44.56,29.5522847 44.56,29 C44.56,28.4477153 45.0077153,28 45.56,28 L51.59,28 C53.2797857,28.0113562 54.9097539,27.375114 56.145,26.222 C57.3212829,25.1322463 57.9929687,23.6034822 58,22 C57.9324899,19.2516206 56.0314072,16.8895079 53.361,16.236 C53.0608385,16.1556469 52.8150853,15.9403268 52.695977,15.6533307 C52.5768688,15.3663346 52.5979411,15.0402773 52.753,14.771 C53.4125256,13.6236337 53.7597337,12.3234135 53.76,11 C53.6066894,6.44252209 49.7980977,2.86637968 45.24,3 C42.1214376,2.952171 39.2236218,4.60412524 37.676,7.312 C37.5476193,7.54539739 37.3314246,7.71792852 37.075362,7.79133064 C36.8192994,7.86473275 36.5445335,7.83293886 36.312,7.703 C35.4805285,7.23771349 34.542794,6.99552855 33.59,7 C30.7344481,6.91006033 28.3431743,9.14489567 28.24,12 C28.2386457,12.9722166 28.5383722,13.9210009 29.098,14.716 C29.283489,14.9803989 29.3298599,15.3181058 29.2225022,15.6227158 C29.1151446,15.9273258 28.8672778,16.1613307 28.557,16.251 C27.5488575,16.5392003 26.6235032,17.0625396 25.857,17.778 C24.6799781,18.8674047 24.0075478,20.3962151 24,22 C24.0304545,24.1976178 25.2690913,26.1997346 27.222,27.208 C27.700903,27.47261 27.8782305,28.0729696 27.6199562,28.5553188 C27.3616818,29.0376681 26.7637118,29.2228939 26.278,28.971 C23.6742344,27.6154903 22.0294566,24.9353252 22,22 C22.0045905,19.8457107 22.9034908,17.7900465 24.482,16.324 C25.1731204,15.6760892 25.966884,15.1472515 26.831,14.759 C26.4401238,13.8917982 26.2386446,12.951221 26.24,12 C26.3431147,8.04022455 29.629906,4.90994712 33.59,5 C34.5585941,4.99978644 35.5183644,5.18407047 36.418,5.543 C38.4276085,2.66427859 41.7294067,0.963976005 45.24,1 C50.9026476,0.866251916 55.6067648,5.3378462 55.76,11 C55.759871,12.2703741 55.507314,13.5280603 55.017,14.7 C57.9896138,15.9163691 59.9501626,18.7885357 60,22 C59.9954095,24.1542893 59.0965092,26.2099535 57.518,27.676 C55.9121127,29.1805726 53.7905593,30.0123017 51.59,30 Z" id="Shape" fill="#000000"/><path d="M50.151,14.277 C49.7937389,14.2769909 49.4636202,14.0863884 49.2849936,13.776989 C49.1063671,13.4675896 49.1063695,13.0863971 49.285,12.777 C49.5956568,12.2362529 49.7594136,11.6236303 49.76,11 C49.6051898,8.65275267 47.5886521,6.868206 45.24,7 C43.5796582,6.95342791 42.0249377,7.81197062 41.18,9.242 C40.9135226,9.72580143 40.3053014,9.90197738 39.8215,9.63549999 C39.3376986,9.3690226 39.1615226,8.76080144 39.428,8.277 C40.6244633,6.20822391 42.8506164,4.95304434 45.24,5 C48.693694,4.86623406 51.606911,7.54710861 51.76,11 C51.7595408,11.9737035 51.5044333,12.9303563 51.02,13.775 C50.841347,14.0860933 50.5097416,14.2776536 50.151,14.277 Z" id="Shape" fill="#000000"/><path d="M31.555,13.992 C31.2285138,13.9923736 30.922403,13.8333453 30.735,13.566 C30.4124633,13.107533 30.2395679,12.5605548 30.24,12 C30.3436961,10.2498891 31.8390942,8.91072666 33.59,9 C34.2017959,8.99616389 34.8041084,9.15122145 35.338,9.45 C35.6537656,9.62243855 35.8525594,9.9512102 35.8585738,10.3109418 C35.8645882,10.6706733 35.676896,11.0059067 35.3670713,11.1888045 C35.0572466,11.3717024 34.6730537,11.3740683 34.361,11.195 C34.1259505,11.0619618 33.8600804,10.9929942 33.59,10.995 C32.858,10.995 32.24,11.453 32.24,11.995 C32.2381143,12.144872 32.2843837,12.2913918 32.372,12.413 C32.6892854,12.8650456 32.5800432,13.4887112 32.128,13.806 C31.9609597,13.9260191 31.7606844,13.9910299 31.555,13.992 Z" id="Shape" fill="#000000"/><path d="M42,37 L29.407,37 C27.9724048,37.0018609 26.5960317,36.432794 25.5816188,35.4183812 C24.567206,34.4039683 23.9981391,33.0275952 24,31.593 C24.0052839,29.5926628 25.1099289,27.7572231 26.875,26.816 C25.8084177,23.6907162 27.1911562,20.2556323 30.1255174,18.7408647 C33.0598786,17.2260972 36.6610125,18.0884208 38.591,20.768 C40.3191763,20.1882518 42.2266448,20.6420888 43.5085489,21.9380144 C44.790453,23.23394 45.2235133,25.1462326 44.625,26.868 C45.0647379,27.1109972 45.468596,27.4138908 45.825,27.768 C47.3717777,29.3148047 47.8343866,31.6411008 46.997086,33.6620049 C46.1597855,35.6829091 44.187493,37.0003774 42,37 Z M33.185,20 C31.5428416,19.9997265 30.0214887,20.8628925 29.1793501,22.2726751 C28.3372115,23.6824577 28.2983388,25.4311885 29.077,26.877 C29.222235,27.1440024 29.238152,27.4625661 29.1202557,27.7427159 C29.0023593,28.0228658 28.763448,28.2341892 28.471,28.317 C26.8371593,28.7836456 25.7969184,30.3828112 26.0325991,32.0655614 C26.2682798,33.7483116 27.7078256,35.000166 29.407,35 L42,35 C43.3776409,34.9993378 44.6193898,34.1693192 45.1467646,32.896617 C45.6741395,31.6239149 45.3834038,30.1588743 44.41,29.184 C44.0091147,28.7843964 43.5164129,28.4891187 42.975,28.324 C42.6720397,28.2318515 42.4306285,28.0016537 42.3241852,27.7034154 C42.2177419,27.4051771 42.2588472,27.0741472 42.435,26.811 C42.7336601,26.3624012 42.8917313,25.8349168 42.889,25.296 C42.8867957,23.7628289 41.6441718,22.5206523 40.111,22.519 C39.6183118,22.5158847 39.134163,22.6476423 38.711,22.9 C38.4741786,23.0410312 38.189647,23.0780589 37.9246182,23.0023363 C37.6595894,22.9266138 37.4375678,22.7448566 37.311,22.5 C36.5096636,20.9622782 34.9189914,19.9984681 33.185,20 Z" id="Shape" fill="#000000"/><path d="M41,33 L31,33 C30.4477153,33 30,32.5522847 30,32 C30,31.4477153 30.4477153,31 31,31 L41,31 C41.5522847,31 42,31.4477153 42,32 C42,32.5522847 41.5522847,33 41,33 Z" id="Shape" fill="#000000"/><path d="M52,26 L44,26 C43.4477153,26 43,25.5522847 43,25 C43,24.4477153 43.4477153,24 44,24 L52,24 C52.5522847,24 53,24.4477153 53,25 C53,25.5522847 52.5522847,26 52,26 Z" id="Shape" fill="#000000"/><path d="M11.194,19.567 C10.8888508,19.5670321 10.6003862,19.4277344 10.4106651,19.1887325 C10.2209439,18.9497305 10.1507311,18.6371832 10.22,18.34 L10.32,17.907 C10.5131488,16.9905545 10.7602456,16.086314 11.06,15.199 C11.7556722,13.274706 12.8328806,11.5107644 14.227,10.013 C15.7595511,8.5356103 17.6468677,7.47795529 19.707,6.942 C20.0487245,6.83767844 20.4201459,6.92358921 20.6813533,7.16737057 C20.9425607,7.41115192 21.0538705,7.77576767 20.9733533,8.12387058 C20.8928362,8.47197349 20.6327245,8.75067845 20.291,8.855 C18.56399,9.29262258 16.9772482,10.1637817 15.681,11.386 C14.4731212,12.6862822 13.5398535,14.2167868 12.937,15.886 C12.6666327,16.6961058 12.4432611,17.5211451 12.268,18.357 L12.168,18.79 C12.064068,19.2443274 11.6600634,19.5666185 11.194,19.567 Z" id="Shape" fill="#000000"/><circle id="Oval" fill="#000000" cx="10" cy="22" r="1"/></g></g></svg>
