<?xml version="1.0" encoding="UTF-8"?>
<svg xmlns="http://www.w3.org/2000/svg" xmlns:xlink="http://www.w3.org/1999/xlink" width="512" height="512" viewBox="0 0 60 61" version="1.1"><!-- Generator: Sketch 51.3 (57544) - http://www.bohemiancoding.com/sketch --><title>004 - Anger</title><desc>Created with Sketch.</desc><defs/><g id="Page-1" stroke="none" stroke-width="1" fill="none" fill-rule="evenodd"><g id="004---Anger" transform="translate(-1.000000, 0.000000)" fill-rule="nonzero"><path d="M47.13,37.71 C45.8503538,40.6319437 45.3706323,43.8415908 45.74,47.01 C45.9651005,49.0721875 46.3733794,51.1102353 46.96,53.1 C47.2748963,54.1305317 47.672868,55.1338218 48.15,56.1 C48.7418004,57.0090608 49.2761765,57.9542385 49.75,58.93 L24.65,59 L24.65,58.99 L24.64,58.98 C24.55,58.62 23.04,52.8 19.72,51.3 C19.13,51.51 18.51,51.72 17.87,51.94 C15.6155402,52.7203881 13.3225261,53.3845945 11,53.93 C10.384199,54.0711979 9.73814792,53.9860044 9.18,53.69 C8.51754291,53.2970873 8.02278713,52.6741934 7.79,51.94 C7.52484783,51.2284319 7.42566071,50.4657172 7.5,49.71 C7.73858566,48.940746 7.82020035,48.1314004 7.74,47.33 C7.48,46.32 6.51,46.07 5.75,45.53 C5.14,45.09 6.25,43.68 6.25,43.68 C6.25,43.68 5.07,42.81 4.65,42.43 C4.21,42.07 4.82,41.45 5.38,40.28 C5.60694079,39.7719796 5.67323378,39.2067446 5.57,38.66 C5.36,37.59 3.73,37.18 2.93,36.59 C2.56,36.31 1.95,35.89 1.88,35.38 C1.77,34.67 2.61,33.67 3.02,33.17 C4.76454657,30.9217816 6.25996718,28.4908848 7.48,25.92 C7.64010631,25.6486227 7.73589137,25.3441631 7.76,25.03 C7.74,23.6 5.67,23.01 5.47,21.62 C5.44871368,21.2115508 5.52408857,20.8038412 5.69,20.43 C6.26667192,19.2042401 6.76109856,17.9414478 7.17,16.65 C7.41142981,15.464203 7.72874925,14.2951313 8.12,13.15 C8.95859812,10.8496676 10.2508376,8.74127689 11.92,6.95 C14.37,4.36 17.99,3.08 21.41,2.4 C24.4605973,1.7301555 27.5551339,1.27900815 30.67,1.05 L30.71,1.05 C30.7861548,1.03837718 30.8629821,1.03169654 30.94,1.03 C37.34,0.71 42.4,2.88 47.35,6.76 C50.0585045,8.77277844 52.0382351,11.6124983 52.99,14.85 C53.7151888,17.5213389 54.0552867,20.2825294 54,23.05 C53.980834,25.7831121 53.1829958,28.4541358 51.7,30.75 C50.21,33.1 48.25,35.14 47.13,37.71 Z" id="Shape" fill="#BB193B"/><path d="M44.26,37.71 C42.9803538,40.6319437 42.5006323,43.8415908 42.87,47.01 C43.0951005,49.0721875 43.5033794,51.1102353 44.09,53.1 C44.4048963,54.1305317 44.802868,55.1338218 45.28,56.1 C45.8718004,57.0090608 46.4061765,57.9542385 46.88,58.93 L24.65,58.99 L24.64,58.98 C24.55,58.62 23.04,52.8 19.72,51.3 C19.13,51.51 18.51,51.72 17.87,51.94 C17.5612075,51.6805581 17.2179405,51.4651749 16.85,51.3 C14.4,52.15 11.42,53.13 9.18,53.69 C8.51754291,53.2970873 8.02278713,52.6741934 7.79,51.94 C7.52484783,51.2284319 7.42566071,50.4657172 7.5,49.71 C7.73858566,48.940746 7.82020035,48.1314004 7.74,47.33 C7.48,46.32 6.51,46.07 5.75,45.53 C5.14,45.09 6.25,43.68 6.25,43.68 C6.25,43.68 5.07,42.81 4.65,42.43 C4.21,42.07 4.82,41.45 5.38,40.28 C5.60694079,39.7719796 5.67323378,39.2067446 5.57,38.66 C5.36,37.59 3.73,37.18 2.93,36.59 C2.56,36.31 1.95,35.89 1.88,35.38 C1.77,34.67 2.61,33.67 3.02,33.17 C4.76454657,30.9217816 6.25996718,28.4908848 7.48,25.92 C7.64010631,25.6486227 7.73589137,25.3441631 7.76,25.03 C7.74,23.6 5.67,23.01 5.47,21.62 C5.44871368,21.2115508 5.52408857,20.8038412 5.69,20.43 C6.26667192,19.2042401 6.76109856,17.9414478 7.17,16.65 C7.41142981,15.464203 7.72874925,14.2951313 8.12,13.15 C8.95859812,10.8496676 10.2508376,8.74127689 11.92,6.95 C14.37,4.36 17.99,3.08 21.41,2.4 C24.4605973,1.7301555 27.5551339,1.27900815 30.67,1.05 L30.71,1.05 C35.9,1.36 40.23,3.43 44.49,6.76 C47.1927291,8.77631392 49.1683037,11.6151058 50.12,14.85 C50.8451888,17.5213389 51.1852867,20.2825294 51.13,23.05 C51.110834,25.7831121 50.3129958,28.4541358 48.83,30.75 C47.34,33.1 45.38,35.14 44.26,37.71 Z" id="Shape" fill="#EF314C"/><path d="M54.43,15.07 C56.3139355,12.3156007 56.517773,8.74447379 54.9594909,5.79359506 C53.4012088,2.84271632 50.3370528,0.997331552 47,1 C46.5003869,0.997287854 46.0015945,1.04080666 45.51,1.13 C42.5330522,1.62392074 40.0040293,3.58175271 38.78,6.34 C37.7077806,5.47873836 36.3752765,5.00636919 35,5 C34.4970806,4.99656923 33.9959646,5.06046993 33.51,5.19 C30.8567302,5.87020277 29.0009349,8.26092798 29,11 C28.9967538,12.4786877 29.5459835,13.9052585 30.54,15 L30.5,15 C26.9101491,15 24,17.9101491 24,21.5 C24,25.0898509 26.9101491,28 30.5,28 L53.5,28 C56.9007633,27.9889421 59.718143,25.3583658 59.9621165,21.9663471 C60.20609,18.5743285 57.7941755,15.5676312 54.43,15.07 Z" id="Shape" fill="#545C60"/><path d="M51.43,15.07 C53.1609994,12.539705 53.4832386,9.3017311 52.2848753,6.47990949 C51.086512,3.65808788 48.5327707,1.64147733 45.51,1.13 C42.5330522,1.62392074 40.0040293,3.58175271 38.78,6.34 C38.0868885,5.77264436 37.2725602,5.37232326 36.4,5.17 C36.1657967,5.54477346 35.958605,5.93576422 35.78,6.34 C35.1138709,5.7993737 34.3399334,5.40729085 33.51,5.19 C30.8567302,5.87020277 29.0009349,8.26092798 29,11 C28.9967538,12.4786877 29.5459835,13.9052585 30.54,15 L30.5,15 C26.9101491,15 24,17.9101491 24,21.5 C24,25.0898509 26.9101491,28 30.5,28 L50.5,28 C53.9007633,27.9889421 56.718143,25.3583658 56.9621165,21.9663471 C57.20609,18.5743285 54.7941755,15.5676312 51.43,15.07 Z" id="Shape" fill="#7F8E94"/><path d="M51.39,32.98 L45.14,43 L44.75,40.3 L44.08,35.59 C44.0339619,35.227406 43.7916943,34.9197647 43.45,34.79 L36.72,32.27 C36.2951948,32.1089581 36.0323269,31.6817978 36.08,31.23 L37.05,21.9 C37.1011593,21.3909075 37.5283498,21.0025525 38.04,21 L48.43,21 C48.7395956,20.9994568 49.0319843,21.1423424 49.2217869,21.3869333 C49.4115895,21.6315243 49.4773995,21.950235 49.4,22.25 L47.64,29.18 C47.5210261,29.6540015 47.7620765,30.1445601 48.21,30.34 L50.94,31.54 C51.2049423,31.6561828 51.4065863,31.8814103 51.4928764,32.1575386 C51.5791665,32.4336669 51.5416456,32.7336335 51.39,32.98 Z" id="Shape" fill="#FEC108"/><path d="M48.85,32.98 L44.45,40.3 L43.8,35.59 C43.7592332,35.2320708 43.5259455,34.9251134 43.192,34.79 L36.692,32.27 C36.2775166,32.0994874 36.0256097,31.6755664 36.074,31.23 L37.01,21.9 C37.0490966,21.3984533 37.4630085,21.0087873 37.966,21 L45.987,21 C46.2922208,21.0055235 46.5777861,21.1516889 46.7607609,21.3960463 C46.9437356,21.6404036 47.0036118,21.9555649 46.923,22.25 L45.223,29.18 C45.1054038,29.648434 45.3358989,30.1345691 45.773,30.34 L48.418,31.54 C48.6779797,31.6616638 48.8737601,31.8883942 48.9562403,32.1633279 C49.0387204,32.4382617 49.0000764,32.7353193 48.85,32.98 Z" id="Shape" fill="#FFDC00"/><circle id="Oval" fill="#F5F5F5" cx="35" cy="10" r="4"/><path d="M10.511,55 C8.86133749,54.9693354 7.42609992,53.8626511 6.977,52.275 C6.66129272,51.4143284 6.54869822,50.4923539 6.648,49.581 C6.682,49.318 6.739,49.05 6.798,48.781 C6.91983729,48.3933509 6.95399416,47.9834684 6.898,47.581 C6.817,47.266 6.586,47.109 5.998,46.773 C5.764,46.64 5.527,46.504 5.305,46.348 C4.97992342,46.1159696 4.76529209,45.7598192 4.712,45.364 C4.67385435,44.8612176 4.78741543,44.358553 5.038,43.921 C4.697,43.66 4.324,43.366 4.108,43.171 C3.184,42.415 3.796,41.332 4.163,40.686 C4.297,40.448 4.454,40.173 4.603,39.853 C4.74071283,39.535885 4.7800777,39.1847364 4.716,38.845 C4.665,38.585 3.941,38.215 3.508,37.994 C3.14621108,37.8226521 2.79905232,37.6219823 2.47,37.394 C1.75390286,36.9885676 1.23098804,36.3121299 1.019,35.517 C0.86,34.487 1.619,33.458 2.344,32.575 C4.05549416,30.369866 5.52274253,27.9855874 6.72,25.464 C6.79639369,25.3278576 6.85360177,25.1818088 6.89,25.03 C6.89,24.755 6.565,24.439 6.076,23.991 C5.3374331,23.4449531 4.82021123,22.6511932 4.619,21.755 C4.56219027,21.1846704 4.65274732,20.609306 4.882,20.084 C5.062,19.611 5.265,19.156 5.468,18.701 C5.82500188,17.9696463 6.11227241,17.2062701 6.326,16.421 L6.426,15.999 C6.65555464,14.9178276 6.95144756,13.8518115 7.312,12.807 C8.19391823,10.3775232 9.55867725,8.15179579 11.324,6.264 C13.559,3.9 16.836,2.315 21.345,1.419 C24.5307612,0.720664318 27.7634202,0.256755027 31.017,0.031 C31.7924583,-0.0100059683 32.5695417,-0.0100059683 33.345,0.031 C33.8972847,0.0613756612 34.3203757,0.53371525 34.29,1.086 C34.2596243,1.63828475 33.7872847,2.06137566 33.235,2.031 C32.5311528,1.99399365 31.8258472,1.99399365 31.122,2.031 C27.9659981,2.25168502 24.8303256,2.70255073 21.74,3.38 C17.704,4.18 14.69,5.614 12.776,7.637 C11.1964812,9.32908774 9.97595592,11.3234969 9.188,13.5 C8.85614522,14.4674021 8.58396707,15.4542566 8.373,16.455 L8.273,16.881 C8.03211747,17.7897251 7.70427047,18.6731372 7.294,19.519 C7.106,19.94 6.917,20.36 6.754,20.788 C6.65882555,21.004613 6.60620302,21.2375101 6.599,21.474 C6.643,21.798 7.025,22.148 7.429,22.519 C8.25404392,23.1023679 8.78670832,24.0138401 8.89,25.019 C8.86962324,25.4933639 8.73589055,25.9559418 8.5,26.368 C7.24789539,29.0035133 5.71358706,31.4954232 3.924,33.8 C3.163,34.73 3,35.1 3,35.249 C3.18487589,35.4288287 3.3857006,35.5914967 3.6,35.735 C3.8610164,35.9170713 4.13661917,36.0772821 4.424,36.214 C5.277,36.65 6.446,37.248 6.685,38.468 C6.82881169,39.2232671 6.7359138,40.0045174 6.419,40.705 C6.245,41.076 6.065,41.396 5.908,41.672 C5.859,41.758 5.808,41.854 5.757,41.941 C6.172,42.275 6.738,42.699 6.977,42.875 C7.1948369,43.0361576 7.33794805,43.2788177 7.37357522,43.5474353 C7.40920239,43.8160529 7.33429522,44.0876291 7.166,44.3 C7.01761396,44.493007 6.88833948,44.6999801 6.78,44.918 L6.988,45.037 C7.87254397,45.4174365 8.54781232,46.1638818 8.838,47.082 C8.98510596,47.7873046 8.95521589,48.5180654 8.751,49.209 C8.706,49.418 8.658,49.627 8.632,49.836 C8.57292479,50.4411399 8.65331583,51.0517696 8.867,51.621 C9.08968402,52.5415037 9.99415212,53.1264634 10.925,52.952 C13.8393861,52.2518257 16.7108456,51.38371 19.525,50.352 C20.0469091,50.1705745 20.6170744,50.4465909 20.7985,50.9685 C20.9799255,51.4904091 20.7039091,52.0605744 20.182,52.242 C17.2877674,53.3029198 14.3336722,54.192788 11.335,54.907 C11.0642642,54.9662651 10.7881347,54.9974302 10.511,55 Z M5.411,41.66 L5.442,41.688 L5.411,41.66 Z" id="Shape" fill="#000000"/><path d="M24.78,60 C24.3194886,59.9998779 23.9186017,59.6852787 23.809,59.238 C23.42,57.657 21.879,53.314 19.438,52.211 C19.0639436,52.0419148 18.8312137,51.6614066 18.8510746,51.25139 C18.8709354,50.8413735 19.1393525,50.4851405 19.528,50.353 C20.568,50 21.51,49.67 22.253,49.411 C22.953,49.168 23.472,48.985 23.744,48.898 C27.901,47.583 28.744,46.082 28.72,45.053 C28.7138345,44.7872547 28.8137271,44.5299897 28.9976105,44.338038 C29.1814939,44.1460862 29.4342349,44.0352448 29.7,44.03 C29.9667401,44.0177135 30.2269051,44.1150263 30.4201048,44.2993497 C30.6133044,44.4836731 30.7227368,44.7389772 30.723,45.006 C30.782,47.498 28.64,49.448 24.356,50.806 C24.096,50.889 23.589,51.066 22.917,51.301 L22.017,51.614 C23.667431,53.4423403 24.871912,55.6281362 25.536,58 L48.218,57.937 L48.151,57.837 C47.8629471,57.4220892 47.6039935,56.9877154 47.376,56.537 C46.8782986,55.5265618 46.4632745,54.4774636 46.135,53.4 C45.5854937,51.5657744 45.1917632,49.6884461 44.958,47.788 C44.8839938,47.2404097 45.2679097,46.7365062 45.8155,46.6625 C46.3630903,46.5884938 46.8669938,46.9724097 46.941,47.52 C47.1583442,49.3101298 47.5263155,51.0787341 48.041,52.807 C48.3397548,53.7859287 48.717323,54.7390461 49.17,55.657 C49.3612956,56.0312578 49.577794,56.3920885 49.818,56.737 C50.2427077,57.3199385 50.5836858,57.9594827 50.831,58.637 C50.9264293,58.9404437 50.8717998,59.2711879 50.6838608,59.5278273 C50.4959218,59.7844667 50.197095,59.9363833 49.879,59.937 L24.779,60.007 L24.78,60 Z" id="Shape" fill="#000000"/><path d="M53.5,29 L47.94,29 C47.3877153,29 46.94,28.5522847 46.94,28 C46.94,27.4477153 47.3877153,27 47.94,27 L53.5,27 C56.3759861,26.9890617 58.7579515,24.7642321 58.9648337,21.8956758 C59.1717159,19.0271195 57.133653,16.4835145 54.289,16.06 C53.9462355,16.0112712 53.6530611,15.7887161 53.5139835,15.4716681 C53.374906,15.1546202 53.4097141,14.7881909 53.606,14.503 C54.5175101,13.1785557 55.0037742,11.6077901 55,10 C54.9986061,6.22391764 52.3570348,2.96299678 48.6634881,2.17781347 C44.9699414,1.39263016 41.2303155,3.29702028 39.693,6.746 C39.5664184,7.03050608 39.3145262,7.23980746 39.0116501,7.31214485 C38.7087741,7.38448224 38.3894862,7.31159862 38.148,7.115 C36.1248826,5.46900234 33.1759251,5.6566031 31.3776961,7.54569938 C29.579467,9.43479567 29.5373489,12.3894142 31.281,14.329 C31.5462631,14.6221166 31.613948,15.0439908 31.4536924,15.405377 C31.2934367,15.7667633 30.935325,15.9998192 30.54,16 C28.5750392,15.9928547 26.7555286,17.0345462 25.7668602,18.7326795 C24.7781918,20.4308127 24.7705678,22.5274009 25.7468602,24.2326795 C26.7231526,25.9379581 28.5350392,26.9928547 30.5,27 L36.42,27 C36.9722847,27 37.42,27.4477153 37.42,28 C37.42,28.5522847 36.9722847,29 36.42,29 L30.5,29 C26.6922273,29.0017965 23.4874087,26.1499809 23.0468336,22.3677818 C22.6062585,18.5855828 25.0697671,15.0734836 28.776,14.2 C27.3671257,11.456249 27.9201187,8.11368643 30.1375902,5.96987748 C32.3550616,3.82606853 35.7143925,3.38627122 38.409,4.887 C41.1626585,0.289757365 47.0507711,-1.31966381 51.7600294,1.23771016 C56.4692877,3.79508414 58.325541,9.61010173 55.969,14.423 C59.4164357,15.6326056 61.4906843,19.1503167 60.8805598,22.7524976 C60.2704353,26.3546784 57.1534793,28.9931219 53.5,29 Z" id="Shape" fill="#000000"/><path d="M45.143,44 C45.0738043,43.9998971 45.004793,43.9928619 44.937,43.979 C44.5257522,43.8924574 44.2124943,43.5580226 44.153,43.142 L43.094,35.729 L36.372,33.208 C35.5192265,32.8882739 34.9901485,32.0327873 35.085,31.127 L36.055,21.793 C36.1610181,20.7741718 37.0196706,20.0001326 38.044,20 L48.429,20 C49.0460304,20.0001665 49.6284401,20.2851311 50.007233,20.7722064 C50.386026,21.2592818 50.5187895,21.8939311 50.367,22.492 L48.606,29.424 L51.341,30.624 C51.8738322,30.8559718 52.2794181,31.3082319 52.4522103,31.8630868 C52.6250025,32.4179417 52.5479118,33.0205162 52.241,33.514 L45.992,43.529 C45.8093134,43.8220659 45.4883433,44.0001306 45.143,44 Z M38.043,22 L37.074,31.335 L43.795,33.855 C44.4795895,34.1115794 44.9696288,34.7212527 45.073,35.445 L45.744,40.145 L50.544,32.454 L47.809,31.254 C46.9100446,30.8643643 46.4278978,29.8788682 46.672,28.93 L48.429,22 L38.043,22 Z" id="Shape" fill="#000000"/><path d="M11.194,18.567 C10.8888508,18.5670321 10.6003862,18.4277344 10.4106651,18.1887325 C10.2209439,17.9497305 10.1507311,17.6371832 10.22,17.34 L10.32,16.907 C10.5131488,15.9905545 10.7602456,15.086314 11.06,14.199 C11.7556722,12.274706 12.8328806,10.5107644 14.227,9.013 C15.759253,7.53520915 17.6466812,6.47749166 19.707,5.942 C20.2327761,5.7884316 20.7842517,6.08642081 20.94393,6.61037367 C21.1036082,7.13432652 20.8120586,7.68923351 20.29,7.855 C18.5633464,8.29277994 16.976966,9.16392959 15.681,10.386 C14.4731212,11.6862822 13.5398535,13.2167868 12.937,14.886 C12.6666327,15.6961058 12.4432611,16.5211451 12.268,17.357 L12.168,17.79 C12.064068,18.2443274 11.6600634,18.5666185 11.194,18.567 Z" id="Shape" fill="#000000"/><circle id="Oval" fill="#000000" cx="10" cy="21" r="1"/></g></g></svg>
