<?xml version="1.0" encoding="UTF-8"?>
<svg xmlns="http://www.w3.org/2000/svg" xmlns:xlink="http://www.w3.org/1999/xlink" width="512" height="512" viewBox="0 0 60 60" version="1.1"><!-- Generator: Sketch 51.3 (57544) - http://www.bohemiancoding.com/sketch --><title>005 - Anxiety</title><desc>Created with Sketch.</desc><defs/><g id="Page-1" stroke="none" stroke-width="1" fill="none" fill-rule="evenodd"><g id="005---Anxiety" fill-rule="nonzero"><path d="M46.13,37.71 C44.8503538,40.6319437 44.3706323,43.8415908 44.74,47.01 C44.9651005,49.0721875 45.3733794,51.1102353 45.96,53.1 C46.2748963,54.1305317 46.672868,55.1338218 47.15,56.1 C47.7418004,57.0090608 48.2761765,57.9542385 48.75,58.93 L23.65,59 L23.65,58.99 C23.57,58.69 22.06,52.81 18.72,51.3 C18.13,51.51 17.51,51.72 16.87,51.94 C14.6155402,52.7203881 12.3225261,53.3845945 10,53.93 C9.38419903,54.0711979 8.73814792,53.9860044 8.18,53.69 C7.51754291,53.2970873 7.02278713,52.6741934 6.79,51.94 C6.52484783,51.2284319 6.42566071,50.4657172 6.5,49.71 C6.73858566,48.940746 6.82020035,48.1314004 6.74,47.33 C6.48,46.32 5.51,46.07 4.75,45.53 C4.14,45.09 5.25,43.68 5.25,43.68 C5.25,43.68 4.07,42.81 3.65,42.43 C3.21,42.07 3.82,41.45 4.38,40.28 C4.60694079,39.7719796 4.67323378,39.2067446 4.57,38.66 C4.36,37.59 2.73,37.18 1.93,36.59 C1.56,36.31 0.95,35.89 0.88,35.38 C0.77,34.67 1.61,33.67 2.02,33.17 C3.76454657,30.9217816 5.25996718,28.4908848 6.48,25.92 C6.64010631,25.6486227 6.73589137,25.3441631 6.76,25.03 C6.74,23.6 4.67,23.01 4.47,21.62 C4.44871368,21.2115508 4.52408857,20.8038412 4.69,20.43 C5.26667192,19.2042401 5.76109856,17.9414478 6.17,16.65 C6.41142981,15.464203 6.72874925,14.2951313 7.12,13.15 C7.95859812,10.8496676 9.25083757,8.74127689 10.92,6.95 C13.37,4.36 16.99,3.08 20.41,2.4 C23.4740825,1.7301327 26.5819199,1.27899501 29.71,1.05 C29.7861548,1.03837718 29.8629821,1.03169654 29.94,1.03 C36.34,0.71 41.4,2.88 46.35,6.76 C49.0585045,8.77277844 51.0382351,11.6124983 51.99,14.85 C52.7151888,17.5213389 53.0552867,20.2825294 53,23.05 C52.980834,25.7831121 52.1829958,28.4541358 50.7,30.75 C49.21,33.1 47.25,35.14 46.13,37.71 Z" id="Shape" fill="#6A1B9A"/><path d="M43.26,37.71 C41.9803538,40.6319437 41.5006323,43.8415908 41.87,47.01 C42.0951005,49.0721875 42.5033794,51.1102353 43.09,53.1 C43.4048963,54.1305317 43.802868,55.1338218 44.28,56.1 C44.8718004,57.0090608 45.4061765,57.9542385 45.88,58.93 L23.65,58.99 C23.57,58.69 22.06,52.81 18.72,51.3 C18.13,51.51 17.51,51.72 16.87,51.94 C16.5612075,51.6805581 16.2179405,51.4651749 15.85,51.3 C13.4,52.15 10.42,53.13 8.18,53.69 C7.51754291,53.2970873 7.02278713,52.6741934 6.79,51.94 C6.52484783,51.2284319 6.42566071,50.4657172 6.5,49.71 C6.73858566,48.940746 6.82020035,48.1314004 6.74,47.33 C6.48,46.32 5.51,46.07 4.75,45.53 C4.14,45.09 5.25,43.68 5.25,43.68 C5.25,43.68 4.07,42.81 3.65,42.43 C3.21,42.07 3.82,41.45 4.38,40.28 C4.60694079,39.7719796 4.67323378,39.2067446 4.57,38.66 C4.36,37.59 2.73,37.18 1.93,36.59 C1.56,36.31 0.95,35.89 0.88,35.38 C0.77,34.67 1.61,33.67 2.02,33.17 C3.76454657,30.9217816 5.25996718,28.4908848 6.48,25.92 C6.64010631,25.6486227 6.73589137,25.3441631 6.76,25.03 C6.74,23.6 4.67,23.01 4.47,21.62 C4.44871368,21.2115508 4.52408857,20.8038412 4.69,20.43 C5.26667192,19.2042401 5.76109856,17.9414478 6.17,16.65 C6.41142981,15.464203 6.72874925,14.2951313 7.12,13.15 C7.95859812,10.8496676 9.25083757,8.74127689 10.92,6.95 C13.37,4.36 16.99,3.08 20.41,2.4 C23.4740825,1.7301327 26.5819199,1.27899501 29.71,1.05 C34.9,1.36 39.23,3.43 43.49,6.76 C46.1927291,8.77631392 48.1683037,11.6151058 49.12,14.85 C49.8451888,17.5213389 50.1852867,20.2825294 50.13,23.05 C50.110834,25.7831121 49.3129958,28.4541358 47.83,30.75 C46.34,33.1 44.38,35.14 43.26,37.71 Z" id="Shape" fill="#9D27B0"/><rect id="Rectangle-path" fill="#545C60" x="31" y="26" width="28" height="6" rx="1"/><rect id="Rectangle-path" fill="#7F8E94" x="31" y="26" width="25" height="6" rx="1"/><path d="M57,26 L33,26 L34.69,7.36 C34.9594707,5.38136695 36.6843706,3.92881967 38.68,4 L51.32,4 C53.3156294,3.92881967 55.0405293,5.38136695 55.31,7.36 L57,26 Z" id="Shape" fill="#FDD834"/><path d="M54,26 L33,26 L34.69,7.36 C34.9594707,5.38136695 36.6843706,3.92881967 38.68,4 L48.32,4 C50.3156294,3.92881967 52.0405293,5.38136695 52.31,7.36 L54,26 Z" id="Shape" fill="#FFEB3A"/><polyline id="Shape" fill="#7F8E94" points="47 17.46 47 26 43 26 43 17.46"/><path d="M49,14 C49,16.209139 47.209139,18 45,18 C44.4847146,18.0039542 43.9741272,17.9018367 43.5,17.7 C41.9895658,17.0925605 41,15.6280031 41,14 C41,12.3719969 41.9895658,10.9074395 43.5,10.3 C43.9741272,10.0981633 44.4847146,9.99604578 45,10 C46.060866,10 47.0782816,10.4214274 47.8284271,11.1715729 C48.5785726,11.9217184 49,12.939134 49,14 Z" id="Shape" fill="#F44335"/><ellipse id="Oval" fill="#F44335" cx="43.5" cy="14" rx="2.5" ry="3.7"/><path d="M9.531,55 C7.88161945,54.9676361 6.44767795,53.8597935 6,52.272 C5.6848426,51.4111982 5.57259663,50.4892755 5.672,49.578 C5.705,49.315 5.763,49.046 5.822,48.778 C5.94347655,48.3902802 5.97762669,47.9804784 5.922,47.578 C5.841,47.264 5.61,47.108 5.022,46.771 C4.788,46.638 4.551,46.502 4.329,46.346 C4.00392342,46.1139696 3.78929209,45.7578192 3.736,45.362 C3.69785435,44.8592176 3.81141543,44.356553 4.062,43.919 C3.721,43.658 3.348,43.364 3.132,43.169 C2.208,42.413 2.82,41.33 3.187,40.684 C3.321,40.446 3.478,40.171 3.628,39.851 C3.76491961,39.5333086 3.80391694,39.1819844 3.74,38.842 C3.69,38.583 2.965,38.213 2.533,37.992 C2.17077307,37.8208802 1.82326375,37.6202011 1.494,37.392 C0.776807888,36.9878421 0.252420294,36.3120849 0.039,35.517 C-0.12,34.487 0.639,33.458 1.364,32.575 C3.07549416,30.369866 4.54274253,27.9855874 5.74,25.464 C5.81665216,25.3279802 5.87387471,25.1818944 5.91,25.03 C5.91,24.755 5.585,24.439 5.097,23.991 C4.35779367,23.4453722 3.84013234,22.6514828 3.639,21.755 C3.58307696,21.1851159 3.67324528,20.610379 3.901,20.085 C4.082,19.611 4.285,19.156 4.488,18.701 C4.84500188,17.9696463 5.13227241,17.2062701 5.346,16.421 L5.446,15.999 C5.67555464,14.9178276 5.97144756,13.8518115 6.332,12.807 C7.21429313,10.3777039 8.57900834,8.15204797 10.344,6.264 C12.578,3.9 15.856,2.316 20.365,1.419 C23.5507746,0.720738442 26.7834281,0.256829935 30.037,0.031 C30.5892847,0.0017289168 31.0607289,0.425715257 31.09,0.978000001 C31.1192711,1.53028474 30.6952847,2.0017289 30.143,2.031 C26.9866691,2.25169685 23.850665,2.70256219 20.76,3.38 C16.724,4.18 13.709,5.615 11.796,7.637 C10.2171652,9.32960767 8.99673014,11.3238693 8.208,13.5 C7.87614522,14.4674021 7.60396707,15.4542566 7.393,16.455 L7.293,16.881 C7.05211747,17.7897251 6.72427047,18.6731372 6.314,19.519 C6.126,19.94 5.937,20.36 5.774,20.788 C5.67950369,21.0048357 5.62691104,21.2376006 5.619,21.474 C5.663,21.798 6.045,22.148 6.449,22.519 C7.27493667,23.1015488 7.80786015,24.0134644 7.91,25.019 C7.89163342,25.494103 7.7592421,25.9578156 7.524,26.371 C6.27044291,29.0056529 4.73479435,31.4965554 2.944,33.8 C2.183,34.727 2.024,35.094 2.02,35.246 C2.20487589,35.4258287 2.4057006,35.5884967 2.62,35.732 C2.8810164,35.9140713 3.15661917,36.0742821 3.444,36.211 C4.297,36.647 5.465,37.245 5.706,38.464 C5.84918406,39.2197094 5.75595159,40.0011861 5.439,40.702 C5.265,41.073 5.085,41.393 4.928,41.669 C4.879,41.755 4.828,41.851 4.777,41.938 C5.192,42.272 5.758,42.696 5.998,42.872 C6.21658322,43.0333432 6.36011213,43.2766776 6.39557358,43.5460337 C6.43103503,43.8153899 6.35537642,44.0875809 6.186,44.3 C6.03761396,44.493007 5.90833948,44.6999801 5.8,44.918 C5.869,44.958 5.938,44.998 6.008,45.037 C6.89254397,45.4174365 7.56781232,46.1638818 7.858,47.082 C8.00492837,47.7865938 7.97538525,48.5165836 7.772,49.207 C7.726,49.417 7.679,49.626 7.652,49.836 C7.59367075,50.4411271 7.67403967,51.0515889 7.887,51.621 C8.10879513,52.542134 9.01394191,53.1275326 9.945,52.952 C12.8592719,52.2514045 15.7307073,51.3832961 18.545,50.352 C19.0669091,50.1708506 19.6368506,50.4470909 19.818,50.969 C19.9991494,51.4909091 19.7229091,52.0608506 19.201,52.242 C16.3066763,53.3026468 13.3525972,54.1925101 10.354,54.907 C10.083591,54.9661968 9.80780014,54.9973615 9.531,55 Z M4.431,41.66 L4.462,41.688 L4.431,41.66 Z" id="Shape" fill="#000000"/><path d="M23.8,60 C23.3394886,59.9998779 22.9386017,59.6852787 22.829,59.238 C22.44,57.657 20.899,53.314 18.458,52.211 C18.0839436,52.0419148 17.8512137,51.6614066 17.8710746,51.25139 C17.8909354,50.8413735 18.1593525,50.4851405 18.548,50.353 C19.589,49.999 20.533,49.669 21.276,49.41 C21.969,49.167 22.492,48.985 22.764,48.898 C26.922,47.583 27.764,46.082 27.741,45.053 C27.7280213,44.5007153 28.1652153,44.0424787 28.7175,44.0295 C29.2697847,44.0165213 29.7280213,44.4537153 29.741,45.006 C29.799,47.498 27.657,49.449 23.372,50.806 C23.113,50.889 22.607,51.065 21.937,51.3 L21.037,51.614 C22.68755,53.4422555 23.8920473,55.6280809 24.556,58 L47.238,57.937 L47.171,57.837 C46.8835209,57.4217199 46.6245913,56.9873863 46.396,56.537 C45.8986739,55.5263955 45.4836619,54.4773282 45.155,53.4 C44.5491073,51.3519581 44.1290741,49.2534657 43.9,47.13 C43.5056514,43.7845258 44.0117491,40.3944307 45.366,37.31 C46.1561256,35.6583098 47.1317423,34.101953 48.274,32.671 C48.581,32.257 48.889,31.842 49.188,31.421 C49.5127942,30.9854969 50.125879,30.888977 50.5687713,31.2036207 C51.0116636,31.5182644 51.1223251,32.1289551 50.818,32.579 C50.512,33.011 50.196,33.437 49.882,33.861 C48.8302986,35.1714265 47.9305531,36.5968623 47.2,38.11 C45.9883817,40.867554 45.5351011,43.8986307 45.887,46.89 C46.1030902,48.8934102 46.4986793,50.873364 47.069,52.806 C47.3693226,53.7834087 47.7468443,54.7354053 48.198,55.653 C48.3893137,56.0269274 48.6058123,56.3874242 48.846,56.732 C49.2708195,57.3148685 49.6118062,57.954429 49.859,58.632 C49.9544293,58.9354437 49.8997998,59.2661879 49.7118608,59.5228273 C49.5239218,59.7794667 49.225095,59.9313833 48.907,59.932 L23.8,60 Z" id="Shape" fill="#000000"/><path d="M58,33 L32,33 C30.8954305,33 30,32.1045695 30,31 L30,27 C30,25.8954305 30.8954305,25 32,25 L58,25 C59.1045695,25 60,25.8954305 60,27 L60,31 C60,32.1045695 59.1045695,33 58,33 Z M32,27 L32,31 L58,31 L58,27 L32,27 Z" id="Shape" fill="#000000"/><path d="M57,27 L33,27 C32.7184274,27.0011429 32.4494208,26.883524 32.2590676,26.6760389 C32.0687143,26.4685539 31.9746559,26.190432 32,25.91 L33.7,7.272 C33.9983287,4.77019846 36.1629529,2.9136888 38.681,3 L51.319,3 C53.8367058,2.91363867 56.0011941,4.76959726 56.3,7.271 L58,25.91 C58.0253441,26.190432 57.9312857,26.4685539 57.7409324,26.6760389 C57.5505792,26.883524 57.2815726,27.0011429 57,27 Z M34.1,25 L55.91,25 L54.31,7.453 C54.0836024,5.99270328 52.7953637,4.93618387 51.319,5 L38.681,5 C37.2046363,4.93618387 35.9163976,5.99270328 35.69,7.453 L34.1,25 Z" id="Shape" fill="#000000"/><path d="M47,27 L43,27 C42.4477153,27 42,26.5522847 42,26 L42,17.46 C42,16.9077153 42.4477153,16.46 43,16.46 C43.5522847,16.46 44,16.9077153 44,17.46 L44,25 L46,25 L46,17.46 C46,16.9077153 46.4477153,16.46 47,16.46 C47.5522847,16.46 48,16.9077153 48,17.46 L48,26 C48,26.5522847 47.5522847,27 47,27 Z" id="Shape" fill="#000000"/><path d="M45,19 C42.2385763,19 40,16.7614237 40,14 C40,11.2385763 42.2385763,9 45,9 C47.7614237,9 50,11.2385763 50,14 C49.9966939,16.7600532 47.7600532,18.9966939 45,19 Z M45,11 C43.3431458,11 42,12.3431458 42,14 C42,15.6568542 43.3431458,17 45,17 C46.6568542,17 48,15.6568542 48,14 C48,12.3431458 46.6568542,11 45,11 Z" id="Shape" fill="#000000"/><path d="M45,7 C44.4477153,7 44,6.55228475 44,6 L44,1 C44,0.44771525 44.4477153,1.01453063e-16 45,0 C45.5522847,-1.01453063e-16 46,0.44771525 46,1 L46,6 C46,6.55228475 45.5522847,7 45,7 Z" id="Shape" fill="#000000"/><path d="M51,9 C50.5956041,8.99991365 50.2310659,8.7562725 50.076322,8.38265456 C49.9215781,8.00903662 50.0070921,7.57899425 50.293,7.293 L55.293,2.293 C55.5440745,2.03304342 55.9158779,1.9287874 56.2655073,2.02030284 C56.6151368,2.11181828 56.8881817,2.38486324 56.9796972,2.73449268 C57.0712126,3.08412211 56.9669566,3.45592553 56.707,3.707 L51.707,8.707 C51.5195073,8.89454937 51.2651948,8.99994336 51,9 Z" id="Shape" fill="#000000"/><path d="M39,9 C38.7348052,8.99994336 38.4804927,8.89454937 38.293,8.707 L33.293,3.707 C32.9140278,3.31462111 32.9194476,2.69091522 33.3051814,2.30518142 C33.6909152,1.91944763 34.3146211,1.91402779 34.707,2.293 L39.707,7.293 C39.9929079,7.57899425 40.0784219,8.00903662 39.923678,8.38265456 C39.7689341,8.7562725 39.4043959,8.99991365 39,9 Z" id="Shape" fill="#000000"/><path d="M37,15 L31,15 C30.4477153,15 30,14.5522847 30,14 C30,13.4477153 30.4477153,13 31,13 L37,13 C37.5522847,13 38,13.4477153 38,14 C38,14.5522847 37.5522847,15 37,15 Z" id="Shape" fill="#000000"/><path d="M59,15 L53,15 C52.4477153,15 52,14.5522847 52,14 C52,13.4477153 52.4477153,13 53,13 L59,13 C59.5522847,13 60,13.4477153 60,14 C60,14.5522847 59.5522847,15 59,15 Z" id="Shape" fill="#000000"/><path d="M10.214,18.567 C9.90885078,18.5670321 9.62038624,18.4277344 9.43066506,18.1887325 C9.24094389,17.9497305 9.17073112,17.6371832 9.24,17.34 L9.34,16.907 C9.53314883,15.9905545 9.78024556,15.086314 10.08,14.199 C10.7756722,12.274706 11.8528806,10.5107644 13.247,9.013 C14.7798052,7.53542525 16.6674938,6.47775479 18.728,5.942 C19.2537761,5.7884316 19.8052517,6.08642081 19.96493,6.61037367 C20.1246082,7.13432652 19.8330586,7.68923351 19.311,7.855 C17.58399,8.29262258 15.9972482,9.16378169 14.701,10.386 C13.4931212,11.6862822 12.5598535,13.2167868 11.957,14.886 C11.6866327,15.6961058 11.4632611,16.5211451 11.288,17.357 L11.188,17.79 C11.084068,18.2443274 10.6800634,18.5666185 10.214,18.567 Z" id="Shape" fill="#000000"/><circle id="Oval" fill="#000000" cx="9.02" cy="21" r="1"/></g></g></svg>
