<?xml version="1.0" encoding="UTF-8"?>
<svg xmlns="http://www.w3.org/2000/svg" xmlns:xlink="http://www.w3.org/1999/xlink" width="512" height="512" viewBox="0 0 60 61" version="1.1"><!-- Generator: Sketch 51.3 (57544) - http://www.bohemiancoding.com/sketch --><title>006 - Confusion</title><desc>Created with Sketch.</desc><defs/><g id="Page-1" stroke="none" stroke-width="1" fill="none" fill-rule="evenodd"><g id="006---Confusion" transform="translate(-1.000000, 0.000000)" fill-rule="nonzero"><path d="M47.13,37.71 C45.8503538,40.6319437 45.3706323,43.8415908 45.74,47.01 C45.9651005,49.0721875 46.3733794,51.1102353 46.96,53.1 C47.2748963,54.1305317 47.672868,55.1338218 48.15,56.1 C48.7418004,57.0090608 49.2761765,57.9542385 49.75,58.93 L24.65,59 L24.65,58.99 C24.57,58.69 23.06,52.81 19.72,51.3 C19.1,51.51 18.45,51.74 17.78,51.97 C15.5555599,52.740597 13.2924947,53.3948165 11,53.93 C10.3693821,54.0806865 9.70512584,53.9878335 9.14,53.67 L9.13,53.67 C8.4939137,53.2687189 8.01949017,52.6562169 7.79,51.94 C7.52484783,51.2284319 7.42566071,50.4657172 7.5,49.71 C7.73858566,48.940746 7.82020035,48.1314004 7.74,47.33 C7.48,46.32 6.51,46.07 5.75,45.53 C5.14,45.09 6.25,43.68 6.25,43.68 C6.25,43.68 5.07,42.81 4.65,42.43 C4.21,42.07 4.82,41.45 5.38,40.28 C5.60694079,39.7719796 5.67323378,39.2067446 5.57,38.66 C5.36,37.59 3.73,37.18 2.93,36.59 C2.56,36.31 1.95,35.89 1.88,35.38 C1.77,34.67 2.61,33.67 3.02,33.17 C4.76454657,30.9217816 6.25996718,28.4908848 7.48,25.92 C7.64010631,25.6486227 7.73589137,25.3441631 7.76,25.03 C7.74,23.6 5.67,23.01 5.47,21.62 C5.44871368,21.2115508 5.52408857,20.8038412 5.69,20.43 C6.26667192,19.2042401 6.76109856,17.9414478 7.17,16.65 C7.41142981,15.464203 7.72874925,14.2951313 8.12,13.15 C8.95859812,10.8496676 10.2508376,8.74127689 11.92,6.95 C14.37,4.36 17.99,3.08 21.41,2.4 C24.4513721,1.73504394 27.5355865,1.28393999 30.64,1.05 C30.74,1.04 30.84,1.04 30.94,1.03 C37.34,0.71 42.4,2.88 47.35,6.76 C50.0585045,8.77277844 52.0382351,11.6124983 52.99,14.85 C53.7151888,17.5213389 54.0552867,20.2825294 54,23.05 C53.980834,25.7831121 53.1829958,28.4541358 51.7,30.75 C50.21,33.1 48.25,35.14 47.13,37.71 Z" id="Shape" fill="#6A1B9A"/><path d="M44.13,37.71 C42.8503538,40.6319437 42.3706323,43.8415908 42.74,47.01 C42.9651005,49.0721875 43.3733794,51.1102353 43.96,53.1 C44.2748963,54.1305317 44.672868,55.1338218 45.15,56.1 C45.7418004,57.0090608 46.2761765,57.9542385 46.75,58.93 L24.65,58.99 C24.57,58.69 23.06,52.81 19.72,51.3 C19.1,51.51 18.45,51.74 17.78,51.97 C17.4604669,51.6972041 17.1035092,51.4715799 16.72,51.3 C14.31,52.14 11.37,53.1 9.14,53.67 L9.13,53.67 C8.4939137,53.2687189 8.01949017,52.6562169 7.79,51.94 C7.52484783,51.2284319 7.42566071,50.4657172 7.5,49.71 C7.73858566,48.940746 7.82020035,48.1314004 7.74,47.33 C7.48,46.32 6.51,46.07 5.75,45.53 C5.14,45.09 6.25,43.68 6.25,43.68 C6.25,43.68 5.07,42.81 4.65,42.43 C4.21,42.07 4.82,41.45 5.38,40.28 C5.60694079,39.7719796 5.67323378,39.2067446 5.57,38.66 C5.36,37.59 3.73,37.18 2.93,36.59 C2.56,36.31 1.95,35.89 1.88,35.38 C1.77,34.67 2.61,33.67 3.02,33.17 C4.76454657,30.9217816 6.25996718,28.4908848 7.48,25.92 C7.64010631,25.6486227 7.73589137,25.3441631 7.76,25.03 C7.74,23.6 5.67,23.01 5.47,21.62 C5.44871368,21.2115508 5.52408857,20.8038412 5.69,20.43 C6.26667192,19.2042401 6.76109856,17.9414478 7.17,16.65 C7.41142981,15.464203 7.72874925,14.2951313 8.12,13.15 C8.95859812,10.8496676 10.2508376,8.74127689 11.92,6.95 C14.37,4.36 17.99,3.08 21.41,2.4 C24.4513721,1.73504394 27.5355865,1.28393999 30.64,1.05 C35.8,1.37 40.12,3.44 44.35,6.76 C47.0585045,8.77277844 49.0382351,11.6124983 49.99,14.85 C50.7151888,17.5213389 51.0552867,20.2825294 51,23.05 C50.980834,25.7831121 50.1829958,28.4541358 48.7,30.75 C47.21,33.1 45.25,35.14 44.13,37.71 Z" id="Shape" fill="#9D27B0"/><path d="M50,26.65 L50,32 C50.0006877,33.0721404 49.4291625,34.0631514 48.5008334,34.5995194 C47.5725043,35.1358873 46.4285009,35.1360705 45.5,34.6 C45.2749919,34.4652082 45.0668564,34.304071 44.88,34.12 C44.3165773,33.5583676 43.9999298,32.7955351 44,32 L44,23.79 C44.006905,22.648967 44.7079269,21.6271386 45.77,21.21 C46.1351429,21.0627967 46.526397,20.9913503 46.92,21 L47,21 C50.5048807,21.0479088 53.4872805,18.4571372 53.93,14.98 C54.2138221,12.9726654 53.6134452,10.9408723 52.2841713,9.41019333 C50.9548975,7.87951436 49.0273004,7.00030714 47,7 C46.4958296,7.00163309 45.9931713,7.05524997 45.5,7.16 C43.0416112,7.70121656 41.0612865,9.51746816 40.31,11.92 C39.9199523,13.1640391 38.7637286,14.0078795 37.46,14 C36.9318579,14.0035083 36.4129275,13.8616673 35.96,13.59 C35.0323221,13.047772 34.4614882,12.0545209 34.46,10.98 C34.4617297,10.6641186 34.5123284,10.3504069 34.61,10.05 C36.1649028,5.1754775 40.4361968,1.66761365 45.52,1.09 C46.502921,0.971576423 47.4963013,0.968220408 48.48,1.08 C54.7596743,1.79199345 59.6175044,6.91704782 59.9925272,13.2258197 C60.36755,19.5345915 56.1510997,25.1990634 50,26.65 Z" id="Shape" fill="#FEC108"/><path d="M50,42 C50,43.6568542 48.6568542,45 47,45 C45.3431458,45 44,43.6568542 44,42 C44,40.3431458 45.3431458,39 47,39 C48.6568542,39 50,40.3431458 50,42 Z" id="Shape" fill="#FEC108"/><path d="M47,26.65 L47,32 C47.0006876,33.072484 46.4287987,34.0637581 45.5,34.6 C45.2749919,34.4652082 45.0668564,34.304071 44.88,34.12 C44.3165773,33.5583676 43.9999298,32.7955351 44,32 L44,23.79 C44.006905,22.648967 44.7079269,21.6271386 45.77,21.21 C46.1351429,21.0627967 46.526397,20.9913503 46.92,21 L47,21 C50.5048807,21.0479088 53.4872805,18.4571372 53.93,14.98 C54.2138221,12.9726654 53.6134452,10.9408723 52.2841713,9.41019333 C50.9548975,7.87951436 49.0273004,7.00030714 47,7 C46.4958296,7.00163309 45.9931713,7.05524997 45.5,7.16 C45.0068287,7.05524997 44.5041704,7.00163309 44,7 C40.9344409,7.0018047 38.2252093,8.99424405 37.31,11.92 C37.0974633,12.6327175 36.6123502,13.2328204 35.96,13.59 C35.0323221,13.047772 34.4614882,12.0545209 34.46,10.98 C34.4617297,10.6641186 34.5123284,10.3504069 34.61,10.05 C36.1649028,5.1754775 40.4361968,1.66761365 45.52,1.09 C51.7831943,1.82729101 56.6138704,6.9534758 56.9784215,13.2493715 C57.3429726,19.5452673 53.1362393,25.1947449 47,26.65 Z" id="Shape" fill="#FFDC00"/><path d="M47,42 C47.0006876,43.072484 46.4287987,44.0637581 45.5,44.6 C44.5699167,44.0646072 43.996663,43.073173 43.996663,42 C43.996663,40.926827 44.5699167,39.9353928 45.5,39.4 C46.4287987,39.9362419 47.0006876,40.927516 47,42 Z" id="Shape" fill="#FFDC00"/><path d="M10.511,55 C8.86145152,54.9690108 7.4263849,53.8624583 6.977,52.275 C6.66129272,51.4143284 6.54869822,50.4923539 6.648,49.581 C6.682,49.318 6.739,49.05 6.798,48.781 C6.91941128,48.3932674 6.95356021,47.9834802 6.898,47.581 C6.817,47.267 6.586,47.11 5.998,46.774 C5.765,46.641 5.528,46.505 5.306,46.349 C4.98074391,46.1171358 4.76606133,45.7609003 4.713,45.365 C4.67448978,44.8623148 4.78770505,44.359639 5.038,43.922 C4.698,43.661 4.325,43.367 4.109,43.172 C3.185,42.417 3.798,41.333 4.164,40.686 C4.299,40.449 4.455,40.174 4.604,39.854 C4.7416535,39.5365296 4.78135002,39.1851805 4.718,38.845 C4.667,38.586 3.942,38.216 3.51,37.995 C3.14797678,37.8240989 2.80078202,37.6234083 2.472,37.395 C1.75470729,36.9902386 1.23115797,36.313086 1.02,35.517 C0.86,34.487 1.62,33.458 2.345,32.575 C4.05560327,30.369443 5.52247783,27.985227 6.72,25.464 C6.79697882,25.3281355 6.85421996,25.1820023 6.89,25.03 C6.89,24.755 6.565,24.439 6.076,23.991 C5.3374331,23.4449531 4.82021123,22.6511932 4.619,21.755 C4.56192334,21.1842424 4.65284498,20.6084053 4.883,20.083 C5.062,19.611 5.266,19.155 5.47,18.699 C5.82566937,17.9679886 6.11224857,17.2053397 6.326,16.421 L6.426,15.999 C6.65602311,14.9179422 6.95190812,13.8519547 7.312,12.807 C8.19404573,10.3778111 9.55841114,8.15217091 11.323,6.264 C13.559,3.9 16.836,2.316 21.345,1.419 C24.5310865,0.720598351 27.7640828,0.25668862 31.018,0.031 C34.4326189,-0.0716866986 37.8342979,0.495316437 41.031,1.7 C41.5272348,1.90706817 41.7708901,2.46947711 41.5825612,2.97312225 C41.3942324,3.47676738 40.8413481,3.74132501 40.331,3.572 C37.3927407,2.46152298 34.2658609,1.93567725 31.126,2.024 C27.9684897,2.24685768 24.8314759,2.70006358 21.74,3.38 C17.704,4.18 14.689,5.615 12.776,7.637 C11.1965696,9.32915494 9.97605599,11.323545 9.188,13.5 C8.85614522,14.4674021 8.58396707,15.4542566 8.373,16.455 L8.273,16.881 C8.03405513,17.788547 7.70821606,18.6709581 7.3,19.516 C7.111,19.937 6.923,20.357 6.76,20.786 C6.66364086,21.0015614 6.61063423,21.2339751 6.604,21.47 C6.649,21.796 7.03,22.146 7.434,22.517 C8.25904392,23.1003679 8.79170832,24.0118401 8.895,25.017 C8.87635428,25.4916102 8.74434083,25.9548574 8.51,26.368 C7.2548892,29.0038306 5.71756418,31.4957388 3.925,33.8 C3.163,34.727 3.005,35.1 3,35.247 C3.18518784,35.4261779 3.38598284,35.5884872 3.6,35.732 C3.86136569,35.9140729 4.13730073,36.0742824 4.425,36.211 C5.277,36.647 6.446,37.245 6.686,38.465 C6.82865982,39.2207273 6.73544627,40.0020454 6.419,40.703 C6.244,41.073 6.065,41.393 5.908,41.668 C5.859,41.755 5.808,41.851 5.758,41.938 C6.172,42.272 6.738,42.696 6.978,42.872 C7.19643076,43.0334948 7.33976225,43.2769033 7.37503403,43.5462515 C7.41030582,43.8155997 7.33448237,44.0877071 7.165,44.3 C7.01691908,44.4930204 6.88797779,44.6999963 6.78,44.918 L6.987,45.036 C7.87220583,45.4166291 8.54814599,46.1633751 8.839,47.082 C8.98564963,47.7876772 8.95576498,48.5186489 8.752,49.21 C8.706,49.419 8.658,49.627 8.632,49.837 C8.5729723,50.4418114 8.65336419,51.0521056 8.867,51.621 C9.0847514,52.5454575 9.99364951,53.1329967 10.926,52.952 C13.8403482,52.2516858 16.7117997,51.3835725 19.526,50.352 C20.0479091,50.1705745 20.6180744,50.4465909 20.7995,50.9685 C20.9809255,51.4904091 20.7049091,52.0605744 20.183,52.242 C17.2887222,53.3027843 14.334635,54.19265 11.336,54.907 C11.0649467,54.96639 10.7884727,54.9975562 10.511,55 Z M5.411,41.659 L5.443,41.688 C5.43377066,41.6766361 5.42374541,41.6659425 5.413,41.656 L5.411,41.659 Z" id="Shape" fill="#000000"/><path d="M24.78,60 C24.3194886,59.9998779 23.9186017,59.6852787 23.809,59.238 C23.421,57.657 21.88,53.314 19.438,52.211 C19.0639436,52.0419148 18.8312137,51.6614066 18.8510746,51.25139 C18.8709354,50.8413735 19.1393525,50.4851405 19.528,50.353 C20.57,49.999 21.515,49.669 22.258,49.409 C22.951,49.167 23.473,48.985 23.744,48.898 C27.901,47.583 28.744,46.082 28.72,45.053 C28.7070213,44.5007153 29.1442153,44.0424787 29.6965,44.0295 C30.2487847,44.0165213 30.7070213,44.4537153 30.72,45.006 C30.778,47.498 28.636,49.449 24.352,50.806 C24.093,50.889 23.588,51.065 22.918,51.299 L22.018,51.614 C23.6685471,53.4421006 24.8727465,55.6280067 25.536,58 L48.218,57.937 L48.151,57.837 C47.8630969,57.4195592 47.6041562,56.9828684 47.376,56.53 C46.879054,55.5216399 46.4640482,54.4749292 46.135,53.4 C45.5288621,51.3528819 45.1078369,49.2554538 44.877,47.133 C44.7939981,46.3323266 44.7516105,45.5279625 44.75,44.723 C44.75,44.1707153 45.1977153,43.723 45.75,43.723 C46.3022847,43.723 46.75,44.1707153 46.75,44.723 C46.75,45.406 46.801,46.379 46.863,46.892 C47.0787155,48.8958768 47.4746514,50.8762257 48.046,52.809 C48.3444759,53.7867332 48.7220564,54.7385437 49.175,55.655 C49.3660492,56.0298282 49.5822082,56.3913183 49.822,56.737 C50.2467748,57.3198965 50.587758,57.9594505 50.835,58.637 C50.9304293,58.9404437 50.8757998,59.2711879 50.6878608,59.5278273 C50.4999218,59.7844667 50.201095,59.9363833 49.883,59.937 L24.783,60.007 L24.78,60 Z" id="Shape" fill="#000000"/><path d="M11.194,18.567 C11.1175799,18.5671865 11.0413988,18.5584609 10.967,18.541 C10.4295239,18.4156657 10.0952009,17.8786006 10.22,17.341 L10.32,16.908 C10.5135358,15.9912196 10.7609653,15.0866495 11.061,14.199 C11.7563731,12.2745624 12.8336163,10.5105639 14.228,9.013 C15.7606426,7.53520641 17.6483921,6.47750189 19.709,5.942 C20.0532577,5.82944433 20.4314681,5.91183364 20.6977164,6.1573819 C20.9639648,6.40293017 21.0766292,6.7732514 20.9922433,7.12547458 C20.9078574,7.47769775 20.6396132,7.75676066 20.291,7.855 C18.564379,8.29286276 16.9780184,9.16400156 15.682,10.386 C14.4735935,11.6858825 13.5402565,13.2165007 12.938,14.886 C12.6689717,15.6919424 12.4462745,16.5126167 12.271,17.344 L12.171,17.789 C12.0672192,18.2448199 11.6614841,18.567913 11.194,18.567 Z" id="Shape" fill="#000000"/><circle id="Oval" fill="#000000" cx="10" cy="21" r="1"/><path d="M47,36 C44.790861,36 43,34.209139 43,32 L43,23.79 C42.9970346,22.7887313 43.3975025,21.8284735 44.111,21.126 C44.8691689,20.3987926 45.8804641,19.9949917 46.931,20 C49.2976333,20.0276118 51.4593669,18.6613806 52.4500679,16.5119093 C53.440769,14.362438 53.0753007,11.831408 51.517,10.05 C50.0859864,8.41482899 47.8832499,7.68028704 45.7572276,8.12930064 C43.6312052,8.57831423 41.9136043,10.1408272 41.266,12.215 C40.8112998,13.6484105 39.5896502,14.704669 38.1055914,14.9475419 C36.6215325,15.1904147 35.1269095,14.5786864 34.239,13.365 C33.4726712,12.3228148 33.2552819,10.9752988 33.655,9.745 C35.6813482,3.40004123 41.8974221,-0.638790593 48.5183607,0.087680078 C55.1392994,0.814150749 60.3317172,6.10475894 60.9340398,12.7381439 C61.5363623,19.3715289 57.3818022,25.5108585 51,27.418 L51,32 C51,34.209139 49.209139,36 47,36 Z M46.967,22 C46.429601,21.9781767 45.9064665,22.1760219 45.518,22.548 C45.1850827,22.8753227 44.9983177,23.3231261 45,23.79 L45,32 C45,33.1045695 45.8954305,34 47,34 C48.1045695,34 49,33.1045695 49,32 L49,26.65 C49.0001978,26.1860928 49.3194204,25.7832347 49.771,25.677 C55.6456918,24.2634177 59.5641625,18.7163139 58.933,12.707 C58.3285495,7.06274215 53.8518684,2.61413793 48.2039194,2.0452102 C42.5559703,1.47628248 37.2819967,4.94268629 35.564,10.353 C35.3604083,10.9751761 35.4695127,11.6573578 35.857,12.185 C36.2988294,12.7879554 37.0411623,13.092627 37.7791833,12.973911 C38.5172043,12.8551951 39.1265453,12.3330971 39.357,11.622 C40.2192561,8.85546741 42.5093271,6.77093206 45.3445181,6.17186623 C48.1797092,5.5728004 51.117295,6.55275037 53.025,8.734 C54.5480057,10.4855849 55.2406048,12.8094371 54.925,15.109 C54.410036,19.0817258 51.0057443,22.0418487 47,22 L46.967,22 Z" id="Shape" fill="#000000"/><path d="M47,46 C44.790861,46 43,44.209139 43,42 C43,39.790861 44.790861,38 47,38 C49.209139,38 51,39.790861 51,42 C51,44.209139 49.209139,46 47,46 Z M47,40 C45.8954305,40 45,40.8954305 45,42 C45,43.1045695 45.8954305,44 47,44 C48.1045695,44 49,43.1045695 49,42 C49,40.8954305 48.1045695,40 47,40 Z" id="Shape" fill="#000000"/></g></g></svg>
