<?xml version="1.0" encoding="UTF-8"?>
<svg xmlns="http://www.w3.org/2000/svg" xmlns:xlink="http://www.w3.org/1999/xlink" width="512" height="512" viewBox="0 0 60 61" version="1.1"><!-- Generator: Sketch 51.3 (57544) - http://www.bohemiancoding.com/sketch --><title>008 - Balance</title><desc>Created with Sketch.</desc><defs/><g id="Page-1" stroke="none" stroke-width="1" fill="none" fill-rule="evenodd"><g id="008---Balance" transform="translate(-1.000000, -1.000000)" fill-rule="nonzero"><path d="M47.13,38.71 C45.8503538,41.6319437 45.3706323,44.8415908 45.74,48.01 C45.9651005,50.0721875 46.3733794,52.1102353 46.96,54.1 C47.2748963,55.1305317 47.672868,56.1338218 48.15,57.1 C48.7418004,58.0090608 49.2761765,58.9542385 49.75,59.93 L24.65,60 L24.65,59.99 C24.57,59.69 23.06,53.81 19.72,52.3 C19.1,52.51 18.45,52.74 17.78,52.97 C15.5555599,53.740597 13.2924947,54.3948165 11,54.93 C10.3693821,55.0806865 9.70512584,54.9878335 9.14,54.67 L9.13,54.67 C8.4939137,54.2687189 8.01949017,53.6562169 7.79,52.94 C7.52484783,52.2284319 7.42566071,51.4657172 7.5,50.71 C7.73858566,49.940746 7.82020035,49.1314004 7.74,48.33 C7.48,47.32 6.51,47.07 5.75,46.53 C5.14,46.09 6.25,44.68 6.25,44.68 C6.25,44.68 5.07,43.81 4.65,43.43 C4.21,43.07 4.82,42.45 5.38,41.28 C5.60694079,40.7719796 5.67323378,40.2067446 5.57,39.66 C5.36,38.59 3.73,38.18 2.93,37.59 C2.56,37.31 1.95,36.89 1.88,36.38 C1.77,35.67 2.61,34.67 3.02,34.17 C4.76454657,31.9217816 6.25996718,29.4908848 7.48,26.92 C7.64010631,26.6486227 7.73589137,26.3441631 7.76,26.03 C7.74,24.6 5.67,24.01 5.47,22.62 C5.44871368,22.2115508 5.52408857,21.8038412 5.69,21.43 C6.26667192,20.2042401 6.76109856,18.9414478 7.17,17.65 C7.41142981,16.464203 7.72874925,15.2951313 8.12,14.15 C8.95859812,11.8496676 10.2508376,9.74127689 11.92,7.95 C14.37,5.36 17.99,4.08 21.41,3.4 C24.4513721,2.73504394 27.5355865,2.28393999 30.64,2.05 C30.74,2.04 30.84,2.04 30.94,2.03 C37.34,1.71 42.4,3.88 47.35,7.76 C50.0585045,9.77277844 52.0382351,12.6124983 52.99,15.85 C53.7151888,18.5213389 54.0552867,21.2825294 54,24.05 C53.980834,26.7831121 53.1829958,29.4541358 51.7,31.75 C50.21,34.1 48.25,36.14 47.13,38.71 Z" id="Shape" fill="#6A1B9A"/><path d="M44.13,38.71 C42.8503538,41.6319437 42.3706323,44.8415908 42.74,48.01 C42.9651005,50.0721875 43.3733794,52.1102353 43.96,54.1 C44.2748963,55.1305317 44.672868,56.1338218 45.15,57.1 C45.7418004,58.0090608 46.2761765,58.9542385 46.75,59.93 L24.65,59.99 C24.57,59.69 23.06,53.81 19.72,52.3 C19.1,52.51 18.45,52.74 17.78,52.97 C17.4604669,52.6972041 17.1035092,52.4715799 16.72,52.3 C14.31,53.14 11.37,54.1 9.14,54.67 L9.13,54.67 C8.4939137,54.2687189 8.01949017,53.6562169 7.79,52.94 C7.52484783,52.2284319 7.42566071,51.4657172 7.5,50.71 C7.73858566,49.940746 7.82020035,49.1314004 7.74,48.33 C7.48,47.32 6.51,47.07 5.75,46.53 C5.14,46.09 6.25,44.68 6.25,44.68 C6.25,44.68 5.07,43.81 4.65,43.43 C4.21,43.07 4.82,42.45 5.38,41.28 C5.60694079,40.7719796 5.67323378,40.2067446 5.57,39.66 C5.36,38.59 3.73,38.18 2.93,37.59 C2.56,37.31 1.95,36.89 1.88,36.38 C1.77,35.67 2.61,34.67 3.02,34.17 C4.76454657,31.9217816 6.25996718,29.4908848 7.48,26.92 C7.64010631,26.6486227 7.73589137,26.3441631 7.76,26.03 C7.74,24.6 5.67,24.01 5.47,22.62 C5.44871368,22.2115508 5.52408857,21.8038412 5.69,21.43 C6.26667192,20.2042401 6.76109856,18.9414478 7.17,17.65 C7.41142981,16.464203 7.72874925,15.2951313 8.12,14.15 C8.95859812,11.8496676 10.2508376,9.74127689 11.92,7.95 C14.37,5.36 17.99,4.08 21.41,3.4 C24.4513721,2.73504394 27.5355865,2.28393999 30.64,2.05 C35.8,2.37 40.12,4.44 44.35,7.76 C47.0585045,9.77277844 49.0382351,12.6124983 49.99,15.85 C50.7151888,18.5213389 51.0552867,21.2825294 51,24.05 C50.980834,26.7831121 50.1829958,29.4541358 48.7,31.75 C47.21,34.1 45.25,36.14 44.13,38.71 Z" id="Shape" fill="#9D27B0"/><path d="M60,20 C60.0025252,29.7622719 52.2192044,37.7452788 42.46,37.99 C47.3501307,37.7601899 51.1597101,33.6637972 51.0345735,28.7698692 C50.9094369,23.8759412 46.8954851,19.9795942 42,20 C41.4669688,19.9989508 40.9350131,19.9521119 40.41,19.86 C36.0590185,19.077129 32.9208508,15.2501152 33.0054211,10.8300728 C33.0899914,6.41003039 36.3722561,2.70586103 40.75,2.09 C41.0115553,2.0480065 41.275336,2.02129453 41.54,2.01 C41.69,2 41.84,2 42,2 C42.16,2 42.31,2 42.46,2.01 C52.2192044,2.25472119 60.0025252,10.2377281 60,20 Z" id="Shape" fill="#37474F"/><path d="M57,20 C57.0049363,26.286658 53.7247349,32.1189698 48.35,35.38 C50.9336732,32.8093339 51.7118747,28.9342024 50.3209693,25.5653638 C48.9300639,22.1965252 45.6446798,19.999142 42,20 C41.4669688,19.9989508 40.9350131,19.9521119 40.41,19.86 C36.0590185,19.077129 32.9208508,15.2501152 33.0054211,10.8300728 C33.0899914,6.41003039 36.3722561,2.70586103 40.75,2.09 C49.9698894,2.98595171 57.002237,10.7366807 57,20 Z" id="Shape" fill="#607D8B"/><path d="M51,29 C51.0009389,33.7924616 47.2461979,37.745052 42.46,37.99 C42.31,38 42.16,38 42,38 C41.84,38 41.69,38 41.54,37.99 C31.8377923,37.6664583 24.1399167,29.7076008 24.1399167,20 C24.1399167,10.2923992 31.8377923,2.33354175 41.54,2.01 C36.6498693,2.23981009 32.8402899,6.33620283 32.9654265,11.2301308 C33.0905631,16.1240588 37.1045149,20.0204058 42,20 C46.9705627,20 51,24.0294373 51,29 Z" id="Shape" fill="#F5F5F5"/><circle id="Oval" fill="#F5F5F5" cx="42" cy="11" r="3"/><circle id="Oval" fill="#607D8B" cx="42" cy="29" r="3"/><path d="M10.511,56 C8.86145152,55.9690108 7.4263849,54.8624583 6.977,53.275 C6.66129272,52.4143284 6.54869822,51.4923539 6.648,50.581 C6.682,50.318 6.739,50.05 6.798,49.781 C6.91941128,49.3932674 6.95356021,48.9834802 6.898,48.581 C6.817,48.267 6.586,48.11 5.998,47.774 C5.765,47.641 5.528,47.505 5.306,47.349 C4.98074391,47.1171358 4.76606133,46.7609003 4.713,46.365 C4.67448978,45.8623148 4.78770505,45.359639 5.038,44.922 C4.698,44.661 4.325,44.367 4.109,44.172 C3.185,43.417 3.798,42.333 4.164,41.686 C4.299,41.449 4.455,41.174 4.604,40.854 C4.7416535,40.5365296 4.78135002,40.1851805 4.718,39.845 C4.667,39.586 3.942,39.216 3.51,38.995 C3.14797678,38.8240989 2.80078202,38.6234083 2.472,38.395 C1.75470729,37.9902386 1.23115797,37.313086 1.02,36.517 C0.86,35.487 1.62,34.458 2.345,33.575 C4.05560327,31.369443 5.52247783,28.985227 6.72,26.464 C6.79697882,26.3281355 6.85421996,26.1820023 6.89,26.03 C6.89,25.755 6.565,25.439 6.076,24.991 C5.3374331,24.4449531 4.82021123,23.6511932 4.619,22.755 C4.56192334,22.1842424 4.65284498,21.6084053 4.883,21.083 C5.062,20.611 5.266,20.155 5.47,19.699 C5.82566937,18.9679886 6.11224857,18.2053397 6.326,17.421 L6.426,16.999 C6.65602311,15.9179422 6.95190812,14.8519547 7.312,13.807 C8.19404573,11.3778111 9.55841114,9.15217091 11.323,7.264 C13.559,4.9 16.836,3.316 21.345,2.419 C24.5310865,1.72059835 27.7640828,1.25668862 31.018,1.031 C33.2491971,0.898972711 35.4875969,1.10120729 37.659,1.631 C38.1921223,1.7657125 38.5164562,2.30558865 38.3850327,2.83953122 C38.2536091,3.37347379 37.7157426,3.70112962 37.181,3.573 C35.199731,3.092805 33.1580841,2.90980495 31.123,3.03 C27.9666443,3.25102629 24.83064,3.70222588 21.74,4.38 C17.704,5.18 14.689,6.615 12.776,8.637 C11.1965696,10.3291549 9.97605599,12.323545 9.188,14.5 C8.85614522,15.4674021 8.58396707,16.4542566 8.373,17.455 L8.273,17.881 C8.03405513,18.788547 7.70821606,19.6709581 7.3,20.516 C7.111,20.937 6.923,21.357 6.76,21.786 C6.66364086,22.0015614 6.61063423,22.2339751 6.604,22.47 C6.649,22.796 7.03,23.146 7.434,23.517 C8.25904392,24.1003679 8.79170832,25.0118401 8.895,26.017 C8.87635428,26.4916102 8.74434083,26.9548574 8.51,27.368 C7.2548892,30.0038306 5.71756418,32.4957388 3.925,34.8 C3.163,35.727 3.005,36.1 3,36.247 C3.18518784,36.4261779 3.38598284,36.5884872 3.6,36.732 C3.86136569,36.9140729 4.13730073,37.0742824 4.425,37.211 C5.277,37.647 6.446,38.245 6.686,39.465 C6.82865982,40.2207273 6.73544627,41.0020454 6.419,41.703 C6.244,42.073 6.065,42.393 5.908,42.668 C5.859,42.755 5.808,42.851 5.758,42.938 C6.172,43.272 6.738,43.696 6.978,43.872 C7.19643076,44.0334948 7.33976225,44.2769033 7.37503403,44.5462515 C7.41030582,44.8155997 7.33448237,45.0877071 7.165,45.3 C7.01691908,45.4930204 6.88797779,45.6999963 6.78,45.918 L6.987,46.036 C7.87220583,46.4166291 8.54814599,47.1633751 8.839,48.082 C8.98564963,48.7876772 8.95576498,49.5186489 8.752,50.21 C8.706,50.419 8.658,50.627 8.632,50.837 C8.5729723,51.4418114 8.65336419,52.0521056 8.867,52.621 C9.08429625,53.5457783 9.99354383,54.1335435 10.926,53.952 C13.8403482,53.2516858 16.7117997,52.3835725 19.526,51.352 C20.0479091,51.1705745 20.6180744,51.4465909 20.7995,51.9685 C20.9809255,52.4904091 20.7049091,53.0605744 20.183,53.242 C17.2887222,54.3027843 14.334635,55.19265 11.336,55.907 C11.0649467,55.96639 10.7884727,55.9975562 10.511,56 Z M5.411,42.659 L5.443,42.688 C5.43377066,42.6766361 5.42374541,42.6659425 5.413,42.656 L5.411,42.659 Z" id="Shape" fill="#000000"/><path d="M24.78,61 C24.3194886,60.9998779 23.9186017,60.6852787 23.809,60.238 C23.421,58.657 21.88,54.314 19.438,53.211 C19.0639436,53.0419148 18.8312137,52.6614066 18.8510746,52.25139 C18.8709354,51.8413735 19.1393525,51.4851405 19.528,51.353 C20.57,50.999 21.515,50.669 22.258,50.409 C22.951,50.167 23.473,49.985 23.744,49.898 C27.901,48.583 28.744,47.082 28.72,46.053 C28.7138345,45.7872547 28.8137271,45.5299897 28.9976105,45.338038 C29.1814939,45.1460862 29.4342349,45.0352448 29.7,45.03 L29.724,45.03 C30.2670463,45.0298436 30.7109669,45.4631101 30.724,46.006 C30.782,48.498 28.64,50.449 24.356,51.806 C24.097,51.889 23.592,52.065 22.922,52.299 L22.022,52.614 C23.671106,54.4424992 24.8739191,56.6283742 25.536,59 L48.218,58.937 L48.151,58.837 C47.8630969,58.4195592 47.6041562,57.9828684 47.376,57.53 C46.879054,56.5216399 46.4640482,55.4749292 46.135,54.4 C45.5288621,52.3528819 45.1078369,50.2554538 44.877,48.133 C44.4836273,44.7875409 44.9896868,41.3977013 46.343,38.313 C46.6419816,37.6396849 46.9888716,36.9886814 47.381,36.365 C47.6726064,35.895558 48.289558,35.7513937 48.759,36.043 C49.228442,36.3346064 49.3726063,36.951558 49.081,37.421 C48.74066,37.9629459 48.4398786,38.5287491 48.181,39.114 C46.9697938,41.87132 46.5165263,44.9019634 46.868,47.893 C47.0838071,49.8965347 47.4797419,51.8765435 48.051,53.809 C48.3494759,54.7867332 48.7270564,55.7385437 49.18,56.655 C49.3710492,57.0298282 49.5872082,57.3913183 49.827,57.737 C50.2517748,58.3198965 50.592758,58.9594505 50.84,59.637 C50.9354293,59.9404437 50.8807998,60.2711879 50.6928608,60.5278273 C50.5049218,60.7844667 50.206095,60.9363833 49.888,60.937 L24.788,61.007 L24.78,61 Z" id="Shape" fill="#000000"/><path d="M12.194,19.567 C11.8884083,19.5671753 11.5995104,19.4276105 11.4097039,19.1881114 C11.2198975,18.9486123 11.1500194,18.635471 11.22,18.338 L11.32,17.905 C11.5131052,16.9892005 11.7602032,16.085623 12.06,15.199 C12.7555725,13.2746582 13.8327926,11.5106976 15.227,10.013 C16.7596426,8.53520641 18.6473921,7.47750189 20.708,6.942 C21.0522577,6.82944433 21.4304681,6.91183364 21.6967164,7.1573819 C21.9629648,7.40293017 22.0756292,7.7732514 21.9912433,8.12547458 C21.9068574,8.47769775 21.6386132,8.75676066 21.29,8.855 C19.5634442,9.29302828 17.9771231,10.1641454 16.681,11.386 C15.4733406,12.6864483 14.5401016,14.2169058 13.937,15.886 C13.6667971,16.6958165 13.4434278,17.5205136 13.268,18.356 L13.168,18.791 C13.0636686,19.2449301 12.6597655,19.5667256 12.194,19.567 Z" id="Shape" fill="#000000"/><circle id="Oval" fill="#000000" cx="10" cy="22" r="1"/><path d="M42.46,38.99 C41.9077153,39.0040833 41.4485833,38.5677847 41.4345,38.0155 C41.4204167,37.4632153 41.8567153,37.0040833 42.409,36.99 C46.745755,36.7730166 50.1176458,33.1361938 50.0066157,28.7954337 C49.8955856,24.4546736 46.342177,20.9949894 42,21 C36.5595885,21.0240306 32.0981308,16.6943423 31.9590959,11.2556547 C31.8200609,5.81696699 36.0544669,1.26497713 41.489,1.011 C41.8336494,0.989003823 42.1793506,0.989003823 42.524,1.011 C52.8376479,1.22671222 61.0667607,9.68431251 61,20 C61.061017,30.3289458 52.8111889,38.7899652 42.484,38.99 L42.46,38.99 Z M41.94,3 C41.825,3 41.715,3 41.604,3.008 C37.2513772,3.20153912 33.8539652,6.84255315 33.96182,11.1981415 C34.0696747,15.5537299 37.6431327,19.0221286 42,19 C45.8005917,18.9980896 49.2737498,21.1507845 50.9629838,24.5553386 C52.6522178,27.9598928 52.2654989,32.0277388 49.965,35.053 C55.5511282,32.1159743 59.0353002,26.3110777 59,20 C59.0553587,10.7591478 51.6752686,3.18880784 42.436,3.009 C42.267,3 42.137,3 42,3 L41.94,3 Z" id="Shape" fill="#000000"/><path d="M42,39 C41.817,39 41.646,39 41.476,38.988 C31.1627439,38.7722925 22.9337884,30.3152992 23,20 C22.938983,9.67105418 31.1888111,1.2100348 41.516,1.01 C41.7806298,0.996653901 42.0392759,1.09169584 42.2323017,1.27321187 C42.4253276,1.4547279 42.5360719,1.70705004 42.539,1.972 C42.5594058,2.51844425 42.137105,2.97994597 41.591,3.008 C37.2350079,3.20057372 33.8354633,6.84590768 33.9469414,11.2047291 C34.0584195,15.5635506 37.6398588,19.0303439 42,19 C47.4404115,18.9759694 51.9018692,23.3056577 52.0409041,28.7443453 C52.1799391,34.183033 47.9455331,38.7350229 42.511,38.989 C42.354,39 42.183,39 42,39 Z M42,37 C42.143,37 42.267,37 42.4,36.992 C46.7536268,36.798716 50.1516477,33.1563875 50.0426794,28.7998349 C49.9337111,24.4432823 46.3578457,20.9753883 42,21 C38.1994083,21.0019104 34.7262502,18.8492155 33.0370162,15.4446614 C31.3477822,12.0401072 31.7345011,7.97226122 34.035,4.947 C28.4488718,7.88402571 24.9646998,13.6889223 25,20 C24.9446413,29.2408522 32.3247314,36.8111922 41.564,36.991 C41.733,37 41.865,37 42,37 Z" id="Shape" fill="#000000"/><path d="M42,15 C39.790861,15 38,13.209139 38,11 C38,8.790861 39.790861,7 42,7 C44.209139,7 46,8.790861 46,11 C46,12.060866 45.5785726,13.0782816 44.8284271,13.8284271 C44.0782816,14.5785726 43.060866,15 42,15 Z M42,9 C40.8954305,9 40,9.8954305 40,11 C40,12.1045695 40.8954305,13 42,13 C43.1045695,13 44,12.1045695 44,11 C44,9.8954305 43.1045695,9 42,9 Z" id="Shape" fill="#000000"/><path d="M42,33 C39.790861,33 38,31.209139 38,29 C38,26.790861 39.790861,25 42,25 C44.209139,25 46,26.790861 46,29 C46,31.209139 44.209139,33 42,33 Z M42,27 C40.8954305,27 40,27.8954305 40,29 C40,30.1045695 40.8954305,31 42,31 C43.1045695,31 44,30.1045695 44,29 C44,27.8954305 43.1045695,27 42,27 Z" id="Shape" fill="#000000"/></g></g></svg>
