<?xml version="1.0" encoding="UTF-8"?>
<svg xmlns="http://www.w3.org/2000/svg" xmlns:xlink="http://www.w3.org/1999/xlink" width="512" height="512" viewBox="0 0 59 60" version="1.1"><!-- Generator: Sketch 51.3 (57544) - http://www.bohemiancoding.com/sketch --><title>009 - Heartbreak</title><desc>Created with Sketch.</desc><defs/><g id="Page-1" stroke="none" stroke-width="1" fill="none" fill-rule="evenodd"><g id="009---Heartbreak" transform="translate(-1.000000, -1.000000)"><path d="M47.13,38.71 C45.8503538,41.6319437 45.3706323,44.8415908 45.74,48.01 C45.9651005,50.0721875 46.3733794,52.1102353 46.96,54.1 C47.2748963,55.1305317 47.672868,56.1338218 48.15,57.1 C48.7418004,58.0090608 49.2761765,58.9542385 49.75,59.93 L24.65,60 L24.65,59.99 C24.57,59.69 23.06,53.81 19.72,52.3 C19.1,52.51 18.45,52.74 17.78,52.97 C15.5555599,53.740597 13.2924947,54.3948165 11,54.93 C10.3693821,55.0806865 9.70512584,54.9878335 9.14,54.67 L9.13,54.67 C8.4939137,54.2687189 8.01949017,53.6562169 7.79,52.94 C7.52484783,52.2284319 7.42566071,51.4657172 7.5,50.71 C7.73858566,49.940746 7.82020035,49.1314004 7.74,48.33 C7.48,47.32 6.51,47.07 5.75,46.53 C5.14,46.09 6.25,44.68 6.25,44.68 C6.25,44.68 5.07,43.81 4.65,43.43 C4.21,43.07 4.82,42.45 5.38,41.28 C5.60694079,40.7719796 5.67323378,40.2067446 5.57,39.66 C5.36,38.59 3.73,38.18 2.93,37.59 C2.56,37.31 1.95,36.89 1.88,36.38 C1.77,35.67 2.61,34.67 3.02,34.17 C4.76454657,31.9217816 6.25996718,29.4908848 7.48,26.92 C7.64010631,26.6486227 7.73589137,26.3441631 7.76,26.03 C7.74,24.6 5.67,24.01 5.47,22.62 C5.44871368,22.2115508 5.52408857,21.8038412 5.69,21.43 C6.26667192,20.2042401 6.76109856,18.9414478 7.17,17.65 C7.41142981,16.464203 7.72874925,15.2951313 8.12,14.15 C8.95859812,11.8496676 10.2508376,9.74127689 11.92,7.95 C14.37,5.36 17.99,4.08 21.41,3.4 C24.4513721,2.73504394 27.5355865,2.28393999 30.64,2.05 C30.74,2.04 30.84,2.04 30.94,2.03 C37.34,1.71 42.4,3.88 47.35,7.76 C50.0585045,9.77277844 52.0382351,12.6124983 52.99,15.85 C53.7151888,18.5213389 54.0552867,21.2825294 54,24.05 C53.980834,26.7831121 53.1829958,29.4541358 51.7,31.75 C50.21,34.1 48.25,36.14 47.13,38.71 Z" id="Shape" fill="#FEC108" fill-rule="nonzero"/><path d="M44.13,38.71 C42.8503538,41.6319437 42.3706323,44.8415908 42.74,48.01 C42.9651005,50.0721875 43.3733794,52.1102353 43.96,54.1 C44.2748963,55.1305317 44.672868,56.1338218 45.15,57.1 C45.7418004,58.0090608 46.2761765,58.9542385 46.75,59.93 L24.65,59.99 C24.57,59.69 23.06,53.81 19.72,52.3 C19.1,52.51 18.45,52.74 17.78,52.97 C17.4604669,52.6972041 17.1035092,52.4715799 16.72,52.3 C14.31,53.14 11.37,54.1 9.14,54.67 L9.13,54.67 C8.4939137,54.2687189 8.01949017,53.6562169 7.79,52.94 C7.52484783,52.2284319 7.42566071,51.4657172 7.5,50.71 C7.73858566,49.940746 7.82020035,49.1314004 7.74,48.33 C7.48,47.32 6.51,47.07 5.75,46.53 C5.14,46.09 6.25,44.68 6.25,44.68 C6.25,44.68 5.07,43.81 4.65,43.43 C4.21,43.07 4.82,42.45 5.38,41.28 C5.60694079,40.7719796 5.67323378,40.2067446 5.57,39.66 C5.36,38.59 3.73,38.18 2.93,37.59 C2.56,37.31 1.95,36.89 1.88,36.38 C1.77,35.67 2.61,34.67 3.02,34.17 C4.76454657,31.9217816 6.25996718,29.4908848 7.48,26.92 C7.64010631,26.6486227 7.73589137,26.3441631 7.76,26.03 C7.74,24.6 5.67,24.01 5.47,22.62 C5.44871368,22.2115508 5.52408857,21.8038412 5.69,21.43 C6.26667192,20.2042401 6.76109856,18.9414478 7.17,17.65 C7.41142981,16.464203 7.72874925,15.2951313 8.12,14.15 C8.95859812,11.8496676 10.2508376,9.74127689 11.92,7.95 C14.37,5.36 17.99,4.08 21.41,3.4 C24.4513721,2.73504394 27.5355865,2.28393999 30.64,2.05 C35.8,2.37 40.12,4.44 44.35,7.76 C47.0585045,9.77277844 49.0382351,12.6124983 49.99,15.85 C50.7151888,18.5213389 51.0552867,21.2825294 51,24.05 C50.980834,26.7831121 50.1829958,29.4541358 48.7,31.75 C47.21,34.1 45.25,36.14 44.13,38.71 Z" id="Shape" fill="#FFDC00" fill-rule="nonzero"/><path d="M41,7.45 C44.789,0.871 52.368,0.871 56.158,4.161 C59.948,7.451 59.947,14.029 56.158,20.607 C53.505,25.541 46.684,30.475 41,33.765 C35.316,30.475 28.5,25.541 25.842,20.607 C22.053,14.029 22.053,7.45 25.842,4.161 C29.631,0.872 37.211,0.871 41,7.45 Z" id="Shape" fill="#C81E1E"/><path d="M39.5,7.49 C42.974,0.863 49.921,0.863 53.4,4.177 C56.879,7.491 56.873,14.118 53.4,20.745 C50.963,25.716 44.71,30.686 39.5,34 C34.289,30.686 28.037,25.716 25.605,20.745 C22.132,14.118 22.132,7.49 25.605,4.177 C29.078,0.864 36.026,0.863 39.5,7.49 Z" id="Shape" fill="#F44335"/><path d="M10.511,56 C8.86145152,55.9690108 7.4263849,54.8624583 6.977,53.275 C6.66129272,52.4143284 6.54869822,51.4923539 6.648,50.581 C6.682,50.318 6.739,50.05 6.798,49.781 C6.91941128,49.3932674 6.95356021,48.9834802 6.898,48.581 C6.817,48.267 6.586,48.11 5.998,47.774 C5.765,47.641 5.528,47.505 5.306,47.349 C4.98074391,47.1171358 4.76606133,46.7609003 4.713,46.365 C4.67448978,45.8623148 4.78770505,45.359639 5.038,44.922 C4.698,44.661 4.325,44.367 4.109,44.172 C3.185,43.417 3.798,42.333 4.164,41.686 C4.299,41.449 4.455,41.174 4.604,40.854 C4.7416535,40.5365296 4.78135002,40.1851805 4.718,39.845 C4.667,39.586 3.942,39.216 3.51,38.995 C3.14797678,38.8240989 2.80078202,38.6234083 2.472,38.395 C1.75470729,37.9902386 1.23115797,37.313086 1.02,36.517 C0.86,35.487 1.62,34.458 2.345,33.575 C4.05560327,31.369443 5.52247783,28.985227 6.72,26.464 C6.79697882,26.3281355 6.85421996,26.1820023 6.89,26.03 C6.89,25.755 6.565,25.439 6.076,24.991 C5.3374331,24.4449531 4.82021123,23.6511932 4.619,22.755 C4.56192334,22.1842424 4.65284498,21.6084053 4.883,21.083 C5.062,20.611 5.266,20.155 5.47,19.699 C5.82566937,18.9679886 6.11224857,18.2053397 6.326,17.421 L6.426,16.999 C6.65602311,15.9179422 6.95190812,14.8519547 7.312,13.807 C8.19404573,11.3778111 9.55841114,9.15217091 11.323,7.264 C13.559,4.9 16.836,3.316 21.345,2.419 C24.5310865,1.72059835 27.7640828,1.25668862 31.018,1.031 C31.164,1.021 31.318,1.02 31.48,1.02 C31.502,1.02 31.524,1.02 31.547,1.02 C31.723,1.009 31.881,1 32.04,1 C32.5992803,0.997047953 33.0587178,1.44094892 33.075,2 C33.083096,2.26155227 32.9851735,2.51528054 32.8034642,2.70358041 C32.6217548,2.89188028 32.3716747,2.99877642 32.11,3 L32.04,3 C31.913,3 31.788,3.009 31.653,3.018 L31.539,3.018 C31.502,3.018 31.464,3.018 31.425,3.018 C31.325,3.018 31.237,3.018 31.14,3.025 C27.9778795,3.24630514 24.8361712,3.6985106 21.74,4.378 C17.704,5.178 14.689,6.613 12.776,8.635 C11.1963406,10.3277433 9.97581452,12.322834 9.188,14.5 C8.85614522,15.4674021 8.58396707,16.4542566 8.373,17.455 L8.273,17.881 C8.03405513,18.788547 7.70821606,19.6709581 7.3,20.516 C7.111,20.937 6.923,21.357 6.76,21.786 C6.66364086,22.0015614 6.61063423,22.2339751 6.604,22.47 C6.649,22.796 7.03,23.146 7.434,23.517 C8.25904392,24.1003679 8.79170832,25.0118401 8.895,26.017 C8.87635428,26.4916102 8.74434083,26.9548574 8.51,27.368 C7.2548892,30.0038306 5.71756418,32.4957388 3.925,34.8 C3.163,35.727 3.005,36.1 3,36.247 C3.18518784,36.4261779 3.38598284,36.5884872 3.6,36.732 C3.86136569,36.9140729 4.13730073,37.0742824 4.425,37.211 C5.277,37.647 6.446,38.245 6.686,39.465 C6.82865982,40.2207273 6.73544627,41.0020454 6.419,41.703 C6.244,42.073 6.065,42.393 5.908,42.668 C5.859,42.755 5.808,42.851 5.758,42.938 C6.172,43.272 6.738,43.696 6.978,43.872 C7.19643076,44.0334948 7.33976225,44.2769033 7.37503403,44.5462515 C7.41030582,44.8155997 7.33448237,45.0877071 7.165,45.3 C7.01691908,45.4930204 6.88797779,45.6999963 6.78,45.918 L6.987,46.036 C7.87220583,46.4166291 8.54814599,47.1633751 8.839,48.082 C8.98564963,48.7876772 8.95576498,49.5186489 8.752,50.21 C8.706,50.419 8.658,50.627 8.632,50.837 C8.5729723,51.4418114 8.65336419,52.0521056 8.867,52.621 C9.08520556,53.5451371 9.99375512,54.1324511 10.926,53.952 C13.8403482,53.2516858 16.7117997,52.3835725 19.526,51.352 C20.0479091,51.1705745 20.6180744,51.4465909 20.7995,51.9685 C20.9809255,52.4904091 20.7049091,53.0605744 20.183,53.242 C17.2887222,54.3027843 14.334635,55.19265 11.336,55.907 C11.0649467,55.96639 10.7884727,55.9975562 10.511,56 Z M5.411,42.659 L5.443,42.688 C5.43377066,42.6766361 5.42374541,42.6659425 5.413,42.656 L5.411,42.659 Z" id="Shape" fill="#000000" fill-rule="nonzero"/><path d="M24.78,61 C24.3194886,60.9998779 23.9186017,60.6852787 23.809,60.238 C23.421,58.657 21.88,54.314 19.438,53.211 C19.0639436,53.0419148 18.8312137,52.6614066 18.8510746,52.25139 C18.8709354,51.8413735 19.1393525,51.4851405 19.528,51.353 C20.57,50.999 21.515,50.669 22.258,50.409 C22.951,50.167 23.473,49.985 23.744,49.898 C27.901,48.583 28.744,47.082 28.72,46.053 C28.7070213,45.5007153 29.1442153,45.0424787 29.6965,45.0295 C30.2487847,45.0165213 30.7070213,45.4537153 30.72,46.006 C30.778,48.498 28.636,50.449 24.352,51.806 C24.093,51.889 23.588,52.065 22.918,52.299 L22.018,52.614 C23.6685471,54.4421006 24.8727465,56.6280067 25.536,59 L48.218,58.937 L48.151,58.837 C47.8630969,58.4195592 47.6041562,57.9828684 47.376,57.53 C46.879054,56.5216399 46.4640482,55.4749292 46.135,54.4 C45.5288621,52.3528819 45.1078369,50.2554538 44.877,48.133 C44.4836273,44.7875409 44.9896868,41.3977013 46.343,38.313 C47.1417788,36.6440198 48.1292229,35.0720946 49.286,33.628 C49.866,32.846 50.466,32.038 50.986,31.217 C52.3711468,29.0779657 53.1154304,26.5873047 53.131,24.039 L53.131,23.53 C53.131,22.9777153 53.5787153,22.53 54.131,22.53 C54.6832847,22.53 55.131,22.9777153 55.131,23.53 L55.131,24.05 C55.1144532,26.9736768 54.262295,29.8316682 52.675,32.287 C52.116,33.167 51.494,34.006 50.893,34.816 C49.8281541,36.1394294 48.9172994,37.5796869 48.178,39.109 C46.9661452,41.8668444 46.5125267,44.8982172 46.864,47.89 C47.0798071,49.8935347 47.4757419,51.8735435 48.047,53.806 C48.3454759,54.7837332 48.7230564,55.7355437 49.176,56.652 C49.3670492,57.0268282 49.5832082,57.3883183 49.823,57.734 C50.2477748,58.3168965 50.588758,58.9564505 50.836,59.634 C50.9314293,59.9374437 50.8767998,60.2681879 50.6888608,60.5248273 C50.5009218,60.7814667 50.202095,60.9333833 49.884,60.934 L24.784,61.004 L24.78,61 Z" id="Shape" fill="#000000" fill-rule="nonzero"/><path d="M11.194,19.567 C10.8884083,19.5671753 10.5995104,19.4276105 10.4097039,19.1881114 C10.2198975,18.9486123 10.1500194,18.635471 10.22,18.338 L10.32,17.905 C10.5131052,16.9892005 10.7602032,16.085623 11.06,15.199 C11.7555725,13.2746582 12.8327926,11.5106976 14.227,10.013 C15.7596426,8.53520641 17.6473921,7.47750189 19.708,6.942 C20.0522577,6.82944433 20.4304681,6.91183364 20.6967164,7.1573819 C20.9629648,7.40293017 21.0756292,7.7732514 20.9912433,8.12547458 C20.9068574,8.47769775 20.6386132,8.75676066 20.29,8.855 C18.5634442,9.29302828 16.9771231,10.1641454 15.681,11.386 C14.4733406,12.6864483 13.5401016,14.2169058 12.937,15.886 C12.6667971,16.6958165 12.4434278,17.5205136 12.268,18.356 L12.168,18.791 C12.0636686,19.2449301 11.6597655,19.5667256 11.194,19.567 Z" id="Shape" fill="#000000" fill-rule="nonzero"/><circle id="Oval" fill="#000000" fill-rule="nonzero" cx="10" cy="22" r="1"/><path d="M41,34.765 C40.8243701,34.7646883 40.6519198,34.7181268 40.5,34.63 C36.9,32.546 28.174,27.054 24.962,21.081 C20.953,14.122 21.038,7.008 25.188,3.406 C27.5918399,1.42026434 30.7494723,0.596550038 33.817,1.155 C36.7037895,1.65222631 39.2816927,3.25861561 41,5.631 C42.7183073,3.25861561 45.2962105,1.65222631 48.183,1.155 C51.2506702,0.596808038 54.4083666,1.42007766 56.813,3.405 C60.963,7.005 61.048,14.122 57.024,21.105 C53.827,27.054 45.1,32.546 41.5,34.63 C41.3480802,34.7181268 41.1756299,34.7646883 41,34.765 Z M31.975,3 C29.9809525,2.97177871 28.0413251,3.65055973 26.5,4.916 C23.1,7.872 23.18,13.978 26.711,20.108 C29.557,25.4 37.3,30.423 41,32.606 C44.7,30.423 52.443,25.406 55.277,20.134 C58.823,13.978 58.907,7.872 55.503,4.916 C53.5445102,3.33213279 50.9936469,2.67908551 48.515,3.127 C45.6816331,3.64176166 43.2355103,5.41574339 41.866,7.949 C41.673525,8.23934997 41.3483529,8.41392248 41,8.41392248 C40.6516471,8.41392248 40.326475,8.23934997 40.134,7.949 C38.7644897,5.41574339 36.3183669,3.64176166 33.485,3.127 C32.9861122,3.04244852 32.481002,2.99996574 31.975,3 Z" id="Shape" fill="#000000" fill-rule="nonzero"/><path d="M41,26 C40.4477153,26 40,25.5522847 40,25 L40,22.3 L38.168,19.552 C38.0085951,19.3132617 37.9594755,19.017532 38.0331435,18.7400812 C38.1068115,18.4626304 38.2961617,18.2302186 38.553,18.102 L40.764,17 L38.553,15.9 C38.2135855,15.7308365 37.9990661,15.3842341 37.9990661,15.005 C37.9990661,14.6257659 38.2135855,14.2791635 38.553,14.11 L40.764,13 L38.553,11.9 C38.2961617,11.7717814 38.1068115,11.5393696 38.0331435,11.2619188 C37.9594755,10.984468 38.0085951,10.6887383 38.168,10.45 L40.168,7.45 C40.474518,6.99049909 41.0954991,6.86648196 41.555,7.173 C42.0145009,7.47951804 42.138518,8.10049909 41.832,8.56 L40.46,10.612 L43.447,12.105 C43.7864145,12.2741635 44.0009339,12.6207659 44.0009339,13 C44.0009339,13.3792341 43.7864145,13.7258365 43.447,13.895 L41.236,15 L43.447,16.105 C43.7864145,16.2741635 44.0009339,16.6207659 44.0009339,17 C44.0009339,17.3792341 43.7864145,17.7258365 43.447,17.895 L40.46,19.388 L41.832,21.445 C41.9412599,21.6095007 41.9996876,21.8025206 42,22 L42,25 C42,25.5522847 41.5522847,26 41,26 Z" id="Shape" fill="#000000" fill-rule="nonzero"/></g></g></svg>
