<?xml version="1.0" encoding="UTF-8"?>
<svg xmlns="http://www.w3.org/2000/svg" xmlns:xlink="http://www.w3.org/1999/xlink" width="512" height="512" viewBox="0 0 59 60" version="1.1"><!-- Generator: Sketch 51.3 (57544) - http://www.bohemiancoding.com/sketch --><title>011 - Strength</title><desc>Created with Sketch.</desc><defs/><g id="Page-1" stroke="none" stroke-width="1" fill="none" fill-rule="evenodd"><g id="011---Strength" transform="translate(-1.000000, -1.000000)" fill-rule="nonzero"><path d="M47.26,38.71 C45.9803538,41.6319437 45.5006323,44.8415908 45.87,48.01 C46.0951005,50.0721875 46.5033794,52.1102353 47.09,54.1 C47.4066015,55.1331686 47.8045116,56.1396471 48.28,57.11 C48.8738098,58.0143772 49.4082676,58.956359 49.88,59.93 L24.78,60 L24.78,59.99 C24.7,59.69 23.19,53.81 19.85,52.3 C19.23,52.52 18.57,52.74 17.9,52.97 C15.6789002,53.7404523 13.4191713,54.3946722 11.13,54.93 C10.4993821,55.0806865 9.83512584,54.9878335 9.27,54.67 C8.62676625,54.2742562 8.14753634,53.660132 7.92,52.94 C7.65806229,52.2276891 7.56229323,51.4649569 7.64,50.71 C7.87036773,49.9391054 7.94848689,49.1307419 7.87,48.33 C7.61,47.32 6.65,47.07 5.89,46.53 C5.27,46.09 6.38,44.68 6.38,44.68 C6.38,44.68 5.2,43.81 4.78,43.44 C4.34,43.07 4.96,42.45 5.51,41.28 C5.73694079,40.7719796 5.80323378,40.2067446 5.7,39.66 C5.49,38.59 3.87,38.19 3.07,37.59 C2.69,37.31 2.08,36.89 2.01,36.38 C1.9,35.67 2.74,34.67 3.15,34.17 C4.89454657,31.9217816 6.38996718,29.4908848 7.61,26.92 C7.77010631,26.6486227 7.86589137,26.3441631 7.89,26.03 C7.87,24.6 5.8,24.01 5.61,22.62 C5.58022555,22.2120559 5.65239212,21.803112 5.82,21.43 C6.39667192,20.2042401 6.89109856,18.9414478 7.3,17.65 C7.54612792,16.4653226 7.86336869,15.2965408 8.25,14.15 C9.08859812,11.8496676 10.3808376,9.74127689 12.05,7.95 C14.5,5.36 18.12,4.08 21.54,3.4 C24.5813721,2.73504394 27.6655865,2.28393999 30.77,2.05 C30.87,2.04 30.97,2.04 31.07,2.03 C37.47,1.71 42.53,3.88 47.49,7.77 C50.1943357,9.78046229 52.1705976,12.6167315 53.12,15.85 C53.8445851,18.5214574 54.1846722,21.2825609 54.13,24.05 C54.110834,26.7831121 53.3129958,29.4541358 51.83,31.75 C50.34,34.11 48.39,36.14 47.26,38.71 Z" id="Shape" fill="#6A1B9A"/><path d="M44.26,38.71 C42.9803538,41.6319437 42.5006323,44.8415908 42.87,48.01 C43.0951005,50.0721875 43.5033794,52.1102353 44.09,54.1 C44.4066015,55.1331686 44.8045116,56.1396471 45.28,57.11 C45.8738098,58.0143772 46.4082676,58.956359 46.88,59.93 L24.78,59.99 C24.7,59.69 23.19,53.81 19.85,52.3 C19.23,52.52 18.57,52.74 17.9,52.97 C17.5823905,52.6995596 17.2290765,52.4741116 16.85,52.3 C14.44,53.14 11.5,54.11 9.27,54.67 C8.62676625,54.2742562 8.14753634,53.660132 7.92,52.94 C7.65806229,52.2276891 7.56229323,51.4649569 7.64,50.71 C7.87036773,49.9391054 7.94848689,49.1307419 7.87,48.33 C7.61,47.32 6.65,47.07 5.89,46.53 C5.27,46.09 6.38,44.68 6.38,44.68 C6.38,44.68 5.2,43.81 4.78,43.44 C4.34,43.07 4.96,42.45 5.51,41.28 C5.73694079,40.7719796 5.80323378,40.2067446 5.7,39.66 C5.49,38.59 3.87,38.19 3.07,37.59 C2.69,37.31 2.08,36.89 2.01,36.38 C1.9,35.67 2.74,34.67 3.15,34.17 C4.89454657,31.9217816 6.38996718,29.4908848 7.61,26.92 C7.77010631,26.6486227 7.86589137,26.3441631 7.89,26.03 C7.87,24.6 5.8,24.01 5.61,22.62 C5.58022555,22.2120559 5.65239212,21.803112 5.82,21.43 C6.39667192,20.2042401 6.89109856,18.9414478 7.3,17.65 C7.54612792,16.4653226 7.86336869,15.2965408 8.25,14.15 C9.08859812,11.8496676 10.3808376,9.74127689 12.05,7.95 C14.5,5.36 18.12,4.08 21.54,3.4 C24.5813721,2.73504394 27.6655865,2.28393999 30.77,2.05 C35.93,2.37 40.25,4.44 44.49,7.77 C47.1943357,9.78046229 49.1705976,12.6167315 50.12,15.85 C50.8445851,18.5214574 51.1846722,21.2825609 51.13,24.05 C51.110834,26.7831121 50.3129958,29.4541358 48.83,31.75 C47.34,34.11 45.39,36.14 44.26,38.71 Z" id="Shape" fill="#9D27B0"/><path d="M29.47,26.01 C30.0450868,27.0922072 29.748319,28.4319017 28.77,29.17 L28.76,29.18 C28.1645602,29.6221284 27.4040761,29.7782969 26.6825859,29.6066054 C25.9610957,29.4349139 25.3524687,28.9529409 25.02,28.29 C21.4097391,21.3232942 22.7243088,12.8210615 28.27,7.27 L31.81,10.81 C27.7953227,14.822502 26.8480379,20.9758048 29.47,26.01 Z" id="Shape" fill="#60A917"/><path d="M53.71,7.29 L50.19,10.82 C47.7572061,8.37528464 44.4510063,7.00002088 41.0020766,6.99814442 C37.553147,6.99626796 34.2454527,8.3679333 31.81,10.81 L28.27,7.27 C31.6407488,3.88881439 36.219813,1.99006608 40.9941558,1.9938195 C45.7684986,1.99757291 50.3445717,3.90351866 53.71,7.29 Z" id="Shape" fill="#FFDC00"/><path d="M56.92,28.4 C56.5756471,29.0311593 55.97366,29.4812076 55.2708593,29.632905 C54.5680585,29.7846024 53.834033,29.6229285 53.26,29.19 C53.25,29.19 53.25,29.18 53.24,29.18 L53.23,29.17 C52.2560396,28.4341495 51.9558958,27.1025254 52.52,26.02 C53.8103819,23.5471369 54.2763994,20.7265052 53.85,17.97 C53.426185,15.2565369 52.1433744,12.7504998 50.19,10.82 L52.12,8.88 L53.71,7.29 C59.3064087,12.8548173 60.6093207,21.4231888 56.92,28.4 Z" id="Shape" fill="#C81E1E"/><path d="M53.92,28.4 C53.7590461,28.7075147 53.5339799,28.9769121 53.26,29.19 C53.25,29.19 53.25,29.18 53.24,29.18 L53.23,29.17 C52.2560396,28.4341495 51.9558958,27.1025254 52.52,26.02 C53.8103819,23.5471369 54.2763994,20.7265052 53.85,17.97 C53.426185,15.2565369 52.1433744,12.7504998 50.19,10.82 L52.12,8.88 C56.541102,14.4526881 57.2474641,22.1127925 53.92,28.4 Z" id="Shape" fill="#F44335"/><path d="M38.471,25.387 L46.89,16.858 C47.0556669,16.6912017 47.3151572,16.6623422 47.513424,16.788665 C47.7116907,16.9149879 47.7951773,17.1623704 47.714,17.383 L43.529,28.613 L38.471,25.387 Z" id="Shape" fill="#E91E63"/><circle id="Oval" fill="#F44335" cx="41" cy="27" r="3"/><path d="M10.511,56 C8.86133749,55.9693354 7.42609992,54.8626511 6.977,53.275 C6.6618426,52.4141982 6.54959663,51.4922755 6.649,50.581 C6.682,50.318 6.74,50.05 6.798,49.781 C6.91957463,49.3932994 6.95372661,48.9834757 6.898,48.581 C6.817,48.267 6.586,48.111 5.998,47.774 C5.764,47.641 5.527,47.505 5.305,47.349 C4.97992342,47.1169696 4.76529209,46.7608192 4.712,46.365 C4.67385435,45.8622176 4.78741543,45.359553 5.038,44.922 C4.697,44.661 4.324,44.367 4.108,44.172 C3.184,43.416 3.796,42.333 4.163,41.687 C4.297,41.449 4.454,41.174 4.603,40.854 C4.74073439,40.5365382 4.78009658,40.1850652 4.716,39.845 C4.666,39.586 3.941,39.216 3.509,38.995 C3.14677307,38.8238802 2.79926375,38.6232011 2.47,38.395 C1.75415682,37.9904637 1.23094481,37.3151886 1.018,36.521 C0.859,35.492 1.618,34.464 2.341,33.583 C4.05386969,31.3753774 5.5221301,28.9884064 6.72,26.464 C6.79665216,26.3279802 6.85387471,26.1818944 6.89,26.03 C6.89,25.755 6.565,25.439 6.077,24.991 C5.33779367,24.4453722 4.82013234,23.6514828 4.619,22.755 C4.56307696,22.1851159 4.65324528,21.610379 4.881,21.085 C5.062,20.611 5.265,20.156 5.468,19.701 C5.82559624,18.9699027 6.11288832,18.2064692 6.326,17.421 L6.426,16.999 C6.65555464,15.9178276 6.95144756,14.8518115 7.312,13.807 C8.19429313,11.3777039 9.55900834,9.15204797 11.324,7.264 C13.558,4.9 16.836,3.316 21.345,2.419 C24.5307746,1.72073844 27.7634281,1.25682993 31.017,1.031 C33.062265,0.917363271 35.1135611,1.07608651 37.117,1.503 C37.4691735,1.57606103 37.7549821,1.83262022 37.8654941,2.17489377 C37.9760061,2.51716732 37.8941952,2.89242212 37.6512424,3.15763528 C37.4082896,3.42284844 37.041626,3.53715932 36.691,3.457 C34.8619673,3.06726218 32.9891072,2.92332537 31.122,3.029 C27.9659145,3.25002461 24.8302184,3.70156218 21.74,4.38 C17.704,5.18 14.689,6.615 12.776,8.637 C11.1971652,10.3296077 9.97673014,12.3238693 9.188,14.5 C8.85614522,15.4674021 8.58396707,16.4542566 8.373,17.455 L8.273,17.881 C8.03242184,18.790144 7.70456527,19.6739167 7.294,20.52 C7.106,20.94 6.917,21.36 6.754,21.788 C6.65950369,22.0048357 6.60691104,22.2376006 6.599,22.474 C6.643,22.798 7.025,23.148 7.429,23.519 C8.25493667,24.1015488 8.78786015,25.0134644 8.89,26.019 C8.86993297,26.4934145 8.73617951,26.9560643 8.5,27.368 C7.24784001,30.0034832 5.71353526,32.4953873 3.924,34.8 C3.162,35.731 3,36.1 3,36.249 C3.18487589,36.4288287 3.3857006,36.5914967 3.6,36.735 C3.8610164,36.9170713 4.13661917,37.0772821 4.424,37.214 C5.277,37.65 6.446,38.248 6.686,39.468 C6.82918406,40.2237094 6.73595159,41.0051861 6.419,41.706 C6.245,42.076 6.065,42.396 5.908,42.672 C5.859,42.758 5.808,42.854 5.757,42.941 C6.172,43.275 6.738,43.699 6.978,43.875 C7.19568419,44.0363089 7.33859797,44.2790429 7.37403559,44.5476525 C7.40947321,44.8162621 7.33440129,45.087755 7.166,45.3 C7.01761396,45.493007 6.88833948,45.6999801 6.78,45.918 C6.849,45.958 6.918,45.998 6.988,46.037 C7.87254397,46.4174365 8.54781232,47.1638818 8.838,48.082 C8.98493135,48.7872637 8.95538984,49.5179007 8.752,50.209 C8.706,50.418 8.659,50.627 8.632,50.836 C8.57367075,51.4411271 8.65403967,52.0515889 8.867,52.621 C9.08834925,53.5424498 9.99383671,54.1280688 10.925,53.952 C13.8392719,53.2514045 16.7107073,52.3832961 19.525,51.352 C19.862616,51.2348169 20.2371025,51.3066512 20.507394,51.5404437 C20.7776856,51.7742361 20.9027185,52.1344681 20.835394,52.4854437 C20.7680696,52.8364192 20.518616,53.1248169 20.181,53.242 C17.2866763,54.3026468 14.3325972,55.1925101 11.334,55.907 C11.063591,55.9661968 10.7878001,55.9973615 10.511,56 Z M5.411,42.66 L5.442,42.688 L5.411,42.66 Z" id="Shape" fill="#000000"/><path d="M52.006,14.112 C51.6848455,14.1148197 51.3839634,13.9553522 51.206,13.688 C51.193,13.667 51.149,13.596 51.137,13.575 C50.8645758,13.1026888 51.009593,12.4997687 51.467,12.203 C51.9145363,11.9119373 52.5128852,12.0344585 52.81,12.478 C52.822,12.496 52.863,12.564 52.873,12.583 C53.059648,12.8958358 53.0635646,13.2848944 52.8832523,13.6014243 C52.7029399,13.9179541 52.3662838,14.1130044 52.002,14.112 L52.006,14.112 Z" id="Shape" fill="#000000"/><path d="M24.78,61 C24.3194886,60.9998779 23.9186017,60.6852787 23.809,60.238 C23.42,58.657 21.879,54.314 19.438,53.211 C19.0639436,53.0419148 18.8312137,52.6614066 18.8510746,52.25139 C18.8709354,51.8413735 19.1393525,51.4851405 19.528,51.353 C20.572,50.999 21.517,50.668 22.261,50.408 C22.952,50.167 23.473,49.985 23.744,49.898 C27.902,48.583 28.744,47.082 28.721,46.053 C28.714833,45.7874245 28.8145893,45.530309 28.9982574,45.3383861 C29.1819255,45.1464632 29.43441,45.035507 29.7,45.03 C29.9665862,45.0182903 30.22642,45.1157951 30.4194896,45.2999945 C30.6125593,45.4841938 30.7221679,45.7391581 30.723,46.006 C30.781,48.498 28.639,50.449 24.354,51.806 C24.096,51.889 23.592,52.065 22.923,52.298 L22.023,52.614 C23.6713886,54.4428529 24.8738065,56.6286317 25.536,59 L48.218,58.937 L48.151,58.837 C47.8629147,58.4221101 47.6039597,57.987734 47.376,57.537 C46.8786739,56.5263955 46.4636619,55.4773282 46.135,54.4 C45.5282684,52.3530291 45.1072324,50.2555471 44.877,48.133 C44.4831396,44.7875333 44.9892182,41.3975661 46.343,38.313 C47.141408,36.6438155 48.1288779,35.0718493 49.286,33.628 C49.866,32.846 50.466,32.038 50.986,31.217 C51.4831578,30.4410308 51.902842,29.6180746 52.239,28.76 C52.4394794,28.2452706 53.0192706,27.9905207 53.534,28.1910001 C54.0487293,28.3914794 54.3034793,28.9712706 54.103,29.486 C53.7186343,30.4633015 53.2403959,31.4010239 52.675,32.286 C52.116,33.167 51.495,34.006 50.893,34.816 C49.8274731,36.139142 48.9162569,37.5794407 48.177,39.109 C46.9654389,41.8669237 46.5121643,44.8983057 46.864,47.89 C47.0796037,49.8934849 47.4752015,51.8734821 48.046,53.806 C48.3458821,54.7835634 48.7234175,55.7355946 49.175,56.653 C49.3663284,57.0267119 49.5824791,57.3871857 49.822,57.732 C50.2467579,58.3150683 50.5880507,58.9545717 50.836,59.632 C50.9314293,59.9354437 50.8767998,60.2661879 50.6888608,60.5228273 C50.5009218,60.7794667 50.202095,60.9313833 49.884,60.932 L24.784,61.002 L24.78,61 Z" id="Shape" fill="#000000"/><path d="M11.194,19.567 C10.8888508,19.5670321 10.6003862,19.4277344 10.4106651,19.1887325 C10.2209439,18.9497305 10.1507311,18.6371832 10.22,18.34 L10.32,17.907 C10.5131488,16.9905545 10.7602456,16.086314 11.06,15.199 C11.7556722,13.274706 12.8328806,11.5107644 14.227,10.013 C15.7595511,8.5356103 17.6468677,7.47795529 19.707,6.942 C20.0487245,6.83767844 20.4201459,6.92358921 20.6813533,7.16737057 C20.9425607,7.41115192 21.0538705,7.77576767 20.9733533,8.12387058 C20.8928362,8.47197349 20.6327245,8.75067845 20.291,8.855 C18.56399,9.29262258 16.9772482,10.1637817 15.681,11.386 C14.4731212,12.6862822 13.5398535,14.2167868 12.937,15.886 C12.6666327,16.6961058 12.4432611,17.5211451 12.268,18.357 L12.168,18.79 C12.064068,19.2443274 11.6600634,19.5666185 11.194,19.567 Z" id="Shape" fill="#000000"/><circle id="Oval" fill="#000000" cx="10" cy="22" r="1"/><path d="M54.755,30.685 C53.9917918,30.6852172 53.2491764,30.4374447 52.639,29.979 C51.2596874,28.9522193 50.8351119,27.0730479 51.639,25.553 C53.943509,21.1360593 53.279179,15.7545996 49.9696996,12.030694 C46.6602201,8.30678838 41.3940161,7.0150692 36.7370033,8.78491623 C32.0799905,10.5547633 29.0009024,15.0180198 29,20 C28.9946541,21.9314276 29.4611744,23.8349268 30.359,25.545 C30.9969369,26.7514448 30.8742931,28.2188547 30.0449402,29.3026657 C29.2155873,30.3864767 27.831249,30.8884139 26.5,30.588 C25.4791402,30.3543992 24.6131557,29.6826849 24.133,28.752 C20.1433642,21.0571686 21.8651716,11.6378209 28.319,5.852 C32.3451728,2.21610998 37.7422676,0.49043882 43.131,1.116 C52.1779908,2.203886 59.2089567,9.50993667 59.949,18.592 C60.2125127,22.1509609 59.4695475,25.7122733 57.805,28.869 C57.3362458,29.7515263 56.5038748,30.3839382 55.528,30.599 C55.2743286,30.6562959 55.0150615,30.6851406 54.755,30.685 Z M41.033,6 C41.5428006,5.99978217 42.0522304,6.02749034 42.559,6.083 C47.1500419,6.59679232 51.1920709,9.34235936 53.3617818,13.4208399 C55.5314926,17.4993204 55.5495342,22.3856085 53.41,26.48 C53.0644008,27.1290213 53.2435549,27.933092 53.832,28.374 C54.1908608,28.6462372 54.6516091,28.7461453 55.091,28.647 C55.4964849,28.5615183 55.8432657,28.3007918 56.038,27.935 C57.5268365,25.1087106 58.190781,21.920668 57.954,18.735 C57.293786,10.6111687 51.006118,4.07475316 42.914,3.1 C36.6725773,2.39498692 30.550707,5.18748699 26.9916884,10.3629857 C23.4326697,15.5384844 23.0160091,22.2542678 25.908,27.83 C26.1175482,28.2387114 26.4965585,28.5343102 26.944,28.638 C27.3687842,28.7364142 27.8153377,28.641169 28.163,28.378 C28.7552862,27.9338224 28.9349271,27.1239523 28.586,26.471 C26.3212202,22.1260019 26.4928107,16.9131637 29.038426,12.7265089 C31.5840414,8.53985405 36.133193,5.98870813 41.033,6 Z" id="Shape" fill="#000000"/><path d="M40.992,31 C39.1659971,30.9963754 37.5742411,29.7566158 37.1236415,27.9870792 C36.6730418,26.2175426 37.4779965,24.367478 39.0798792,23.4909672 C40.681762,22.6144563 42.6738879,22.9340273 43.9212351,24.2676032 C45.1685822,25.6011792 45.3544749,27.6101926 44.373,29.15 C43.8042518,30.0466988 42.9004507,30.6786394 41.863,30.905 C41.5769859,30.9682507 41.2849244,31.0001059 40.992,31 Z M41,25 C40.8533561,25.0001424 40.7071628,25.0162371 40.564,25.048 C39.6803537,25.2436185 39.0381974,26.0082605 38.9982374,26.9124178 C38.9582775,27.8165752 39.530474,28.6348865 40.3934177,28.9076969 C41.2563614,29.1805073 42.1949632,28.8398188 42.682,28.077 C43.0751444,27.4618238 43.1018488,26.6813031 42.7516692,26.0406951 C42.4014896,25.4000871 41.7300705,25.0011861 41,25 Z" id="Shape" fill="#000000"/><path d="M43.529,29.614 C43.2011884,29.6140821 42.8941523,29.4534919 42.7072372,29.1841906 C42.5203221,28.9148892 42.4772659,28.5710775 42.592,28.264 L45.962,19.221 L39.183,26.089 C38.9382738,26.3671341 38.5598337,26.4871793 38.1995327,26.4009663 C37.8392317,26.3147533 37.5561179,26.0364111 37.4637937,25.6776274 C37.3714695,25.3188437 37.4850654,24.938418 37.759,24.689 L47.817,14.499 C48.1482068,14.1628785 48.6693066,14.1040336 49.0671296,14.3578297 C49.4649526,14.6116257 49.6312164,15.1089829 49.466,15.551 L44.466,28.967 C44.3189353,29.3567948 43.9456145,29.6145734 43.529,29.614 Z" id="Shape" fill="#000000"/><path d="M50.19,11.82 C49.7858609,11.8199144 49.4215009,11.5765792 49.2665912,11.203308 C49.1116815,10.8300368 49.1966778,10.4002161 49.482,10.114 L53,6.584 C53.252944,6.3306987 53.6218086,6.23158268 53.967646,6.32398799 C54.3134834,6.4163933 54.5837526,6.68628137 54.676646,7.03198799 C54.7695393,7.3776946 54.670944,7.7466987 54.418,8 L50.898,11.53 C50.7097717,11.7166949 50.4551111,11.8210051 50.19,11.82 Z" id="Shape" fill="#000000"/><path d="M31.81,11.81 C31.5448052,11.8099434 31.2904927,11.7045494 31.103,11.517 L27.563,7.977 C27.3030434,7.72592553 27.1987874,7.35412211 27.2903028,7.00449268 C27.3818183,6.65486324 27.6548632,6.38181828 28.0044927,6.29030284 C28.3541221,6.1987874 28.7259255,6.30304342 28.977,6.563 L32.517,10.103 C32.8029079,10.3889943 32.8884219,10.8190366 32.733678,11.1926546 C32.5789341,11.5662725 32.2143959,11.8099137 31.81,11.81 Z" id="Shape" fill="#000000"/></g></g></svg>
