<?xml version="1.0" encoding="UTF-8"?>
<svg xmlns="http://www.w3.org/2000/svg" xmlns:xlink="http://www.w3.org/1999/xlink" width="512" height="512" viewBox="0 0 59 61" version="1.1"><!-- Generator: Sketch 51.3 (57544) - http://www.bohemiancoding.com/sketch --><title>012 - Target</title><desc>Created with Sketch.</desc><defs/><g id="Page-1" stroke="none" stroke-width="1" fill="none" fill-rule="evenodd"><g id="012---Target" transform="translate(-1.000000, -1.000000)" fill-rule="nonzero"><path d="M47.26,38.71 C45.9803538,41.6319437 45.5006323,44.8415908 45.87,48.01 C46.0951005,50.0721875 46.5033794,52.1102353 47.09,54.1 C47.4066015,55.1331686 47.8045116,56.1396471 48.28,57.11 C48.8738098,58.0143772 49.4082676,58.956359 49.88,59.93 L24.78,60 L24.78,59.99 C24.7,59.69 23.19,53.81 19.85,52.3 C19.23,52.52 18.57,52.74 17.9,52.97 C15.6789002,53.7404523 13.4191713,54.3946722 11.13,54.93 C10.4993821,55.0806865 9.83512584,54.9878335 9.27,54.67 C8.62676625,54.2742562 8.14753634,53.660132 7.92,52.94 C7.65806229,52.2276891 7.56229323,51.4649569 7.64,50.71 C7.87036773,49.9391054 7.94848689,49.1307419 7.87,48.33 C7.61,47.32 6.65,47.07 5.89,46.53 C5.27,46.09 6.38,44.68 6.38,44.68 C6.38,44.68 5.2,43.81 4.78,43.44 C4.34,43.07 4.96,42.45 5.51,41.28 C5.73694079,40.7719796 5.80323378,40.2067446 5.7,39.66 C5.49,38.59 3.87,38.19 3.07,37.59 C2.69,37.31 2.08,36.89 2.01,36.38 C1.9,35.67 2.74,34.67 3.15,34.17 C4.89454657,31.9217816 6.38996718,29.4908848 7.61,26.92 C7.77010631,26.6486227 7.86589137,26.3441631 7.89,26.03 C7.87,24.6 5.8,24.01 5.61,22.62 C5.58022555,22.2120559 5.65239212,21.803112 5.82,21.43 C6.39667192,20.2042401 6.89109856,18.9414478 7.3,17.65 C7.54612792,16.4653226 7.86336869,15.2965408 8.25,14.15 C9.08859812,11.8496676 10.3808376,9.74127689 12.05,7.95 C14.5,5.36 18.12,4.08 21.54,3.4 C24.5813721,2.73504394 27.6655865,2.28393999 30.77,2.05 C30.87,2.04 30.97,2.04 31.07,2.03 C37.47,1.71 42.53,3.88 47.49,7.77 C50.1943357,9.78046229 52.1705976,12.6167315 53.12,15.85 C53.8445851,18.5214574 54.1846722,21.2825609 54.13,24.05 C54.110834,26.7831121 53.3129958,29.4541358 51.83,31.75 C50.34,34.11 48.39,36.14 47.26,38.71 Z" id="Shape" fill="#FEC108"/><path d="M44.26,38.71 C42.9803538,41.6319437 42.5006323,44.8415908 42.87,48.01 C43.0951005,50.0721875 43.5033794,52.1102353 44.09,54.1 C44.4066015,55.1331686 44.8045116,56.1396471 45.28,57.11 C45.8738098,58.0143772 46.4082676,58.956359 46.88,59.93 L24.78,59.99 C24.7,59.69 23.19,53.81 19.85,52.3 C19.23,52.52 18.57,52.74 17.9,52.97 C17.5823905,52.6995596 17.2290765,52.4741116 16.85,52.3 C14.44,53.14 11.5,54.11 9.27,54.67 C8.62676625,54.2742562 8.14753634,53.660132 7.92,52.94 C7.65806229,52.2276891 7.56229323,51.4649569 7.64,50.71 C7.87036773,49.9391054 7.94848689,49.1307419 7.87,48.33 C7.61,47.32 6.65,47.07 5.89,46.53 C5.27,46.09 6.38,44.68 6.38,44.68 C6.38,44.68 5.2,43.81 4.78,43.44 C4.34,43.07 4.96,42.45 5.51,41.28 C5.73694079,40.7719796 5.80323378,40.2067446 5.7,39.66 C5.49,38.59 3.87,38.19 3.07,37.59 C2.69,37.31 2.08,36.89 2.01,36.38 C1.9,35.67 2.74,34.67 3.15,34.17 C4.89454657,31.9217816 6.38996718,29.4908848 7.61,26.92 C7.77010631,26.6486227 7.86589137,26.3441631 7.89,26.03 C7.87,24.6 5.8,24.01 5.61,22.62 C5.58022555,22.2120559 5.65239212,21.803112 5.82,21.43 C6.39667192,20.2042401 6.89109856,18.9414478 7.3,17.65 C7.54612792,16.4653226 7.86336869,15.2965408 8.25,14.15 C9.08859812,11.8496676 10.3808376,9.74127689 12.05,7.95 C14.5,5.36 18.12,4.08 21.54,3.4 C24.5813721,2.73504394 27.6655865,2.28393999 30.77,2.05 C35.93,2.37 40.25,4.44 44.49,7.77 C47.1943357,9.78046229 49.1705976,12.6167315 50.12,15.85 C50.8445851,18.5214574 51.1846722,21.2825609 51.13,24.05 C51.110834,26.7831121 50.3129958,29.4541358 48.83,31.75 C47.34,34.11 45.39,36.14 44.26,38.71 Z" id="Shape" fill="#FFDC00"/><path d="M53,26 C53,30.5086803 51.2089337,34.8326968 48.0208153,38.0208153 C44.8326968,41.2089337 40.5086803,43 36,43 C35.499137,43.0020944 34.9984912,42.978731 34.5,42.93 C25.7445275,42.1329904 19.0411359,34.7916735 19.0411359,26 C19.0411359,17.2083265 25.7445275,9.86700965 34.5,9.07 C34.9984912,9.02126903 35.499137,8.99790556 36,9 C45.3888407,9 53,16.6111593 53,26 Z" id="Shape" fill="#CFD8DC"/><ellipse id="Oval" fill="#F5F5F5" cx="34.5" cy="26" rx="15.5" ry="16.93"/><circle id="Oval" fill="#F44335" cx="36" cy="26" r="13"/><circle id="Oval" fill="#F5F5F5" cx="36" cy="26" r="9"/><circle id="Oval" fill="#F44335" cx="36" cy="26" r="5"/><polygon id="Shape" fill="#F44335" points="54 2 54 7 50 11 50 6"/><polygon id="Shape" fill="#FFEB3A" points="59 7 55 11 50 11 54 7"/><path d="M10.511,56 C8.86133749,55.9693354 7.42609992,54.8626511 6.977,53.275 C6.6618426,52.4141982 6.54959663,51.4922755 6.649,50.581 C6.682,50.318 6.74,50.05 6.798,49.781 C6.91957463,49.3932994 6.95372661,48.9834757 6.898,48.581 C6.817,48.267 6.586,48.111 5.998,47.774 C5.764,47.641 5.527,47.505 5.305,47.349 C4.97992342,47.1169696 4.76529209,46.7608192 4.712,46.365 C4.67385435,45.8622176 4.78741543,45.359553 5.038,44.922 C4.697,44.661 4.324,44.367 4.108,44.172 C3.184,43.416 3.796,42.333 4.163,41.687 C4.297,41.449 4.454,41.174 4.603,40.854 C4.74079442,40.5365542 4.78015866,40.1850629 4.716,39.845 C4.666,39.586 3.941,39.216 3.509,38.995 C3.14677307,38.8238802 2.79926375,38.6232011 2.47,38.395 C1.75415682,37.9904637 1.23094481,37.3151886 1.018,36.521 C0.859,35.492 1.618,34.464 2.341,33.583 C4.05386969,31.3753774 5.5221301,28.9884064 6.72,26.464 C6.79665216,26.3279802 6.85387471,26.1818944 6.89,26.03 C6.89,25.755 6.565,25.439 6.077,24.991 C5.33779367,24.4453722 4.82013234,23.6514828 4.619,22.755 C4.56307696,22.1851159 4.65324528,21.610379 4.881,21.085 C5.062,20.611 5.265,20.156 5.468,19.701 C5.82559624,18.9699027 6.11288832,18.2064692 6.326,17.421 L6.426,16.999 C6.65555464,15.9178276 6.95144756,14.8518115 7.312,13.807 C8.19429313,11.3777039 9.55900834,9.15204797 11.324,7.264 C13.558,4.9 16.836,3.316 21.345,2.419 C24.5307746,1.72073844 27.7634281,1.25682993 31.017,1.031 C34.8171005,0.809601688 38.6119253,1.54649093 42.053,3.174 C42.5444115,3.41267641 42.7533313,4.00155185 42.5222161,4.49656448 C42.291101,4.99157711 41.7054974,5.20949961 41.207,4.986 C38.0623096,3.49810959 34.5939822,2.82480154 31.121,3.028 C27.9652696,3.24981727 24.8299393,3.70168451 21.74,4.38 C17.704,5.18 14.689,6.615 12.776,8.637 C11.1971652,10.3296077 9.97673014,12.3238693 9.188,14.5 C8.85614522,15.4674021 8.58396707,16.4542566 8.373,17.455 L8.273,17.881 C8.03242184,18.790144 7.70456527,19.6739167 7.294,20.52 C7.106,20.94 6.917,21.36 6.754,21.788 C6.65950369,22.0048357 6.60691104,22.2376006 6.599,22.474 C6.643,22.798 7.025,23.148 7.429,23.519 C8.25493667,24.1015488 8.78786015,25.0134644 8.89,26.019 C8.86993297,26.4934145 8.73617951,26.9560643 8.5,27.368 C7.24784001,30.0034832 5.71353526,32.4953873 3.924,34.8 C3.162,35.731 3,36.1 3,36.249 C3.18487589,36.4288287 3.3857006,36.5914967 3.6,36.735 C3.8610164,36.9170713 4.13661917,37.0772821 4.424,37.214 C5.277,37.65 6.446,38.248 6.686,39.468 C6.82918406,40.2237094 6.73595159,41.0051861 6.419,41.706 C6.245,42.076 6.065,42.396 5.908,42.672 C5.859,42.758 5.808,42.854 5.757,42.941 C6.172,43.275 6.738,43.699 6.978,43.875 C7.19568419,44.0363089 7.33859797,44.2790429 7.37403559,44.5476525 C7.40947321,44.8162621 7.33440129,45.087755 7.166,45.3 C7.01761396,45.493007 6.88833948,45.6999801 6.78,45.918 C6.849,45.958 6.918,45.998 6.988,46.037 C7.87254397,46.4174365 8.54781232,47.1638818 8.838,48.082 C8.98493135,48.7872637 8.95538984,49.5179007 8.752,50.209 C8.706,50.418 8.659,50.627 8.632,50.836 C8.57367075,51.4411271 8.65403967,52.0515889 8.867,52.621 C9.08655613,53.5437183 9.99341528,54.1302244 10.925,53.952 C13.8392719,53.2514045 16.7107073,52.3832961 19.525,51.352 C19.862616,51.2348169 20.2371025,51.3066512 20.507394,51.5404437 C20.7776856,51.7742361 20.9027185,52.1344681 20.835394,52.4854437 C20.7680696,52.8364192 20.518616,53.1248169 20.181,53.242 C17.2866763,54.3026468 14.3325972,55.1925101 11.334,55.907 C11.063591,55.9661968 10.7878001,55.9973615 10.511,56 Z M5.411,42.66 L5.442,42.688 L5.411,42.66 Z" id="Shape" fill="#000000"/><path d="M24.78,61 C24.3194886,60.9998779 23.9186017,60.6852787 23.809,60.238 C23.42,58.657 21.879,54.314 19.438,53.211 C19.0639436,53.0419148 18.8312137,52.6614066 18.8510746,52.25139 C18.8709354,51.8413735 19.1393525,51.4851405 19.528,51.353 C20.572,50.999 21.517,50.668 22.261,50.408 C22.952,50.167 23.473,49.985 23.744,49.898 C27.902,48.583 28.744,47.082 28.721,46.053 C28.714833,45.7874245 28.8145893,45.530309 28.9982574,45.3383861 C29.1819255,45.1464632 29.43441,45.035507 29.7,45.03 C29.9662029,45.0197132 30.2252209,45.1176917 30.417971,45.3015862 C30.6107211,45.4854808 30.7207646,45.7396078 30.723,46.006 C30.781,48.498 28.639,50.449 24.354,51.806 C24.096,51.889 23.592,52.065 22.923,52.298 L22.023,52.614 C23.6713886,54.4428529 24.8738065,56.6286317 25.536,59 L48.218,58.937 L48.151,58.837 C47.8629147,58.4221101 47.6039597,57.987734 47.376,57.537 C46.8786739,56.5263955 46.4636619,55.4773282 46.135,54.4 C45.5282684,52.3530291 45.1072324,50.2555471 44.877,48.133 C44.4844247,44.7989257 44.9869847,41.4204528 46.333,38.345 C46.4759062,38.0173874 46.7827363,37.7909005 47.1379102,37.7508547 C47.4930841,37.7108088 47.8426425,37.863288 48.0549102,38.1508547 C48.2671779,38.4384214 48.3099063,38.8173875 48.167,39.145 C46.9642942,41.894814 46.5155854,44.9153146 46.867,47.896 C47.0826037,49.8994849 47.4782015,51.8794821 48.049,53.812 C48.3488821,54.7895634 48.7264175,55.7415946 49.178,56.659 C49.3693284,57.0327119 49.5854791,57.3931857 49.825,57.738 C50.2497579,58.3210683 50.5910507,58.9605717 50.839,59.638 C50.9344293,59.9414437 50.8797998,60.2721879 50.6918608,60.5288273 C50.5039218,60.7854667 50.205095,60.9373833 49.887,60.938 L24.787,61.008 L24.78,61 Z" id="Shape" fill="#000000"/><path d="M11.194,19.567 C10.8888508,19.5670321 10.6003862,19.4277344 10.4106651,19.1887325 C10.2209439,18.9497305 10.1507311,18.6371832 10.22,18.34 L10.32,17.907 C10.5131488,16.9905545 10.7602456,16.086314 11.06,15.199 C11.7556722,13.274706 12.8328806,11.5107644 14.227,10.013 C15.7595511,8.5356103 17.6468677,7.47795529 19.707,6.942 C20.0487245,6.83767844 20.4201459,6.92358921 20.6813533,7.16737057 C20.9425607,7.41115192 21.0538705,7.77576767 20.9733533,8.12387058 C20.8928362,8.47197349 20.6327245,8.75067845 20.291,8.855 C18.56399,9.29262258 16.9772482,10.1637817 15.681,11.386 C14.4731212,12.6862822 13.5398535,14.2167868 12.937,15.886 C12.6666327,16.6961058 12.4432611,17.5211451 12.268,18.357 L12.168,18.79 C12.064068,19.2443274 11.6600634,19.5666185 11.194,19.567 Z" id="Shape" fill="#000000"/><circle id="Oval" fill="#000000" cx="10" cy="22" r="1"/><path d="M36,44 C26.0588745,44 18,35.9411255 18,26 C18,16.0588745 26.0588745,8 36,8 C45.9411255,8 54,16.0588745 54,26 C53.9884279,35.9363282 45.9363282,43.9884279 36,44 Z M36,10 C27.163444,10 20,17.163444 20,26 C20,34.836556 27.163444,42 36,42 C44.836556,42 52,34.836556 52,26 C51.9895304,17.1677843 44.8322157,10.0104696 36,10 Z" id="Shape" fill="#000000"/><path d="M36,40 C28.2680135,40 22,33.7319865 22,26 C22,18.2680135 28.2680135,12 36,12 C43.7319865,12 50,18.2680135 50,26 C49.9917327,33.7285595 43.7285595,39.9917327 36,40 Z M36,14 C29.372583,14 24,19.372583 24,26 C24,32.627417 29.372583,38 36,38 C42.627417,38 48,32.627417 48,26 C47.9928352,19.375553 42.624447,14.0071648 36,14 Z" id="Shape" fill="#000000"/><path d="M36,36 C30.4771525,36 26,31.5228475 26,26 C26,20.4771525 30.4771525,16 36,16 C41.5228475,16 46,20.4771525 46,26 C45.9939376,31.5203344 41.5203344,35.9939376 36,36 Z M36,18 C31.581722,18 28,21.581722 28,26 C28,30.418278 31.581722,34 36,34 C40.418278,34 44,30.418278 44,26 C43.9950401,21.5837781 40.4162219,18.0049599 36,18 Z" id="Shape" fill="#000000"/><path d="M36,32 C32.6862915,32 30,29.3137085 30,26 C30,22.6862915 32.6862915,20 36,20 C39.3137085,20 42,22.6862915 42,26 C41.9966926,29.3123376 39.3123376,31.9966926 36,32 Z M36,22 C33.790861,22 32,23.790861 32,26 C32,28.209139 33.790861,30 36,30 C38.209139,30 40,28.209139 40,26 C40,23.790861 38.209139,22 36,22 Z" id="Shape" fill="#000000"/><path d="M36,27 C35.6003341,27.0001156 35.2389816,26.7622494 35.0810731,26.3951013 C34.9231646,26.0279531 34.9990298,25.6020418 35.274,25.312 L53.274,6.312 C53.5197987,6.05262518 53.8853009,5.94408503 54.2328255,6.02726556 C54.58035,6.11044609 54.8570997,6.37271021 54.9588255,6.71526556 C55.0605513,7.05782091 54.9717987,7.42862518 54.726,7.688 L36.726,26.688 C36.5370954,26.8872589 36.2745707,27.0000794 36,27 Z" id="Shape" fill="#000000"/><path d="M55,12 L50,12 C49.4477153,12 49,11.5522847 49,11 L49,6 C49.0000566,5.73480519 49.1054506,5.48049273 49.293,5.293 L53.293,1.293 C53.5789943,1.00709208 54.0090366,0.921578094 54.3826546,1.07632202 C54.7562725,1.23106595 54.9999137,1.5956041 55,2 L55,6 L59,6 C59.4043959,6.00008635 59.7689341,6.2437275 59.923678,6.61734544 C60.0784219,6.99096338 59.9929079,7.42100575 59.707,7.707 L55.707,11.707 C55.5195073,11.8945494 55.2651948,11.9999434 55,12 Z M51,10 L54.586,10 L56.586,8 L54,8 C53.4477153,8 53,7.55228475 53,7 L53,4.414 L51,6.414 L51,10 Z" id="Shape" fill="#000000"/></g></g></svg>
