<?xml version="1.0" encoding="UTF-8"?>
<svg xmlns="http://www.w3.org/2000/svg" xmlns:xlink="http://www.w3.org/1999/xlink" width="512" height="512" viewBox="0 0 59 60" version="1.1"><!-- Generator: Sketch 51.3 (57544) - http://www.bohemiancoding.com/sketch --><title>013 - Happy</title><desc>Created with Sketch.</desc><defs/><g id="Page-1" stroke="none" stroke-width="1" fill="none" fill-rule="evenodd"><g id="013---Happy" transform="translate(-1.000000, -1.000000)" fill-rule="nonzero"><path d="M47.26,38.71 C45.9803538,41.6319437 45.5006323,44.8415908 45.87,48.01 C46.0951005,50.0721875 46.5033794,52.1102353 47.09,54.1 C47.4066015,55.1331686 47.8045116,56.1396471 48.28,57.11 C48.8738098,58.0143772 49.4082676,58.956359 49.88,59.93 L24.78,60 L24.78,59.99 C24.7,59.69 23.19,53.81 19.85,52.3 C19.23,52.52 18.57,52.74 17.9,52.97 C15.6789002,53.7404523 13.4191713,54.3946722 11.13,54.93 C10.4993821,55.0806865 9.83512584,54.9878335 9.27,54.67 C8.62676625,54.2742562 8.14753634,53.660132 7.92,52.94 C7.65806229,52.2276891 7.56229323,51.4649569 7.64,50.71 C7.87036773,49.9391054 7.94848689,49.1307419 7.87,48.33 C7.61,47.32 6.65,47.07 5.89,46.53 C5.27,46.09 6.38,44.68 6.38,44.68 C6.38,44.68 5.2,43.81 4.78,43.44 C4.34,43.07 4.96,42.45 5.51,41.28 C5.73694079,40.7719796 5.80323378,40.2067446 5.7,39.66 C5.49,38.59 3.87,38.19 3.07,37.59 C2.69,37.31 2.08,36.89 2.01,36.38 C1.9,35.67 2.74,34.67 3.15,34.17 C4.89454657,31.9217816 6.38996718,29.4908848 7.61,26.92 C7.77010631,26.6486227 7.86589137,26.3441631 7.89,26.03 C7.87,24.6 5.8,24.01 5.61,22.62 C5.58022555,22.2120559 5.65239212,21.803112 5.82,21.43 C6.39667192,20.2042401 6.89109856,18.9414478 7.3,17.65 C7.54612792,16.4653226 7.86336869,15.2965408 8.25,14.15 C9.08859812,11.8496676 10.3808376,9.74127689 12.05,7.95 C14.5,5.36 18.12,4.08 21.54,3.4 C24.5813721,2.73504394 27.6655865,2.28393999 30.77,2.05 C30.87,2.04 30.97,2.04 31.07,2.03 C37.47,1.71 42.53,3.88 47.49,7.77 C50.1943357,9.78046229 52.1705976,12.6167315 53.12,15.85 C53.8445851,18.5214574 54.1846722,21.2825609 54.13,24.05 C54.110834,26.7831121 53.3129958,29.4541358 51.83,31.75 C50.34,34.11 48.39,36.14 47.26,38.71 Z" id="Shape" fill="#0377BC"/><path d="M44.26,38.71 C42.9803538,41.6319437 42.5006323,44.8415908 42.87,48.01 C43.0951005,50.0721875 43.5033794,52.1102353 44.09,54.1 C44.4066015,55.1331686 44.8045116,56.1396471 45.28,57.11 C45.8738098,58.0143772 46.4082676,58.956359 46.88,59.93 L24.78,59.99 C24.7,59.69 23.19,53.81 19.85,52.3 C19.23,52.52 18.57,52.74 17.9,52.97 C17.5823905,52.6995596 17.2290765,52.4741116 16.85,52.3 C14.44,53.14 11.5,54.11 9.27,54.67 C8.62676625,54.2742562 8.14753634,53.660132 7.92,52.94 C7.65806229,52.2276891 7.56229323,51.4649569 7.64,50.71 C7.87036773,49.9391054 7.94848689,49.1307419 7.87,48.33 C7.61,47.32 6.65,47.07 5.89,46.53 C5.27,46.09 6.38,44.68 6.38,44.68 C6.38,44.68 5.2,43.81 4.78,43.44 C4.34,43.07 4.96,42.45 5.51,41.28 C5.73694079,40.7719796 5.80323378,40.2067446 5.7,39.66 C5.49,38.59 3.87,38.19 3.07,37.59 C2.69,37.31 2.08,36.89 2.01,36.38 C1.9,35.67 2.74,34.67 3.15,34.17 C4.89454657,31.9217816 6.38996718,29.4908848 7.61,26.92 C7.77010631,26.6486227 7.86589137,26.3441631 7.89,26.03 C7.87,24.6 5.8,24.01 5.61,22.62 C5.58022555,22.2120559 5.65239212,21.803112 5.82,21.43 C6.39667192,20.2042401 6.89109856,18.9414478 7.3,17.65 C7.54612792,16.4653226 7.86336869,15.2965408 8.25,14.15 C9.08859812,11.8496676 10.3808376,9.74127689 12.05,7.95 C14.5,5.36 18.12,4.08 21.54,3.4 C24.5813721,2.73504394 27.6655865,2.28393999 30.77,2.05 C35.93,2.37 40.25,4.44 44.49,7.77 C47.1943357,9.78046229 49.1705976,12.6167315 50.12,15.85 C50.8445851,18.5214574 51.1846722,21.2825609 51.13,24.05 C51.110834,26.7831121 50.3129958,29.4541358 48.83,31.75 C47.34,34.11 45.39,36.14 44.26,38.71 Z" id="Shape" fill="#02A9F4"/><polygon id="Shape" fill="#FFEB3A" points="36.39 7.23 39 2 41.61 7.23"/><polygon id="Shape" fill="#FFEB3A" points="29.355 10.514 29 4.679 33.875 7.904"/><polygon id="Shape" fill="#FFEB3A" points="24.904 16.875 21.679 12 27.514 12.355"/><polygon id="Shape" fill="#FFEB3A" points="24.23 24.61 19 22 24.23 19.39"/><polygon id="Shape" fill="#FFEB3A" points="27.514 31.645 21.679 32 24.904 27.125"/><polygon id="Shape" fill="#FFEB3A" points="33.875 36.096 29 39.321 29.355 33.486"/><polygon id="Shape" fill="#FFEB3A" points="41.61 36.77 39 42 36.39 36.77"/><polygon id="Shape" fill="#FFEB3A" points="48.645 33.486 49 39.321 44.125 36.096"/><polygon id="Shape" fill="#FFEB3A" points="53.096 27.125 56.321 32 50.486 31.645"/><polygon id="Shape" fill="#FFEB3A" points="53.77 19.39 59 22 53.77 24.61"/><polygon id="Shape" fill="#FFEB3A" points="50.486 12.355 56.321 12 53.096 16.875"/><polygon id="Shape" fill="#FFEB3A" points="44.125 7.904 49 4.679 48.645 10.514"/><path d="M54,22 C53.9972403,30.2831279 47.2831279,36.9972403 39,37 C38.5121409,37.0038177 38.0245212,36.9770988 37.54,36.92 L37.53,36.92 C37.51,36.92 37.49,36.93 37.47,36.92 L37.44,36.92 C29.7962269,36.1222186 23.9919461,29.6762742 23.9970971,21.9909833 C24.0022481,14.3056924 29.8151643,7.86753433 37.46,7.08 L37.47,7.08 C37.49,7.07 37.51,7.08 37.53,7.08 C38.0178692,7.02290259 38.5088158,6.99618441 39,7 C47.2831279,7.00275966 53.9972403,13.7168721 54,22 Z" id="Shape" fill="#FF9801"/><path d="M51,22 C50.9950045,29.685963 45.1848751,36.1263144 37.54,36.92 L37.53,36.92 C37.51,36.92 37.49,36.93 37.47,36.92 L37.44,36.92 C29.7962269,36.1222186 23.9919461,29.6762742 23.9970971,21.9909833 C24.0022481,14.3056924 29.8151643,7.86753433 37.46,7.08 L37.47,7.08 C37.49,7.07 37.51,7.08 37.53,7.08 C45.1783891,7.8698008 50.9935489,14.3109429 51,22 Z" id="Shape" fill="#FFDC00"/><path d="M10.511,56 C8.86133749,55.9693354 7.42609992,54.8626511 6.977,53.275 C6.6618426,52.4141982 6.54959663,51.4922755 6.649,50.581 C6.682,50.318 6.74,50.05 6.798,49.781 C6.91957463,49.3932994 6.95372661,48.9834757 6.898,48.581 C6.817,48.267 6.586,48.111 5.998,47.774 C5.764,47.641 5.527,47.505 5.305,47.349 C4.97992342,47.1169696 4.76529209,46.7608192 4.712,46.365 C4.67385435,45.8622176 4.78741543,45.359553 5.038,44.922 C4.697,44.661 4.324,44.367 4.108,44.172 C3.184,43.416 3.796,42.333 4.163,41.687 C4.297,41.449 4.454,41.174 4.603,40.854 C4.74073439,40.5365382 4.78009658,40.1850652 4.716,39.845 C4.666,39.586 3.941,39.216 3.509,38.995 C3.14677307,38.8238802 2.79926375,38.6232011 2.47,38.395 C1.75415682,37.9904637 1.23094481,37.3151886 1.018,36.521 C0.859,35.492 1.618,34.464 2.341,33.583 C4.05386969,31.3753774 5.5221301,28.9884064 6.72,26.464 C6.79665216,26.3279802 6.85387471,26.1818944 6.89,26.03 C6.89,25.755 6.565,25.439 6.077,24.991 C5.33779367,24.4453722 4.82013234,23.6514828 4.619,22.755 C4.56307696,22.1851159 4.65324528,21.610379 4.881,21.085 C5.062,20.611 5.265,20.156 5.468,19.701 C5.82559624,18.9699027 6.11288832,18.2064692 6.326,17.421 L6.426,16.999 C6.65555464,15.9178276 6.95144756,14.8518115 7.312,13.807 C8.19429313,11.3777039 9.55900834,9.15204797 11.324,7.264 C13.558,4.9 16.836,3.316 21.345,2.419 C24.5307746,1.72073844 27.7634281,1.25682993 31.017,1.031 C33.6571813,0.876136605 36.3040975,1.18445277 38.838,1.942 C39.3668126,2.10133417 39.6663341,2.65918736 39.507,3.18799999 C39.3476658,3.71681262 38.7898126,4.01633413 38.261,3.857 C35.9479544,3.16612978 33.5318118,2.88556077 31.122,3.028 C27.9659304,3.24973351 24.8302616,3.70160137 21.74,4.38 C17.704,5.18 14.689,6.615 12.776,8.637 C11.1971652,10.3296077 9.97673014,12.3238693 9.188,14.5 C8.85614522,15.4674021 8.58396707,16.4542566 8.373,17.455 L8.273,17.881 C8.03242184,18.790144 7.70456527,19.6739167 7.294,20.52 C7.106,20.94 6.917,21.36 6.754,21.788 C6.65950369,22.0048357 6.60691104,22.2376006 6.599,22.474 C6.643,22.798 7.025,23.148 7.429,23.519 C8.25493667,24.1015488 8.78786015,25.0134644 8.89,26.019 C8.86993297,26.4934145 8.73617951,26.9560643 8.5,27.368 C7.24784001,30.0034832 5.71353526,32.4953873 3.924,34.8 C3.162,35.731 3,36.1 3,36.249 C3.18487589,36.4288287 3.3857006,36.5914967 3.6,36.735 C3.8610164,36.9170713 4.13661917,37.0772821 4.424,37.214 C5.277,37.65 6.446,38.248 6.686,39.468 C6.82918406,40.2237094 6.73595159,41.0051861 6.419,41.706 C6.245,42.076 6.065,42.396 5.908,42.672 C5.859,42.758 5.808,42.854 5.757,42.941 C6.172,43.275 6.738,43.699 6.978,43.875 C7.19568419,44.0363089 7.33859797,44.2790429 7.37403559,44.5476525 C7.40947321,44.8162621 7.33440129,45.087755 7.166,45.3 C7.01761396,45.493007 6.88833948,45.6999801 6.78,45.918 C6.849,45.958 6.918,45.998 6.988,46.037 C7.87254397,46.4174365 8.54781232,47.1638818 8.838,48.082 C8.98493135,48.7872637 8.95538984,49.5179007 8.752,50.209 C8.706,50.418 8.659,50.627 8.632,50.836 C8.57367075,51.4411271 8.65403967,52.0515889 8.867,52.621 C9.08745462,53.5430831 9.99362612,54.1291444 10.925,53.952 C13.8392719,53.2514045 16.7107073,52.3832961 19.525,51.352 C19.862616,51.2348169 20.2371025,51.3066512 20.507394,51.5404437 C20.7776856,51.7742361 20.9027185,52.1344681 20.835394,52.4854437 C20.7680696,52.8364192 20.518616,53.1248169 20.181,53.242 C17.2866763,54.3026468 14.3325972,55.1925101 11.334,55.907 C11.063591,55.9661968 10.7878001,55.9973615 10.511,56 Z M5.411,42.66 L5.442,42.688 L5.411,42.66 Z" id="Shape" fill="#000000"/><path d="M39.63,4.25 L39.62,4.25 C39.0686982,4.24724346 38.6236248,3.79881946 38.6250031,3.24751249 C38.6263814,2.69620553 39.0736913,2.2500125 39.625,2.2500125 C40.1763087,2.2500125 40.6236186,2.69620553 40.6249969,3.24751249 C40.6263752,3.79881946 40.1813018,4.24724346 39.63,4.25 Z" id="Shape" fill="#000000"/><path d="M53.31,17.565 C52.7577153,17.565 52.31,17.1172847 52.31,16.565 L52.31,16.555 C52.3127582,16.0033745 52.7616874,15.5581691 53.3133167,15.5600055 C53.864946,15.561842 54.3109009,16.0100267 54.3099861,16.5616583 C54.3090713,17.1132899 53.8616324,17.5599931 53.31,17.56 L53.31,17.565 Z" id="Shape" fill="#000000"/><path d="M24.78,61 C24.3194886,60.9998779 23.9186017,60.6852787 23.809,60.238 C23.42,58.657 21.879,54.314 19.438,53.211 C19.0639436,53.0419148 18.8312137,52.6614066 18.8510746,52.25139 C18.8709354,51.8413735 19.1393525,51.4851405 19.528,51.353 C20.572,50.999 21.517,50.668 22.261,50.408 C22.952,50.167 23.473,49.985 23.744,49.898 C27.902,48.583 28.744,47.082 28.721,46.053 C28.714833,45.7874245 28.8145893,45.530309 28.9982574,45.3383861 C29.1819255,45.1464632 29.43441,45.035507 29.7,45.03 C29.9672816,45.0156599 30.2286283,45.1122884 30.4222933,45.2970558 C30.6159583,45.4818232 30.7247627,45.7383398 30.723,46.006 C30.781,48.498 28.639,50.449 24.354,51.806 C24.096,51.889 23.592,52.065 22.923,52.298 L22.023,52.614 C23.6713886,54.4428529 24.8738065,56.6286317 25.536,59 L48.218,58.937 L48.151,58.837 C47.8629147,58.4221101 47.6039597,57.987734 47.376,57.537 C46.8786739,56.5263955 46.4636619,55.4773282 46.135,54.4 C45.5282684,52.3530291 45.1072324,50.2555471 44.877,48.133 C44.4831396,44.7875333 44.9892182,41.3975661 46.343,38.313 C46.4162472,38.1397067 46.499384,37.970762 46.592,37.807 C46.8725182,37.3419957 47.4728858,37.1858676 47.9443981,37.4553032 C48.4159105,37.7247389 48.5862022,38.3212437 48.328,38.799 C48.2722984,38.8986361 48.2225447,39.0014827 48.179,39.107 C46.9654355,41.866127 46.5111017,44.8993922 46.863,47.893 C47.0786037,49.8964849 47.4742015,51.8764821 48.045,53.809 C48.3448821,54.7865634 48.7224175,55.7385946 49.174,56.656 C49.3653284,57.0297119 49.5814791,57.3901857 49.821,57.735 C50.2457579,58.3180683 50.5870507,58.9575717 50.835,59.635 C50.9304293,59.9384437 50.8757998,60.2691879 50.6878608,60.5258273 C50.4999218,60.7824667 50.201095,60.9343833 49.883,60.935 L24.783,61.005 L24.78,61 Z" id="Shape" fill="#000000"/><path d="M11.194,19.567 C10.8888508,19.5670321 10.6003862,19.4277344 10.4106651,19.1887325 C10.2209439,18.9497305 10.1507311,18.6371832 10.22,18.34 L10.32,17.907 C10.5131488,16.9905545 10.7602456,16.086314 11.06,15.199 C11.7556722,13.274706 12.8328806,11.5107644 14.227,10.013 C15.7595511,8.5356103 17.6468677,7.47795529 19.707,6.942 C20.0487245,6.83767844 20.4201459,6.92358921 20.6813533,7.16737057 C20.9425607,7.41115192 21.0538705,7.77576767 20.9733533,8.12387058 C20.8928362,8.47197349 20.6327245,8.75067845 20.291,8.855 C18.56399,9.29262258 16.9772482,10.1637817 15.681,11.386 C14.4731212,12.6862822 13.5398535,14.2167868 12.937,15.886 C12.6666327,16.6961058 12.4432611,17.5211451 12.268,18.357 L12.168,18.79 C12.064068,19.2443274 11.6600634,19.5666185 11.194,19.567 Z" id="Shape" fill="#000000"/><circle id="Oval" fill="#000000" cx="10" cy="22" r="1"/><path d="M39,38 C30.163444,38 23,30.836556 23,22 C23,13.163444 30.163444,6 39,6 C47.836556,6 55,13.163444 55,22 C54.9895304,30.8322157 47.8322157,37.9895304 39,38 Z M39,8 C31.2680135,8 25,14.2680135 25,22 C25,29.7319865 31.2680135,36 39,36 C46.7319865,36 53,29.7319865 53,22 C52.9917327,14.2714405 46.7285595,8.00826732 39,8 Z" id="Shape" fill="#000000"/><path d="M28,23 C27.4477153,23 27,22.5522847 27,22 C27.0071648,15.375553 32.375553,10.0071648 39,10 C39.5522847,10 40,10.4477153 40,11 C40,11.5522847 39.5522847,12 39,12 C33.4796656,12.0060624 29.0060624,16.4796656 29,22 C29,22.5522847 28.5522847,23 28,23 Z" id="Shape" fill="#000000"/><path d="M41.611,8.23 C41.2299509,8.23189037 40.8809453,8.017058 40.711,7.676 L39,4.24 L37.285,7.676 C37.127312,7.99862088 36.8087479,8.21192305 36.450384,8.2348369 C36.0920201,8.25775075 35.748884,8.08675781 35.5513913,7.78684725 C35.3538986,7.48693668 35.3323746,7.10416044 35.495,6.784 L38.1,1.554 C38.2875851,1.23821442 38.6277008,1.04465402 38.995,1.04465402 C39.3622992,1.04465402 39.7024149,1.23821442 39.89,1.554 L42.5,6.784 C42.6543843,7.09381795 42.637564,7.46144342 42.4555332,7.75586906 C42.2735024,8.0502947 41.9521525,8.22964253 41.606,8.23 L41.611,8.23 Z" id="Shape" fill="#000000"/><path d="M29.354,11.514 C28.8243227,11.5149542 28.3857798,11.1027239 28.354,10.574 L28,4.74 C27.9772522,4.36171577 28.1702937,4.00307491 28.4985711,3.81373298 C28.8268486,3.62439104 29.2339508,3.63688449 29.55,3.846 L34.427,7.07 C34.8603156,7.38402316 34.9696168,7.98352209 34.6750043,8.43026183 C34.3803918,8.87700157 33.786295,9.01262892 33.327,8.738 L30.127,6.619 L30.36,10.453 C30.376135,10.7178402 30.2863558,10.978236 30.1104288,11.1768572 C29.9345018,11.3754784 29.6868509,11.4960405 29.422,11.512 L29.354,11.514 Z" id="Shape" fill="#000000"/><path d="M24.905,17.875 C24.5690884,17.8753881 24.2554231,17.7070982 24.07,17.427 L20.846,12.552 C20.6357069,12.2358918 20.6225634,11.8279601 20.8120717,11.4989704 C21.0015799,11.1699807 21.3610488,10.9766852 21.74,11 L27.574,11.354 C28.1262847,11.3874132 28.5469132,11.8622153 28.5135,12.4145 C28.4800868,12.9667847 28.0052847,13.3874132 27.453,13.354 L23.619,13.121 L25.738,16.321 C25.9406192,16.6278716 25.9584683,17.0211898 25.7844768,17.3451523 C25.6104853,17.6691148 25.2727288,17.8714468 24.905,17.872 L24.905,17.875 Z" id="Shape" fill="#000000"/><path d="M24.229,25.61 C24.0745484,25.6098352 23.9222342,25.5738959 23.784,25.505 L18.554,22.895 C18.2145855,22.7258365 18.0000661,22.3792341 18.0000661,22 C18.0000661,21.6207659 18.2145855,21.2741635 18.554,21.105 L23.784,18.495 C24.277494,18.2537941 24.8731622,18.455786 25.1181516,18.9474127 C25.363141,19.4390395 25.1657304,20.0362416 24.676,20.285 L21.24,22 L24.676,23.715 C25.091452,23.9220599 25.3097945,24.3877907 25.2032238,24.8395837 C25.0966531,25.2913766 24.6931918,25.6104339 24.229,25.61 Z" id="Shape" fill="#000000"/><path d="M21.68,33 C21.3117583,33.0000574 20.9732815,32.7977288 20.7989724,32.4733551 C20.6246633,32.1489813 20.6427305,31.7550562 20.846,31.448 L24.07,26.573 C24.3840232,26.1396844 24.9835221,26.0303832 25.4302618,26.3249957 C25.8770016,26.6196082 26.0126289,27.213705 25.738,27.673 L23.619,30.873 L27.453,30.64 C28.0052847,30.6065868 28.4800868,31.0272153 28.5135,31.5795 C28.5469132,32.1317847 28.1262847,32.6065868 27.574,32.64 L21.74,33 C21.72,33 21.7,33 21.68,33 Z" id="Shape" fill="#000000"/><path d="M29,40.32 C28.7240529,40.3204972 28.4601655,40.2069446 28.2708046,40.006222 C28.0814438,39.8054995 27.9834427,39.5354504 28,39.26 L28.354,33.426 C28.3756146,33.0687344 28.5861862,32.7501386 28.9063945,32.5902246 C29.2266029,32.4303105 29.6078008,32.453373 29.9063945,32.6507246 C30.2049883,32.8480761 30.3756146,33.1897344 30.354,33.547 L30.121,37.381 L33.321,35.262 C33.780295,34.9873711 34.3743918,35.1229984 34.6690043,35.5697382 C34.9636168,36.0164779 34.8543156,36.6159768 34.421,36.93 L29.546,40.154 C29.3839874,40.2611927 29.1942604,40.3188753 29,40.32 Z" id="Shape" fill="#000000"/><path d="M39,43 C38.6189509,43.0018904 38.2699453,42.787058 38.1,42.446 L35.49,37.216 C35.3273746,36.8958396 35.3488986,36.5130633 35.5463913,36.2131528 C35.743884,35.9132422 36.0870201,35.7422492 36.445384,35.7651631 C36.8037479,35.7880769 37.122312,36.0013791 37.28,36.324 L39,39.76 L40.715,36.324 C40.872688,36.0013791 41.1912521,35.7880769 41.549616,35.7651631 C41.9079799,35.7422492 42.251116,35.9132422 42.4486087,36.2131528 C42.6461014,36.5130633 42.6676254,36.8958396 42.505,37.216 L39.895,42.446 C39.725855,42.7854402 39.3792488,42.9999875 39,43 Z" id="Shape" fill="#000000"/><path d="M49,40.32 C48.8036951,40.3200462 48.6117183,40.2623141 48.448,40.154 L43.573,36.93 C43.1396844,36.6159768 43.0303832,36.0164779 43.3249957,35.5697382 C43.6196082,35.1229984 44.213705,34.9873711 44.673,35.262 L47.873,37.381 L47.64,33.547 C47.6065868,32.9947153 48.0272153,32.5199132 48.5795,32.4865 C49.1317847,32.4530868 49.6065868,32.8737153 49.64,33.426 L50,39.26 C50.0165573,39.5354504 49.9185562,39.8054995 49.7291954,40.006222 C49.5398345,40.2069446 49.2759471,40.3204972 49,40.32 Z" id="Shape" fill="#000000"/><path d="M56.32,33 C56.3,33 56.28,33 56.26,33 L50.426,32.646 C49.8737153,32.6125868 49.4530868,32.1377847 49.4865,31.5855 C49.5199133,31.0332153 49.9947153,30.6125868 50.547,30.646 L54.381,30.879 L52.262,27.679 C51.9873711,27.219705 52.1229984,26.6256082 52.5697382,26.3309957 C53.0164779,26.0363832 53.6159768,26.1456844 53.93,26.579 L57.154,31.454 C57.3539752,31.7608373 57.3702125,32.152447 57.1963247,32.4747858 C57.0224369,32.7971245 56.6862476,32.9986154 56.32,33 Z" id="Shape" fill="#000000"/><path d="M53.771,25.61 C53.3068082,25.6104339 52.9033469,25.2913766 52.7967762,24.8395837 C52.6902055,24.3877907 52.908548,23.9220599 53.324,23.715 L56.76,22 L53.324,20.285 C52.8342696,20.0362416 52.636859,19.4390395 52.8818484,18.9474127 C53.1268378,18.455786 53.722506,18.2537941 54.216,18.495 L59.446,21.105 C59.7854145,21.2741635 59.9999339,21.6207659 59.9999339,22 C59.9999339,22.3792341 59.7854145,22.7258365 59.446,22.895 L54.216,25.505 C54.0777658,25.5738959 53.9254516,25.6098352 53.771,25.61 Z" id="Shape" fill="#000000"/><path d="M53.1,17.875 C52.7322712,17.8744468 52.3945147,17.6721148 52.2205232,17.3481523 C52.0465317,17.0241898 52.0643808,16.6308716 52.267,16.324 L54.386,13.124 L50.552,13.357 C50.1947344,13.3786146 49.8530761,13.2079883 49.6557246,12.9093945 C49.458373,12.6108008 49.4353105,12.2296029 49.5952246,11.9093945 C49.7551386,11.5891862 50.0737344,11.3786146 50.431,11.357 L56.26,11 C56.6382842,10.9772522 56.9969251,11.1702937 57.186267,11.4985711 C57.375609,11.8268486 57.3631155,12.2339508 57.154,12.55 L53.93,17.427 C53.7455565,17.7056233 53.4341387,17.8737139 53.1,17.875 Z" id="Shape" fill="#000000"/><path d="M48.646,11.514 L48.585,11.514 C48.3201491,11.4980405 48.0724982,11.3774784 47.8965712,11.1788572 C47.7206442,10.980236 47.630865,10.7198402 47.647,10.455 L47.88,6.621 L44.68,8.74 C44.220705,9.01462892 43.6266082,8.87900157 43.3319957,8.43226183 C43.0373832,7.98552209 43.1466844,7.38602316 43.58,7.072 L48.455,3.848 C48.7705842,3.6420659 49.1751389,3.63102506 49.5014854,3.81944001 C49.827832,4.00785496 50.0205498,4.36372889 50,4.74 L49.646,10.574 C49.6142202,11.1027239 49.1756773,11.5149542 48.646,11.514 Z" id="Shape" fill="#000000"/></g></g></svg>
