<?xml version="1.0" encoding="UTF-8"?>
<svg xmlns="http://www.w3.org/2000/svg" xmlns:xlink="http://www.w3.org/1999/xlink" width="512" height="512" viewBox="0 0 60 61" version="1.1"><!-- Generator: Sketch 51.3 (57544) - http://www.bohemiancoding.com/sketch --><title>014 - Study</title><desc>Created with Sketch.</desc><defs/><g id="Page-1" stroke="none" stroke-width="1" fill="none" fill-rule="evenodd"><g id="014---Study" transform="translate(-1.000000, 0.000000)" fill-rule="nonzero"><path d="M47.26,37.71 C45.9803538,40.6319437 45.5006323,43.8415908 45.87,47.01 C46.0951005,49.0721875 46.5033794,51.1102353 47.09,53.1 C47.4066015,54.1331686 47.8045116,55.1396471 48.28,56.11 C48.8738098,57.0143772 49.4082676,57.956359 49.88,58.93 L24.78,59 L24.78,58.99 C24.7,58.69 23.19,52.81 19.85,51.3 C19.23,51.52 18.57,51.74 17.9,51.97 C15.6789002,52.7404523 13.4191713,53.3946722 11.13,53.93 C10.4993821,54.0806865 9.83512584,53.9878335 9.27,53.67 C8.62676625,53.2742562 8.14753634,52.660132 7.92,51.94 C7.65806229,51.2276891 7.56229323,50.4649569 7.64,49.71 C7.87036773,48.9391054 7.94848689,48.1307419 7.87,47.33 C7.61,46.32 6.65,46.07 5.89,45.53 C5.27,45.09 6.38,43.68 6.38,43.68 C6.38,43.68 5.2,42.81 4.78,42.44 C4.34,42.07 4.96,41.45 5.51,40.28 C5.73694079,39.7719796 5.80323378,39.2067446 5.7,38.66 C5.49,37.59 3.87,37.19 3.07,36.59 C2.69,36.31 2.08,35.89 2.01,35.38 C1.9,34.67 2.74,33.67 3.15,33.17 C4.89454657,30.9217816 6.38996718,28.4908848 7.61,25.92 C7.77010631,25.6486227 7.86589137,25.3441631 7.89,25.03 C7.87,23.6 5.8,23.01 5.61,21.62 C5.58022555,21.2120559 5.65239212,20.803112 5.82,20.43 C6.39667192,19.2042401 6.89109856,17.9414478 7.3,16.65 C7.54612792,15.4653226 7.86336869,14.2965408 8.25,13.15 C9.08859812,10.8496676 10.3808376,8.74127689 12.05,6.95 C14.5,4.36 18.12,3.08 21.54,2.4 C24.5813721,1.73504394 27.6655865,1.28393999 30.77,1.05 C30.87,1.04 30.97,1.04 31.07,1.03 C37.47,0.71 42.53,2.88 47.49,6.77 C50.1943357,8.78046229 52.1705976,11.6167315 53.12,14.85 C53.8445851,17.5214574 54.1846722,20.2825609 54.13,23.05 C54.110834,25.7831121 53.3129958,28.4541358 51.83,30.75 C50.34,33.11 48.39,35.14 47.26,37.71 Z" id="Shape" fill="#549414"/><path d="M44.26,37.71 C42.9803538,40.6319437 42.5006323,43.8415908 42.87,47.01 C43.0951005,49.0721875 43.5033794,51.1102353 44.09,53.1 C44.4066015,54.1331686 44.8045116,55.1396471 45.28,56.11 C45.8738098,57.0143772 46.4082676,57.956359 46.88,58.93 L24.78,58.99 C24.7,58.69 23.19,52.81 19.85,51.3 C19.23,51.52 18.57,51.74 17.9,51.97 C17.5823905,51.6995596 17.2290765,51.4741116 16.85,51.3 C14.44,52.14 11.5,53.11 9.27,53.67 C8.62676625,53.2742562 8.14753634,52.660132 7.92,51.94 C7.65806229,51.2276891 7.56229323,50.4649569 7.64,49.71 C7.87036773,48.9391054 7.94848689,48.1307419 7.87,47.33 C7.61,46.32 6.65,46.07 5.89,45.53 C5.27,45.09 6.38,43.68 6.38,43.68 C6.38,43.68 5.2,42.81 4.78,42.44 C4.34,42.07 4.96,41.45 5.51,40.28 C5.73694079,39.7719796 5.80323378,39.2067446 5.7,38.66 C5.49,37.59 3.87,37.19 3.07,36.59 C2.69,36.31 2.08,35.89 2.01,35.38 C1.9,34.67 2.74,33.67 3.15,33.17 C4.89454657,30.9217816 6.38996718,28.4908848 7.61,25.92 C7.77010631,25.6486227 7.86589137,25.3441631 7.89,25.03 C7.87,23.6 5.8,23.01 5.61,21.62 C5.58022555,21.2120559 5.65239212,20.803112 5.82,20.43 C6.39667192,19.2042401 6.89109856,17.9414478 7.3,16.65 C7.54612792,15.4653226 7.86336869,14.2965408 8.25,13.15 C9.08859812,10.8496676 10.3808376,8.74127689 12.05,6.95 C14.5,4.36 18.12,3.08 21.54,2.4 C24.5813721,1.73504394 27.6655865,1.28393999 30.77,1.05 C35.93,1.37 40.25,3.44 44.49,6.77 C47.1943357,8.78046229 49.1705976,11.6167315 50.12,14.85 C50.8445851,17.5214574 51.1846722,20.2825609 51.13,23.05 C51.110834,25.7831121 50.3129958,28.4541358 48.83,30.75 C47.34,33.11 45.39,35.14 44.26,37.71 Z" id="Shape" fill="#60A917"/><path d="M60,4.94 L60,29.06 C60.0016663,29.5759388 59.5859271,29.9961483 59.07,30 L44.93,30 C44.6830344,29.9996049 44.4458773,30.0966237 44.27,30.27 C44.1988832,30.3425328 44.1413103,30.4271988 44.1,30.52 C44.0318986,30.6457682 43.9974517,30.7870002 44,30.93 L44,32.06 C44.0016663,32.5759388 43.5859271,32.9961483 43.07,33 L36.94,33 C36.4240729,32.9961483 36.0083337,32.5759388 36.01,32.06 L36.01,30.93 C36.0030068,30.4192999 35.5907001,30.0069932 35.08,30 L20.93,30 C20.4140729,29.9961483 19.9983337,29.5759388 20,29.06 L20,4.94 C19.9983337,4.42406122 20.4140729,4.00385173 20.93,4 L59.07,4 C59.5859271,4.00385173 60.0016663,4.42406122 60,4.94 Z" id="Shape" fill="#6D4122"/><path d="M57,5.01 L57,28.768 C57.0203201,29.303065 56.6049214,29.754197 56.07,29.778 L44.93,29.778 C44.6792034,29.7784853 44.4399842,29.8835968 44.27,30.068 C44.0944442,30.2622167 43.9981015,30.5152055 44,30.777 L44,31.99 C43.9973424,32.1261365 43.9737323,32.2610515 43.93,32.39 C43.7914841,32.7476017 43.4532466,32.9883009 43.07,33.002 L36.94,33.002 C36.5567534,32.9883009 36.2185159,32.7476017 36.08,32.39 C36.0362677,32.2610515 36.0126576,32.1261365 36.01,31.99 L36.01,30.777 C36.0263556,30.2451574 35.61163,29.799216 35.08,29.777 L20.93,29.777 C20.3950786,29.753197 19.9796799,29.302065 20,28.767 L20,5.01 C19.9796799,4.47493497 20.3950786,4.02380303 20.93,4 L56.07,4 C56.6049214,4.02380303 57.0203201,4.47493497 57,5.01 Z" id="Shape" fill="#91562D"/><path d="M40,25 L40,26 L24.89,26 C24.3694873,25.96675 23.9726413,25.5208555 24,25 L24,21 L36.44,21 C38.5241095,21.1287716 40.1138736,22.9150234 40,25 Z" id="Shape" fill="#FFDC00"/><path d="M40,4.73 L40,25 C40.1138736,22.9150234 38.5241095,21.1287716 36.44,21 L24,21 L24,1.93 C23.991044,1.42823563 24.3883267,1.01309761 24.89,1 L36.44,1 C37.4068008,1.02228241 38.3251202,1.42784732 38.9928054,2.12741633 C39.6604905,2.82698534 40.0228082,3.76321146 40,4.73 Z" id="Shape" fill="#FFDC00"/><path d="M56,1.93 L56,21 L43.56,21 C41.4758905,21.1287716 39.8861264,22.9150234 40,25 L40,4.73 C39.9771918,3.76321146 40.3395095,2.82698534 41.0071946,2.12741633 C41.6748798,1.42784732 42.5931992,1.02228241 43.56,1 L55.11,1 C55.6116733,1.01309761 56.008956,1.42823563 56,1.93 Z" id="Shape" fill="#FDD834"/><path d="M56,21 L56,25 C56.0273587,25.5208555 55.6305127,25.96675 55.11,26 L40,26 L40,25 C39.8861264,22.9150234 41.4758905,21.1287716 43.56,21 L56,21 Z" id="Shape" fill="#FEC108"/><path d="M53,1.93 L53,21 L40.56,21 C40.3722796,21.0013141 40.1849839,21.0180369 40,21.05 L40,4.73 C39.9771918,3.76321146 40.3395095,2.82698534 41.0071946,2.12741633 C41.6748798,1.42784732 42.5931992,1.02228241 43.56,1 L52.11,1 C52.6116733,1.01309761 53.008956,1.42823563 53,1.93 Z" id="Shape" fill="#FFEB3A"/><path d="M53,21 L53,25 C53.0273587,25.5208555 52.6305127,25.96675 52.11,26 L40,26 L40,25 C39.8861264,22.9150234 41.4758905,21.1287716 43.56,21 L53,21 Z" id="Shape" fill="#FFDC00"/><path d="M40.61,3.635 C40.059662,3.63500688 39.6127517,3.19033113 39.61,2.64 L39.61,2.63 C39.61,2.07771525 40.0577153,1.63 40.61,1.63 C41.1622847,1.63 41.61,2.07771525 41.61,2.63 C41.61,3.18228475 41.1622847,3.63 40.61,3.63 L40.61,3.635 Z" id="Shape" fill="#000000"/><path d="M10.511,55 C8.86133749,54.9693354 7.42609992,53.8626511 6.977,52.275 C6.6618426,51.4141982 6.54959663,50.4922755 6.649,49.581 C6.682,49.318 6.74,49.05 6.798,48.781 C6.91957463,48.3932994 6.95372661,47.9834757 6.898,47.581 C6.817,47.267 6.586,47.111 5.998,46.774 C5.764,46.641 5.527,46.505 5.305,46.349 C4.97992342,46.1169696 4.76529209,45.7608192 4.712,45.365 C4.67385435,44.8622176 4.78741543,44.359553 5.038,43.922 C4.697,43.661 4.324,43.367 4.108,43.172 C3.184,42.416 3.796,41.333 4.163,40.687 C4.297,40.449 4.454,40.174 4.603,39.854 C4.74079442,39.5365542 4.78015866,39.1850629 4.716,38.845 C4.666,38.586 3.941,38.216 3.509,37.995 C3.14677307,37.8238802 2.79926375,37.6232011 2.47,37.395 C1.75369155,36.9893367 1.23074833,36.3125018 1.019,35.517 C0.86,34.488 1.619,33.46 2.342,32.579 C4.05427497,30.3725891 5.52219196,27.9869725 6.72,25.464 C6.79665216,25.3279802 6.85387471,25.1818944 6.89,25.03 C6.89,24.755 6.565,24.439 6.077,23.991 C5.33779367,23.4453722 4.82013234,22.6514828 4.619,21.755 C4.56307696,21.1851159 4.65324528,20.610379 4.881,20.085 C5.062,19.611 5.265,19.156 5.468,18.701 C5.82559624,17.9699027 6.11288832,17.2064692 6.326,16.421 L6.426,15.999 C6.65555464,14.9178276 6.95144756,13.8518115 7.312,12.807 C8.19429313,10.3777039 9.55900834,8.15204797 11.324,6.264 C12.5668642,4.98993872 14.0345179,3.95658035 15.653,3.216 C15.9759681,3.06309033 16.3559793,3.09409739 16.649887,3.29734113 C16.9437947,3.50058486 17.1069474,3.84518772 17.077887,4.20134113 C17.0488266,4.55749454 16.8319681,4.87109033 16.509,5.024 C15.1143209,5.65847213 13.8487747,6.54499861 12.776,7.639 C11.1970634,9.33076792 9.97659709,11.3244003 9.188,13.5 C8.85614522,14.4674021 8.58396707,15.4542566 8.373,16.455 L8.273,16.881 C8.03242184,17.790144 7.70456527,18.6739167 7.294,19.52 C7.106,19.94 6.917,20.36 6.754,20.788 C6.65950369,21.0048357 6.60691104,21.2376006 6.599,21.474 C6.643,21.798 7.025,22.148 7.429,22.519 C8.25493667,23.1015488 8.78786015,24.0134644 8.89,25.019 C8.86993297,25.4934145 8.73617951,25.9560643 8.5,26.368 C7.24784001,29.0034832 5.71353526,31.4953873 3.924,33.8 C3.162,34.731 3,35.1 3,35.249 C3.18487589,35.4288287 3.3857006,35.5914967 3.6,35.735 C3.8610164,35.9170713 4.13661917,36.0772821 4.424,36.214 C5.277,36.65 6.446,37.248 6.686,38.468 C6.82918406,39.2237094 6.73595159,40.0051861 6.419,40.706 C6.245,41.076 6.065,41.396 5.908,41.672 C5.859,41.758 5.808,41.854 5.757,41.941 C6.172,42.275 6.738,42.699 6.978,42.875 C7.19568419,43.0363089 7.33859797,43.2790429 7.37403559,43.5476525 C7.40947321,43.8162621 7.33440129,44.087755 7.166,44.3 C7.01761396,44.493007 6.88833948,44.6999801 6.78,44.918 C6.849,44.958 6.918,44.998 6.988,45.037 C7.87254397,45.4174365 8.54781232,46.1638818 8.838,47.082 C8.98493135,47.7872637 8.95538984,48.5179007 8.752,49.209 C8.706,49.418 8.659,49.627 8.632,49.836 C8.57367075,50.4411271 8.65403967,51.0515889 8.867,51.621 C9.08790242,52.5427662 9.99373144,53.1286061 10.925,52.952 C13.8392719,52.2514045 16.7107073,51.3832961 19.525,50.352 C19.862616,50.2348169 20.2371025,50.3066512 20.507394,50.5404437 C20.7776856,50.7742361 20.9027185,51.1344681 20.835394,51.4854437 C20.7680696,51.8364192 20.518616,52.1248169 20.181,52.242 C17.2866763,53.3026468 14.3325972,54.1925101 11.334,54.907 C11.063591,54.9661968 10.7878001,54.9973615 10.511,55 Z M5.411,41.66 L5.442,41.688 L5.411,41.66 Z" id="Shape" fill="#000000"/><path d="M38.86,3 C38.4510954,3.0000818 38.0833368,2.7512044 37.9313976,2.37157638 C37.7794583,1.99194837 37.8739531,1.55806238 38.17,1.276 C38.4588209,0.992859971 38.8897608,0.91157853 39.2618772,1.07005632 C39.6339936,1.22853411 39.8740063,1.59556243 39.87,2 C39.87,2.55228475 39.4222847,3 38.87,3 L38.86,3 Z" id="Shape" fill="#000000"/><path d="M24.78,60 C24.3194886,59.9998779 23.9186017,59.6852787 23.809,59.238 C23.42,57.657 21.879,53.314 19.438,52.211 C19.0639436,52.0419148 18.8312137,51.6614066 18.8510746,51.25139 C18.8709354,50.8413735 19.1393525,50.4851405 19.528,50.353 C20.572,49.999 21.517,49.668 22.261,49.408 C22.952,49.167 23.473,48.985 23.744,48.898 C27.902,47.583 28.744,46.082 28.721,45.053 C28.714833,44.7874245 28.8145893,44.530309 28.9982574,44.3383861 C29.1819255,44.1464632 29.43441,44.035507 29.7,44.03 C29.9671265,44.0162523 30.2281319,44.1130783 30.4216623,44.2977172 C30.6151926,44.4823561 30.7241782,44.7385226 30.723,45.006 C30.781,47.498 28.639,49.449 24.354,50.806 C24.096,50.889 23.592,51.065 22.923,51.298 L22.023,51.614 C23.6713886,53.4428529 24.8738065,55.6286317 25.536,58 L48.218,57.937 L48.151,57.837 C47.8629147,57.4221101 47.6039597,56.987734 47.376,56.537 C46.8786739,55.5263955 46.4636619,54.4773282 46.135,53.4 C45.5282684,51.3530291 45.1072324,49.2555471 44.877,47.133 C44.4831396,43.7875333 44.9892182,40.3975661 46.343,37.313 C46.432,37.12 48.073,33.806 48.243,33.513 C48.5138957,33.0316839 49.1236838,32.8611044 49.605,33.132 C50.0863161,33.4028957 50.2568956,34.0126838 49.986,34.494 C49.844,34.751 48.277,37.904 48.172,38.133 C46.9673456,40.8861363 46.5185976,43.910698 46.872,46.895 C47.0876037,48.8984849 47.4832015,50.8784821 48.054,52.811 C48.3538821,53.7885634 48.7314175,54.7405946 49.183,55.658 C49.3743284,56.0317119 49.5904791,56.3921857 49.83,56.737 C50.2547579,57.3200683 50.5960507,57.9595717 50.844,58.637 C50.9394293,58.9404437 50.8847998,59.2711879 50.6968608,59.5278273 C50.5089218,59.7844667 50.210095,59.9363833 49.892,59.937 L24.792,60.007 L24.78,60 Z" id="Shape" fill="#000000"/><path d="M11.191,18.57 C10.8866019,18.5702902 10.598645,18.4319184 10.4086789,18.1940715 C10.2187128,17.9562246 10.1474235,17.6448024 10.215,17.348 L10.315,16.908 C10.5100814,15.9915212 10.7588434,15.0872964 11.06,14.2 C11.7538539,12.2729537 12.8339185,10.5078955 14.234,9.013 C14.5937799,8.6306933 14.9899888,8.28438735 15.417,7.979 C15.8643326,7.69418718 16.4562079,7.80809817 16.7658725,8.23860097 C17.0755371,8.66910377 16.995294,9.26647564 16.583,9.6 C16.2604461,9.83042414 15.9613394,10.0920169 15.69,10.381 C14.4753123,11.6775741 13.5387713,13.2089819 12.938,14.881 C12.6662165,15.6910852 12.4411794,16.5161102 12.264,17.352 L12.164,17.787 C12.0625579,18.2433471 11.6584836,18.5685168 11.191,18.57 Z" id="Shape" fill="#000000"/><circle id="Oval" fill="#000000" cx="10" cy="21" r="1"/><path d="M40,28 C39.4477153,28 39,27.5522847 39,27 L39,4.727 C39.0443686,3.26921591 37.9016019,2.0499965 36.444,2 L25,2 L25,21.5 C25,22.0522847 24.5522847,22.5 24,22.5 C23.4477153,22.5 23,22.0522847 23,21.5 L23,1.932 C22.9894427,0.87738862 23.8344181,0.0131787015 24.889,0 L36.444,0 C39.0058289,0.0508885118 41.0434957,2.1650349 41,4.727 L41,27 C41,27.5522847 40.5522847,28 40,28 Z" id="Shape" fill="#000000"/><path d="M40,27 L24.889,27 C23.8159865,26.9673327 22.971412,26.0731299 23,25 L23,21 C23,20.4477153 23.4477153,20 24,20 L36.444,20 C39.0785544,20.1316604 41.1131979,22.3645877 41,25 L41,26 C41,26.5522847 40.5522847,27 40,27 Z M25,25 L39,25 C39.1107515,23.4696139 37.9725523,22.1336993 36.444,22 L25,22 L25,25 Z" id="Shape" fill="#000000"/><path d="M43.07,34 L36.94,34 C35.8717873,33.9961409 35.0083386,33.1282183 35.01,32.06 L35.01,30.93 L20.93,31 C19.8617873,30.9961409 18.9983386,30.1282183 19,29.06 L19,4.94 C18.9983386,3.87178165 19.8617873,3.00385908 20.93,3 L24,3 C24.5522847,3 25,3.44771525 25,4 C25,4.55228475 24.5522847,5 24,5 L20.93,5 L21,29.06 L35.08,29 C36.1454526,29.0011024 37.0088976,29.8645474 37.01,30.93 L37.01,32.06 L43.07,32 L43,30.93 C42.9978622,30.4174798 43.2005144,29.9253337 43.562924,29.562924 C43.9253337,29.2005144 44.4174798,28.9978622 44.93,29 L59.07,29 L59,4.94 L56,5 C55.4477153,5 55,4.55228475 55,4 C55,3.44771525 55.4477153,3 56,3 L59.07,3 C60.1382127,3.00385908 61.0016614,3.87178165 61,4.94 L61,29.06 C61.0016614,30.1282183 60.1382127,30.9961409 59.07,31 L44.93,31 L45,32.06 C45.0016614,33.1282183 44.1382127,33.9961409 43.07,34 Z" id="Shape" fill="#000000"/><path d="M40,29.955 C39.4477153,29.955 39,29.5072847 39,28.955 L39,27.091 C39,26.5387153 39.4477153,26.091 40,26.091 C40.5522847,26.091 41,26.5387153 41,27.091 L41,28.955 C41,29.5072847 40.5522847,29.955 40,29.955 Z" id="Shape" fill="#000000"/><path d="M36,7 L28,7 C27.4477153,7 27,6.55228475 27,6 C27,5.44771525 27.4477153,5 28,5 L36,5 C36.5522847,5 37,5.44771525 37,6 C37,6.55228475 36.5522847,7 36,7 Z" id="Shape" fill="#000000"/><path d="M36,12 L28,12 C27.4477153,12 27,11.5522847 27,11 C27,10.4477153 27.4477153,10 28,10 L36,10 C36.5522847,10 37,10.4477153 37,11 C37,11.5522847 36.5522847,12 36,12 Z" id="Shape" fill="#000000"/><path d="M36,17 L28,17 C27.4477153,17 27,16.5522847 27,16 C27,15.4477153 27.4477153,15 28,15 L36,15 C36.5522847,15 37,15.4477153 37,16 C37,16.5522847 36.5522847,17 36,17 Z" id="Shape" fill="#000000"/><path d="M40,28 C39.4477153,28 39,27.5522847 39,27 L39,4.727 C38.9565043,2.1650349 40.9941711,0.0508885118 43.556,0 L55.111,0 C56.1655819,0.0131787015 57.0105573,0.87738862 57,1.932 L57,21.5 C57,22.0522847 56.5522847,22.5 56,22.5 C55.4477153,22.5 55,22.0522847 55,21.5 L55,2 L43.556,2 C42.0983981,2.0499965 40.9556314,3.26921591 41,4.727 L41,27 C41,27.5522847 40.5522847,28 40,28 Z" id="Shape" fill="#000000"/><path d="M55.111,27 L40,27 C39.4477153,27 39,26.5522847 39,26 L39,25 C38.8868021,22.3645877 40.9214456,20.1316604 43.556,20 L56,20 C56.5522847,20 57,20.4477153 57,21 L57,25 C57.028588,26.0731299 56.1840135,26.9673327 55.111,27 Z M41,25 L54.991,25 L55,22 L43.556,22 C42.0274477,22.1336993 40.8892485,23.4696139 41,25 Z" id="Shape" fill="#000000"/><path d="M52,7 L44,7 C43.4477153,7 43,6.55228475 43,6 C43,5.44771525 43.4477153,5 44,5 L52,5 C52.5522847,5 53,5.44771525 53,6 C53,6.55228475 52.5522847,7 52,7 Z" id="Shape" fill="#000000"/><path d="M52,12 L44,12 C43.4477153,12 43,11.5522847 43,11 C43,10.4477153 43.4477153,10 44,10 L52,10 C52.5522847,10 53,10.4477153 53,11 C53,11.5522847 52.5522847,12 52,12 Z" id="Shape" fill="#000000"/><path d="M52,17 L44,17 C43.4477153,17 43,16.5522847 43,16 C43,15.4477153 43.4477153,15 44,15 L52,15 C52.5522847,15 53,15.4477153 53,16 C53,16.5522847 52.5522847,17 52,17 Z" id="Shape" fill="#000000"/></g></g></svg>
