<?xml version="1.0" encoding="UTF-8"?>
<svg xmlns="http://www.w3.org/2000/svg" xmlns:xlink="http://www.w3.org/1999/xlink" width="512" height="512" viewBox="0 0 59 61" version="1.1"><!-- Generator: Sketch 51.3 (57544) - http://www.bohemiancoding.com/sketch --><title>015 - Brain</title><desc>Created with Sketch.</desc><defs/><g id="Page-1" stroke="none" stroke-width="1" fill="none" fill-rule="evenodd"><g id="015---Brain" transform="translate(-1.000000, -1.000000)" fill-rule="nonzero"><path d="M47.13,38.71 C45.8503538,41.6319437 45.3706323,44.8415908 45.74,48.01 C45.9651005,50.0721875 46.3733794,52.1102353 46.96,54.1 C47.2766015,55.1331686 47.6745116,56.1396471 48.15,57.11 C48.7438098,58.0143772 49.2782676,58.956359 49.75,59.93 L24.65,60 L24.65,59.99 C24.57,59.69 23.06,53.81 19.72,52.3 C19.1,52.51 18.45,52.74 17.78,52.97 C15.5555599,53.740597 13.2924947,54.3948165 11,54.93 C10.3693821,55.0806865 9.70512584,54.9878335 9.14,54.67 L9.13,54.67 C8.4939137,54.2687189 8.01949017,53.6562169 7.79,52.94 C7.52484783,52.2284319 7.42566071,51.4657172 7.5,50.71 C7.73858566,49.940746 7.82020035,49.1314004 7.74,48.33 C7.48,47.32 6.51,47.07 5.75,46.53 C5.14,46.09 6.25,44.68 6.25,44.68 C6.25,44.68 5.07,43.81 4.65,43.44 C4.21,43.07 4.82,42.45 5.38,41.28 C5.60694079,40.7719796 5.67323378,40.2067446 5.57,39.66 C5.36,38.59 3.73,38.19 2.93,37.59 C2.56,37.31 1.95,36.89 1.88,36.38 C1.77,35.67 2.61,34.67 3.02,34.17 C4.76454657,31.9217816 6.25996718,29.4908848 7.48,26.92 C7.64010631,26.6486227 7.73589137,26.3441631 7.76,26.03 C7.74,24.6 5.67,24.01 5.47,22.62 C5.44871368,22.2115508 5.52408857,21.8038412 5.69,21.43 C6.26667192,20.2042401 6.76109856,18.9414478 7.17,17.65 C7.41142981,16.464203 7.72874925,15.2951313 8.12,14.15 C8.95859812,11.8496676 10.2508376,9.74127689 11.92,7.95 C14.37,5.36 17.99,4.08 21.41,3.4 C24.4513721,2.73504394 27.5355865,2.28393999 30.64,2.05 C30.74,2.04 30.84,2.04 30.94,2.03 C37.34,1.71 42.4,3.88 47.35,7.77 C50.060125,9.77690355 52.0405511,12.6141097 52.99,15.85 C53.7145851,18.5214574 54.0546722,21.2825609 54,24.05 C53.980834,26.7831121 53.1829958,29.4541358 51.7,31.75 C50.21,34.11 48.25,36.14 47.13,38.71 Z" id="Shape" fill="#FEC108"/><path d="M44.13,38.71 C42.8503538,41.6319437 42.3706323,44.8415908 42.74,48.01 C42.9651005,50.0721875 43.3733794,52.1102353 43.96,54.1 C44.2766015,55.1331686 44.6745116,56.1396471 45.15,57.11 C45.7438098,58.0143772 46.2782676,58.956359 46.75,59.93 L24.65,59.99 C24.57,59.69 23.06,53.81 19.72,52.3 C19.1,52.51 18.45,52.74 17.78,52.97 C17.4604669,52.6972041 17.1035092,52.4715799 16.72,52.3 C14.31,53.14 11.37,54.1 9.14,54.67 L9.13,54.67 C8.4939137,54.2687189 8.01949017,53.6562169 7.79,52.94 C7.52484783,52.2284319 7.42566071,51.4657172 7.5,50.71 C7.73858566,49.940746 7.82020035,49.1314004 7.74,48.33 C7.48,47.32 6.51,47.07 5.75,46.53 C5.14,46.09 6.25,44.68 6.25,44.68 C6.25,44.68 5.07,43.81 4.65,43.44 C4.21,43.07 4.82,42.45 5.38,41.28 C5.60694079,40.7719796 5.67323378,40.2067446 5.57,39.66 C5.36,38.59 3.73,38.19 2.93,37.59 C2.56,37.31 1.95,36.89 1.88,36.38 C1.77,35.67 2.61,34.67 3.02,34.17 C4.76454657,31.9217816 6.25996718,29.4908848 7.48,26.92 C7.64010631,26.6486227 7.73589137,26.3441631 7.76,26.03 C7.74,24.6 5.67,24.01 5.47,22.62 C5.44871368,22.2115508 5.52408857,21.8038412 5.69,21.43 C6.26667192,20.2042401 6.76109856,18.9414478 7.17,17.65 C7.41142981,16.464203 7.72874925,15.2951313 8.12,14.15 C8.95859812,11.8496676 10.2508376,9.74127689 11.92,7.95 C14.37,5.36 17.99,4.08 21.41,3.4 C24.4513721,2.73504394 27.5355865,2.28393999 30.64,2.05 C35.8,2.37 40.12,4.44 44.35,7.77 C47.060125,9.77690355 49.0405511,12.6141097 49.99,15.85 C50.7145851,18.5214574 51.0546722,21.2825609 51,24.05 C50.980834,26.7831121 50.1829958,29.4541358 48.7,31.75 C47.21,34.11 45.25,36.14 44.13,38.71 Z" id="Shape" fill="#FFDC00"/><path d="M30.66,10.28 C30.7429092,10.1983702 30.8333067,10.124713 30.93,10.06 C31.166952,9.87255846 31.4214691,9.70846194 31.69,9.57 C31.82,9.5 31.96,9.44 32.09,9.38 C32.3732823,9.26001706 32.6681725,9.16953939 32.97,9.11 C33.1206015,9.07131725 33.274709,9.0478661 33.43,9.04" id="Shape" fill="#FF5364"/><path d="M30.31,10.63 C30.39,10.54 30.47,10.46 30.56,10.37" id="Shape" fill="#FF5364"/><path d="M29.97,11.04 C29.9076678,11.1193366 29.850867,11.2028671 29.8,11.29" id="Shape" fill="#FF5364"/><path d="M29.02,14.45 C29.01,14.3 29,14.15 29,14" id="Shape" fill="#FF5364"/><path d="M55.34,10.28 C55.2570908,10.1983702 55.1666933,10.124713 55.07,10.06 C54.833048,9.87255846 54.5785309,9.70846194 54.31,9.57 C54.18,9.5 54.04,9.44 53.91,9.38 C53.6267177,9.26001706 53.3318275,9.16953939 53.03,9.11 C52.8793985,9.07131725 52.725291,9.0478661 52.57,9.04" id="Shape" fill="#FF5364"/><path d="M55.44,10.37 C55.53,10.46 55.61,10.54 55.69,10.63" id="Shape" fill="#FF5364"/><path d="M56.2,11.29 C56.149133,11.2028671 56.0923322,11.1193366 56.03,11.04" id="Shape" fill="#FF5364"/><path d="M57,14 C57,14.15 56.99,14.3 56.98,14.45" id="Shape" fill="#FF5364"/><path d="M59,27 C59,30.3137085 56.3137085,33 53,33 L52.9,33 C52.9688868,33.3288153 53.0024107,33.6640549 53,34 C53,36.7614237 50.7614237,39 48,39 C45.2385763,39 43,36.7614237 43,34 C42.9999999,36.7614237 40.7614237,38.9999999 38,38.9999999 C35.2385763,38.9999999 33.0000001,36.7614237 33,34 C32.9975893,33.6640549 33.0311132,33.3288153 33.1,33 L33,33 C29.6862915,33 27,30.3137085 27,27 C27,26.84 27.01,26.68 27.02,26.53 L27.05,26.23 C27.06,26.13 27.08,26.04 27.09,25.95 C27.0939327,25.9151395 27.104094,25.8812685 27.12,25.85 C27.1356663,25.7171032 27.1658464,25.5863229 27.21,25.46 C27.2313603,25.3293951 27.2682901,25.2018195 27.32,25.08 C27.3511027,24.9669654 27.3912317,24.8566107 27.44,24.75 C27.5530995,24.470471 27.6868004,24.1997265 27.84,23.94 C27.8807679,23.8630754 27.9275818,23.7895107 27.98,23.72 C28.024242,23.6460609 28.0744063,23.5758308 28.13,23.51 C28.228789,23.3615434 28.339131,23.2211081 28.46,23.09 C28.57,22.96 28.68,22.84 28.8,22.72 C28.92,22.6 29.05,22.48 29.19,22.37 C29.3198966,22.258005 29.4568445,22.154459 29.6,22.06 C29.61,22.05 29.63,22.04 29.64,22.03 C29.77,21.94 29.9,21.86 30.04,21.78 C30.2900269,21.6366552 30.5508114,21.5129497 30.82,21.41 C30.2861003,20.7202975 29.9975359,19.8721997 30,19 C29.9986333,18.4518165 30.1145609,17.9096842 30.34,17.41 C30.1667079,17.2174871 30.0063569,17.0137078 29.86,16.8 C29.7908552,16.7003429 29.72742,16.5968433 29.67,16.49 C29.6074065,16.3865891 29.5506511,16.2797553 29.5,16.17 C29.3259494,15.8214552 29.1982008,15.4516565 29.12,15.07 C29.09,14.97 29.08,14.87 29.06,14.77 C29.0411344,14.664098 29.0277831,14.5572874 29.02,14.45 C29.01,14.3 29,14.15 29,14 C29.0000253,13.8295598 29.0100425,13.6592677 29.03,13.49 C29.096893,12.8126032 29.3010414,12.1559256 29.63,11.56 C29.69,11.47 29.74,11.38 29.8,11.29 C29.86,11.2 29.91,11.12 29.97,11.04 C30.0748441,10.8965104 30.1883906,10.7595867 30.31,10.63 C30.39,10.54 30.48,10.45 30.56,10.37 C30.59,10.34 30.63,10.31 30.66,10.28 C30.75,10.2 30.84,10.13 30.93,10.06 C31.166952,9.87255846 31.4214691,9.70846194 31.69,9.57 C31.82,9.5 31.96,9.44 32.09,9.38 C32.376485,9.26903071 32.6705762,9.17879819 32.97,9.11 C33.12,9.08 33.27,9.06 33.43,9.04 C33.1477246,8.39686359 33.001333,7.70235465 33,7 C33.0000001,4.23857631 35.2385763,2.00000015 38,2.00000015 C40.7614237,2.00000015 42.9999999,4.23857631 43,7 C43,4.23857625 45.2385763,2 48,2 C50.7614237,2 53,4.23857625 53,7 C52.998667,7.70235465 52.8522754,8.39686359 52.57,9.04 C52.73,9.06 52.88,9.08 53.03,9.11 C53.3294238,9.17879819 53.623515,9.26903071 53.91,9.38 C54.04,9.44 54.18,9.5 54.31,9.57 C54.5785309,9.70846194 54.833048,9.87255846 55.07,10.06 C55.16,10.13 55.25,10.2 55.34,10.28 C55.37,10.31 55.41,10.34 55.44,10.37 C55.52,10.45 55.61,10.54 55.69,10.63 C55.8116094,10.7595867 55.9251559,10.8965104 56.03,11.04 C56.09,11.12 56.15,11.21 56.2,11.29 C56.25,11.37 56.31,11.47 56.37,11.56 C56.6989586,12.1559256 56.903107,12.8126032 56.97,13.49 C56.9899575,13.6592677 56.9999747,13.8295598 57,14 C57,14.15 56.99,14.3 56.98,14.45 C56.9722169,14.5572874 56.9588656,14.664098 56.94,14.77 C56.92,14.87 56.91,14.97 56.88,15.07 C56.8017992,15.4516565 56.6740506,15.8214552 56.5,16.17 C56.4493489,16.2797553 56.3925935,16.3865891 56.33,16.49 C56.27258,16.5968433 56.2091448,16.7003429 56.14,16.8 C55.9936431,17.0137078 55.8332921,17.2174871 55.66,17.41 C55.8854391,17.9096842 56.0013667,18.4518165 56,19 C56.0024641,19.8721997 55.7138997,20.7202975 55.18,21.41 C55.4491886,21.5129497 55.7099731,21.6366552 55.96,21.78 C56.1,21.86 56.23,21.94 56.36,22.03 C56.37,22.04 56.39,22.05 56.4,22.06 C56.5431555,22.154459 56.6801034,22.258005 56.81,22.37 C56.95,22.48 57.07,22.6 57.2,22.72 C57.33,22.84 57.43,22.96 57.54,23.09 C57.660869,23.2211081 57.771211,23.3615434 57.87,23.51 C57.9255937,23.5758308 57.975758,23.6460609 58.02,23.72 C58.0724182,23.7895107 58.1192321,23.8630754 58.16,23.94 C58.3131996,24.1997265 58.4469005,24.470471 58.56,24.75 C58.6087683,24.8566107 58.6488973,24.9669654 58.68,25.08 C58.7204703,25.1765554 58.7506373,25.2771123 58.77,25.38 C58.7843265,25.4048377 58.7944623,25.4318665 58.8,25.46 C58.84,25.59 58.86,25.72 58.89,25.85 C58.9,25.88 58.9,25.91 58.91,25.95 C58.92,26.04 58.94,26.13 58.95,26.23 L58.98,26.53 C58.99,26.68 59,26.84 59,27 Z" id="Shape" fill="#E91E63"/><path d="M59,27 C59,30.3137085 56.3137085,33 53,33 L52.9,33 C52.9688868,33.3288153 53.0024107,33.6640549 53,34 C53,36.7614237 50.7614237,39 48,39 C45.2385763,39 43,36.7614237 43,34 C42.9999999,36.7614237 40.7614237,38.9999999 38,38.9999999 C35.2385763,38.9999999 33.0000001,36.7614237 33,34 C32.9975893,33.6640549 33.0311132,33.3288153 33.1,33 L33,33 C29.6862915,33 27,30.3137085 27,27 C27,26.84 27.01,26.68 27.02,26.53 L27.05,26.23 C27.06,26.13 27.08,26.04 27.09,25.95 C27.0939327,25.9151395 27.104094,25.8812685 27.12,25.85 C27.1356663,25.7171032 27.1658464,25.5863229 27.21,25.46 C27.2313603,25.3293951 27.2682901,25.2018195 27.32,25.08 C27.3511027,24.9669654 27.3912317,24.8566107 27.44,24.75 C27.5530995,24.470471 27.6868004,24.1997265 27.84,23.94 C27.8807679,23.8630754 27.9275818,23.7895107 27.98,23.72 C28.024242,23.6460609 28.0744063,23.5758308 28.13,23.51 C28.228789,23.3615434 28.339131,23.2211081 28.46,23.09 C28.57,22.96 28.68,22.84 28.8,22.72 C28.92,22.6 29.05,22.48 29.19,22.37 C29.3198966,22.258005 29.4568445,22.154459 29.6,22.06 C29.61,22.05 29.63,22.04 29.64,22.03 C29.77,21.94 29.9,21.86 30.04,21.78 C30.2900269,21.6366552 30.5508114,21.5129497 30.82,21.41 C30.2861003,20.7202975 29.9975359,19.8721997 30,19 C29.9986333,18.4518165 30.1145609,17.9096842 30.34,17.41 C30.1667079,17.2174871 30.0063569,17.0137078 29.86,16.8 C29.7908552,16.7003429 29.72742,16.5968433 29.67,16.49 C29.6074065,16.3865891 29.5506511,16.2797553 29.5,16.17 C29.3259494,15.8214552 29.1982008,15.4516565 29.12,15.07 C29.09,14.97 29.08,14.87 29.06,14.77 C29.0411344,14.664098 29.0277831,14.5572874 29.02,14.45 C29.01,14.3 29,14.15 29,14 C29.0000253,13.8295598 29.0100425,13.6592677 29.03,13.49 C29.096893,12.8126032 29.3010414,12.1559256 29.63,11.56 C29.69,11.47 29.74,11.38 29.8,11.29 C29.86,11.2 29.91,11.12 29.97,11.04 C30.0748441,10.8965104 30.1883906,10.7595867 30.31,10.63 C30.39,10.54 30.48,10.45 30.56,10.37 C30.59,10.34 30.63,10.31 30.66,10.28 C30.75,10.2 30.84,10.13 30.93,10.06 C31.166952,9.87255846 31.4214691,9.70846194 31.69,9.57 C31.82,9.5 31.96,9.44 32.09,9.38 C32.376485,9.26903071 32.6705762,9.17879819 32.97,9.11 C33.12,9.08 33.27,9.06 33.43,9.04 C33.1477246,8.39686359 33.001333,7.70235465 33,7 C33.0000001,4.23857631 35.2385763,2.00000015 38,2.00000015 C40.7614237,2.00000015 42.9999999,4.23857631 43,7 C43,4.23857625 45.2385763,2 48,2 C50.7614237,2 53,4.23857625 53,7 C52.998667,7.70235465 52.8522754,8.39686359 52.57,9.04 C52.73,9.06 52.88,9.08 53.03,9.11 C53.3294238,9.17879819 53.623515,9.26903071 53.91,9.38 C54.04,9.44 54.18,9.5 54.31,9.57 C54.5785309,9.70846194 54.833048,9.87255846 55.07,10.06 C55.16,10.13 55.25,10.2 55.34,10.28 C55.37,10.31 55.41,10.34 55.44,10.37 C55.52,10.45 55.61,10.54 55.69,10.63 C55.8116094,10.7595867 55.9251559,10.8965104 56.03,11.04 C56.09,11.12 56.15,11.21 56.2,11.29 C56.25,11.37 56.31,11.47 56.37,11.56 C56.6989586,12.1559256 56.903107,12.8126032 56.97,13.49 C56.9899575,13.6592677 56.9999747,13.8295598 57,14 C57,14.15 56.99,14.3 56.98,14.45 C56.9722169,14.5572874 56.9588656,14.664098 56.94,14.77 C56.92,14.87 56.91,14.97 56.88,15.07 C56.8017992,15.4516565 56.6740506,15.8214552 56.5,16.17 C56.4493489,16.2797553 56.3925935,16.3865891 56.33,16.49 C56.27258,16.5968433 56.2091448,16.7003429 56.14,16.8 C55.9936431,17.0137078 55.8332921,17.2174871 55.66,17.41 C55.8854391,17.9096842 56.0013667,18.4518165 56,19 C56.0024641,19.8721997 55.7138997,20.7202975 55.18,21.41 C55.4491886,21.5129497 55.7099731,21.6366552 55.96,21.78 C56.1,21.86 56.23,21.94 56.36,22.03 C56.37,22.04 56.39,22.05 56.4,22.06 C56.5431555,22.154459 56.6801034,22.258005 56.81,22.37 C56.95,22.48 57.07,22.6 57.2,22.72 C57.33,22.84 57.43,22.96 57.54,23.09 C57.660869,23.2211081 57.771211,23.3615434 57.87,23.51 C57.9255937,23.5758308 57.975758,23.6460609 58.02,23.72 C58.0724182,23.7895107 58.1192321,23.8630754 58.16,23.94 C58.3131996,24.1997265 58.4469005,24.470471 58.56,24.75 C58.6087683,24.8566107 58.6488973,24.9669654 58.68,25.08 C58.7204703,25.1765554 58.7506373,25.2771123 58.77,25.38 C58.7843265,25.4048377 58.7944623,25.4318665 58.8,25.46 C58.84,25.59 58.86,25.72 58.89,25.85 C58.9,25.88 58.9,25.91 58.91,25.95 C58.92,26.04 58.94,26.13 58.95,26.23 L58.98,26.53 C58.99,26.68 59,26.84 59,27 Z" id="Shape" fill="#E91E63"/><path d="M59,27 C59,30.3137085 56.3137085,33 53,33 L52.9,33 C52.9688868,33.3288153 53.0024107,33.6640549 53,34 C53,36.7614237 50.7614237,39 48,39 C47.4920766,38.9984453 46.986978,38.9243642 46.5,38.78 C48.5840873,38.1202229 50.0003376,36.1860297 50,34 C50.0024107,33.6640549 49.9688868,33.3288153 49.9,33 L50,33 C53.3137085,33 56,30.3137085 56,27 C56,26.84 55.99,26.68 55.98,26.53 L55.95,26.23 C55.94,26.13 55.92,26.04 55.91,25.95 C55.9,25.91 55.9,25.88 55.89,25.85 C55.86,25.72 55.84,25.59 55.8,25.46 C55.7944623,25.4318665 55.7843265,25.4048377 55.77,25.38 C55.7506373,25.2771123 55.7204703,25.1765554 55.68,25.08 C55.6488973,24.9669654 55.6087683,24.8566107 55.56,24.75 C55.4469005,24.470471 55.3131996,24.1997265 55.16,23.94 C55.1192321,23.8630754 55.0724182,23.7895107 55.02,23.72 C54.975758,23.6460609 54.9255937,23.5758308 54.87,23.51 C54.771211,23.3615434 54.660869,23.2211081 54.54,23.09 C54.43,22.96 54.32,22.84 54.2,22.72 C54.08,22.6 53.95,22.48 53.81,22.37 C53.6801034,22.258005 53.5431555,22.154459 53.4,22.06 C53.39,22.05 53.37,22.04 53.36,22.03 C53.23,21.94 53.1,21.86 52.96,21.78 C52.7099731,21.6366552 52.4491886,21.5129497 52.18,21.41 C52.7138997,20.7202975 53.0024641,19.8721997 53,19 C53.0013667,18.4518165 52.8854391,17.9096842 52.66,17.41 C52.8332921,17.2174871 52.9936431,17.0137078 53.14,16.8 C53.2091448,16.7003429 53.27258,16.5968433 53.33,16.49 C53.3925935,16.3865891 53.4493489,16.2797553 53.5,16.17 C53.6740506,15.8214552 53.8017992,15.4516565 53.88,15.07 C53.91,14.97 53.92,14.87 53.94,14.77 C53.9588656,14.664098 53.9722169,14.5572874 53.98,14.45 C53.99,14.3 54,14.15 54,14 C53.9999747,13.8295598 53.9899575,13.6592677 53.97,13.49 C53.903107,12.8126032 53.6989586,12.1559256 53.37,11.56 C53.31,11.47 53.26,11.38 53.2,11.29 C53.14,11.2 53.09,11.12 53.03,11.04 C52.9251559,10.8965104 52.8116094,10.7595867 52.69,10.63 C52.61,10.54 52.52,10.45 52.44,10.37 C52.41,10.34 52.37,10.31 52.34,10.28 C52.25,10.2 52.16,10.13 52.07,10.06 C51.833048,9.87255846 51.5785309,9.70846194 51.31,9.57 C51.18,9.5 51.04,9.44 50.91,9.38 C50.623515,9.26903071 50.3294238,9.17879819 50.03,9.11 C49.88,9.08 49.73,9.06 49.57,9.04 C49.8522754,8.39686359 49.998667,7.70235465 50,7 C50.0003376,4.81397034 48.5840873,2.87977714 46.5,2.22 C46.986978,2.07563582 47.4920766,2.00155469 48,2 C50.7614237,2 53,4.23857625 53,7 C52.998667,7.70235465 52.8522754,8.39686359 52.57,9.04 C52.73,9.06 52.88,9.08 53.03,9.11 C53.3294238,9.17879819 53.623515,9.26903071 53.91,9.38 C54.04,9.44 54.18,9.5 54.31,9.57 C54.5785309,9.70846194 54.833048,9.87255846 55.07,10.06 C55.16,10.13 55.25,10.2 55.34,10.28 C55.37,10.31 55.41,10.34 55.44,10.37 C55.52,10.45 55.61,10.54 55.69,10.63 C55.8116094,10.7595867 55.9251559,10.8965104 56.03,11.04 C56.09,11.12 56.15,11.21 56.2,11.29 C56.25,11.37 56.31,11.47 56.37,11.56 C56.6989586,12.1559256 56.903107,12.8126032 56.97,13.49 C56.9899575,13.6592677 56.9999747,13.8295598 57,14 C57,14.15 56.99,14.3 56.98,14.45 C56.9722169,14.5572874 56.9588656,14.664098 56.94,14.77 C56.92,14.87 56.91,14.97 56.88,15.07 C56.8017992,15.4516565 56.6740506,15.8214552 56.5,16.17 C56.4493489,16.2797553 56.3925935,16.3865891 56.33,16.49 C56.27258,16.5968433 56.2091448,16.7003429 56.14,16.8 C55.9936431,17.0137078 55.8332921,17.2174871 55.66,17.41 C55.8854391,17.9096842 56.0013667,18.4518165 56,19 C56.0024641,19.8721997 55.7138997,20.7202975 55.18,21.41 C55.4491886,21.5129497 55.7099731,21.6366552 55.96,21.78 C56.1,21.86 56.23,21.94 56.36,22.03 C56.37,22.04 56.39,22.05 56.4,22.06 C56.5431555,22.154459 56.6801034,22.258005 56.81,22.37 C56.95,22.48 57.07,22.6 57.2,22.72 C57.33,22.84 57.43,22.96 57.54,23.09 C57.660869,23.2211081 57.771211,23.3615434 57.87,23.51 C57.9255937,23.5758308 57.975758,23.6460609 58.02,23.72 C58.0724182,23.7895107 58.1192321,23.8630754 58.16,23.94 C58.3131996,24.1997265 58.4469005,24.470471 58.56,24.75 C58.6087683,24.8566107 58.6488973,24.9669654 58.68,25.08 C58.7204703,25.1765554 58.7506373,25.2771123 58.77,25.38 C58.7843265,25.4048377 58.7944623,25.4318665 58.8,25.46 C58.84,25.59 58.86,25.72 58.89,25.85 C58.9,25.88 58.9,25.91 58.91,25.95 C58.92,26.04 58.94,26.13 58.95,26.23 L58.98,26.53 C58.99,26.68 59,26.84 59,27 Z" id="Shape" fill="#AD1457"/><path d="M52.9,33 C52.1544666,32.9908709 51.417686,32.8380823 50.73,32.55" id="Shape" fill="#FF5364"/><path d="M10.511,56 C8.86133749,55.9693354 7.42609992,54.8626511 6.977,53.275 C6.6618426,52.4141982 6.54959663,51.4922755 6.649,50.581 C6.682,50.318 6.74,50.05 6.798,49.781 C6.91957463,49.3932994 6.95372661,48.9834757 6.898,48.581 C6.817,48.267 6.586,48.111 5.998,47.774 C5.764,47.641 5.527,47.505 5.305,47.349 C4.97992342,47.1169696 4.76529209,46.7608192 4.712,46.365 C4.67385435,45.8622176 4.78741543,45.359553 5.038,44.922 C4.697,44.661 4.324,44.367 4.108,44.172 C3.184,43.416 3.796,42.333 4.163,41.687 C4.297,41.449 4.454,41.174 4.603,40.854 C4.74079442,40.5365542 4.78015866,40.1850629 4.716,39.845 C4.666,39.586 3.941,39.216 3.509,38.995 C3.14677307,38.8238802 2.79926375,38.6232011 2.47,38.395 C1.75415682,37.9904637 1.23094481,37.3151886 1.018,36.521 C0.859,35.492 1.618,34.464 2.341,33.583 C4.05386969,31.3753774 5.5221301,28.9884064 6.72,26.464 C6.79665216,26.3279802 6.85387471,26.1818944 6.89,26.03 C6.89,25.755 6.565,25.439 6.077,24.991 C5.33779367,24.4453722 4.82013234,23.6514828 4.619,22.755 C4.56307696,22.1851159 4.65324528,21.610379 4.881,21.085 C5.062,20.611 5.265,20.156 5.468,19.701 C5.82559624,18.9699027 6.11288832,18.2064692 6.326,17.421 L6.426,16.999 C6.65555464,15.9178276 6.95144756,14.8518115 7.312,13.807 C8.19429313,11.3777039 9.55900834,9.15204797 11.324,7.264 C13.558,4.9 16.836,3.316 21.345,2.419 C24.5307746,1.72073844 27.7634281,1.25682993 31.017,1.031 C32.8032021,0.934152678 34.5946172,1.04286564 36.356,1.355 C36.707728,1.41859327 36.9988114,1.66500051 37.119602,2.00140252 C37.2403926,2.33780452 37.1725394,2.71309381 36.941602,2.98590253 C36.7106646,3.25871126 36.351728,3.38759329 36,3.324 C34.3887825,3.03795017 32.750114,2.93729486 31.116,3.024 C27.9618505,3.24739789 24.8282005,3.70060068 21.74,4.38 C17.704,5.18 14.689,6.615 12.776,8.637 C11.1971652,10.3296077 9.97673014,12.3238693 9.188,14.5 C8.85614522,15.4674021 8.58396707,16.4542566 8.373,17.455 L8.273,17.881 C8.03242184,18.790144 7.70456527,19.6739167 7.294,20.52 C7.106,20.94 6.917,21.36 6.754,21.788 C6.65950369,22.0048357 6.60691104,22.2376006 6.599,22.474 C6.643,22.798 7.025,23.148 7.429,23.519 C8.25493667,24.1015488 8.78786015,25.0134644 8.89,26.019 C8.86993297,26.4934145 8.73617951,26.9560643 8.5,27.368 C7.24784001,30.0034832 5.71353526,32.4953873 3.924,34.8 C3.162,35.731 3,36.1 3,36.249 C3.18487589,36.4288287 3.3857006,36.5914967 3.6,36.735 C3.8610164,36.9170713 4.13661917,37.0772821 4.424,37.214 C5.277,37.65 6.446,38.248 6.686,39.468 C6.82918406,40.2237094 6.73595159,41.0051861 6.419,41.706 C6.245,42.076 6.065,42.396 5.908,42.672 C5.859,42.758 5.808,42.854 5.757,42.941 C6.172,43.275 6.738,43.699 6.978,43.875 C7.19568419,44.0363089 7.33859797,44.2790429 7.37403559,44.5476525 C7.40947321,44.8162621 7.33440129,45.087755 7.166,45.3 C7.01761396,45.493007 6.88833948,45.6999801 6.78,45.918 C6.849,45.958 6.918,45.998 6.988,46.037 C7.87254397,46.4174365 8.54781232,47.1638818 8.838,48.082 C8.98493135,48.7872637 8.95538984,49.5179007 8.752,50.209 C8.706,50.418 8.659,50.627 8.632,50.836 C8.57367075,51.4411271 8.65403967,52.0515889 8.867,52.621 C9.08700586,53.5434005 9.99352073,54.1296839 10.925,53.952 C13.8392719,53.2514045 16.7107073,52.3832961 19.525,51.352 C19.862616,51.2348169 20.2371025,51.3066512 20.507394,51.5404437 C20.7776856,51.7742361 20.9027185,52.1344681 20.835394,52.4854437 C20.7680696,52.8364192 20.518616,53.1248169 20.181,53.242 C17.2866763,54.3026468 14.3325972,55.1925101 11.334,55.907 C11.063591,55.9661968 10.7878001,55.9973615 10.511,56 Z M5.411,42.66 L5.442,42.688 L5.411,42.66 Z" id="Shape" fill="#000000"/><path d="M24.78,61 C24.3194886,60.9998779 23.9186017,60.6852787 23.809,60.238 C23.42,58.657 21.879,54.314 19.438,53.211 C19.0639436,53.0419148 18.8312137,52.6614066 18.8510746,52.25139 C18.8709354,51.8413735 19.1393525,51.4851405 19.528,51.353 C20.572,50.999 21.517,50.668 22.261,50.408 C22.952,50.167 23.473,49.985 23.744,49.898 C27.902,48.583 28.744,47.082 28.721,46.053 C28.714833,45.7874245 28.8145893,45.530309 28.9982574,45.3383861 C29.1819255,45.1464632 29.43441,45.035507 29.7,45.03 C29.9665862,45.0182903 30.22642,45.1157951 30.4194896,45.2999945 C30.6125593,45.4841938 30.7221679,45.7391581 30.723,46.006 C30.781,48.498 28.639,50.449 24.354,51.806 C24.096,51.889 23.592,52.065 22.923,52.298 L22.023,52.614 C23.6713886,54.4428529 24.8738065,56.6286317 25.536,59 L48.218,58.937 L48.151,58.837 C47.8630969,58.4195592 47.6041562,57.9828684 47.376,57.53 C46.879054,56.5216399 46.4640482,55.4749292 46.135,54.4 C45.5282684,52.3530291 45.1072324,50.2555471 44.877,48.133 C44.4948177,44.8721861 44.9672825,41.5680339 46.248,38.545 C46.4622865,38.0357935 47.0487935,37.7967136 47.558,38.0110001 C48.0672065,38.2252865 48.3062864,38.8117935 48.092,39.321 C46.9453413,42.02325 46.5217895,44.9774286 46.863,47.893 C47.0784089,49.8965958 47.4743508,51.8766402 48.046,53.809 C48.3444759,54.7867332 48.7220564,55.7385437 49.175,56.655 C49.3660492,57.0298282 49.5822082,57.3913183 49.822,57.737 C50.2467748,58.3198965 50.587758,58.9594505 50.835,59.637 C50.9304293,59.9404437 50.8757998,60.2711879 50.6878608,60.5278273 C50.4999218,60.7844667 50.201095,60.9363833 49.883,60.937 L24.783,61.007 L24.78,61 Z" id="Shape" fill="#000000"/><path d="M11.194,19.567 C10.8888508,19.5670321 10.6003862,19.4277344 10.4106651,19.1887325 C10.2209439,18.9497305 10.1507311,18.6371832 10.22,18.34 L10.32,17.907 C10.5131488,16.9905545 10.7602456,16.086314 11.06,15.199 C11.7556722,13.274706 12.8328806,11.5107644 14.227,10.013 C15.7595511,8.5356103 17.6468677,7.47795529 19.707,6.942 C20.0487245,6.83767844 20.4201459,6.92358921 20.6813533,7.16737057 C20.9425607,7.41115192 21.0538705,7.77576767 20.9733533,8.12387058 C20.8928362,8.47197349 20.6327245,8.75067845 20.291,8.855 C18.56399,9.29262258 16.9772482,10.1637817 15.681,11.386 C14.4731212,12.6862822 13.5398535,14.2167868 12.937,15.886 C12.6666327,16.6961058 12.4432611,17.5211451 12.268,18.357 L12.168,18.79 C12.064068,19.2443274 11.6600634,19.5666185 11.194,19.567 Z" id="Shape" fill="#000000"/><circle id="Oval" fill="#000000" cx="10" cy="22" r="1"/><path d="M48,40 C45.988265,39.9991944 44.110813,38.9902516 43,37.313 C41.5374222,39.5179206 38.8031745,40.5045039 36.2696836,39.7414625 C33.7361927,38.9784211 32.0015977,36.6459036 32,34 L32,33.929 C29.066286,33.5045641 26.7179762,31.2783 26.1377175,28.3713904 C25.5574588,25.4644807 26.8710719,22.507247 29.417,20.989 C29.1425684,20.3617727 29.0006046,19.684636 29,19 C28.998787,18.5284265 29.0661587,18.059183 29.2,17.607 C28.0375819,16.0581517 27.6941799,14.0434872 28.2778614,12.1970142 C28.8615429,10.3505411 30.3005379,8.89930328 32.142,8.3 C31.5178419,5.47801879 32.9942136,2.61208924 35.6542828,1.48196405 C38.314352,0.351838851 41.4020899,1.27871541 43,3.687 C44.5979101,1.27871541 47.685648,0.351838851 50.3457172,1.48196405 C53.0057864,2.61208924 54.4821581,5.47801879 53.858,8.3 C55.6994578,8.89966026 57.1382479,10.3512751 57.7215437,12.1979817 C58.3048395,14.0446883 57.9609103,16.0593881 56.798,17.608 C56.932897,18.0596573 57.0009518,18.528629 57,19 C56.9993954,19.684636 56.8574316,20.3617727 56.583,20.989 C59.1289281,22.507247 60.4425412,25.4644807 59.8622825,28.3713904 C59.2820238,31.2783 56.933714,33.5045641 54,33.929 L54,34 C53.9966926,37.3123376 51.3123376,39.9966926 48,40 Z M44,34 C44,36.209139 45.790861,38 48,38 C50.209139,38 52,36.209139 52,34 C52.002287,33.7353488 51.9764758,33.4712023 51.923,33.212 C51.8588937,32.9164854 51.9319496,32.6078333 52.121725,32.3724107 C52.3115004,32.1369882 52.597612,32.0000815 52.9,32 C55.3239573,32.0490718 57.4338421,30.3520951 57.9056226,27.9739866 C58.3774031,25.5958781 57.0751179,23.221979 54.816,22.342 C54.5230837,22.2269853 54.3013934,21.9807989 54.2175954,21.6774737 C54.1337973,21.3741484 54.1976679,21.0490716 54.39,20.8 C55.0469324,19.9486889 55.1843725,18.8057868 54.748,17.823 C54.5834566,17.4560235 54.6547684,17.0261824 54.929,16.732 C55.9540412,15.6273387 56.2712372,14.0403277 55.7495619,12.6265241 C55.2278865,11.2127204 53.9558883,10.2121017 52.459,10.038 C52.1437055,10.0026905 51.8638724,9.81985858 51.7048953,9.54529767 C51.5459183,9.27073676 51.5266609,8.93702551 51.653,8.646 C51.8815784,8.12733928 51.9997489,7.56679533 52,7 C52,4.790861 50.209139,3 48,3 C45.790861,3 44,4.790861 44,7 C44,7.55228475 43.5522847,8 43,8 C42.4477153,8 42,7.55228475 42,7 C42,4.790861 40.209139,3 38,3 C35.790861,3 34,4.790861 34,7 C34.0013481,7.5650676 34.1194864,8.12375655 34.347,8.641 C34.473597,8.93122547 34.4552638,9.26425943 34.2975749,9.5388352 C34.139886,9.81341096 33.8614753,9.99708242 33.547,10.034 C32.0499353,10.2077775 30.7776265,11.2082712 30.2557176,12.6221356 C29.7338086,14.0359999 30.0509046,15.6232011 31.076,16.728 C31.3502316,17.0221824 31.4215434,17.4520235 31.257,17.819 C30.817836,18.8020222 30.9533891,19.9467358 31.61,20.8 C31.8035311,21.0493165 31.868004,21.3753648 31.7839277,21.6795755 C31.6998513,21.9837862 31.4770945,22.2304512 31.183,22.345 C28.9469471,23.2216849 27.6501376,25.5643986 28.0943359,27.9247369 C28.5385342,30.2850752 30.5982311,31.9961191 33,32 L33.1,32 C33.4026054,32.0000158 33.6889283,32.1370562 33.8787453,32.3727245 C34.0685622,32.6083929 34.141455,32.9173387 34.077,33.213 C34.02352,33.4718639 33.9977084,33.7356794 34,34 C34,36.209139 35.790861,38 38,38 C40.209139,38 42,36.209139 42,34 C42,33.4477153 42.4477153,33 43,33 C43.5522847,33 44,33.4477153 44,34 Z" id="Shape" fill="#000000"/><path d="M43,35 C42.4477153,35 42,34.5522847 42,34 L42,17 C42,16.4477153 42.4477153,16 43,16 C43.5522847,16 44,16.4477153 44,17 L44,34 C44,34.5522847 43.5522847,35 43,35 Z" id="Shape" fill="#000000"/><path d="M43,13 C42.4477153,13 42,12.5522847 42,12 L42,6 C42,5.44771525 42.4477153,5 43,5 C43.5522847,5 44,5.44771525 44,6 L44,12 C44,12.5522847 43.5522847,13 43,13 Z" id="Shape" fill="#000000"/><path d="M32.079,19.618 C31.947176,19.6178944 31.8166736,19.591726 31.695,19.541 C28.7060364,18.3182271 27.2210849,14.9490396 28.3351496,11.9178787 C29.4492144,8.88671777 32.7625939,7.28109601 35.832,8.285 C36.1926081,8.37685189 36.4723888,8.66134132 36.5582099,9.02343211 C36.644031,9.38552289 36.5216964,9.76531983 36.2406734,10.0092482 C35.9596503,10.2531765 35.5664242,10.3208869 35.22,10.185 C33.1837389,9.54616206 31.0045785,10.6184022 30.2682496,12.6214732 C29.5319208,14.6245441 30.4977839,16.8528949 32.463,17.685 C32.9041524,17.8675668 33.1547156,18.3365225 33.0612697,18.8047253 C32.9678238,19.2729282 32.5564364,19.609769 32.079,19.609 L32.079,19.618 Z" id="Shape" fill="#000000"/><path d="M33,34 C29.1358343,33.9955914 26.0044086,30.8641657 26,27 C26,26.817 26.011,26.634 26.022,26.462 L26.055,26.133 C26.062,26.055 26.073,25.985 26.084,25.918 C26.084,25.871 26.109,25.748 26.121,25.702 C26.127888,25.6627837 26.1372399,25.6240403 26.149,25.586 C26.1696538,25.4572091 26.2000749,25.3301759 26.24,25.206 C26.2711782,25.0520961 26.3156791,24.9011944 26.373,24.755 C26.415282,24.6122304 26.4674069,24.4725625 26.529,24.337 C26.6541162,24.0262433 26.8025389,23.7253866 26.973,23.437 C27.0793111,23.253119 27.1975648,23.0764066 27.327,22.908 C27.4480387,22.7318589 27.5817245,22.5647517 27.727,22.408 C27.827,22.288 27.955,22.148 28.095,22.008 L28.214,21.895 C28.331,21.786 28.446,21.679 28.575,21.578 C28.7187779,21.4551706 28.8697092,21.3409703 29.027,21.236 C29.041,21.225 29.056,21.214 29.07,21.205 C29.224,21.098 29.377,21.005 29.543,20.905 C29.8408151,20.733853 30.1518002,20.5867202 30.473,20.465 C30.8101763,20.3325263 31.1926322,20.3927676 31.4727609,20.622474 C31.7528897,20.8521804 31.8868804,21.2154268 31.8230201,21.5720204 C31.7591598,21.9286141 31.507436,22.2227851 31.165,22.341 C30.9448054,22.4241385 30.7314825,22.5244471 30.527,22.641 C30.427,22.698 30.327,22.76 30.227,22.83 L30.219,22.836 C30.195,22.855 30.169,22.873 30.143,22.89 C30.0382395,22.9602491 29.9380384,23.0370699 29.843,23.12 C29.733,23.208 29.662,23.276 29.589,23.345 L29.489,23.445 C29.418,23.516 29.326,23.616 29.235,23.725 C29.138698,23.8274759 29.0507506,23.9374937 28.972,24.054 C28.9517031,24.0848925 28.9296676,24.1146071 28.906,24.143 C28.8333396,24.2375981 28.7684608,24.3379262 28.712,24.443 C28.5854892,24.6567759 28.4751802,24.8797338 28.382,25.11 C28.347095,25.1843011 28.3180077,25.2611986 28.295,25.34 C28.2837726,25.3796885 28.27042,25.4187449 28.255,25.457 C28.2341651,25.5047984 28.2187361,25.5547751 28.209,25.606 C28.1985599,25.6764292 28.1804523,25.7455061 28.155,25.812 C28.1388418,25.8721079 28.1268137,25.9332506 28.119,25.995 C28.1109525,26.0493258 28.0982389,26.1028571 28.081,26.155 L28.026,26.621 C28.02,26.721 28.011,26.857 28.011,26.994 C28.0143061,29.7540532 30.2509468,31.9906939 33.011,31.994 L33.111,31.994 C33.7241106,31.9854619 34.3298274,31.8588182 34.895,31.621 C35.4044827,31.4078181 35.9903181,31.6480173 36.2035,32.1575 C36.4166819,32.6669827 36.1764827,33.2528181 35.667,33.466 C34.8584231,33.808169 33.9909334,33.9895471 33.113,34 L33,34 Z" id="Shape" fill="#000000"/><path d="M53.921,19.618 C53.4433746,19.6192494 53.0315403,19.28256 52.9378231,18.8142176 C52.844106,18.3458751 53.094671,17.876637 53.536,17.694 C55.5012161,16.8618949 56.4670792,14.6335441 55.7307504,12.6304732 C54.9944215,10.6274022 52.8152611,9.55516206 50.779,10.194 C50.4323014,10.3307714 50.03831,10.2633895 49.7567693,10.0191741 C49.4752286,9.77495869 49.3528612,9.39443824 49.4392809,9.03189451 C49.5257007,8.66935079 49.8065659,8.38494912 50.168,8.294 C53.2382978,7.28680037 56.5547782,8.89195568 57.6697266,11.9247876 C58.7846749,14.9576196 57.2975861,18.3286926 54.306,19.55 C54.1833483,19.5976254 54.0525453,19.6207283 53.921,19.618 Z" id="Shape" fill="#000000"/><path d="M53,34 L52.888,34 C52.0141626,33.9901258 51.1505403,33.810813 50.345,33.472 C50.0083828,33.3390141 49.7698961,33.0345183 49.7214354,32.675843 C49.6729746,32.3171678 49.8221043,31.960301 50.1113608,31.7427531 C50.4006173,31.5252052 50.7848485,31.4809346 51.116,31.627 C51.6862467,31.8665225 52.2975293,31.9931938 52.916,32 C54.2545831,32.0157339 55.5441129,31.4967016 56.4985515,30.5580327 C57.45299,29.6193638 57.9934324,28.3386595 58,27 C58,26.862 57.991,26.724 57.982,26.595 L57.926,26.126 L57.919,26.092 L57.919,26.07 L57.889,25.929 C57.877,25.871 57.867,25.812 57.849,25.754 C57.828047,25.6569532 57.7996292,25.5616697 57.764,25.469 C57.7454319,25.4266417 57.7303811,25.3828271 57.719,25.338 C57.7027048,25.280023 57.6816326,25.2234962 57.656,25.169 C57.5550479,24.9167533 57.4353811,24.6724059 57.298,24.438 C57.2434248,24.3390798 57.1808848,24.2447681 57.111,24.156 C57.088,24.127 57.066,24.098 57.045,24.067 C56.9748079,23.9608818 56.896223,23.8605606 56.81,23.767 C56.691,23.628 56.6,23.528 56.499,23.428 L56.429,23.362 C56.354,23.292 56.281,23.222 56.199,23.162 C56.0927428,23.0695036 55.9808622,22.9836728 55.864,22.905 C55.84,22.889 55.817,22.873 55.793,22.855 L55.78,22.845 C55.68,22.775 55.58,22.713 55.468,22.651 C55.2665848,22.5345461 55.0562602,22.4342322 54.839,22.351 C54.5037062,22.2275647 54.2597339,21.9346288 54.1989851,21.5825382 C54.1382363,21.2304477 54.2699402,20.8726935 54.5444851,20.6440382 C54.8190301,20.4153829 55.1947062,20.3505647 55.53,20.474 C55.8482948,20.5945275 56.1565846,20.7399788 56.452,20.909 C56.627,21.009 56.781,21.109 56.935,21.209 C56.949,21.219 56.965,21.23 56.98,21.242 C57.1480192,21.3543633 57.3089881,21.4769268 57.462,21.609 C57.5796202,21.7032758 57.6924291,21.803402 57.8,21.909 L57.884,21.988 C58.051,22.153 58.184,22.288 58.307,22.444 C58.4412045,22.5910887 58.5648459,22.7474783 58.677,22.912 C58.8037292,23.0760787 58.9193214,23.2484649 59.023,23.428 C59.2045502,23.7356681 59.3626643,24.0565762 59.496,24.388 C59.5508648,24.5076178 59.5963355,24.6313248 59.632,24.758 C59.6928265,24.9130208 59.7416372,25.0724913 59.778,25.235 C59.8071776,25.3319247 59.8308817,25.4304135 59.849,25.53 L59.87,25.63 C59.881,25.674 59.891,25.719 59.896,25.75 L59.921,25.914 C59.933,25.984 59.944,26.057 59.951,26.133 L59.981,26.422 C59.995,26.636 60.006,26.822 60.006,27 C60.0015863,30.8665062 56.8665086,33.9988991 53,34 Z" id="Shape" fill="#000000"/></g></g></svg>
