<?xml version="1.0" encoding="UTF-8"?>
<svg xmlns="http://www.w3.org/2000/svg" xmlns:xlink="http://www.w3.org/1999/xlink" width="512" height="512" viewBox="0 0 59 61" version="1.1"><!-- Generator: Sketch 51.3 (57544) - http://www.bohemiancoding.com/sketch --><title>016 - Inner Dialogue</title><desc>Created with Sketch.</desc><defs/><g id="Page-1" stroke="none" stroke-width="1" fill="none" fill-rule="evenodd"><g id="016---Inner-Dialogue" transform="translate(-1.000000, 0.000000)" fill-rule="nonzero"><path d="M47.13,37.71 C45.8503538,40.6319437 45.3706323,43.8415908 45.74,47.01 C45.9651005,49.0721875 46.3733794,51.1102353 46.96,53.1 C47.2766015,54.1331686 47.6745116,55.1396471 48.15,56.11 C48.7438098,57.0143772 49.2782676,57.956359 49.75,58.93 L24.65,59 L24.65,58.99 C24.57,58.69 23.06,52.81 19.72,51.3 C19.1,51.51 18.45,51.74 17.78,51.97 C15.5555599,52.740597 13.2924947,53.3948165 11,53.93 C10.3693821,54.0806865 9.70512584,53.9878335 9.14,53.67 L9.13,53.67 C8.4939137,53.2687189 8.01949017,52.6562169 7.79,51.94 C7.52484783,51.2284319 7.42566071,50.4657172 7.5,49.71 C7.73858566,48.940746 7.82020035,48.1314004 7.74,47.33 C7.48,46.32 6.51,46.07 5.75,45.53 C5.14,45.09 6.25,43.68 6.25,43.68 C6.25,43.68 5.07,42.81 4.65,42.44 C4.21,42.07 4.82,41.45 5.38,40.28 C5.60694079,39.7719796 5.67323378,39.2067446 5.57,38.66 C5.36,37.59 3.73,37.19 2.93,36.59 C2.56,36.31 1.95,35.89 1.88,35.38 C1.77,34.67 2.61,33.67 3.02,33.17 C4.76454657,30.9217816 6.25996718,28.4908848 7.48,25.92 C7.64010631,25.6486227 7.73589137,25.3441631 7.76,25.03 C7.74,23.6 5.67,23.01 5.47,21.62 C5.44871368,21.2115508 5.52408857,20.8038412 5.69,20.43 C6.26667192,19.2042401 6.76109856,17.9414478 7.17,16.65 C7.41142981,15.464203 7.72874925,14.2951313 8.12,13.15 C8.95859812,10.8496676 10.2508376,8.74127689 11.92,6.95 C14.37,4.36 17.99,3.08 21.41,2.4 C24.4513721,1.73504394 27.5355865,1.28393999 30.64,1.05 C30.74,1.04 30.84,1.04 30.94,1.03 C37.34,0.71 42.4,2.88 47.35,6.77 C50.060125,8.77690355 52.0405511,11.6141097 52.99,14.85 C53.7145851,17.5214574 54.0546722,20.2825609 54,23.05 C53.980834,25.7831121 53.1829958,28.4541358 51.7,30.75 C50.21,33.11 48.25,35.14 47.13,37.71 Z" id="Shape" fill="#FEC108"/><path d="M44.13,37.71 C42.8503538,40.6319437 42.3706323,43.8415908 42.74,47.01 C42.9651005,49.0721875 43.3733794,51.1102353 43.96,53.1 C44.2766015,54.1331686 44.6745116,55.1396471 45.15,56.11 C45.7438098,57.0143772 46.2782676,57.956359 46.75,58.93 L24.65,58.99 C24.57,58.69 23.06,52.81 19.72,51.3 C19.1,51.51 18.45,51.74 17.78,51.97 C17.4604669,51.6972041 17.1035092,51.4715799 16.72,51.3 C14.31,52.14 11.37,53.1 9.14,53.67 L9.13,53.67 C8.4939137,53.2687189 8.01949017,52.6562169 7.79,51.94 C7.52484783,51.2284319 7.42566071,50.4657172 7.5,49.71 C7.73858566,48.940746 7.82020035,48.1314004 7.74,47.33 C7.48,46.32 6.51,46.07 5.75,45.53 C5.14,45.09 6.25,43.68 6.25,43.68 C6.25,43.68 5.07,42.81 4.65,42.44 C4.21,42.07 4.82,41.45 5.38,40.28 C5.60694079,39.7719796 5.67323378,39.2067446 5.57,38.66 C5.36,37.59 3.73,37.19 2.93,36.59 C2.56,36.31 1.95,35.89 1.88,35.38 C1.77,34.67 2.61,33.67 3.02,33.17 C4.76454657,30.9217816 6.25996718,28.4908848 7.48,25.92 C7.64010631,25.6486227 7.73589137,25.3441631 7.76,25.03 C7.74,23.6 5.67,23.01 5.47,21.62 C5.44871368,21.2115508 5.52408857,20.8038412 5.69,20.43 C6.26667192,19.2042401 6.76109856,17.9414478 7.17,16.65 C7.41142981,15.464203 7.72874925,14.2951313 8.12,13.15 C8.95859812,10.8496676 10.2508376,8.74127689 11.92,6.95 C14.37,4.36 17.99,3.08 21.41,2.4 C24.4513721,1.73504394 27.5355865,1.28393999 30.64,1.05 C35.8,1.37 40.12,3.44 44.35,6.77 C47.060125,8.77690355 49.0405511,11.6141097 49.99,14.85 C50.7145851,17.5214574 51.0546722,20.2825609 51,23.05 C50.980834,25.7831121 50.1829958,28.4541358 48.7,30.75 C47.21,33.11 45.25,35.14 44.13,37.71 Z" id="Shape" fill="#FFDC00"/><path d="M43,21 L43,28.53 C43.0000187,29.3379693 42.3479506,29.9945036 41.54,30 L40,30 L40,34 L34.96,30 L24.46,30 C23.6520494,29.9945036 22.9999813,29.3379693 23,28.53 L23,17.46 C23.0043725,16.6554824 23.6554824,16.0043725 24.46,16 L31,16 L31,19 C31.0032948,20.1032019 31.8967981,20.9967052 33,21 L43,21 Z" id="Shape" fill="#3F51B5"/><path d="M43,21 L43,28.53 C43.0000187,29.3379693 42.3479506,29.9945036 41.54,30 L40,30 L40,34 L37,31.62 L37,30 L38.54,30 C39.3479506,29.9945036 40.0000187,29.3379693 40,28.53 L40,21 L43,21 Z" id="Shape" fill="#283593"/><path d="M59,3 L59,19 C58.9967052,20.1032019 58.1032019,20.9967052 57,21 L55,21 L55,27 L52,24.43 L48,21 L33,21 C31.8967981,20.9967052 31.0032948,20.1032019 31,19 L31,3 C31.0032948,1.89679813 31.8967981,1.0032948 33,1 L57,1 C58.1032019,1.0032948 58.9967052,1.89679813 59,3 Z" id="Shape" fill="#0377BC"/><path d="M56,3 L56,19 C56.0001199,19.6650331 55.6704811,20.2868517 55.12,20.66 C55.0443793,20.7109713 54.964005,20.7545074 54.88,20.79 C54.6061398,20.9251436 54.3053747,20.9969171 54,21 L52,21 L52,24.43 L48,21 L33,21 C31.8967981,20.9967052 31.0032948,20.1032019 31,19 L31,3 C31.0032948,1.89679813 31.8967981,1.0032948 33,1 L54,1 C55.1032019,1.0032948 55.9967052,1.89679813 56,3 Z" id="Shape" fill="#02A9F4"/><circle id="Oval" fill="#3F51B5" cx="37" cy="11" r="2"/><circle id="Oval" fill="#3F51B5" cx="45" cy="11" r="2"/><circle id="Oval" fill="#3F51B5" cx="53" cy="11" r="2"/><path d="M10.511,55 C8.86145152,54.9690108 7.4263849,53.8624583 6.977,52.275 C6.66129272,51.4143284 6.54869822,50.4923539 6.648,49.581 C6.682,49.318 6.739,49.05 6.798,48.781 C6.91941128,48.3932674 6.95356021,47.9834802 6.898,47.581 C6.817,47.267 6.586,47.11 5.998,46.774 C5.765,46.641 5.528,46.505 5.306,46.349 C4.98074391,46.1171358 4.76606133,45.7609003 4.713,45.365 C4.67448978,44.8623148 4.78770505,44.359639 5.038,43.922 C4.698,43.661 4.325,43.367 4.109,43.172 C3.185,42.417 3.798,41.333 4.164,40.686 C4.299,40.449 4.455,40.174 4.604,39.854 C4.7416535,39.5365296 4.78135002,39.1851805 4.718,38.845 C4.667,38.586 3.942,38.216 3.51,37.995 C3.14797678,37.8240989 2.80078202,37.6234083 2.472,37.395 C1.75470729,36.9902386 1.23115797,36.313086 1.02,35.517 C0.86,34.487 1.62,33.458 2.345,32.575 C4.05560327,30.369443 5.52247783,27.985227 6.72,25.464 C6.79697882,25.3281355 6.85421996,25.1820023 6.89,25.03 C6.89,24.755 6.565,24.439 6.076,23.991 C5.3374331,23.4449531 4.82021123,22.6511932 4.619,21.755 C4.56192334,21.1842424 4.65284498,20.6084053 4.883,20.083 C5.062,19.611 5.266,19.155 5.47,18.699 C5.82566937,17.9679886 6.11224857,17.2053397 6.326,16.421 L6.426,15.999 C6.65602311,14.9179422 6.95190812,13.8519547 7.312,12.807 C8.19404573,10.3778111 9.55841114,8.15217091 11.323,6.264 C13.559,3.9 16.836,2.316 21.345,1.419 C24.5310865,0.720598351 27.7640828,0.25668862 31.018,0.031 C31.682,-2.91433544e-16 32.274,-0.01 32.835,0.01 C33.3872847,0.0169035594 33.8294036,0.47021525 33.8225,1.0225 C33.8155964,1.57478475 33.3622847,2.01690356 32.81,2.01 C32.261,1.992 31.725,1.999 31.121,2.028 C27.9652696,2.24981727 24.8299393,2.70168451 21.74,3.38 C17.704,4.18 14.689,5.615 12.776,7.637 C11.1965696,9.32915494 9.97605599,11.323545 9.188,13.5 C8.85614522,14.4674021 8.58396707,15.4542566 8.373,16.455 L8.273,16.881 C8.03405513,17.788547 7.70821606,18.6709581 7.3,19.516 C7.111,19.937 6.923,20.357 6.76,20.786 C6.66364086,21.0015614 6.61063423,21.2339751 6.604,21.47 C6.649,21.796 7.03,22.146 7.434,22.517 C8.25904392,23.1003679 8.79170832,24.0118401 8.895,25.017 C8.87635428,25.4916102 8.74434083,25.9548574 8.51,26.368 C7.2548892,29.0038306 5.71756418,31.4957388 3.925,33.8 C3.163,34.727 3.005,35.1 3,35.247 C3.18518784,35.4261779 3.38598284,35.5884872 3.6,35.732 C3.86136569,35.9140729 4.13730073,36.0742824 4.425,36.211 C5.277,36.647 6.446,37.245 6.686,38.465 C6.82865982,39.2207273 6.73544627,40.0020454 6.419,40.703 C6.244,41.073 6.065,41.393 5.908,41.668 C5.859,41.755 5.808,41.851 5.758,41.938 C6.172,42.272 6.738,42.696 6.978,42.872 C7.19643076,43.0334948 7.33976225,43.2769033 7.37503403,43.5462515 C7.41030582,43.8155997 7.33448237,44.0877071 7.165,44.3 C7.01691908,44.4930204 6.88797779,44.6999963 6.78,44.918 L6.987,45.036 C7.87220583,45.4166291 8.54814599,46.1633751 8.839,47.082 C8.98564963,47.7876772 8.95576498,48.5186489 8.752,49.21 C8.706,49.419 8.658,49.627 8.632,49.837 C8.5729723,50.4418114 8.65336419,51.0521056 8.867,51.621 C9.0847514,52.5454575 9.99364951,53.1329967 10.926,52.952 C13.8403482,52.2516858 16.7117997,51.3835725 19.526,50.352 C20.0479091,50.1705745 20.6180744,50.4465909 20.7995,50.9685 C20.9809255,51.4904091 20.7049091,52.0605744 20.183,52.242 C17.2887222,53.3027843 14.334635,54.19265 11.336,54.907 C11.0649467,54.96639 10.7884727,54.9975562 10.511,55 Z M5.411,41.659 L5.443,41.688 C5.43377066,41.6766361 5.42374541,41.6659425 5.413,41.656 L5.411,41.659 Z" id="Shape" fill="#000000"/><path d="M24.78,60 C24.3194886,59.9998779 23.9186017,59.6852787 23.809,59.238 C23.421,57.657 21.88,53.314 19.438,52.211 C19.0639436,52.0419148 18.8312137,51.6614066 18.8510746,51.25139 C18.8709354,50.8413735 19.1393525,50.4851405 19.528,50.353 C20.57,49.999 21.515,49.669 22.258,49.409 C22.951,49.167 23.473,48.985 23.744,48.898 C27.901,47.583 28.744,46.082 28.72,45.053 C28.7138345,44.7872547 28.8137271,44.5299897 28.9976105,44.338038 C29.1814939,44.1460862 29.4342349,44.0352448 29.7,44.03 C29.9666786,44.0182972 30.226611,44.1157727 30.4198371,44.2999414 C30.6130633,44.4841101 30.7228961,44.739067 30.724,45.006 C30.782,47.498 28.64,49.449 24.356,50.806 C24.097,50.889 23.592,51.065 22.922,51.299 L22.022,51.614 C23.671106,53.4424992 24.8739191,55.6283742 25.536,58 L48.218,57.937 L48.151,57.837 C47.8630969,57.4195592 47.6041562,56.9828684 47.376,56.53 C46.879054,55.5216399 46.4640482,54.4749292 46.135,53.4 C45.5288621,51.3528819 45.1078369,49.2554538 44.877,47.133 C44.4836273,43.7875409 44.9896868,40.3977013 46.343,37.313 C47.1417788,35.6440198 48.1292229,34.0720946 49.286,32.628 C49.866,31.846 50.466,31.038 50.986,30.217 C51.8623606,28.8582518 52.4841557,27.3513729 52.821,25.77 C52.8937035,25.4200583 53.147576,25.1354858 53.4869862,25.0234781 C53.8263963,24.9114704 54.1997796,24.9890441 54.4664862,25.2269781 C54.7331928,25.464912 54.8527036,25.8270584 54.78,26.177 C54.3933176,27.9946092 53.6801031,29.7269919 52.675,31.29 C52.116,32.17 51.494,33.009 50.893,33.819 C49.8281541,35.1424294 48.9172994,36.5826869 48.178,38.112 C46.9661452,40.8698444 46.5125267,43.9012172 46.864,46.893 C47.0798071,48.8965347 47.4757419,50.8765435 48.047,52.809 C48.3454759,53.7867332 48.7230564,54.7385437 49.176,55.655 C49.3670492,56.0298282 49.5832082,56.3913183 49.823,56.737 C50.2477748,57.3198965 50.588758,57.9594505 50.836,58.637 C50.9314293,58.9404437 50.8767998,59.2711879 50.6888608,59.5278273 C50.5009218,59.7844667 50.202095,59.9363833 49.884,59.937 L24.784,60.007 L24.78,60 Z" id="Shape" fill="#000000"/><path d="M11.194,18.567 C10.8884083,18.5671753 10.5995104,18.4276105 10.4097039,18.1881114 C10.2198975,17.9486123 10.1500194,17.635471 10.22,17.338 L10.32,16.905 C10.5131052,15.9892005 10.7602032,15.085623 11.06,14.199 C11.7555725,12.2746582 12.8327926,10.5106976 14.227,9.013 C15.7596426,7.53520641 17.6473921,6.47750189 19.708,5.942 C20.0522577,5.82944433 20.4304681,5.91183364 20.6967164,6.1573819 C20.9629648,6.40293017 21.0756292,6.7732514 20.9912433,7.12547458 C20.9068574,7.47769775 20.6386132,7.75676066 20.29,7.855 C18.5634442,8.29302828 16.9771231,9.16414541 15.681,10.386 C14.4733406,11.6864483 13.5401016,13.2169058 12.937,14.886 C12.6667971,15.6958165 12.4434278,16.5205136 12.268,17.356 L12.168,17.791 C12.0636686,18.2449301 11.6597655,18.5667256 11.194,18.567 Z" id="Shape" fill="#000000"/><circle id="Oval" fill="#000000" cx="10" cy="21" r="1"/><path d="M55,28 C54.7615284,27.9997398 54.5309999,27.9142669 54.35,27.759 L47.63,22 L33,22 C31.3431458,22 30,20.6568542 30,19 L30,3 C30,1.34314575 31.3431458,3.04359188e-16 33,0 L57,0 C58.6568542,1.01453063e-16 60,1.34314575 60,3 L60,19 C60,20.6568542 58.6568542,22 57,22 L56,22 L56,27 C56,27.5522847 55.5522847,28 55,28 Z M33,2 C32.4477153,2 32,2.44771525 32,3 L32,19 C32,19.5522847 32.4477153,20 33,20 L48,20 C48.2385671,19.999728 48.4692746,20.0852672 48.65,20.241 L54,24.826 L54,21 C54,20.4477153 54.4477153,20 55,20 L57,20 C57.5522847,20 58,19.5522847 58,19 L58,3 C58,2.44771525 57.5522847,2 57,2 L33,2 Z" id="Shape" fill="#000000"/><path d="M40,35 C39.7741085,34.9999951 39.5548731,34.9235094 39.378,34.783 L34.611,31 L24.46,31 C23.0993056,30.9955898 21.9988902,29.8907011 22,28.53 L22,17.46 C22.001653,16.1020648 23.1020648,15.001653 24.46,15 L31,15 C31.5522847,15 32,15.4477153 32,16 L32,19 C32,19.5522847 32.4477153,20 33,20 L43,20 C43.5522847,20 44,20.4477153 44,21 L44,28.53 C44.0011098,29.8907011 42.9006944,30.9955898 41.54,31 L41,31 L41,34 C41,34.5522847 40.5522847,35 40,35 Z M24.46,17 C24.2073004,17.0032332 24.0032332,17.2073004 24,17.46 L24,28.53 C24.0004728,28.7855015 24.2045678,28.9940333 24.46,29 L34.96,29 C35.1858915,29.0000049 35.4051269,29.0764906 35.582,29.217 L39,31.93 L39,30 C39,29.4477153 39.4477153,29 40,29 L41.54,29 C41.7954322,28.9940333 41.9995272,28.7855015 42,28.53 L42,22 L33,22 C31.3431458,22 30,20.6568542 30,19 L30,17 L24.46,17 Z" id="Shape" fill="#000000"/><path d="M37,14 C35.3431458,14 34,12.6568542 34,11 C34,9.34314575 35.3431458,8 37,8 C38.6568542,8 40,9.34314575 40,11 C40,11.7956495 39.6839295,12.5587112 39.1213203,13.1213203 C38.5587112,13.6839295 37.7956495,14 37,14 Z M37,10 C36.4477153,10 36,10.4477153 36,11 C36,11.5522847 36.4477153,12 37,12 C37.5522847,12 38,11.5522847 38,11 C38,10.4477153 37.5522847,10 37,10 Z" id="Shape" fill="#000000"/><path d="M45,14 C43.3431458,14 42,12.6568542 42,11 C42,9.34314575 43.3431458,8 45,8 C46.6568542,8 48,9.34314575 48,11 C48,11.7956495 47.6839295,12.5587112 47.1213203,13.1213203 C46.5587112,13.6839295 45.7956495,14 45,14 Z M45,10 C44.4477153,10 44,10.4477153 44,11 C44,11.5522847 44.4477153,12 45,12 C45.5522847,12 46,11.5522847 46,11 C46,10.4477153 45.5522847,10 45,10 Z" id="Shape" fill="#000000"/><path d="M53,14 C51.3431458,14 50,12.6568542 50,11 C50,9.34314575 51.3431458,8 53,8 C54.6568542,8 56,9.34314575 56,11 C56,11.7956495 55.6839295,12.5587112 55.1213203,13.1213203 C54.5587112,13.6839295 53.7956495,14 53,14 Z M53,10 C52.4477153,10 52,10.4477153 52,11 C52,11.5522847 52.4477153,12 53,12 C53.5522847,12 54,11.5522847 54,11 C54,10.4477153 53.5522847,10 53,10 Z" id="Shape" fill="#000000"/></g></g></svg>
