<?xml version="1.0" encoding="UTF-8"?>
<svg xmlns="http://www.w3.org/2000/svg" xmlns:xlink="http://www.w3.org/1999/xlink" width="512" height="512" viewBox="0 0 59 61" version="1.1"><!-- Generator: Sketch 51.3 (57544) - http://www.bohemiancoding.com/sketch --><title>017 - Secure Mind</title><desc>Created with Sketch.</desc><defs/><g id="Page-1" stroke="none" stroke-width="1" fill="none" fill-rule="evenodd"><g id="017---Secure-Mind" transform="translate(-1.000000, -1.000000)" fill-rule="nonzero"><path d="M47.13,38.71 C45.8503538,41.6319437 45.3706323,44.8415908 45.74,48.01 C45.9651005,50.0721875 46.3733794,52.1102353 46.96,54.1 C47.2766015,55.1331686 47.6745116,56.1396471 48.15,57.11 C48.7438098,58.0143772 49.2782676,58.956359 49.75,59.93 L24.65,60 L24.65,59.99 C24.57,59.69 23.06,53.81 19.72,52.3 C19.1,52.51 18.45,52.74 17.78,52.97 C15.5555599,53.740597 13.2924947,54.3948165 11,54.93 C10.3693821,55.0806865 9.70512584,54.9878335 9.14,54.67 L9.13,54.67 C8.4939137,54.2687189 8.01949017,53.6562169 7.79,52.94 C7.52484783,52.2284319 7.42566071,51.4657172 7.5,50.71 C7.73858566,49.940746 7.82020035,49.1314004 7.74,48.33 C7.48,47.32 6.51,47.07 5.75,46.53 C5.14,46.09 6.25,44.68 6.25,44.68 C6.25,44.68 5.07,43.81 4.65,43.44 C4.21,43.07 4.82,42.45 5.38,41.28 C5.60694079,40.7719796 5.67323378,40.2067446 5.57,39.66 C5.36,38.59 3.73,38.19 2.93,37.59 C2.56,37.31 1.95,36.89 1.88,36.38 C1.77,35.67 2.61,34.67 3.02,34.17 C4.76454657,31.9217816 6.25996718,29.4908848 7.48,26.92 C7.64010631,26.6486227 7.73589137,26.3441631 7.76,26.03 C7.74,24.6 5.67,24.01 5.47,22.62 C5.44871368,22.2115508 5.52408857,21.8038412 5.69,21.43 C6.26667192,20.2042401 6.76109856,18.9414478 7.17,17.65 C7.41142981,16.464203 7.72874925,15.2951313 8.12,14.15 C8.95859812,11.8496676 10.2508376,9.74127689 11.92,7.95 C14.37,5.36 17.99,4.08 21.41,3.4 C24.4513721,2.73504394 27.5355865,2.28393999 30.64,2.05 C30.74,2.04 30.84,2.04 30.94,2.03 C37.34,1.71 42.4,3.88 47.35,7.77 C50.060125,9.77690355 52.0405511,12.6141097 52.99,15.85 C53.7145851,18.5214574 54.0546722,21.2825609 54,24.05 C53.980834,26.7831121 53.1829958,29.4541358 51.7,31.75 C50.21,34.11 48.25,36.14 47.13,38.71 Z" id="Shape" fill="#6A1B9A"/><path d="M44.13,38.71 C42.8503538,41.6319437 42.3706323,44.8415908 42.74,48.01 C42.9651005,50.0721875 43.3733794,52.1102353 43.96,54.1 C44.2766015,55.1331686 44.6745116,56.1396471 45.15,57.11 C45.7438098,58.0143772 46.2782676,58.956359 46.75,59.93 L24.65,59.99 C24.57,59.69 23.06,53.81 19.72,52.3 C19.1,52.51 18.45,52.74 17.78,52.97 C17.4604669,52.6972041 17.1035092,52.4715799 16.72,52.3 C14.31,53.14 11.37,54.1 9.14,54.67 L9.13,54.67 C8.4939137,54.2687189 8.01949017,53.6562169 7.79,52.94 C7.52484783,52.2284319 7.42566071,51.4657172 7.5,50.71 C7.73858566,49.940746 7.82020035,49.1314004 7.74,48.33 C7.48,47.32 6.51,47.07 5.75,46.53 C5.14,46.09 6.25,44.68 6.25,44.68 C6.25,44.68 5.07,43.81 4.65,43.44 C4.21,43.07 4.82,42.45 5.38,41.28 C5.60694079,40.7719796 5.67323378,40.2067446 5.57,39.66 C5.36,38.59 3.73,38.19 2.93,37.59 C2.56,37.31 1.95,36.89 1.88,36.38 C1.77,35.67 2.61,34.67 3.02,34.17 C4.76454657,31.9217816 6.25996718,29.4908848 7.48,26.92 C7.64010631,26.6486227 7.73589137,26.3441631 7.76,26.03 C7.74,24.6 5.67,24.01 5.47,22.62 C5.44871368,22.2115508 5.52408857,21.8038412 5.69,21.43 C6.26667192,20.2042401 6.76109856,18.9414478 7.17,17.65 C7.41142981,16.464203 7.72874925,15.2951313 8.12,14.15 C8.95859812,11.8496676 10.2508376,9.74127689 11.92,7.95 C14.37,5.36 17.99,4.08 21.41,3.4 C24.4513721,2.73504394 27.5355865,2.28393999 30.64,2.05 C35.8,2.37 40.12,4.44 44.35,7.77 C47.060125,9.77690355 49.0405511,12.6141097 49.99,15.85 C50.7145851,18.5214574 51.0546722,21.2825609 51,24.05 C50.980834,26.7831121 50.1829958,29.4541358 48.7,31.75 C47.21,34.11 45.25,36.14 44.13,38.71 Z" id="Shape" fill="#9D27B0"/><rect id="Rectangle-path" fill="#FEC108" x="31" y="19" width="28" height="24" rx="2"/><rect id="Rectangle-path" fill="#FFDC00" x="31" y="19" width="25" height="24" rx="2"/><path d="M56,13 L56,19 L52,19 L52,13 C52,9.13400675 48.8659932,6 45,6 C41.1340068,6 38,9.13400675 38,13 L38,19 L34,19 L34,13 C34,6.92486775 38.9248678,2 45,2 C51.0751322,2 56,6.92486775 56,13 Z" id="Shape" fill="#F5F5F5"/><path d="M56,13 L56.0000016,19 L53,19 L53,13 C53.006858,7.50332974 48.9467486,2.84916223 43.5,2.11 C43.9962102,2.0328963 44.4978502,1.99610937 45,2 C47.9178694,1.99840713 50.716688,3.15682085 52.7799336,5.22006641 C54.8431791,7.28331196 56.0015929,10.0821306 56,13 Z" id="Shape" fill="#CFD8DC"/><path d="M47.17,31.36 L47.86,36.88 C47.8942778,37.1635751 47.8056531,37.4482732 47.6164785,37.662289 C47.4273038,37.8763048 47.1556382,37.9992078 46.87,38 L43.13,38 C42.8443618,37.9992078 42.5726962,37.8763048 42.3835215,37.662289 C42.1943469,37.4482732 42.1057222,37.1635751 42.14,36.88 L42.83,31.36 C41.5753707,30.5485842 40.8775695,29.1055588 41.0206185,27.6182702 C41.1636674,26.1309817 42.1237156,24.8474099 43.51,24.29 C43.8367686,24.1578823 44.1798594,24.0704278 44.53,24.03 C46.3765265,23.8137596 48.1286181,24.8982729 48.7586002,26.6474277 C49.3885823,28.3965826 48.7303566,30.3492047 47.17,31.36 Z" id="Shape" fill="#37474F"/><path d="M44.17,31.36 L44.86,36.88 C44.8942778,37.1635751 44.8056531,37.4482732 44.6164785,37.662289 C44.4273038,37.8763048 44.1556382,37.9992078 43.87,38 L43.13,38 C42.8443618,37.9992078 42.5726962,37.8763048 42.3835215,37.662289 C42.1943469,37.4482732 42.1057222,37.1635751 42.14,36.88 L42.83,31.36 C41.5753707,30.5485842 40.8775695,29.1055588 41.0206185,27.6182702 C41.1636674,26.1309817 42.1237156,24.8474099 43.51,24.29 C44.8937459,24.8517266 45.8493314,26.137516 45.9881415,27.6244663 C46.1269516,29.1114166 45.4258658,30.5518598 44.17,31.36 Z" id="Shape" fill="#607D8B"/><path d="M10.511,56 C8.86145152,55.9690108 7.4263849,54.8624583 6.977,53.275 C6.66129272,52.4143284 6.54869822,51.4923539 6.648,50.581 C6.682,50.318 6.739,50.05 6.798,49.781 C6.91941128,49.3932674 6.95356021,48.9834802 6.898,48.581 C6.817,48.267 6.586,48.11 5.998,47.774 C5.765,47.641 5.528,47.505 5.306,47.349 C4.98074391,47.1171358 4.76606133,46.7609003 4.713,46.365 C4.67448978,45.8623148 4.78770505,45.359639 5.038,44.922 C4.698,44.661 4.325,44.367 4.109,44.172 C3.185,43.417 3.798,42.333 4.164,41.686 C4.299,41.449 4.455,41.174 4.604,40.854 C4.7416535,40.5365296 4.78135002,40.1851805 4.718,39.845 C4.667,39.586 3.942,39.216 3.51,38.995 C3.14797678,38.8240989 2.80078202,38.6234083 2.472,38.395 C1.75470729,37.9902386 1.23115797,37.313086 1.02,36.517 C0.86,35.487 1.62,34.458 2.345,33.575 C4.05560327,31.369443 5.52247783,28.985227 6.72,26.464 C6.79697882,26.3281355 6.85421996,26.1820023 6.89,26.03 C6.89,25.755 6.565,25.439 6.076,24.991 C5.3374331,24.4449531 4.82021123,23.6511932 4.619,22.755 C4.56192334,22.1842424 4.65284498,21.6084053 4.883,21.083 C5.062,20.611 5.266,20.155 5.47,19.699 C5.82566937,18.9679886 6.11224857,18.2053397 6.326,17.421 L6.426,16.999 C6.65602311,15.9179422 6.95190812,14.8519547 7.312,13.807 C8.19404573,11.3778111 9.55841114,9.15217091 11.323,7.264 C13.559,4.9 16.836,3.316 21.345,2.419 C24.5310865,1.72059835 27.7640828,1.25668862 31.018,1.031 C34.1133739,0.849886821 37.2129842,1.30596213 40.125,2.371 C40.6435954,2.56126211 40.9097621,3.13590462 40.7195,3.65449999 C40.5292379,4.17309535 39.9545954,4.43926207 39.436,4.249 C36.7767666,3.27719342 33.9463486,2.86161617 31.12,3.028 C27.9646074,3.24988685 24.8296146,3.70175362 21.74,4.38 C17.704,5.18 14.689,6.615 12.776,8.637 C11.1965696,10.3291549 9.97605599,12.323545 9.188,14.5 C8.85614522,15.4674021 8.58396707,16.4542566 8.373,17.455 L8.273,17.881 C8.03405513,18.788547 7.70821606,19.6709581 7.3,20.516 C7.111,20.937 6.923,21.357 6.76,21.786 C6.66364086,22.0015614 6.61063423,22.2339751 6.604,22.47 C6.649,22.796 7.03,23.146 7.434,23.517 C8.25904392,24.1003679 8.79170832,25.0118401 8.895,26.017 C8.87635428,26.4916102 8.74434083,26.9548574 8.51,27.368 C7.2548892,30.0038306 5.71756418,32.4957388 3.925,34.8 C3.163,35.727 3.005,36.1 3,36.247 C3.18518784,36.4261779 3.38598284,36.5884872 3.6,36.732 C3.86136569,36.9140729 4.13730073,37.0742824 4.425,37.211 C5.277,37.647 6.446,38.245 6.686,39.465 C6.82865982,40.2207273 6.73544627,41.0020454 6.419,41.703 C6.244,42.073 6.065,42.393 5.908,42.668 C5.859,42.755 5.808,42.851 5.758,42.938 C6.172,43.272 6.738,43.696 6.978,43.872 C7.19643076,44.0334948 7.33976225,44.2769033 7.37503403,44.5462515 C7.41030582,44.8155997 7.33448237,45.0877071 7.165,45.3 C7.01691908,45.4930204 6.88797779,45.6999963 6.78,45.918 L6.987,46.036 C7.87220583,46.4166291 8.54814599,47.1633751 8.839,48.082 C8.98564963,48.7876772 8.95576498,49.5186489 8.752,50.21 C8.706,50.419 8.658,50.627 8.632,50.837 C8.5729723,51.4418114 8.65336419,52.0521056 8.867,52.621 C9.0847514,53.5454575 9.99364951,54.1329967 10.926,53.952 C13.8403482,53.2516858 16.7117997,52.3835725 19.526,51.352 C20.0479091,51.1705745 20.6180744,51.4465909 20.7995,51.9685 C20.9809255,52.4904091 20.7049091,53.0605744 20.183,53.242 C17.2887222,54.3027843 14.334635,55.19265 11.336,55.907 C11.0649467,55.96639 10.7884727,55.9975562 10.511,56 Z M5.411,42.659 L5.443,42.688 C5.43377066,42.6766361 5.42374541,42.6659425 5.413,42.656 L5.411,42.659 Z" id="Shape" fill="#000000"/><path d="M24.78,61 C24.3194886,60.9998779 23.9186017,60.6852787 23.809,60.238 C23.421,58.657 21.88,54.314 19.438,53.211 C19.0639436,53.0419148 18.8312137,52.6614066 18.8510746,52.25139 C18.8709354,51.8413735 19.1393525,51.4851405 19.528,51.353 C20.57,50.999 21.515,50.669 22.258,50.409 C22.951,50.167 23.473,49.985 23.744,49.898 C27.901,48.583 28.744,47.082 28.72,46.053 C28.7138345,45.7872547 28.8137271,45.5299897 28.9976105,45.338038 C29.1814939,45.1460862 29.4342349,45.0352448 29.7,45.03 C29.966449,45.0191527 30.2258909,45.1169132 30.4189248,45.3008986 C30.6119587,45.484884 30.7220527,45.7393374 30.724,46.006 C30.782,48.498 28.64,50.449 24.356,51.806 C24.097,51.889 23.592,52.065 22.922,52.299 L22.022,52.614 C23.671106,54.4424992 24.8739191,56.6283742 25.536,59 L48.218,58.937 L48.151,58.837 C47.8630969,58.4195592 47.6041562,57.9828684 47.376,57.53 C46.879054,56.5216399 46.4640482,55.4749292 46.135,54.4 C45.5288621,52.3528819 45.1078369,50.2554538 44.877,48.133 C44.6630988,46.3691131 44.7095956,44.5833654 45.015,42.833 C45.0768069,42.4810934 45.3216588,42.1888919 45.6573224,42.0664649 C45.9929859,41.944038 46.3684658,42.0099852 46.6423224,42.2394649 C46.916179,42.4689446 47.046807,42.8270934 46.985,43.179 C46.7136207,44.7372176 46.6725156,46.3268394 46.863,47.897 C47.0788986,49.9001926 47.4748323,51.8798612 48.046,53.812 C48.3444759,54.7897332 48.7220564,55.7415437 49.175,56.658 C49.3660492,57.0328282 49.5822082,57.3943183 49.822,57.74 C50.2467748,58.3228965 50.587758,58.9624505 50.835,59.64 C50.9304293,59.9434437 50.8757998,60.2741879 50.6878608,60.5308273 C50.4999218,60.7874667 50.201095,60.9393833 49.883,60.94 L24.783,61.01 L24.78,61 Z" id="Shape" fill="#000000"/><path d="M11.194,19.567 C10.8884083,19.5671753 10.5995104,19.4276105 10.4097039,19.1881114 C10.2198975,18.9486123 10.1500194,18.635471 10.22,18.338 L10.32,17.905 C10.5131052,16.9892005 10.7602032,16.085623 11.06,15.199 C11.7555725,13.2746582 12.8327926,11.5106976 14.227,10.013 C15.7596426,8.53520641 17.6473921,7.47750189 19.708,6.942 C20.0522577,6.82944433 20.4304681,6.91183364 20.6967164,7.1573819 C20.9629648,7.40293017 21.0756292,7.7732514 20.9912433,8.12547458 C20.9068574,8.47769775 20.6386132,8.75676066 20.29,8.855 C18.5634442,9.29302828 16.9771231,10.1641454 15.681,11.386 C14.4733406,12.6864483 13.5401016,14.2169058 12.937,15.886 C12.6667971,16.6958165 12.4434278,17.5205136 12.268,18.356 L12.168,18.791 C12.0636686,19.2449301 11.6597655,19.5667256 11.194,19.567 Z" id="Shape" fill="#000000"/><circle id="Oval" fill="#000000" cx="10" cy="22" r="1"/><path d="M57,44 L33,44 C31.3431458,44 30,42.6568542 30,41 L30,21 C30,19.3431458 31.3431458,18 33,18 L57,18 C58.6568542,18 60,19.3431458 60,21 L60,41 C60,42.6568542 58.6568542,44 57,44 Z M33,20 C32.4477153,20 32,20.4477153 32,21 L32,41 C32,41.5522847 32.4477153,42 33,42 L57,42 C57.5522847,42 58,41.5522847 58,41 L58,21 C58,20.4477153 57.5522847,20 57,20 L33,20 Z" id="Shape" fill="#000000"/><path d="M56,20 L52,20 C51.4477153,20 51,19.5522847 51,19 L51,13 C51,9.6862915 48.3137085,7 45,7 C41.6862915,7 39,9.6862915 39,13 L39,19 C39,19.5522847 38.5522847,20 38,20 L34,20 C33.4477153,20 33,19.5522847 33,19 L33,13 C33,6.372583 38.372583,1 45,1 C51.627417,1 57,6.372583 57,13 L57,19 C57,19.2652165 56.8946432,19.5195704 56.7071068,19.7071068 C56.5195704,19.8946432 56.2652165,20 56,20 Z M53,18 L55,18 L55,13 C55,7.4771525 50.5228475,3 45,3 C39.4771525,3 35,7.4771525 35,13 L35,18 L37,18 L37,13 C37,8.581722 40.581722,5 45,5 C49.418278,5 53,8.581722 53,13 L53,18 Z" id="Shape" fill="#000000"/><path d="M46.867,39 L43.133,39 C42.5590768,39.0001609 42.0127414,38.7537574 41.6329581,38.3234639 C41.2531748,37.8931703 41.0765465,37.3204579 41.148,36.751 L41.766,31.812 C40.0011107,30.3152243 39.4939265,27.8029361 40.539913,25.7386968 C41.5858996,23.6744575 43.9117162,22.597701 46.1624327,23.1357037 C48.4131493,23.6737064 50.0006008,25.6858757 50,28 C50.0036091,29.469496 49.3571163,30.8653495 48.234,31.813 L48.852,36.752 C48.923142,37.3212977 48.7463721,37.8937331 48.3666246,38.3237947 C47.9868772,38.7538562 47.4407256,39.0001249 46.867,39 Z M45,25 C44.8790303,25.0000454 44.7581635,25.007057 44.638,25.021 C43.3823654,25.1713882 42.355872,26.0930144 42.0715618,27.3252492 C41.7872517,28.5574839 42.3061856,29.8356824 43.369,30.521 C43.6916628,30.7292664 43.8665511,31.103916 43.819,31.485 L43.133,37 L46.867,37 L46.178,31.484 C46.1304489,31.102916 46.3053372,30.7282664 46.628,30.52 C47.7452732,29.7983128 48.2539623,28.427116 47.8777057,27.1513564 C47.501449,25.8755967 46.3300871,24.9998932 45,25 Z" id="Shape" fill="#000000"/><path d="M36,24 L31,24 C30.4477153,24 30,23.5522847 30,23 C30,22.4477153 30.4477153,22 31,22 L36,22 C36.5522847,22 37,22.4477153 37,23 C37,23.5522847 36.5522847,24 36,24 Z" id="Shape" fill="#000000"/><path d="M36,28 L31,28 C30.4477153,28 30,27.5522847 30,27 C30,26.4477153 30.4477153,26 31,26 L36,26 C36.5522847,26 37,26.4477153 37,27 C37,27.5522847 36.5522847,28 36,28 Z" id="Shape" fill="#000000"/><path d="M36,32 L31,32 C30.4477153,32 30,31.5522847 30,31 C30,30.4477153 30.4477153,30 31,30 L36,30 C36.5522847,30 37,30.4477153 37,31 C37,31.5522847 36.5522847,32 36,32 Z" id="Shape" fill="#000000"/><path d="M36,36 L31,36 C30.4477153,36 30,35.5522847 30,35 C30,34.4477153 30.4477153,34 31,34 L36,34 C36.5522847,34 37,34.4477153 37,35 C37,35.5522847 36.5522847,36 36,36 Z" id="Shape" fill="#000000"/><path d="M36,40 L31,40 C30.4477153,40 30,39.5522847 30,39 C30,38.4477153 30.4477153,38 31,38 L36,38 C36.5522847,38 37,38.4477153 37,39 C37,39.5522847 36.5522847,40 36,40 Z" id="Shape" fill="#000000"/><path d="M59,24 L54,24 C53.4477153,24 53,23.5522847 53,23 C53,22.4477153 53.4477153,22 54,22 L59,22 C59.5522847,22 60,22.4477153 60,23 C60,23.5522847 59.5522847,24 59,24 Z" id="Shape" fill="#000000"/><path d="M59,28 L54,28 C53.4477153,28 53,27.5522847 53,27 C53,26.4477153 53.4477153,26 54,26 L59,26 C59.5522847,26 60,26.4477153 60,27 C60,27.5522847 59.5522847,28 59,28 Z" id="Shape" fill="#000000"/><path d="M59,32 L54,32 C53.4477153,32 53,31.5522847 53,31 C53,30.4477153 53.4477153,30 54,30 L59,30 C59.5522847,30 60,30.4477153 60,31 C60,31.5522847 59.5522847,32 59,32 Z" id="Shape" fill="#000000"/><path d="M59,36 L54,36 C53.4477153,36 53,35.5522847 53,35 C53,34.4477153 53.4477153,34 54,34 L59,34 C59.5522847,34 60,34.4477153 60,35 C60,35.5522847 59.5522847,36 59,36 Z" id="Shape" fill="#000000"/><path d="M59,40 L54,40 C53.4477153,40 53,39.5522847 53,39 C53,38.4477153 53.4477153,38 54,38 L59,38 C59.5522847,38 60,38.4477153 60,39 C60,39.5522847 59.5522847,40 59,40 Z" id="Shape" fill="#000000"/></g></g></svg>
