<?xml version="1.0" encoding="UTF-8"?>
<svg xmlns="http://www.w3.org/2000/svg" xmlns:xlink="http://www.w3.org/1999/xlink" width="512" height="512" viewBox="0 0 60 61" version="1.1"><!-- Generator: Sketch 51.3 (57544) - http://www.bohemiancoding.com/sketch --><title>018 - Shielded</title><desc>Created with Sketch.</desc><defs/><g id="Page-1" stroke="none" stroke-width="1" fill="none" fill-rule="evenodd"><g id="018---Shielded" transform="translate(-1.000000, -1.000000)" fill-rule="nonzero"><path d="M47.26,38.71 C45.9803538,41.6319437 45.5006323,44.8415908 45.87,48.01 C46.0951005,50.0721875 46.5033794,52.1102353 47.09,54.1 C47.4066015,55.1331686 47.8045116,56.1396471 48.28,57.11 C48.8738098,58.0143772 49.4082676,58.956359 49.88,59.93 L24.78,60 L24.78,59.99 C24.7,59.69 23.19,53.81 19.85,52.3 C19.23,52.52 18.57,52.74 17.9,52.97 C15.6789002,53.7404523 13.4191713,54.3946722 11.13,54.93 C10.4993821,55.0806865 9.83512584,54.9878335 9.27,54.67 C8.62676625,54.2742562 8.14753634,53.660132 7.92,52.94 C7.65806229,52.2276891 7.56229323,51.4649569 7.64,50.71 C7.87036773,49.9391054 7.94848689,49.1307419 7.87,48.33 C7.61,47.32 6.65,47.07 5.89,46.53 C5.27,46.09 6.38,44.68 6.38,44.68 C6.38,44.68 5.2,43.81 4.78,43.44 C4.34,43.07 4.96,42.45 5.51,41.28 C5.73694079,40.7719796 5.80323378,40.2067446 5.7,39.66 C5.49,38.59 3.87,38.19 3.07,37.59 C2.69,37.31 2.08,36.89 2.01,36.38 C1.9,35.67 2.74,34.67 3.15,34.17 C4.89454657,31.9217816 6.38996718,29.4908848 7.61,26.92 C7.77010631,26.6486227 7.86589137,26.3441631 7.89,26.03 C7.87,24.6 5.8,24.01 5.61,22.62 C5.58022555,22.2120559 5.65239212,21.803112 5.82,21.43 C6.39667192,20.2042401 6.89109856,18.9414478 7.3,17.65 C7.54612792,16.4653226 7.86336869,15.2965408 8.25,14.15 C9.08859812,11.8496676 10.3808376,9.74127689 12.05,7.95 C14.5,5.36 18.12,4.08 21.54,3.4 C24.5813721,2.73504394 27.6655865,2.28393999 30.77,2.05 C30.87,2.04 30.97,2.04 31.07,2.03 C37.47,1.71 42.53,3.88 47.49,7.77 C50.1943357,9.78046229 52.1705976,12.6167315 53.12,15.85 C53.8445851,18.5214574 54.1846722,21.2825609 54.13,24.05 C54.110834,26.7831121 53.3129958,29.4541358 51.83,31.75 C50.34,34.11 48.39,36.14 47.26,38.71 Z" id="Shape" fill="#FEC108"/><path d="M44.26,38.71 C42.9803538,41.6319437 42.5006323,44.8415908 42.87,48.01 C43.0951005,50.0721875 43.5033794,52.1102353 44.09,54.1 C44.4066015,55.1331686 44.8045116,56.1396471 45.28,57.11 C45.8738098,58.0143772 46.4082676,58.956359 46.88,59.93 L24.78,59.99 C24.7,59.69 23.19,53.81 19.85,52.3 C19.23,52.52 18.57,52.74 17.9,52.97 C17.5823905,52.6995596 17.2290765,52.4741116 16.85,52.3 C14.44,53.14 11.5,54.11 9.27,54.67 C8.62676625,54.2742562 8.14753634,53.660132 7.92,52.94 C7.65806229,52.2276891 7.56229323,51.4649569 7.64,50.71 C7.87036773,49.9391054 7.94848689,49.1307419 7.87,48.33 C7.61,47.32 6.65,47.07 5.89,46.53 C5.27,46.09 6.38,44.68 6.38,44.68 C6.38,44.68 5.2,43.81 4.78,43.44 C4.34,43.07 4.96,42.45 5.51,41.28 C5.73694079,40.7719796 5.80323378,40.2067446 5.7,39.66 C5.49,38.59 3.87,38.19 3.07,37.59 C2.69,37.31 2.08,36.89 2.01,36.38 C1.9,35.67 2.74,34.67 3.15,34.17 C4.89454657,31.9217816 6.38996718,29.4908848 7.61,26.92 C7.77010631,26.6486227 7.86589137,26.3441631 7.89,26.03 C7.87,24.6 5.8,24.01 5.61,22.62 C5.58022555,22.2120559 5.65239212,21.803112 5.82,21.43 C6.39667192,20.2042401 6.89109856,18.9414478 7.3,17.65 C7.54612792,16.4653226 7.86336869,15.2965408 8.25,14.15 C9.08859812,11.8496676 10.3808376,9.74127689 12.05,7.95 C14.5,5.36 18.12,4.08 21.54,3.4 C24.5813721,2.73504394 27.6655865,2.28393999 30.77,2.05 C35.93,2.37 40.25,4.44 44.49,7.77 C47.1943357,9.78046229 49.1705976,12.6167315 50.12,15.85 C50.8445851,18.5214574 51.1846722,21.2825609 51.13,24.05 C51.110834,26.7831121 50.3129958,29.4541358 48.83,31.75 C47.34,34.11 45.39,36.14 44.26,38.71 Z" id="Shape" fill="#FFDC00"/><path d="M60,13 C60,13 59.86,15.97 59.42,19.94 C58.1126149,19.7089875 56.7942032,19.5454377 55.47,19.45 C54.79,19.4 54.12,19.38 53.47,19.38 C46.1075122,19.1570927 38.9770577,21.9702234 33.75,27.16 C33.15,27.74 32.59,28.34 32.08,28.93 C30.9482408,30.2249431 29.9279435,31.6132165 29.03,33.08 C26.57,25.06 26,13 26,13 C32.9793355,11.9340738 39.1678421,7.92974601 43,2 C46.8321579,7.92974601 53.0206645,11.9340738 60,13 Z" id="Shape" fill="#02A9F4"/><path d="M60,13 C60,13 59.86,15.97 59.42,19.94 C58.4,19.76 57.42,19.63 56.46,19.53 C56.87,15.77 57,13 57,13 C50.9189868,12.0348163 45.4036424,8.87149939 41.5,4.11 C42.0549575,3.44739864 42.5565279,2.74185636 43,2 C46.8321579,7.92974601 53.0206645,11.9340738 60,13 Z" id="Shape" fill="#0377BC"/><path d="M55.79,16.14 C55.7,17.24 55.59,18.35 55.47,19.45 C54.79,19.4 54.12,19.38 53.47,19.38 C46.1075122,19.1570927 38.9770577,21.9702234 33.75,27.16 C33.15,27.74 32.59,28.34 32.08,28.93 C31.1760664,24.7124313 30.5513764,20.4398191 30.21,16.14 C35.0715476,14.7266116 39.4801197,12.0690595 43,8.43 C46.5198803,12.0690595 50.9284524,14.7266116 55.79,16.14 Z" id="Shape" fill="#F5F5F5"/><path d="M59.42,19.94 C58.68,26.53 57.12,35.88 54,39 C50.7325347,42.1763264 47.028535,44.8701444 43,47 C38.971465,44.8701444 35.2674653,42.1763264 32,39 C30.574614,37.2769434 29.5590839,35.2527217 29.03,33.08 C29.9279435,31.6132165 30.9482408,30.2249431 32.08,28.93 C32.87,32.45 33.82,35.16 34.83,36.17 C37.2962926,38.5694356 40.0388339,40.6674629 43,42.42 C45.9611661,40.6674629 48.7037074,38.5694356 51.17,36.17 C53.03,34.31 54.63,26.99 55.47,19.45 C56.7942032,19.5454377 58.1126149,19.7089875 59.42,19.94 Z" id="Shape" fill="#0377BC"/><path d="M55.47,19.45 C54.63,26.99 53.03,34.31 51.17,36.17 C48.7037074,38.5694356 45.9611661,40.6674629 43,42.42 C40.0388339,40.6674629 37.2962926,38.5694356 34.83,36.17 C33.82,35.16 32.87,32.45 32.08,28.93 C32.59,28.34 33.15,27.74 33.75,27.16 C38.9770577,21.9702234 46.1075122,19.1570927 53.47,19.38 C54.12,19.38 54.79,19.4 55.47,19.45 Z" id="Shape" fill="#CFD8DC"/><path d="M10.511,56 C8.86145152,55.9690108 7.4263849,54.8624583 6.977,53.275 C6.66129272,52.4143284 6.54869822,51.4923539 6.648,50.581 C6.682,50.318 6.739,50.05 6.798,49.781 C6.91941128,49.3932674 6.95356021,48.9834802 6.898,48.581 C6.817,48.267 6.586,48.11 5.998,47.774 C5.765,47.641 5.528,47.505 5.306,47.349 C4.98074391,47.1171358 4.76606133,46.7609003 4.713,46.365 C4.67448978,45.8623148 4.78770505,45.359639 5.038,44.922 C4.698,44.661 4.325,44.367 4.109,44.172 C3.185,43.417 3.798,42.333 4.164,41.686 C4.299,41.449 4.455,41.174 4.604,40.854 C4.7416535,40.5365296 4.78135002,40.1851805 4.718,39.845 C4.667,39.586 3.942,39.216 3.51,38.995 C3.14797678,38.8240989 2.80078202,38.6234083 2.472,38.395 C1.75470729,37.9902386 1.23115797,37.313086 1.02,36.517 C0.86,35.487 1.62,34.458 2.345,33.575 C4.05560327,31.369443 5.52247783,28.985227 6.72,26.464 C6.79697882,26.3281355 6.85421996,26.1820023 6.89,26.03 C6.89,25.755 6.565,25.439 6.076,24.991 C5.3374331,24.4449531 4.82021123,23.6511932 4.619,22.755 C4.56192334,22.1842424 4.65284498,21.6084053 4.883,21.083 C5.062,20.611 5.266,20.155 5.47,19.699 C5.82566937,18.9679886 6.11224857,18.2053397 6.326,17.421 L6.426,16.999 C6.65602311,15.9179422 6.95190812,14.8519547 7.312,13.807 C8.19404573,11.3778111 9.55841114,9.15217091 11.323,7.264 C13.559,4.9 16.836,3.316 21.345,2.419 C24.5310865,1.72059835 27.7640828,1.25668862 31.018,1.031 C34.7898273,0.807775513 38.5577188,1.52959381 41.98,3.131 C42.3125375,3.27595808 42.5404947,3.58963543 42.5756848,3.95068344 C42.6108748,4.31173145 42.4477783,4.66352336 42.1494905,4.86996564 C41.8512028,5.07640791 41.4645072,5.10512214 41.139,4.945 C38.0117026,3.48081518 34.5679291,2.82182996 31.121,3.028 C27.9652696,3.24981727 24.8299393,3.70168451 21.74,4.38 C17.704,5.18 14.689,6.615 12.776,8.637 C11.1965696,10.3291549 9.97605599,12.323545 9.188,14.5 C8.85614522,15.4674021 8.58396707,16.4542566 8.373,17.455 L8.273,17.881 C8.03405513,18.788547 7.70821606,19.6709581 7.3,20.516 C7.111,20.937 6.923,21.357 6.76,21.786 C6.66364086,22.0015614 6.61063423,22.2339751 6.604,22.47 C6.649,22.796 7.03,23.146 7.434,23.517 C8.25904392,24.1003679 8.79170832,25.0118401 8.895,26.017 C8.87635428,26.4916102 8.74434083,26.9548574 8.51,27.368 C7.2548892,30.0038306 5.71756418,32.4957388 3.925,34.8 C3.163,35.727 3.005,36.1 3,36.247 C3.18518784,36.4261779 3.38598284,36.5884872 3.6,36.732 C3.86136569,36.9140729 4.13730073,37.0742824 4.425,37.211 C5.277,37.647 6.446,38.245 6.686,39.465 C6.82865982,40.2207273 6.73544627,41.0020454 6.419,41.703 C6.244,42.073 6.065,42.393 5.908,42.668 C5.859,42.755 5.808,42.851 5.758,42.938 C6.172,43.272 6.738,43.696 6.978,43.872 C7.19643076,44.0334948 7.33976225,44.2769033 7.37503403,44.5462515 C7.41030582,44.8155997 7.33448237,45.0877071 7.165,45.3 C7.01691908,45.4930204 6.88797779,45.6999963 6.78,45.918 L6.987,46.036 C7.87220583,46.4166291 8.54814599,47.1633751 8.839,48.082 C8.98564963,48.7876772 8.95576498,49.5186489 8.752,50.21 C8.706,50.419 8.658,50.627 8.632,50.837 C8.5729723,51.4418114 8.65336419,52.0521056 8.867,52.621 C9.0847514,53.5454575 9.99364951,54.1329967 10.926,53.952 C13.8403482,53.2516858 16.7117997,52.3835725 19.526,51.352 C20.0479091,51.1705745 20.6180744,51.4465909 20.7995,51.9685 C20.9809255,52.4904091 20.7049091,53.0605744 20.183,53.242 C17.2887222,54.3027843 14.334635,55.19265 11.336,55.907 C11.0649467,55.96639 10.7884727,55.9975562 10.511,56 Z M5.411,42.659 L5.443,42.688 C5.43377066,42.6766361 5.42374541,42.6659425 5.413,42.656 L5.411,42.659 Z" id="Shape" fill="#000000"/><path d="M24.78,61 C24.3194886,60.9998779 23.9186017,60.6852787 23.809,60.238 C23.421,58.657 21.88,54.314 19.438,53.211 C19.0639436,53.0419148 18.8312137,52.6614066 18.8510746,52.25139 C18.8709354,51.8413735 19.1393525,51.4851405 19.528,51.353 C20.57,50.999 21.515,50.669 22.258,50.409 C22.951,50.167 23.473,49.985 23.744,49.898 C27.901,48.583 28.744,47.082 28.72,46.053 C28.7138345,45.7872547 28.8137271,45.5299897 28.9976105,45.338038 C29.1814939,45.1460862 29.4342349,45.0352448 29.7,45.03 L29.724,45.03 C30.2670463,45.0298436 30.7109669,45.4631101 30.724,46.006 C30.782,48.498 28.64,50.449 24.356,51.806 C24.097,51.889 23.592,52.065 22.922,52.299 L22.022,52.614 C23.671106,54.4424992 24.8739191,56.6283742 25.536,59 L48.218,58.937 L48.151,58.837 C47.8630969,58.4195592 47.6041562,57.9828684 47.376,57.53 C46.879054,56.5216399 46.4640482,55.4749292 46.135,54.4 C45.5288621,52.3528819 45.1078369,50.2554538 44.877,48.133 C44.7700288,47.2225003 44.7312541,46.3052792 44.761,45.389 C44.7793353,44.8500368 45.2217251,44.4226882 45.761,44.423 L45.795,44.423 C46.0602687,44.4318656 46.3111312,44.5458243 46.4923235,44.7397713 C46.6735157,44.9337183 46.7701723,45.1917417 46.761,45.457 C46.7328961,46.2716909 46.7663244,47.0873411 46.861,47.897 C47.0771782,49.8991656 47.4731085,51.8778131 48.044,53.809 C48.3424759,54.7867332 48.7200564,55.7385437 49.173,56.655 C49.3640492,57.0298282 49.5802082,57.3913183 49.82,57.737 C50.2447748,58.3198965 50.585758,58.9594505 50.833,59.637 C50.9284293,59.9404437 50.8737998,60.2711879 50.6858608,60.5278273 C50.4979218,60.7844667 50.199095,60.9363833 49.881,60.937 L24.781,61.007 L24.78,61 Z" id="Shape" fill="#000000"/><path d="M12.194,19.567 C11.8884083,19.5671753 11.5995104,19.4276105 11.4097039,19.1881114 C11.2198975,18.9486123 11.1500194,18.635471 11.22,18.338 L11.32,17.905 C11.5131052,16.9892005 11.7602032,16.085623 12.06,15.199 C12.7555725,13.2746582 13.8327926,11.5106976 15.227,10.013 C16.7596426,8.53520641 18.6473921,7.47750189 20.708,6.942 C21.0522577,6.82944433 21.4304681,6.91183364 21.6967164,7.1573819 C21.9629648,7.40293017 22.0756292,7.7732514 21.9912433,8.12547458 C21.9068574,8.47769775 21.6386132,8.75676066 21.29,8.855 C19.5634442,9.29302828 17.9771231,10.1641454 16.681,11.386 C15.4733406,12.6864483 14.5401016,14.2169058 13.937,15.886 C13.6667971,16.6958165 13.4434278,17.5205136 13.268,18.356 L13.168,18.791 C13.0636686,19.2449301 12.6597655,19.5667256 12.194,19.567 Z" id="Shape" fill="#000000"/><circle id="Oval" fill="#000000" cx="11" cy="22" r="1"/><path d="M43,48 C42.8452699,48.0016999 42.6922562,47.9674687 42.553,47.9 C38.4252218,45.7267064 34.6327806,42.9689348 31.293,39.712 C26.079,34.499 25.043,13.926 25.001,13.052 C24.9774253,12.5458474 25.3361523,12.102057 25.836,12.019 C32.5057933,10.9733718 38.4229499,7.15742147 42.127,1.513 C42.3193215,1.2178694 42.6477364,1.03988927 43,1.03988927 C43.3522636,1.03988927 43.6806785,1.2178694 43.873,1.513 C47.5782582,7.15514684 53.4952361,10.9688028 60.164,12.013 C60.6646434,12.0956475 61.0240282,12.5401499 61,13.047 C60.958,13.921 59.922,34.494 54.708,39.707 C51.3682464,42.9657806 47.5754471,45.7252517 43.447,47.9 C43.3077438,47.9674687 43.1547301,48.0016999 43,48 Z M27.046,13.825 C27.424,20.14 29.014,34.599 32.707,38.293 C35.7805939,41.2713001 39.2429949,43.820082 43,45.87 C46.7570051,43.820082 50.2194061,41.2713001 53.293,38.293 C56.993,34.598 58.576,20.139 58.954,13.825 C52.5690119,12.6099549 46.8742469,9.03867973 43,3.82 C39.1257531,9.03867973 33.4309881,12.6099549 27.046,13.825 Z" id="Shape" fill="#000000"/><path d="M43,43.417 C42.8194052,43.4171848 42.6421309,43.3684604 42.487,43.276 C39.4519366,41.4856335 36.6431173,39.3368833 34.121,36.876 C31.721,34.476 29.894,24.481 29.216,16.216 C29.1770863,15.7424323 29.4767931,15.3068752 29.933,15.174 C34.6231956,13.8051293 38.8780973,11.2430232 42.282,7.738 C42.6819804,7.34985314 43.3180196,7.34985314 43.718,7.738 C47.1219802,11.2438625 51.3772538,13.8066743 56.068,15.176 C56.5238125,15.3088014 56.8234173,15.7437925 56.785,16.217 C56.269,22.585 54.654,34.103 51.879,36.878 C49.3568827,39.3388833 46.5480634,41.4876335 43.513,43.278 C43.3576691,43.3697601 43.1804078,43.41779 43,43.417 Z M31.278,16.855 C32.078,25.755 33.913,33.841 35.535,35.464 C37.7988811,37.6654678 40.3029175,39.6056347 43,41.248 C45.6970825,39.6056347 48.2011189,37.6654678 50.465,35.464 C52.124,33.805 53.926,25.884 54.724,16.856 C50.3329002,15.4432159 46.322791,13.0454963 43,9.846 C39.6780727,13.0453836 35.6685571,15.4428154 31.278,16.855 Z" id="Shape" fill="#000000"/></g></g></svg>
