<?xml version="1.0" encoding="UTF-8"?>
<svg xmlns="http://www.w3.org/2000/svg" xmlns:xlink="http://www.w3.org/1999/xlink" width="512" height="512" viewBox="0 0 60 61" version="1.1"><!-- Generator: Sketch 51.3 (57544) - http://www.bohemiancoding.com/sketch --><title>019 - Introvert</title><desc>Created with Sketch.</desc><defs/><g id="Page-1" stroke="none" stroke-width="1" fill="none" fill-rule="evenodd"><g id="019---Introvert" transform="translate(-1.000000, 0.000000)" fill-rule="nonzero"><path d="M47.26,37.71 C45.9803538,40.6319437 45.5006323,43.8415908 45.87,47.01 C46.0951005,49.0721875 46.5033794,51.1102353 47.09,53.1 C47.4066015,54.1331686 47.8045116,55.1396471 48.28,56.11 C48.8738098,57.0143772 49.4082676,57.956359 49.88,58.93 L24.78,59 L24.78,58.99 C24.7,58.69 23.19,52.81 19.85,51.3 C19.23,51.52 18.57,51.74 17.9,51.97 C15.6789002,52.7404523 13.4191713,53.3946722 11.13,53.93 C10.4993821,54.0806865 9.83512584,53.9878335 9.27,53.67 C8.62676625,53.2742562 8.14753634,52.660132 7.92,51.94 C7.65806229,51.2276891 7.56229323,50.4649569 7.64,49.71 C7.87036773,48.9391054 7.94848689,48.1307419 7.87,47.33 C7.61,46.32 6.65,46.07 5.89,45.53 C5.27,45.09 6.38,43.68 6.38,43.68 C6.38,43.68 5.2,42.81 4.78,42.44 C4.34,42.07 4.96,41.45 5.51,40.28 C5.73694079,39.7719796 5.80323378,39.2067446 5.7,38.66 C5.49,37.59 3.87,37.19 3.07,36.59 C2.69,36.31 2.08,35.89 2.01,35.38 C1.9,34.67 2.74,33.67 3.15,33.17 C4.89454657,30.9217816 6.38996718,28.4908848 7.61,25.92 C7.77010631,25.6486227 7.86589137,25.3441631 7.89,25.03 C7.87,23.6 5.8,23.01 5.61,21.62 C5.58022555,21.2120559 5.65239212,20.803112 5.82,20.43 C6.39667192,19.2042401 6.89109856,17.9414478 7.3,16.65 C7.54612792,15.4653226 7.86336869,14.2965408 8.25,13.15 C9.08859812,10.8496676 10.3808376,8.74127689 12.05,6.95 C14.5,4.36 18.12,3.08 21.54,2.4 C24.5813721,1.73504394 27.6655865,1.28393999 30.77,1.05 C30.87,1.04 30.97,1.04 31.07,1.03 C37.47,0.71 42.53,2.88 47.49,6.77 C50.1943357,8.78046229 52.1705976,11.6167315 53.12,14.85 C53.8445851,17.5214574 54.1846722,20.2825609 54.13,23.05 C54.110834,25.7831121 53.3129958,28.4541358 51.83,30.75 C50.34,33.11 48.39,35.14 47.26,37.71 Z" id="Shape" fill="#549414"/><path d="M44.26,37.71 C42.9803538,40.6319437 42.5006323,43.8415908 42.87,47.01 C43.0951005,49.0721875 43.5033794,51.1102353 44.09,53.1 C44.4066015,54.1331686 44.8045116,55.1396471 45.28,56.11 C45.8738098,57.0143772 46.4082676,57.956359 46.88,58.93 L24.78,58.99 C24.7,58.69 23.19,52.81 19.85,51.3 C19.23,51.52 18.57,51.74 17.9,51.97 C17.5823905,51.6995596 17.2290765,51.4741116 16.85,51.3 C14.44,52.14 11.5,53.11 9.27,53.67 C8.62676625,53.2742562 8.14753634,52.660132 7.92,51.94 C7.65806229,51.2276891 7.56229323,50.4649569 7.64,49.71 C7.87036773,48.9391054 7.94848689,48.1307419 7.87,47.33 C7.61,46.32 6.65,46.07 5.89,45.53 C5.27,45.09 6.38,43.68 6.38,43.68 C6.38,43.68 5.2,42.81 4.78,42.44 C4.34,42.07 4.96,41.45 5.51,40.28 C5.73694079,39.7719796 5.80323378,39.2067446 5.7,38.66 C5.49,37.59 3.87,37.19 3.07,36.59 C2.69,36.31 2.08,35.89 2.01,35.38 C1.9,34.67 2.74,33.67 3.15,33.17 C4.89454657,30.9217816 6.38996718,28.4908848 7.61,25.92 C7.77010631,25.6486227 7.86589137,25.3441631 7.89,25.03 C7.87,23.6 5.8,23.01 5.61,21.62 C5.58022555,21.2120559 5.65239212,20.803112 5.82,20.43 C6.39667192,19.2042401 6.89109856,17.9414478 7.3,16.65 C7.54612792,15.4653226 7.86336869,14.2965408 8.25,13.15 C9.08859812,10.8496676 10.3808376,8.74127689 12.05,6.95 C14.5,4.36 18.12,3.08 21.54,2.4 C24.5813721,1.73504394 27.6655865,1.28393999 30.77,1.05 C35.93,1.37 40.25,3.44 44.49,6.77 C47.1943357,8.78046229 49.1705976,11.6167315 50.12,14.85 C50.8445851,17.5214574 51.1846722,20.2825609 51.13,23.05 C51.110834,25.7831121 50.3129958,28.4541358 48.83,30.75 C47.34,33.11 45.39,35.14 44.26,37.71 Z" id="Shape" fill="#60A917"/><ellipse id="Oval" fill="#FFE0B2" cx="40" cy="20.929" rx="3" ry="2.929"/><path d="M39.714,23.857 L40.285,23.857 C41.5354038,23.8567347 42.734685,24.3532698 43.6189478,25.237345 C44.5032106,26.1214203 45,27.3205962 45,28.571 L45,29 L35,29 L35,28.571 C35,25.9675297 37.1105297,23.857 39.714,23.857 Z" id="Shape" fill="#673AB7"/><path d="M47,7.93 L40,14 L38.5,12.7 L33,7.93 L37,7.93 L37,2 C37,1.44771525 37.4477153,1 38,1 L42,1 C42.5522847,1 43,1.44771525 43,2 L43,7.93 L47,7.93 Z" id="Shape" fill="#6A1B9A"/><path d="M47,39.07 L43,39.07 L43,45 C43,45.5522847 42.5522847,46 42,46 L38,46 C37.4477153,46 37,45.5522847 37,45 L37,39.07 L33,39.07 L38.5,34.3 L40,33 L47,39.07 Z" id="Shape" fill="#6A1B9A"/><path d="M44,7.93 L38.5,12.7 L33,7.93 L37,7.93 L37,2 C37,1.44771525 37.4477153,1 38,1 L39,1 C39.5522847,1 40,1.44771525 40,2 L40,7.93 L44,7.93 Z" id="Shape" fill="#9D27B0"/><path d="M44,39.07 L40,39.07 L40,45 C40,45.5522847 39.5522847,46 39,46 L38,46 C37.4477153,46 37,45.5522847 37,45 L37,39.07 L33,39.07 L38.5,34.3 L44,39.07 Z" id="Shape" fill="#9D27B0"/><path d="M53.067,30 L53.067,26 L59,26 C59.5522847,26 60,25.5522847 60,25 L60,21 C60,20.4477153 59.5522847,20 59,20 L53.067,20 L53.067,16 L47,23 L53.067,30 Z" id="Shape" fill="#9D27B0"/><path d="M60,21 L60,25 C60,25.5522847 59.5522847,26 59,26 L56,26 C56.5522847,26 57,25.5522847 57,25 L57,21 C57,20.4477153 56.5522847,20 56,20 L59,20 C59.5522847,20 60,20.4477153 60,21 Z" id="Shape" fill="#6A1B9A"/><path d="M26.933,30 L26.933,26 L21,26 C20.4477153,26 20,25.5522847 20,25 L20,21 C20,20.4477153 20.4477153,20 21,20 L26.933,20 L26.933,16 L33,23 L26.933,30 Z" id="Shape" fill="#9D27B0"/><path d="M10.511,55 C8.86145152,54.9690108 7.4263849,53.8624583 6.977,52.275 C6.66129272,51.4143284 6.54869822,50.4923539 6.648,49.581 C6.682,49.318 6.739,49.05 6.798,48.781 C6.91941128,48.3932674 6.95356021,47.9834802 6.898,47.581 C6.817,47.267 6.586,47.11 5.998,46.774 C5.765,46.641 5.528,46.505 5.306,46.349 C4.98074391,46.1171358 4.76606133,45.7609003 4.713,45.365 C4.67448978,44.8623148 4.78770505,44.359639 5.038,43.922 C4.698,43.661 4.325,43.367 4.109,43.172 C3.185,42.417 3.798,41.333 4.164,40.686 C4.299,40.449 4.455,40.174 4.604,39.854 C4.7416535,39.5365296 4.78135002,39.1851805 4.718,38.845 C4.667,38.586 3.942,38.216 3.51,37.995 C3.14797678,37.8240989 2.80078202,37.6234083 2.472,37.395 C1.75470729,36.9902386 1.23115797,36.313086 1.02,35.517 C0.86,34.487 1.62,33.458 2.345,32.575 C4.05560327,30.369443 5.52247783,27.985227 6.72,25.464 C6.79697882,25.3281355 6.85421996,25.1820023 6.89,25.03 C6.89,24.755 6.565,24.439 6.076,23.991 C5.3374331,23.4449531 4.82021123,22.6511932 4.619,21.755 C4.56192334,21.1842424 4.65284498,20.6084053 4.883,20.083 C5.062,19.611 5.266,19.155 5.47,18.699 C5.82566937,17.9679886 6.11224857,17.2053397 6.326,16.421 L6.426,15.999 C6.65602311,14.9179422 6.95190812,13.8519547 7.312,12.807 C8.19404573,10.3778111 9.55841114,8.15217091 11.323,6.264 C13.559,3.9 16.836,2.316 21.345,1.419 C24.5310865,0.720598351 27.7640828,0.25668862 31.018,0.031 C31.522,0.01 32.017,0 32.5,0 C33.0522847,3.38176876e-17 33.5,0.44771525 33.5,1 C33.5,1.55228475 33.0522847,2 32.5,2 C32.044,2 31.577,2.009 31.112,2.029 C27.9592824,2.25063284 24.826955,2.7021666 21.74,3.38 C17.704,4.18 14.689,5.615 12.776,7.637 C11.1965696,9.32915494 9.97605599,11.323545 9.188,13.5 C8.85614522,14.4674021 8.58396707,15.4542566 8.373,16.455 L8.273,16.881 C8.03405513,17.788547 7.70821606,18.6709581 7.3,19.516 C7.111,19.937 6.923,20.357 6.76,20.786 C6.66364086,21.0015614 6.61063423,21.2339751 6.604,21.47 C6.649,21.796 7.03,22.146 7.434,22.517 C8.25904392,23.1003679 8.79170832,24.0118401 8.895,25.017 C8.87635428,25.4916102 8.74434083,25.9548574 8.51,26.368 C7.2548892,29.0038306 5.71756418,31.4957388 3.925,33.8 C3.163,34.727 3.005,35.1 3,35.247 C3.18518784,35.4261779 3.38598284,35.5884872 3.6,35.732 C3.86136569,35.9140729 4.13730073,36.0742824 4.425,36.211 C5.277,36.647 6.446,37.245 6.686,38.465 C6.82865982,39.2207273 6.73544627,40.0020454 6.419,40.703 C6.244,41.073 6.065,41.393 5.908,41.668 C5.859,41.755 5.808,41.851 5.758,41.938 C6.172,42.272 6.738,42.696 6.978,42.872 C7.19643076,43.0334948 7.33976225,43.2769033 7.37503403,43.5462515 C7.41030582,43.8155997 7.33448237,44.0877071 7.165,44.3 C7.01691908,44.4930204 6.88797779,44.6999963 6.78,44.918 L6.987,45.036 C7.87220583,45.4166291 8.54814599,46.1633751 8.839,47.082 C8.98564963,47.7876772 8.95576498,48.5186489 8.752,49.21 C8.706,49.419 8.658,49.627 8.632,49.837 C8.5729723,50.4418114 8.65336419,51.0521056 8.867,51.621 C9.08565875,52.5448173 9.99386067,53.1319066 10.926,52.952 C13.8403482,52.2516858 16.7117997,51.3835725 19.526,50.352 C20.0479091,50.1705745 20.6180744,50.4465909 20.7995,50.9685 C20.9809255,51.4904091 20.7049091,52.0605744 20.183,52.242 C17.2887222,53.3027843 14.334635,54.19265 11.336,54.907 C11.0649467,54.96639 10.7884727,54.9975562 10.511,55 Z M5.411,41.659 L5.443,41.688 C5.43377066,41.6766361 5.42374541,41.6659425 5.413,41.656 L5.411,41.659 Z" id="Shape" fill="#000000"/><path d="M51.691,12.49 C51.3372194,12.4906455 51.0094278,12.3043138 50.829,12 C50.5534421,11.5215963 50.2485253,11.0607144 49.916,10.62 C49.5959373,10.1820236 49.683429,9.56873409 50.1131944,9.23772786 C50.5429599,8.90672162 51.1582608,8.97871888 51.5,9.4 C51.8812123,9.90516012 52.2311979,10.4331442 52.548,10.981 C52.7302993,11.2901039 52.7329948,11.6731903 52.5550632,11.9848289 C52.3771317,12.2964675 52.0458569,12.4888719 51.687,12.489 L51.691,12.49 Z" id="Shape" fill="#000000"/><path d="M48.669,36.22 C48.3002926,36.2196866 47.9616707,36.0165098 47.78789,35.6913244 C47.6141093,35.366139 47.6333672,34.9717094 47.838,34.665 C48.363,33.877 48.928,33.11 49.493,32.342 C49.820054,31.896627 50.4451081,31.7984042 50.893,32.122 C51.1073248,32.2767954 51.250992,32.5107407 51.2921097,32.7719037 C51.3332274,33.0330666 51.2683934,33.2998384 51.112,33.513 L51.101,33.528 C50.555,34.271 50.008,35.013 49.501,35.775 C49.3154754,36.0530697 49.0032785,36.22005 48.669,36.22 Z" id="Shape" fill="#000000"/><path d="M24.78,60 C24.3194886,59.9998779 23.9186017,59.6852787 23.809,59.238 C23.421,57.657 21.88,53.314 19.438,52.211 C19.0639436,52.0419148 18.8312137,51.6614066 18.8510746,51.25139 C18.8709354,50.8413735 19.1393525,50.4851405 19.528,50.353 C20.57,49.999 21.515,49.669 22.258,49.409 C22.951,49.167 23.473,48.985 23.744,48.898 C27.901,47.583 28.744,46.082 28.72,45.053 C28.7138345,44.7872547 28.8137271,44.5299897 28.9976105,44.338038 C29.1814939,44.1460862 29.4342349,44.0352448 29.7,44.03 L29.724,44.03 C30.2670463,44.0298436 30.7109669,44.4631101 30.724,45.006 C30.782,47.498 28.64,49.449 24.356,50.806 C24.097,50.889 23.592,51.065 22.922,51.299 L22.022,51.614 C23.671106,53.4424992 24.8739191,55.6283742 25.536,58 L48.218,57.937 L48.151,57.837 C47.8630969,57.4195592 47.6041562,56.9828684 47.376,56.53 C46.879054,55.5216399 46.4640482,54.4749292 46.135,53.4 C46.035,53.079 45.899,52.667 45.748,52.216 C45.391031,51.2254995 45.0905481,50.2155431 44.848,49.191 C44.7552623,48.6537634 45.1099372,48.141244 45.6453949,48.0387328 C46.1808525,47.9362216 46.6997493,48.2814991 46.812,48.815 C47.0413237,49.7508731 47.3193691,50.6741305 47.645,51.581 C47.803,52.052 47.945,52.481 48.045,52.813 C48.3433983,53.7893235 48.7206397,54.7397846 49.173,55.655 C49.3640492,56.0298282 49.5802082,56.3913183 49.82,56.737 C50.2447748,57.3198965 50.585758,57.9594505 50.833,58.637 C50.9284293,58.9404437 50.8737998,59.2711879 50.6858608,59.5278273 C50.4979218,59.7844667 50.199095,59.9363833 49.881,59.937 L24.781,60.007 L24.78,60 Z" id="Shape" fill="#000000"/><path d="M11.194,18.567 C10.8884083,18.5671753 10.5995104,18.4276105 10.4097039,18.1881114 C10.2198975,17.9486123 10.1500194,17.635471 10.22,17.338 L10.32,16.905 C10.5131052,15.9892005 10.7602032,15.085623 11.06,14.199 C11.7555725,12.2746582 12.8327926,10.5106976 14.227,9.013 C15.7596426,7.53520641 17.6473921,6.47750189 19.708,5.942 C20.0522577,5.82944433 20.4304681,5.91183364 20.6967164,6.1573819 C20.9629648,6.40293017 21.0756292,6.7732514 20.9912433,7.12547458 C20.9068574,7.47769775 20.6386132,7.75676066 20.29,7.855 C18.5634442,8.29302828 16.9771231,9.16414541 15.681,10.386 C14.4733406,11.6864483 13.5401016,13.2169058 12.937,14.886 C12.6667971,15.6958165 12.4434278,16.5205136 12.268,17.356 L12.168,17.791 C12.0636686,18.2449301 11.6597655,18.5667256 11.194,18.567 Z" id="Shape" fill="#000000"/><circle id="Oval" fill="#000000" cx="10" cy="21" r="1"/><path d="M40,24.857 C37.8396166,24.8179539 36.1161893,23.0417659 36.1422866,20.8811873 C36.1683839,18.7206087 37.9342106,16.9865669 40.0949068,16.9997143 C42.255603,17.0128617 44.0001971,18.7682638 44,20.929 C43.977463,23.1171278 42.1881762,24.8742074 40,24.857 Z M40,19 C38.9439236,19.0383285 38.115056,19.9188488 38.1405623,20.9753126 C38.1660685,22.0317764 39.0364624,22.8712714 40.093158,22.8585912 C41.1498536,22.845911 41.9998522,21.9857717 42,20.929 C41.9792021,19.8445561 41.0844873,18.9816037 40,19 Z" id="Shape" fill="#000000"/><path d="M45,30 L35,30 C34.4477153,30 34,29.5522847 34,29 L34,28.571 C34.0033071,25.4166158 36.5596158,22.8603071 39.714,22.857 L40.286,22.857 C43.4403842,22.8603071 45.9966929,25.4166158 46,28.571 L46,29 C46,29.5522847 45.5522847,30 45,30 Z M36.044,28 L43.956,28 C43.6725695,26.1920784 42.1160025,24.8590293 40.286,24.857 L39.714,24.857 C37.8839975,24.8590293 36.3274305,26.1920784 36.044,28 Z" id="Shape" fill="#000000"/><path d="M40,15 C39.7594244,15.000103 39.5268751,14.913474 39.345,14.756 L32.345,8.689 C32.0292631,8.41562389 31.9166701,7.97481981 32.0626298,7.58351425 C32.2085894,7.19220868 32.5823587,6.93282104 33,6.933 L36,6.933 L36,2 C36,0.8954305 36.8954305,2.02906125e-16 38,0 L42,0 C43.1045695,6.76353751e-17 44,0.8954305 44,2 L44,6.933 L47,6.933 C47.4176413,6.93282104 47.7914106,7.19220868 47.9373702,7.58351425 C48.0833299,7.97481981 47.9707369,8.41562389 47.655,8.689 L40.655,14.756 C40.4731249,14.913474 40.2405756,15.000103 40,15 Z M35.681,8.933 L40,12.677 L44.319,8.933 L43,8.933 C42.4477153,8.933 42,8.48528475 42,7.933 L42,2 L38,2 L38,7.933 C38,8.48528475 37.5522847,8.933 37,8.933 L35.681,8.933 Z" id="Shape" fill="#000000"/><path d="M42,47 L38,47 C36.8954305,47 36,46.1045695 36,45 L36,40.067 L33,40.067 C32.5823587,40.067179 32.2085894,39.8077913 32.0626298,39.4164858 C31.9166701,39.0251802 32.0292631,38.5843761 32.345,38.311 L39.345,32.244 C39.7208858,31.9181718 40.2791142,31.9181718 40.655,32.244 L47.655,38.311 C47.9707369,38.5843761 48.0833299,39.0251802 47.9373702,39.4164858 C47.7914106,39.8077913 47.4176413,40.067179 47,40.067 L44,40.067 L44,45 C44,46.1045695 43.1045695,47 42,47 Z M35.681,38.067 L37,38.067 C37.5522847,38.067 38,38.5147153 38,39.067 L38,45 L42,45 L42,39.067 C42,38.5147153 42.4477153,38.067 43,38.067 L44.319,38.067 L40,34.323 L35.681,38.067 Z" id="Shape" fill="#000000"/><path d="M53.066,31 C52.776235,30.9998177 52.5007961,30.8739549 52.311,30.655 L46.244,23.655 C45.9181718,23.2791142 45.9181718,22.7208858 46.244,22.345 L52.311,15.345 C52.5845362,15.0300509 53.0248417,14.9179868 53.4156607,15.063848 C53.8064797,15.2097092 54.0656978,15.5828491 54.066,16 L54.066,19 L59,19 C60.1045695,19 61,19.8954305 61,21 L61,25 C61,26.1045695 60.1045695,27 59,27 L54.066,27 L54.066,30 C54.0661045,30.4173751 53.8069761,30.7909187 53.416,30.937 C53.3039778,30.9785358 53.1854746,30.9998663 53.066,31 Z M48.323,23 L52.066,27.319 L52.066,26 C52.066,25.4477153 52.5137153,25 53.066,25 L59,25 L59,21 L53.066,21 C52.5137153,21 52.066,20.5522847 52.066,20 L52.066,18.681 L48.323,23 Z" id="Shape" fill="#000000"/><path d="M26.934,31 C26.8145254,30.9998663 26.6960222,30.9785358 26.584,30.937 C26.1930239,30.7909187 25.9338955,30.4173751 25.934,30 L25.934,27 L21,27 C19.8954305,27 19,26.1045695 19,25 L19,21 C19,19.8954305 19.8954305,19 21,19 L25.934,19 L25.934,16 C25.9343022,15.5828491 26.1935203,15.2097092 26.5843393,15.063848 C26.9751583,14.9179868 27.4154638,15.0300509 27.689,15.345 L33.756,22.345 C34.0818282,22.7208858 34.0818282,23.2791142 33.756,23.655 L27.689,30.655 C27.4992039,30.8739549 27.223765,30.9998177 26.934,31 Z M21,21 L21,25 L26.934,25 C27.4862847,25 27.934,25.4477153 27.934,26 L27.934,27.319 L31.677,23 L27.934,18.681 L27.934,20 C27.934,20.5522847 27.4862847,21 26.934,21 L21,21 Z" id="Shape" fill="#000000"/></g></g></svg>
