<?xml version="1.0" encoding="UTF-8"?>
<svg xmlns="http://www.w3.org/2000/svg" xmlns:xlink="http://www.w3.org/1999/xlink" width="512" height="512" viewBox="0 0 60 60" version="1.1"><!-- Generator: Sketch 51.3 (57544) - http://www.bohemiancoding.com/sketch --><title>020 - Relax</title><desc>Created with Sketch.</desc><defs/><g id="Page-1" stroke="none" stroke-width="1" fill="none" fill-rule="evenodd"><g id="020---Relax" transform="translate(-1.000000, -1.000000)" fill-rule="nonzero"><path d="M47.26,38.71 C45.9803538,41.6319437 45.5006323,44.8415908 45.87,48.01 C46.0951005,50.0721875 46.5033794,52.1102353 47.09,54.1 C47.4066015,55.1331686 47.8045116,56.1396471 48.28,57.11 C48.8738098,58.0143772 49.4082676,58.956359 49.88,59.93 L24.78,60 L24.78,59.99 C24.7,59.69 23.19,53.81 19.85,52.3 C19.23,52.52 18.57,52.74 17.9,52.97 C15.6789002,53.7404523 13.4191713,54.3946722 11.13,54.93 C10.4993821,55.0806865 9.83512584,54.9878335 9.27,54.67 C8.62676625,54.2742562 8.14753634,53.660132 7.92,52.94 C7.65806229,52.2276891 7.56229323,51.4649569 7.64,50.71 C7.87036773,49.9391054 7.94848689,49.1307419 7.87,48.33 C7.61,47.32 6.65,47.07 5.89,46.53 C5.27,46.09 6.38,44.68 6.38,44.68 C6.38,44.68 5.2,43.81 4.78,43.44 C4.34,43.07 4.96,42.45 5.51,41.28 C5.73694079,40.7719796 5.80323378,40.2067446 5.7,39.66 C5.49,38.59 3.87,38.19 3.07,37.59 C2.69,37.31 2.08,36.89 2.01,36.38 C1.9,35.67 2.74,34.67 3.15,34.17 C4.89454657,31.9217816 6.38996718,29.4908848 7.61,26.92 C7.77010631,26.6486227 7.86589137,26.3441631 7.89,26.03 C7.87,24.6 5.8,24.01 5.61,22.62 C5.58022555,22.2120559 5.65239212,21.803112 5.82,21.43 C6.39667192,20.2042401 6.89109856,18.9414478 7.3,17.65 C7.54612792,16.4653226 7.86336869,15.2965408 8.25,14.15 C9.08859812,11.8496676 10.3808376,9.74127689 12.05,7.95 C14.5,5.36 18.12,4.08 21.54,3.4 C24.5813721,2.73504394 27.6655865,2.28393999 30.77,2.05 C30.87,2.04 30.97,2.04 31.07,2.03 C37.47,1.71 42.53,3.88 47.49,7.77 C50.1943357,9.78046229 52.1705976,12.6167315 53.12,15.85 C53.8445851,18.5214574 54.1846722,21.2825609 54.13,24.05 C54.110834,26.7831121 53.3129958,29.4541358 51.83,31.75 C50.34,34.11 48.39,36.14 47.26,38.71 Z" id="Shape" fill="#90AC00"/><path d="M44.26,38.71 C42.9803538,41.6319437 42.5006323,44.8415908 42.87,48.01 C43.0951005,50.0721875 43.5033794,52.1102353 44.09,54.1 C44.4066015,55.1331686 44.8045116,56.1396471 45.28,57.11 C45.8738098,58.0143772 46.4082676,58.956359 46.88,59.93 L24.78,59.99 C24.7,59.69 23.19,53.81 19.85,52.3 C19.23,52.52 18.57,52.74 17.9,52.97 C17.5823905,52.6995596 17.2290765,52.4741116 16.85,52.3 C14.44,53.14 11.5,54.11 9.27,54.67 C8.62676625,54.2742562 8.14753634,53.660132 7.92,52.94 C7.65806229,52.2276891 7.56229323,51.4649569 7.64,50.71 C7.87036773,49.9391054 7.94848689,49.1307419 7.87,48.33 C7.61,47.32 6.65,47.07 5.89,46.53 C5.27,46.09 6.38,44.68 6.38,44.68 C6.38,44.68 5.2,43.81 4.78,43.44 C4.34,43.07 4.96,42.45 5.51,41.28 C5.73694079,40.7719796 5.80323378,40.2067446 5.7,39.66 C5.49,38.59 3.87,38.19 3.07,37.59 C2.69,37.31 2.08,36.89 2.01,36.38 C1.9,35.67 2.74,34.67 3.15,34.17 C4.89454657,31.9217816 6.38996718,29.4908848 7.61,26.92 C7.77010631,26.6486227 7.86589137,26.3441631 7.89,26.03 C7.87,24.6 5.8,24.01 5.61,22.62 C5.58022555,22.2120559 5.65239212,21.803112 5.82,21.43 C6.39667192,20.2042401 6.89109856,18.9414478 7.3,17.65 C7.54612792,16.4653226 7.86336869,15.2965408 8.25,14.15 C9.08859812,11.8496676 10.3808376,9.74127689 12.05,7.95 C14.5,5.36 18.12,4.08 21.54,3.4 C24.5813721,2.73504394 27.6655865,2.28393999 30.77,2.05 C35.93,2.37 40.25,4.44 44.49,7.77 C47.1943357,9.78046229 49.1705976,12.6167315 50.12,15.85 C50.8445851,18.5214574 51.1846722,21.2825609 51.13,24.05 C51.110834,26.7831121 50.3129958,29.4541358 48.83,31.75 C47.34,34.11 45.39,36.14 44.26,38.71 Z" id="Shape" fill="#A4C400"/><path d="M43.82,12.78 C43.7393849,13.2531084 43.6291684,13.7206934 43.49,14.18 C43.43,14.4 43.36,14.62 43.28,14.83 C43.23,15 43.16,15.16 43.1,15.32 C43.05,15.44 43,15.57 42.95,15.68 C42.82,16 42.68,16.29 42.54,16.57 C42.5154819,16.552744 42.4885156,16.5392609 42.46,16.53 C41.0366577,15.8837168 39.4155624,15.8262057 37.95,16.37 C37.5415665,15.0920697 36.9450181,13.8821211 36.18,12.78 L36.18,12.77 C35.67,9.88 36.11,6.25 39.21,2.38 C39.4009813,2.1383905 39.6920243,1.99745897 40,1.99745897 C40.3079757,1.99745897 40.5990187,2.1383905 40.79,2.38 C43.89,6.25 44.33,9.89 43.82,12.78 Z" id="Shape" fill="#E91E63"/><path d="M37.95,16.37 L37.86,16.4 C36.4092991,16.9568286 35.2303219,18.0533848 34.57,19.46 C33.3762794,18.8497674 32.0992721,18.4184826 30.78,18.18 C28.38,16.5 26.11,13.61 25.57,8.68 C25.5342379,8.37604663 25.6396327,8.07245274 25.8560427,7.85604274 C26.0724527,7.63963274 26.3760466,7.53423791 26.68,7.57 C31.6,8.11 34.49,10.38 36.18,12.77 L36.18,12.78 C36.9450181,13.8821211 37.5415665,15.0920697 37.95,16.37 Z" id="Shape" fill="#EF314C"/><path d="M34.53,19.54 C34.1814291,20.313317 34.0007901,21.1517547 34,22 C33.9972903,22.7001788 34.1226875,23.3949471 34.37,24.05 C34.23,24.09 34.1,24.14 33.96,24.19 C33.82,24.24 33.68,24.29 33.53,24.35 C33.0678466,24.5291064 32.6170143,24.7361553 32.18,24.97 C32.02,25.05 31.87,25.14 31.71,25.23 C31.55,25.32 31.4,25.41 31.25,25.51 C31.1,25.61 30.94,25.71 30.78,25.82 L30.77,25.82 C27.88,26.33 24.25,25.89 20.38,22.79 C20.1383905,22.5990187 19.997459,22.3079757 19.997459,22 C19.997459,21.6920243 20.1383905,21.4009813 20.38,21.21 C24.25,18.11 27.89,17.67 30.78,18.18 C32.0992721,18.4184826 33.3762794,18.8497674 34.57,19.46 C34.552744,19.4845181 34.5392609,19.5114844 34.53,19.54 Z" id="Shape" fill="#E91E63"/><path d="M37.46,27.43 C37.32,27.71 37.18,28 37.05,28.32 C37,28.43 36.95,28.56 36.9,28.68 C36.84,28.84 36.77,29 36.72,29.17 C36.64,29.38 36.57,29.6 36.51,29.82 C36.3708316,30.2793066 36.2606151,30.7468916 36.18,31.22 C34.5,33.62 31.61,35.89 26.68,36.43 C26.3760466,36.4657621 26.0724527,36.3603673 25.8560427,36.1439573 C25.6396327,35.9275473 25.5342379,35.6239534 25.57,35.32 C26.11,30.4 28.38,27.51 30.77,25.82 L30.78,25.82 C30.94,25.71 31.09,25.6 31.25,25.51 C31.41,25.42 31.56,25.32 31.71,25.23 C31.86,25.14 32.02,25.05 32.18,24.97 C32.6170143,24.7361553 33.0678466,24.5291064 33.53,24.35 C33.67,24.29 33.82,24.24 33.96,24.19 C34.1,24.14 34.23,24.09 34.37,24.05 L34.4,24.14 C34.9510035,25.5943268 36.0493471,26.7752256 37.46,27.43 Z" id="Shape" fill="#EF314C"/><path d="M40.79,41.62 C40.5990187,41.8616095 40.3079757,42.002541 40,42.002541 C39.6920243,42.002541 39.4009813,41.8616095 39.21,41.62 C36.11,37.75 35.67,34.11 36.18,31.22 C36.2606151,30.7468916 36.3708316,30.2793066 36.51,29.82 C36.57,29.6 36.64,29.38 36.72,29.17 C36.77,29 36.84,28.84 36.9,28.68 L37.05,28.32 C37.18,28 37.32,27.71 37.46,27.43 C37.4845181,27.447256 37.5114844,27.4607391 37.54,27.47 C38.963745,28.112193 40.5819501,28.1731896 42.05,27.64 C42.3473449,28.563024 42.742946,29.4514502 43.23,30.29 C43.31,30.44 43.4,30.59 43.5,30.75 C43.6,30.91 43.71,31.06 43.82,31.22 L43.82,31.23 C44.33,34.12 43.89,37.75 40.79,41.62 Z" id="Shape" fill="#E91E63"/><path d="M54.43,35.32 C54.4657621,35.6239534 54.3603673,35.9275473 54.1439573,36.1439573 C53.9275473,36.3603673 53.6239534,36.4657621 53.32,36.43 C52.6117713,36.3590721 51.9098225,36.2353954 51.22,36.06 C48.2326189,35.4405075 45.5895277,33.7153548 43.82,31.23 L43.82,31.22 C43.71,31.06 43.6,30.91 43.5,30.75 C43.4,30.59 43.31,30.44 43.23,30.29 C42.742946,29.4514502 42.3473449,28.563024 42.05,27.64 L42.14,27.61 C43.2342364,27.189102 44.1802663,26.4552333 44.86,25.5 C45.0805173,25.1991326 45.2714066,24.8776347 45.43,24.54 C45.71,24.68 46,24.82 46.32,24.95 L46.68,25.1 C46.84,25.16 47,25.23 47.17,25.28 C47.38,25.36 47.6,25.43 47.82,25.49 C48.2793066,25.6291684 48.7468916,25.7393849 49.22,25.82 C51.61,27.5 53.88,30.38 54.43,35.32 Z" id="Shape" fill="#BB193B"/><path d="M59.62,22.79 C56.9237887,25.1651806 53.3515015,26.2942266 49.78,25.9 C49.59,25.88 49.4,25.85 49.22,25.82 C48.7468916,25.7393849 48.2793066,25.6291684 47.82,25.49 C47.6,25.43 47.38,25.36 47.17,25.28 C47,25.23 46.84,25.16 46.68,25.1 L46.32,24.95 C46,24.82 45.71,24.68 45.43,24.54 C45.447256,24.5154819 45.4607391,24.4885156 45.47,24.46 C45.8205338,23.6873302 46.0012652,22.8484639 46,22 C46.0008909,21.2999816 45.8755523,20.6055384 45.63,19.95 C45.77,19.91 45.9,19.86 46.04,19.81 C46.18,19.76 46.33,19.71 46.47,19.65 C46.9321534,19.4708936 47.3829857,19.2638447 47.82,19.03 C47.98,18.95 48.13,18.86 48.29,18.77 C48.45,18.68 48.6,18.59 48.75,18.49 C48.9,18.39 49.06,18.29 49.22,18.18 C49.4,18.15 49.59,18.12 49.78,18.1 C53.3515015,17.7057734 56.9237887,18.8348194 59.62,21.21 C59.8616095,21.4009813 60.002541,21.6920243 60.002541,22 C60.002541,22.3079757 59.8616095,22.5990187 59.62,22.79 Z" id="Shape" fill="#AD1457"/><path d="M54.43,8.68 C53.88,13.62 51.61,16.5 49.22,18.18 C49.06,18.29 48.91,18.4 48.75,18.49 C48.59,18.58 48.44,18.68 48.29,18.77 C48.14,18.86 47.98,18.95 47.82,19.03 C47.3829857,19.2638447 46.9321534,19.4708936 46.47,19.65 C46.33,19.71 46.18,19.76 46.04,19.81 C45.9,19.86 45.77,19.91 45.63,19.95 C45.62,19.92 45.61,19.9 45.6,19.87 C45.4691187,19.521722 45.3050293,19.1868455 45.11,18.87 C44.4959814,17.8690942 43.6026471,17.0696122 42.54,16.57 C42.68,16.29 42.82,16 42.95,15.68 C43,15.57 43.05,15.44 43.1,15.32 C43.16,15.16 43.23,15 43.28,14.83 C43.36,14.62 43.43,14.4 43.49,14.18 C43.6291684,13.7206934 43.7393849,13.2531084 43.82,12.78 C45.5835244,10.2865074 48.2287479,8.55638826 51.22,7.94 C51.9098225,7.76460463 52.6117713,7.64092793 53.32,7.57 C53.6239534,7.53423791 53.9275473,7.63963274 54.1439573,7.85604274 C54.3603673,8.07245274 54.4657621,8.37604663 54.43,8.68 Z" id="Shape" fill="#BB193B"/><path d="M51.43,35.32 C51.4614651,35.5847999 51.3858653,35.8511993 51.22,36.06 C48.2326189,35.4405075 45.5895277,33.7153548 43.82,31.23 L43.82,31.22 C43.71,31.06 43.6,30.91 43.5,30.75 C43.4,30.59 43.31,30.44 43.23,30.29 C42.742946,29.4514502 42.3473449,28.563024 42.05,27.64 L42.14,27.61 C43.2342364,27.189102 44.1802663,26.4552333 44.86,25.5 C45.3059726,25.6358301 45.7602511,25.7427192 46.22,25.82 C48.61,27.5 50.88,30.38 51.43,35.32 Z" id="Shape" fill="#EF314C"/><path d="M56.62,22.79 C54.6715424,24.4393679 52.3037675,25.515944 49.78,25.9 C49.59,25.88 49.4,25.85 49.22,25.82 C48.7468916,25.7393849 48.2793066,25.6291684 47.82,25.49 C47.6,25.43 47.38,25.36 47.17,25.28 C47,25.23 46.84,25.16 46.68,25.1 L46.32,24.95 C46,24.82 45.71,24.68 45.43,24.54 C45.447256,24.5154819 45.4607391,24.4885156 45.47,24.46 C45.8205338,23.6873302 46.0012652,22.8484639 46,22 C46.0008909,21.2999816 45.8755523,20.6055384 45.63,19.95 C45.77,19.91 45.9,19.86 46.04,19.81 C46.18,19.76 46.33,19.71 46.47,19.65 C46.9321534,19.4708936 47.3829857,19.2638447 47.82,19.03 C47.98,18.95 48.13,18.86 48.29,18.77 C48.45,18.68 48.6,18.59 48.75,18.49 C48.9,18.39 49.06,18.29 49.22,18.18 C49.4,18.15 49.59,18.12 49.78,18.1 C52.3037675,18.484056 54.6715424,19.5606321 56.62,21.21 C56.8616095,21.4009813 57.002541,21.6920243 57.002541,22 C57.002541,22.3079757 56.8616095,22.5990187 56.62,22.79 Z" id="Shape" fill="#E91E63"/><path d="M51.43,8.68 C50.88,13.62 48.61,16.5 46.22,18.18 C46.06,18.29 45.91,18.4 45.75,18.49 C45.59,18.58 45.44,18.68 45.29,18.77 C45.23,18.8 45.17,18.84 45.11,18.87 C44.4959814,17.8690942 43.6026471,17.0696122 42.54,16.57 C42.68,16.29 42.82,16 42.95,15.68 C43,15.57 43.05,15.44 43.1,15.32 C43.16,15.16 43.23,15 43.28,14.83 C43.36,14.62 43.43,14.4 43.49,14.18 C43.6291684,13.7206934 43.7393849,13.2531084 43.82,12.78 C45.5835244,10.2865074 48.2287479,8.55638826 51.22,7.94 C51.3858653,8.1488007 51.4614651,8.41520012 51.43,8.68 Z" id="Shape" fill="#EF314C"/><path d="M45,22 C45.0045433,24.5925052 43.0316284,26.7607908 40.4502101,27.0003392 C37.8687917,27.2398877 35.5305796,25.4716628 35.0579987,22.9225901 C34.5854179,20.3735175 36.1343909,17.8846347 38.6301255,17.1829132 C41.12586,16.4811917 43.7449168,17.7981566 44.67,20.22 C44.8868314,20.7884686 44.9986449,21.3915835 45,22 Z" id="Shape" fill="#F3D55B"/><path d="M38.22,17.33 C36.9830902,17.8009674 35.9833753,18.7431448 35.44,19.95 C35.18,19.79 34.89,19.63 34.57,19.46 C35.2303219,18.0533848 36.4092991,16.9568286 37.86,16.4 L37.95,16.37 C38.06,16.71 38.15,17.03 38.22,17.33 Z" id="Shape" fill="#FF5364"/><path d="M35,22 C35.0003712,22.6085076 35.1122174,23.211799 35.33,23.78 C35.0633333,23.84 34.7733333,23.92 34.46,24.02 L34.37,24.05 C34.1226875,23.3949471 33.9972903,22.7001788 34,22 C34.0007901,21.1517547 34.1814291,20.313317 34.53,19.54 C34.5392609,19.5114844 34.552744,19.4845181 34.57,19.46 C34.89,19.63 35.18,19.79 35.44,19.95 C35.1508468,20.5948021 35.0009182,21.2933329 35,22 Z" id="Shape" fill="#DF4D60"/><path d="M37.95,26.56 C37.79,26.82 37.63,27.11 37.46,27.43 C36.0493471,26.7752256 34.9510035,25.5943268 34.4,24.14 L34.37,24.05 L34.46,24.02 C34.77,23.93 35.06,23.85 35.33,23.78 C35.8009674,25.0169098 36.7431448,26.0166247 37.95,26.56 Z" id="Shape" fill="#FF5364"/><path d="M42.05,27.64 C40.5819501,28.1731896 38.963745,28.112193 37.54,27.47 C37.5114844,27.4607391 37.4845181,27.447256 37.46,27.43 C37.63,27.11 37.79,26.82 37.95,26.56 C39.1609574,27.1057621 40.5397153,27.1453609 41.78,26.67 C41.79,26.71 41.8,26.75 41.81,26.8 C41.83,26.88 41.85,26.96 41.88,27.05 C41.91,27.14 41.93,27.24 41.96,27.34 C41.99,27.44 42.01,27.52 42.04,27.61 C42.047654,27.6180001 42.0513232,27.6290075 42.05,27.64 Z" id="Shape" fill="#DF4D60"/><path d="M45.43,24.54 C44.76716,25.9470495 43.5894884,27.0459711 42.14,27.61 L42.05,27.64 C42.0513232,27.6290075 42.047654,27.6180001 42.04,27.61 C42.01,27.52 41.99,27.43 41.96,27.34 C41.93,27.25 41.9,27.15 41.88,27.05 C41.86,26.95 41.83,26.88 41.81,26.8 C41.8,26.75 41.79,26.71 41.78,26.67 C43.0169098,26.1990326 44.0166247,25.2568552 44.56,24.05 C44.82,24.21 45.11,24.37 45.43,24.54 Z" id="Shape" fill="#FF5364"/><path d="M46,22 C46.0012652,22.8484639 45.8205338,23.6873302 45.47,24.46 C45.4607391,24.4885156 45.447256,24.5154819 45.43,24.54 C45.11,24.37 44.82,24.21 44.56,24.05 C45.1057621,22.8390426 45.1453609,21.4602847 44.67,20.22 C44.9366667,20.16 45.2266667,20.08 45.54,19.98 L45.63,19.95 C45.8755523,20.6055384 46.0008909,21.2999816 46,22 Z" id="Shape" fill="#DF4D60"/><path d="M45.63,19.95 L45.54,19.98 C45.23,20.07 44.94,20.15 44.67,20.22 C44.1990326,18.9830902 43.2568552,17.9833753 42.05,17.44 C42.21,17.18 42.37,16.89 42.54,16.57 C43.949528,17.2313126 45.0467963,18.4146412 45.6,19.87 C45.61,19.9 45.62,19.92 45.63,19.95 Z" id="Shape" fill="#FF5364"/><path d="M42.54,16.57 C42.37,16.89 42.21,17.18 42.05,17.44 C40.8390426,16.8942379 39.4602847,16.8546391 38.22,17.33 C38.15,17.03 38.06,16.71 37.95,16.37 C39.4155624,15.8262057 41.0366577,15.8837168 42.46,16.53 C42.4885156,16.5392609 42.5154819,16.552744 42.54,16.57 Z" id="Shape" fill="#DF4D60"/><path d="M45,22 C45.0045433,24.5925052 43.0316284,26.7607908 40.4502101,27.0003392 C37.8687917,27.2398877 35.5305796,25.4716628 35.0579987,22.9225901 C34.5854179,20.3735175 36.1343909,17.8846347 38.6301255,17.1829132 C41.12586,16.4811917 43.7449168,17.7981566 44.67,20.22 C44.8868314,20.7884686 44.9986449,21.3915835 45,22 Z" id="Shape" fill="#FFEB3A"/><circle id="Oval" fill="#FFDC00" cx="39.997" cy="22" r="3"/><path d="M10.511,56 C8.86145152,55.9690108 7.4263849,54.8624583 6.977,53.275 C6.66129272,52.4143284 6.54869822,51.4923539 6.648,50.581 C6.682,50.318 6.739,50.05 6.798,49.781 C6.91941128,49.3932674 6.95356021,48.9834802 6.898,48.581 C6.817,48.267 6.586,48.11 5.998,47.774 C5.765,47.641 5.528,47.505 5.306,47.349 C4.98074391,47.1171358 4.76606133,46.7609003 4.713,46.365 C4.67448978,45.8623148 4.78770505,45.359639 5.038,44.922 C4.698,44.661 4.325,44.367 4.109,44.172 C3.185,43.417 3.798,42.333 4.164,41.686 C4.299,41.449 4.455,41.174 4.604,40.854 C4.74159405,40.5365137 4.78128854,40.1851827 4.718,39.845 C4.667,39.586 3.942,39.216 3.51,38.995 C3.14797678,38.8240989 2.80078202,38.6234083 2.472,38.395 C1.75470729,37.9902386 1.23115797,37.313086 1.02,36.517 C0.86,35.487 1.62,34.458 2.345,33.575 C4.05560327,31.369443 5.52247783,28.985227 6.72,26.464 C6.79697882,26.3281355 6.85421996,26.1820023 6.89,26.03 C6.89,25.755 6.565,25.439 6.076,24.991 C5.3374331,24.4449531 4.82021123,23.6511932 4.619,22.755 C4.56192334,22.1842424 4.65284498,21.6084053 4.883,21.083 C5.062,20.611 5.266,20.155 5.47,19.699 C5.82566937,18.9679886 6.11224857,18.2053397 6.326,17.421 L6.426,16.999 C6.65602311,15.9179422 6.95190812,14.8519547 7.312,13.807 C8.19404573,11.3778111 9.55841114,9.15217091 11.323,7.264 C13.559,4.9 16.836,3.316 21.345,2.419 C24.5310865,1.72059835 27.7640828,1.25668862 31.018,1.031 C33.7365418,0.871362188 36.4615208,1.2054203 39.061,2.017 C39.4113989,2.11619623 39.6801708,2.39803459 39.7626342,2.75274444 C39.8450975,3.10745429 39.7282136,3.47895036 39.4575064,3.72254206 C39.1867993,3.96613376 38.805072,4.04330536 38.461,3.924 C36.089043,3.18348382 33.6026033,2.87856547 31.122,3.024 C27.9658376,3.24710784 24.8301719,3.70031214 21.74,4.38 C17.704,5.18 14.689,6.615 12.776,8.637 C11.1965696,10.3291549 9.97605599,12.323545 9.188,14.5 C8.85614522,15.4674021 8.58396707,16.4542566 8.373,17.455 L8.273,17.881 C8.03405513,18.788547 7.70821606,19.6709581 7.3,20.516 C7.111,20.937 6.923,21.357 6.76,21.786 C6.66364086,22.0015614 6.61063423,22.2339751 6.604,22.47 C6.649,22.796 7.03,23.146 7.434,23.517 C8.25904392,24.1003679 8.79170832,25.0118401 8.895,26.017 C8.87635428,26.4916102 8.74434083,26.9548574 8.51,27.368 C7.2548892,30.0038306 5.71756418,32.4957388 3.925,34.8 C3.163,35.727 3.005,36.1 3,36.247 C3.18518784,36.4261779 3.38598284,36.5884872 3.6,36.732 C3.86136569,36.9140729 4.13730073,37.0742824 4.425,37.211 C5.277,37.647 6.446,38.245 6.686,39.465 C6.82865982,40.2207273 6.73544627,41.0020454 6.419,41.703 C6.244,42.073 6.065,42.393 5.908,42.668 C5.859,42.755 5.808,42.851 5.758,42.938 C6.172,43.272 6.738,43.696 6.978,43.872 C7.19643076,44.0334948 7.33976225,44.2769033 7.37503403,44.5462515 C7.41030582,44.8155997 7.33448237,45.0877071 7.165,45.3 C7.01691908,45.4930204 6.88797779,45.6999963 6.78,45.918 L6.987,46.036 C7.87220583,46.4166291 8.54814599,47.1633751 8.839,48.082 C8.98564963,48.7876772 8.95576498,49.5186489 8.752,50.21 C8.706,50.419 8.658,50.627 8.632,50.837 C8.5729723,51.4418114 8.65336419,52.0521056 8.867,52.621 C9.08565875,53.5448173 9.99386067,54.1319066 10.926,53.952 C13.8403482,53.2516858 16.7117997,52.3835725 19.526,51.352 C20.0479091,51.1705745 20.6180744,51.4465909 20.7995,51.9685 C20.9809255,52.4904091 20.7049091,53.0605744 20.183,53.242 C17.2887222,54.3027843 14.334635,55.19265 11.336,55.907 C11.0649467,55.96639 10.7884727,55.9975562 10.511,56 Z M5.411,42.659 L5.443,42.688 C5.43377066,42.6766361 5.42374541,42.6659425 5.413,42.656 L5.411,42.659 Z" id="Shape" fill="#000000"/><path d="M24.78,61 C24.3194886,60.9998779 23.9186017,60.6852787 23.809,60.238 C23.421,58.657 21.88,54.314 19.438,53.211 C19.0639436,53.0419148 18.8312137,52.6614066 18.8510746,52.25139 C18.8709354,51.8413735 19.1393525,51.4851405 19.528,51.353 C20.57,50.999 21.515,50.669 22.258,50.409 C22.951,50.167 23.473,49.985 23.744,49.898 C27.901,48.583 28.744,47.082 28.72,46.053 C28.7138345,45.7872547 28.8137271,45.5299897 28.9976105,45.338038 C29.1814939,45.1460862 29.4342349,45.0352448 29.7,45.03 C29.96745,45.0153741 30.2290628,45.1118751 30.4229508,45.2966746 C30.6168387,45.4814741 30.7257789,45.7381563 30.724,46.006 C30.782,48.498 28.64,50.449 24.356,51.806 C24.097,51.889 23.592,52.065 22.922,52.299 L22.022,52.614 C23.671106,54.4424992 24.8739191,56.6283742 25.536,59 L48.218,58.937 L48.151,58.837 C47.8630969,58.4195592 47.6041562,57.9828684 47.376,57.53 C46.879054,56.5216399 46.4640482,55.4749292 46.135,54.4 C45.5288621,52.3528819 45.1078369,50.2554538 44.877,48.133 C44.4836273,44.7875409 44.9896868,41.3977013 46.343,38.313 C46.899675,37.0873924 47.5894908,35.9267446 48.4,34.852 C48.6100722,34.5629721 48.9583814,34.4079715 49.3137229,34.4453854 C49.6690645,34.4827993 49.9774536,34.7069437 50.1227229,35.0333854 C50.2679923,35.3598272 50.2280722,35.7389721 50.018,36.028 C49.2943158,36.9840586 48.6770033,38.0161543 48.177,39.106 C46.9645538,41.8647384 46.5105902,44.8971461 46.862,47.89 C47.0778071,49.8935347 47.4737419,51.8735435 48.045,53.806 C48.3434759,54.7837332 48.7210564,55.7355437 49.174,56.652 C49.3650492,57.0268282 49.5812082,57.3883183 49.821,57.734 C50.2457748,58.3168965 50.586758,58.9564505 50.834,59.634 C50.9294293,59.9374437 50.8747998,60.2681879 50.6868608,60.5248273 C50.4989218,60.7814667 50.200095,60.9333833 49.882,60.934 L24.782,61.004 L24.78,61 Z" id="Shape" fill="#000000"/><path d="M11.194,19.567 C10.8884083,19.5671753 10.5995104,19.4276105 10.4097039,19.1881114 C10.2198975,18.9486123 10.1500194,18.635471 10.22,18.338 L10.32,17.905 C10.5131052,16.9892005 10.7602032,16.085623 11.06,15.199 C11.7555725,13.2746582 12.8327926,11.5106976 14.227,10.013 C15.7596426,8.53520641 17.6473921,7.47750189 19.708,6.942 C20.0522577,6.82944433 20.4304681,6.91183364 20.6967164,7.1573819 C20.9629648,7.40293017 21.0756292,7.7732514 20.9912433,8.12547458 C20.9068574,8.47769775 20.6386132,8.75676066 20.29,8.855 C18.5634442,9.29302828 16.9771231,10.1641454 15.681,11.386 C14.4733406,12.6864483 13.5401016,14.2169058 12.937,15.886 C12.6667971,16.6958165 12.4434278,17.5205136 12.268,18.356 L12.168,18.791 C12.0636686,19.2449301 11.6597655,19.5667256 11.194,19.567 Z" id="Shape" fill="#000000"/><circle id="Oval" fill="#000000" cx="10" cy="22" r="1"/><path d="M40,28 C36.6862915,28 34,25.3137085 34,22 C34,18.6862915 36.6862915,16 40,16 C43.3137085,16 46,18.6862915 46,22 C45.9966926,25.3123376 43.3123376,27.9966926 40,28 Z M40,18 C37.790861,18 36,19.790861 36,22 C36,24.209139 37.790861,26 40,26 C42.209139,26 44,24.209139 44,22 C44,19.790861 42.209139,18 40,18 Z" id="Shape" fill="#000000"/><path d="M42.047,18.44 C41.8645854,18.4403204 41.6856432,18.3901335 41.53,18.295 C41.0575959,18.0091371 40.9062853,17.3944937 41.192,16.922 C41.998939,15.5972689 42.5548864,14.135195 42.832,12.609 C43.415,9.303 42.465,6.073 40.007,3.009 C37.531,6.072 36.581,9.3 37.162,12.6 C37.1727764,12.6573701 37.1781333,12.7156267 37.178,12.774 C37.1857922,13.3079556 36.7726739,13.7538166 36.2396745,13.7866947 C35.7066751,13.8195728 35.2418913,13.4278653 35.184,12.897 C34.517,9.026 35.607,5.279 38.427,1.759 C38.8079916,1.27915895 39.3872995,0.999632755 40,1 C40.6106743,0.999400088 41.1881607,1.27783104 41.568,1.756 C44.402,5.293 45.49,9.061 44.803,12.956 C44.4810761,14.7249214 43.8370634,16.4196916 42.903,17.956 C42.7221794,18.2561723 42.3974275,18.4397937 42.047,18.44 Z" id="Shape" fill="#000000"/><path d="M30.776,19.18 C30.569976,19.1812071 30.3686776,19.1183013 30.2,19 C26.9096407,16.593271 24.850233,12.8561797 24.573,8.789 C24.5043286,8.18397811 24.7150203,7.580626 25.1453876,7.14986941 C25.5757549,6.71911282 26.1789163,6.50787564 26.784,6.576 C31.272,7.068 34.706,8.958 36.994,12.192 C37.016,12.223 37.035,12.254 37.054,12.292 C38.0526389,13.7512133 38.7761918,15.3806476 39.189,17.1 C39.2856946,17.451614 39.1833213,17.8279865 38.9218475,18.0821787 C38.6603736,18.3363709 38.2812605,18.4280761 37.932517,18.3214918 C37.5837735,18.2149075 37.320699,17.9269346 37.246,17.57 C36.8841208,16.0620689 36.2445481,14.6347297 35.36,13.361 C35.3408176,13.3336404 35.3231252,13.3052659 35.307,13.276 C33.2276662,10.4985286 30.0313428,8.77692495 26.568,8.569 C26.989,12.483 28.601,15.44 31.351,17.369 C31.708591,17.6195285 31.8623031,18.0730941 31.730703,18.489408 C31.5991029,18.905722 31.2126184,19.1885272 30.776,19.188 L30.776,19.18 Z" id="Shape" fill="#000000"/><path d="M28.7,27 C25.4110982,26.9279409 22.2497245,25.7138772 19.758,23.566 C19.279485,23.1854271 19.0006537,22.6074019 19.0006537,21.996 C19.0006537,21.3845981 19.279485,20.8065729 19.758,20.426 C23.296,17.592 27.068,16.505 30.958,17.191 C32.7288053,17.5117857 34.4254182,18.1558545 35.963,19.091 C36.4354796,19.3773596 36.5863596,19.9925204 36.3,20.465 C36.0136404,20.9374796 35.3984796,21.0883596 34.926,20.802 C33.6015417,19.9945038 32.1393613,19.4385159 30.613,19.162 C27.308,18.579 24.078,19.528 21.013,21.986 C24.08,24.462 27.305,25.413 30.604,24.831 C30.8950503,24.7829205 31.1926008,24.8641005 31.4189068,25.0533292 C31.6452128,25.2425579 31.7777906,25.5210352 31.782,25.816 C31.7820535,26.3222972 31.4036996,26.7487506 30.901,26.809 C30.1741375,26.935431 29.4377761,26.9993315 28.7,27 Z" id="Shape" fill="#000000"/><path d="M26.563,37.436 C25.9931134,37.4367362 25.4499776,37.1943239 25.0699687,36.7696306 C24.6899598,36.3449372 24.5091722,35.7783014 24.573,35.212 C25.065,30.725 26.955,27.291 30.19,25.003 C30.221,24.982 30.252,24.962 30.284,24.944 C31.7434144,23.9454999 33.3727594,23.2216478 35.092,22.808 C35.443614,22.7113054 35.8199865,22.8136787 36.0741787,23.0751525 C36.3283709,23.3366264 36.4200761,23.7157395 36.3134918,24.064483 C36.2069075,24.4132265 35.9189346,24.676301 35.562,24.751 C34.0544633,25.113129 32.6274969,25.7526867 31.354,26.637 C31.326,26.656 31.298,26.674 31.269,26.691 C28.4917863,28.770112 26.7702125,31.9660143 26.562,35.429 C30.476,35.008 33.433,33.397 35.362,30.646 C35.6790115,30.1936788 36.3026788,30.0839886 36.755,30.401 C37.2073212,30.7180115 37.3170114,31.3416788 37,31.794 C34.5946517,35.0858683 30.8575705,37.1465702 26.79,37.424 C26.7146055,37.4320954 26.6388278,37.4361013 26.563,37.436 Z" id="Shape" fill="#000000"/><path d="M40,43 C39.3893454,43.0002645 38.8118219,42.7223612 38.431,42.245 C35.597,38.706 34.509,34.939 35.196,31.045 C35.5169116,29.2757969 36.1609927,27.5808467 37.096,26.045 C37.4021111,25.6257462 37.9781252,25.5104357 38.4220375,25.7795445 C38.8659499,26.0486534 39.030132,26.6126862 38.8,27.078 C37.9925038,28.4024583 37.4365159,29.8646387 37.16,31.391 C36.577,34.697 37.527,37.927 39.984,40.991 C42.461,37.924 43.411,34.697 42.83,31.4 C42.8192236,31.3426299 42.8138667,31.2843733 42.814,31.226 C42.7995837,30.6874552 43.214388,30.2342883 43.7521046,30.2011359 C44.2898213,30.1679834 44.7571515,30.5667631 44.809,31.103 C45.476,34.975 44.385,38.722 41.564,42.242 C41.1854327,42.7198202 40.6096098,42.9988955 40,43 Z" id="Shape" fill="#000000"/><path d="M53.433,37.437 C53.3588045,37.4371834 53.2846669,37.432842 53.211,37.424 C48.723,36.932 45.289,35.042 43.001,31.808 C42.979,31.777 42.96,31.746 42.941,31.713 C41.942774,30.2535563 41.219256,28.6242005 40.806,26.905 C40.7093054,26.553386 40.8116787,26.1770135 41.0731525,25.9228213 C41.3346264,25.6686291 41.7137395,25.5769239 42.062483,25.6835082 C42.4112265,25.7900925 42.674301,26.0780654 42.749,26.435 C43.1108792,27.9429311 43.7504519,29.3702703 44.635,30.644 C44.6541824,30.6713596 44.6718748,30.6997341 44.688,30.729 C46.7673338,33.5064714 49.9636572,35.2280751 53.427,35.436 C52.999,31.526 51.388,28.568 48.643,26.636 C48.3443784,26.4330805 48.1783247,26.0849494 48.208549,25.7251749 C48.2387734,25.3654003 48.4605821,25.0498533 48.7888735,24.8996002 C49.1171649,24.7493471 49.5009572,24.7877214 49.793,25 C53.027,27.274 54.921,30.708 55.422,35.207 C55.4870366,35.7737743 55.3069363,36.3413464 54.927009,36.7669261 C54.5470817,37.1925058 54.0034932,37.4355815 53.433,37.435 L53.433,37.437 Z" id="Shape" fill="#000000"/><path d="M51.294,27 C50.5396055,26.9990121 49.7867409,26.9320908 49.044,26.8 C47.2749257,26.4786254 45.5800579,25.8345757 44.044,24.9 C43.7383593,24.7147578 43.5547612,24.3805296 43.5623653,24.0232158 C43.5699694,23.6659021 43.7676205,23.3397873 44.0808653,23.1677158 C44.3941101,22.9956443 44.7753593,23.0037578 45.081,23.189 C46.4055089,23.9963928 47.8676695,24.5523732 49.394,24.829 C52.703,25.414 55.929,24.462 58.994,22.005 C55.925,19.527 52.694,18.576 49.394,19.16 C48.8499995,19.2560975 48.3310975,18.8930005 48.235,18.349 C48.1389025,17.8049995 48.5019995,17.2860975 49.046,17.19 C52.935,16.501 56.706,17.59 60.246,20.425 C60.724515,20.8055729 61.0033463,21.3835981 61.0033463,21.995 C61.0033463,22.6064019 60.724515,23.1844271 60.246,23.565 C57.751261,25.7145312 54.5862883,26.9289728 51.294,27 Z" id="Shape" fill="#000000"/><path d="M44.667,21.22 C44.1622417,21.217462 43.7385104,20.8391508 43.6790019,20.3379062 C43.6194934,19.8366615 43.9428671,19.369653 44.433,19.249 C45.9407952,18.8867222 47.3680632,18.2471813 48.642,17.363 C51.388,15.432 52.999,12.474 53.434,8.569 C49.519,8.992 46.562,10.604 44.634,13.353 C44.3040153,13.7641293 43.7115391,13.8484758 43.2799308,13.5457688 C42.8483224,13.2430619 42.7258381,12.6572805 43,12.207 C45.4043091,8.91380227 49.1419012,6.85245251 53.21,6.576 C53.814991,6.5070548 54.4184387,6.71747374 54.84939,7.14764645 C55.2803413,7.57781915 55.4918511,8.18088529 55.424,8.786 C54.924,13.286 53.029,16.724 49.795,18.998 C48.3157522,20.0272956 46.657341,20.7713762 44.905,21.192 C44.8270623,21.210764 44.7471645,21.2201638 44.667,21.22 Z" id="Shape" fill="#000000"/><circle id="Oval" fill="#000000" cx="39.997" cy="22" r="1"/></g></g></svg>
