<?xml version="1.0" encoding="UTF-8"?>
<svg xmlns="http://www.w3.org/2000/svg" xmlns:xlink="http://www.w3.org/1999/xlink" width="512" height="512" viewBox="0 0 60 60" version="1.1"><!-- Generator: Sketch 51.3 (57544) - http://www.bohemiancoding.com/sketch --><title>021 - Extrovert</title><desc>Created with Sketch.</desc><defs/><g id="Page-1" stroke="none" stroke-width="1" fill="none" fill-rule="evenodd"><g id="021---Extrovert" transform="translate(-1.000000, 0.000000)" fill-rule="nonzero"><path d="M47.26,37.71 C45.9803538,40.6319437 45.5006323,43.8415908 45.87,47.01 C46.0951005,49.0721875 46.5033794,51.1102353 47.09,53.1 C47.4048963,54.1305317 47.802868,55.1338218 48.28,56.1 C48.8718004,57.0090608 49.4061765,57.9542385 49.88,58.93 L24.78,59 L24.78,58.99 C24.7,58.69 23.19,52.81 19.85,51.3 C19.23,51.52 18.57,51.74 17.9,51.97 C15.6789002,52.7404523 13.4191713,53.3946722 11.13,53.93 C10.4993821,54.0806865 9.83512584,53.9878335 9.27,53.67 C8.62676625,53.2742562 8.14753634,52.660132 7.92,51.94 C7.65806229,51.2276891 7.56229323,50.4649569 7.64,49.71 C7.87036773,48.9391054 7.94848689,48.1307419 7.87,47.33 C7.61,46.32 6.65,46.07 5.89,45.53 C5.27,45.09 6.38,43.68 6.38,43.68 C6.38,43.68 5.2,42.81 4.78,42.43 C4.34,42.07 4.96,41.45 5.51,40.28 C5.73694079,39.7719796 5.80323378,39.2067446 5.7,38.66 C5.49,37.59 3.87,37.18 3.07,36.59 C2.69,36.31 2.08,35.89 2.01,35.38 C1.9,34.67 2.74,33.67 3.15,33.17 C4.89454657,30.9217816 6.38996718,28.4908848 7.61,25.92 C7.77010631,25.6486227 7.86589137,25.3441631 7.89,25.03 C7.87,23.6 5.8,23.01 5.61,21.62 C5.58022555,21.2120559 5.65239212,20.803112 5.82,20.43 C6.39667192,19.2042401 6.89109856,17.9414478 7.3,16.65 C7.54612792,15.4653226 7.86336869,14.2965408 8.25,13.15 C9.08859812,10.8496676 10.3808376,8.74127689 12.05,6.95 C14.5,4.36 18.12,3.08 21.54,2.4 C24.5813721,1.73504394 27.6655865,1.28393999 30.77,1.05 C30.87,1.04 30.97,1.04 31.07,1.03 C37.47,0.71 42.53,2.88 47.49,6.76 C50.1927291,8.77631392 52.1683037,11.6151058 53.12,14.85 C53.8451888,17.5213389 54.1852867,20.2825294 54.13,23.05 C54.110834,25.7831121 53.3129958,28.4541358 51.83,30.75 C50.34,33.1 48.39,35.14 47.26,37.71 Z" id="Shape" fill="#6A1B9A"/><path d="M44.26,37.71 C42.9803538,40.6319437 42.5006323,43.8415908 42.87,47.01 C43.0951005,49.0721875 43.5033794,51.1102353 44.09,53.1 C44.4048963,54.1305317 44.802868,55.1338218 45.28,56.1 C45.8718004,57.0090608 46.4061765,57.9542385 46.88,58.93 L24.78,58.99 C24.7,58.69 23.19,52.81 19.85,51.3 C19.23,51.52 18.57,51.74 17.9,51.97 C17.5823905,51.6995596 17.2290765,51.4741116 16.85,51.3 C14.44,52.14 11.5,53.11 9.27,53.67 C8.62676625,53.2742562 8.14753634,52.660132 7.92,51.94 C7.65806229,51.2276891 7.56229323,50.4649569 7.64,49.71 C7.87036773,48.9391054 7.94848689,48.1307419 7.87,47.33 C7.61,46.32 6.65,46.07 5.89,45.53 C5.27,45.09 6.38,43.68 6.38,43.68 C6.38,43.68 5.2,42.81 4.78,42.43 C4.34,42.07 4.96,41.45 5.51,40.28 C5.73694079,39.7719796 5.80323378,39.2067446 5.7,38.66 C5.49,37.59 3.87,37.18 3.07,36.59 C2.69,36.31 2.08,35.89 2.01,35.38 C1.9,34.67 2.74,33.67 3.15,33.17 C4.89454657,30.9217816 6.38996718,28.4908848 7.61,25.92 C7.77010631,25.6486227 7.86589137,25.3441631 7.89,25.03 C7.87,23.6 5.8,23.01 5.61,21.62 C5.58022555,21.2120559 5.65239212,20.803112 5.82,20.43 C6.39667192,19.2042401 6.89109856,17.9414478 7.3,16.65 C7.54612792,15.4653226 7.86336869,14.2965408 8.25,13.15 C9.08859812,10.8496676 10.3808376,8.74127689 12.05,6.95 C14.5,4.36 18.12,3.08 21.54,2.4 C24.5813721,1.73504394 27.6655865,1.28393999 30.77,1.05 C35.93,1.37 40.25,3.44 44.49,6.76 C47.1927291,8.77631392 49.1683037,11.6151058 50.12,14.85 C50.8451888,17.5213389 51.1852867,20.2825294 51.13,23.05 C51.110834,25.7831121 50.3129958,28.4541358 48.83,30.75 C47.34,33.1 45.39,35.14 44.26,37.71 Z" id="Shape" fill="#9D27B0"/><ellipse id="Oval" fill="#FFE0B2" cx="38" cy="20.929" rx="3" ry="2.929"/><path d="M37.714,23.857 L38.285,23.857 C39.5354038,23.8567347 40.734685,24.3532698 41.6189478,25.237345 C42.5032106,26.1214203 43,27.3205962 43,28.571 C43,28.8079302 42.8079302,29 42.571,29 L33.429,29 C33.1920698,29 33,28.8079302 33,28.571 C33,25.9675297 35.1105297,23.857 37.714,23.857 Z" id="Shape" fill="#02A9F4"/><path d="M45,7.07 L41,7.07 L41,13 C41,13.5522847 40.5522847,14 40,14 L36,14 C35.4477153,14 35,13.5522847 35,13 L35,7.07 L31,7.07 L33.31,5.07 L36.5,2.3 L38,1 L42.69,5.07 L45,7.07 Z" id="Shape" fill="#0377BC"/><path d="M45,39.93 L38,46 L36.5,44.7 L31,39.93 L35,39.93 L35,34 C35,33.4477153 35.4477153,33 36,33 L40,33 C40.5522847,33 41,33.4477153 41,34 L41,39.93 L45,39.93 Z" id="Shape" fill="#0377BC"/><path d="M42,7.07 L38,7.07 L38,13 C38,13.5522847 37.5522847,14 37,14 L36,14 C35.4477153,14 35,13.5522847 35,13 L35,7.07 L31,7.07 L33.31,5.07 L36.5,2.3 L39.69,5.07 L42,7.07 Z" id="Shape" fill="#02A9F4"/><path d="M42,39.93 L36.5,44.7 L31,39.93 L35,39.93 L35,34 C35,33.4477153 35.4477153,33 36,33 L37,33 C37.5522847,33 38,33.4477153 38,34 L38,39.93 L42,39.93 Z" id="Shape" fill="#02A9F4"/><path d="M53.93,26 L48,26 C47.4477153,26 47,25.5522847 47,25 L47,21 C47,20.4477153 47.4477153,20 48,20 L53.93,20 L53.93,16 L60,23 L53.93,30 L53.93,26 Z" id="Shape" fill="#0377BC"/><path d="M53.93,26.54 L53.93,26 L48,26 C47.4477153,26 47,25.5522847 47,25 L47,21 C47,20.4477153 47.4477153,20 48,20 L53.93,20 L53.93,19.46 L57,23 L53.93,26.54 Z" id="Shape" fill="#02A9F4"/><path d="M22.067,30 L22.067,26 L28,26 C28.5522847,26 29,25.5522847 29,25 L29,21 C29,20.4477153 28.5522847,20 28,20 L22.067,20 L22.067,16 L16,23 L22.067,30 Z" id="Shape" fill="#02A9F4"/><path d="M10.511,55 C8.86133749,54.9693354 7.42609992,53.8626511 6.977,52.275 C6.6618426,51.4141982 6.54959663,50.4922755 6.649,49.581 C6.682,49.318 6.74,49.05 6.798,48.781 C6.91957463,48.3932994 6.95372661,47.9834757 6.898,47.581 C6.817,47.267 6.586,47.111 5.998,46.774 C5.764,46.641 5.527,46.505 5.305,46.349 C4.97992342,46.1169696 4.76529209,45.7608192 4.712,45.365 C4.67385435,44.8622176 4.78741543,44.359553 5.038,43.922 C4.697,43.661 4.324,43.367 4.108,43.172 C3.184,42.416 3.796,41.333 4.163,40.687 C4.297,40.449 4.454,40.174 4.603,39.854 C4.74079442,39.5365542 4.78015866,39.1850629 4.716,38.845 C4.666,38.586 3.941,38.216 3.509,37.995 C3.14677307,37.8238802 2.79926375,37.6232011 2.47,37.395 C1.75369155,36.9893367 1.23074833,36.3125018 1.019,35.517 C0.86,34.488 1.619,33.46 2.342,32.579 C4.05427497,30.3725891 5.52219196,27.9869725 6.72,25.464 C6.79665216,25.3279802 6.85387471,25.1818944 6.89,25.03 C6.89,24.755 6.565,24.439 6.077,23.991 C5.33779367,23.4453722 4.82013234,22.6514828 4.619,21.755 C4.56307696,21.1851159 4.65324528,20.610379 4.881,20.085 C5.062,19.611 5.265,19.156 5.468,18.701 C5.82559624,17.9699027 6.11288832,17.2064692 6.326,16.421 L6.426,15.999 C6.65555464,14.9178276 6.95144756,13.8518115 7.312,12.807 C8.19429313,10.3777039 9.55900834,8.15204797 11.324,6.264 C13.558,3.9 16.836,2.316 21.345,1.419 C24.5307746,0.720738442 27.7634281,0.256829935 31.017,0.031 C31.5692847,0.0017289168 32.0407289,0.425715257 32.07,0.978000001 C32.0992711,1.53028474 31.6752847,2.0017289 31.123,2.031 C27.9666691,2.25169685 24.830665,2.70256219 21.74,3.38 C17.704,4.18 14.689,5.615 12.776,7.637 C11.1971652,9.32960767 9.97673014,11.3238693 9.188,13.5 C8.85614522,14.4674021 8.58396707,15.4542566 8.373,16.455 L8.273,16.881 C8.03242184,17.790144 7.70456527,18.6739167 7.294,19.52 C7.106,19.94 6.917,20.36 6.754,20.788 C6.65950369,21.0048357 6.60691104,21.2376006 6.599,21.474 C6.643,21.798 7.025,22.148 7.429,22.519 C8.25493667,23.1015488 8.78786015,24.0134644 8.89,25.019 C8.86993297,25.4934145 8.73617951,25.9560643 8.5,26.368 C7.24784001,29.0034832 5.71353526,31.4953873 3.924,33.8 C3.162,34.731 3,35.1 3,35.249 C3.18487589,35.4288287 3.3857006,35.5914967 3.6,35.735 C3.8610164,35.9170713 4.13661917,36.0772821 4.424,36.214 C5.277,36.65 6.446,37.248 6.686,38.468 C6.82918406,39.2237094 6.73595159,40.0051861 6.419,40.706 C6.245,41.076 6.065,41.396 5.908,41.672 C5.859,41.758 5.808,41.854 5.757,41.941 C6.172,42.275 6.738,42.699 6.978,42.875 C7.19568419,43.0363089 7.33859797,43.2790429 7.37403559,43.5476525 C7.40947321,43.8162621 7.33440129,44.087755 7.166,44.3 C7.01761396,44.493007 6.88833948,44.6999801 6.78,44.918 C6.849,44.958 6.918,44.998 6.988,45.037 C7.87254397,45.4174365 8.54781232,46.1638818 8.838,47.082 C8.98493135,47.7872637 8.95538984,48.5179007 8.752,49.209 C8.706,49.418 8.659,49.627 8.632,49.836 C8.57367075,50.4411271 8.65403967,51.0515889 8.867,51.621 C9.08790242,52.5427662 9.99373144,53.1286061 10.925,52.952 C13.8392719,52.2514045 16.7107073,51.3832961 19.525,50.352 C19.862616,50.2348169 20.2371025,50.3066512 20.507394,50.5404437 C20.7776856,50.7742361 20.9027185,51.1344681 20.835394,51.4854437 C20.7680696,51.8364192 20.518616,52.1248169 20.181,52.242 C17.2866763,53.3026468 14.3325972,54.1925101 11.334,54.907 C11.063591,54.9661968 10.7878001,54.9973615 10.511,55 Z M5.411,41.66 L5.442,41.688 L5.411,41.66 Z" id="Shape" fill="#000000"/><path d="M51.691,12.49 C51.336863,12.4909998 51.0086092,12.3046217 50.828,12 C50.5528919,11.521865 50.2483036,11.0613088 49.916,10.621 C49.6957106,10.3381988 49.6436477,9.95911767 49.7795391,9.62739866 C49.9154304,9.29567966 50.2184848,9.06207521 50.5738685,9.01510305 C50.9292522,8.96813088 51.282592,9.11497766 51.5,9.4 C51.881876,9.90503778 52.2318885,10.4333963 52.548,10.982 C52.729266,11.2909871 52.7314036,11.6733317 52.5536039,11.9843263 C52.3758042,12.2953209 52.0452319,12.4874509 51.687,12.488 L51.691,12.49 Z" id="Shape" fill="#000000"/><path d="M48.669,36.22 C48.3006277,36.2194416 47.9623917,36.0164046 47.7886819,35.691561 C47.6149721,35.3667175 47.6339211,34.9726761 47.838,34.666 C48.368,33.871 48.938,33.093 49.494,32.342 C49.8216641,31.8976309 50.4458352,31.7995468 50.894,32.122 C51.1077873,32.2772672 51.2508791,32.511335 51.2916058,32.7723987 C51.3323325,33.0334624 51.2673354,33.2999926 51.111,33.513 L51.1,33.528 C50.553,34.271 50.006,35.013 49.5,35.775 C49.3146721,36.0527752 49.0029242,36.219716 48.669,36.22 Z" id="Shape" fill="#000000"/><path d="M24.78,60 C24.3194886,59.9998779 23.9186017,59.6852787 23.809,59.238 C23.42,57.657 21.879,53.314 19.438,52.211 C19.0639436,52.0419148 18.8312137,51.6614066 18.8510746,51.25139 C18.8709354,50.8413735 19.1393525,50.4851405 19.528,50.353 C20.572,49.999 21.517,49.668 22.261,49.408 C22.952,49.167 23.473,48.985 23.744,48.898 C27.902,47.583 28.744,46.082 28.721,45.053 C28.7080213,44.5007153 29.1452153,44.0424787 29.6975,44.0295 C30.2497847,44.0165213 30.7080213,44.4537153 30.721,45.006 C30.779,47.498 28.637,49.449 24.352,50.806 C24.094,50.889 23.59,51.065 22.921,51.298 L22.021,51.614 C23.670109,53.4426539 24.87322,55.6284481 25.536,58 L48.218,57.937 L48.151,57.837 C47.8629147,57.4221101 47.6039597,56.987734 47.376,56.537 C46.8786739,55.5263955 46.4636619,54.4773282 46.135,53.4 L46,52.971 C45.0923206,50.3998127 44.5307279,47.7193003 44.33,45 C44.33,44.4477153 44.7777153,44 45.33,44 C45.8822847,44 46.33,44.4477153 46.33,45 C46.5409762,47.513046 47.0712447,49.9889767 47.908,52.368 L48.046,52.81 C48.3456324,53.7865372 48.7228333,54.737565 49.174,55.654 C49.3653284,56.0277119 49.5814791,56.3881857 49.821,56.733 C50.2457579,57.3160683 50.5870507,57.9555717 50.835,58.633 C50.9304293,58.9364437 50.8757998,59.2671879 50.6878608,59.5238273 C50.4999218,59.7804667 50.201095,59.9323833 49.883,59.933 L24.783,60.003 L24.78,60 Z" id="Shape" fill="#000000"/><path d="M11.194,18.567 C10.8888508,18.5670321 10.6003862,18.4277344 10.4106651,18.1887325 C10.2209439,17.9497305 10.1507311,17.6371832 10.22,17.34 L10.32,16.907 C10.5131488,15.9905545 10.7602456,15.086314 11.06,14.199 C11.7556722,12.274706 12.8328806,10.5107644 14.227,9.013 C15.7595511,7.5356103 17.6468677,6.47795529 19.707,5.942 C20.2352604,5.78073285 20.7942329,6.07823964 20.9555,6.6065 C21.1167671,7.13476036 20.8192604,7.69373285 20.291,7.855 C18.56399,8.29262258 16.9772482,9.16378169 15.681,10.386 C14.4731212,11.6862822 13.5398535,13.2167868 12.937,14.886 C12.6666327,15.6961058 12.4432611,16.5211451 12.268,17.357 L12.168,17.79 C12.064068,18.2443274 11.6600634,18.5666185 11.194,18.567 Z" id="Shape" fill="#000000"/><circle id="Oval" fill="#000000" cx="10" cy="21" r="1"/><path d="M38,24.857 C35.8396166,24.8179539 34.1161893,23.0417659 34.1422866,20.8811873 C34.1683839,18.7206087 35.9342106,16.9865669 38.0949068,16.9997143 C40.255603,17.0128617 42.0001971,18.7682638 42,20.929 C41.977463,23.1171278 40.1881762,24.8742074 38,24.857 Z M38,19 C36.9439236,19.0383285 36.115056,19.9188488 36.1405623,20.9753126 C36.1660685,22.0317764 37.0364624,22.8712714 38.093158,22.8585912 C39.1498536,22.845911 39.9998522,21.9857717 40,20.929 C39.9792021,19.8445561 39.0844873,18.9816037 38,19 Z" id="Shape" fill="#000000"/><path d="M43,30 L33,30 C32.4477153,30 32,29.5522847 32,29 L32,28.571 C32.0033071,25.4166158 34.5596158,22.8603071 37.714,22.857 L38.286,22.857 C41.4403842,22.8603071 43.9966929,25.4166158 44,28.571 L44,29 C44,29.5522847 43.5522847,30 43,30 Z M34.044,28 L41.956,28 C41.6725695,26.1920784 40.1160025,24.8590293 38.286,24.857 L37.714,24.857 C35.8839975,24.8590293 34.3274305,26.1920784 34.044,28 Z" id="Shape" fill="#000000"/><path d="M40,15 L36,15 C34.8954305,15 34,14.1045695 34,13 L34,8.067 L31,8.067 C30.5823587,8.06717896 30.2085894,7.80779132 30.0626298,7.41648575 C29.9166701,7.02518019 30.0292631,6.58437611 30.345,6.311 L37.345,0.244 C37.7208858,-0.0818281638 38.2791142,-0.0818281638 38.655,0.244 L45.655,6.311 C45.9707369,6.58437611 46.0833299,7.02518019 45.9373702,7.41648575 C45.7914106,7.80779132 45.4176413,8.06717896 45,8.067 L42,8.067 L42,13 C42,14.1045695 41.1045695,15 40,15 Z M33.681,6.067 L35,6.067 C35.5522847,6.067 36,6.51471525 36,7.067 L36,13 L40,13 L40,7.067 C40,6.51471525 40.4477153,6.067 41,6.067 L42.319,6.067 L38,2.323 L33.681,6.067 Z" id="Shape" fill="#000000"/><path d="M38,47 C37.7594244,47.000103 37.5268751,46.913474 37.345,46.756 L30.345,40.689 C30.0292631,40.4156239 29.9166701,39.9748198 30.0626298,39.5835142 C30.2085894,39.1922087 30.5823587,38.932821 31,38.933 L34,38.933 L34,34 C34,32.8954305 34.8954305,32 36,32 L40,32 C41.1045695,32 42,32.8954305 42,34 L42,38.933 L45,38.933 C45.4176413,38.932821 45.7914106,39.1922087 45.9373702,39.5835142 C46.0833299,39.9748198 45.9707369,40.4156239 45.655,40.689 L38.655,46.756 C38.4731249,46.913474 38.2405756,47.000103 38,47 Z M33.681,40.933 L38,44.677 L42.319,40.933 L41,40.933 C40.4477153,40.933 40,40.4852847 40,39.933 L40,34 L36,34 L36,39.933 C36,40.4852847 35.5522847,40.933 35,40.933 L33.681,40.933 Z" id="Shape" fill="#000000"/><path d="M53.933,31 C53.8135425,30.9996777 53.695072,30.978353 53.583,30.937 C53.1920239,30.7909187 52.9328955,30.4173751 52.933,30 L52.933,27 L48,27 C46.8954305,27 46,26.1045695 46,25 L46,21 C46,19.8954305 46.8954305,19 48,19 L52.933,19 L52.933,16 C52.932821,15.5823587 53.1922087,15.2085894 53.5835142,15.0626298 C53.9748198,14.9166701 54.4156239,15.0292631 54.689,15.345 L60.756,22.345 C61.0818282,22.7208858 61.0818282,23.2791142 60.756,23.655 L54.689,30.655 C54.4989753,30.8742186 54.2231141,31.0001077 53.933,31 Z M48,21 L48,25 L53.933,25 C54.4852847,25 54.933,25.4477153 54.933,26 L54.933,27.319 L58.677,23 L54.933,18.681 L54.933,20 C54.933,20.5522847 54.4852847,21 53.933,21 L48,21 Z" id="Shape" fill="#000000"/><path d="M22.067,31 C21.7768859,31.0001077 21.5010247,30.8742186 21.311,30.655 L15.244,23.655 C14.9181718,23.2791142 14.9181718,22.7208858 15.244,22.345 L21.311,15.345 C21.5843761,15.0292631 22.0251802,14.9166701 22.4164858,15.0626298 C22.8077913,15.2085894 23.067179,15.5823587 23.067,16 L23.067,19 L28,19 C29.1045695,19 30,19.8954305 30,21 L30,25 C30,26.1045695 29.1045695,27 28,27 L23.067,27 L23.067,30 C23.0671045,30.4173751 22.8079761,30.7909187 22.417,30.937 C22.304928,30.978353 22.1864575,30.9996777 22.067,31 Z M17.323,23 L21.067,27.319 L21.067,26 C21.067,25.4477153 21.5147153,25 22.067,25 L28,25 L28,21 L22.067,21 C21.5147153,21 21.067,20.5522847 21.067,20 L21.067,18.681 L17.323,23 Z" id="Shape" fill="#000000"/></g></g></svg>
