<?xml version="1.0" encoding="UTF-8"?>
<svg xmlns="http://www.w3.org/2000/svg" xmlns:xlink="http://www.w3.org/1999/xlink" width="512" height="512" viewBox="0 0 60 60" version="1.1"><!-- Generator: Sketch 51.3 (57544) - http://www.bohemiancoding.com/sketch --><title>022 - Creative</title><desc>Created with Sketch.</desc><defs/><g id="Page-1" stroke="none" stroke-width="1" fill="none" fill-rule="evenodd"><g id="022---Creative" transform="translate(-1.000000, -1.000000)" fill-rule="nonzero"><path d="M47.26,38.71 C45.9803538,41.6319437 45.5006323,44.8415908 45.87,48.01 C46.0951005,50.0721875 46.5033794,52.1102353 47.09,54.1 C47.4048963,55.1305317 47.802868,56.1338218 48.28,57.1 C48.8718004,58.0090608 49.4061765,58.9542385 49.88,59.93 L24.78,60 L24.78,59.99 C24.7,59.69 23.19,53.81 19.85,52.3 C19.23,52.52 18.57,52.74 17.9,52.97 C15.6789002,53.7404523 13.4191713,54.3946722 11.13,54.93 C10.4993821,55.0806865 9.83512584,54.9878335 9.27,54.67 C8.62676625,54.2742562 8.14753634,53.660132 7.92,52.94 C7.65806229,52.2276891 7.56229323,51.4649569 7.64,50.71 C7.87036773,49.9391054 7.94848689,49.1307419 7.87,48.33 C7.61,47.32 6.65,47.07 5.89,46.53 C5.27,46.09 6.38,44.68 6.38,44.68 C6.38,44.68 5.2,43.81 4.78,43.43 C4.34,43.07 4.96,42.45 5.51,41.28 C5.73694079,40.7719796 5.80323378,40.2067446 5.7,39.66 C5.49,38.59 3.87,38.18 3.07,37.59 C2.69,37.31 2.08,36.89 2.01,36.38 C1.9,35.67 2.74,34.67 3.15,34.17 C4.89454657,31.9217816 6.38996718,29.4908848 7.61,26.92 C7.77010631,26.6486227 7.86589137,26.3441631 7.89,26.03 C7.87,24.6 5.8,24.01 5.61,22.62 C5.58022555,22.2120559 5.65239212,21.803112 5.82,21.43 C6.39667192,20.2042401 6.89109856,18.9414478 7.3,17.65 C7.54612792,16.4653226 7.86336869,15.2965408 8.25,14.15 C9.08859812,11.8496676 10.3808376,9.74127689 12.05,7.95 C14.5,5.36 18.12,4.08 21.54,3.4 C24.5813721,2.73504394 27.6655865,2.28393999 30.77,2.05 C30.87,2.04 30.97,2.04 31.07,2.03 C37.47,1.71 42.53,3.88 47.49,7.76 C50.1927291,9.77631392 52.1683037,12.6151058 53.12,15.85 C53.8451888,18.5213389 54.1852867,21.2825294 54.13,24.05 C54.110834,26.7831121 53.3129958,29.4541358 51.83,31.75 C50.34,34.1 48.39,36.14 47.26,38.71 Z" id="Shape" fill="#6A1B9A"/><path d="M44.26,38.71 C42.9803538,41.6319437 42.5006323,44.8415908 42.87,48.01 C43.0951005,50.0721875 43.5033794,52.1102353 44.09,54.1 C44.4048963,55.1305317 44.802868,56.1338218 45.28,57.1 C45.8718004,58.0090608 46.4061765,58.9542385 46.88,59.93 L24.78,59.99 C24.7,59.69 23.19,53.81 19.85,52.3 C19.23,52.52 18.57,52.74 17.9,52.97 C17.5823905,52.6995596 17.2290765,52.4741116 16.85,52.3 C14.44,53.14 11.5,54.11 9.27,54.67 C8.62676625,54.2742562 8.14753634,53.660132 7.92,52.94 C7.65806229,52.2276891 7.56229323,51.4649569 7.64,50.71 C7.87036773,49.9391054 7.94848689,49.1307419 7.87,48.33 C7.61,47.32 6.65,47.07 5.89,46.53 C5.27,46.09 6.38,44.68 6.38,44.68 C6.38,44.68 5.2,43.81 4.78,43.43 C4.34,43.07 4.96,42.45 5.51,41.28 C5.73694079,40.7719796 5.80323378,40.2067446 5.7,39.66 C5.49,38.59 3.87,38.18 3.07,37.59 C2.69,37.31 2.08,36.89 2.01,36.38 C1.9,35.67 2.74,34.67 3.15,34.17 C4.89454657,31.9217816 6.38996718,29.4908848 7.61,26.92 C7.77010631,26.6486227 7.86589137,26.3441631 7.89,26.03 C7.87,24.6 5.8,24.01 5.61,22.62 C5.58022555,22.2120559 5.65239212,21.803112 5.82,21.43 C6.39667192,20.2042401 6.89109856,18.9414478 7.3,17.65 C7.54612792,16.4653226 7.86336869,15.2965408 8.25,14.15 C9.08859812,11.8496676 10.3808376,9.74127689 12.05,7.95 C14.5,5.36 18.12,4.08 21.54,3.4 C24.5813721,2.73504394 27.6655865,2.28393999 30.77,2.05 C35.93,2.37 40.25,4.44 44.49,7.76 C47.1927291,9.77631392 49.1683037,12.6151058 50.12,15.85 C50.8451888,18.5213389 51.1852867,21.2825294 51.13,24.05 C51.110834,26.7831121 50.3129958,29.4541358 48.83,31.75 C47.34,34.1 45.39,36.14 44.26,38.71 Z" id="Shape" fill="#9D27B0"/><path d="M60,7 C59.27,10.63 55.92,15.84 51.07,18.42 C50.4552585,17.7109794 49.7412,17.0945987 48.95,16.59 C48.0238663,15.9687239 47.0391771,15.4395371 46.01,15.01 C46.8872611,16.445512 47.3188101,18.1090637 47.25,19.79 C46.5083425,19.9310945 45.7549579,20.0014104 45,20 C33,20 29,25 29,25 C28.8572461,23.801719 28.8404878,22.591775 28.95,21.39 C29.53,14.45 33.97,6.05 44.08,4.33 C44.7641352,4.20373715 45.4554758,4.12024192 46.15,4.08 C46.75,4.02 47.36,4 48,4 C51.3529318,3.93717714 54.6836605,4.55637288 57.79,5.82 C58.5662322,6.13426682 59.3070246,6.52980303 60,7 Z" id="Shape" fill="#283593"/><path d="M57.79,5.82 C56.3150833,10.3216236 53.2028207,14.1048786 49.07,16.42 C47.6396764,14.9428017 45.9160752,13.7812443 44.01,13.01 C44.8872611,14.445512 45.3188101,16.1090637 45.25,17.79 C44.5083425,17.9310945 43.7549579,18.0014104 43,18 C35.55,18 31.19,19.93 28.95,21.39 C29.53,14.45 33.97,6.05 44.08,4.33 C44.7641352,4.20373715 45.4554758,4.12024192 46.15,4.08 C46.75,4.02 47.36,4 48,4 C51.3529318,3.93717714 54.6836605,4.55637288 57.79,5.82 Z" id="Shape" fill="#3F51B5"/><path d="M10.511,56 C8.86133749,55.9693354 7.42609992,54.8626511 6.977,53.275 C6.6618426,52.4141982 6.54959663,51.4922755 6.649,50.581 C6.682,50.318 6.74,50.05 6.798,49.781 C6.91957463,49.3932994 6.95372661,48.9834757 6.898,48.581 C6.817,48.267 6.586,48.111 5.998,47.774 C5.764,47.641 5.527,47.505 5.305,47.349 C4.97992342,47.1169696 4.76529209,46.7608192 4.712,46.365 C4.67385435,45.8622176 4.78741543,45.359553 5.038,44.922 C4.697,44.661 4.324,44.367 4.108,44.172 C3.184,43.416 3.796,42.333 4.163,41.687 C4.297,41.449 4.454,41.174 4.603,40.854 C4.74073439,40.5365382 4.78009658,40.1850652 4.716,39.845 C4.666,39.586 3.941,39.216 3.509,38.995 C3.14677307,38.8238802 2.79926375,38.6232011 2.47,38.395 C1.75369155,37.9893367 1.23074833,37.3125018 1.019,36.517 C0.86,35.488 1.619,34.46 2.342,33.579 C4.05427497,31.3725891 5.52219196,28.9869725 6.72,26.464 C6.79665216,26.3279802 6.85387471,26.1818944 6.89,26.03 C6.89,25.755 6.565,25.439 6.077,24.991 C5.33779367,24.4453722 4.82013234,23.6514828 4.619,22.755 C4.56307696,22.1851159 4.65324528,21.610379 4.881,21.085 C5.062,20.611 5.265,20.156 5.468,19.701 C5.82559624,18.9699027 6.11288832,18.2064692 6.326,17.421 L6.426,16.999 C6.65555464,15.9178276 6.95144756,14.8518115 7.312,13.807 C8.19429313,11.3777039 9.55900834,9.15204797 11.324,7.264 C13.558,4.9 16.836,3.316 21.345,2.419 C24.5307746,1.72073844 27.7634281,1.25682993 31.017,1.031 C35.2403446,0.787205738 39.4481529,1.72419794 43.169,3.737 C43.6234359,4.01170898 43.7839158,4.59369877 43.5344957,5.0624915 C43.2850757,5.53128422 42.7127437,5.72338314 42.231,5.5 C38.8333967,3.64778055 34.9824161,2.79100582 31.12,3.028 C27.9646074,3.24988685 24.8296146,3.70175362 21.74,4.38 C17.704,5.18 14.689,6.615 12.776,8.637 C11.1971652,10.3296077 9.97673014,12.3238693 9.188,14.5 C8.85614522,15.4674021 8.58396707,16.4542566 8.373,17.455 L8.273,17.881 C8.03242184,18.790144 7.70456527,19.6739167 7.294,20.52 C7.106,20.94 6.917,21.36 6.754,21.788 C6.65950369,22.0048357 6.60691104,22.2376006 6.599,22.474 C6.643,22.798 7.025,23.148 7.429,23.519 C8.25493667,24.1015488 8.78786015,25.0134644 8.89,26.019 C8.86993297,26.4934145 8.73617951,26.9560643 8.5,27.368 C7.24784001,30.0034832 5.71353526,32.4953873 3.924,34.8 C3.162,35.731 3,36.1 3,36.249 C3.18487589,36.4288287 3.3857006,36.5914967 3.6,36.735 C3.8610164,36.9170713 4.13661917,37.0772821 4.424,37.214 C5.277,37.65 6.446,38.248 6.686,39.468 C6.82918406,40.2237094 6.73595159,41.0051861 6.419,41.706 C6.245,42.076 6.065,42.396 5.908,42.672 C5.859,42.758 5.808,42.854 5.757,42.941 C6.172,43.275 6.738,43.699 6.978,43.875 C7.19568419,44.0363089 7.33859797,44.2790429 7.37403559,44.5476525 C7.40947321,44.8162621 7.33440129,45.087755 7.166,45.3 C7.01761396,45.493007 6.88833948,45.6999801 6.78,45.918 C6.849,45.958 6.918,45.998 6.988,46.037 C7.87254397,46.4174365 8.54781232,47.1638818 8.838,48.082 C8.98493135,48.7872637 8.95538984,49.5179007 8.752,50.209 C8.706,50.418 8.659,50.627 8.632,50.836 C8.57367075,51.4411271 8.65403967,52.0515889 8.867,52.621 C9.08834925,53.5424498 9.99383671,54.1280688 10.925,53.952 C13.8392719,53.2514045 16.7107073,52.3832961 19.525,51.352 C19.862616,51.2348169 20.2371025,51.3066512 20.507394,51.5404437 C20.7776856,51.7742361 20.9027185,52.1344681 20.835394,52.4854437 C20.7680696,52.8364192 20.518616,53.1248169 20.181,53.242 C17.2866763,54.3026468 14.3325972,55.1925101 11.334,55.907 C11.063591,55.9661968 10.7878001,55.9973615 10.511,56 Z M5.411,42.66 L5.442,42.688 L5.411,42.66 Z" id="Shape" fill="#000000"/><path d="M24.78,61 C24.3194886,60.9998779 23.9186017,60.6852787 23.809,60.238 C23.42,58.657 21.879,54.314 19.438,53.211 C19.0639436,53.0419148 18.8312137,52.6614066 18.8510746,52.25139 C18.8709354,51.8413735 19.1393525,51.4851405 19.528,51.353 C20.572,50.999 21.517,50.668 22.261,50.408 C22.952,50.167 23.473,49.985 23.744,49.898 C27.902,48.583 28.744,47.082 28.721,46.053 C28.7080213,45.5007153 29.1452153,45.0424787 29.6975,45.0295 C30.2497847,45.0165213 30.7080213,45.4537153 30.721,46.006 C30.779,48.498 28.637,50.449 24.352,51.806 C24.094,51.889 23.59,52.065 22.921,52.298 L22.021,52.614 C23.670109,54.4426539 24.87322,56.6284481 25.536,59 L48.218,58.937 L48.151,58.837 C47.8629147,58.4221101 47.6039597,57.987734 47.376,57.537 C46.8786739,56.5263955 46.4636619,55.4773282 46.135,54.4 C45.5282684,52.3530291 45.1072324,50.2555471 44.877,48.133 C44.4831396,44.7875333 44.9892182,41.3975661 46.343,38.313 C47.141408,36.6438155 48.1288779,35.0718493 49.286,33.628 C49.866,32.846 50.466,32.038 50.986,31.217 C52.3711468,29.0779657 53.1154304,26.5873047 53.131,24.039 C53.172485,21.7186617 52.9330787,19.4018267 52.418,17.139 C52.3308416,16.7896144 52.4382584,16.4203489 52.6992266,16.1722311 C52.9601948,15.9241132 53.3344094,15.8354632 53.6789527,15.9401377 C54.0234961,16.0448122 54.2851556,16.3266449 54.364,16.678 C54.9161871,19.0987714 55.1737218,21.5774168 55.131,24.06 C55.1127246,26.9796714 54.2606143,29.8333389 52.675,32.285 C52.116,33.165 51.495,34.004 50.893,34.814 C49.8274731,36.137142 48.9162569,37.5774407 48.177,39.107 C46.9654389,41.8649237 46.5121643,44.8963057 46.864,47.888 C47.0796037,49.8914849 47.4752015,51.8714821 48.046,53.804 C48.3458821,54.7815634 48.7234175,55.7335946 49.175,56.651 C49.3663284,57.0247119 49.5824791,57.3851857 49.822,57.73 C50.2467579,58.3130683 50.5880507,58.9525717 50.836,59.63 C50.9314293,59.9334437 50.8767998,60.2641879 50.6888608,60.5208273 C50.5009218,60.7774667 50.202095,60.9293833 49.884,60.93 L24.784,61 L24.78,61 Z" id="Shape" fill="#000000"/><path d="M11.194,19.567 C10.8888508,19.5670321 10.6003862,19.4277344 10.4106651,19.1887325 C10.2209439,18.9497305 10.1507311,18.6371832 10.22,18.34 L10.32,17.907 C10.5131488,16.9905545 10.7602456,16.086314 11.06,15.199 C11.7556722,13.274706 12.8328806,11.5107644 14.227,10.013 C15.7595511,8.5356103 17.6468677,7.47795529 19.707,6.942 C20.2352604,6.78073285 20.7942329,7.07823964 20.9555,7.6065 C21.1167671,8.13476036 20.8192604,8.69373285 20.291,8.855 C18.56399,9.29262258 16.9772482,10.1637817 15.681,11.386 C14.4731212,12.6862822 13.5398535,14.2167868 12.937,15.886 C12.6666327,16.6961058 12.4432611,17.5211451 12.268,18.357 L12.168,18.79 C12.064068,19.2443274 11.6600634,19.5666185 11.194,19.567 Z" id="Shape" fill="#000000"/><circle id="Oval" fill="#000000" cx="10" cy="22" r="1"/><path d="M27,30 C26.9045116,30.0000465 26.8095218,29.9862359 26.718,29.959 C26.188508,29.8030708 25.8854918,29.2476158 26.041,28.718 C26.092,28.542 31.482,11.062 53.865,8.009 C54.2190502,7.96076913 54.5719369,8.10508552 54.7907312,8.38758656 C55.0095255,8.6700876 55.0609872,9.04785468 54.9257312,9.37858658 C54.7904752,9.70931848 54.4890502,9.94276915 54.135,9.991 C33.021,12.87 28.007,29.118 27.959,29.282 C27.8339276,29.7075189 27.4435193,29.9998162 27,30 Z" id="Shape" fill="#000000"/><path d="M29,26 C28.4967782,26.000049 28.0719092,25.6261471 28.008,25.127 C27.4237964,19.3994117 29.2128657,13.6827029 32.958,9.31 C36.6,5.182 41.8,3 48,3 C56.239,3 60.426,6.069 60.6,6.2 C60.9093006,6.43186853 61.057261,6.82123806 60.98,7.2 C60.188,11.142 56.69,16.565 51.54,19.306 C51.1234986,19.5276495 50.6087395,19.4280322 50.305,19.067 C49.6302996,18.3136665 48.8449945,17.6672819 47.976,17.15 C48.1736706,18.0190837 48.2656699,18.9088577 48.25,19.8 C48.2432677,20.2744479 47.9040441,20.6788426 47.438,20.768 C46.6344706,20.9220623 45.8181654,20.9997419 45,21 C33.722,21 29.814,25.584 29.776,25.63 C29.5856212,25.8630986 29.3009612,25.9988256 29,26 Z M48,5 C42.394,5 37.71,6.948 34.457,10.634 C31.5276352,14.0519937 29.9060999,18.3985303 29.881,22.9 C32.1,21.309 36.744,19 45,19 C45.4098937,19.0002486 45.819498,18.9782161 46.227,18.934 C46.1688945,17.7384965 45.8068149,16.5775701 45.175,15.561 C44.9360029,15.1992658 44.9573274,14.7247302 45.2278066,14.3858906 C45.4982857,14.0470511 45.9562986,13.9211026 46.362,14.074 C48.1606593,14.814088 49.8182671,15.8587192 51.262,17.162 C54.8605248,14.9267172 57.5525783,11.4908068 58.862,7.462 C55.5119545,5.72457938 51.7717718,4.87682299 48,5 Z" id="Shape" fill="#000000"/><path d="M46,8 C45.4477153,8 45,7.55228475 45,7 C44.9865063,6.18779787 44.7309342,5.39810102 44.266,4.732 C43.9913711,4.27270499 44.1269984,3.67860824 44.5737382,3.3839957 C45.0204779,3.08938316 45.6199768,3.19868441 45.934,3.632 C46.6119747,4.62581461 46.9826898,5.79707958 47,7 C47,7.55228475 46.5522847,8 46,8 Z" id="Shape" fill="#000000"/></g></g></svg>
