<?xml version="1.0" encoding="UTF-8"?>
<svg xmlns="http://www.w3.org/2000/svg" xmlns:xlink="http://www.w3.org/1999/xlink" width="512" height="512" viewBox="0 0 60 60" version="1.1"><!-- Generator: Sketch 51.3 (57544) - http://www.bohemiancoding.com/sketch --><title>023 - Imagination</title><desc>Created with Sketch.</desc><defs/><g id="Page-1" stroke="none" stroke-width="1" fill="none" fill-rule="evenodd"><g id="023---Imagination" transform="translate(-1.000000, -1.000000)" fill-rule="nonzero"><path d="M47.26,38.71 C45.9803538,41.6319437 45.5006323,44.8415908 45.87,48.01 C46.0951005,50.0721875 46.5033794,52.1102353 47.09,54.1 C47.4048963,55.1305317 47.802868,56.1338218 48.28,57.1 C48.8718004,58.0090608 49.4061765,58.9542385 49.88,59.93 L24.78,60 L24.78,59.99 C24.7,59.69 23.19,53.81 19.85,52.3 C19.23,52.52 18.57,52.74 17.9,52.97 C15.6789002,53.7404523 13.4191713,54.3946722 11.13,54.93 C10.4993821,55.0806865 9.83512584,54.9878335 9.27,54.67 C8.62676625,54.2742562 8.14753634,53.660132 7.92,52.94 C7.65806229,52.2276891 7.56229323,51.4649569 7.64,50.71 C7.87036773,49.9391054 7.94848689,49.1307419 7.87,48.33 C7.61,47.32 6.65,47.07 5.89,46.53 C5.27,46.09 6.38,44.68 6.38,44.68 C6.38,44.68 5.2,43.81 4.78,43.43 C4.34,43.07 4.96,42.45 5.51,41.28 C5.73694079,40.7719796 5.80323378,40.2067446 5.7,39.66 C5.49,38.59 3.87,38.18 3.07,37.59 C2.69,37.31 2.08,36.89 2.01,36.38 C1.9,35.67 2.74,34.67 3.15,34.17 C4.89454657,31.9217816 6.38996718,29.4908848 7.61,26.92 C7.77010631,26.6486227 7.86589137,26.3441631 7.89,26.03 C7.87,24.6 5.8,24.01 5.61,22.62 C5.58022555,22.2120559 5.65239212,21.803112 5.82,21.43 C6.39667192,20.2042401 6.89109856,18.9414478 7.3,17.65 C7.54612792,16.4653226 7.86336869,15.2965408 8.25,14.15 C9.08859812,11.8496676 10.3808376,9.74127689 12.05,7.95 C14.5,5.36 18.12,4.08 21.54,3.4 C24.5813721,2.73504394 27.6655865,2.28393999 30.77,2.05 C30.87,2.04 30.97,2.04 31.07,2.03 C37.47,1.71 42.53,3.88 47.49,7.76 C50.1927291,9.77631392 52.1683037,12.6151058 53.12,15.85 C53.8451888,18.5213389 54.1852867,21.2825294 54.13,24.05 C54.110834,26.7831121 53.3129958,29.4541358 51.83,31.75 C50.34,34.1 48.39,36.14 47.26,38.71 Z" id="Shape" fill="#0377BC"/><path d="M44.26,38.71 C42.9803538,41.6319437 42.5006323,44.8415908 42.87,48.01 C43.0951005,50.0721875 43.5033794,52.1102353 44.09,54.1 C44.4048963,55.1305317 44.802868,56.1338218 45.28,57.1 C45.8718004,58.0090608 46.4061765,58.9542385 46.88,59.93 L24.78,59.99 C24.7,59.69 23.19,53.81 19.85,52.3 C19.23,52.52 18.57,52.74 17.9,52.97 C17.5823905,52.6995596 17.2290765,52.4741116 16.85,52.3 C14.44,53.14 11.5,54.11 9.27,54.67 C8.62676625,54.2742562 8.14753634,53.660132 7.92,52.94 C7.65806229,52.2276891 7.56229323,51.4649569 7.64,50.71 C7.87036773,49.9391054 7.94848689,49.1307419 7.87,48.33 C7.61,47.32 6.65,47.07 5.89,46.53 C5.27,46.09 6.38,44.68 6.38,44.68 C6.38,44.68 5.2,43.81 4.78,43.43 C4.34,43.07 4.96,42.45 5.51,41.28 C5.73694079,40.7719796 5.80323378,40.2067446 5.7,39.66 C5.49,38.59 3.87,38.18 3.07,37.59 C2.69,37.31 2.08,36.89 2.01,36.38 C1.9,35.67 2.74,34.67 3.15,34.17 C4.89454657,31.9217816 6.38996718,29.4908848 7.61,26.92 C7.77010631,26.6486227 7.86589137,26.3441631 7.89,26.03 C7.87,24.6 5.8,24.01 5.61,22.62 C5.58022555,22.2120559 5.65239212,21.803112 5.82,21.43 C6.39667192,20.2042401 6.89109856,18.9414478 7.3,17.65 C7.54612792,16.4653226 7.86336869,15.2965408 8.25,14.15 C9.08859812,11.8496676 10.3808376,9.74127689 12.05,7.95 C14.5,5.36 18.12,4.08 21.54,3.4 C24.5813721,2.73504394 27.6655865,2.28393999 30.77,2.05 C35.93,2.37 40.25,4.44 44.49,7.76 C47.1927291,9.77631392 49.1683037,12.6151058 50.12,15.85 C50.8451888,18.5213389 51.1852867,21.2825294 51.13,24.05 C51.110834,26.7831121 50.3129958,29.4541358 48.83,31.75 C47.34,34.1 45.39,36.14 44.26,38.71 Z" id="Shape" fill="#02A9F4"/><path d="M56.91,17.26 C56.1577039,16.4532073 55.1031103,15.9965791 54,16 C53.5575292,16.0014874 53.118322,16.0758147 52.7,16.22 C52.571148,15.6396173 52.4041181,15.068375 52.2,14.51 C50.3244598,9.4227491 45.4885134,6.03377038 40.066608,6.00705052 C34.6447025,5.98033065 29.7755892,9.32148157 27.85,14.39 C27.6201491,14.9850411 27.4362765,15.5968354 27.3,16.22 C26.881678,16.0758147 26.4424708,16.0014874 26,16 C24.8968897,15.9965791 23.8422961,16.4532073 23.09,17.26 C23.1679336,16.5019004 23.298245,15.7501039 23.48,15.01 C25.3127031,7.43054715 32.0670274,2.06984667 39.8646444,2.0060093 C47.6622614,1.94217193 54.5034483,7.19156894 56.46,14.74 C56.6714056,15.5678691 56.8218091,16.4101283 56.91,17.26 Z" id="Shape" fill="#F44335"/><path d="M56.91,17.26 C56.1577039,16.4532073 55.1031103,15.9965791 54,16 C53.9098843,15.9983379 53.8197458,16.0016763 53.73,16.01 C53.66,15.58 53.57,15.16 53.46,14.74 C51.656374,7.77112347 45.6606452,2.69257701 38.49,2.06 C38.98,2.02 39.49,2 40,2 C47.7490211,1.9989033 54.5181865,7.23822089 56.46,14.74 C56.6714056,15.5678691 56.8218091,16.4101283 56.91,17.26 Z" id="Shape" fill="#C81E1E"/><path d="M52.7,16.22 C51.5238757,16.6223953 50.6029735,17.5506942 50.21,18.73 C50.1773894,18.814725 50.1506593,18.9015977 50.13,18.99 C50.1343722,18.1378657 49.7652717,17.3265756 49.12,16.77 L49.12,16.76 C48.962726,16.6200152 48.7918802,16.4960682 48.61,16.39 C47.4528087,12.5585033 43.9020018,9.95346197 39.8998386,9.99981012 C35.8976753,10.0461583 32.4081494,12.7327321 31.34,16.59 C31.3342946,16.5951905 31.3307292,16.6023214 31.33,16.61 C31.1369202,17.3111185 31.0294711,18.0330421 31.01,18.76 L31.01,18.77 C30.3643821,19.3305817 29.9955278,20.1449829 30,21 L29.87,21 C29.9593041,20.6742693 30.0030533,20.3377372 30,20 C29.998781,18.2929531 28.9143788,16.77479 27.3,16.22 C27.4362765,15.5968354 27.6201491,14.9850411 27.85,14.39 C29.7755892,9.32148157 34.6447025,5.98033065 40.066608,6.00705052 C45.4885134,6.03377038 50.3244598,9.4227491 52.2,14.51 C52.4041181,15.068375 52.571148,15.6396173 52.7,16.22 Z" id="Shape" fill="#FFDC00"/><path d="M48.99,18.76 C48.4429603,18.270137 47.7343146,17.9994984 47,18 C46.2552706,17.9953822 45.5366728,18.2742411 44.99,18.78 C44.8825424,16.4519793 43.1810005,14.5069194 40.8879394,14.0908687 C38.5948782,13.674818 36.3184714,14.8981228 35.4,17.04 L35.4,17.05 C35.1672935,17.5986087 35.0351892,18.1846099 35.01,18.78 C34.4633272,18.2742411 33.7447294,17.9953822 33,18 C32.2656854,17.9994984 31.5570397,18.270137 31.01,18.76 C31.0294711,18.0330421 31.1369202,17.3111185 31.33,16.61 C31.3307292,16.6023214 31.3342946,16.5951905 31.34,16.59 C32.4081494,12.7327321 35.8976753,10.0461583 39.8998386,9.99981012 C43.9020018,9.95346197 47.4528087,12.5585033 48.61,16.39 C48.8439257,17.1590269 48.9717727,17.9563886 48.99,18.76 Z" id="Shape" fill="#00BCD4"/><path d="M38,25 C38.0013291,26.0612728 37.5803285,27.0794609 36.8298947,27.8298947 C36.0794609,28.5803285 35.0612728,29.0013291 34,29 L24,29 C21.790861,29 20,27.209139 20,25 C19.9969467,24.6622628 20.0406959,24.3257307 20.13,24 C20.4128602,22.8595159 21.1955918,21.9077438 22.26,21.41 C22.0856261,20.9604783 21.9974238,20.4821508 22,20 C21.9997035,19.8461684 22.009726,19.6924901 22.03,19.54 C22.0478722,19.3607636 22.0813322,19.1834259 22.13,19.01 C22.3016844,18.3567821 22.6313637,17.7558042 23.09,17.26 C23.8422961,16.4532073 24.8968897,15.9965791 26,16 C27.8184482,16.0047222 29.406443,17.2316226 29.87,18.99 L29.87,19 L29.88,19 C29.9610663,19.3271128 30.0013721,19.6629946 30,20 C30.0030533,20.3377372 29.9593041,20.6742693 29.87,21 L30,21 C29.9955278,20.1449829 30.3643821,19.3305817 31.01,18.77 L31.01,18.76 C31.5570397,18.270137 32.2656854,17.9994984 33,18 C34.6538958,18.0071207 35.9928793,19.3461042 36,21 C36.0032021,21.1713651 35.9864223,21.3425196 35.95,21.51 C36.9057331,22.0400146 37.6004039,22.9409158 37.87,24 C37.9593041,24.3257307 38.0030533,24.6622628 38,25 Z" id="Shape" fill="#F5F5F5"/><path d="M50.13,19 C49.9566596,19.6553991 49.9566596,20.3446009 50.13,21 L50,21 C50.0044722,20.1449829 49.6356179,19.3305817 48.99,18.77 L48.99,18.76 C48.9717727,17.9563886 48.8439257,17.1590269 48.61,16.39 C48.7918802,16.4960682 48.962726,16.6200152 49.12,16.76 L49.12,16.77 C49.8176371,17.3099511 50.2537061,18.1203126 50.32,19 L50.13,19 Z" id="Shape" fill="#F29C1F"/><path d="M60,25 C60,27.209139 58.209139,29 56,29 L46,29 C44.9387272,29.0013291 43.9205391,28.5803285 43.1701053,27.8298947 C42.4196715,27.0794609 41.9986709,26.0612728 42,25 C41.9969467,24.6622628 42.0406959,24.3257307 42.13,24 C42.3995961,22.9409158 43.0942669,22.0400146 44.05,21.51 C44.0135777,21.3425196 43.9967979,21.1713651 44,21 C44.0019538,19.8202736 44.6951482,18.7512083 45.771411,18.2680763 C46.8476738,17.7849443 48.1071826,17.9774455 48.99,18.76 L48.99,18.77 C49.6356179,19.3305817 50.0044722,20.1449829 50,21 L50.13,21 C49.9566596,20.3446009 49.9566596,19.6553991 50.13,19 L50.13,18.99 C50.4985474,17.5833428 51.6014432,16.4874954 53.0104344,16.127974 C54.4194255,15.7684527 55.9125388,16.2018966 56.91,17.26 C57.3686363,17.7558042 57.6983156,18.3567821 57.87,19.01 C57.9186678,19.1834259 57.9521278,19.3607636 57.97,19.54 C57.990274,19.6924901 58.0002965,19.8461684 58,20 C58.0025762,20.4821508 57.9143739,20.9604783 57.74,21.41 C58.8044082,21.9077438 59.5871398,22.8595159 59.87,24 C59.9593041,24.3257307 60.0030533,24.6622628 60,25 Z" id="Shape" fill="#F5F5F5"/><path d="M60,25 C60,27.209139 58.209139,29 56,29 L53,29 C55.209139,29 57,27.209139 57,25 C57.0030533,24.6622628 56.9593041,24.3257307 56.87,24 C56.5871398,22.8595159 55.8044082,21.9077438 54.74,21.41 C54.9143739,20.9604783 55.0025762,20.4821508 55,20 C55.0002965,19.8461684 54.990274,19.6924901 54.97,19.54 C54.9521278,19.3607636 54.9186678,19.1834259 54.87,19.01 C54.6983156,18.3567821 54.3686363,17.7558042 53.91,17.26 C53.5223588,16.837758 53.0435623,16.5094404 52.51,16.3 C52.570648,16.2673578 52.634269,16.2405701 52.7,16.22 C53.118322,16.0758147 53.5575292,16.0014874 54,16 C55.1031103,15.9965791 56.1577039,16.4532073 56.91,17.26 C57.3686363,17.7558042 57.6983156,18.3567821 57.87,19.01 C57.9186678,19.1834259 57.9521278,19.3607636 57.97,19.54 C57.990274,19.6924901 58.0002965,19.8461684 58,20 C58.0025762,20.4821508 57.9143739,20.9604783 57.74,21.41 C58.8044082,21.9077438 59.5871398,22.8595159 59.87,24 C59.9593041,24.3257307 60.0030533,24.6622628 60,25 Z" id="Shape" fill="#CFD8DC"/><path d="M10.511,56 C8.86133749,55.9693354 7.42609992,54.8626511 6.977,53.275 C6.6618426,52.4141982 6.54959663,51.4922755 6.649,50.581 C6.682,50.318 6.74,50.05 6.798,49.781 C6.91957463,49.3932994 6.95372661,48.9834757 6.898,48.581 C6.817,48.267 6.586,48.111 5.998,47.774 C5.764,47.641 5.527,47.505 5.305,47.349 C4.97992342,47.1169696 4.76529209,46.7608192 4.712,46.365 C4.67385435,45.8622176 4.78741543,45.359553 5.038,44.922 C4.697,44.661 4.324,44.367 4.108,44.172 C3.184,43.416 3.796,42.333 4.163,41.687 C4.297,41.449 4.454,41.174 4.603,40.854 C4.74079442,40.5365542 4.78015866,40.1850629 4.716,39.845 C4.666,39.586 3.941,39.216 3.509,38.995 C3.14677307,38.8238802 2.79926375,38.6232011 2.47,38.395 C1.75369155,37.9893367 1.23074833,37.3125018 1.019,36.517 C0.86,35.488 1.619,34.46 2.342,33.579 C4.05427497,31.3725891 5.52219196,28.9869725 6.72,26.464 C6.79665216,26.3279802 6.85387471,26.1818944 6.89,26.03 C6.89,25.755 6.565,25.439 6.077,24.991 C5.33779367,24.4453722 4.82013234,23.6514828 4.619,22.755 C4.56307696,22.1851159 4.65324528,21.610379 4.881,21.085 C5.062,20.611 5.265,20.156 5.468,19.701 C5.82559624,18.9699027 6.11288832,18.2064692 6.326,17.421 L6.426,16.999 C6.65555464,15.9178276 6.95144756,14.8518115 7.312,13.807 C8.19429313,11.3777039 9.55900834,9.15204797 11.324,7.264 C13.558,4.9 16.836,3.316 21.345,2.419 C24.5307746,1.72073844 27.7634281,1.25682993 31.017,1.031 C32.8880389,0.932259427 34.7641835,1.05612726 36.606,1.4 C37.1438215,1.50733513 37.4948462,2.02781362 37.3928337,2.56667005 C37.2908212,3.10552647 36.7738387,3.46167993 36.234,3.365 C34.5476491,3.05087325 32.8298402,2.93908307 31.117,3.032 C27.9626687,3.25230335 24.828655,3.70283662 21.74,4.38 C17.704,5.18 14.689,6.615 12.776,8.637 C11.1971652,10.3296077 9.97673014,12.3238693 9.188,14.5 C8.85614522,15.4674021 8.58396707,16.4542566 8.373,17.455 L8.273,17.881 C8.03242184,18.790144 7.70456527,19.6739167 7.294,20.52 C7.106,20.94 6.917,21.36 6.754,21.788 C6.65950369,22.0048357 6.60691104,22.2376006 6.599,22.474 C6.643,22.798 7.025,23.148 7.429,23.519 C8.25493667,24.1015488 8.78786015,25.0134644 8.89,26.019 C8.86993297,26.4934145 8.73617951,26.9560643 8.5,27.368 C7.24784001,30.0034832 5.71353526,32.4953873 3.924,34.8 C3.162,35.731 3,36.1 3,36.249 C3.18487589,36.4288287 3.3857006,36.5914967 3.6,36.735 C3.8610164,36.9170713 4.13661917,37.0772821 4.424,37.214 C5.277,37.65 6.446,38.248 6.686,39.468 C6.82918406,40.2237094 6.73595159,41.0051861 6.419,41.706 C6.245,42.076 6.065,42.396 5.908,42.672 C5.859,42.758 5.808,42.854 5.757,42.941 C6.172,43.275 6.738,43.699 6.978,43.875 C7.19568419,44.0363089 7.33859797,44.2790429 7.37403559,44.5476525 C7.40947321,44.8162621 7.33440129,45.087755 7.166,45.3 C7.01761396,45.493007 6.88833948,45.6999801 6.78,45.918 C6.849,45.958 6.918,45.998 6.988,46.037 C7.87254397,46.4174365 8.54781232,47.1638818 8.838,48.082 C8.98493135,48.7872637 8.95538984,49.5179007 8.752,50.209 C8.706,50.418 8.659,50.627 8.632,50.836 C8.57367075,51.4411271 8.65403967,52.0515889 8.867,52.621 C9.08745462,53.5430831 9.99362612,54.1291444 10.925,53.952 C13.8392719,53.2514045 16.7107073,52.3832961 19.525,51.352 C19.862616,51.2348169 20.2371025,51.3066512 20.507394,51.5404437 C20.7776856,51.7742361 20.9027185,52.1344681 20.835394,52.4854437 C20.7680696,52.8364192 20.518616,53.1248169 20.181,53.242 C17.2866763,54.3026468 14.3325972,55.1925101 11.334,55.907 C11.063591,55.9661968 10.7878001,55.9973615 10.511,56 Z M5.411,42.66 L5.442,42.688 L5.411,42.66 Z" id="Shape" fill="#000000"/><path d="M24.78,61 C24.3194886,60.9998779 23.9186017,60.6852787 23.809,60.238 C23.42,58.657 21.879,54.314 19.438,53.211 C19.0639436,53.0419148 18.8312137,52.6614066 18.8510746,52.25139 C18.8709354,51.8413735 19.1393525,51.4851405 19.528,51.353 C20.572,50.999 21.517,50.668 22.261,50.408 C22.952,50.167 23.473,49.985 23.744,49.898 C27.902,48.583 28.744,47.082 28.721,46.053 C28.7080213,45.5007153 29.1452153,45.0424787 29.6975,45.0295 C30.2497847,45.0165213 30.7080213,45.4537153 30.721,46.006 C30.779,48.498 28.637,50.449 24.352,51.806 C24.094,51.889 23.59,52.065 22.921,52.298 L22.021,52.614 C23.670109,54.4426539 24.87322,56.6284481 25.536,59 L48.218,58.937 L48.151,58.837 C47.8629147,58.4221101 47.6039597,57.987734 47.376,57.537 C46.8786739,56.5263955 46.4636619,55.4773282 46.135,54.4 C45.5282684,52.3530291 45.1072324,50.2555471 44.877,48.133 C44.4831396,44.7875333 44.9892182,41.3975661 46.343,38.313 C47.141408,36.6438155 48.1288779,35.0718493 49.286,33.628 C49.866,32.846 50.466,32.038 50.986,31.217 C51.5055429,30.406033 51.9411246,29.5442515 52.286,28.645 C52.4087599,28.3043281 52.706099,28.056638 53.0633449,27.9974544 C53.4205908,27.9382708 53.7819204,28.0768418 54.0079824,28.3597256 C54.2340444,28.6426095 54.2895145,29.0256031 54.153,29.361 C53.7594368,30.3856242 53.2628922,31.3676568 52.671,32.292 C52.114,33.17 51.493,34.009 50.891,34.819 C49.8254731,36.142142 48.9142569,37.5824407 48.175,39.112 C46.9634389,41.8699237 46.5101643,44.9013057 46.862,47.893 C47.0776037,49.8964849 47.4732015,51.8764821 48.044,53.809 C48.3438821,54.7865634 48.7214175,55.7385946 49.173,56.656 C49.3643284,57.0297119 49.5804791,57.3901857 49.82,57.735 C50.2447579,58.3180683 50.5860507,58.9575717 50.834,59.635 C50.9294293,59.9384437 50.8747998,60.2691879 50.6868608,60.5258273 C50.4989218,60.7824667 50.200095,60.9343833 49.882,60.935 L24.782,61.005 L24.78,61 Z" id="Shape" fill="#000000"/><path d="M11.194,19.567 C10.8888508,19.5670321 10.6003862,19.4277344 10.4106651,19.1887325 C10.2209439,18.9497305 10.1507311,18.6371832 10.22,18.34 L10.32,17.907 C10.5131488,16.9905545 10.7602456,16.086314 11.06,15.199 C11.7556722,13.274706 12.8328806,11.5107644 14.227,10.013 C15.7595511,8.5356103 17.6468677,7.47795529 19.707,6.942 C20.2352604,6.78073285 20.7942329,7.07823964 20.9555,7.6065 C21.1167671,8.13476036 20.8192604,8.69373285 20.291,8.855 C18.56399,9.29262258 16.9772482,10.1637817 15.681,11.386 C14.4731212,12.6862822 13.5398535,14.2167868 12.937,15.886 C12.6666327,16.6961058 12.4432611,17.5211451 12.268,18.357 L12.168,18.79 C12.064068,19.2443274 11.6600634,19.5666185 11.194,19.567 Z" id="Shape" fill="#000000"/><circle id="Oval" fill="#000000" cx="10" cy="22" r="1"/><path d="M44.99,19.78 C44.4533385,19.7804512 44.0120029,19.3572105 43.99,18.821 C43.8944002,16.686264 42.1358755,15.0047288 39.999,15.0047288 C37.8621245,15.0047288 36.1035998,16.686264 36.008,18.821 C35.9931735,19.1782656 35.7888743,19.5004828 35.47206,19.6662754 C35.1552456,19.8320681 34.7740478,19.8162484 34.4720599,19.6247754 C34.1700721,19.4333025 33.9931735,19.0952656 34.008,18.738 C34.1392973,15.5255051 36.7818231,12.9887754 39.997,12.9887754 C43.2121769,12.9887754 45.8547027,15.5255051 45.986,18.738 C46.00913,19.2897083 45.5807029,19.7557403 45.029,19.779 L44.99,19.78 Z" id="Shape" fill="#000000"/><path d="M56.909,18.26 C56.3958175,18.2594932 55.966318,17.8706104 55.915,17.36 C55.071003,9.20468672 48.1988698,3.00705039 40,3.00705039 C31.8011302,3.00705039 24.928997,9.20468672 24.085,17.36 C24.0492735,17.7154793 23.8266148,18.0248958 23.5008975,18.1716953 C23.1751801,18.3184949 22.7958882,18.2803751 22.5058974,18.0716953 C22.2159066,17.8630156 22.0592734,17.5154793 22.095,17.16 C23.0416355,7.98263795 30.7739449,1.00688251 40,1.00688251 C49.2260551,1.00688251 56.9583645,7.98263795 57.905,17.16 C57.9329476,17.4245446 57.8543382,17.689322 57.6865617,17.8957584 C57.5187853,18.1021947 57.2756708,18.2332744 57.011,18.26 C56.977,18.258 56.943,18.26 56.909,18.26 Z" id="Shape" fill="#000000"/><path d="M52.7,17.22 C52.2311656,17.2192431 51.8257989,16.892871 51.725,16.435 C50.5220369,10.9233756 45.6423761,6.99387163 40.001,6.99387163 C34.3596239,6.99387163 29.4799631,10.9233756 28.277,16.435 C28.2066975,16.7903652 27.9497066,17.0799234 27.6052046,17.191929 C27.2607027,17.3039346 26.8825641,17.2208719 26.616719,16.9747962 C26.350874,16.7287205 26.2388962,16.3581139 26.324,16.006 C27.7292341,9.57795722 33.4211507,4.99592826 40.001,4.99592826 C46.5808493,4.99592826 52.2727659,9.57795722 53.678,16.006 C53.7428419,16.3019791 53.6699895,16.6113958 53.479903,16.8473518 C53.2898165,17.0833078 53.0029983,17.2203534 52.7,17.22 Z" id="Shape" fill="#000000"/><path d="M31.01,19.765 L31,19.765 C30.4527987,19.7578858 30.0129538,19.3122475 30.013,18.765 L30.013,18.755 C30.138361,13.3327093 34.5660916,9.00031066 39.9898263,8.99298129 C45.4135611,8.98565192 49.8529846,13.3060679 49.993,18.728 L47.993,18.765 C47.8800322,14.4298614 44.3308176,10.9756073 39.9942098,10.9802205 C35.657602,10.9848336 32.1157444,14.4466309 32.012,18.782 C32.0027109,19.3284138 31.5564915,19.7661719 31.01,19.765 Z" id="Shape" fill="#000000"/><path d="M34,30 L24,30 C21.9780636,30.0011875 20.1544276,28.7844926 19.3791847,26.9170809 C18.6039417,25.0496691 19.0297035,22.8991525 20.458,21.468 C20.6543318,21.2772206 20.864944,21.1017104 21.088,20.943 C20.6100497,18.468078 22.0490792,16.024379 24.4452104,15.2419274 C26.8413416,14.4594757 29.44523,15.5829683 30.52,17.863 C31.7228232,16.9125173 33.3630761,16.733108 34.7429265,17.4011004 C36.1227769,18.0690928 36.9994607,19.4669636 37,21 C38.7217216,22.2912912 39.4239867,24.5394281 38.7434165,26.5811388 C38.0628463,28.6228495 36.152152,30 34,30 Z M26,17 C24.3431458,17 23,18.3431458 23,20 C22.9974955,20.3564941 23.0619453,20.7102894 23.19,21.043 C23.3830467,21.53195 23.1645665,22.0868898 22.69,22.313 C22.3859928,22.4591782 22.1077118,22.6537047 21.866,22.889 C21.0137354,23.7495768 20.7625493,25.0382198 21.2292091,26.1558852 C21.6958688,27.2735507 22.7888243,28.0009731 24,28 L34,28 C35.3642402,27.9983035 36.5555546,27.0763484 36.8994118,25.7561528 C37.2432691,24.4359573 36.6530741,23.0499915 35.463,22.383 C35.0739952,22.1655838 34.8758014,21.7169969 34.977,21.283 C34.9954249,21.1898512 35.0031416,21.0949016 35,21 C35,19.8954305 34.1045695,19 33,19 C31.8954305,19 31,19.8954305 31,21 C31,21.5522847 30.5522847,22 30,22 L29.87,22 C29.5568156,22.0001317 29.2616577,21.8535314 29.0725238,21.6039061 C28.8833898,21.3542807 28.822127,21.0304648 28.907,20.729 C28.9719138,20.4915398 29.0032184,20.246152 29,20 C29,18.3431458 27.6568542,17 26,17 Z" id="Shape" fill="#000000"/><path d="M56,30 L46,30 C43.847848,30 41.9371537,28.6228495 41.2565835,26.5811388 C40.5760133,24.5394281 41.2782784,22.2912912 43,21 C43.0005393,19.4669636 43.8772231,18.0690928 45.2570735,17.4011004 C46.6369239,16.733108 48.2771768,16.9125173 49.48,17.863 C50.5549169,15.5835619 53.1582524,14.4603965 55.5540076,15.2424714 C57.9497629,16.0245463 59.3890072,18.4673791 58.912,20.942 C59.1294165,21.0960367 59.3346863,21.2665377 59.526,21.452 C60.9636984,22.8795769 61.3977728,25.0336528 60.6251797,26.9066324 C59.8525866,28.779612 58.0260679,30.0012064 56,30 Z M47,19 C45.8954305,19 45,19.8954305 45,21 C44.9970545,21.0949434 45.0051081,21.1899086 45.024,21.283 C45.125021,21.7172309 44.9263888,22.1658868 44.537,22.383 C43.3469259,23.0499915 42.7567309,24.4359573 43.1005882,25.7561528 C43.4444454,27.0763484 44.6357598,27.9983035 46,28 L56,28 C57.2157244,28.0013707 58.312084,27.2688968 58.7761832,26.1452422 C59.2402824,25.0215876 58.9803552,23.7289313 58.118,22.872 C57.8808261,22.6434636 57.6083223,22.4547032 57.311,22.313 C56.8364335,22.0868898 56.6179533,21.53195 56.811,21.043 C56.9387133,20.7102237 57.0028235,20.3564306 57,20 C57,18.3431458 55.6568542,17 54,17 C52.3431458,17 51,18.3431458 51,20 C50.9967816,20.246152 51.0280862,20.4915398 51.093,20.729 C51.177873,21.0304648 51.1166102,21.3542807 50.9274762,21.6039061 C50.7383423,21.8535314 50.4431844,22.0001317 50.13,22 L50,22 C49.4477153,22 49,21.5522847 49,21 C49,19.8954305 48.1045695,19 47,19 Z" id="Shape" fill="#000000"/></g></g></svg>
