<?xml version="1.0" encoding="UTF-8"?>
<svg xmlns="http://www.w3.org/2000/svg" xmlns:xlink="http://www.w3.org/1999/xlink" width="512" height="512" viewBox="0 0 60 61" version="1.1"><!-- Generator: Sketch 51.3 (57544) - http://www.bohemiancoding.com/sketch --><title>025 - Imagination</title><desc>Created with Sketch.</desc><defs/><g id="Page-1" stroke="none" stroke-width="1" fill="none" fill-rule="evenodd"><g id="025---Imagination" transform="translate(-1.000000, -1.000000)" fill-rule="nonzero"><path d="M47.26,38.71 C45.9803538,41.6319437 45.5006323,44.8415908 45.87,48.01 C46.0951005,50.0721875 46.5033794,52.1102353 47.09,54.1 C47.4048963,55.1305317 47.802868,56.1338218 48.28,57.1 C48.8718004,58.0090608 49.4061765,58.9542385 49.88,59.93 L24.78,60 L24.78,59.99 C24.7,59.69 23.19,53.81 19.85,52.3 C19.23,52.52 18.57,52.74 17.9,52.97 C15.6789002,53.7404523 13.4191713,54.3946722 11.13,54.93 C10.4993821,55.0806865 9.83512584,54.9878335 9.27,54.67 C8.62676625,54.2742562 8.14753634,53.660132 7.92,52.94 C7.65806229,52.2276891 7.56229323,51.4649569 7.64,50.71 C7.87036773,49.9391054 7.94848689,49.1307419 7.87,48.33 C7.61,47.32 6.65,47.07 5.89,46.53 C5.27,46.09 6.38,44.68 6.38,44.68 C6.38,44.68 5.2,43.81 4.78,43.43 C4.34,43.07 4.96,42.45 5.51,41.28 C5.73694079,40.7719796 5.80323378,40.2067446 5.7,39.66 C5.49,38.59 3.87,38.18 3.07,37.59 C2.69,37.31 2.08,36.89 2.01,36.38 C1.9,35.67 2.74,34.67 3.15,34.17 C4.89454657,31.9217816 6.38996718,29.4908848 7.61,26.92 C7.77010631,26.6486227 7.86589137,26.3441631 7.89,26.03 C7.87,24.6 5.8,24.01 5.61,22.62 C5.58022555,22.2120559 5.65239212,21.803112 5.82,21.43 C6.39667192,20.2042401 6.89109856,18.9414478 7.3,17.65 C7.54612792,16.4653226 7.86336869,15.2965408 8.25,14.15 C9.08859812,11.8496676 10.3808376,9.74127689 12.05,7.95 C14.5,5.36 18.12,4.08 21.54,3.4 C24.5813721,2.73504394 27.6655865,2.28393999 30.77,2.05 C30.87,2.04 30.97,2.04 31.07,2.03 C37.47,1.71 42.53,3.88 47.49,7.76 C50.1927291,9.77631392 52.1683037,12.6151058 53.12,15.85 C53.8451888,18.5213389 54.1852867,21.2825294 54.13,24.05 C54.110834,26.7831121 53.3129958,29.4541358 51.83,31.75 C50.34,34.1 48.39,36.14 47.26,38.71 Z" id="Shape" fill="#0377BC"/><path d="M44.26,38.71 C42.9803538,41.6319437 42.5006323,44.8415908 42.87,48.01 C43.0951005,50.0721875 43.5033794,52.1102353 44.09,54.1 C44.4048963,55.1305317 44.802868,56.1338218 45.28,57.1 C45.8718004,58.0090608 46.4061765,58.9542385 46.88,59.93 L24.78,59.99 C24.7,59.69 23.19,53.81 19.85,52.3 C19.23,52.52 18.57,52.74 17.9,52.97 C17.5823905,52.6995596 17.2290765,52.4741116 16.85,52.3 C14.44,53.14 11.5,54.11 9.27,54.67 C8.62676625,54.2742562 8.14753634,53.660132 7.92,52.94 C7.65806229,52.2276891 7.56229323,51.4649569 7.64,50.71 C7.87036773,49.9391054 7.94848689,49.1307419 7.87,48.33 C7.61,47.32 6.65,47.07 5.89,46.53 C5.27,46.09 6.38,44.68 6.38,44.68 C6.38,44.68 5.2,43.81 4.78,43.43 C4.34,43.07 4.96,42.45 5.51,41.28 C5.73694079,40.7719796 5.80323378,40.2067446 5.7,39.66 C5.49,38.59 3.87,38.18 3.07,37.59 C2.69,37.31 2.08,36.89 2.01,36.38 C1.9,35.67 2.74,34.67 3.15,34.17 C4.89454657,31.9217816 6.38996718,29.4908848 7.61,26.92 C7.77010631,26.6486227 7.86589137,26.3441631 7.89,26.03 C7.87,24.6 5.8,24.01 5.61,22.62 C5.58022555,22.2120559 5.65239212,21.803112 5.82,21.43 C6.39667192,20.2042401 6.89109856,18.9414478 7.3,17.65 C7.54612792,16.4653226 7.86336869,15.2965408 8.25,14.15 C9.08859812,11.8496676 10.3808376,9.74127689 12.05,7.95 C14.5,5.36 18.12,4.08 21.54,3.4 C24.5813721,2.73504394 27.6655865,2.28393999 30.77,2.05 C35.93,2.37 40.25,4.44 44.49,7.76 C47.1927291,9.77631392 49.1683037,12.6151058 50.12,15.85 C50.8451888,18.5213389 51.1852867,21.2825294 51.13,24.05 C51.110834,26.7831121 50.3129958,29.4541358 48.83,31.75 C47.34,34.1 45.39,36.14 44.26,38.71 Z" id="Shape" fill="#02A9F4"/><path d="M60,32 C60.0039999,33.3273046 59.4785003,34.6013996 58.5399499,35.5399499 C57.6013996,36.4785003 56.3273046,37.0039999 55,37 L34,37 C31.9777562,36.9977618 30.1554688,35.7790338 29.3811007,33.9109255 C28.6067326,32.0428171 29.0323891,29.8922716 30.46,28.46 C30.9135797,28.0176297 31.4416809,27.6587916 32.02,27.4 C32.0031139,27.2673743 31.9964276,27.1336486 32,27 C31.9988381,24.0729672 34.1132211,21.5737665 37,21.09 L37,21 C36.9977449,17.7140438 39.2814057,14.8688271 42.49,14.16 C42.986634,14.0557815 43.4925534,14.0021741 44,14 C47.1568648,13.9989745 49.9228582,16.1134228 50.75,19.16 C51.1576161,19.0509026 51.5780466,18.9970875 52,19 C53.914155,19.0003409 55.6601252,20.0934728 56.4965255,21.8152231 C57.3329258,23.5369734 57.1129479,25.5851333 55.93,27.09 C58.2913548,27.534172 60.0014695,29.5972342 60,32 Z" id="Shape" fill="#CFD8DC"/><path d="M57,32 C57.0039999,33.3273046 56.4785003,34.6013996 55.5399499,35.5399499 C54.6013996,36.4785003 53.3273046,37.0039999 52,37 L34,37 C31.9777562,36.9977618 30.1554688,35.7790338 29.3811007,33.9109255 C28.6067326,32.0428171 29.0323891,29.8922716 30.46,28.46 C30.9135797,28.0176297 31.4416809,27.6587916 32.02,27.4 C32.0031139,27.2673743 31.9964276,27.1336486 32,27 C31.9988381,24.0729672 34.1132211,21.5737665 37,21.09 L37,21 C36.9977449,17.7140438 39.2814057,14.8688271 42.49,14.16 C45.0390609,14.714406 47.0671963,16.6422914 47.75,19.16 C48.1576161,19.0509026 48.5780466,18.9970875 49,19 C49.5801624,18.9961773 50.1561894,19.0978291 50.7,19.3 C52.2085392,19.8461188 53.3633926,21.0829593 53.8049257,22.625355 C54.2464587,24.1677508 53.9210368,25.8283415 52.93,27.09 C55.2913548,27.534172 57.0014695,29.5972342 57,32 Z" id="Shape" fill="#F5F5F5"/><path d="M39,36 L38.38,38.49 C38.1580765,39.3799324 37.3571798,40.0033108 36.44,40 L31.56,40 C30.6428202,40.0033108 29.8419235,39.3799324 29.62,38.49 L29,36 L39,36 Z" id="Shape" fill="#FF9801"/><polygon id="Shape" fill="#A0522D" points="40 32 39 36 29 36 28 32"/><path d="M34.5,2.05 C34.7934264,2.09109896 35.0775808,2.1824343 35.34,2.32 C35.0739603,2.19127022 34.7912205,2.10038957 34.5,2.05 Z" id="Shape" fill="#E64C3C"/><path d="M35.62,2.47 C35.5755629,2.43960829 35.528744,2.41285467 35.48,2.39 C35.45,2.37 35.43,2.36 35.4,2.34 C35.48,2.38 35.55,2.42 35.63,2.47 L35.62,2.47 Z" id="Shape" fill="#E64C3C"/><path d="M47,15 C47.0070374,18.3580233 45.704867,21.5865448 43.37,24 L24.63,24 C21.1453126,20.3802243 20.0618988,15.0748334 21.8483808,10.3786323 C23.6348628,5.68243122 27.9705207,2.43850956 32.98,2.05 C27.94,2.51 24,6.34 24,11 C24.0516707,14.0432164 25.6798,16.841327 28.3,18.39 C31.7971526,20.5355257 36.2028474,20.5355257 39.7,18.39 C42.3202,16.841327 43.9483293,14.0432164 44,11 C44,6.34 40.06,2.51 35.02,2.05 C41.7830245,2.57452725 47.0025473,8.21666578 47,15 Z" id="Shape" fill="#C81E1E"/><path d="M36.17,2.85 C36.1324667,2.81684468 36.0923384,2.78674847 36.05,2.76 C36,2.72 35.94,2.68 35.89,2.64 C35.89,2.64 35.89,2.63 35.9,2.64 C35.98,2.7 36.07,2.77 36.17,2.85 Z" id="Shape" fill="#E64C3C"/><path d="M37.66,4.6 C37.5958403,4.489613 37.5257372,4.38278925 37.45,4.28 L37.45,4.27 C37.45,4.27552285 37.4544772,4.28 37.46,4.28 C37.53,4.39 37.59,4.49 37.66,4.6 Z" id="Shape" fill="#E64C3C"/><path d="M39.7,18.39 C39.4298878,20.3502383 38.8208068,22.2485407 37.9,24 L30.1,24 C29.1791932,22.2485407 28.5701122,20.3502383 28.3,18.39 C31.7971526,20.5355257 36.2028474,20.5355257 39.7,18.39 Z" id="Shape" fill="#CFD8DC"/><path d="M41,33 L27,33 C26.4477153,33 26,32.5522847 26,32 C26,31.4477153 26.4477153,31 27,31 L41,31 C41.5522847,31 42,31.4477153 42,32 C42,32.5522847 41.5522847,33 41,33 Z" id="Shape" fill="#FAC176"/><path d="M40,14.5 C40.0046064,15.8026183 39.904282,17.1034914 39.7,18.39 C36.2028474,20.5355257 31.7971526,20.5355257 28.3,18.39 C28.095718,17.1034914 27.9953936,15.8026183 28,14.5 C28,7.7 30.61,2.17 33.85,2.01 C33.8995443,2.00169786 33.9497921,1.99834802 34,2 C34.0634976,1.99834111 34.1270273,2.00168478 34.19,2.01 C34.2943687,2.01346356 34.3981705,2.02685734 34.5,2.05 C34.7912205,2.10038957 35.0739603,2.19127022 35.34,2.32 C35.36,2.33 35.38,2.33 35.39,2.34 L35.4,2.34 C35.43,2.36 35.45,2.37 35.48,2.39 C35.528744,2.41285467 35.5755629,2.43960829 35.62,2.47 L35.63,2.47 C35.7196918,2.52189946 35.8064872,2.57865034 35.89,2.64 C35.89,2.64 35.89,2.63 35.9,2.64 C35.9523935,2.67691278 36.0024865,2.7169872 36.05,2.76 C36.0923384,2.78674847 36.1324667,2.81684468 36.17,2.85 C36.26,2.92 36.35,3 36.44,3.08 C36.53,3.16 36.61,3.25 36.7,3.34 C36.8892893,3.53904861 37.0662834,3.74943787 37.23,3.97 C37.3,4.06 37.38,4.16 37.45,4.27 L37.45,4.28 L37.46,4.28 C37.53,4.39 37.59,4.49 37.66,4.6 C37.73,4.71 37.81,4.84 37.88,4.97 C37.93,5.06 37.98,5.15 38.03,5.25 C38.1,5.38 38.17,5.52 38.24,5.66 C38.29,5.76 38.34,5.87 38.38,5.97 C38.47,6.16 38.55,6.35 38.63,6.55 C38.65,6.6 38.67,6.65 38.69,6.71 C38.75,6.87 38.82,7.03 38.87,7.2 C39.1500987,8.01707453 39.373955,8.85235909 39.54,9.7 C39.57,9.87 39.61,10.05 39.64,10.23 C39.67,10.41 39.7,10.6 39.73,10.78 C39.79,11.19 39.84,11.6 39.88,12.02 C39.9,12.22 39.92,12.42 39.93,12.62 C39.94,12.82 39.96,13.03 39.97,13.24 C39.99,13.66 40,14.08 40,14.5 Z" id="Shape" fill="#F5F5F5"/><path d="M28,14.5 C27.9953936,15.8026183 28.095718,17.1034914 28.3,18.39 C25.6798,16.841327 24.0516707,14.0432164 24,11 C24,6.34 27.94,2.51 32.98,2.05 C33.1123619,2.02971436 33.2460931,2.01968452 33.38,2.02 C33.5359891,2.00168271 33.693373,1.99833411 33.85,2.01 C30.61,2.17 28,7.7 28,14.5 Z" id="Shape" fill="#F44335"/><path d="M44,11 C43.9483293,14.0432164 42.3202,16.841327 39.7,18.39 C39.904282,17.1034914 40.0046064,15.8026183 40,14.5 C40,14.08 39.99,13.66 39.97,13.24 C39.96,13.03 39.95,12.82 39.93,12.62 C39.91,12.42 39.9,12.22 39.88,12.02 C39.84,11.6 39.79,11.19 39.73,10.78 C39.7,10.6 39.67,10.41 39.64,10.23 C39.61,10.05 39.58,9.88 39.54,9.7 C39.373955,8.85235909 39.1500987,8.01707453 38.87,7.2 C38.81,7.03 38.75,6.87 38.69,6.71 C38.67,6.65 38.65,6.6 38.63,6.55 C38.55,6.35 38.47,6.16 38.38,5.97 C38.34,5.87 38.29,5.76 38.24,5.66 C38.17,5.52 38.11,5.38 38.03,5.25 C37.98,5.15 37.93,5.06 37.88,4.97 C37.81,4.84 37.74,4.72 37.66,4.6 C37.58,4.48 37.53,4.39 37.46,4.28 C37.4544772,4.28 37.45,4.27552285 37.45,4.27 C37.38,4.17 37.31,4.07 37.23,3.97 C37.0662834,3.74943787 36.8892893,3.53904861 36.7,3.34 C36.618406,3.24840492 36.5315951,3.16159399 36.44,3.08 C36.3576293,2.99480398 36.2672079,2.91777839 36.17,2.85 C36.07,2.77 35.98,2.7 35.9,2.64 C35.89,2.63 35.89,2.64 35.89,2.64 C35.8064872,2.57865034 35.7196918,2.52189946 35.63,2.47 C35.55,2.42 35.48,2.38 35.4,2.34 L35.39,2.34 C35.37,2.33 35.36,2.32 35.34,2.32 C35.0775808,2.1824343 34.7934264,2.09109896 34.5,2.05 C34.3981705,2.02685734 34.2943687,2.01346356 34.19,2.01 C34.3333928,2.00344733 34.4770668,2.00678858 34.62,2.02 C34.7539069,2.01968452 34.8876381,2.02971436 35.02,2.05 C40.06,2.51 44,6.34 44,11 Z" id="Shape" fill="#F44335"/><path d="M10.511,56 C8.86133749,55.9693354 7.42609992,54.8626511 6.977,53.275 C6.6618426,52.4141982 6.54959663,51.4922755 6.649,50.581 C6.682,50.318 6.74,50.05 6.798,49.781 C6.91957463,49.3932994 6.95372661,48.9834757 6.898,48.581 C6.817,48.267 6.586,48.111 5.998,47.774 C5.764,47.641 5.527,47.505 5.305,47.349 C4.97992342,47.1169696 4.76529209,46.7608192 4.712,46.365 C4.67385435,45.8622176 4.78741543,45.359553 5.038,44.922 C4.697,44.661 4.324,44.367 4.108,44.172 C3.184,43.416 3.796,42.333 4.163,41.687 C4.297,41.449 4.454,41.174 4.603,40.854 C4.74079442,40.5365542 4.78015866,40.1850629 4.716,39.845 C4.666,39.586 3.941,39.216 3.509,38.995 C3.14677307,38.8238802 2.79926375,38.6232011 2.47,38.395 C1.75369155,37.9893367 1.23074833,37.3125018 1.019,36.517 C0.86,35.488 1.619,34.46 2.342,33.579 C4.05427497,31.3725891 5.52219196,28.9869725 6.72,26.464 C6.79665216,26.3279802 6.85387471,26.1818944 6.89,26.03 C6.89,25.755 6.565,25.439 6.077,24.991 C5.33779367,24.4453722 4.82013234,23.6514828 4.619,22.755 C4.56307696,22.1851159 4.65324528,21.610379 4.881,21.085 C5.062,20.611 5.265,20.156 5.468,19.701 C5.82559624,18.9699027 6.11288832,18.2064692 6.326,17.421 L6.426,16.999 C6.65555464,15.9178276 6.95144756,14.8518115 7.312,13.807 C8.19429313,11.3777039 9.55900834,9.15204797 11.324,7.264 C13.558,4.9 16.836,3.316 21.345,2.419 C24.5307746,1.72073844 27.7634281,1.25682993 31.017,1.031 C31.788,0.991 32.558,0.987 33.37,1.021 C33.9190013,1.04036909 34.3542655,1.49065762 34.355,2.04 C34.3555556,2.57951867 33.9195145,3.01779592 33.38,3.02 C32.54,2.989 31.83,2.993 31.121,3.028 C27.9652696,3.24981727 24.8299393,3.70168451 21.74,4.38 C17.704,5.18 14.689,6.615 12.776,8.637 C11.1971652,10.3296077 9.97673014,12.3238693 9.188,14.5 C8.85614522,15.4674021 8.58396707,16.4542566 8.373,17.455 L8.273,17.881 C8.03242184,18.790144 7.70456527,19.6739167 7.294,20.52 C7.106,20.94 6.917,21.36 6.754,21.788 C6.65950369,22.0048357 6.60691104,22.2376006 6.599,22.474 C6.643,22.798 7.025,23.148 7.429,23.519 C8.25493667,24.1015488 8.78786015,25.0134644 8.89,26.019 C8.86993297,26.4934145 8.73617951,26.9560643 8.5,27.368 C7.24784001,30.0034832 5.71353526,32.4953873 3.924,34.8 C3.162,35.731 3,36.1 3,36.249 C3.18487589,36.4288287 3.3857006,36.5914967 3.6,36.735 C3.8610164,36.9170713 4.13661917,37.0772821 4.424,37.214 C5.277,37.65 6.446,38.248 6.686,39.468 C6.82918406,40.2237094 6.73595159,41.0051861 6.419,41.706 C6.245,42.076 6.065,42.396 5.908,42.672 C5.859,42.758 5.808,42.854 5.757,42.941 C6.172,43.275 6.738,43.699 6.978,43.875 C7.19568419,44.0363089 7.33859797,44.2790429 7.37403559,44.5476525 C7.40947321,44.8162621 7.33440129,45.087755 7.166,45.3 C7.01761396,45.493007 6.88833948,45.6999801 6.78,45.918 C6.849,45.958 6.918,45.998 6.988,46.037 C7.87254397,46.4174365 8.54781232,47.1638818 8.838,48.082 C8.98493135,48.7872637 8.95538984,49.5179007 8.752,50.209 C8.706,50.418 8.659,50.627 8.632,50.836 C8.57367075,51.4411271 8.65403967,52.0515889 8.867,52.621 C9.08610543,53.5440367 9.99330977,54.1307661 10.925,53.952 C13.8392719,53.2514045 16.7107073,52.3832961 19.525,51.352 C19.862616,51.2348169 20.2371025,51.3066512 20.507394,51.5404437 C20.7776856,51.7742361 20.9027185,52.1344681 20.835394,52.4854437 C20.7680696,52.8364192 20.518616,53.1248169 20.181,53.242 C17.2866763,54.3026468 14.3325972,55.1925101 11.334,55.907 C11.063591,55.9661968 10.7878001,55.9973615 10.511,56 Z M5.411,42.66 L5.442,42.688 L5.411,42.66 Z" id="Shape" fill="#000000"/><path d="M24.78,61 C24.3194886,60.9998779 23.9186017,60.6852787 23.809,60.238 C23.42,58.657 21.879,54.314 19.438,53.211 C19.0639436,53.0419148 18.8312137,52.6614066 18.8510746,52.25139 C18.8709354,51.8413735 19.1393525,51.4851405 19.528,51.353 C20.572,50.999 21.517,50.668 22.261,50.408 C22.952,50.167 23.473,49.985 23.744,49.898 C27.902,48.583 28.744,47.082 28.721,46.053 C28.7080213,45.5007153 29.1452153,45.0424787 29.6975,45.0295 C30.2497847,45.0165213 30.7080213,45.4537153 30.721,46.006 C30.779,48.498 28.637,50.449 24.352,51.806 C24.094,51.889 23.59,52.065 22.921,52.298 L22.021,52.614 C23.670109,54.4426539 24.87322,56.6284481 25.536,59 L48.218,58.937 L48.151,58.837 C47.8630969,58.4195592 47.6041562,57.9828684 47.376,57.53 C46.879054,56.5216399 46.4640482,55.4749292 46.135,54.4 C45.5282684,52.3530291 45.1072324,50.2555471 44.877,48.133 C44.4831396,44.7875333 44.9892182,41.3975661 46.343,38.313 C46.6200771,37.6782125 46.943275,37.064571 47.31,36.477 C47.60783,36.0252334 48.2109818,35.8923201 48.6711116,36.1770592 C49.1312414,36.4617984 49.2814136,37.0608863 49.01,37.529 C48.693886,38.0353431 48.4151457,38.5640807 48.176,39.111 C46.963733,41.8690784 46.5101014,44.9008845 46.862,47.893 C47.0774089,49.8965958 47.4733508,51.8766402 48.045,53.809 C48.3434759,54.7867332 48.7210564,55.7385437 49.174,56.655 C49.3650492,57.0298282 49.5812082,57.3913183 49.821,57.737 C50.2457748,58.3198965 50.586758,58.9594505 50.834,59.637 C50.9294293,59.9404437 50.8747998,60.2711879 50.6868608,60.5278273 C50.4989218,60.7844667 50.200095,60.9363833 49.882,60.937 L24.782,61.007 L24.78,61 Z" id="Shape" fill="#000000"/><path d="M39.4,4.17 C39.1358752,4.16691042 38.8825183,4.06485398 38.69,3.884 C38.3456561,3.54822998 38.2868161,3.01582633 38.5495284,2.61296593 C38.8122407,2.21010553 39.3231641,2.04925451 39.7692816,2.22895819 C40.2153992,2.40866186 40.4721686,2.87875254 40.3822803,3.35122935 C40.2923919,3.82370617 39.8809399,4.16666824 39.4,4.17 Z" id="Shape" fill="#000000"/><path d="M11.194,19.567 C10.8888508,19.5670321 10.6003862,19.4277344 10.4106651,19.1887325 C10.2209439,18.9497305 10.1507311,18.6371832 10.22,18.34 L10.32,17.907 C10.5131488,16.9905545 10.7602456,16.086314 11.06,15.199 C11.7556722,13.274706 12.8328806,11.5107644 14.227,10.013 C15.7595511,8.5356103 17.6468677,7.47795529 19.707,6.942 C20.2352604,6.78073285 20.7942329,7.07823964 20.9555,7.6065 C21.1167671,8.13476036 20.8192604,8.69373285 20.291,8.855 C18.56399,9.29262258 16.9772482,10.1637817 15.681,11.386 C14.4731212,12.6862822 13.5398535,14.2167868 12.937,15.886 C12.6666327,16.6961058 12.4432611,17.5211451 12.268,18.357 L12.168,18.79 C12.064068,19.2443274 11.6600634,19.5666185 11.194,19.567 Z" id="Shape" fill="#000000"/><circle id="Oval" fill="#000000" cx="10" cy="22" r="1"/><path d="M43.37,25 L24.63,25 C24.3596326,25.0013101 24.1002562,24.8930863 23.911,24.7 C18.5991486,19.1787076 18.7121186,10.4131944 24.164499,5.03063147 C29.6168794,-0.351931413 38.3831206,-0.351931413 43.835501,5.03063147 C49.2878814,10.4131944 49.4008514,19.1787076 44.089,24.7 C43.8997438,24.8930863 43.6403674,25.0013101 43.37,25 Z M25.064,23 L42.936,23 C47.245876,18.1914216 46.977783,10.8344883 42.3293456,6.35235861 C37.6809082,1.87022891 30.3190918,1.87022891 25.6706544,6.35235861 C21.022217,10.8344883 20.754124,18.1914216 25.064,23 Z" id="Shape" fill="#000000"/><path d="M36.438,41 L31.562,41 C30.1852981,41.0003078 28.9850796,40.063552 28.651,38.728 L27.03,32.243 C26.9551524,31.9442176 27.0221708,31.6276136 27.2116655,31.3847868 C27.4011602,31.1419601 27.6919853,31.0000081 28,31 L40,31 C40.3080147,31.0000081 40.5988398,31.1419601 40.7883345,31.3847868 C40.9778292,31.6276136 41.0448476,31.9442176 40.97,32.243 L39.349,38.728 C39.0149204,40.063552 37.8147019,41.0003078 36.438,41 Z M29.281,33 L30.591,38.242 C30.702161,38.68769 31.1026567,39.0003324 31.562,39 L36.438,39 C36.8973433,39.0003324 37.297839,38.68769 37.409,38.242 L38.719,33 L29.281,33 Z" id="Shape" fill="#000000"/><path d="M41,33 L27,33 C26.4477153,33 26,32.5522847 26,32 C26,31.4477153 26.4477153,31 27,31 L41,31 C41.5522847,31 42,31.4477153 42,32 C42,32.5522847 41.5522847,33 41,33 Z" id="Shape" fill="#000000"/><path d="M29,33 C28.6191744,33.0020788 28.2702259,32.7876694 28.1,32.447 L24.1,24.447 C23.8531287,23.9527052 24.0537052,23.3518713 24.548,23.105 C25.0422949,22.8581287 25.6431287,23.0587052 25.89,23.553 L29.89,31.553 C30.0445455,31.8622668 30.0283796,32.2294236 29.8472507,32.5239106 C29.6661219,32.8183976 29.3457279,32.9984342 29,33 Z" id="Shape" fill="#000000"/><path d="M32,33 C31.496152,32.9993539 31.0714768,32.6239598 31.009,32.124 L30.009,24.124 C29.9554777,23.7650601 30.1006202,23.4052955 30.3882375,23.1839841 C30.6758549,22.9626726 31.0607985,22.9145547 31.3940428,23.0582584 C31.727287,23.2019621 31.956521,23.5149297 31.993,23.876 L32.993,31.876 C33.061322,32.4238221 32.6727838,32.9233712 32.125,32.992 C32.0835749,32.9976189 32.0418034,33.0002923 32,33 Z" id="Shape" fill="#000000"/><path d="M39,33 C38.6535599,32.999815 38.3318963,32.8203322 38.1498055,32.5256057 C37.9677146,32.2308792 37.9511412,31.8629025 38.106,31.553 L42.106,23.553 C42.3528713,23.0587052 42.9537051,22.8581287 43.448,23.105 C43.9422948,23.3518713 44.1428713,23.9527052 43.896,24.447 L39.896,32.447 C39.7264146,32.7863743 39.3793861,33.000556 39,33 Z" id="Shape" fill="#000000"/><path d="M36,33 C35.9581966,33.0002923 35.9164251,32.9976189 35.875,32.992 C35.3272162,32.9233712 34.938678,32.4238221 35.007,31.876 L36.007,23.876 C36.0870921,23.3388736 36.5812283,22.9638448 37.1200995,23.0312037 C37.6589708,23.0985626 38.045588,23.5836856 37.991,24.124 L36.991,32.124 C36.9285232,32.6239598 36.503848,32.9993539 36,33 Z" id="Shape" fill="#000000"/><path d="M37.9,25 C37.5453493,24.9997009 37.2173873,24.8115821 37.0380757,24.5056008 C36.8587641,24.1996195 36.8549303,23.8215546 37.028,23.512 C38.4077425,20.7128267 39.0846004,17.6195998 39,14.5 C39,7.723 36.365,3 34,3 C31.635,3 29,7.723 29,14.5 C28.91571,17.6196828 29.5929121,20.7129139 30.973,23.512 C31.242515,23.9941446 31.0701446,24.603485 30.588,24.873 C30.1058554,25.142515 29.496515,24.9701446 29.227,24.488 C27.6815594,21.389988 26.9170275,17.9610953 27,14.5 C27,6.93 30.075,1 34,1 C37.925,1 41,6.93 41,14.5 C41.0829725,17.9610953 40.3184406,21.389988 38.773,24.488 C38.5962186,24.8041938 38.2622571,25.0000566 37.9,25 Z" id="Shape" fill="#000000"/><path d="M55,38 L38.75,38 C38.1977153,38 37.75,37.5522847 37.75,37 C37.75,36.4477153 38.1977153,36 38.75,36 L55,36 C57.0585395,35.9930086 58.7756401,34.4247717 58.9687718,32.3753001 C59.1619036,30.3258284 57.7679947,28.4644259 55.747,28.073 C55.4039959,28.0078762 55.11979,27.7685765 54.9972017,27.4416743 C54.8746134,27.1147722 54.9313934,26.7476028 55.147,26.473 C55.7034039,25.7691711 56.0041735,24.8971861 56,24 C56.0001985,22.7679905 55.4326538,21.6046247 54.4615545,20.8464601 C53.4904552,20.0882954 52.2241588,19.8199297 51.029,20.119 C50.7683899,20.1857289 50.4918856,20.1446412 50.2619388,20.0050172 C50.031992,19.8653932 49.8679992,19.6390105 49.807,19.377 C49.3578689,17.492029 48.1474712,15.877562 46.464,14.918 C46.1447347,14.7454539 45.9440085,14.4134812 45.9395298,14.0506004 C45.9350511,13.6877196 46.1275228,13.350894 46.4424324,13.1705208 C46.7573419,12.9901476 47.1452563,12.994541 47.456,13.182 C49.3392552,14.2574273 50.7720599,15.9753019 51.492,18.021 C53.6218298,17.8423781 55.6861225,18.8090747 56.9126167,20.5594441 C58.1391108,22.3098135 58.3429968,24.580108 57.448,26.521 C60.0344239,27.6754338 61.4612729,30.4813369 60.870529,33.2514141 C60.2797851,36.0214913 57.8323673,38.0011721 55,38 Z" id="Shape" fill="#000000"/><path d="M39,37 L29,37 C28.4477153,37 28,36.5522847 28,36 C28,35.4477153 28.4477153,35 29,35 L39,35 C39.5522847,35 40,35.4477153 40,36 C40,36.5522847 39.5522847,37 39,37 Z" id="Shape" fill="#000000"/></g></g></svg>
