<?xml version="1.0" encoding="UTF-8"?>
<svg xmlns="http://www.w3.org/2000/svg" xmlns:xlink="http://www.w3.org/1999/xlink" width="512" height="512" viewBox="0 0 60 61" version="1.1"><!-- Generator: Sketch 51.3 (57544) - http://www.bohemiancoding.com/sketch --><title>027 - Open Mind</title><desc>Created with Sketch.</desc><defs/><g id="Page-1" stroke="none" stroke-width="1" fill="none" fill-rule="evenodd"><g id="027---Open-Mind" transform="translate(-1.000000, -1.000000)" fill-rule="nonzero"><path d="M47.26,38.71 C45.9803538,41.6319437 45.5006323,44.8415908 45.87,48.01 C46.0951005,50.0721875 46.5033794,52.1102353 47.09,54.1 C47.4048963,55.1305317 47.802868,56.1338218 48.28,57.1 C48.8718004,58.0090608 49.4061765,58.9542385 49.88,59.93 L24.78,60 L24.78,59.99 C24.7,59.69 23.19,53.81 19.85,52.3 C19.23,52.52 18.57,52.74 17.9,52.97 C15.6789002,53.7404523 13.4191713,54.3946722 11.13,54.93 C10.4993821,55.0806865 9.83512584,54.9878335 9.27,54.67 C8.62676625,54.2742562 8.14753634,53.660132 7.92,52.94 C7.65806229,52.2276891 7.56229323,51.4649569 7.64,50.71 C7.87036773,49.9391054 7.94848689,49.1307419 7.87,48.33 C7.61,47.32 6.65,47.07 5.89,46.53 C5.27,46.09 6.38,44.68 6.38,44.68 C6.38,44.68 5.2,43.81 4.78,43.43 C4.34,43.07 4.96,42.45 5.51,41.28 C5.73694079,40.7719796 5.80323378,40.2067446 5.7,39.66 C5.49,38.59 3.87,38.18 3.07,37.59 C2.69,37.31 2.08,36.89 2.01,36.38 C1.9,35.67 2.74,34.67 3.15,34.17 C4.89454657,31.9217816 6.38996718,29.4908848 7.61,26.92 C7.77010631,26.6486227 7.86589137,26.3441631 7.89,26.03 C7.87,24.6 5.8,24.01 5.61,22.62 C5.58022555,22.2120559 5.65239212,21.803112 5.82,21.43 C6.39667192,20.2042401 6.89109856,18.9414478 7.3,17.65 C7.54612792,16.4653226 7.86336869,15.2965408 8.25,14.15 C9.08859812,11.8496676 10.3808376,9.74127689 12.05,7.95 C14.5,5.36 18.12,4.08 21.54,3.4 C24.5813721,2.73504394 27.6655865,2.28393999 30.77,2.05 C30.87,2.04 30.97,2.04 31.07,2.03 C37.47,1.71 42.53,3.88 47.49,7.76 C50.1927291,9.77631392 52.1683037,12.6151058 53.12,15.85 C53.8451888,18.5213389 54.1852867,21.2825294 54.13,24.05 C54.110834,26.7831121 53.3129958,29.4541358 51.83,31.75 C50.34,34.1 48.39,36.14 47.26,38.71 Z" id="Shape" fill="#0377BC"/><path d="M44.26,38.71 C42.9803538,41.6319437 42.5006323,44.8415908 42.87,48.01 C43.0951005,50.0721875 43.5033794,52.1102353 44.09,54.1 C44.4048963,55.1305317 44.802868,56.1338218 45.28,57.1 C45.8718004,58.0090608 46.4061765,58.9542385 46.88,59.93 L24.78,59.99 C24.7,59.69 23.19,53.81 19.85,52.3 C19.23,52.52 18.57,52.74 17.9,52.97 C17.5823905,52.6995596 17.2290765,52.4741116 16.85,52.3 C14.44,53.14 11.5,54.11 9.27,54.67 C8.62676625,54.2742562 8.14753634,53.660132 7.92,52.94 C7.65806229,52.2276891 7.56229323,51.4649569 7.64,50.71 C7.87036773,49.9391054 7.94848689,49.1307419 7.87,48.33 C7.61,47.32 6.65,47.07 5.89,46.53 C5.27,46.09 6.38,44.68 6.38,44.68 C6.38,44.68 5.2,43.81 4.78,43.43 C4.34,43.07 4.96,42.45 5.51,41.28 C5.73694079,40.7719796 5.80323378,40.2067446 5.7,39.66 C5.49,38.59 3.87,38.18 3.07,37.59 C2.69,37.31 2.08,36.89 2.01,36.38 C1.9,35.67 2.74,34.67 3.15,34.17 C4.89454657,31.9217816 6.38996718,29.4908848 7.61,26.92 C7.77010631,26.6486227 7.86589137,26.3441631 7.89,26.03 C7.87,24.6 5.8,24.01 5.61,22.62 C5.58022555,22.2120559 5.65239212,21.803112 5.82,21.43 C6.39667192,20.2042401 6.89109856,18.9414478 7.3,17.65 C7.54612792,16.4653226 7.86336869,15.2965408 8.25,14.15 C9.08859812,11.8496676 10.3808376,9.74127689 12.05,7.95 C14.5,5.36 18.12,4.08 21.54,3.4 C24.5813721,2.73504394 27.6655865,2.28393999 30.77,2.05 C35.93,2.37 40.25,4.44 44.49,7.76 C47.1927291,9.77631392 49.1683037,12.6151058 50.12,15.85 C50.8451888,18.5213389 51.1852867,21.2825294 51.13,24.05 C51.110834,26.7831121 50.3129958,29.4541358 48.83,31.75 C47.34,34.1 45.39,36.14 44.26,38.71 Z" id="Shape" fill="#02A9F4"/><path d="M55,7 L55,39 C55,39.5522847 54.5522847,40 54,40 L48,40 L48,6 L54,6 C54.5522847,6 55,6.44771525 55,7 Z" id="Shape" fill="#283593"/><path d="M52,7 L52,39 C52,39.5522847 51.5522847,40 51,40 L48,40 L48,6 L51,6 C51.5522847,6 52,6.44771525 52,7 Z" id="Shape" fill="#3F51B5"/><path d="M48,3.2 L48,42.8 C48.0018874,43.0978278 47.8709223,43.3809972 47.6427553,43.5724255 C47.4145883,43.7638537 47.1129681,43.8436161 46.82,43.79 L44.79,43.42 L26.82,40.15 C26.3476594,40.061155 26.0041387,39.6506058 26,39.17 L26,6.83 C26.0041387,6.34939421 26.3476594,5.938845 26.82,5.85 L44.79,2.58 L46.82,2.21 C47.1129681,2.15638394 47.4145883,2.23614625 47.6427553,2.42757452 C47.8709223,2.61900278 48.0018874,2.90217218 48,3.2 Z" id="Shape" fill="#F57C00"/><path d="M45,3.2 L45,42.8 C45.0009229,43.0242738 44.9270245,43.2424503 44.79,43.42 L26.82,40.15 C26.3476594,40.061155 26.0041387,39.6506058 26,39.17 L26,6.83 C26.0041387,6.34939421 26.3476594,5.938845 26.82,5.85 L44.79,2.58 C44.9270245,2.75754973 45.0009229,2.97572616 45,3.2 Z" id="Shape" fill="#FF9801"/><path d="M30,35.827 L30,10.173 C29.9999271,9.68970085 30.3455066,9.27551054 30.821,9.189 L42.821,7.007 C43.1127803,6.95391394 43.4130717,7.03307791 43.6407607,7.22310839 C43.8684496,7.41313887 44.0000448,7.69442987 44,7.991 L44,38.009 C44.0000448,38.3055701 43.8684496,38.5868611 43.6407607,38.7768916 C43.4130717,38.9669221 43.1127803,39.0460861 42.821,38.993 L30.821,36.811 C30.3455066,36.7244895 29.9999271,36.3102991 30,35.827 Z" id="Shape" fill="#FFDC00"/><circle id="Oval" fill="#3F51B5" cx="41" cy="23" r="3"/><path d="M10.511,56 C8.86145152,55.9690108 7.4263849,54.8624583 6.977,53.275 C6.66129272,52.4143284 6.54869822,51.4923539 6.648,50.581 C6.682,50.318 6.739,50.05 6.798,49.781 C6.91941128,49.3932674 6.95356021,48.9834802 6.898,48.581 C6.817,48.267 6.586,48.11 5.998,47.774 C5.765,47.641 5.528,47.505 5.306,47.349 C4.98074391,47.1171358 4.76606133,46.7609003 4.713,46.365 C4.67448978,45.8623148 4.78770505,45.359639 5.038,44.922 C4.698,44.661 4.325,44.367 4.109,44.172 C3.185,43.417 3.798,42.333 4.164,41.686 C4.299,41.449 4.455,41.174 4.604,40.854 C4.7416535,40.5365296 4.78135002,40.1851805 4.718,39.845 C4.667,39.586 3.942,39.216 3.51,38.995 C3.14797678,38.8240989 2.80078202,38.6234083 2.472,38.395 C1.75470729,37.9902386 1.23115797,37.313086 1.02,36.517 C0.86,35.487 1.62,34.458 2.345,33.575 C4.05560327,31.369443 5.52247783,28.985227 6.72,26.464 C6.79697882,26.3281355 6.85421996,26.1820023 6.89,26.03 C6.89,25.755 6.565,25.439 6.076,24.991 C5.3374331,24.4449531 4.82021123,23.6511932 4.619,22.755 C4.56192334,22.1842424 4.65284498,21.6084053 4.883,21.083 C5.062,20.611 5.266,20.155 5.47,19.699 C5.82566937,18.9679886 6.11224857,18.2053397 6.326,17.421 L6.426,16.999 C6.65602311,15.9179422 6.95190812,14.8519547 7.312,13.807 C8.19404573,11.3778111 9.55841114,9.15217091 11.323,7.264 C13.559,4.9 16.836,3.316 21.345,2.419 C24.5310865,1.72059835 27.7640828,1.25668862 31.018,1.031 C34.2333036,0.833437889 37.4530964,1.33776745 40.454,2.509 C40.7962773,2.63217622 41.0446688,2.93150409 41.1026169,3.29062545 C41.1605649,3.64974682 41.0189282,4.01200991 40.7327654,4.23659167 C40.4466026,4.46117343 40.0610561,4.51264586 39.726,4.371 C36.9894965,3.30924183 34.0559314,2.85112811 31.126,3.028 C27.9685885,3.24954 24.8315758,3.70140886 21.74,4.38 C17.704,5.18 14.689,6.615 12.776,8.637 C11.1965696,10.3291549 9.97605599,12.323545 9.188,14.5 C8.85614522,15.4674021 8.58396707,16.4542566 8.373,17.455 L8.273,17.881 C8.03405513,18.788547 7.70821606,19.6709581 7.3,20.516 C7.111,20.937 6.923,21.357 6.76,21.786 C6.66364086,22.0015614 6.61063423,22.2339751 6.604,22.47 C6.649,22.796 7.03,23.146 7.434,23.517 C8.25904392,24.1003679 8.79170832,25.0118401 8.895,26.017 C8.87635428,26.4916102 8.74434083,26.9548574 8.51,27.368 C7.2548892,30.0038306 5.71756418,32.4957388 3.925,34.8 C3.163,35.727 3.005,36.1 3,36.247 C3.18518784,36.4261779 3.38598284,36.5884872 3.6,36.732 C3.86136569,36.9140729 4.13730073,37.0742824 4.425,37.211 C5.277,37.647 6.446,38.245 6.686,39.465 C6.82865982,40.2207273 6.73544627,41.0020454 6.419,41.703 C6.244,42.073 6.065,42.393 5.908,42.668 C5.859,42.755 5.808,42.851 5.758,42.938 C6.172,43.272 6.738,43.696 6.978,43.872 C7.19643076,44.0334948 7.33976225,44.2769033 7.37503403,44.5462515 C7.41030582,44.8155997 7.33448237,45.0877071 7.165,45.3 C7.01691908,45.4930204 6.88797779,45.6999963 6.78,45.918 L6.987,46.036 C7.87220583,46.4166291 8.54814599,47.1633751 8.839,48.082 C8.98564963,48.7876772 8.95576498,49.5186489 8.752,50.21 C8.706,50.419 8.658,50.627 8.632,50.837 C8.5729723,51.4418114 8.65336419,52.0521056 8.867,52.621 C9.0847514,53.5454575 9.99364951,54.1329967 10.926,53.952 C13.8403482,53.2516858 16.7117997,52.3835725 19.526,51.352 C20.0479091,51.1705745 20.6180744,51.4465909 20.7995,51.9685 C20.9809255,52.4904091 20.7049091,53.0605744 20.183,53.242 C17.2887222,54.3027843 14.334635,55.19265 11.336,55.907 C11.0649467,55.96639 10.7884727,55.9975562 10.511,56 Z M5.411,42.659 L5.443,42.688 C5.43377066,42.6766361 5.42374541,42.6659425 5.413,42.656 L5.411,42.659 Z" id="Shape" fill="#000000"/><path d="M24.78,61 C24.3194886,60.9998779 23.9186017,60.6852787 23.809,60.238 C23.421,58.657 21.88,54.314 19.438,53.211 C19.0639436,53.0419148 18.8312137,52.6614066 18.8510746,52.25139 C18.8709354,51.8413735 19.1393525,51.4851405 19.528,51.353 C20.57,50.999 21.515,50.669 22.258,50.409 C22.951,50.167 23.473,49.985 23.744,49.898 C27.901,48.583 28.744,47.082 28.72,46.053 C28.7138345,45.7872547 28.8137271,45.5299897 28.9976105,45.338038 C29.1814939,45.1460862 29.4342349,45.0352448 29.7,45.03 L29.724,45.03 C30.2670463,45.0298436 30.7109669,45.4631101 30.724,46.006 C30.782,48.498 28.64,50.449 24.356,51.806 C24.097,51.889 23.592,52.065 22.922,52.299 L22.022,52.614 C23.671106,54.4424992 24.8739191,56.6283742 25.536,59 L48.218,58.937 L48.151,58.837 C47.8630969,58.4195592 47.6041562,57.9828684 47.376,57.53 C46.879054,56.5216399 46.4640482,55.4749292 46.135,54.4 C45.5288621,52.3528819 45.1078369,50.2554538 44.877,48.133 C44.6961058,46.5909414 44.7068543,45.032417 44.909,43.493 C44.9537351,43.1372813 45.185476,42.8327305 45.5163915,42.6947741 C45.8473069,42.5568178 46.2267538,42.6065688 46.5109193,42.8251711 C46.7950848,43.0437735 46.9404803,43.3977724 46.892,43.753 C46.71186,45.1278782 46.7021197,46.5197353 46.863,47.897 C47.0791782,49.8991656 47.4751085,51.8778131 48.046,53.809 C48.3444759,54.7867332 48.7220564,55.7385437 49.175,56.655 C49.3660492,57.0298282 49.5822082,57.3913183 49.822,57.737 C50.2467748,58.3198965 50.587758,58.9594505 50.835,59.637 C50.9304293,59.9404437 50.8757998,60.2711879 50.6878608,60.5278273 C50.4999218,60.7844667 50.201095,60.9363833 49.883,60.937 L24.783,61.007 L24.78,61 Z" id="Shape" fill="#000000"/><path d="M11.194,19.567 C10.8884083,19.5671753 10.5995104,19.4276105 10.4097039,19.1881114 C10.2198975,18.9486123 10.1500194,18.635471 10.22,18.338 L10.32,17.905 C10.5131052,16.9892005 10.7602032,16.085623 11.06,15.199 C11.7555725,13.2746582 12.8327926,11.5106976 14.227,10.013 C15.7596426,8.53520641 17.6473921,7.47750189 19.708,6.942 C20.0522577,6.82944433 20.4304681,6.91183364 20.6967164,7.1573819 C20.9629648,7.40293017 21.0756292,7.7732514 20.9912433,8.12547458 C20.9068574,8.47769775 20.6386132,8.75676066 20.29,8.855 C18.5634442,9.29302828 16.9771231,10.1641454 15.681,11.386 C14.4733406,12.6864483 13.5401016,14.2169058 12.937,15.886 C12.6667971,16.6958165 12.4434278,17.5205136 12.268,18.356 L12.168,18.791 C12.0636686,19.2449301 11.6597655,19.5667256 11.194,19.567 Z" id="Shape" fill="#000000"/><circle id="Oval" fill="#000000" cx="10" cy="22" r="1"/><path d="M54,41 L48,41 C47.4477153,41 47,40.5522847 47,40 C47,39.4477153 47.4477153,39 48,39 L54,39 L54,7 L48,7 C47.4477153,7 47,6.55228475 47,6 C47,5.44771525 47.4477153,5 48,5 L54,5 C55.1045695,5 56,5.8954305 56,7 L56,39 C56,40.1045695 55.1045695,41 54,41 Z" id="Shape" fill="#000000"/><path d="M26,41 C25.4477153,41 25,40.5522847 25,40 L25,6 C25,5.44771525 25.4477153,5 26,5 C26.5522847,5 27,5.44771525 27,6 L27,40 C27,40.5522847 26.5522847,41 26,41 Z" id="Shape" fill="#000000"/><path d="M47,44.8 C46.8792802,44.80022 46.7587883,44.7895096 46.64,44.768 L25.821,40.984 C25.3455066,40.8974895 24.9999271,40.4832991 25,40 L25,6 C24.9999271,5.51670085 25.3455066,5.10251054 25.821,5.016 L46.643,1.23 C47.2267526,1.12409905 47.8273936,1.28283294 48.28261,1.66330652 C48.7378263,2.0437801 49.000629,2.60671956 49,3.2 L49,42.8 C49,43.9045695 48.1045695,44.8 47,44.8 Z M27,39.166 L47,42.8 L47,3.2 L27,6.834 L27,39.166 Z" id="Shape" fill="#000000"/><path d="M44,40.207 C43.9399704,40.2071323 43.8800545,40.2017767 43.821,40.191 L29.821,37.646 C29.3455066,37.5594895 28.9999271,37.1452991 29,36.662 L29,9.338 C28.9999271,8.85470085 29.3455066,8.44051054 29.821,8.354 L43.821,5.809 C44.1127803,5.75591394 44.4130717,5.83507791 44.6407607,6.02510839 C44.8684496,6.21513887 45.0000448,6.49642987 45,6.793 L45,39.207 C45,39.7592847 44.5522847,40.207 44,40.207 Z M31,35.827 L43,38.009 L43,7.991 L31,10.173 L31,35.827 Z" id="Shape" fill="#000000"/><path d="M41,27 C38.790861,27 37,25.209139 37,23 C37,20.790861 38.790861,19 41,19 C43.209139,19 45,20.790861 45,23 C45,25.209139 43.209139,27 41,27 Z M41,21 C39.8954305,21 39,21.8954305 39,23 C39,24.1045695 39.8954305,25 41,25 C42.1045695,25 43,24.1045695 43,23 C43,21.8954305 42.1045695,21 41,21 Z" id="Shape" fill="#000000"/><path d="M60,24 L52,24 C51.4477153,24 51,23.5522847 51,23 C51,22.4477153 51.4477153,22 52,22 L60,22 C60.5522847,22 61,22.4477153 61,23 C61,23.5522847 60.5522847,24 60,24 Z" id="Shape" fill="#000000"/><path d="M52,17 C51.5649924,17.0004942 51.1795663,16.7197111 51.0466717,16.3055 C50.9137771,15.8912889 51.0639033,15.4386804 51.418,15.186 L58.418,10.186 C58.8675598,9.86512258 59.4921225,9.96944024 59.813,10.419 C60.1338774,10.8685598 60.0295598,11.4931226 59.58,11.814 L52.58,16.814 C52.4107116,16.9348032 52.207971,16.99982 52,17 Z" id="Shape" fill="#000000"/><path d="M59,36 C58.792029,35.99982 58.5892884,35.9348032 58.42,35.814 L51.42,30.814 C50.9704402,30.4931225 50.8661226,29.8685598 51.187,29.419 C51.5078775,28.9694403 52.1324402,28.8651226 52.582,29.186 L59.582,34.186 C59.9360967,34.4386804 60.0862229,34.8912889 59.9533283,35.3055 C59.8204337,35.7197111 59.4350076,36.0004942 59,36 Z" id="Shape" fill="#000000"/></g></g></svg>
