<?xml version="1.0" encoding="UTF-8"?>
<svg xmlns="http://www.w3.org/2000/svg" xmlns:xlink="http://www.w3.org/1999/xlink" width="512" height="512" viewBox="0 0 55 60" version="1.1"><!-- Generator: Sketch 51.3 (57544) - http://www.bohemiancoding.com/sketch --><title>028 - Schizophrenia</title><desc>Created with Sketch.</desc><defs/><g id="Page-1" stroke="none" stroke-width="1" fill="none" fill-rule="evenodd"><g id="028---Schizophrenia" fill-rule="nonzero"><path d="M47.13,37.71 C45.8503538,40.6319437 45.3706323,43.8415908 45.74,47.01 C45.9651005,49.0721875 46.3733794,51.1102353 46.96,53.1 C47.2748963,54.1305317 47.672868,55.1338218 48.15,56.1 C48.7418004,57.0090608 49.2761765,57.9542385 49.75,58.93 L24.65,59 L24.65,58.99 C24.57,58.69 23.06,52.81 19.72,51.3 C19.1,51.51 18.45,51.74 17.78,51.97 C15.5555599,52.740597 13.2924947,53.3948165 11,53.93 C10.3693821,54.0806865 9.70512584,53.9878335 9.14,53.67 L9.13,53.67 C8.4939137,53.2687189 8.01949017,52.6562169 7.79,51.94 C7.52484783,51.2284319 7.42566071,50.4657172 7.5,49.71 C7.73858566,48.940746 7.82020035,48.1314004 7.74,47.33 C7.48,46.32 6.51,46.07 5.75,45.53 C5.14,45.09 6.25,43.68 6.25,43.68 C6.25,43.68 5.07,42.81 4.65,42.43 C4.21,42.07 4.82,41.45 5.38,40.28 C5.60694079,39.7719796 5.67323378,39.2067446 5.57,38.66 C5.36,37.59 3.73,37.18 2.93,36.59 C2.56,36.31 1.95,35.89 1.88,35.38 C1.77,34.67 2.61,33.67 3.02,33.17 C4.76454657,30.9217816 6.25996718,28.4908848 7.48,25.92 C7.64010631,25.6486227 7.73589137,25.3441631 7.76,25.03 C7.74,23.6 5.67,23.01 5.47,21.62 C5.44871368,21.2115508 5.52408857,20.8038412 5.69,20.43 C6.26667192,19.2042401 6.76109856,17.9414478 7.17,16.65 C7.41142981,15.464203 7.72874925,14.2951313 8.12,13.15 C8.95859812,10.8496676 10.2508376,8.74127689 11.92,6.95 C14.37,4.36 17.99,3.08 21.41,2.4 C24.4513721,1.73504394 27.5355865,1.28393999 30.64,1.05 C30.74,1.04 30.84,1.04 30.94,1.03 C37.34,0.71 42.4,2.88 47.35,6.76 C50.0585045,8.77277844 52.0382351,11.6124983 52.99,14.85 C53.7151888,17.5213389 54.0552867,20.2825294 54,23.05 C53.980834,25.7831121 53.1829958,28.4541358 51.7,30.75 C50.21,33.1 48.25,35.14 47.13,37.71 Z" id="Shape" fill="#0377BC"/><path d="M44.13,37.71 C42.8503538,40.6319437 42.3706323,43.8415908 42.74,47.01 C42.9651005,49.0721875 43.3733794,51.1102353 43.96,53.1 C44.2748963,54.1305317 44.672868,55.1338218 45.15,56.1 C45.7418004,57.0090608 46.2761765,57.9542385 46.75,58.93 L24.65,58.99 C24.57,58.69 23.06,52.81 19.72,51.3 C19.1,51.51 18.45,51.74 17.78,51.97 C17.4604669,51.6972041 17.1035092,51.4715799 16.72,51.3 C14.31,52.14 11.37,53.1 9.14,53.67 L9.13,53.67 C8.4939137,53.2687189 8.01949017,52.6562169 7.79,51.94 C7.52484783,51.2284319 7.42566071,50.4657172 7.5,49.71 C7.73858566,48.940746 7.82020035,48.1314004 7.74,47.33 C7.48,46.32 6.51,46.07 5.75,45.53 C5.14,45.09 6.25,43.68 6.25,43.68 C6.25,43.68 5.07,42.81 4.65,42.43 C4.21,42.07 4.82,41.45 5.38,40.28 C5.60694079,39.7719796 5.67323378,39.2067446 5.57,38.66 C5.36,37.59 3.73,37.18 2.93,36.59 C2.56,36.31 1.95,35.89 1.88,35.38 C1.77,34.67 2.61,33.67 3.02,33.17 C4.76454657,30.9217816 6.25996718,28.4908848 7.48,25.92 C7.64010631,25.6486227 7.73589137,25.3441631 7.76,25.03 C7.74,23.6 5.67,23.01 5.47,21.62 C5.44871368,21.2115508 5.52408857,20.8038412 5.69,20.43 C6.26667192,19.2042401 6.76109856,17.9414478 7.17,16.65 C7.41142981,15.464203 7.72874925,14.2951313 8.12,13.15 C8.95859812,10.8496676 10.2508376,8.74127689 11.92,6.95 C14.37,4.36 17.99,3.08 21.41,2.4 C24.4513721,1.73504394 27.5355865,1.28393999 30.64,1.05 C35.8,1.37 40.12,3.44 44.35,6.76 C47.0585045,8.77277844 49.0382351,11.6124983 49.99,14.85 C50.7151888,17.5213389 51.0552867,20.2825294 51,23.05 C50.980834,25.7831121 50.1829958,28.4541358 48.7,30.75 C47.21,33.1 45.25,35.14 44.13,37.71 Z" id="Shape" fill="#02A9F4"/><path d="M49.14,15.94 C48.425275,13.5198967 46.9312259,11.4036201 44.89,9.92 C43.7260189,8.99315238 42.4923694,8.15734651 41.2,7.42 C38.4732964,5.82478701 35.3690346,4.98915701 32.21,5 C31.86,5 31.5,5.01 31.14,5.03 L30.63,5.06 C27.7947589,5.28904822 24.9783036,5.71001306 22.2,6.32 C22.09,6.34 21.99,6.36 21.89,6.38 C18.63,7.08 16.25,8.2 14.82,9.7 C13.5175728,11.0957931 12.5137512,12.7427412 11.87,14.54 C11.58,15.33 11.06,17.56 11.06,17.56 C10.57,19.98 10.6,24.6 14.96,25.41 L15.01,25.41 C15.9871341,25.5661528 16.9828659,25.5661528 17.96,25.41 C18.54,25.33 19.1,25.25 19.64,25.17 C20.86,24.99 21.97,24.84 23,24.72 C23.54,24.66 24.06,24.6 24.56,24.56 L24.57,24.56 C25.07,24.52 25.54,24.5 26,24.5 C26.6648654,24.4860987 27.3298775,24.5195164 27.99,24.6 C29.720853,24.8008726 31.3321748,25.5836153 32.56,26.82 C33.04,27.29 33.52,27.75 34,28.19 C34.5669929,28.7204471 35.1611247,29.22112 35.78,29.69 C35.9168604,29.798972 36.0604808,29.8991723 36.21,29.99 C36.661829,30.3107575 37.1364175,30.5981843 37.63,30.85 L38.92,31.39 C38.9448579,31.402505 38.9721818,31.4093359 39,31.41 L39,31.42 C39.4372037,31.5629916 39.885362,31.6700145 40.34,31.74 C41.8659388,31.962173 43.4219503,31.8495669 44.9,31.41 C46.2983586,30.8419313 47.4934805,29.8663216 48.33,28.61 C49.404759,26.9349911 49.9837196,24.9900996 50,23 C50.0508311,20.6177288 49.761242,18.2404039 49.14,15.94 Z" id="Shape" fill="#283593"/><path d="M46.14,15.94 C45.425275,13.5198967 43.9312259,11.4036201 41.89,9.92 C40.7260189,8.99315238 39.4923694,8.15734651 38.2,7.42 C35.8885619,6.06882144 33.2997802,5.26175079 30.63,5.06 C27.7947589,5.28904822 24.9783036,5.71001306 22.2,6.32 C22.09,6.34 21.99,6.36 21.89,6.38 C18.63,7.08 16.25,8.2 14.82,9.7 C13.5175728,11.0957931 12.5137512,12.7427412 11.87,14.54 C11.58,15.33 11.06,17.56 11.06,17.56 C10.57,19.98 10.6,24.6 14.96,25.41 L15.01,25.41 C15.58,25.33 16.11,25.25 16.64,25.17 C17.86,24.99 18.97,24.84 20,24.72 C20.994847,24.5881569 21.9965624,24.5146978 23,24.5 C23.5207314,24.4888508 24.0416633,24.5088866 24.56,24.56 L24.57,24.56 C25.07,24.52 25.54,24.5 26,24.5 C26.6648654,24.4860987 27.3298775,24.5195164 27.99,24.6 C29.720853,24.8008726 31.3321748,25.5836153 32.56,26.82 C33.04,27.29 33.52,27.75 34,28.19 C34.5669929,28.7204471 35.1611247,29.22112 35.78,29.69 C35.9168604,29.798972 36.0604808,29.8991723 36.21,29.99 C36.661829,30.3107575 37.1364175,30.5981843 37.63,30.85 L38.92,31.39 C38.9448579,31.402505 38.9721818,31.4093359 39,31.41 L39,31.42 C39.4372037,31.5629916 39.885362,31.6700145 40.34,31.74 C40.866683,31.6643794 41.3878116,31.5541406 41.9,31.41 C43.2983586,30.8419313 44.4934805,29.8663216 45.33,28.61 C46.404759,26.9349911 46.9837196,24.9900996 47,23 C47.0508311,20.6177288 46.761242,18.2404039 46.14,15.94 Z" id="Shape" fill="#3F51B5"/><path d="M45,17 C45.0023288,22.7201745 41.5208691,27.8651303 36.21,29.99 C36.0604808,29.8991723 35.9168604,29.798972 35.78,29.69 C35.1611247,29.22112 34.5669929,28.7204471 34,28.19 C33.52,27.75 33.04,27.29 32.56,26.82 C31.3321748,25.5836153 29.720853,24.8008726 27.99,24.6 C27.3298775,24.5195164 26.6648654,24.4860987 26,24.5 C24.9965624,24.5146978 23.994847,24.5881569 23,24.72 C21.97,24.84 20.86,24.99 19.64,25.17 C15.3880222,19.2749661 16.3663956,11.1044612 21.89,6.38 C21.99,6.36 22.09,6.34 22.2,6.32 C25.1442294,5.6707769 28.1323361,5.23960715 31.14,5.03 C31.5,5.01 31.86,5 32.21,5 C35.3690346,4.98915701 38.4732964,5.82478701 41.2,7.42 C43.647453,10.0084236 45.0077131,13.437711 45,17 Z" id="Shape" fill="#283593"/><circle id="Oval" fill="#FFE0B2" cx="31" cy="13" r="4"/><path d="M39,22 L39,31.42 L38.92,31.39 L37.63,30.85 C36.98125,30.5170293 36.3623073,30.1289355 35.78,29.69 C35.1611247,29.22112 34.5669929,28.7204471 34,28.19 C33.52,27.75 33.04,27.29 32.56,26.82 C31.3321748,25.5836153 29.720853,24.8008726 27.99,24.6 C27.3298775,24.5195164 26.6648654,24.4860987 26,24.5 C24.9965624,24.5146978 23.994847,24.5881569 23,24.72 L23,22 C23,19.2385763 25.2385763,17 28,17 L34,17 C35.3260824,17 36.597852,17.5267842 37.5355339,18.4644661 C38.4732158,19.402148 39,20.6739176 39,22 Z" id="Shape" fill="#EF314C"/><path d="M24.652,60 C24.1914886,59.9998779 23.7906017,59.6852787 23.681,59.238 C23.311,57.731 21.89,53.713 19.642,52.386 C16.8774695,53.3782517 14.0613687,54.2204782 11.206,54.909 C9.28142641,55.3278299 7.36609395,54.1655304 6.849,52.265 C6.52792421,51.4080562 6.41316018,50.4875459 6.514,49.578 C6.549,49.316 6.605,49.054 6.663,48.791 C6.78740969,48.3998014 6.8242802,47.9860323 6.771,47.579 C6.692,47.268 6.463,47.112 5.871,46.779 C5.634,46.644 5.395,46.506 5.171,46.347 C4.84952638,46.1176236 4.63653444,45.7661327 4.582,45.375 C4.5420447,44.8706693 4.65420633,44.365942 4.904,43.926 C4.566,43.668 4.197,43.378 3.981,43.187 C3.056,42.408 3.645,41.364 4.037,40.672 C4.17,40.438 4.323,40.172 4.472,39.855 C4.6076517,39.5401025 4.64562455,39.1917277 4.581,38.855 C4.531,38.591 3.808,38.223 3.381,38.003 C3.01750252,37.8318741 2.66866466,37.6312003 2.338,37.403 C1.6278352,36.9968814 1.10699309,36.3265083 0.889,35.538 C0.736,34.497 1.489,33.475 2.207,32.598 C3.91885337,30.3897043 5.38641645,28.0024416 6.584,25.478 C6.66138682,25.3445955 6.72026026,25.2012807 6.759,25.052 C6.759,24.764 6.434,24.452 5.943,23.999 C5.20508225,23.4558945 4.68720734,22.6654165 4.484,21.772 C4.42855272,21.1978863 4.5211656,20.6191418 4.753,20.091 C4.932,19.618 5.138,19.156 5.345,18.691 C5.6989965,17.9655884 5.98327371,17.2081855 6.194,16.429 L6.275,16.08 C6.50681066,14.9683788 6.80976738,13.8727911 7.182,12.8 C8.06067751,10.369854 9.42584069,8.14448833 11.194,6.26 C13.425,3.91 16.7,2.324 21.213,1.416 C24.399417,0.720614974 27.6323383,0.258721325 30.886,0.034 C37.053,-0.281 42.33,1.553 47.972,5.978 C50.8422806,8.12273806 52.9398201,11.1402757 53.95,14.578 C54.7043671,17.3431934 55.0579719,20.2023407 55,23.068 C54.9792167,25.9842723 54.1302524,28.8346144 52.552,31.287 C51.989,32.173 51.365,33.013 50.762,33.826 C49.6979609,35.1474912 48.7871466,36.5853366 48.047,38.112 C46.8362178,40.8690621 46.3846235,43.8997153 46.739,46.89 C46.9509048,48.8915148 47.3441875,50.8696428 47.914,52.8 C48.2160606,53.7811487 48.5938632,54.737357 49.044,55.66 C49.2338521,56.0273095 49.4476464,56.3817404 49.684,56.721 C50.1116852,57.3086958 50.4537653,57.9541364 50.7,58.638 C50.792765,58.9407037 50.7367064,59.269455 50.5488666,59.5243101 C50.3610269,59.7791651 50.0635974,59.9300151 49.747,59.931 L24.655,60 L24.652,60 Z M21.883,51.611 C23.536174,53.4394797 24.7427823,55.6264357 25.408,58 L48.086,57.937 C48.062,57.901 48.038,57.865 48.015,57.829 C47.728745,57.4166347 47.4708185,56.9853095 47.243,56.538 C46.7481373,55.5236543 46.3325618,54.4725124 46,53.394 C45.3932482,51.348368 44.9741818,49.2516974 44.748,47.13 C44.3510706,43.7853769 44.8551244,40.3954423 46.208,37.311 C47.0078647,35.6450188 47.9948935,34.0755692 49.15,32.633 C49.732,31.85 50.334,31.04 50.85,30.217 C52.2333498,28.0768582 52.979062,25.58722 53,23.039 C53.056616,20.3674728 52.7296174,17.7016427 52.029,15.123 C51.144084,12.0883558 49.2864648,9.42859074 46.742,7.553 C41.5,3.445 36.646,1.747 30.988,2.031 C27.8325292,2.25132568 24.6972597,2.70084465 21.607,3.376 C17.515,4.2 14.583,5.6 12.646,7.64 C11.0641789,9.32900789 9.84361758,11.323011 9.059,13.5 C8.71658121,14.4898777 8.43768112,15.5005982 8.224,16.526 L8.142,16.878 C7.90382693,17.7813253 7.57863918,18.6594327 7.171,19.5 C6.98,19.926 6.789,20.351 6.625,20.786 C6.52326884,21.0055657 6.46876021,21.244041 6.465,21.486 C6.508,21.792 6.89,22.142 7.294,22.512 C8.12174813,23.0934717 8.65628858,24.0056568 8.759,25.012 C8.74233944,25.4891246 8.60765565,25.954677 8.367,26.367 C7.11800686,29.0025658 5.58671075,31.4948198 3.8,33.8 C3.03,34.739 2.874,35.1 2.871,35.255 C3.05527656,35.4283362 3.25214938,35.5877731 3.46,35.732 C3.7231947,35.9153698 4.00114788,36.0765894 4.291,36.214 C5.148,36.65 6.319,37.248 6.552,38.475 C6.69725012,39.2298353 6.60320833,40.0111863 6.283,40.71 C6.113,41.069 5.937,41.382 5.783,41.653 C5.731,41.746 5.673,41.848 5.623,41.941 C6.033,42.27 6.605,42.697 6.845,42.875 C7.06180559,43.0356423 7.20449027,43.2770834 7.24064592,43.5444845 C7.27680157,43.8118856 7.20335925,44.0825495 7.037,44.295 C6.88935427,44.4886369 6.76107253,44.6962993 6.654,44.915 C6.725,44.957 6.797,44.998 6.868,45.038 C7.75150579,45.4186203 8.42493753,46.1658228 8.712,47.084 C8.85545273,47.7933366 8.82318121,48.5269987 8.618,49.221 C8.572,49.428 8.525,49.635 8.498,49.843 C8.44061847,50.4420569 8.52311812,51.0462556 8.739,51.608 C8.95728493,52.5340128 9.86483187,53.1249531 10.8,52.95 C13.7082521,52.2405321 16.5760902,51.3746058 19.391,50.356 L19.397,50.356 C20.363,50.026 21.245,49.717 21.961,49.466 C22.737,49.194 23.324,48.989 23.619,48.896 C27.774,47.596 28.619,46.09 28.593,45.06 C28.580146,44.5080397 29.0170455,44.050101 29.569,44.037 L29.593,44.037 C30.136426,44.0368562 30.5805012,44.4707178 30.593,45.014 C30.651,47.514 28.507,49.459 24.22,50.805 C23.936,50.894 23.371,51.092 22.62,51.355 L21.883,51.611 Z M5.291,41.67 L5.308,41.684 L5.291,41.67 Z" id="Shape" fill="#000000"/><path d="M41.782,32.858 C37.304,32.858 34.44,30.058 31.856,27.53 C29.086,24.821 25.865,25.283 19.448,26.206 L18.1,26.4 C15.2,26.809 13,26.244 11.566,24.719 C9.297,22.313 9.855,18.478 10.08,17.36 C10.141,17.098 10.624,15.024 10.931,14.192 C11.6238685,12.2688817 12.7022417,10.5075503 14.1,9.016 C15.719,7.3 18.378,6.067 22,5.337 C24.9931067,4.68215951 28.029721,4.24501538 31.086,4.029 C36.28,3.767 40.628,5.302 45.508,9.129 C47.7137973,10.7475065 49.3271012,13.045551 50.1,15.67 C50.749635,18.0613458 51.0527245,20.5335455 51,23.011 C50.985137,25.1871131 50.3518477,27.3141465 49.174,29.144 C48.2072039,30.611706 46.8053707,31.7400961 45.165,32.371 C44.0644079,32.6849301 42.9264516,32.8487446 41.782,32.858 Z M26.271,23.494 C28.8632086,23.333039 31.4018508,24.2803044 33.255,26.1 C36.855,29.623 39.598,31.83 44.631,30.442 C45.7898054,29.9449904 46.7794896,29.1223958 47.48,28.074 C48.4601981,26.5559403 48.9874573,24.7899688 49,22.983 C49.0523465,20.6998218 48.7768738,18.4209417 48.182,16.216 C47.519678,14.0021927 46.1496888,12.0666439 44.282,10.706 C39.74,7.146 35.89,5.788 31.19,6.026 C28.2333018,6.23989928 25.2957604,6.66565898 22.4,7.3 C19.19,7.947 16.885,8.987 15.553,10.393 C14.344575,11.6889069 13.4126479,13.2172811 12.814,14.885 C12.591,15.49 12.181,17.185 12.042,17.785 C11.683,19.571 11.748,21.992 13.027,23.349 C13.995,24.374 15.608,24.737 17.827,24.421 L19.168,24.23 C21.5164959,23.8257538 23.8895141,23.5798659 26.271,23.494 Z" id="Shape" fill="#000000"/><path d="M31,18 C28.2385763,18 26,15.7614237 26,13 C26,10.2385763 28.2385763,8 31,8 C33.7614237,8 36,10.2385763 36,13 C35.9966939,15.7600532 33.7600532,17.9966939 31,18 Z M31,10 C29.3431458,10 28,11.3431458 28,13 C28,14.6568542 29.3431458,16 31,16 C32.6568542,16 34,14.6568542 34,13 C34,11.3431458 32.6568542,10 31,10 Z" id="Shape" fill="#000000"/><path d="M39,32.415 C38.449662,32.4150069 38.0027517,31.9703311 38,31.42 L38,22 C38,19.790861 36.209139,18 34,18 L28,18 C25.790861,18 24,19.790861 24,22 L24,24.72 C24,25.2722847 23.5522847,25.72 23,25.72 C22.4477153,25.72 22,25.2722847 22,24.72 L22,22 C22.0033074,18.6876624 24.6876624,16.0033074 28,16 L34,16 C37.3123376,16.0033074 39.9966926,18.6876624 40,22 L40,31.41 C40.0013304,31.6760817 39.8965612,31.9317221 39.7088804,32.1203412 C39.5211997,32.3089604 39.2660851,32.4150033 39,32.415 Z" id="Shape" fill="#000000"/><path d="M35,30.07 C34.4477153,30.07 34,29.6222847 34,29.07 L34,23 C34,22.4477153 34.4477153,22 35,22 C35.5522847,22 36,22.4477153 36,23 L36,29.07 C36,29.6222847 35.5522847,30.07 35,30.07 Z" id="Shape" fill="#000000"/><path d="M27,25.51 C26.4477153,25.51 26,25.0622847 26,24.51 L26,23 C26,22.4477153 26.4477153,22 27,22 C27.5522847,22 28,22.4477153 28,23 L28,24.51 C28,25.0622847 27.5522847,25.51 27,25.51 Z" id="Shape" fill="#000000"/></g></g></svg>
