<?xml version="1.0" encoding="UTF-8"?>
<svg xmlns="http://www.w3.org/2000/svg" xmlns:xlink="http://www.w3.org/1999/xlink" width="512" height="512" viewBox="0 0 60 60" version="1.1"><!-- Generator: Sketch 51.3 (57544) - http://www.bohemiancoding.com/sketch --><title>029 - Exhausted</title><desc>Created with Sketch.</desc><defs/><g id="Page-1" stroke="none" stroke-width="1" fill="none" fill-rule="evenodd"><g id="029---Exhausted" transform="translate(-1.000000, -1.000000)" fill-rule="nonzero"><path d="M47.26,38.71 C45.9803538,41.6319437 45.5006323,44.8415908 45.87,48.01 C46.0951005,50.0721875 46.5033794,52.1102353 47.09,54.1 C47.4048963,55.1305317 47.802868,56.1338218 48.28,57.1 C48.8718004,58.0090608 49.4061765,58.9542385 49.88,59.93 L24.78,60 L24.78,59.99 C24.7,59.69 23.19,53.81 19.85,52.3 C19.23,52.52 18.57,52.74 17.9,52.97 C15.6789002,53.7404523 13.4191713,54.3946722 11.13,54.93 C10.4993821,55.0806865 9.83512584,54.9878335 9.27,54.67 C8.62676625,54.2742562 8.14753634,53.660132 7.92,52.94 C7.65806229,52.2276891 7.56229323,51.4649569 7.64,50.71 C7.87036773,49.9391054 7.94848689,49.1307419 7.87,48.33 C7.61,47.32 6.65,47.07 5.89,46.53 C5.27,46.09 6.38,44.68 6.38,44.68 C6.38,44.68 5.2,43.81 4.78,43.43 C4.34,43.07 4.96,42.45 5.51,41.28 C5.73694079,40.7719796 5.80323378,40.2067446 5.7,39.66 C5.49,38.59 3.87,38.18 3.07,37.59 C2.69,37.31 2.08,36.89 2.01,36.38 C1.9,35.67 2.74,34.67 3.15,34.17 C4.89454657,31.9217816 6.38996718,29.4908848 7.61,26.92 C7.77010631,26.6486227 7.86589137,26.3441631 7.89,26.03 C7.87,24.6 5.8,24.01 5.61,22.62 C5.58022555,22.2120559 5.65239212,21.803112 5.82,21.43 C6.39667192,20.2042401 6.89109856,18.9414478 7.3,17.65 C7.54612792,16.4653226 7.86336869,15.2965408 8.25,14.15 C9.08859812,11.8496676 10.3808376,9.74127689 12.05,7.95 C14.5,5.36 18.12,4.08 21.54,3.4 C24.5813721,2.73504394 27.6655865,2.28393999 30.77,2.05 C30.87,2.04 30.97,2.04 31.07,2.03 C37.47,1.71 42.53,3.88 47.49,7.76 C50.1927291,9.77631392 52.1683037,12.6151058 53.12,15.85 C53.8451888,18.5213389 54.1852867,21.2825294 54.13,24.05 C54.110834,26.7831121 53.3129958,29.4541358 51.83,31.75 C50.34,34.1 48.39,36.14 47.26,38.71 Z" id="Shape" fill="#6A1B9A"/><path d="M44.26,38.71 C42.9803538,41.6319437 42.5006323,44.8415908 42.87,48.01 C43.0951005,50.0721875 43.5033794,52.1102353 44.09,54.1 C44.4048963,55.1305317 44.802868,56.1338218 45.28,57.1 C45.8718004,58.0090608 46.4061765,58.9542385 46.88,59.93 L24.78,59.99 C24.7,59.69 23.19,53.81 19.85,52.3 C19.23,52.52 18.57,52.74 17.9,52.97 C17.5823905,52.6995596 17.2290765,52.4741116 16.85,52.3 C14.44,53.14 11.5,54.11 9.27,54.67 C8.62676625,54.2742562 8.14753634,53.660132 7.92,52.94 C7.65806229,52.2276891 7.56229323,51.4649569 7.64,50.71 C7.87036773,49.9391054 7.94848689,49.1307419 7.87,48.33 C7.61,47.32 6.65,47.07 5.89,46.53 C5.27,46.09 6.38,44.68 6.38,44.68 C6.38,44.68 5.2,43.81 4.78,43.43 C4.34,43.07 4.96,42.45 5.51,41.28 C5.73694079,40.7719796 5.80323378,40.2067446 5.7,39.66 C5.49,38.59 3.87,38.18 3.07,37.59 C2.69,37.31 2.08,36.89 2.01,36.38 C1.9,35.67 2.74,34.67 3.15,34.17 C4.89454657,31.9217816 6.38996718,29.4908848 7.61,26.92 C7.77010631,26.6486227 7.86589137,26.3441631 7.89,26.03 C7.87,24.6 5.8,24.01 5.61,22.62 C5.58022555,22.2120559 5.65239212,21.803112 5.82,21.43 C6.39667192,20.2042401 6.89109856,18.9414478 7.3,17.65 C7.54612792,16.4653226 7.86336869,15.2965408 8.25,14.15 C9.08859812,11.8496676 10.3808376,9.74127689 12.05,7.95 C14.5,5.36 18.12,4.08 21.54,3.4 C24.5813721,2.73504394 27.6655865,2.28393999 30.77,2.05 C35.93,2.37 40.25,4.44 44.49,7.76 C47.1927291,9.77631392 49.1683037,12.6151058 50.12,15.85 C50.8451888,18.5213389 51.1852867,21.2825294 51.13,24.05 C51.110834,26.7831121 50.3129958,29.4541358 48.83,31.75 C47.34,34.1 45.39,36.14 44.26,38.71 Z" id="Shape" fill="#9D27B0"/><rect id="Rectangle-path" fill="#283593" x="28" y="10" width="32" height="18" rx="2"/><rect id="Rectangle-path" fill="#3F51B5" x="28" y="10" width="29" height="18" rx="2"/><rect id="Rectangle-path" fill="#00838F" x="32" y="14" width="24" height="10" rx="1"/><rect id="Rectangle-path" fill="#00BCD4" x="32" y="14" width="21" height="10" rx="1"/><path d="M26,15 L28,15 L28,23 L26,23 C24.8954305,23 24,22.1045695 24,21 L24,17 C24,15.8954305 24.8954305,15 26,15 Z" id="Shape" fill="#3F51B5"/><path d="M33,14 L38,14 L38,24 L33,24 C32.4477153,24 32,23.5522847 32,23 L32,15 C32,14.4477153 32.4477153,14 33,14 Z" id="Shape" fill="#F44335"/><path d="M10.511,56 C8.86145152,55.9690108 7.4263849,54.8624583 6.977,53.275 C6.66129272,52.4143284 6.54869822,51.4923539 6.648,50.581 C6.682,50.318 6.739,50.05 6.798,49.781 C6.91941128,49.3932674 6.95356021,48.9834802 6.898,48.581 C6.817,48.267 6.586,48.11 5.998,47.774 C5.765,47.641 5.528,47.505 5.306,47.349 C4.98074391,47.1171358 4.76606133,46.7609003 4.713,46.365 C4.67448978,45.8623148 4.78770505,45.359639 5.038,44.922 C4.698,44.661 4.325,44.367 4.109,44.172 C3.185,43.417 3.798,42.333 4.164,41.686 C4.299,41.449 4.455,41.174 4.604,40.854 C4.74159405,40.5365137 4.78128854,40.1851827 4.718,39.845 C4.667,39.586 3.942,39.216 3.51,38.995 C3.14797678,38.8240989 2.80078202,38.6234083 2.472,38.395 C1.75470729,37.9902386 1.23115797,37.313086 1.02,36.517 C0.86,35.487 1.62,34.458 2.345,33.575 C4.05560327,31.369443 5.52247783,28.985227 6.72,26.464 C6.79697882,26.3281355 6.85421996,26.1820023 6.89,26.03 C6.89,25.755 6.565,25.439 6.076,24.991 C5.3374331,24.4449531 4.82021123,23.6511932 4.619,22.755 C4.56192334,22.1842424 4.65284498,21.6084053 4.883,21.083 C5.062,20.611 5.266,20.155 5.47,19.699 C5.82566937,18.9679886 6.11224857,18.2053397 6.326,17.421 L6.426,16.999 C6.65602311,15.9179422 6.95190812,14.8519547 7.312,13.807 C8.19404573,11.3778111 9.55841114,9.15217091 11.323,7.264 C13.559,4.9 16.836,3.316 21.345,2.419 C24.5310865,1.72059835 27.7640828,1.25668862 31.018,1.031 C37.175,0.731 42.459,2.555 48.106,6.972 C49.0146452,7.68415294 49.8601171,8.47341624 50.633,9.331 C51.0024785,9.74162372 50.9691237,10.3740215 50.5585,10.7435 C50.1478763,11.1129785 49.5154785,11.0796237 49.146,10.669 C48.4506511,9.89742599 47.6901775,9.18713764 46.873,8.546 C41.634,4.446 36.78,2.746 31.12,3.028 C27.9646074,3.24988685 24.8296146,3.70175362 21.74,4.38 C17.704,5.18 14.689,6.615 12.776,8.637 C11.1965696,10.3291549 9.97605599,12.323545 9.188,14.5 C8.85614522,15.4674021 8.58396707,16.4542566 8.373,17.455 L8.273,17.881 C8.03405513,18.788547 7.70821606,19.6709581 7.3,20.516 C7.111,20.937 6.923,21.357 6.76,21.786 C6.66364086,22.0015614 6.61063423,22.2339751 6.604,22.47 C6.649,22.796 7.03,23.146 7.434,23.517 C8.25904392,24.1003679 8.79170832,25.0118401 8.895,26.017 C8.87635428,26.4916102 8.74434083,26.9548574 8.51,27.368 C7.2548892,30.0038306 5.71756418,32.4957388 3.925,34.8 C3.163,35.727 3.005,36.1 3,36.247 C3.18518784,36.4261779 3.38598284,36.5884872 3.6,36.732 C3.86136569,36.9140729 4.13730073,37.0742824 4.425,37.211 C5.277,37.647 6.446,38.245 6.686,39.465 C6.82865982,40.2207273 6.73544627,41.0020454 6.419,41.703 C6.244,42.073 6.065,42.393 5.908,42.668 C5.859,42.755 5.808,42.851 5.758,42.938 C6.172,43.272 6.738,43.696 6.978,43.872 C7.19643076,44.0334948 7.33976225,44.2769033 7.37503403,44.5462515 C7.41030582,44.8155997 7.33448237,45.0877071 7.165,45.3 C7.01691908,45.4930204 6.88797779,45.6999963 6.78,45.918 L6.987,46.037 C7.87230663,46.4169671 8.54836782,47.1634818 8.839,48.082 C8.98564963,48.7876772 8.95576498,49.5186489 8.752,50.21 C8.706,50.419 8.658,50.627 8.632,50.837 C8.57350619,51.4418023 8.65388223,52.0519761 8.867,52.621 C9.08565875,53.5448173 9.99386067,54.1319066 10.926,53.952 C13.8403482,53.2516858 16.7117997,52.3835725 19.526,51.352 C20.0479091,51.1705745 20.6180744,51.4465909 20.7995,51.9685 C20.9809255,52.4904091 20.7049091,53.0605744 20.183,53.242 C17.2887222,54.3027843 14.334635,55.19265 11.336,55.907 C11.0649467,55.96639 10.7884727,55.9975562 10.511,56 Z M5.411,42.659 L5.443,42.688 C5.43377066,42.6766361 5.42374541,42.6659425 5.413,42.656 L5.411,42.659 Z" id="Shape" fill="#000000"/><path d="M24.78,61 C24.3194886,60.9998779 23.9186017,60.6852787 23.809,60.238 C23.421,58.657 21.88,54.314 19.438,53.211 C19.0639436,53.0419148 18.8312137,52.6614066 18.8510746,52.25139 C18.8709354,51.8413735 19.1393525,51.4851405 19.528,51.353 C20.57,50.999 21.515,50.669 22.258,50.409 C22.951,50.167 23.473,49.985 23.744,49.898 C27.901,48.583 28.744,47.082 28.72,46.053 C28.7138345,45.7872547 28.8137271,45.5299897 28.9976105,45.338038 C29.1814939,45.1460862 29.4342349,45.0352448 29.7,45.03 L29.724,45.03 C30.2670463,45.0298436 30.7109669,45.4631101 30.724,46.006 C30.782,48.498 28.64,50.449 24.356,51.806 C24.097,51.889 23.592,52.065 22.922,52.299 L22.022,52.614 C23.671106,54.4424992 24.8739191,56.6283742 25.536,59 L48.218,58.937 L48.151,58.837 C47.8630969,58.4195592 47.6041562,57.9828684 47.376,57.53 C46.879054,56.5216399 46.4640482,55.4749292 46.135,54.4 C45.5288621,52.3528819 45.1078369,50.2554538 44.877,48.133 C44.4836273,44.7875409 44.9896868,41.3977013 46.343,38.313 C47.1417788,36.6440198 48.1292229,35.0720946 49.286,33.628 C49.866,32.846 50.466,32.038 50.986,31.217 C51.6819384,30.1328601 52.222212,28.9563764 52.591,27.722 C52.6913916,27.379025 52.9671323,27.1156614 53.3143531,27.0311156 C53.661574,26.9465698 54.0275239,27.0536864 54.2743531,27.3121156 C54.5211824,27.5705448 54.6113916,27.941025 54.511,28.284 C54.088668,29.6963093 53.4710275,31.0426647 52.676,32.284 C52.116,33.166 51.494,34.005 50.893,34.815 C49.8281541,36.1384294 48.9172994,37.5786869 48.178,39.108 C46.9661452,41.8658444 46.5125267,44.8972172 46.864,47.889 C47.0798071,49.8925347 47.4757419,51.8725435 48.047,53.805 C48.3454759,54.7827332 48.7230564,55.7345437 49.176,56.651 C49.3670492,57.0258282 49.5832082,57.3873183 49.823,57.733 C50.2477748,58.3158965 50.588758,58.9554505 50.836,59.633 C50.9314293,59.9364437 50.8767998,60.2671879 50.6888608,60.5238273 C50.5009218,60.7804667 50.202095,60.9323833 49.884,60.933 L24.784,61.003 L24.78,61 Z" id="Shape" fill="#000000"/><path d="M11.194,19.567 C10.8884083,19.5671753 10.5995104,19.4276105 10.4097039,19.1881114 C10.2198975,18.9486123 10.1500194,18.635471 10.22,18.338 L10.32,17.905 C10.5131052,16.9892005 10.7602032,16.085623 11.06,15.199 C11.7555725,13.2746582 12.8327926,11.5106976 14.227,10.013 C15.7596426,8.53520641 17.6473921,7.47750189 19.708,6.942 C20.0522577,6.82944433 20.4304681,6.91183364 20.6967164,7.1573819 C20.9629648,7.40293017 21.0756292,7.7732514 20.9912433,8.12547458 C20.9068574,8.47769775 20.6386132,8.75676066 20.29,8.855 C18.5634442,9.29302828 16.9771231,10.1641454 15.681,11.386 C14.4733406,12.6864483 13.5401016,14.2169058 12.937,15.886 C12.6667971,16.6958165 12.4434278,17.5205136 12.268,18.356 L12.168,18.791 C12.0636686,19.2449301 11.6597655,19.5667256 11.194,19.567 Z" id="Shape" fill="#000000"/><circle id="Oval" fill="#000000" cx="10" cy="22" r="1"/><path d="M58,29 L30,29 C28.3431458,29 27,27.6568542 27,26 L27,12 C27,10.3431458 28.3431458,9 30,9 L58,9 C59.6568542,9 61,10.3431458 61,12 L61,26 C61,27.6568542 59.6568542,29 58,29 Z M30,11 C29.4477153,11 29,11.4477153 29,12 L29,26 C29,26.5522847 29.4477153,27 30,27 L58,27 C58.5522847,27 59,26.5522847 59,26 L59,12 C59,11.4477153 58.5522847,11 58,11 L30,11 Z" id="Shape" fill="#000000"/><path d="M56,25 L32,25 C31.4477153,25 31,24.5522847 31,24 L31,14 C31,13.4477153 31.4477153,13 32,13 L56,13 C56.5522847,13 57,13.4477153 57,14 L57,24 C57,24.5522847 56.5522847,25 56,25 Z M33,23 L55,23 L55,15 L33,15 L33,23 Z" id="Shape" fill="#000000"/><path d="M28,24 L26,24 C24.3431458,24 23,22.6568542 23,21 L23,17 C23,15.3431458 24.3431458,14 26,14 L28,14 C28.5522847,14 29,14.4477153 29,15 L29,23 C29,23.5522847 28.5522847,24 28,24 Z M26,16 C25.4477153,16 25,16.4477153 25,17 L25,21 C25,21.5522847 25.4477153,22 26,22 L27,22 L27,16 L26,16 Z" id="Shape" fill="#000000"/><path d="M38,25 L32,25 C31.4477153,25 31,24.5522847 31,24 L31,14 C31,13.4477153 31.4477153,13 32,13 L38,13 C38.5522847,13 39,13.4477153 39,14 L39,24 C39,24.5522847 38.5522847,25 38,25 Z M33,23 L37,23 L37,15 L33,15 L33,23 Z" id="Shape" fill="#000000"/><path d="M44,25 C43.4477153,25 43,24.5522847 43,24 L43,22 C43,21.4477153 43.4477153,21 44,21 C44.5522847,21 45,21.4477153 45,22 L45,24 C45,24.5522847 44.5522847,25 44,25 Z" id="Shape" fill="#000000"/><path d="M50,25 C49.4477153,25 49,24.5522847 49,24 L49,22 C49,21.4477153 49.4477153,21 50,21 C50.5522847,21 51,21.4477153 51,22 L51,24 C51,24.5522847 50.5522847,25 50,25 Z" id="Shape" fill="#000000"/></g></g></svg>
