<?xml version="1.0" encoding="UTF-8"?>
<svg xmlns="http://www.w3.org/2000/svg" xmlns:xlink="http://www.w3.org/1999/xlink" width="512" height="512" viewBox="0 0 60 61" version="1.1"><!-- Generator: Sketch 51.3 (57544) - http://www.bohemiancoding.com/sketch --><title>030 - Death</title><desc>Created with Sketch.</desc><defs/><g id="Page-1" stroke="none" stroke-width="1" fill="none" fill-rule="evenodd"><g id="030---Death" transform="translate(-1.000000, -1.000000)" fill-rule="nonzero"><path d="M47.26,38.71 C45.9803538,41.6319437 45.5006323,44.8415908 45.87,48.01 C46.0951005,50.0721875 46.5033794,52.1102353 47.09,54.1 C47.4048963,55.1305317 47.802868,56.1338218 48.28,57.1 C48.8718004,58.0090608 49.4061765,58.9542385 49.88,59.93 L24.78,60 L24.78,59.99 C24.7,59.69 23.19,53.81 19.85,52.3 C19.23,52.52 18.57,52.74 17.9,52.97 C15.6789002,53.7404523 13.4191713,54.3946722 11.13,54.93 C10.4993821,55.0806865 9.83512584,54.9878335 9.27,54.67 C8.62676625,54.2742562 8.14753634,53.660132 7.92,52.94 C7.65806229,52.2276891 7.56229323,51.4649569 7.64,50.71 C7.87036773,49.9391054 7.94848689,49.1307419 7.87,48.33 C7.61,47.32 6.65,47.07 5.89,46.53 C5.27,46.09 6.38,44.68 6.38,44.68 C6.38,44.68 5.2,43.81 4.78,43.43 C4.34,43.07 4.96,42.45 5.51,41.28 C5.73694079,40.7719796 5.80323378,40.2067446 5.7,39.66 C5.49,38.59 3.87,38.18 3.07,37.59 C2.69,37.31 2.08,36.89 2.01,36.38 C1.9,35.67 2.74,34.67 3.15,34.17 C4.89454657,31.9217816 6.38996718,29.4908848 7.61,26.92 C7.77010631,26.6486227 7.86589137,26.3441631 7.89,26.03 C7.87,24.6 5.8,24.01 5.61,22.62 C5.58022555,22.2120559 5.65239212,21.803112 5.82,21.43 C6.39667192,20.2042401 6.89109856,18.9414478 7.3,17.65 C7.54612792,16.4653226 7.86336869,15.2965408 8.25,14.15 C9.08859812,11.8496676 10.3808376,9.74127689 12.05,7.95 C14.5,5.36 18.12,4.08 21.54,3.4 C24.5813721,2.73504394 27.6655865,2.28393999 30.77,2.05 C30.87,2.04 30.97,2.04 31.07,2.03 C37.47,1.71 42.53,3.88 47.49,7.76 C50.1927291,9.77631392 52.1683037,12.6151058 53.12,15.85 C53.8451888,18.5213389 54.1852867,21.2825294 54.13,24.05 C54.110834,26.7831121 53.3129958,29.4541358 51.83,31.75 C50.34,34.1 48.39,36.14 47.26,38.71 Z" id="Shape" fill="#37474F"/><path d="M44.26,38.71 C42.9803538,41.6319437 42.5006323,44.8415908 42.87,48.01 C43.0951005,50.0721875 43.5033794,52.1102353 44.09,54.1 C44.4048963,55.1305317 44.802868,56.1338218 45.28,57.1 C45.8718004,58.0090608 46.4061765,58.9542385 46.88,59.93 L24.78,59.99 C24.7,59.69 23.19,53.81 19.85,52.3 C19.23,52.52 18.57,52.74 17.9,52.97 C17.5823905,52.6995596 17.2290765,52.4741116 16.85,52.3 C14.44,53.14 11.5,54.11 9.27,54.67 C8.62676625,54.2742562 8.14753634,53.660132 7.92,52.94 C7.65806229,52.2276891 7.56229323,51.4649569 7.64,50.71 C7.87036773,49.9391054 7.94848689,49.1307419 7.87,48.33 C7.61,47.32 6.65,47.07 5.89,46.53 C5.27,46.09 6.38,44.68 6.38,44.68 C6.38,44.68 5.2,43.81 4.78,43.43 C4.34,43.07 4.96,42.45 5.51,41.28 C5.73694079,40.7719796 5.80323378,40.2067446 5.7,39.66 C5.49,38.59 3.87,38.18 3.07,37.59 C2.69,37.31 2.08,36.89 2.01,36.38 C1.9,35.67 2.74,34.67 3.15,34.17 C4.89454657,31.9217816 6.38996718,29.4908848 7.61,26.92 C7.77010631,26.6486227 7.86589137,26.3441631 7.89,26.03 C7.87,24.6 5.8,24.01 5.61,22.62 C5.58022555,22.2120559 5.65239212,21.803112 5.82,21.43 C6.39667192,20.2042401 6.89109856,18.9414478 7.3,17.65 C7.54612792,16.4653226 7.86336869,15.2965408 8.25,14.15 C9.08859812,11.8496676 10.3808376,9.74127689 12.05,7.95 C14.5,5.36 18.12,4.08 21.54,3.4 C24.5813721,2.73504394 27.6655865,2.28393999 30.77,2.05 C35.93,2.37 40.25,4.44 44.49,7.76 C47.1927291,9.77631392 49.1683037,12.6151058 50.12,15.85 C50.8451888,18.5213389 51.1852867,21.2825294 51.13,24.05 C51.110834,26.7831121 50.3129958,29.4541358 48.83,31.75 C47.34,34.1 45.39,36.14 44.26,38.71 Z" id="Shape" fill="#607D8B"/><path d="M53,20 C53.0064779,24.0933715 51.0785839,27.9491595 47.8,30.4 C46.6638764,31.2473398 45.9961977,32.5826972 46,34 L46,35 C45.9967052,36.1032019 45.1032019,36.9967052 44,37 L36,37 C34.8967981,36.9967052 34.0032948,36.1032019 34,35 L34,34 C34.0038023,32.5826972 33.3361236,31.2473398 32.2,30.4 C27.9461754,27.2072916 26.0662428,21.7453925 27.4539358,16.6109286 C28.8416287,11.4764647 33.2170131,7.7051918 38.5,7.09 C38.9977056,7.02953619 39.4986354,6.99948041 40,7 C47.1797017,7 53,12.8202983 53,20 Z" id="Shape" fill="#FDD834"/><path d="M50,20 C50.0064779,24.0933715 48.0785839,27.9491595 44.8,30.4 C43.6638764,31.2473398 42.9961977,32.5826972 43,34 L43,35 C42.9967052,36.1032019 42.1032019,36.9967052 41,37 L36,37 C34.8967981,36.9967052 34.0032948,36.1032019 34,35 L34,34 C34.0038023,32.5826972 33.3361236,31.2473398 32.2,30.4 C27.9461754,27.2072916 26.0662428,21.7453925 27.4539358,16.6109286 C28.8416287,11.4764647 33.2170131,7.7051918 38.5,7.09 C45.0541149,7.85132883 49.9983902,13.4018153 50,20 Z" id="Shape" fill="#FFEB3A"/><circle id="Oval" fill="#37474F" cx="35" cy="21" r="3"/><circle id="Oval" fill="#37474F" cx="45" cy="21" r="3"/><path d="M10.511,56 C8.86145152,55.9690108 7.4263849,54.8624583 6.977,53.275 C6.66129272,52.4143284 6.54869822,51.4923539 6.648,50.581 C6.682,50.318 6.739,50.05 6.798,49.781 C6.91941128,49.3932674 6.95356021,48.9834802 6.898,48.581 C6.817,48.267 6.586,48.11 5.998,47.774 C5.765,47.641 5.528,47.505 5.306,47.349 C4.98074391,47.1171358 4.76606133,46.7609003 4.713,46.365 C4.67448978,45.8623148 4.78770505,45.359639 5.038,44.922 C4.698,44.661 4.325,44.367 4.109,44.172 C3.185,43.417 3.798,42.333 4.164,41.686 C4.299,41.449 4.455,41.174 4.604,40.854 C4.74159405,40.5365137 4.78128854,40.1851827 4.718,39.845 C4.667,39.586 3.942,39.216 3.51,38.995 C3.14797678,38.8240989 2.80078202,38.6234083 2.472,38.395 C1.75470729,37.9902386 1.23115797,37.313086 1.02,36.517 C0.86,35.487 1.62,34.458 2.345,33.575 C4.05560327,31.369443 5.52247783,28.985227 6.72,26.464 C6.79697882,26.3281355 6.85421996,26.1820023 6.89,26.03 C6.89,25.755 6.565,25.439 6.076,24.991 C5.3374331,24.4449531 4.82021123,23.6511932 4.619,22.755 C4.56192334,22.1842424 4.65284498,21.6084053 4.883,21.083 C5.062,20.611 5.266,20.155 5.47,19.699 C5.82566937,18.9679886 6.11224857,18.2053397 6.326,17.421 L6.426,16.999 C6.65602311,15.9179422 6.95190812,14.8519547 7.312,13.807 C8.19404573,11.3778111 9.55841114,9.15217091 11.323,7.264 C13.559,4.9 16.836,3.316 21.345,2.419 C24.5310865,1.72059835 27.7640828,1.25668862 31.018,1.031 C33.8094444,0.868035623 36.6069337,1.22335847 39.269,2.079 C39.7696383,2.26710927 40.0336547,2.81582901 39.8682307,3.32441399 C39.7028067,3.83299896 39.1665043,4.12140448 38.651,3.979 C36.2205383,3.19983449 33.666894,2.87706904 31.119,3.027 C27.9638691,3.24880747 24.8291789,3.70101303 21.74,4.38 C17.704,5.18 14.689,6.615 12.776,8.637 C11.1965696,10.3291549 9.97605599,12.323545 9.188,14.5 C8.85614522,15.4674021 8.58396707,16.4542566 8.373,17.455 L8.273,17.881 C8.03405513,18.788547 7.70821606,19.6709581 7.3,20.516 C7.111,20.937 6.923,21.357 6.76,21.786 C6.66364086,22.0015614 6.61063423,22.2339751 6.604,22.47 C6.649,22.796 7.03,23.146 7.434,23.517 C8.25904392,24.1003679 8.79170832,25.0118401 8.895,26.017 C8.87635428,26.4916102 8.74434083,26.9548574 8.51,27.368 C7.2548892,30.0038306 5.71756418,32.4957388 3.925,34.8 C3.163,35.727 3.005,36.1 3,36.247 C3.18518784,36.4261779 3.38598284,36.5884872 3.6,36.732 C3.86136569,36.9140729 4.13730073,37.0742824 4.425,37.211 C5.277,37.647 6.446,38.245 6.686,39.465 C6.82865982,40.2207273 6.73544627,41.0020454 6.419,41.703 C6.244,42.073 6.065,42.393 5.908,42.668 C5.859,42.755 5.808,42.851 5.758,42.938 C6.172,43.272 6.738,43.696 6.978,43.872 C7.19643076,44.0334948 7.33976225,44.2769033 7.37503403,44.5462515 C7.41030582,44.8155997 7.33448237,45.0877071 7.165,45.3 C7.01691908,45.4930204 6.88797779,45.6999963 6.78,45.918 L6.987,46.036 C7.87220583,46.4166291 8.54814599,47.1633751 8.839,48.082 C8.98564963,48.7876772 8.95576498,49.5186489 8.752,50.21 C8.706,50.419 8.658,50.627 8.632,50.837 C8.5729723,51.4418114 8.65336419,52.0521056 8.867,52.621 C9.08565875,53.5448173 9.99386067,54.1319066 10.926,53.952 C13.8403482,53.2516858 16.7117997,52.3835725 19.526,51.352 C20.0479091,51.1705745 20.6180744,51.4465909 20.7995,51.9685 C20.9809255,52.4904091 20.7049091,53.0605744 20.183,53.242 C17.2887222,54.3027843 14.334635,55.19265 11.336,55.907 C11.0649467,55.96639 10.7884727,55.9975562 10.511,56 Z M5.411,42.659 L5.443,42.688 C5.43377066,42.6766361 5.42374541,42.6659425 5.413,42.656 L5.411,42.659 Z" id="Shape" fill="#000000"/><path d="M24.78,61 C24.3194886,60.9998779 23.9186017,60.6852787 23.809,60.238 C23.421,58.657 21.88,54.314 19.438,53.211 C19.0639436,53.0419148 18.8312137,52.6614066 18.8510746,52.25139 C18.8709354,51.8413735 19.1393525,51.4851405 19.528,51.353 C20.57,50.999 21.515,50.669 22.258,50.409 C22.951,50.167 23.473,49.985 23.744,49.898 C27.901,48.583 28.744,47.082 28.72,46.053 C28.7138345,45.7872547 28.8137271,45.5299897 28.9976105,45.338038 C29.1814939,45.1460862 29.4342349,45.0352448 29.7,45.03 C29.9676831,45.0144749 30.2298143,45.110676 30.4239074,45.2956709 C30.6180005,45.4806659 30.7266658,45.7378803 30.724,46.006 C30.782,48.498 28.64,50.449 24.356,51.806 C24.097,51.889 23.592,52.065 22.922,52.299 L22.022,52.614 C23.671106,54.4424992 24.8739191,56.6283742 25.536,59 L48.218,58.937 L48.151,58.837 C47.8630969,58.4195592 47.6041562,57.9828684 47.376,57.53 C46.879054,56.5216399 46.4640482,55.4749292 46.135,54.4 C45.5288621,52.3528819 45.1078369,50.2554538 44.877,48.133 C44.5568287,45.4234018 44.8298042,42.6765865 45.677,40.083 C45.778919,39.7323711 46.0638445,39.4651674 46.4202876,39.3859434 C46.7767307,39.3067194 47.1480176,39.4280716 47.388867,39.7025159 C47.6297165,39.9769603 47.7018337,40.3608606 47.577,40.704 C46.8196169,43.0196643 46.574962,45.4723547 46.86,47.892 C47.0757155,49.8958768 47.4716514,51.8762257 48.043,53.809 C48.3414759,54.7867332 48.7190564,55.7385437 49.172,56.655 C49.3630492,57.0298282 49.5792082,57.3913183 49.819,57.737 C50.2437748,58.3198965 50.584758,58.9594505 50.832,59.637 C50.9274293,59.9404437 50.8727998,60.2711879 50.6848608,60.5278273 C50.4969218,60.7844667 50.198095,60.9363833 49.88,60.937 L24.78,61.007 L24.78,61 Z" id="Shape" fill="#000000"/><path d="M11.194,19.567 C10.8884083,19.5671753 10.5995104,19.4276105 10.4097039,19.1881114 C10.2198975,18.9486123 10.1500194,18.635471 10.22,18.338 L10.32,17.905 C10.5131052,16.9892005 10.7602032,16.085623 11.06,15.199 C11.7555725,13.2746582 12.8327926,11.5106976 14.227,10.013 C15.7596426,8.53520641 17.6473921,7.47750189 19.708,6.942 C20.0522577,6.82944433 20.4304681,6.91183364 20.6967164,7.1573819 C20.9629648,7.40293017 21.0756292,7.7732514 20.9912433,8.12547458 C20.9068574,8.47769775 20.6386132,8.75676066 20.29,8.855 C18.5634442,9.29302828 16.9771231,10.1641454 15.681,11.386 C14.4733406,12.6864483 13.5401016,14.2169058 12.937,15.886 C12.6667971,16.6958165 12.4434278,17.5205136 12.268,18.356 L12.168,18.791 C12.0636686,19.2449301 11.6597655,19.5667256 11.194,19.567 Z" id="Shape" fill="#000000"/><circle id="Oval" fill="#000000" cx="10" cy="22" r="1"/><path d="M44,38 L36,38 C34.3431458,38 33,36.6568542 33,35 L33,34 C32.9981195,32.8987942 32.4798363,31.8622279 31.6,31.2 C28.0589176,28.5692559 25.9799458,24.4113123 26,20 C26,12.2680135 32.2680135,6 40,6 C47.7319865,6 54,12.2680135 54,20 C54.0200542,24.4113123 51.9410824,28.5692559 48.4,31.2 C47.5201637,31.8622279 47.0018805,32.8987942 47,34 L47,35 C47,35.7956495 46.6839295,36.5587112 46.1213203,37.1213203 C45.5587112,37.6839295 44.7956495,38 44,38 Z M40,8 C34.8348351,8 30.249169,11.3051611 28.6158004,16.2052668 C26.9824319,21.1053725 28.6678681,26.5009011 32.8,29.6 C34.1825823,30.6406585 34.9970226,32.2695391 35,34 L35,35 C35,35.5522847 35.4477153,36 36,36 L44,36 C44.5522847,36 45,35.5522847 45,35 L45,34 C45.0029774,32.2695391 45.8174177,30.6406585 47.2,29.6 C51.3321319,26.5009011 53.0175681,21.1053725 51.3841996,16.2052668 C49.750831,11.3051611 45.1651649,8 40,8 Z" id="Shape" fill="#000000"/><path d="M38,38 C37.4477153,38 37,37.5522847 37,37 L37,34 C37,33.4477153 37.4477153,33 38,33 C38.5522847,33 39,33.4477153 39,34 L39,37 C39,37.5522847 38.5522847,38 38,38 Z" id="Shape" fill="#000000"/><path d="M42,38 C41.4477153,38 41,37.5522847 41,37 L41,34 C41,33.4477153 41.4477153,33 42,33 C42.5522847,33 43,33.4477153 43,34 L43,37 C43,37.5522847 42.5522847,38 42,38 Z" id="Shape" fill="#000000"/><path d="M35,25 C32.790861,25 31,23.209139 31,21 C31,18.790861 32.790861,17 35,17 C37.209139,17 39,18.790861 39,21 C39,23.209139 37.209139,25 35,25 Z M35,19 C33.8954305,19 33,19.8954305 33,21 C33,22.1045695 33.8954305,23 35,23 C36.1045695,23 37,22.1045695 37,21 C37,19.8954305 36.1045695,19 35,19 Z" id="Shape" fill="#000000"/><path d="M45,25 C42.790861,25 41,23.209139 41,21 C41,18.790861 42.790861,17 45,17 C47.209139,17 49,18.790861 49,21 C49,23.209139 47.209139,25 45,25 Z M45,19 C43.8954305,19 43,19.8954305 43,21 C43,22.1045695 43.8954305,23 45,23 C46.1045695,23 47,22.1045695 47,21 C47,19.8954305 46.1045695,19 45,19 Z" id="Shape" fill="#000000"/><path d="M39,29 C38.6535599,28.999815 38.3318963,28.8203322 38.1498055,28.5256057 C37.9677146,28.2308792 37.9511412,27.8629025 38.106,27.553 L39.106,25.553 C39.3528713,25.0587051 39.9537051,24.8581287 40.448,25.105 C40.9422949,25.3518713 41.1428713,25.9527051 40.896,26.447 L39.896,28.447 C39.7264146,28.7863743 39.3793861,29.000556 39,29 Z" id="Shape" fill="#000000"/><path d="M41,29 C40.6191744,29.0020788 40.2702259,28.7876694 40.1,28.447 L39.1,26.447 C38.8531287,25.9527051 39.0537051,25.3518713 39.548,25.105 C40.0422949,24.8581287 40.6431287,25.0587051 40.89,25.553 L41.89,27.553 C42.0445455,27.8622668 42.0283796,28.2294236 41.8472507,28.5239106 C41.6661219,28.8183976 41.3457279,28.9984342 41,29 Z" id="Shape" fill="#000000"/><path d="M57,35 C56.8220072,35.0002284 56.6472317,34.9525623 56.494,34.862 L48.544,30.192 C48.0679306,29.9119916 47.9089917,29.2990695 48.189,28.823 C48.4690084,28.3469306 49.0819305,28.1879917 49.558,28.468 L57.508,33.138 C57.8970409,33.366779 58.0846232,33.8277961 57.9658326,34.2632057 C57.8470421,34.6986152 57.451323,35.0004932 57,35 Z" id="Shape" fill="#000000"/><path d="M27.449,17.62 C27.2707201,17.6200164 27.0956772,17.5723715 26.942,17.482 L22.492,14.862 C22.0159306,14.5814393 21.8574394,13.9680695 22.138,13.492 C22.4185607,13.0159306 23.0319305,12.8574394 23.508,13.138 L27.958,15.758 C28.3472027,15.9868725 28.5347611,16.448159 28.4157037,16.8836894 C28.2966463,17.3192198 27.9005091,17.6209461 27.449,17.62 Z" id="Shape" fill="#000000"/><path d="M20,16 C19.5092173,16.0003557 19.0907126,15.6445013 19.0121655,15.1600447 C18.9336184,14.6755882 19.218247,14.2057317 19.684,14.051 L21.735,13.368 L21.052,11.316 C20.9391041,10.9765977 21.0158529,10.6027477 21.253336,10.3352758 C21.490819,10.0678039 21.852957,9.94734542 22.203336,10.0192758 C22.553715,10.0912063 22.8391041,10.3445977 22.952,10.684 L23.952,13.684 C24.1267458,14.2078384 23.8438077,14.7741623 23.32,14.949 L20.32,15.949 C20.2168153,15.9832839 20.10873,16.00051 20,16 Z" id="Shape" fill="#000000"/><path d="M58,38 C57.5697607,37.9996733 57.1879555,37.7241936 57.052,37.316 L56.052,34.316 C55.8772542,33.7921616 56.1601923,33.2258377 56.684,33.051 L59.684,32.051 C60.2086705,31.876478 60.775478,32.1603295 60.95,32.685 C61.1245219,33.2096705 60.8406705,33.776478 60.316,33.951 L58.265,34.634 L58.948,36.686 C59.0487249,36.9905547 58.9972323,37.3249432 58.8095494,37.5850859 C58.6218666,37.8452286 58.3207785,37.9995436 58,38 Z" id="Shape" fill="#000000"/><path d="M23,35 C22.548677,35.0004932 22.1529579,34.6986152 22.0341674,34.2632057 C21.9153768,33.8277961 22.1029591,33.366779 22.492,33.138 L30.442,28.468 C30.9180695,28.1879917 31.5309916,28.3469306 31.811,28.823 C32.0910083,29.2990695 31.9320694,29.9119916 31.456,30.192 L23.506,34.862 C23.3527683,34.9525623 23.1779928,35.0002284 23,35 Z" id="Shape" fill="#000000"/><path d="M52.551,17.62 C52.0994909,17.6209461 51.7033537,17.3192198 51.5842963,16.8836894 C51.4652389,16.448159 51.6527973,15.9868725 52.042,15.758 L56.492,13.138 C56.9680695,12.8574394 57.5814393,13.0159306 57.862,13.492 C58.1425606,13.9680695 57.9840694,14.5814393 57.508,14.862 L53.058,17.482 C52.9043228,17.5723715 52.7292799,17.6200164 52.551,17.62 Z" id="Shape" fill="#000000"/><path d="M60,16 C59.8926115,16.0000777 59.7859116,15.9828571 59.684,15.949 L56.684,14.949 C56.1601923,14.7741623 55.8772542,14.2078384 56.052,13.684 L57.052,10.684 C57.1648959,10.3445977 57.450285,10.0912063 57.800664,10.0192758 C58.151043,9.94734542 58.513181,10.0678039 58.750664,10.3352758 C58.9881471,10.6027477 59.0648959,10.9765977 58.952,11.316 L58.269,13.368 L60.32,14.051 C60.7864893,14.2059581 61.0711861,14.6769704 60.9915459,15.1620288 C60.9119057,15.6470873 60.4915473,16.0023388 60,16 Z" id="Shape" fill="#000000"/><path d="M22,38 C21.6787328,37.9997561 21.3771457,37.8451743 21.1893651,37.5844999 C21.0015845,37.3238255 20.9504794,36.9888053 21.052,36.684 L21.735,34.632 L19.684,33.949 C19.1593295,33.774478 18.875478,33.2076705 19.05,32.683 C19.224522,32.1583295 19.7913295,31.874478 20.316,32.049 L23.316,33.049 C23.8398077,33.2238377 24.1227458,33.7901616 23.948,34.314 L22.948,37.314 C22.8127384,37.722984 22.4307705,37.9993869 22,38 Z" id="Shape" fill="#000000"/></g></g></svg>
