<?xml version="1.0" encoding="UTF-8"?>
<svg xmlns="http://www.w3.org/2000/svg" xmlns:xlink="http://www.w3.org/1999/xlink" width="512" height="512" viewBox="0 0 60 60" version="1.1"><!-- Generator: Sketch 51.3 (57544) - http://www.bohemiancoding.com/sketch --><title>031 - Mental Health</title><desc>Created with Sketch.</desc><defs/><g id="Page-1" stroke="none" stroke-width="1" fill="none" fill-rule="evenodd"><g id="031---Mental-Health" transform="translate(-1.000000, -1.000000)" fill-rule="nonzero"><path d="M47.26,38.71 C45.9803538,41.6319437 45.5006323,44.8415908 45.87,48.01 C46.0951005,50.0721875 46.5033794,52.1102353 47.09,54.1 C47.4066015,55.1331686 47.8045116,56.1396471 48.28,57.11 C48.8738098,58.0143772 49.4082676,58.956359 49.88,59.93 L24.78,60 L24.78,59.99 C24.7,59.69 23.19,53.81 19.85,52.3 C19.23,52.52 18.57,52.74 17.9,52.97 C15.6789002,53.7404523 13.4191713,54.3946722 11.13,54.93 C10.4993821,55.0806865 9.83512584,54.9878335 9.27,54.67 C8.62676625,54.2742562 8.14753634,53.660132 7.92,52.94 C7.65806229,52.2276891 7.56229323,51.4649569 7.64,50.71 C7.87036773,49.9391054 7.94848689,49.1307419 7.87,48.33 C7.61,47.32 6.65,47.07 5.89,46.53 C5.27,46.09 6.38,44.68 6.38,44.68 C6.38,44.68 5.2,43.81 4.78,43.44 C4.34,43.07 4.96,42.45 5.51,41.28 C5.73694079,40.7719796 5.80323378,40.2067446 5.7,39.66 C5.49,38.59 3.87,38.19 3.07,37.59 C2.69,37.31 2.08,36.89 2.01,36.38 C1.9,35.67 2.74,34.67 3.15,34.17 C4.89454657,31.9217816 6.38996718,29.4908848 7.61,26.92 C7.77010631,26.6486227 7.86589137,26.3441631 7.89,26.03 C7.87,24.6 5.8,24.01 5.61,22.62 C5.58022555,22.2120559 5.65239212,21.803112 5.82,21.43 C6.39667192,20.2042401 6.89109856,18.9414478 7.3,17.65 C7.54612792,16.4653226 7.86336869,15.2965408 8.25,14.15 C9.08859812,11.8496676 10.3808376,9.74127689 12.05,7.95 C14.5,5.36 18.12,4.08 21.54,3.4 C24.5813721,2.73504394 27.6655865,2.28393999 30.77,2.05 C30.87,2.04 30.97,2.04 31.07,2.03 C37.47,1.71 42.53,3.88 47.49,7.77 C50.1943357,9.78046229 52.1705976,12.6167315 53.12,15.85 C53.8445851,18.5214574 54.1846722,21.2825609 54.13,24.05 C54.110834,26.7831121 53.3129958,29.4541358 51.83,31.75 C50.34,34.11 48.39,36.14 47.26,38.71 Z" id="Shape" fill="#6A1B9A"/><path d="M44.26,38.71 C42.9803538,41.6319437 42.5006323,44.8415908 42.87,48.01 C43.0951005,50.0721875 43.5033794,52.1102353 44.09,54.1 C44.4066015,55.1331686 44.8045116,56.1396471 45.28,57.11 C45.8738098,58.0143772 46.4082676,58.956359 46.88,59.93 L24.78,59.99 C24.7,59.69 23.19,53.81 19.85,52.3 C19.23,52.52 18.57,52.74 17.9,52.97 C17.5823905,52.6995596 17.2290765,52.4741116 16.85,52.3 C14.44,53.14 11.5,54.11 9.27,54.67 C8.62676625,54.2742562 8.14753634,53.660132 7.92,52.94 C7.65806229,52.2276891 7.56229323,51.4649569 7.64,50.71 C7.87036773,49.9391054 7.94848689,49.1307419 7.87,48.33 C7.61,47.32 6.65,47.07 5.89,46.53 C5.27,46.09 6.38,44.68 6.38,44.68 C6.38,44.68 5.2,43.81 4.78,43.44 C4.34,43.07 4.96,42.45 5.51,41.28 C5.73694079,40.7719796 5.80323378,40.2067446 5.7,39.66 C5.49,38.59 3.87,38.19 3.07,37.59 C2.69,37.31 2.08,36.89 2.01,36.38 C1.9,35.67 2.74,34.67 3.15,34.17 C4.89454657,31.9217816 6.38996718,29.4908848 7.61,26.92 C7.77010631,26.6486227 7.86589137,26.3441631 7.89,26.03 C7.87,24.6 5.8,24.01 5.61,22.62 C5.58022555,22.2120559 5.65239212,21.803112 5.82,21.43 C6.39667192,20.2042401 6.89109856,18.9414478 7.3,17.65 C7.54612792,16.4653226 7.86336869,15.2965408 8.25,14.15 C9.08859812,11.8496676 10.3808376,9.74127689 12.05,7.95 C14.5,5.36 18.12,4.08 21.54,3.4 C24.5813721,2.73504394 27.6655865,2.28393999 30.77,2.05 C35.93,2.37 40.25,4.44 44.49,7.77 C47.1943357,9.78046229 49.1705976,12.6167315 50.12,15.85 C50.8445851,18.5214574 51.1846722,21.2825609 51.13,24.05 C51.110834,26.7831121 50.3129958,29.4541358 48.83,31.75 C47.34,34.11 45.39,36.14 44.26,38.71 Z" id="Shape" fill="#9D27B0"/><path d="M46.48,17.34 L45.28,22.02 C44.883559,22.6977431 44.4030888,23.3226904 43.85,23.88 L39.61,28.12 L26.88,15.39 L31.12,11.15 C34.6374671,7.63996172 40.3325329,7.63996172 43.85,11.15 C44.3599565,11.6587102 44.8034805,12.2299153 45.17,12.85 C45.966367,14.2174088 46.4161073,15.7588849 46.48,17.34 Z" id="Shape" fill="#CFD8DC"/><path d="M45,15.342 L43.8,20.022 C43.4033192,20.6998855 42.9228751,21.3251349 42.37,21.883 L38.13,26.122 L26.7,14.693 L30.76,10.633 C34.2770117,7.12186071 39.9729883,7.12186071 43.49,10.633 C43.56,10.703 43.63,10.782 43.69,10.852 C44.486367,12.2194088 44.9361073,13.7608849 45,15.342 Z" id="Shape" fill="#F5F5F5"/><path d="M39.61,28.12 L35.36,32.36 C32.131224,35.5943032 26.9895783,35.8911848 23.41,33.05 C23.1413431,32.8337418 22.8843172,32.6034199 22.64,32.36 C20.9499326,30.6749715 20.0000378,28.3865559 20.0000378,26 C20.0000378,23.6134441 20.9499326,21.3250285 22.64,19.64 L26.88,15.39 L39.61,28.12 Z" id="Shape" fill="#C81E1E"/><path d="M38.13,26.122 L33.88,30.362 C30.6514229,33.5967462 25.5094317,33.8936478 21.93,31.052 C18.9340681,27.4814778 19.1686452,22.2121814 22.47,18.922 L26.7,14.693 L38.13,26.122 Z" id="Shape" fill="#F44335"/><path d="M60,20 C59.9967052,21.1032019 59.1032019,21.9967052 58,22 L53,22 C51.8967981,22.0032948 51.0032948,22.8967981 51,24 L51,29 C50.9967052,30.1032019 50.1032019,30.9967052 49,31 C48.4694095,31.0028231 47.9604612,30.7898589 47.59,30.41 C47.5549389,30.3815953 47.5245673,30.3478491 47.5,30.31 C47.1786364,29.9492353 47.0007378,29.4831409 47,29 L47,24 C46.9967052,22.8967981 46.1032019,22.0032948 45,22 L40,22 C38.8967981,21.9967052 38.0032948,21.1032019 38,20 C38.0081672,18.8988312 38.8988312,18.0081672 40,18 L45,18 C46.1032019,17.9967052 46.9967052,17.1032019 47,16 L47,11 C47,9.8954305 47.8954305,9 49,9 C50.1045695,9 51,9.8954305 51,11 L51,16 C51.0032948,17.1032019 51.8967981,17.9967052 53,18 L58,18 C59.1032019,18.0032948 59.9967052,18.8967981 60,20 Z" id="Shape" fill="#549414"/><path d="M57,20 C56.9967052,21.1032019 56.1032019,21.9967052 55,22 L50,22 C48.8967981,22.0032948 48.0032948,22.8967981 48,24 L48,29 C47.9992622,29.4831409 47.8213636,29.9492353 47.5,30.31 C47.1786364,29.9492353 47.0007378,29.4831409 47,29 L47,24 C46.9967052,22.8967981 46.1032019,22.0032948 45,22 L40,22 C38.8967981,21.9967052 38.0032948,21.1032019 38,20 C38.0081672,18.8988312 38.8988312,18.0081672 40,18 L45,18 C46.1032019,17.9967052 46.9967052,17.1032019 47,16 L47,11 C47.0007378,10.5168591 47.1786364,10.0507647 47.5,9.69 C47.8213636,10.0507647 47.9992622,10.5168591 48,11 L48,16 C48.0032948,17.1032019 48.8967981,17.9967052 50,18 L55,18 C56.1032019,18.0032948 56.9967052,18.8967981 57,20 Z" id="Shape" fill="#60A917"/><path d="M10.511,56 C8.86133749,55.9693354 7.42609992,54.8626511 6.977,53.275 C6.6618426,52.4141982 6.54959663,51.4922755 6.649,50.581 C6.682,50.318 6.74,50.05 6.798,49.781 C6.91957463,49.3932994 6.95372661,48.9834757 6.898,48.581 C6.817,48.267 6.586,48.111 5.998,47.774 C5.764,47.641 5.527,47.505 5.305,47.349 C4.97992342,47.1169696 4.76529209,46.7608192 4.712,46.365 C4.67385435,45.8622176 4.78741543,45.359553 5.038,44.922 C4.697,44.661 4.324,44.367 4.108,44.172 C3.184,43.416 3.796,42.333 4.163,41.687 C4.297,41.449 4.454,41.174 4.603,40.854 C4.74073439,40.5365382 4.78009658,40.1850652 4.716,39.845 C4.666,39.586 3.941,39.216 3.509,38.995 C3.14677307,38.8238802 2.79926375,38.6232011 2.47,38.395 C1.75369155,37.9893367 1.23074833,37.3125018 1.019,36.517 C0.86,35.488 1.619,34.46 2.342,33.579 C4.05427497,31.3725891 5.52219196,28.9869725 6.72,26.464 C6.79665216,26.3279802 6.85387471,26.1818944 6.89,26.03 C6.89,25.755 6.565,25.439 6.077,24.991 C5.33779367,24.4453722 4.82013234,23.6514828 4.619,22.755 C4.56307696,22.1851159 4.65324528,21.610379 4.881,21.085 C5.062,20.611 5.265,20.156 5.468,19.701 C5.82559624,18.9699027 6.11288832,18.2064692 6.326,17.421 L6.426,16.999 C6.65555464,15.9178276 6.95144756,14.8518115 7.312,13.807 C8.19429313,11.3777039 9.55900834,9.15204797 11.324,7.264 C13.558,4.9 16.836,3.316 21.345,2.419 C24.5307746,1.72073844 27.7634281,1.25682993 31.017,1.031 C36.3434645,0.747661948 41.6073615,2.28877069 45.94,5.4 C46.2422091,5.59760208 46.4144229,5.94277498 46.3905564,6.3030628 C46.3666898,6.66335063 46.1504502,6.98279124 45.8248166,7.13880321 C45.4991831,7.29481517 45.1147352,7.26316574 44.819,7.056 C40.8449546,4.19091719 36.0113809,2.76942314 31.119,3.027 C27.9638691,3.24880747 24.8291789,3.70101303 21.74,4.38 C17.704,5.18 14.689,6.615 12.776,8.637 C11.1971652,10.3296077 9.97673014,12.3238693 9.188,14.5 C8.85614522,15.4674021 8.58396707,16.4542566 8.373,17.455 L8.273,17.881 C8.03242184,18.790144 7.70456527,19.6739167 7.294,20.52 C7.106,20.94 6.917,21.36 6.754,21.788 C6.65950369,22.0048357 6.60691104,22.2376006 6.599,22.474 C6.643,22.798 7.025,23.148 7.429,23.519 C8.25493667,24.1015488 8.78786015,25.0134644 8.89,26.019 C8.86993297,26.4934145 8.73617951,26.9560643 8.5,27.368 C7.24784001,30.0034832 5.71353526,32.4953873 3.924,34.8 C3.162,35.731 3,36.1 3,36.249 C3.18487589,36.4288287 3.3857006,36.5914967 3.6,36.735 C3.8610164,36.9170713 4.13661917,37.0772821 4.424,37.214 C5.277,37.65 6.446,38.248 6.686,39.468 C6.82918406,40.2237094 6.73595159,41.0051861 6.419,41.706 C6.245,42.076 6.065,42.396 5.908,42.672 C5.859,42.758 5.808,42.854 5.757,42.941 C6.172,43.275 6.738,43.699 6.978,43.875 C7.19568419,44.0363089 7.33859797,44.2790429 7.37403559,44.5476525 C7.40947321,44.8162621 7.33440129,45.087755 7.166,45.3 C7.01761396,45.493007 6.88833948,45.6999801 6.78,45.918 C6.849,45.958 6.918,45.998 6.988,46.037 C7.87254397,46.4174365 8.54781232,47.1638818 8.838,48.082 C8.98493135,48.7872637 8.95538984,49.5179007 8.752,50.209 C8.706,50.418 8.659,50.627 8.632,50.836 C8.57367075,51.4411271 8.65403967,52.0515889 8.867,52.621 C9.08879513,53.542134 9.99394191,54.1275326 10.925,53.952 C13.8392719,53.2514045 16.7107073,52.3832961 19.525,51.352 C19.862616,51.2348169 20.2371025,51.3066512 20.507394,51.5404437 C20.7776856,51.7742361 20.9027185,52.1344681 20.835394,52.4854437 C20.7680696,52.8364192 20.518616,53.1248169 20.181,53.242 C17.2866763,54.3026468 14.3325972,55.1925101 11.334,55.907 C11.063591,55.9661968 10.7878001,55.9973615 10.511,56 Z M5.411,42.66 L5.442,42.688 L5.411,42.66 Z" id="Shape" fill="#000000"/><path d="M24.78,61 C24.3194886,60.9998779 23.9186017,60.6852787 23.809,60.238 C23.42,58.657 21.879,54.314 19.438,53.211 C19.0639436,53.0419148 18.8312137,52.6614066 18.8510746,52.25139 C18.8709354,51.8413735 19.1393525,51.4851405 19.528,51.353 C20.572,50.999 21.517,50.668 22.261,50.408 C22.952,50.167 23.473,49.985 23.744,49.898 C27.902,48.583 28.744,47.082 28.721,46.053 C28.714833,45.7874245 28.8145893,45.530309 28.9982574,45.3383861 C29.1819255,45.1464632 29.43441,45.035507 29.7,45.03 C29.9659741,45.0205543 30.2245106,45.1188126 30.4170727,45.3025278 C30.6096349,45.486243 30.7199352,45.7398759 30.723,46.006 C30.781,48.498 28.639,50.449 24.354,51.806 C24.096,51.889 23.592,52.065 22.923,52.298 L22.023,52.614 C23.6713886,54.4428529 24.8738065,56.6286317 25.536,59 L48.218,58.937 L48.151,58.837 C47.8629147,58.4221101 47.6039597,57.987734 47.376,57.537 C46.8786739,56.5263955 46.4636619,55.4773282 46.135,54.4 C45.5282684,52.3530291 45.1072324,50.2555471 44.877,48.133 C44.4831396,44.7875333 44.9892182,41.3975661 46.343,38.313 C46.9902814,36.9161136 47.7926606,35.5964816 48.735,34.379 C48.9472158,34.0914012 49.2967433,33.9388647 49.6519191,33.9788495 C50.0070948,34.0188344 50.3139591,34.2452659 50.4569191,34.5728495 C50.5998791,34.9004332 50.5572158,35.2794012 50.345,35.567 C49.4922062,36.6645404 48.7646944,37.8539165 48.176,39.113 C46.9643817,41.870554 46.5111011,44.9016307 46.863,47.893 C47.0786037,49.8964849 47.4742015,51.8764821 48.045,53.809 C48.3448821,54.7865634 48.7224175,55.7385946 49.174,56.656 C49.3653284,57.0297119 49.5814791,57.3901857 49.821,57.735 C50.2457579,58.3180683 50.5870507,58.9575717 50.835,59.635 C50.9304293,59.9384437 50.8757998,60.2691879 50.6878608,60.5258273 C50.4999218,60.7824667 50.201095,60.9343833 49.883,60.935 L24.783,61.005 L24.78,61 Z" id="Shape" fill="#000000"/><path d="M11.194,19.567 C10.8888508,19.5670321 10.6003862,19.4277344 10.4106651,19.1887325 C10.2209439,18.9497305 10.1507311,18.6371832 10.22,18.34 L10.32,17.907 C10.5131488,16.9905545 10.7602456,16.086314 11.06,15.199 C11.7556722,13.274706 12.8328806,11.5107644 14.227,10.013 C15.7595511,8.5356103 17.6468677,7.47795529 19.707,6.942 C20.2352604,6.78073285 20.7942329,7.07823964 20.9555,7.6065 C21.1167671,8.13476036 20.8192604,8.69373285 20.291,8.855 C18.56399,9.29262258 16.9772482,10.1637817 15.681,11.386 C14.4731212,12.6862822 13.5398535,14.2167868 12.937,15.886 C12.6666327,16.6961058 12.4432611,17.5211451 12.268,18.357 L12.168,18.79 C12.064068,19.2443274 11.6600634,19.5666185 11.194,19.567 Z" id="Shape" fill="#000000"/><circle id="Oval" fill="#000000" cx="10" cy="22" r="1"/><path d="M29,36 C24.9547994,36.0025739 21.3069847,33.5663595 19.7596628,29.8287868 C18.212341,26.0912141 19.0707057,21.7894815 21.934,18.932 L30.413,10.443 C34.3256082,6.55476164 40.6433918,6.55476164 44.556,10.443 C46.3598078,12.2724344 47.4041341,14.7169369 47.479,17.285 C47.4937306,17.5498214 47.4026523,17.8096472 47.2258033,18.0073131 C47.0489542,18.2049789 46.8008226,18.3242912 46.536,18.339 C45.9874353,18.3620246 45.5200052,17.9446604 45.481,17.397 C45.4293651,15.321612 44.5940668,13.3426909 43.143,11.858 C40.0116187,8.74809027 34.9573813,8.74809027 31.826,11.858 L23.348,20.346 C21.2546794,22.3493809 20.4091182,25.3285561 21.1378876,28.1329136 C21.8666569,30.9372712 24.0556831,33.1278471 26.8595242,33.8586009 C29.6633653,34.5893548 32.6431381,33.7459022 34.648,31.654 L43.139,23.173 C43.6321976,22.6751877 44.0605837,22.1171098 44.414,21.512 C44.6945607,21.0362067 45.3077067,20.8779393 45.7835,21.1585 C46.2592933,21.4390607 46.4175607,22.0522067 46.137,22.528 C45.6975968,23.2781529 45.1654034,23.9699371 44.553,24.587 L36.062,33.068 C34.1948298,34.9504267 31.6513796,36.006416 29,36 Z" id="Shape" fill="#000000"/><path d="M32.536,16.394 C32.1316041,16.3939137 31.7670659,16.1502725 31.612322,15.7766546 C31.4575781,15.4030366 31.5430921,14.9729943 31.829,14.687 L33.243,13.272 C35.5874826,10.9323495 39.3835174,10.9323495 41.728,13.272 C42.1069722,13.6643789 42.1015524,14.2880848 41.7158186,14.6738186 C41.3300848,15.0595524 40.7063789,15.0649722 40.314,14.686 C39.5638486,13.9358099 38.5464017,13.5143542 37.4855,13.5143542 C36.4245983,13.5143542 35.4071514,13.9358099 34.657,14.686 L33.243,16.1 C33.0556711,16.2879162 32.8013384,16.3936783 32.536,16.394 Z" id="Shape" fill="#000000"/><path d="M39.606,29.121 C39.3408052,29.1209434 39.0864927,29.0155494 38.899,28.828 L26.172,16.1 C25.9120434,15.8489255 25.8077874,15.4771221 25.8993028,15.1274927 C25.9908183,14.7778632 26.2638632,14.5048183 26.6134927,14.4133028 C26.9631221,14.3217874 27.3349255,14.4260434 27.586,14.686 L40.313,27.414 C40.5989079,27.6999943 40.6844219,28.1300366 40.529678,28.5036546 C40.3749341,28.8772725 40.0103959,29.1209137 39.606,29.121 Z" id="Shape" fill="#000000"/><circle id="Oval" fill="#000000" cx="26.879" cy="21.05" r="1"/><path d="M45.38,7.23 L45.37,7.23 C44.8186982,7.22724346 44.3736248,6.77881946 44.3750031,6.22751249 C44.3763814,5.67620553 44.8236913,5.2300125 45.375,5.2300125 C45.9263087,5.2300125 46.3736186,5.67620553 46.3749969,6.22751249 C46.3763752,6.77881946 45.9313018,7.22724346 45.38,7.23 Z" id="Shape" fill="#000000"/><path d="M49,32 C47.3431458,32 46,30.6568542 46,29 L46,24 C46,23.4477153 45.5522847,23 45,23 L40,23 C38.3431458,23 37,21.6568542 37,20 C37,18.3431458 38.3431458,17 40,17 L45,17 C45.5522847,17 46,16.5522847 46,16 L46,11 C46,9.34314575 47.3431458,8 49,8 C50.6568542,8 52,9.34314575 52,11 L52,16 C52,16.5522847 52.4477153,17 53,17 L58,17 C59.6568542,17 61,18.3431458 61,20 C61,21.6568542 59.6568542,23 58,23 L53,23 C52.4477153,23 52,23.4477153 52,24 L52,29 C52,30.6568542 50.6568542,32 49,32 Z M40,19 C39.4477153,19 39,19.4477153 39,20 C39,20.5522847 39.4477153,21 40,21 L45,21 C46.6568542,21 48,22.3431458 48,24 L48,29 C48,29.5522847 48.4477153,30 49,30 C49.5522847,30 50,29.5522847 50,29 L50,24 C50,22.3431458 51.3431458,21 53,21 L58,21 C58.5522847,21 59,20.5522847 59,20 C59,19.4477153 58.5522847,19 58,19 L53,19 C51.3431458,19 50,17.6568542 50,16 L50,11 C50,10.4477153 49.5522847,10 49,10 C48.4477153,10 48,10.4477153 48,11 L48,16 C48,17.6568542 46.6568542,19 45,19 L40,19 Z" id="Shape" fill="#000000"/></g></g></svg>
