<?xml version="1.0" encoding="UTF-8"?>
<svg xmlns="http://www.w3.org/2000/svg" xmlns:xlink="http://www.w3.org/1999/xlink" width="512" height="512" viewBox="0 0 60 60" version="1.1"><!-- Generator: Sketch 51.3 (57544) - http://www.bohemiancoding.com/sketch --><title>033 - Memory</title><desc>Created with Sketch.</desc><defs/><g id="Page-1" stroke="none" stroke-width="1" fill="none" fill-rule="evenodd"><g id="033---Memory" transform="translate(-1.000000, -1.000000)" fill-rule="nonzero"><path d="M47.26,38.71 C45.9803538,41.6319437 45.5006323,44.8415908 45.87,48.01 C46.0951005,50.0721875 46.5033794,52.1102353 47.09,54.1 C47.4066015,55.1331686 47.8045116,56.1396471 48.28,57.11 C48.8738098,58.0143772 49.4082676,58.956359 49.88,59.93 L24.78,60 L24.78,59.99 C24.7,59.69 23.19,53.81 19.85,52.3 C19.23,52.52 18.57,52.74 17.9,52.97 C15.6789002,53.7404523 13.4191713,54.3946722 11.13,54.93 C10.4993821,55.0806865 9.83512584,54.9878335 9.27,54.67 C8.62676625,54.2742562 8.14753634,53.660132 7.92,52.94 C7.65806229,52.2276891 7.56229323,51.4649569 7.64,50.71 C7.87036773,49.9391054 7.94848689,49.1307419 7.87,48.33 C7.61,47.32 6.65,47.07 5.89,46.53 C5.27,46.09 6.38,44.68 6.38,44.68 C6.38,44.68 5.2,43.81 4.78,43.44 C4.34,43.07 4.96,42.45 5.51,41.28 C5.73694079,40.7719796 5.80323378,40.2067446 5.7,39.66 C5.49,38.59 3.87,38.19 3.07,37.59 C2.69,37.31 2.08,36.89 2.01,36.38 C1.9,35.67 2.74,34.67 3.15,34.17 C4.89454657,31.9217816 6.38996718,29.4908848 7.61,26.92 C7.77010631,26.6486227 7.86589137,26.3441631 7.89,26.03 C7.87,24.6 5.8,24.01 5.61,22.62 C5.58022555,22.2120559 5.65239212,21.803112 5.82,21.43 C6.39667192,20.2042401 6.89109856,18.9414478 7.3,17.65 C7.54612792,16.4653226 7.86336869,15.2965408 8.25,14.15 C9.08859812,11.8496676 10.3808376,9.74127689 12.05,7.95 C14.5,5.36 18.12,4.08 21.54,3.4 C24.5813721,2.73504394 27.6655865,2.28393999 30.77,2.05 C30.87,2.04 30.97,2.04 31.07,2.03 C37.47,1.71 42.53,3.88 47.49,7.77 C50.1943357,9.78046229 52.1705976,12.6167315 53.12,15.85 C53.8445851,18.5214574 54.1846722,21.2825609 54.13,24.05 C54.110834,26.7831121 53.3129958,29.4541358 51.83,31.75 C50.34,34.11 48.39,36.14 47.26,38.71 Z" id="Shape" fill="#FEC108"/><path d="M44.26,38.71 C42.9803538,41.6319437 42.5006323,44.8415908 42.87,48.01 C43.0951005,50.0721875 43.5033794,52.1102353 44.09,54.1 C44.4066015,55.1331686 44.8045116,56.1396471 45.28,57.11 C45.8738098,58.0143772 46.4082676,58.956359 46.88,59.93 L24.78,59.99 C24.7,59.69 23.19,53.81 19.85,52.3 C19.23,52.52 18.57,52.74 17.9,52.97 C17.5823905,52.6995596 17.2290765,52.4741116 16.85,52.3 C14.44,53.14 11.5,54.11 9.27,54.67 C8.62676625,54.2742562 8.14753634,53.660132 7.92,52.94 C7.65806229,52.2276891 7.56229323,51.4649569 7.64,50.71 C7.87036773,49.9391054 7.94848689,49.1307419 7.87,48.33 C7.61,47.32 6.65,47.07 5.89,46.53 C5.27,46.09 6.38,44.68 6.38,44.68 C6.38,44.68 5.2,43.81 4.78,43.44 C4.34,43.07 4.96,42.45 5.51,41.28 C5.73694079,40.7719796 5.80323378,40.2067446 5.7,39.66 C5.49,38.59 3.87,38.19 3.07,37.59 C2.69,37.31 2.08,36.89 2.01,36.38 C1.9,35.67 2.74,34.67 3.15,34.17 C4.89454657,31.9217816 6.38996718,29.4908848 7.61,26.92 C7.77010631,26.6486227 7.86589137,26.3441631 7.89,26.03 C7.87,24.6 5.8,24.01 5.61,22.62 C5.58022555,22.2120559 5.65239212,21.803112 5.82,21.43 C6.39667192,20.2042401 6.89109856,18.9414478 7.3,17.65 C7.54612792,16.4653226 7.86336869,15.2965408 8.25,14.15 C9.08859812,11.8496676 10.3808376,9.74127689 12.05,7.95 C14.5,5.36 18.12,4.08 21.54,3.4 C24.5813721,2.73504394 27.6655865,2.28393999 30.77,2.05 C35.93,2.37 40.25,4.44 44.49,7.77 C47.1943357,9.78046229 49.1705976,12.6167315 50.12,15.85 C50.8445851,18.5214574 51.1846722,21.2825609 51.13,24.05 C51.110834,26.7831121 50.3129958,29.4541358 48.83,31.75 C47.34,34.11 45.39,36.14 44.26,38.71 Z" id="Shape" fill="#FFDC00"/><path d="M60,3 L60,33 C60,33.5522847 59.5522847,34 59,34 L31,34 C30.4477153,34 30,33.5522847 30,33 L30,10.45 C29.9978412,10.1622319 30.1221464,9.88802916 30.34,9.7 L38.72,2.25 C38.9051499,2.09400454 39.1379644,2.00581724 39.38,2 L59,2 C59.5522847,2 60,2.44771525 60,3 Z" id="Shape" fill="#37474F"/><path d="M57,3 L57,33 C57,33.5522847 56.5522847,34 56,34 L31,34 C30.4477153,34 30,33.5522847 30,33 L30,10.45 C29.9978412,10.1622319 30.1221464,9.88802916 30.34,9.7 L38.72,2.25 C38.9051499,2.09400454 39.1379644,2.00581724 39.38,2 L56,2 C56.5522847,2 57,2.44771525 57,3 Z" id="Shape" fill="#607D8B"/><path d="M35,18 L55,18 C55.5522847,18 56,18.4477153 56,19 L56,34 L34,34 L34,19 C34,18.4477153 34.4477153,18 35,18 Z" id="Shape" fill="#F5F5F5"/><rect id="Rectangle-path" fill="#F44335" x="38" y="23" width="14" height="4" rx="1"/><path d="M50.9,46 L49.5,46 C49.2238576,46 49,46.2238576 49,46.5 L49,53 C49,53.5522847 48.5522847,54 48,54 L42,54 C41.4477153,54 41,53.5522847 41,53 L41,46.5 C41,46.2238576 40.7761424,46 40.5,46 L39.1,46 C38.904651,45.9978099 38.7284697,45.8820456 38.6489266,45.703611 C38.5693835,45.5251764 38.6010493,45.3167574 38.73,45.17 L43.5,39.71 L44.62,38.43 C44.7149941,38.3189168 44.8538379,38.2549615 45,38.2549615 C45.1461621,38.2549615 45.2850059,38.3189168 45.38,38.43 L51.27,45.17 C51.3989507,45.3167574 51.4306165,45.5251764 51.3510734,45.703611 C51.2715303,45.8820456 51.095349,45.9978099 50.9,46 Z" id="Shape" fill="#6A1B9A"/><path d="M47.9,46 L46.5,46 C46.2238576,46 46,46.2238576 46,46.5 L46,53 C46,53.5522847 45.5522847,54 45,54 L42,54 C41.4477153,54 41,53.5522847 41,53 L41,46.5 C41,46.2238576 40.7761424,46 40.5,46 L39.1,46 C38.904651,45.9978099 38.7284697,45.8820456 38.6489266,45.703611 C38.5693835,45.5251764 38.6010493,45.3167574 38.73,45.17 L43.5,39.71 L48.27,45.17 C48.3989507,45.3167574 48.4306165,45.5251764 48.3510734,45.703611 C48.2715303,45.8820456 48.095349,45.9978099 47.9,46 Z" id="Shape" fill="#9D27B0"/><path d="M10.517,55.993 C8.86290898,55.9618239 7.42240472,54.8558962 6.965,53.266 C6.64198768,52.4091835 6.52683521,51.4879637 6.629,50.578 C6.666,50.314 6.721,50.058 6.778,49.801 C6.90418829,49.4036431 6.94207096,48.9835208 6.889,48.57 C6.812,48.27 6.584,48.116 6.002,47.782 C5.762,47.644 5.521,47.503 5.295,47.341 C4.9735805,47.1105504 4.76126296,46.7578935 4.708,46.366 C4.66840244,45.8637302 4.78021034,45.3611171 5.029,44.923 C4.688,44.662 4.315,44.367 4.099,44.172 C3.187,43.409 3.794,42.329 4.158,41.683 C4.291,41.446 4.446,41.172 4.595,40.854 C4.73170188,40.5366161 4.77103232,40.1857747 4.708,39.846 C4.658,39.582 3.932,39.212 3.499,38.991 C3.13926095,38.8187847 2.79383215,38.6181484 2.466,38.391 L2.376,38.323 C1.70178884,37.9232134 1.21374752,37.2722519 1.019,36.513 C0.86,35.484 1.619,34.456 2.342,33.575 C4.04874376,31.3711378 5.5100493,28.9877142 6.7,26.467 C6.77296683,26.3369553 6.83100183,26.1990802 6.873,26.056 C6.873,25.75 6.551,25.435 6.064,24.987 C5.32733128,24.4416424 4.81156328,23.6493546 4.611,22.755 C4.55468405,22.1846845 4.64522157,21.6094442 4.874,21.084 C5.054,20.611 5.257,20.156 5.46,19.701 C5.81743566,18.9698334 6.10472191,18.2064154 6.318,17.421 L6.375,17.174 C6.60823002,16.0330824 6.9148676,14.9084105 7.293,13.807 C8.17380636,11.3781196 9.53680178,9.15249465 11.3,7.264 C13.528,4.9 16.8,3.316 21.294,2.419 C24.4728628,1.71797071 27.6994056,1.25402774 30.947,1.031 C33.4503396,0.884248896 35.960601,1.15700787 38.374,1.838 C38.9052979,1.98932602 39.213326,2.54270207 39.062,3.074 C38.910674,3.60529793 38.3572979,3.91332602 37.826,3.762 C35.6243445,3.14152118 33.3344564,2.89343588 31.051,3.028 C27.9015915,3.24716769 24.7727164,3.69906804 21.69,4.38 C17.667,5.18 14.663,6.614 12.758,8.636 C11.178085,10.328718 9.95662649,12.3233247 9.167,14.5 C8.81931639,15.5198872 8.53740439,16.5610243 8.323,17.617 L8.265,17.873 C8.0243388,18.7846493 7.69579988,19.6708001 7.284,20.519 C7.096,20.94 6.907,21.36 6.745,21.788 C6.64950527,22.0045521 6.59654368,22.2374473 6.589,22.474 C6.633,22.797 7.014,23.148 7.416,23.518 C8.24259417,24.100728 8.77363124,25.0152513 8.87,26.022 C8.85693019,26.4960436 8.72414384,26.9590757 8.484,27.368 C7.23967368,30.0038337 5.71128466,32.4959327 3.926,34.8 C3.162,35.731 3,36.1 3,36.249 C3.17726618,36.4239032 3.36931379,36.5831622 3.574,36.725 L3.663,36.792 C3.90101094,36.9481161 4.14961329,37.0874537 4.407,37.209 C5.266,37.647 6.443,38.247 6.673,39.477 C6.81461522,40.2295653 6.72104141,41.0074849 6.405,41.705 C6.232,42.072 6.055,42.39 5.905,42.664 C5.855,42.753 5.798,42.853 5.75,42.943 C6.161,43.274 6.728,43.699 6.967,43.875 C7.1848369,44.0361576 7.32794805,44.2788177 7.36357522,44.5474353 C7.39920239,44.8160529 7.32429522,45.0876291 7.156,45.3 C7.00751992,45.4925463 6.87886702,45.699597 6.772,45.918 L6.998,46.048 C7.87310122,46.4299252 8.54034309,47.1715482 8.828,48.082 C8.96891858,48.796885 8.93460729,49.535264 8.728,50.234 C8.683,50.439 8.636,50.644 8.607,50.849 C8.54976746,51.4466714 8.63333305,52.0494396 8.851,52.609 C9.05965486,53.5361729 9.96669472,54.1302419 10.9,53.951 C13.8042154,53.2423761 16.6672146,52.374396 19.476,51.351 C19.9976329,51.1692984 20.5677983,51.4448671 20.7494999,51.9665 C20.9312016,52.4881329 20.6556329,53.0582983 20.134,53.24 C17.2431792,54.2910586 14.2963268,55.1810901 11.307,55.906 C11.0473097,55.9617852 10.7826064,55.9909361 10.517,55.993 Z M5.412,42.664 L5.437,42.686 L5.412,42.664 Z" id="Shape" fill="#000000"/><path d="M24.73,61 C24.2694886,60.9998779 23.8686017,60.6852787 23.759,60.238 C23.371,58.657 21.831,54.314 19.397,53.21 C19.0243118,53.040292 18.7927579,52.6605071 18.8125922,52.2514791 C18.8324266,51.8424512 19.0996403,51.4868522 19.487,51.354 C20.449,51.025 21.326,50.717 22.04,50.467 C22.814,50.196 23.4,49.991 23.699,49.896 C27.835,48.579 28.674,47.079 28.65,46.053 C28.6370213,45.5007153 29.0742153,45.0424787 29.6265,45.0295 C30.1787847,45.0165213 30.6370213,45.4537153 30.65,46.006 C30.709,48.492 28.574,50.442 24.305,51.806 C24.014,51.898 23.449,52.096 22.705,52.357 L21.973,52.614 C23.6210319,54.4431066 24.8234013,56.6287971 25.486,59 L48.1,58.935 L48.032,58.835 C47.7445209,58.4197199 47.4855913,57.9853863 47.257,57.535 C46.761207,56.5235242 46.3485128,55.4733948 46.023,54.395 C45.8594355,53.8618494 46.1420474,53.2939885 46.666,53.103 C46.9081448,53.0147898 47.1756172,53.0278592 47.4080086,53.1392566 C47.6404,53.2506539 47.818109,53.4509831 47.901,53.695 L47.928,53.784 C48.2257535,54.7742331 48.604015,55.7384488 49.059,56.667 C49.2496326,57.0385532 49.4647744,57.3970115 49.703,57.74 C50.1278419,58.3228544 50.4688304,58.9624182 50.716,59.64 C50.8091008,59.9426662 50.7533456,60.2715426 50.5656905,60.5266116 C50.3780355,60.7816805 50.0806593,60.9327957 49.764,60.934 L24.733,61 L24.73,61 Z" id="Shape" fill="#000000"/><path d="M11.171,19.567 C11.094583,19.5671323 11.0184081,19.5584074 10.944,19.541 C10.4061178,19.4161234 10.0712568,18.8789132 10.196,18.341 L10.296,17.908 C10.4885731,16.9915156 10.7353398,16.0872609 11.035,15.2 C11.730131,13.2756 12.8066376,11.5113537 14.2,10.013 C15.7283908,8.5363366 17.6116593,7.47863406 19.668,6.942 C20.1962604,6.78073287 20.7552328,7.07823965 20.9165,7.60650001 C21.0777671,8.13476036 20.7802603,8.69373284 20.252,8.855 C18.5280333,9.29233231 16.9445392,10.163254 15.652,11.385 C14.4462725,12.6858152 13.5150679,14.216283 12.914,15.885 C12.6450401,16.6951099 12.4220188,17.5197546 12.246,18.355 L12.146,18.789 C12.0423846,19.2440893 11.637736,19.5669782 11.171,19.567 Z" id="Shape" fill="#000000"/><circle id="Oval" fill="#000000" cx="9.98" cy="22" r="1"/><path d="M59,35 L31,35 C29.8954305,35 29,34.1045695 29,33 L29,10.449 C29.0005489,9.87834555 29.2442351,9.33496185 29.67,8.955 L38.051,1.505 C38.417199,1.17957918 38.8901016,0.999883326 39.38,1 L59,1 C60.1045695,1 61,1.8954305 61,3 L61,33 C61,34.1045695 60.1045695,35 59,35 Z M59,3 L39.38,3 L31,10.449 L31,33 L59,33 L59,3 Z" id="Shape" fill="#000000"/><path d="M56,35 L34,35 C33.4477153,35 33,34.5522847 33,34 L33,19 C33,17.8954305 33.8954305,17 35,17 L55,17 C56.1045695,17 57,17.8954305 57,19 L57,34 C57,34.5522847 56.5522847,35 56,35 Z M35,33 L55,33 L55,19 L35,19 L35,33 Z" id="Shape" fill="#000000"/><path d="M56,9 C55.4477153,9 55,8.55228475 55,8 L55,2 C55,1.44771525 55.4477153,1 56,1 C56.5522847,1 57,1.44771525 57,2 L57,8 C57,8.55228475 56.5522847,9 56,9 Z" id="Shape" fill="#000000"/><path d="M52,9 C51.4477153,9 51,8.55228475 51,8 L51,2 C51,1.44771525 51.4477153,1 52,1 C52.5522847,1 53,1.44771525 53,2 L53,8 C53,8.55228475 52.5522847,9 52,9 Z" id="Shape" fill="#000000"/><path d="M48,9 C47.4477153,9 47,8.55228475 47,8 L47,2 C47,1.44771525 47.4477153,1 48,1 C48.5522847,1 49,1.44771525 49,2 L49,8 C49,8.55228475 48.5522847,9 48,9 Z" id="Shape" fill="#000000"/><path d="M44,9 C43.4477153,9 43,8.55228475 43,8 L43,2 C43,1.44771525 43.4477153,1 44,1 C44.5522847,1 45,1.44771525 45,2 L45,8 C45,8.55228475 44.5522847,9 44,9 Z" id="Shape" fill="#000000"/><path d="M40,9 C39.4477153,9 39,8.55228475 39,8 L39,2 C39,1.44771525 39.4477153,1 40,1 C40.5522847,1 41,1.44771525 41,2 L41,8 C41,8.55228475 40.5522847,9 40,9 Z" id="Shape" fill="#000000"/><path d="M32,15 L30,15 C29.4477153,15 29,14.5522847 29,14 C29,13.4477153 29.4477153,13 30,13 L32,13 C32.5522847,13 33,13.4477153 33,14 C33,14.5522847 32.5522847,15 32,15 Z" id="Shape" fill="#000000"/><path d="M51,28 L39,28 C37.8954305,28 37,27.1045695 37,26 L37,24 C37,22.8954305 37.8954305,22 39,22 L51,22 C52.1045695,22 53,22.8954305 53,24 L53,26 C53,27.1045695 52.1045695,28 51,28 Z M39,24 L39,26 L51,26 L51,24 L39,24 Z" id="Shape" fill="#000000"/><path d="M48,55 L42,55 C40.8954305,55 40,54.1045695 40,53 L40,47 L38,47 C37.6075298,46.9999439 37.2513764,46.7703126 37.0893445,46.4128514 C36.9273127,46.0553901 36.9893621,45.6361937 37.248,45.341 L44.248,37.341 C44.4430867,37.1350224 44.7143001,37.0183443 44.998,37.0183443 C45.2816999,37.0183443 45.5529133,37.1350224 45.748,37.341 L52.748,45.341 C53.0061661,45.6356485 53.0685073,46.053908 52.9074876,46.4110357 C52.746468,46.7681634 52.391746,46.9983799 52,47 L50,47 L50,53 C50,54.1045695 49.1045695,55 48,55 Z M40.2,45 L41,45 C41.5522847,45 42,45.4477153 42,46 L42,53 L48,53 L48,46 C48,45.4477153 48.4477153,45 49,45 L49.8,45 L45,39.519 L40.2,45 Z" id="Shape" fill="#000000"/></g></g></svg>
