<?xml version="1.0" encoding="UTF-8"?>
<svg xmlns="http://www.w3.org/2000/svg" xmlns:xlink="http://www.w3.org/1999/xlink" width="512" height="512" viewBox="0 0 60 60" version="1.1"><!-- Generator: Sketch 51.3 (57544) - http://www.bohemiancoding.com/sketch --><title>035 - Triumph</title><desc>Created with Sketch.</desc><defs/><g id="Page-1" stroke="none" stroke-width="1" fill="none" fill-rule="evenodd"><g id="035---Triumph" transform="translate(-1.000000, 0.000000)" fill-rule="nonzero"><path d="M47.26,37.71 C45.9803538,40.6319437 45.5006323,43.8415908 45.87,47.01 C46.0951005,49.0721875 46.5033794,51.1102353 47.09,53.1 C47.4066015,54.1331686 47.8045116,55.1396471 48.28,56.11 C48.8738098,57.0143772 49.4082676,57.956359 49.88,58.93 L24.78,59 L24.78,58.99 C24.7,58.69 23.19,52.81 19.85,51.3 C19.23,51.52 18.57,51.74 17.9,51.97 C15.6789002,52.7404523 13.4191713,53.3946722 11.13,53.93 C10.4993821,54.0806865 9.83512584,53.9878335 9.27,53.67 C8.62676625,53.2742562 8.14753634,52.660132 7.92,51.94 C7.65806229,51.2276891 7.56229323,50.4649569 7.64,49.71 C7.87036773,48.9391054 7.94848689,48.1307419 7.87,47.33 C7.61,46.32 6.65,46.07 5.89,45.53 C5.27,45.09 6.38,43.68 6.38,43.68 C6.38,43.68 5.2,42.81 4.78,42.44 C4.34,42.07 4.96,41.45 5.51,40.28 C5.73694079,39.7719796 5.80323378,39.2067446 5.7,38.66 C5.49,37.59 3.87,37.19 3.07,36.59 C2.69,36.31 2.08,35.89 2.01,35.38 C1.9,34.67 2.74,33.67 3.15,33.17 C4.89454657,30.9217816 6.38996718,28.4908848 7.61,25.92 C7.77010631,25.6486227 7.86589137,25.3441631 7.89,25.03 C7.87,23.6 5.8,23.01 5.61,21.62 C5.58022555,21.2120559 5.65239212,20.803112 5.82,20.43 C6.39667192,19.2042401 6.89109856,17.9414478 7.3,16.65 C7.54612792,15.4653226 7.86336869,14.2965408 8.25,13.15 C9.08859812,10.8496676 10.3808376,8.74127689 12.05,6.95 C14.5,4.36 18.12,3.08 21.54,2.4 C24.5813721,1.73504394 27.6655865,1.28393999 30.77,1.05 C30.87,1.04 30.97,1.04 31.07,1.03 C37.47,0.71 42.53,2.88 47.49,6.77 C50.1943357,8.78046229 52.1705976,11.6167315 53.12,14.85 C53.8445851,17.5214574 54.1846722,20.2825609 54.13,23.05 C54.110834,25.7831121 53.3129958,28.4541358 51.83,30.75 C50.34,33.11 48.39,35.14 47.26,37.71 Z" id="Shape" fill="#0377BC"/><path d="M44.26,37.71 C42.9803538,40.6319437 42.5006323,43.8415908 42.87,47.01 C43.0951005,49.0721875 43.5033794,51.1102353 44.09,53.1 C44.4066015,54.1331686 44.8045116,55.1396471 45.28,56.11 C45.8738098,57.0143772 46.4082676,57.956359 46.88,58.93 L24.78,58.99 C24.7,58.69 23.19,52.81 19.85,51.3 C19.23,51.52 18.57,51.74 17.9,51.97 C17.5823905,51.6995596 17.2290765,51.4741116 16.85,51.3 C14.44,52.14 11.5,53.11 9.27,53.67 C8.62676625,53.2742562 8.14753634,52.660132 7.92,51.94 C7.65806229,51.2276891 7.56229323,50.4649569 7.64,49.71 C7.87036773,48.9391054 7.94848689,48.1307419 7.87,47.33 C7.61,46.32 6.65,46.07 5.89,45.53 C5.27,45.09 6.38,43.68 6.38,43.68 C6.38,43.68 5.2,42.81 4.78,42.44 C4.34,42.07 4.96,41.45 5.51,40.28 C5.73694079,39.7719796 5.80323378,39.2067446 5.7,38.66 C5.49,37.59 3.87,37.19 3.07,36.59 C2.69,36.31 2.08,35.89 2.01,35.38 C1.9,34.67 2.74,33.67 3.15,33.17 C4.89454657,30.9217816 6.38996718,28.4908848 7.61,25.92 C7.77010631,25.6486227 7.86589137,25.3441631 7.89,25.03 C7.87,23.6 5.8,23.01 5.61,21.62 C5.58022555,21.2120559 5.65239212,20.803112 5.82,20.43 C6.39667192,19.2042401 6.89109856,17.9414478 7.3,16.65 C7.54612792,15.4653226 7.86336869,14.2965408 8.25,13.15 C9.08859812,10.8496676 10.3808376,8.74127689 12.05,6.95 C14.5,4.36 18.12,3.08 21.54,2.4 C24.5813721,1.73504394 27.6655865,1.28393999 30.77,1.05 C35.93,1.37 40.25,3.44 44.49,6.77 C47.1943357,8.78046229 49.1705976,11.6167315 50.12,14.85 C50.8445851,17.5214574 51.1846722,20.2825609 51.13,23.05 C51.110834,25.7831121 50.3129958,28.4541358 48.83,30.75 C47.34,33.11 45.39,35.14 44.26,37.71 Z" id="Shape" fill="#02A9F4"/><path d="M31.78,20 L30,20 C25.581722,20 22,16.418278 22,12 C22,7.581722 25.581722,4 30,4 L30,8 C27.790861,8 26,9.790861 26,12 C26,14.209139 27.790861,16 30,16 L30.18,16 C30.4433973,17.4260705 30.9872391,18.785675 31.78,20 Z" id="Shape" fill="#FF9801"/><path d="M60,12 C60.0029246,14.1226272 59.1610091,16.1591582 57.6600837,17.6600837 C56.1591582,19.1610091 54.1226272,20.0029246 52,20 L50.22,20.0000076 C51.0127609,18.785675 51.5566027,17.4260705 51.82,16 L52,16 C54.209139,16 56,14.209139 56,12 C56,9.790861 54.209139,8 52,8 L52,4 C54.1226272,3.99707535 56.1591582,4.83899086 57.6600837,6.33991634 C59.1610091,7.84084182 60.0029246,9.87737284 60,12 Z" id="Shape" fill="#FF9801"/><rect id="Rectangle-path" fill="#F57C00" x="38" y="24.58" width="6" height="10.42"/><rect id="Rectangle-path" fill="#FF9801" x="38" y="24.58" width="3" height="10.42"/><path d="M48,39 L48,40 C48.0013171,40.1128273 47.980948,40.2248572 47.94,40.33 C47.8002085,40.7298911 47.4236174,40.9983124 47,41 L35,41 C34.5763826,40.9983124 34.1997915,40.7298911 34.06,40.33 C34.019052,40.2248572 33.9986829,40.1128273 34,40 L34,39 C34,36.790861 35.790861,35 38,35 L44,35 C46.209139,35 48,36.790861 48,39 Z" id="Shape" fill="#FEC108"/><path d="M45,39 L45,40 C45.0013171,40.1128273 44.980948,40.2248572 44.94,40.33 C44.8002085,40.7298911 44.4236174,40.9983124 44,41 L35,41 C34.5763826,40.9983124 34.1997915,40.7298911 34.06,40.33 C34.019052,40.2248572 33.9986829,40.1128273 34,40 L34,39 C34,36.790861 35.790861,35 38,35 L41,35 C43.209139,35 45,36.790861 45,39 Z" id="Shape" fill="#FFDC00"/><path d="M52,2 L52,14 C52,16.9173814 50.8410748,19.7152744 48.7781746,21.7781746 C46.7152744,23.8410748 43.9173814,25 41,25 C40.4982634,25.0022092 39.9970031,24.9687919 39.5,24.9 C34.0503644,24.158685 29.9898821,19.4998158 30,14 L30,2 C30,1.44771525 30.4477153,1 31,1 L51,1 C51.5522847,1 52,1.44771525 52,2 Z" id="Shape" fill="#FEC108"/><path d="M49,2 L49,14 C49.0013754,19.4965459 44.945202,24.1504712 39.5,24.9 C34.0503644,24.158685 29.9898821,19.4998158 30,14 L30,2 C30,1.44771525 30.4477153,1 31,1 L48,1 C48.5522847,1 49,1.44771525 49,2 Z" id="Shape" fill="#FFDC00"/><path d="M49,7.5 C49,14.96 45.42,21 41,21 C36.58,21 33,14.96 33,7.5 C32.9876277,5.29486233 33.3216989,3.10146588 33.99,1 L48.01,1 C48.6783011,3.10146588 49.0123723,5.29486233 49,7.5 Z" id="Shape" fill="#FFEB3A"/><path d="M43.777,17.472 L41.228,16.053 C41.077416,15.969712 40.894584,15.969712 40.744,16.053 L38.187,17.453 C38.0191852,17.5451843 37.8134631,17.5334402 37.6572294,17.422757 C37.5009957,17.3120737 37.4216887,17.1218898 37.453,16.933 L37.962,13.872 C37.9880742,13.7155254 37.9383495,13.5559612 37.828,13.442 L35.701,11.242 C35.57087,11.1074282 35.5268121,10.9114391 35.5868302,10.7341225 C35.6468483,10.5568058 35.8008873,10.4278685 35.986,10.4 L38.894,9.965 C39.0589895,9.94026237 39.2007711,9.83486389 39.272,9.684 L40.563,6.957 C40.6454269,6.78164899 40.821742,6.66970578 41.0155,6.66970578 C41.209258,6.66970578 41.3855731,6.78164899 41.468,6.957 L42.741,9.7 C42.8115228,9.85137064 42.9529593,9.95754181 43.118,9.983 L46.023,10.436 C46.2080796,10.4648817 46.3614912,10.594791 46.420474,10.7725821 C46.4794568,10.9503731 46.4341158,11.1462193 46.303,11.28 L44.161,13.461 C44.0495657,13.5744001 43.9987046,13.7340372 44.024,13.891 L44.514,16.954 C44.545256,17.1434441 44.4652685,17.3340532 44.3081823,17.4444611 C44.1510961,17.5548691 43.9446615,17.5655716 43.777,17.472 Z" id="Shape" fill="#F44335"/><path d="M10.511,55 C8.86133749,54.9693354 7.42609992,53.8626511 6.977,52.275 C6.6618426,51.4141982 6.54959663,50.4922755 6.649,49.581 C6.682,49.318 6.74,49.05 6.798,48.781 C6.91957463,48.3932994 6.95372661,47.9834757 6.898,47.581 C6.817,47.267 6.586,47.111 5.998,46.774 C5.764,46.641 5.527,46.505 5.305,46.349 C4.97992342,46.1169696 4.76529209,45.7608192 4.712,45.365 C4.67385435,44.8622176 4.78741543,44.359553 5.038,43.922 C4.697,43.661 4.324,43.367 4.108,43.172 C3.184,42.416 3.796,41.333 4.163,40.687 C4.297,40.449 4.454,40.174 4.603,39.854 C4.74079442,39.5365542 4.78015866,39.1850629 4.716,38.845 C4.666,38.586 3.941,38.216 3.509,37.995 C3.14677307,37.8238802 2.79926375,37.6232011 2.47,37.395 C1.75369155,36.9893367 1.23074833,36.3125018 1.019,35.517 C0.86,34.488 1.619,33.46 2.342,32.579 C4.05427497,30.3725891 5.52219196,27.9869725 6.72,25.464 C6.79665216,25.3279802 6.85387471,25.1818944 6.89,25.03 C6.89,24.755 6.565,24.439 6.077,23.991 C5.33779367,23.4453722 4.82013234,22.6514828 4.619,21.755 C4.56307696,21.1851159 4.65324528,20.610379 4.881,20.085 C5.062,19.611 5.265,19.156 5.468,18.701 C5.82559624,17.9699027 6.11288832,17.2064692 6.326,16.421 L6.426,15.999 C6.65555464,14.9178276 6.95144756,13.8518115 7.312,12.807 C8.19429313,10.3777039 9.55900834,8.15204797 11.324,6.264 C13.558,3.9 16.836,2.316 21.345,1.419 C22.688,1.147 24.279,0.835 25.869,0.592 C26.4034731,0.530891909 26.8905158,0.903565151 26.9712638,1.43542553 C27.0520119,1.96728591 26.6975262,2.46772156 26.169,2.568 C24.622,2.806 23.06,3.112 21.737,3.38 C17.702,4.18 14.687,5.615 12.774,7.637 C11.1958825,9.32978607 9.97613529,11.3240353 9.188,13.5 C8.85614522,14.4674021 8.58396707,15.4542566 8.373,16.455 L8.273,16.881 C8.03242184,17.790144 7.70456527,18.6739167 7.294,19.52 C7.106,19.94 6.917,20.36 6.754,20.788 C6.65950369,21.0048357 6.60691104,21.2376006 6.599,21.474 C6.643,21.798 7.025,22.148 7.429,22.519 C8.25493667,23.1015488 8.78786015,24.0134644 8.89,25.019 C8.86993297,25.4934145 8.73617951,25.9560643 8.5,26.368 C7.24784001,29.0034832 5.71353526,31.4953873 3.924,33.8 C3.162,34.731 3,35.1 3,35.249 C3.18487589,35.4288287 3.3857006,35.5914967 3.6,35.735 C3.8610164,35.9170713 4.13661917,36.0772821 4.424,36.214 C5.277,36.65 6.446,37.248 6.686,38.468 C6.82918406,39.2237094 6.73595159,40.0051861 6.419,40.706 C6.245,41.076 6.065,41.396 5.908,41.672 C5.859,41.758 5.808,41.854 5.757,41.941 C6.172,42.275 6.738,42.699 6.978,42.875 C7.19568419,43.0363089 7.33859797,43.2790429 7.37403559,43.5476525 C7.40947321,43.8162621 7.33440129,44.087755 7.166,44.3 C7.01761396,44.493007 6.88833948,44.6999801 6.78,44.918 C6.849,44.958 6.918,44.998 6.988,45.037 C7.87254397,45.4174365 8.54781232,46.1638818 8.838,47.082 C8.98493135,47.7872637 8.95538984,48.5179007 8.752,49.209 C8.706,49.418 8.659,49.627 8.632,49.836 C8.57367075,50.4411271 8.65403967,51.0515889 8.867,51.621 C9.08924005,52.5418186 9.99404705,53.1269975 10.925,52.952 C13.8392719,52.2514045 16.7107073,51.3832961 19.525,50.352 C19.862616,50.2348169 20.2371025,50.3066512 20.507394,50.5404437 C20.7776856,50.7742361 20.9027185,51.1344681 20.835394,51.4854437 C20.7680696,51.8364192 20.518616,52.1248169 20.181,52.242 C17.2866763,53.3026468 14.3325972,54.1925101 11.334,54.907 C11.063591,54.9661968 10.7878001,54.9973615 10.511,55 Z M5.411,41.66 L5.442,41.688 L5.411,41.66 Z" id="Shape" fill="#000000"/><path d="M24.78,60 C24.3194886,59.9998779 23.9186017,59.6852787 23.809,59.238 C23.42,57.657 21.879,53.314 19.438,52.211 C19.0639436,52.0419148 18.8312137,51.6614066 18.8510746,51.25139 C18.8709354,50.8413735 19.1393525,50.4851405 19.528,50.353 C20.572,49.999 21.517,49.668 22.261,49.408 C22.952,49.167 23.473,48.985 23.744,48.898 C27.902,47.583 28.744,46.082 28.721,45.053 C28.714833,44.7874245 28.8145893,44.530309 28.9982574,44.3383861 C29.1819255,44.1464632 29.43441,44.035507 29.7,44.03 C29.9659741,44.0205543 30.2245106,44.1188126 30.4170727,44.3025278 C30.6096349,44.486243 30.7199352,44.7398759 30.723,45.006 C30.781,47.498 28.639,49.449 24.354,50.806 C24.096,50.889 23.592,51.065 22.923,51.298 L22.023,51.614 C23.6713886,53.4428529 24.8738065,55.6286317 25.536,58 L48.218,57.937 L48.151,57.837 C47.8630969,57.4195592 47.6041562,56.9828684 47.376,56.53 C46.879054,55.5216399 46.4640482,54.4749292 46.135,53.4 C45.5282684,51.3530291 45.1072324,49.2555471 44.877,47.133 C44.792265,46.4251602 44.7498563,45.7128936 44.75,45 C44.75,44.4477153 45.1977153,44 45.75,44 C46.3022847,44 46.75,44.4477153 46.75,45 C46.7497679,45.6320274 46.7875025,46.263498 46.863,46.891 C47.0785007,48.8942537 47.4744415,50.8739578 48.046,52.806 C48.3444759,53.7837332 48.7220564,54.7355437 49.175,55.652 C49.3660492,56.0268282 49.5822082,56.3883183 49.822,56.734 C50.2467748,57.3168965 50.587758,57.9564505 50.835,58.634 C50.9304293,58.9374437 50.8757998,59.2681879 50.6878608,59.5248273 C50.4999218,59.7814667 50.201095,59.9333833 49.883,59.934 L24.783,60.004 L24.78,60 Z" id="Shape" fill="#000000"/><path d="M49.839,34.55 C49.4602279,34.55 49.1139648,34.3359976 48.9445728,33.9972136 C48.7751808,33.6584296 48.8117368,33.2530176 49.039,32.95 L49.145,32.808 C49.804,31.931 50.426,31.108 50.982,30.217 C52.2368353,28.2820901 52.9638847,26.0526787 53.091,23.75 C53.1241371,23.1977153 53.5987153,22.7768629 54.151,22.81 C54.7032847,22.8431371 55.1241371,23.3177153 55.091,23.87 C54.9462753,26.5104262 54.114123,29.0672088 52.677,31.287 C52.077,32.238 51.402,33.138 50.748,34.009 L50.648,34.15 C50.4572528,34.4043562 50.1569205,34.5528518 49.839,34.55 Z" id="Shape" fill="#000000"/><path d="M11.194,18.567 C10.8888508,18.5670321 10.6003862,18.4277344 10.4106651,18.1887325 C10.2209439,17.9497305 10.1507311,17.6371832 10.22,17.34 L10.32,16.907 C10.5131488,15.9905545 10.7602456,15.086314 11.06,14.199 C11.7556722,12.274706 12.8328806,10.5107644 14.227,9.013 C15.7595511,7.5356103 17.6468677,6.47795529 19.707,5.942 C20.2352604,5.78073285 20.7942329,6.07823964 20.9555,6.6065 C21.1167671,7.13476036 20.8192604,7.69373285 20.291,7.855 C18.56399,8.29262258 16.9772482,9.16378169 15.681,10.386 C14.4731212,11.6862822 13.5398535,13.2167868 12.937,14.886 C12.6666327,15.6961058 12.4432611,16.5211451 12.268,17.357 L12.168,17.79 C12.064068,18.2443274 11.6600634,18.5666185 11.194,18.567 Z" id="Shape" fill="#000000"/><circle id="Oval" fill="#000000" cx="10" cy="21" r="1"/><path d="M41,26 C37.8158556,26.0050536 34.7606715,24.7423944 32.5091386,22.4908614 C30.2576056,20.2393285 28.9949464,17.1841444 29,14 L29,2 C29,0.8954305 29.8954305,2.02906125e-16 31,0 L51,0 C52.1045695,6.76353751e-17 53,0.8954305 53,2 L53,14 C52.9996597,14.7318943 52.932717,15.4622392 52.8,16.182 C51.7427886,21.8684235 46.7838635,25.9944173 41,26 Z M31,2 L31,14 C31,19.5228475 35.4771525,24 41,24 C46.5228475,24 51,19.5228475 51,14 L51,2 L31,2 Z" id="Shape" fill="#000000"/><path d="M31.78,21 L30,21 C26.7846097,21 23.8134664,19.2846097 22.2057713,16.5 C20.5980761,13.7153903 20.5980761,10.2846097 22.2057713,7.49999996 C23.8134664,4.71539025 26.7846097,2.99999995 30,3 C30.5522847,3 31,3.44771525 31,4 L31,8 C31,8.55228475 30.5522847,9 30,9 C28.3431458,9 27,10.3431458 27,12 C27,13.6568542 28.3431458,15 30,15 L30.18,15 C30.6616664,15.0000544 31.074855,15.3434675 31.163,15.817 C31.4008655,17.113374 31.8951964,18.3492012 32.617,19.452 C32.8183618,19.7593626 32.8349377,20.1523986 32.6601704,20.4756241 C32.4854032,20.7988496 32.1474483,21.0001917 31.78,21 Z M29,5.071 C25.3636285,5.59289123 22.7493563,8.83706005 23.0124191,12.5012607 C23.2754818,16.1654614 26.3263696,19.0029133 30,19 L30.087,19.0000022 C29.7857113,18.3433138 29.5450446,17.6604762 29.368,16.96 C26.9398406,16.6522887 25.0913684,14.6320307 25.0000821,12.1861543 C24.9087959,9.74027802 26.6015331,7.58785313 29,7.1 L29,5.071 Z" id="Shape" fill="#000000"/><path d="M52,21 L50.22,21 C49.852731,20.9998244 49.5151123,20.7983393 49.3405919,20.4751842 C49.1660714,20.1520292 49.1827365,19.7592126 49.384,19.452 C50.105263,18.3486605 50.5992309,17.1125509 50.837,15.816 C50.925569,15.3428651 51.3386465,14.9999645 51.82,15 L52,15 C53.6568542,15 55,13.6568542 55,12 C55,10.3431458 53.6568542,9 52,9 C51.4477153,9 51,8.55228475 51,8 L51,4 C51,3.44771525 51.4477153,3 52,3 C55.2153903,2.99999995 58.1865336,4.71539025 59.7942287,7.49999996 C61.4019239,10.2846097 61.4019239,13.7153903 59.7942287,16.5 C58.1865336,19.2846097 55.2153903,21 52,21 Z M51.913,19.0000022 L52,19 C55.6736304,19.0029133 58.7245182,16.1654614 58.9875809,12.5012607 C59.2506437,8.83706005 56.6363715,5.59289123 53,5.071 L53,7.1 C55.397025,7.58890449 57.0883001,9.74044664 56.9972971,12.1851296 C56.9062941,14.6298126 55.0597396,16.6496595 52.633,16.959 C52.4552234,17.6597093 52.2142355,18.3428431 51.913,19.0000022 Z" id="Shape" fill="#000000"/><path d="M44,36 L38,36 C37.4477153,36 37,35.5522847 37,35 L37,24.58 C37,24.0277153 37.4477153,23.58 38,23.58 C38.5522847,23.58 39,24.0277153 39,24.58 L39,34 L43,34 L43,24.58 C43,24.0277153 43.4477153,23.58 44,23.58 C44.5522847,23.58 45,24.0277153 45,24.58 L45,35 C45,35.5522847 44.5522847,36 44,36 Z" id="Shape" fill="#000000"/><path d="M47,42 L35,42 C33.8954305,42 33,41.1045695 33,40 L33,39 C33.0033061,36.2399468 35.2399468,34.0033061 38,34 L44,34 C46.7600532,34.0033061 48.9966939,36.2399468 49,39 L49,40 C49,41.1045695 48.1045695,42 47,42 Z M38,36 C36.3431458,36 35,37.3431458 35,39 L35,40 L47,40 L47,39 C47,37.3431458 45.6568542,36 44,36 L38,36 Z" id="Shape" fill="#000000"/><path d="M44.676,18.973 C44.5056214,18.9728751 44.3380601,18.9295225 44.189,18.847 L40.983,17.061 L37.765,18.826 C37.4293935,19.008807 37.0189437,18.9843519 36.7074181,18.762988 C36.3958925,18.5416241 36.2377727,18.1620649 36.3,17.785 L36.938,13.958 L34.308,11.245 C34.0471541,10.9759057 33.9586657,10.5835501 34.0787573,10.2285425 C34.1988489,9.87353498 34.5073589,9.61547558 34.878,9.56 L38.485,9.021 L40.118,5.572 C40.2828279,5.22393702 40.6328845,5.00145656 41.018,5 C41.40449,5.0025532 41.7549061,5.22759821 41.918,5.578 L43.529,9.038 L47.129,9.601 C47.4989863,9.65906906 47.805512,9.91900751 47.923249,10.2745351 C48.0409859,10.6300628 47.9501959,11.0215768 47.688,11.289 L45.041,13.989 L45.654,17.82 C45.700281,18.1092382 45.61742,18.404225 45.4272995,18.6270586 C45.2371789,18.8498922 44.9589174,18.9781643 44.666,18.978 L44.676,18.973 Z M40.986,14.918 C41.1564177,14.9178171 41.3240549,14.9611894 41.473,15.044 L43.364,16.1 L43,13.8 C42.9500743,13.4867293 43.0517475,13.1683513 43.274,12.942 L44.911,11.275 L42.7,10.931 C42.3702917,10.879773 42.0878544,10.6674761 41.947,10.365 L41.011,8.354 L40.062,10.359 C39.9195421,10.6607278 39.6359789,10.8715247 39.306,10.921 L37.096,11.251 L38.722,12.928 C38.942699,13.1559224 39.0421483,13.4750508 38.99,13.788 L38.608,16.082 L40.508,15.041 C40.6545534,14.9607052 40.8188923,14.9184171 40.986,14.918 Z" id="Shape" fill="#000000"/></g></g></svg>
