<?xml version="1.0" encoding="UTF-8"?>
<svg xmlns="http://www.w3.org/2000/svg" xmlns:xlink="http://www.w3.org/1999/xlink" width="512" height="512" viewBox="0 0 60 61" version="1.1"><!-- Generator: Sketch 51.3 (57544) - http://www.bohemiancoding.com/sketch --><title>036 - Calm</title><desc>Created with Sketch.</desc><defs/><g id="Page-1" stroke="none" stroke-width="1" fill="none" fill-rule="evenodd"><g id="036---Calm" transform="translate(-1.000000, -1.000000)" fill-rule="nonzero"><path d="M47.26,38.71 C45.9803538,41.6319437 45.5006323,44.8415908 45.87,48.01 C46.0951005,50.0721875 46.5033794,52.1102353 47.09,54.1 C47.4066015,55.1331686 47.8045116,56.1396471 48.28,57.11 C48.8738098,58.0143772 49.4082676,58.956359 49.88,59.93 L24.78,60 L24.78,59.99 C24.7,59.69 23.19,53.81 19.85,52.3 C19.23,52.52 18.57,52.74 17.9,52.97 C15.6789002,53.7404523 13.4191713,54.3946722 11.13,54.93 C10.4993821,55.0806865 9.83512584,54.9878335 9.27,54.67 C8.62676625,54.2742562 8.14753634,53.660132 7.92,52.94 C7.65806229,52.2276891 7.56229323,51.4649569 7.64,50.71 C7.87036773,49.9391054 7.94848689,49.1307419 7.87,48.33 C7.61,47.32 6.65,47.07 5.89,46.53 C5.27,46.09 6.38,44.68 6.38,44.68 C6.38,44.68 5.2,43.81 4.78,43.44 C4.34,43.07 4.96,42.45 5.51,41.28 C5.73694079,40.7719796 5.80323378,40.2067446 5.7,39.66 C5.49,38.59 3.87,38.19 3.07,37.59 C2.69,37.31 2.08,36.89 2.01,36.38 C1.9,35.67 2.74,34.67 3.15,34.17 C4.89454657,31.9217816 6.38996718,29.4908848 7.61,26.92 C7.77010631,26.6486227 7.86589137,26.3441631 7.89,26.03 C7.87,24.6 5.8,24.01 5.61,22.62 C5.58022555,22.2120559 5.65239212,21.803112 5.82,21.43 C6.39667192,20.2042401 6.89109856,18.9414478 7.3,17.65 C7.54612792,16.4653226 7.86336869,15.2965408 8.25,14.15 C9.08859812,11.8496676 10.3808376,9.74127689 12.05,7.95 C14.5,5.36 18.12,4.08 21.54,3.4 C24.5813721,2.73504394 27.6655865,2.28393999 30.77,2.05 C30.87,2.04 30.97,2.04 31.07,2.03 C37.47,1.71 42.53,3.88 47.49,7.77 C50.1943357,9.78046229 52.1705976,12.6167315 53.12,15.85 C53.8445851,18.5214574 54.1846722,21.2825609 54.13,24.05 C54.110834,26.7831121 53.3129958,29.4541358 51.83,31.75 C50.34,34.11 48.39,36.14 47.26,38.71 Z" id="Shape" fill="#0377BC"/><path d="M44.26,38.71 C42.9803538,41.6319437 42.5006323,44.8415908 42.87,48.01 C43.0951005,50.0721875 43.5033794,52.1102353 44.09,54.1 C44.4066015,55.1331686 44.8045116,56.1396471 45.28,57.11 C45.8738098,58.0143772 46.4082676,58.956359 46.88,59.93 L24.78,59.99 C24.7,59.69 23.19,53.81 19.85,52.3 C19.23,52.52 18.57,52.74 17.9,52.97 C17.5823905,52.6995596 17.2290765,52.4741116 16.85,52.3 C14.44,53.14 11.5,54.11 9.27,54.67 C8.62676625,54.2742562 8.14753634,53.660132 7.92,52.94 C7.65806229,52.2276891 7.56229323,51.4649569 7.64,50.71 C7.87036773,49.9391054 7.94848689,49.1307419 7.87,48.33 C7.61,47.32 6.65,47.07 5.89,46.53 C5.27,46.09 6.38,44.68 6.38,44.68 C6.38,44.68 5.2,43.81 4.78,43.44 C4.34,43.07 4.96,42.45 5.51,41.28 C5.73694079,40.7719796 5.80323378,40.2067446 5.7,39.66 C5.49,38.59 3.87,38.19 3.07,37.59 C2.69,37.31 2.08,36.89 2.01,36.38 C1.9,35.67 2.74,34.67 3.15,34.17 C4.89454657,31.9217816 6.38996718,29.4908848 7.61,26.92 C7.77010631,26.6486227 7.86589137,26.3441631 7.89,26.03 C7.87,24.6 5.8,24.01 5.61,22.62 C5.58022555,22.2120559 5.65239212,21.803112 5.82,21.43 C6.39667192,20.2042401 6.89109856,18.9414478 7.3,17.65 C7.54612792,16.4653226 7.86336869,15.2965408 8.25,14.15 C9.08859812,11.8496676 10.3808376,9.74127689 12.05,7.95 C14.5,5.36 18.12,4.08 21.54,3.4 C24.5813721,2.73504394 27.6655865,2.28393999 30.77,2.05 C35.93,2.37 40.25,4.44 44.49,7.77 C47.1943357,9.78046229 49.1705976,12.6167315 50.12,15.85 C50.8445851,18.5214574 51.1846722,21.2825609 51.13,24.05 C51.110834,26.7831121 50.3129958,29.4541358 48.83,31.75 C47.34,34.11 45.39,36.14 44.26,38.71 Z" id="Shape" fill="#02A9F4"/><path d="M45.22,16.83 L41.36,33.45 L41,35 L40.71,34.17 L39.97,31.99 L39.38,30.27 L34.8,16.9 C34.96,16.38 35.14,15.88 35.34,15.39 C36.1488945,13.4018016 37.2110003,11.5263109 38.5,9.81 C38.9586813,9.1791437 39.4528098,8.57483796 39.98,8 C41.9570785,10.1524826 43.5441293,12.6328838 44.67,15.33 C44.87,15.81 45.06,16.31 45.22,16.83 Z" id="Shape" fill="#BB193B"/><path d="M43,19 L39.38,30.27 L34.8,16.9 C34.96,16.38 35.14,15.88 35.34,15.39 C36.1488945,13.4018016 37.2110003,11.5263109 38.5,9.81 C39.7863658,11.5081987 40.8515751,13.3630743 41.67,15.33 C41.87,15.81 42.84,18.48 43,19 Z" id="Shape" fill="#EF314C"/><path d="M39.97,30.59 L39.97,37 L38.03,34.83 L25.3,20.59 C25.19,19.92 25.12,19.26 25.08,18.63 C24.9400601,16.5206667 25.0812985,14.4020905 25.5,12.33 C28.9053694,13.1313843 32.084944,14.6938204 34.8,16.9 C35.8674934,17.8071934 36.7972416,18.8649504 37.56,20.04 C39.0544023,22.5172673 39.8844798,25.3381532 39.97,28.23 C40.0100685,29.0161564 40.0100685,29.8038436 39.97,30.59 Z" id="Shape" fill="#EF314C"/><path d="M54.86,18.63 C54.82,19.26 54.75,19.92 54.64,20.59 L54.63,20.59 L41.93,34.81 L39.97,37 L39.97,30.59 C39.9299418,29.8038433 39.9299418,29.0161567 39.97,28.23 C40.0516822,25.3389249 40.8783563,22.5178996 42.37,20.04 C43.1550986,18.8342372 44.1156688,17.7523319 45.22,16.83 C47.1282898,15.2686302 49.2848478,14.0382429 51.6,13.19 C52.5251473,12.8365602 53.4741944,12.5491727 54.44,12.33 C54.8587015,14.4020905 54.9999399,16.5206667 54.86,18.63 Z" id="Shape" fill="#BB193B"/><path d="M51.86,18.63 C51.82,19.26 51.75,19.92 51.64,20.59 L51.63,20.59 L39.97,33.65 L39.97,30.59 C39.9299418,29.8038433 39.9299418,29.0161567 39.97,28.23 C40.0516822,25.3389249 40.8783563,22.5178996 42.37,20.04 C43.1550986,18.8342372 44.1156688,17.7523319 45.22,16.83 C47.1282898,15.2686302 49.2848478,14.0382429 51.6,13.19 C51.8869277,14.9882056 51.9741243,16.8126265 51.86,18.63 Z" id="Shape" fill="#EF314C"/><path d="M40.03,36.92 C40.0030891,36.920949 39.9763165,36.9242956 39.95,36.93 C39.06,37.01 31.39,37.59 26.18,33.31 C20.63,28.75 19.93,20.42 19.93,20.42 C20.6912565,20.3510563 21.4559538,20.3276813 22.22,20.35 C25.09,20.39 30.06,20.97 33.79,24.03 C39.34,28.59 40.03,36.92 40.03,36.92 Z" id="Shape" fill="#E91E63"/><path d="M60,20.42 C60,20.42 59.31,28.75 53.76,33.31 C48.52,37.6 40.83,37.01 39.99,36.92 L39.91,36.92 C39.91,36.92 39.92,36.74 39.97,36.42 C40.0678597,35.6733565 40.2047134,34.9323439 40.38,34.2 L40.39,34.15 C41.04,31.43 42.51,27.28 45.72,24.41 L45.72,24.4 C45.86,24.27 46,24.15 46.15,24.03 C48.6143944,22.1390107 51.5446711,20.9503136 54.63,20.59 C55.6272356,20.4463128 56.6325954,20.3661512 57.64,20.35 C58.427349,20.3211009 59.215748,20.3444856 60,20.42 Z" id="Shape" fill="#AD1457"/><path d="M57,20.35 C56.759,23.21 55.863,28.09 52.7,31.58 C48.247,36.48 40.873,36.89 39.986,36.92 L39.91,36.92 C39.91,36.92 39.92,36.74 39.968,36.42 C40.0620901,35.673804 40.1939257,34.9328542 40.363,34.2 L40.373,34.15 C40.999,31.43 42.416,27.28 45.51,24.41 L45.51,24.4 C45.645,24.27 45.78,24.15 45.925,24.03 C48.2784913,22.147794 51.1088333,20.9567999 54.1,20.59 C55.0603467,20.4463973 56.0291115,20.3662236 57,20.35 Z" id="Shape" fill="#E91E63"/><path d="M10.511,56 C8.86145152,55.9690108 7.4263849,54.8624583 6.977,53.275 C6.66129272,52.4143284 6.54869822,51.4923539 6.648,50.581 C6.682,50.318 6.739,50.05 6.798,49.781 C6.91941128,49.3932674 6.95356021,48.9834802 6.898,48.581 C6.817,48.267 6.586,48.11 5.998,47.774 C5.765,47.641 5.528,47.505 5.306,47.349 C4.98074391,47.1171358 4.76606133,46.7609003 4.713,46.365 C4.67448978,45.8623148 4.78770505,45.359639 5.038,44.922 C4.698,44.661 4.325,44.367 4.109,44.172 C3.185,43.417 3.798,42.333 4.164,41.686 C4.299,41.449 4.455,41.174 4.604,40.854 C4.74159405,40.5365137 4.78128854,40.1851827 4.718,39.845 C4.667,39.586 3.942,39.216 3.51,38.995 C3.14797678,38.8240989 2.80078202,38.6234083 2.472,38.395 C1.75470729,37.9902386 1.23115797,37.313086 1.02,36.517 C0.86,35.487 1.62,34.458 2.345,33.575 C4.05560327,31.369443 5.52247783,28.985227 6.72,26.464 C6.79697882,26.3281355 6.85421996,26.1820023 6.89,26.03 C6.89,25.755 6.565,25.439 6.076,24.991 C5.3374331,24.4449531 4.82021123,23.6511932 4.619,22.755 C4.56192334,22.1842424 4.65284498,21.6084053 4.883,21.083 C5.062,20.611 5.266,20.155 5.47,19.699 C5.82566937,18.9679886 6.11224857,18.2053397 6.326,17.421 L6.426,16.999 C6.65602311,15.9179422 6.95190812,14.8519547 7.312,13.807 C8.19404573,11.3778111 9.55841114,9.15217091 11.323,7.264 C13.559,4.9 16.836,3.316 21.345,2.419 C24.5310865,1.72059835 27.7640828,1.25668862 31.018,1.031 C37.181,0.725 42.459,2.555 48.106,6.972 C48.8939698,7.58479334 49.6334967,8.25745528 50.318,8.984 C50.6965912,9.38633944 50.6773394,10.0194088 50.275,10.398 C49.8726606,10.7765912 49.2395912,10.7573394 48.861,10.355 C48.246874,9.70309875 47.5835904,9.09932348 46.877,8.549 C41.633,4.449 36.766,2.749 31.12,3.028 C27.9646074,3.24988685 24.8296146,3.70175362 21.74,4.38 C17.704,5.18 14.689,6.615 12.776,8.637 C11.1965696,10.3291549 9.97605599,12.323545 9.188,14.5 C8.85614522,15.4674021 8.58396707,16.4542566 8.373,17.455 L8.273,17.881 C8.03405513,18.788547 7.70821606,19.6709581 7.3,20.516 C7.111,20.937 6.923,21.357 6.76,21.786 C6.66364086,22.0015614 6.61063423,22.2339751 6.604,22.47 C6.649,22.796 7.03,23.146 7.434,23.517 C8.25904392,24.1003679 8.79170832,25.0118401 8.895,26.017 C8.87635428,26.4916102 8.74434083,26.9548574 8.51,27.368 C7.2548892,30.0038306 5.71756418,32.4957388 3.925,34.8 C3.163,35.727 3.005,36.1 3,36.247 C3.18518784,36.4261779 3.38598284,36.5884872 3.6,36.732 C3.86136569,36.9140729 4.13730073,37.0742824 4.425,37.211 C5.277,37.647 6.446,38.245 6.686,39.465 C6.82865982,40.2207273 6.73544627,41.0020454 6.419,41.703 C6.244,42.073 6.065,42.393 5.908,42.668 C5.859,42.755 5.808,42.851 5.758,42.938 C6.172,43.272 6.738,43.696 6.978,43.872 C7.19643076,44.0334948 7.33976225,44.2769033 7.37503403,44.5462515 C7.41030582,44.8155997 7.33448237,45.0877071 7.165,45.3 C7.01691908,45.4930204 6.88797779,45.6999963 6.78,45.918 L6.987,46.037 C7.87230663,46.4169671 8.54836782,47.1634818 8.839,48.082 C8.98564963,48.7876772 8.95576498,49.5186489 8.752,50.21 C8.706,50.419 8.658,50.627 8.632,50.837 C8.5729723,51.4418114 8.65336419,52.0521056 8.867,52.621 C9.08565875,53.5448173 9.99386067,54.1319066 10.926,53.952 C13.8403482,53.2516858 16.7117997,52.3835725 19.526,51.352 C20.0479091,51.1705745 20.6180744,51.4465909 20.7995,51.9685 C20.9809255,52.4904091 20.7049091,53.0605744 20.183,53.242 C17.2887222,54.3027843 14.334635,55.19265 11.336,55.907 C11.0649467,55.96639 10.7884727,55.9975562 10.511,56 Z M5.411,42.659 L5.443,42.688 C5.43377066,42.6766361 5.42374541,42.6659425 5.413,42.656 L5.411,42.659 Z" id="Shape" fill="#000000"/><path d="M24.78,61 C24.3194886,60.9998779 23.9186017,60.6852787 23.809,60.238 C23.421,58.657 21.88,54.314 19.438,53.211 C19.0639436,53.0419148 18.8312137,52.6614066 18.8510746,52.25139 C18.8709354,51.8413735 19.1393525,51.4851405 19.528,51.353 C20.57,50.999 21.515,50.669 22.258,50.409 C22.951,50.167 23.473,49.985 23.744,49.898 C27.901,48.583 28.744,47.082 28.72,46.053 C28.7138345,45.7872547 28.8137271,45.5299897 28.9976105,45.338038 C29.1814939,45.1460862 29.4342349,45.0352448 29.7,45.03 L29.724,45.03 C30.2670463,45.0298436 30.7109669,45.4631101 30.724,46.006 C30.782,48.498 28.64,50.449 24.356,51.806 C24.097,51.889 23.592,52.065 22.922,52.299 L22.022,52.614 C23.671106,54.4424992 24.8739191,56.6283742 25.536,59 L48.218,58.937 L48.151,58.837 C47.8630969,58.4195592 47.6041562,57.9828684 47.376,57.53 C46.879054,56.5216399 46.4640482,55.4749292 46.135,54.4 C45.5288621,52.3528819 45.1078369,50.2554538 44.877,48.133 C44.5709223,45.5025098 44.8185603,42.8370802 45.604,40.308 C45.7276139,39.972349 46.0209055,39.7281419 46.3733948,39.6673691 C46.725884,39.6065964 47.0840194,39.7384908 47.3128948,40.0133691 C47.5417702,40.2882474 47.6066139,40.664349 47.483,41 C46.8050806,43.2303497 46.5940253,45.5764683 46.863,47.892 C47.0788071,49.8955347 47.4747419,51.8755435 48.046,53.808 C48.3444759,54.7857332 48.7220564,55.7375437 49.175,56.654 C49.3660492,57.0288282 49.5822082,57.3903183 49.822,57.736 C50.2467748,58.3188965 50.587758,58.9584505 50.835,59.636 C50.9304293,59.9394437 50.8757998,60.2701879 50.6878608,60.5268273 C50.4999218,60.7834667 50.201095,60.9353833 49.883,60.936 L24.783,61.006 L24.78,61 Z" id="Shape" fill="#000000"/><path d="M11.194,19.567 C10.8884083,19.5671753 10.5995104,19.4276105 10.4097039,19.1881114 C10.2198975,18.9486123 10.1500194,18.635471 10.22,18.338 L10.32,17.905 C10.5131052,16.9892005 10.7602032,16.085623 11.06,15.199 C11.7555725,13.2746582 12.8327926,11.5106976 14.227,10.013 C15.7596426,8.53520641 17.6473921,7.47750189 19.708,6.942 C20.0522577,6.82944433 20.4304681,6.91183364 20.6967164,7.1573819 C20.9629648,7.40293017 21.0756292,7.7732514 20.9912433,8.12547458 C20.9068574,8.47769775 20.6386132,8.75676066 20.29,8.855 C18.5634442,9.29302828 16.9771231,10.1641454 15.681,11.386 C14.4733406,12.6864483 13.5401016,14.2169058 12.937,15.886 C12.6667971,16.6958165 12.4434278,17.5205136 12.268,18.356 L12.168,18.791 C12.0636686,19.2449301 11.6597655,19.5667256 11.194,19.567 Z" id="Shape" fill="#000000"/><circle id="Oval" fill="#000000" cx="10" cy="22" r="1"/><path d="M38.125,38.005 C35.201,38.005 29.698,37.494 25.54,34.08 C19.731,29.311 18.968,20.861 18.94,20.503 C18.8954556,19.9647288 19.2863847,19.488353 19.823,19.427 C20.181,19.386 28.615,18.489 34.423,23.26 C40.231,28.029 40.995,36.479 41.023,36.836 C41.0681471,37.3742966 40.6776338,37.8511479 40.141,37.913 C39.4710443,37.9785251 38.7981391,38.0092331 38.125,38.005 Z M21.071,21.353 C21.452,23.632 22.771,29.215 26.81,32.534 C30.849,35.853 36.595,36.065 38.894,35.987 C38.513,33.708 37.194,28.125 33.155,24.806 C29.116,21.487 23.37,21.279 21.071,21.353 Z" id="Shape" fill="#000000"/><path d="M39.97,31.69 C39.4177153,31.69 38.97,31.2422847 38.97,30.69 L38.97,30.59 C39.0090376,29.8198277 39.0090376,29.0481723 38.97,28.278 C38.9028761,25.5589864 38.1265782,22.9046818 36.718,20.578 C36.0085472,19.4819967 35.1415828,18.496427 34.145,17.653 C31.8327304,15.7694385 29.1601106,14.3780019 26.291,13.564 C25.9467247,15.8382536 25.9450393,18.1512471 26.286,20.426 C26.3431625,20.7787998 26.2077664,21.135296 25.9308141,21.3612001 C25.6538617,21.5871041 25.2774289,21.6480958 24.9433141,21.5212001 C24.6091993,21.3943044 24.3681625,21.0987998 24.311,20.746 C23.8697674,17.8730638 23.9422257,14.9445994 24.525,12.097 C24.6491828,11.5706982 25.1692517,11.2384566 25.699,11.347 C29.2736808,12.1760848 32.6101408,13.8152337 35.451,16.138 C36.5937377,17.1077963 37.5874014,18.24062 38.4,19.5 C39.9974045,22.117964 40.8820318,25.1083213 40.966,28.174 C41.0080725,28.9967959 41.0080725,29.8212041 40.966,30.644 L40.966,30.688 C40.9671074,31.2395067 40.5215034,31.6877951 39.97,31.69 Z" id="Shape" fill="#000000"/><path d="M41.735,37.993 C40.658,37.993 39.962,37.925 39.865,37.915 C39.6197932,37.889938 39.3908257,37.7807544 39.217,37.606 C39.020789,37.4102211 38.9125139,37.1431426 38.917,36.866 C38.917,36.866 38.927,36.65 38.986,36.266 C39.049,35.783 39.176,34.966 39.408,33.983 C39.408,33.961 39.417,33.939 39.422,33.917 C40.2328794,30.0547868 42.1627619,26.5167269 44.971,23.744 C44.9941925,23.7163206 45.019251,23.6902598 45.046,23.666 C45.204,23.519 45.361,23.384 45.531,23.249 C48.1248784,21.2324766 51.2243806,19.9699086 54.489,19.6 C56.3504883,19.3192863 58.2387793,19.2612109 60.114,19.427 C60.650562,19.4868531 61.0427399,19.9618045 61,20.5 C60.971,20.858 60.208,29.307 54.4,34.081 C50.225,37.5 44.616,37.993 41.735,37.993 Z M41.043,35.986 C43.322,36.067 49.043,35.886 53.126,32.537 C57.182,29.204 58.488,23.627 58.865,21.351 C57.4969284,21.3075742 56.1276839,21.3842011 54.773,21.58 C51.8706671,21.9223478 49.112534,23.0340249 46.784,24.8 C46.673,24.889 46.573,24.973 46.477,25.06 C46.4484572,25.0927028 46.4180746,25.1237531 46.386,25.153 C43.8374063,27.6584403 42.0902235,30.864277 41.366,34.364 C41.366,34.385 41.358,34.407 41.353,34.428 C41.211,35.033 41.111,35.562 41.043,35.986 Z" id="Shape" fill="#000000"/><path d="M40.39,35.14 C40.1257878,35.1423997 39.8715573,35.0391889 39.6837868,34.8532961 C39.4960164,34.6674034 39.3902557,34.414223 39.39,34.15 L39.39,34.13 C39.3955098,33.5790506 39.8456353,33.1363581 40.3966001,33.1400221 C40.9475648,33.1436861 41.3917628,33.5923261 41.3899446,34.1433001 C41.3881263,34.694274 40.9409769,35.1399725 40.39,35.14 Z" id="Shape" fill="#000000"/><path d="M39.97,38 C39.4177153,38 38.97,37.5522847 38.97,37 L38.97,30.59 C38.9284096,29.7878721 38.9284096,28.9841279 38.97,28.182 C39.0485607,25.1142082 39.930216,22.1206487 41.527,19.5 C42.3660472,18.2109251 43.3922911,17.0539151 44.572,16.067 C47.396855,13.7843556 50.702317,12.1716266 54.24,11.35 C54.7703694,11.2415821 55.2907163,11.5748878 55.414,12.102 C55.9962384,14.9493445 56.0683575,17.8774443 55.627,20.75 C55.5521529,21.0999417 55.2962996,21.3833706 54.9558177,21.4935219 C54.6153357,21.6036732 54.2419524,21.5238123 53.9763177,21.2840219 C53.7106829,21.0442316 53.5931528,20.6809417 53.668,20.331 C53.9942183,18.0879942 53.9878161,15.8091375 53.649,13.568 C50.8107855,14.3736201 48.1638475,15.7424914 45.866,17.593 C44.8384968,18.4512769 43.9443791,19.4576228 43.213,20.579 C41.8047836,22.9053866 41.0310642,25.5603062 40.969,28.279 C40.9304667,29.0298393 40.9304667,29.7821607 40.969,30.533 L40.969,36.999 C40.9692653,37.2642165 40.8641629,37.5186759 40.676814,37.7063998 C40.4894652,37.8941238 40.2352165,37.9997349 39.97,38 Z" id="Shape" fill="#000000"/><path d="M34.8,17.9 C34.6982763,17.9005812 34.5970764,17.8854012 34.5,17.855 C33.9726366,17.6914412 33.6776305,17.1314221 33.841,16.604 C34.96975,13.1565054 36.815548,9.9870221 39.257,7.304 C39.4388504,7.09746265 39.705198,6.98547141 39.98,7 C40.2486341,7.00003838 40.5059561,7.10815686 40.694,7.3 C43.150615,9.95238154 45.0175837,13.0950099 46.172,16.521 C46.3104307,16.8682193 46.2436536,17.2636555 45.9988812,17.5461634 C45.7541088,17.8286714 45.3722119,17.9510794 45.0088182,17.8635047 C44.6454246,17.7759299 44.3612117,17.4929952 44.272,17.13 C43.3255637,14.3511551 41.8742421,11.7709148 39.991,9.519 C38.1174973,11.7962591 36.6813427,14.400391 35.755,17.2 C35.6238674,17.6169758 35.2371091,17.9004636 34.8,17.9 Z" id="Shape" fill="#000000"/><path d="M45.72,25.405 C45.1677153,25.405 44.72,24.9572847 44.72,24.405 L44.72,24.4 C44.7227582,23.8483745 45.1716874,23.4031691 45.7233167,23.4050055 C46.274946,23.406842 46.7209009,23.8550267 46.7199861,24.4066583 C46.7190713,24.9582899 46.2716324,25.4049931 45.72,25.405 Z" id="Shape" fill="#000000"/><path d="M34.28,25.455 C33.729662,25.4550069 33.2827517,25.0103311 33.28,24.46 L33.28,24.45 C33.28,23.8977153 33.7277153,23.45 34.28,23.45 C34.8322847,23.45 35.28,23.8977153 35.28,24.45 C35.28,25.0022847 34.8322847,25.45 34.28,25.45 L34.28,25.455 Z" id="Shape" fill="#000000"/></g></g></svg>
