<?xml version="1.0" encoding="UTF-8"?>
<svg xmlns="http://www.w3.org/2000/svg" xmlns:xlink="http://www.w3.org/1999/xlink" width="512" height="512" viewBox="0 0 60 61" version="1.1"><!-- Generator: Sketch 51.3 (57544) - http://www.bohemiancoding.com/sketch --><title>037 - Inner Peace</title><desc>Created with Sketch.</desc><defs/><g id="Page-1" stroke="none" stroke-width="1" fill="none" fill-rule="evenodd"><g id="037---Inner-Peace" transform="translate(-1.000000, -1.000000)" fill-rule="nonzero"><path d="M47.26,38.71 C45.9803538,41.6319437 45.5006323,44.8415908 45.87,48.01 C46.0951005,50.0721875 46.5033794,52.1102353 47.09,54.1 C47.4066015,55.1331686 47.8045116,56.1396471 48.28,57.11 C48.8738098,58.0143772 49.4082676,58.956359 49.88,59.93 L24.78,60 L24.78,59.99 C24.7,59.69 23.19,53.81 19.85,52.3 C19.23,52.52 18.57,52.74 17.9,52.97 C15.6789002,53.7404523 13.4191713,54.3946722 11.13,54.93 C10.4993821,55.0806865 9.83512584,54.9878335 9.27,54.67 C8.62676625,54.2742562 8.14753634,53.660132 7.92,52.94 C7.65806229,52.2276891 7.56229323,51.4649569 7.64,50.71 C7.87036773,49.9391054 7.94848689,49.1307419 7.87,48.33 C7.61,47.32 6.65,47.07 5.89,46.53 C5.27,46.09 6.38,44.68 6.38,44.68 C6.38,44.68 5.2,43.81 4.78,43.44 C4.34,43.07 4.96,42.45 5.51,41.28 C5.73694079,40.7719796 5.80323378,40.2067446 5.7,39.66 C5.49,38.59 3.87,38.19 3.07,37.59 C2.69,37.31 2.08,36.89 2.01,36.38 C1.9,35.67 2.74,34.67 3.15,34.17 C4.89454657,31.9217816 6.38996718,29.4908848 7.61,26.92 C7.77010631,26.6486227 7.86589137,26.3441631 7.89,26.03 C7.87,24.6 5.8,24.01 5.61,22.62 C5.58022555,22.2120559 5.65239212,21.803112 5.82,21.43 C6.39667192,20.2042401 6.89109856,18.9414478 7.3,17.65 C7.54612792,16.4653226 7.86336869,15.2965408 8.25,14.15 C9.08859812,11.8496676 10.3808376,9.74127689 12.05,7.95 C14.5,5.36 18.12,4.08 21.54,3.4 C24.5813721,2.73504394 27.6655865,2.28393999 30.77,2.05 C30.87,2.04 30.97,2.04 31.07,2.03 C37.47,1.71 42.53,3.88 47.49,7.77 C50.1943357,9.78046229 52.1705976,12.6167315 53.12,15.85 C53.8445851,18.5214574 54.1846722,21.2825609 54.13,24.05 C54.110834,26.7831121 53.3129958,29.4541358 51.83,31.75 C50.34,34.11 48.39,36.14 47.26,38.71 Z" id="Shape" fill="#549414"/><path d="M44.26,38.71 C42.9803538,41.6319437 42.5006323,44.8415908 42.87,48.01 C43.0951005,50.0721875 43.5033794,52.1102353 44.09,54.1 C44.4066015,55.1331686 44.8045116,56.1396471 45.28,57.11 C45.8738098,58.0143772 46.4082676,58.956359 46.88,59.93 L24.78,59.99 C24.7,59.69 23.19,53.81 19.85,52.3 C19.23,52.52 18.57,52.74 17.9,52.97 C17.5823905,52.6995596 17.2290765,52.4741116 16.85,52.3 C14.44,53.14 11.5,54.11 9.27,54.67 C8.62676625,54.2742562 8.14753634,53.660132 7.92,52.94 C7.65806229,52.2276891 7.56229323,51.4649569 7.64,50.71 C7.87036773,49.9391054 7.94848689,49.1307419 7.87,48.33 C7.61,47.32 6.65,47.07 5.89,46.53 C5.27,46.09 6.38,44.68 6.38,44.68 C6.38,44.68 5.2,43.81 4.78,43.44 C4.34,43.07 4.96,42.45 5.51,41.28 C5.73694079,40.7719796 5.80323378,40.2067446 5.7,39.66 C5.49,38.59 3.87,38.19 3.07,37.59 C2.69,37.31 2.08,36.89 2.01,36.38 C1.9,35.67 2.74,34.67 3.15,34.17 C4.89454657,31.9217816 6.38996718,29.4908848 7.61,26.92 C7.77010631,26.6486227 7.86589137,26.3441631 7.89,26.03 C7.87,24.6 5.8,24.01 5.61,22.62 C5.58022555,22.2120559 5.65239212,21.803112 5.82,21.43 C6.39667192,20.2042401 6.89109856,18.9414478 7.3,17.65 C7.54612792,16.4653226 7.86336869,15.2965408 8.25,14.15 C9.08859812,11.8496676 10.3808376,9.74127689 12.05,7.95 C14.5,5.36 18.12,4.08 21.54,3.4 C24.5813721,2.73504394 27.6655865,2.28393999 30.77,2.05 C35.93,2.37 40.25,4.44 44.49,7.77 C47.1943357,9.78046229 49.1705976,12.6167315 50.12,15.85 C50.8445851,18.5214574 51.1846722,21.2825609 51.13,24.05 C51.110834,26.7831121 50.3129958,29.4541358 48.83,31.75 C47.34,34.11 45.39,36.14 44.26,38.71 Z" id="Shape" fill="#60A917"/><circle id="Oval" fill="#FFEB3A" cx="42" cy="20" r="18"/><path d="M44.25,2.14 C43.5035164,2.0479278 42.7521394,2.00117545 42,2 C32.2839297,2.00538891 24.3276537,9.72463998 24.0285068,19.4361055 C23.72936,29.147571 31.195443,37.3418843 40.8927608,37.9452729 C50.5900786,38.5486616 59.0143771,31.3430832 59.9214147,21.669442 C60.8284522,11.9958008 53.8904589,3.34979517 44.25,2.14 Z M56,20 C56.0035333,22.9335838 55.0795003,25.793186 53.36,28.17 L44,18.81 L44,6.14 C50.8836449,7.14484693 55.9906227,13.0434063 56,20 Z M40,6.14 L40,18.81 L30.64,28.17 C27.7792499,24.1993319 27.2007757,19.0226302 29.1144962,14.5184355 C31.0282167,10.0142408 35.1560224,6.83712061 40,6.14 Z M40,24.47 L40,33.86 C37.5995734,33.5116607 35.3315548,32.5430996 33.42,31.05 L40,24.47 Z M44,33.86 L44,24.47 L50.58,31.05 C48.6684452,32.5430996 46.4004266,33.5116607 44,33.86 Z" id="Shape" fill="#9D27B0"/><path d="M60,20 C59.9917289,29.9376975 51.9376975,37.9917289 42,38 C41.499137,38.0020944 40.9984912,37.978731 40.5,37.93 C49.6704902,37.1479837 56.7738163,29.5739626 56.9666444,20.3722096 C57.1594724,11.1704567 50.3796787,3.30550689 41.25,2.14 C40.98,2.11 40.71,2.08 40.44,2.07 C40.95,2.02 41.47,2 42,2 C42.7521394,2.00117545 43.5035164,2.0479278 44.25,2.14 C53.2504455,3.27394953 60.000594,10.9284036 60,20 Z" id="Shape" fill="#6A1B9A"/><path d="M10.511,56 C8.86145152,55.9690108 7.4263849,54.8624583 6.977,53.275 C6.66129272,52.4143284 6.54869822,51.4923539 6.648,50.581 C6.682,50.318 6.739,50.05 6.798,49.781 C6.91941128,49.3932674 6.95356021,48.9834802 6.898,48.581 C6.817,48.267 6.586,48.11 5.998,47.774 C5.765,47.641 5.528,47.505 5.306,47.349 C4.98074391,47.1171358 4.76606133,46.7609003 4.713,46.365 C4.67448978,45.8623148 4.78770505,45.359639 5.038,44.922 C4.698,44.661 4.325,44.367 4.109,44.172 C3.185,43.417 3.798,42.333 4.164,41.686 C4.299,41.449 4.455,41.174 4.604,40.854 C4.74159405,40.5365137 4.78128854,40.1851827 4.718,39.845 C4.667,39.586 3.942,39.216 3.51,38.995 C3.14797678,38.8240989 2.80078202,38.6234083 2.472,38.395 C1.75470729,37.9902386 1.23115797,37.313086 1.02,36.517 C0.86,35.487 1.62,34.458 2.345,33.575 C4.05560327,31.369443 5.52247783,28.985227 6.72,26.464 C6.79697882,26.3281355 6.85421996,26.1820023 6.89,26.03 C6.89,25.755 6.565,25.439 6.076,24.991 C5.3374331,24.4449531 4.82021123,23.6511932 4.619,22.755 C4.56192334,22.1842424 4.65284498,21.6084053 4.883,21.083 C5.062,20.611 5.266,20.155 5.47,19.699 C5.82566937,18.9679886 6.11224857,18.2053397 6.326,17.421 L6.426,16.999 C6.65602311,15.9179422 6.95190812,14.8519547 7.312,13.807 C8.19404573,11.3778111 9.55841114,9.15217091 11.323,7.264 C13.559,4.9 16.836,3.316 21.345,2.419 C24.5310865,1.72059835 27.7640828,1.25668862 31.018,1.031 C33.2482687,0.909606879 35.4844517,1.10692705 37.659,1.617 C38.0143495,1.69167162 38.301299,1.95309962 38.4086522,2.29997774 C38.5160055,2.64685585 38.4268911,3.0246696 38.175842,3.28701191 C37.9247929,3.54935421 37.5512633,3.65499604 37.2,3.563 C35.2086114,3.09732947 33.1610702,2.91752566 31.119,3.029 C27.9639186,3.25014863 24.8292288,3.70168567 21.74,4.38 C17.704,5.18 14.689,6.615 12.776,8.637 C11.1965696,10.3291549 9.97605599,12.323545 9.188,14.5 C8.85614522,15.4674021 8.58396707,16.4542566 8.373,17.455 L8.273,17.881 C8.03405513,18.788547 7.70821606,19.6709581 7.3,20.516 C7.111,20.937 6.923,21.357 6.76,21.786 C6.66364086,22.0015614 6.61063423,22.2339751 6.604,22.47 C6.649,22.796 7.03,23.146 7.434,23.517 C8.25904392,24.1003679 8.79170832,25.0118401 8.895,26.017 C8.87635428,26.4916102 8.74434083,26.9548574 8.51,27.368 C7.2548892,30.0038306 5.71756418,32.4957388 3.925,34.8 C3.163,35.727 3.005,36.1 3,36.247 C3.18518784,36.4261779 3.38598284,36.5884872 3.6,36.732 C3.86136569,36.9140729 4.13730073,37.0742824 4.425,37.211 C5.277,37.647 6.446,38.245 6.686,39.465 C6.82865982,40.2207273 6.73544627,41.0020454 6.419,41.703 C6.244,42.073 6.065,42.393 5.908,42.668 C5.859,42.755 5.808,42.851 5.758,42.938 C6.172,43.272 6.738,43.696 6.978,43.872 C7.19643076,44.0334948 7.33976225,44.2769033 7.37503403,44.5462515 C7.41030582,44.8155997 7.33448237,45.0877071 7.165,45.3 C7.01691908,45.4930204 6.88797779,45.6999963 6.78,45.918 L6.987,46.037 C7.87230663,46.4169671 8.54836782,47.1634818 8.839,48.082 C8.98564963,48.7876772 8.95576498,49.5186489 8.752,50.21 C8.706,50.419 8.658,50.627 8.632,50.837 C8.5729723,51.4418114 8.65336419,52.0521056 8.867,52.621 C9.08520556,53.5451371 9.99375512,54.1324511 10.926,53.952 C13.8403482,53.2516858 16.7117997,52.3835725 19.526,51.352 C20.0479091,51.1705745 20.6180744,51.4465909 20.7995,51.9685 C20.9809255,52.4904091 20.7049091,53.0605744 20.183,53.242 C17.2887222,54.3027843 14.334635,55.19265 11.336,55.907 C11.0649467,55.96639 10.7884727,55.9975562 10.511,56 Z M5.411,42.659 L5.443,42.688 C5.43377066,42.6766361 5.42374541,42.6659425 5.413,42.656 L5.411,42.659 Z" id="Shape" fill="#000000"/><path d="M24.78,61 C24.3194886,60.9998779 23.9186017,60.6852787 23.809,60.238 C23.421,58.657 21.88,54.314 19.438,53.211 C19.0639436,53.0419148 18.8312137,52.6614066 18.8510746,52.25139 C18.8709354,51.8413735 19.1393525,51.4851405 19.528,51.353 C20.57,50.999 21.515,50.669 22.258,50.409 C22.951,50.167 23.473,49.985 23.744,49.898 C27.901,48.583 28.744,47.082 28.72,46.053 C28.7138345,45.7872547 28.8137271,45.5299897 28.9976105,45.338038 C29.1814939,45.1460862 29.4342349,45.0352448 29.7,45.03 L29.724,45.03 C30.2670463,45.0298436 30.7109669,45.4631101 30.724,46.006 C30.782,48.498 28.64,50.449 24.356,51.806 C24.097,51.889 23.592,52.065 22.922,52.299 L22.022,52.614 C23.671106,54.4424992 24.8739191,56.6283742 25.536,59 L48.218,58.937 L48.151,58.837 C47.8630969,58.4195592 47.6041562,57.9828684 47.376,57.53 C46.879054,56.5216399 46.4640482,55.4749292 46.135,54.4 C45.5288621,52.3528819 45.1078369,50.2554538 44.877,48.133 C44.4837247,44.7875424 44.9897805,41.3977283 46.343,38.313 C46.6407969,37.6446863 46.98393,36.9975111 47.37,36.376 C47.558279,36.0723242 47.894265,35.8921619 48.2513954,35.9033784 C48.6085258,35.9145949 48.932544,36.1154862 49.1013954,36.4303784 C49.2702468,36.7452706 49.258279,37.1263242 49.07,37.43 C48.7315552,37.9720022 48.4308436,38.5366718 48.17,39.12 C46.9599767,41.8755319 46.5073994,44.9041056 46.859,47.893 C47.0748071,49.8965347 47.4707419,51.8765435 48.042,53.809 C48.3404759,54.7867332 48.7180564,55.7385437 49.171,56.655 C49.3620492,57.0298282 49.5782082,57.3913183 49.818,57.737 C50.2427748,58.3198965 50.583758,58.9594505 50.831,59.637 C50.9264293,59.9404437 50.8717998,60.2711879 50.6838608,60.5278273 C50.4959218,60.7844667 50.197095,60.9363833 49.879,60.937 L24.779,61.007 L24.78,61 Z" id="Shape" fill="#000000"/><path d="M11.194,19.567 C10.8884083,19.5671753 10.5995104,19.4276105 10.4097039,19.1881114 C10.2198975,18.9486123 10.1500194,18.635471 10.22,18.338 L10.32,17.905 C10.5131052,16.9892005 10.7602032,16.085623 11.06,15.199 C11.7555725,13.2746582 12.8327926,11.5106976 14.227,10.013 C15.7596426,8.53520641 17.6473921,7.47750189 19.708,6.942 C20.0522577,6.82944433 20.4304681,6.91183364 20.6967164,7.1573819 C20.9629648,7.40293017 21.0756292,7.7732514 20.9912433,8.12547458 C20.9068574,8.47769775 20.6386132,8.75676066 20.29,8.855 C18.5634442,9.29302828 16.9771231,10.1641454 15.681,11.386 C14.4733406,12.6864483 13.5401016,14.2169058 12.937,15.886 C12.6667971,16.6958165 12.4434278,17.5205136 12.268,18.356 L12.168,18.791 C12.0636686,19.2449301 11.6597655,19.5667256 11.194,19.567 Z" id="Shape" fill="#000000"/><circle id="Oval" fill="#000000" cx="10" cy="22" r="1"/><path d="M42,39 C31.5065898,39 23,30.4934102 23,20 C23,9.50658975 31.5065898,1 42,1 C42.7925602,1.00159327 43.5843127,1.05068125 44.371,1.147 C53.8689116,2.35052439 60.9918877,10.4261434 61,20 C60.9911777,30.4897537 52.4897537,38.9911777 42,39 Z M42,3 C32.6154999,3.01047101 25.010471,10.6154999 25,20 C25.0039706,27.269768 29.6301291,33.7324725 36.5104418,36.0799903 C43.3907545,38.427508 51.0023453,36.1402437 55.449,30.389 C57.7627639,27.4214177 59.0132385,23.7629607 59,20 C58.9927504,11.4356524 52.6221124,4.21097025 44.126,3.132 C43.4206414,3.04519221 42.7106794,3.00111179 42,3 Z M44,34.86 C43.4477153,34.86 43,34.4122847 43,33.86 L43,24.47 C43.0000863,24.0656041 43.2437275,23.7010659 43.6173454,23.546322 C43.9909634,23.3915781 44.4210057,23.4770921 44.707,23.763 L51.287,30.343 C51.4909581,30.5460196 51.5975668,30.8270656 51.579568,31.1142796 C51.5615693,31.4014936 51.420708,31.6670315 51.193,31.843 C49.1434095,33.4407274 46.7135622,34.4780044 44.142,34.853 C44.0948605,34.8583116 44.0474333,34.8606496 44,34.86 Z M45,26.884 L45,32.652 C46.4340728,32.3084873 47.7990011,31.722745 49.036,30.92 L45,26.884 Z M40,34.86 C39.9525035,34.8596543 39.9050761,34.8563144 39.858,34.85 C37.2864378,34.4750044 34.8565905,33.4377274 32.807,31.84 C32.579292,31.6640315 32.4384307,31.3984936 32.420432,31.1112796 C32.4024332,30.8240656 32.5090419,30.5430196 32.713,30.34 L39.293,23.76 C39.5793801,23.4737033 40.0101518,23.3883786 40.3840431,23.5438929 C40.7579344,23.6994071 41.0011299,24.0650579 41,24.47 L41,33.86 C41,34.4122847 40.5522847,34.86 40,34.86 Z M34.964,30.92 C36.2009989,31.722745 37.5659272,32.3084873 39,32.652 L39,26.884 L34.964,30.92 Z M53.364,29.17 C53.0988052,29.1699434 52.8444927,29.0645494 52.657,28.877 L43.297,19.517 C43.1079828,19.3301641 43.0011159,19.0757703 43,18.81 L43,6.14 C42.9999195,5.84978185 43.1259244,5.57384422 43.345296,5.38383725 C43.5646677,5.19383028 43.8557645,5.10849879 44.143,5.15 C51.5062276,6.24864436 56.9665062,12.5553362 57,20 C57.0057165,23.1439359 56.0153443,26.2088736 54.171,28.755 C53.9995243,28.9928671 53.7322871,29.1434851 53.44,29.167 C53.414,29.169 53.387,29.17 53.36,29.17 L53.364,29.17 Z M45,18.4 L53.2,26.6 C54.3847953,24.6028279 55.0067977,22.3221521 55,20 C54.9712231,13.9853886 50.8453124,8.76528643 45,7.348 L45,18.4 Z M30.64,29.17 C30.613,29.17 30.586,29.17 30.56,29.17 C30.2677129,29.1464851 30.0004757,28.9958671 29.829,28.758 C27.9840523,26.2110441 26.9936492,23.1449604 27,20 C27.0334938,12.5553362 32.4937724,6.24864436 39.857,5.15 C40.1449089,5.10932936 40.4363903,5.19458768 40.657,5.384 C40.8754752,5.57439551 41.0006107,5.85020437 41,6.14 L41,18.81 C40.9999434,19.0751948 40.8945494,19.3295073 40.707,19.517 L31.347,28.877 C31.1595073,29.0645494 30.9051948,29.1699434 30.64,29.17 Z M39,7.348 C33.1546876,8.76528643 29.0287769,13.9853886 29,20 C28.9942856,22.3201168 29.6162495,24.5985779 30.8,26.594 L39,18.4 L39,7.348 Z" id="Shape" fill="#000000"/></g></g></svg>
