<?xml version="1.0" encoding="UTF-8"?>
<svg xmlns="http://www.w3.org/2000/svg" xmlns:xlink="http://www.w3.org/1999/xlink" width="512" height="512" viewBox="0 0 60 61" version="1.1"><!-- Generator: Sketch 51.3 (57544) - http://www.bohemiancoding.com/sketch --><title>038 - Mind Map</title><desc>Created with Sketch.</desc><defs/><g id="Page-1" stroke="none" stroke-width="1" fill="none" fill-rule="evenodd"><g id="038---Mind-Map" transform="translate(-1.000000, 0.000000)" fill-rule="nonzero"><path d="M47.26,37.71 C45.9803538,40.6319437 45.5006323,43.8415908 45.87,47.01 C46.0951005,49.0721875 46.5033794,51.1102353 47.09,53.1 C47.4066015,54.1331686 47.8045116,55.1396471 48.28,56.11 C48.8738098,57.0143772 49.4082676,57.956359 49.88,58.93 L24.78,59 L24.78,58.99 C24.7,58.69 23.19,52.81 19.85,51.3 C19.23,51.52 18.57,51.74 17.9,51.97 C15.6789002,52.7404523 13.4191713,53.3946722 11.13,53.93 C10.4993821,54.0806865 9.83512584,53.9878335 9.27,53.67 C8.62676625,53.2742562 8.14753634,52.660132 7.92,51.94 C7.65806229,51.2276891 7.56229323,50.4649569 7.64,49.71 C7.87036773,48.9391054 7.94848689,48.1307419 7.87,47.33 C7.61,46.32 6.65,46.07 5.89,45.53 C5.27,45.09 6.38,43.68 6.38,43.68 C6.38,43.68 5.2,42.81 4.78,42.44 C4.34,42.07 4.96,41.45 5.51,40.28 C5.73694079,39.7719796 5.80323378,39.2067446 5.7,38.66 C5.49,37.59 3.87,37.19 3.07,36.59 C2.69,36.31 2.08,35.89 2.01,35.38 C1.9,34.67 2.74,33.67 3.15,33.17 C4.89454657,30.9217816 6.38996718,28.4908848 7.61,25.92 C7.77010631,25.6486227 7.86589137,25.3441631 7.89,25.03 C7.87,23.6 5.8,23.01 5.61,21.62 C5.58022555,21.2120559 5.65239212,20.803112 5.82,20.43 C6.39667192,19.2042401 6.89109856,17.9414478 7.3,16.65 C7.54612792,15.4653226 7.86336869,14.2965408 8.25,13.15 C9.08859812,10.8496676 10.3808376,8.74127689 12.05,6.95 C14.5,4.36 18.12,3.08 21.54,2.4 C24.5813721,1.73504394 27.6655865,1.28393999 30.77,1.05 C30.87,1.04 30.97,1.04 31.07,1.03 C37.47,0.71 42.53,2.88 47.49,6.77 C50.1943357,8.78046229 52.1705976,11.6167315 53.12,14.85 C53.8445851,17.5214574 54.1846722,20.2825609 54.13,23.05 C54.110834,25.7831121 53.3129958,28.4541358 51.83,30.75 C50.34,33.11 48.39,35.14 47.26,37.71 Z" id="Shape" fill="#FEC108"/><path d="M44.26,37.71 C42.9803538,40.6319437 42.5006323,43.8415908 42.87,47.01 C43.0951005,49.0721875 43.5033794,51.1102353 44.09,53.1 C44.4066015,54.1331686 44.8045116,55.1396471 45.28,56.11 C45.8738098,57.0143772 46.4082676,57.956359 46.88,58.93 L24.78,58.99 C24.7,58.69 23.19,52.81 19.85,51.3 C19.23,51.52 18.57,51.74 17.9,51.97 C17.5823905,51.6995596 17.2290765,51.4741116 16.85,51.3 C14.44,52.14 11.5,53.11 9.27,53.67 C8.62676625,53.2742562 8.14753634,52.660132 7.92,51.94 C7.65806229,51.2276891 7.56229323,50.4649569 7.64,49.71 C7.87036773,48.9391054 7.94848689,48.1307419 7.87,47.33 C7.61,46.32 6.65,46.07 5.89,45.53 C5.27,45.09 6.38,43.68 6.38,43.68 C6.38,43.68 5.2,42.81 4.78,42.44 C4.34,42.07 4.96,41.45 5.51,40.28 C5.73694079,39.7719796 5.80323378,39.2067446 5.7,38.66 C5.49,37.59 3.87,37.19 3.07,36.59 C2.69,36.31 2.08,35.89 2.01,35.38 C1.9,34.67 2.74,33.67 3.15,33.17 C4.89454657,30.9217816 6.38996718,28.4908848 7.61,25.92 C7.77010631,25.6486227 7.86589137,25.3441631 7.89,25.03 C7.87,23.6 5.8,23.01 5.61,21.62 C5.58022555,21.2120559 5.65239212,20.803112 5.82,20.43 C6.39667192,19.2042401 6.89109856,17.9414478 7.3,16.65 C7.54612792,15.4653226 7.86336869,14.2965408 8.25,13.15 C9.08859812,10.8496676 10.3808376,8.74127689 12.05,6.95 C14.5,4.36 18.12,3.08 21.54,2.4 C24.5813721,1.73504394 27.6655865,1.28393999 30.77,1.05 C35.93,1.37 40.25,3.44 44.49,6.77 C47.1943357,8.78046229 49.1705976,11.6167315 50.12,14.85 C50.8445851,17.5214574 51.1846722,20.2825609 51.13,23.05 C51.110834,25.7831121 50.3129958,28.4541358 48.83,30.75 C47.34,33.11 45.39,35.14 44.26,37.71 Z" id="Shape" fill="#FFDC00"/><path d="M46,20 C46,24.418278 42.418278,28 38,28 C37.4967634,27.99946 36.9946448,27.9525956 36.5,27.86 C32.7235972,27.1440687 29.9901007,23.843667 29.9901007,20 C29.9901007,16.156333 32.7235972,12.8559313 36.5,12.14 C36.9946448,12.0474044 37.4967634,12.00054 38,12 C42.418278,12 46,15.581722 46,20 Z" id="Shape" fill="#BB193B"/><ellipse id="Oval" fill="#EF314C" cx="36.5" cy="20" rx="6.5" ry="7.86"/><path d="M58,8 C58,10.7614237 55.7614237,13 53,13 C52.4920766,12.9984453 51.986978,12.9243642 51.5,12.78 C49.4160564,12.1199968 47.9998679,10.185961 47.9998679,8 C47.9998679,5.81403904 49.4160564,3.88000321 51.5,3.22 C51.986978,3.07563582 52.4920766,3.00155469 53,3 C55.7614237,3 58,5.23857625 58,8 Z" id="Shape" fill="#0377BC"/><ellipse id="Oval" fill="#02A9F4" cx="51.5" cy="8" rx="3.5" ry="4.78"/><path d="M60,37 C60,39.209139 58.209139,41 56,41 C55.4847146,41.0039542 54.9741272,40.9018367 54.5,40.7 C52.9895658,40.0925605 52,38.6280031 52,37 C52,35.3719969 52.9895658,33.9074395 54.5,33.3 C54.9741272,33.0981633 55.4847146,32.9960458 56,33 C57.060866,33 58.0782816,33.4214274 58.8284271,34.1715729 C59.5785726,34.9217184 60,35.939134 60,37 Z" id="Shape" fill="#AD1457"/><ellipse id="Oval" fill="#E91E63" cx="54.5" cy="37" rx="2.5" ry="3.7"/><circle id="Oval" fill="#02A9F4" cx="34" cy="38" r="3"/><circle id="Oval" fill="#E91E63" cx="20" cy="28" r="5"/><circle id="Oval" fill="#02A9F4" cx="32" cy="5" r="4"/><path d="M52.78,30.019 C52.4384041,30.0186142 52.1206374,29.8438874 51.9373214,29.5556459 C51.7540055,29.2674044 51.7305046,28.9055303 51.875,28.596 C52.6878018,26.8536036 53.1158384,24.9566002 53.13,23.034 C53.16152,21.0668379 52.9967038,19.1014383 52.638,17.167 C52.5347228,16.6243802 52.8908802,16.1007772 53.4335,15.9975 C53.9761198,15.8942228 54.4997228,16.2503802 54.603,16.793 C54.9862987,18.8610072 55.1628354,20.9620275 55.13,23.065 C55.1118993,25.2691233 54.6201202,27.4435919 53.688,29.441 C53.5236795,29.794016 53.1693857,30.0195466 52.78,30.019 Z" id="Shape" fill="#000000"/><path d="M10.511,55 C8.86145152,54.9690108 7.4263849,53.8624583 6.977,52.275 C6.66129272,51.4143284 6.54869822,50.4923539 6.648,49.581 C6.682,49.318 6.739,49.05 6.798,48.781 C6.91941128,48.3932674 6.95356021,47.9834802 6.898,47.581 C6.817,47.267 6.586,47.11 5.998,46.774 C5.765,46.641 5.528,46.505 5.306,46.349 C4.98074391,46.1171358 4.76606133,45.7609003 4.713,45.365 C4.67448978,44.8623148 4.78770505,44.359639 5.038,43.922 C4.698,43.661 4.325,43.367 4.109,43.172 C3.185,42.417 3.798,41.333 4.164,40.686 C4.299,40.449 4.455,40.174 4.604,39.854 C4.74159405,39.5365137 4.78128854,39.1851827 4.718,38.845 C4.667,38.586 3.942,38.216 3.51,37.995 C3.14797678,37.8240989 2.80078202,37.6234083 2.472,37.395 C1.75470729,36.9902386 1.23115797,36.313086 1.02,35.517 C0.86,34.487 1.62,33.458 2.345,32.575 C4.05560327,30.369443 5.52247783,27.985227 6.72,25.464 C6.79697882,25.3281355 6.85421996,25.1820023 6.89,25.03 C6.89,24.755 6.565,24.439 6.076,23.991 C5.3374331,23.4449531 4.82021123,22.6511932 4.619,21.755 C4.56192334,21.1842424 4.65284498,20.6084053 4.883,20.083 C5.062,19.611 5.266,19.155 5.47,18.699 C5.82566937,17.9679886 6.11224857,17.2053397 6.326,16.421 L6.426,15.999 C6.65602311,14.9179422 6.95190812,13.8519547 7.312,12.807 C8.19404573,10.3778111 9.55841114,8.15217091 11.323,6.264 C13.559,3.9 16.836,2.316 21.345,1.419 C22.389,1.20833333 23.4376667,1.00833333 24.491,0.819 C25.0344482,0.720141043 25.555141,1.08055182 25.654,1.624 C25.7528589,2.16744819 25.3924482,2.68814102 24.849,2.787 C23.805,2.976 22.771,3.174 21.738,3.387 C17.704,4.187 14.689,5.622 12.776,7.644 C11.1973707,9.33409562 9.97690046,11.3260336 9.188,13.5 C8.85614522,14.4674021 8.58396707,15.4542566 8.373,16.455 L8.273,16.881 C8.03405513,17.788547 7.70821606,18.6709581 7.3,19.516 C7.111,19.937 6.923,20.357 6.76,20.786 C6.66364086,21.0015614 6.61063423,21.2339751 6.604,21.47 C6.649,21.796 7.03,22.146 7.434,22.517 C8.25904392,23.1003679 8.79170832,24.0118401 8.895,25.017 C8.87635428,25.4916102 8.74434083,25.9548574 8.51,26.368 C7.2548892,29.0038306 5.71756418,31.4957388 3.925,33.8 C3.163,34.727 3.005,35.1 3,35.247 C3.18518784,35.4261779 3.38598284,35.5884872 3.6,35.732 C3.86136569,35.9140729 4.13730073,36.0742824 4.425,36.211 C5.277,36.647 6.446,37.245 6.686,38.465 C6.82865982,39.2207273 6.73544627,40.0020454 6.419,40.703 C6.244,41.073 6.065,41.393 5.908,41.668 C5.859,41.755 5.808,41.851 5.758,41.938 C6.172,42.272 6.738,42.696 6.978,42.872 C7.19643076,43.0334948 7.33976225,43.2769033 7.37503403,43.5462515 C7.41030582,43.8155997 7.33448237,44.0877071 7.165,44.3 C7.01691908,44.4930204 6.88797779,44.6999963 6.78,44.918 L6.987,45.036 C7.87220583,45.4166291 8.54814599,46.1633751 8.839,47.082 C8.98564963,47.7876772 8.95576498,48.5186489 8.752,49.21 C8.706,49.419 8.658,49.627 8.632,49.837 C8.5729723,50.4418114 8.65336419,51.0521056 8.867,51.621 C9.0847514,52.5454575 9.99364951,53.1329967 10.926,52.952 C13.8403482,52.2516858 16.7117997,51.3835725 19.526,50.352 C20.0479091,50.1705745 20.6180744,50.4465909 20.7995,50.9685 C20.9809255,51.4904091 20.7049091,52.0605744 20.183,52.242 C17.2887222,53.3027843 14.334635,54.19265 11.336,54.907 C11.0649467,54.96639 10.7884727,54.9975562 10.511,55 Z M5.411,41.659 L5.443,41.688 C5.43377066,41.6766361 5.42374541,41.6659425 5.413,41.656 L5.411,41.659 Z" id="Shape" fill="#000000"/><path d="M44.619,5.73 C44.4287081,5.72982603 44.2424161,5.67536077 44.082,5.573 C42.5427839,4.57309008 40.8910506,3.75813208 39.161,3.145 C38.6393671,2.96329832 38.3637983,2.39313295 38.5455,1.8715 C38.7272017,1.34986705 39.2973671,1.07429832 39.819,1.256 C41.6958324,1.92024351 43.4878551,2.80333242 45.158,3.887 C45.5327788,4.12614366 45.7046757,4.58399726 45.579883,5.01070044 C45.4550902,5.43740363 45.0635769,5.73048342 44.619,5.73 Z" id="Shape" fill="#000000"/><path d="M24.78,60 C24.3194886,59.9998779 23.9186017,59.6852787 23.809,59.238 C23.421,57.657 21.88,53.314 19.438,52.211 C19.0639436,52.0419148 18.8312137,51.6614066 18.8510746,51.25139 C18.8709354,50.8413735 19.1393525,50.4851405 19.528,50.353 C20.57,49.999 21.515,49.669 22.258,49.409 C22.951,49.167 23.473,48.985 23.744,48.898 C27.901,47.583 28.744,46.082 28.72,45.053 C28.7138345,44.7872547 28.8137271,44.5299897 28.9976105,44.338038 C29.1814939,44.1460862 29.4342349,44.0352448 29.7,44.03 L29.724,44.03 C30.2670463,44.0298436 30.7109669,44.4631101 30.724,45.006 C30.782,47.498 28.64,49.449 24.356,50.806 C24.097,50.889 23.592,51.065 22.922,51.299 L22.022,51.614 C23.671106,53.4424992 24.8739191,55.6283742 25.536,58 L48.218,57.937 L48.151,57.837 C47.8630969,57.4195592 47.6041562,56.9828684 47.376,56.53 C46.879054,55.5216399 46.4640482,54.4749292 46.135,53.4 C45.5288621,51.3528819 45.1078369,49.2554538 44.877,47.133 C44.4836273,43.7875409 44.9896868,40.3977013 46.343,37.313 C46.5834189,36.7519168 46.8669333,36.2102972 47.191,35.693 C47.3803508,35.3893242 47.7173272,35.2097337 48.0749935,35.2218784 C48.4326598,35.2340231 48.7566779,35.436058 48.9249935,35.7518784 C49.093309,36.0676989 49.0803508,36.4493242 48.891,36.753 C48.6190587,37.1835644 48.3822909,37.6353627 48.183,38.104 C46.9685034,40.863928 46.5134787,43.8982317 46.865,46.893 C47.0808071,48.8965347 47.4767419,50.8765435 48.048,52.809 C48.3464759,53.7867332 48.7240564,54.7385437 49.177,55.655 C49.3680492,56.0298282 49.5842082,56.3913183 49.824,56.737 C50.2487748,57.3198965 50.589758,57.9594505 50.837,58.637 C50.9324293,58.9404437 50.8777998,59.2711879 50.6898608,59.5278273 C50.5019218,59.7844667 50.203095,59.9363833 49.885,59.937 L24.785,60.007 L24.78,60 Z" id="Shape" fill="#000000"/><path d="M11.194,18.567 C10.8884083,18.5671753 10.5995104,18.4276105 10.4097039,18.1881114 C10.2198975,17.9486123 10.1500194,17.635471 10.22,17.338 L10.32,16.905 C10.5131052,15.9892005 10.7602032,15.085623 11.06,14.199 C11.7555725,12.2746582 12.8327926,10.5106976 14.227,9.013 C15.7596426,7.53520641 17.6473921,6.47750189 19.708,5.942 C20.0522577,5.82944433 20.4304681,5.91183364 20.6967164,6.1573819 C20.9629648,6.40293017 21.0756292,6.7732514 20.9912433,7.12547458 C20.9068574,7.47769775 20.6386132,7.75676066 20.29,7.855 C18.5634442,8.29302828 16.9771231,9.16414541 15.681,10.386 C14.4733406,11.6864483 13.5401016,13.2169058 12.937,14.886 C12.6667971,15.6958165 12.4434278,16.5205136 12.268,17.356 L12.168,17.791 C12.0636686,18.2449301 11.6597655,18.5667256 11.194,18.567 Z" id="Shape" fill="#000000"/><circle id="Oval" fill="#000000" cx="10" cy="21" r="1"/><path d="M38,29 C33.0294373,29 29,24.9705627 29,20 C29,15.0294373 33.0294373,11 38,11 C42.9705627,11 47,15.0294373 47,20 C46.9944889,24.9682782 42.9682782,28.9944889 38,29 Z M38,13 C34.1340068,13 31,16.1340068 31,20 C31,23.8659932 34.1340068,27 38,27 C41.8659932,27 45,23.8659932 45,20 C44.9955914,16.1358343 41.8641657,13.0044086 38,13 Z" id="Shape" fill="#000000"/><path d="M34,21 C33.4477153,21 33,20.5522847 33,20 C33.0033061,17.2399468 35.2399468,15.0033061 38,15 C38.5522847,15 39,15.4477153 39,16 C39,16.5522847 38.5522847,17 38,17 C36.3431458,17 35,18.3431458 35,20 C35,20.5522847 34.5522847,21 34,21 Z" id="Shape" fill="#000000"/><path d="M53,14 C49.6862915,14 47,11.3137085 47,8 C47,4.6862915 49.6862915,2 53,2 C56.3137085,2 59,4.6862915 59,8 C58.9966926,11.3123376 56.3123376,13.9966926 53,14 Z M53,4 C50.790861,4 49,5.790861 49,8 C49,10.209139 50.790861,12 53,12 C55.209139,12 57,10.209139 57,8 C57,6.93913404 56.5785726,5.92171839 55.8284271,5.17157288 C55.0782816,4.42142736 54.060866,4 53,4 Z" id="Shape" fill="#000000"/><path d="M56,42 C53.2385763,42 51,39.7614237 51,37 C51,34.2385763 53.2385763,32 56,32 C58.7614237,32 61,34.2385763 61,37 C60.9966939,39.7600532 58.7600532,41.9966939 56,42 Z M56,34 C54.3431458,34 53,35.3431458 53,37 C53,38.6568542 54.3431458,40 56,40 C57.6568542,40 59,38.6568542 59,37 C59,35.3431458 57.6568542,34 56,34 Z" id="Shape" fill="#000000"/><path d="M34,42 C31.790861,42 30,40.209139 30,38 C30,35.790861 31.790861,34 34,34 C36.209139,34 38,35.790861 38,38 C38,40.209139 36.209139,42 34,42 Z M34,36 C32.8954305,36 32,36.8954305 32,38 C32,39.1045695 32.8954305,40 34,40 C35.1045695,40 36,39.1045695 36,38 C36,36.8954305 35.1045695,36 34,36 Z" id="Shape" fill="#000000"/><path d="M20,34 C16.6862915,34 14,31.3137085 14,28 C14,24.6862915 16.6862915,22 20,22 C23.3137085,22 26,24.6862915 26,28 C25.9966926,31.3123376 23.3123376,33.9966926 20,34 Z M20,24 C17.790861,24 16,25.790861 16,28 C16,30.209139 17.790861,32 20,32 C22.209139,32 24,30.209139 24,28 C24,25.790861 22.209139,24 20,24 Z" id="Shape" fill="#000000"/><path d="M32,10 C29.2385763,10 27,7.76142375 27,5 C27,2.23857625 29.2385763,5.07265313e-16 32,0 C34.7614237,-5.07265313e-16 37,2.23857625 37,5 C36.9966939,7.76005315 34.7600532,9.99669388 32,10 Z M32,2 C30.3431458,2 29,3.34314575 29,5 C29,6.65685425 30.3431458,8 32,8 C33.6568542,8 35,6.65685425 35,5 C35,3.34314575 33.6568542,2 32,2 Z" id="Shape" fill="#000000"/><path d="M35.03,13.57 C34.6217844,13.5694967 34.254856,13.3209195 34.103,12.942 L32.553,9.083 C32.4091801,8.74951203 32.4574725,8.36426472 32.6791572,8.07659429 C32.9008419,7.78892386 33.261066,7.64405747 33.6201931,7.69815074 C33.9793202,7.75224401 34.280889,7.99679246 34.408,8.337 L35.958,12.197 C36.0818959,12.505189 36.0446779,12.8547836 35.8586744,13.1299806 C35.6726709,13.4051775 35.3621606,13.570056 35.03,13.57 Z" id="Shape" fill="#000000"/><path d="M44.251,16 C43.8260033,16.0006249 43.4470392,15.7325525 43.3061098,15.3316018 C43.1651805,14.930651 43.2930767,14.4844234 43.625,14.219 L48.475,10.339 C48.9063344,9.99382206 49.535822,10.0636657 49.881,10.495 C50.2261779,10.9263344 50.1563344,11.555822 49.725,11.901 L44.875,15.781 C44.6978557,15.9226545 44.4778173,15.9998795 44.251,16 Z" id="Shape" fill="#000000"/><path d="M53.09,35.26 C52.8340525,35.2600781 52.5878179,35.1620137 52.402,34.986 L43.133,26.217 C42.8734465,25.9713799 42.764646,25.6059475 42.8475825,25.2583575 C42.9305191,24.9107676 43.1925926,24.6338274 43.5350825,24.5318575 C43.8775725,24.4298877 44.2484465,24.5183799 44.508,24.764 L53.777,33.533 C54.0748732,33.8143354 54.1709898,34.2489153 54.0195426,34.6296276 C53.8680954,35.0103398 53.4997292,35.2601486 53.09,35.26 Z" id="Shape" fill="#000000"/><path d="M34.651,36.07 C34.5780146,36.0698175 34.5052613,36.061771 34.434,36.046 C33.8951016,35.9265185 33.5549324,35.39299 33.674,34.854 L35.283,27.594 C35.3601694,27.2451302 35.6175967,26.9639305 35.9583115,26.8563262 C36.2990263,26.7487219 36.671266,26.8310606 36.9348115,27.0723262 C37.198357,27.3135918 37.3131694,27.6771302 37.236,28.026 L35.627,35.286 C35.5257158,35.743839 35.1199083,36.0698155 34.651,36.07 Z" id="Shape" fill="#000000"/><path d="M24.571,26.971 C24.0983905,26.9716086 23.6898817,26.6412681 23.591582,26.178994 C23.4932824,25.71672 23.7320341,25.2487437 24.164,25.057 L30.284,22.336 C30.7887883,22.1114962 31.3799962,22.3387117 31.6045,22.8435 C31.8290038,23.3482883 31.6017883,23.9394962 31.097,24.164 L24.977,26.884 C24.8493096,26.9412865 24.710952,26.9709346 24.571,26.971 Z" id="Shape" fill="#000000"/></g></g></svg>
