<?xml version="1.0" encoding="UTF-8"?>
<svg xmlns="http://www.w3.org/2000/svg" xmlns:xlink="http://www.w3.org/1999/xlink" width="512" height="512" viewBox="0 0 60 61" version="1.1"><!-- Generator: Sketch 51.3 (57544) - http://www.bohemiancoding.com/sketch --><title>039 - Inspiration</title><desc>Created with Sketch.</desc><defs/><g id="Page-1" stroke="none" stroke-width="1" fill="none" fill-rule="evenodd"><g id="039---Inspiration" transform="translate(-1.000000, -1.000000)" fill-rule="nonzero"><path d="M47.26,38.71 C45.9803538,41.6319437 45.5006323,44.8415908 45.87,48.01 C46.0951005,50.0721875 46.5033794,52.1102353 47.09,54.1 C47.4066015,55.1331686 47.8045116,56.1396471 48.28,57.11 C48.8738098,58.0143772 49.4082676,58.956359 49.88,59.93 L24.78,60 L24.78,59.99 C24.7,59.69 23.19,53.81 19.85,52.3 C19.23,52.52 18.57,52.74 17.9,52.97 C15.6789002,53.7404523 13.4191713,54.3946722 11.13,54.93 C10.4993821,55.0806865 9.83512584,54.9878335 9.27,54.67 C8.62676625,54.2742562 8.14753634,53.660132 7.92,52.94 C7.65806229,52.2276891 7.56229323,51.4649569 7.64,50.71 C7.87036773,49.9391054 7.94848689,49.1307419 7.87,48.33 C7.61,47.32 6.65,47.07 5.89,46.53 C5.27,46.09 6.38,44.68 6.38,44.68 C6.38,44.68 5.2,43.81 4.78,43.44 C4.34,43.07 4.96,42.45 5.51,41.28 C5.73694079,40.7719796 5.80323378,40.2067446 5.7,39.66 C5.49,38.59 3.87,38.19 3.07,37.59 C2.69,37.31 2.08,36.89 2.01,36.38 C1.9,35.67 2.74,34.67 3.15,34.17 C4.89454657,31.9217816 6.38996718,29.4908848 7.61,26.92 C7.77010631,26.6486227 7.86589137,26.3441631 7.89,26.03 C7.87,24.6 5.8,24.01 5.61,22.62 C5.58022555,22.2120559 5.65239212,21.803112 5.82,21.43 C6.39667192,20.2042401 6.89109856,18.9414478 7.3,17.65 C7.54612792,16.4653226 7.86336869,15.2965408 8.25,14.15 C9.08859812,11.8496676 10.3808376,9.74127689 12.05,7.95 C14.5,5.36 18.12,4.08 21.54,3.4 C24.5813721,2.73504394 27.6655865,2.28393999 30.77,2.05 C30.87,2.04 30.97,2.04 31.07,2.03 C37.47,1.71 42.53,3.88 47.49,7.77 C50.1943357,9.78046229 52.1705976,12.6167315 53.12,15.85 C53.8445851,18.5214574 54.1846722,21.2825609 54.13,24.05 C54.110834,26.7831121 53.3129958,29.4541358 51.83,31.75 C50.34,34.11 48.39,36.14 47.26,38.71 Z" id="Shape" fill="#0377BC"/><path d="M44.26,38.71 C42.9803538,41.6319437 42.5006323,44.8415908 42.87,48.01 C43.0951005,50.0721875 43.5033794,52.1102353 44.09,54.1 C44.4066015,55.1331686 44.8045116,56.1396471 45.28,57.11 C45.8738098,58.0143772 46.4082676,58.956359 46.88,59.93 L24.78,59.99 C24.7,59.69 23.19,53.81 19.85,52.3 C19.23,52.52 18.57,52.74 17.9,52.97 C17.5823905,52.6995596 17.2290765,52.4741116 16.85,52.3 C14.44,53.14 11.5,54.11 9.27,54.67 C8.62676625,54.2742562 8.14753634,53.660132 7.92,52.94 C7.65806229,52.2276891 7.56229323,51.4649569 7.64,50.71 C7.87036773,49.9391054 7.94848689,49.1307419 7.87,48.33 C7.61,47.32 6.65,47.07 5.89,46.53 C5.27,46.09 6.38,44.68 6.38,44.68 C6.38,44.68 5.2,43.81 4.78,43.44 C4.34,43.07 4.96,42.45 5.51,41.28 C5.73694079,40.7719796 5.80323378,40.2067446 5.7,39.66 C5.49,38.59 3.87,38.19 3.07,37.59 C2.69,37.31 2.08,36.89 2.01,36.38 C1.9,35.67 2.74,34.67 3.15,34.17 C4.89454657,31.9217816 6.38996718,29.4908848 7.61,26.92 C7.77010631,26.6486227 7.86589137,26.3441631 7.89,26.03 C7.87,24.6 5.8,24.01 5.61,22.62 C5.58022555,22.2120559 5.65239212,21.803112 5.82,21.43 C6.39667192,20.2042401 6.89109856,18.9414478 7.3,17.65 C7.54612792,16.4653226 7.86336869,15.2965408 8.25,14.15 C9.08859812,11.8496676 10.3808376,9.74127689 12.05,7.95 C14.5,5.36 18.12,4.08 21.54,3.4 C24.5813721,2.73504394 27.6655865,2.28393999 30.77,2.05 C35.93,2.37 40.25,4.44 44.49,7.77 C47.1943357,9.78046229 49.1705976,12.6167315 50.12,15.85 C50.8445851,18.5214574 51.1846722,21.2825609 51.13,24.05 C51.110834,26.7831121 50.3129958,29.4541358 48.83,31.75 C47.34,34.11 45.39,36.14 44.26,38.71 Z" id="Shape" fill="#02A9F4"/><path d="M32,21 C32,22.6568542 30.6568542,24 29,24 L23,24 C21.3431458,24 20,22.6568542 20,21 C20,20.9 20.01,20.79 20.02,20.69 C20.03,20.59 20.04,20.51 20.06,20.41 C20.0893821,20.2704471 20.1295015,20.1333726 20.18,20 C20.3220059,19.5768116 20.5618333,19.1930879 20.88,18.88 C20.9418382,18.8148429 21.0087116,18.7546568 21.08,18.7 C21.0281698,18.4702341 21.0013471,18.2355354 21,18 C21,16.3431458 22.3431458,15 24,15 C24.3807804,15.0005092 24.7578106,15.0752359 25.11,15.22 C25.3123252,14.4523605 25.8126744,13.7972271 26.5,13.4 C27.4285009,12.8639295 28.5725043,12.8641127 29.5008334,13.4004806 C30.4291625,13.9368486 31.0006877,14.9278596 31,16 C31.0024654,16.8325727 30.6539451,17.6276346 30.04,18.19 C30.8744933,18.490753 31.5285895,19.1521986 31.82,19.99 L31.88,20.17 C31.9610862,20.4391523 32.0015321,20.7189029 32,21 Z" id="Shape" fill="#CFD8DC"/><path d="M29,21 C29,22.6568542 27.6568542,24 26,24 L23,24 C21.3431458,24 20,22.6568542 20,21 C20,20.9 20.01,20.79 20.02,20.69 C20.03,20.59 20.04,20.51 20.06,20.41 C20.0893821,20.2704471 20.1295015,20.1333726 20.18,20 C20.3220059,19.5768116 20.5618333,19.1930879 20.88,18.88 C20.9418382,18.8148429 21.0087116,18.7546568 21.08,18.7 C21.0281698,18.4702341 21.0013471,18.2355354 21,18 C21,16.3431458 22.3431458,15 24,15 C24.3807804,15.0005092 24.7578106,15.0752359 25.11,15.22 C25.3123252,14.4523605 25.8126744,13.7972271 26.5,13.4 C27.4287987,13.9362419 28.0006876,14.927516 28,16 C28.0024654,16.8325727 27.6539451,17.6276346 27.04,18.19 C27.8744933,18.490753 28.5285895,19.1521986 28.82,19.99 L28.88,20.17 C28.9610862,20.4391523 29.0015321,20.7189029 29,21 Z" id="Shape" fill="#F5F5F5"/><path d="M60,36 C60,37.6568542 58.6568542,39 57,39 L51,39 C50.2044649,39.0000702 49.4416324,38.6834227 48.88,38.12 C48.5583469,37.8000287 48.3153093,37.4097994 48.17,36.98 C48.0569857,36.6656491 47.9994631,36.3340486 48,36 C47.9972658,34.7443167 48.7806643,33.6211791 49.96,33.19 C48.8676197,32.1815096 48.6842584,30.5227301 49.53,29.3 C49.7501553,28.9714139 50.0362051,28.6921748 50.37,28.48 L54.87,30.18 C54.8805275,30.1910257 54.8874959,30.2049626 54.89,30.22 C55.2421894,30.0752359 55.6192196,30.0005092 56,30 C57.6568542,30 59,31.3431458 59,33 C58.9986529,33.2355354 58.9718302,33.4702341 58.92,33.7 C58.9912884,33.7546568 59.0581618,33.8148429 59.12,33.88 C59.6834227,34.4416324 60.0000702,35.2044649 60,36 Z" id="Shape" fill="#CFD8DC"/><path d="M57,36 C57,37.6568542 55.6568542,39 54,39 L51,39 C50.2044649,39.0000702 49.4416324,38.6834227 48.88,38.12 C48.5583469,37.8000287 48.3153093,37.4097994 48.17,36.98 C48.0569857,36.6656491 47.9994631,36.3340486 48,36 C47.9972658,34.7443167 48.7806643,33.6211791 49.96,33.19 C48.8676197,32.1815096 48.6842584,30.5227301 49.53,29.3 L51.87,30.18 C51.8805275,30.1910257 51.8874959,30.2049626 51.89,30.22 C52.2421894,30.0752359 52.6192196,30.0005092 53,30 C54.6568542,30 56,31.3431458 56,33 C55.9986529,33.2355354 55.9718302,33.4702341 55.92,33.7 C55.9912884,33.7546568 56.0581618,33.8148429 56.12,33.88 C56.6834227,34.4416324 57.0000702,35.2044649 57,36 Z" id="Shape" fill="#F5F5F5"/><polygon id="Shape" fill="#FFDC00" points="60 2 45.86 23.21 37.37 24.63 38.79 16.14"/><polygon id="Shape" fill="#FFEB3A" points="60 2 38.79 16.14 28.89 7.66"/><polygon id="Shape" fill="#FDD834" points="60 2 54.34 33.11 51.87 30.22 45.86 23.21 55.87 8.19"/><polygon id="Shape" fill="#FFEB3A" points="55.87 8.19 51.87 30.22 45.86 23.21"/><path d="M10.511,56 C8.86145152,55.9690108 7.4263849,54.8624583 6.977,53.275 C6.66129272,52.4143284 6.54869822,51.4923539 6.648,50.581 C6.682,50.318 6.739,50.05 6.798,49.781 C6.91941128,49.3932674 6.95356021,48.9834802 6.898,48.581 C6.817,48.267 6.586,48.11 5.998,47.774 C5.765,47.641 5.528,47.505 5.306,47.349 C4.98074391,47.1171358 4.76606133,46.7609003 4.713,46.365 C4.67448978,45.8623148 4.78770505,45.359639 5.038,44.922 C4.698,44.661 4.325,44.367 4.109,44.172 C3.185,43.417 3.798,42.333 4.164,41.686 C4.299,41.449 4.455,41.174 4.604,40.854 C4.74159405,40.5365137 4.78128854,40.1851827 4.718,39.845 C4.667,39.586 3.942,39.216 3.51,38.995 C3.14797678,38.8240989 2.80078202,38.6234083 2.472,38.395 C1.75470729,37.9902386 1.23115797,37.313086 1.02,36.517 C0.86,35.487 1.62,34.458 2.345,33.575 C4.05560327,31.369443 5.52247783,28.985227 6.72,26.464 C6.79697882,26.3281355 6.85421996,26.1820023 6.89,26.03 C6.89,25.755 6.565,25.439 6.076,24.991 C5.3374331,24.4449531 4.82021123,23.6511932 4.619,22.755 C4.56192334,22.1842424 4.65284498,21.6084053 4.883,21.083 C5.062,20.611 5.266,20.155 5.47,19.699 C5.82566937,18.9679886 6.11224857,18.2053397 6.326,17.421 L6.426,16.999 C6.65602311,15.9179422 6.95190812,14.8519547 7.312,13.807 C8.19404573,11.3778111 9.55841114,9.15217091 11.323,7.264 C13.559,4.9 16.836,3.316 21.345,2.419 C24.5310865,1.72059835 27.7640828,1.25668862 31.018,1.031 C35.5180808,0.784914355 39.9920215,1.85891038 43.89,4.121 C44.2990312,4.33164946 44.5115501,4.79420496 44.4049312,5.24176735 C44.2983123,5.68932975 43.9000724,6.00638951 43.44,6.01 L43.43,6.01 C43.2567662,6.00985922 43.0865402,5.96471831 42.936,5.879 C39.3678595,3.77550366 35.2537234,2.78326469 31.119,3.029 C27.9639186,3.25014863 24.8292288,3.70168567 21.74,4.38 C17.704,5.18 14.689,6.615 12.776,8.637 C11.1965696,10.3291549 9.97605599,12.323545 9.188,14.5 C8.85614522,15.4674021 8.58396707,16.4542566 8.373,17.455 L8.273,17.881 C8.03405513,18.788547 7.70821606,19.6709581 7.3,20.516 C7.111,20.937 6.923,21.357 6.76,21.786 C6.66364086,22.0015614 6.61063423,22.2339751 6.604,22.47 C6.649,22.796 7.03,23.146 7.434,23.517 C8.25904392,24.1003679 8.79170832,25.0118401 8.895,26.017 C8.87635428,26.4916102 8.74434083,26.9548574 8.51,27.368 C7.2548892,30.0038306 5.71756418,32.4957388 3.925,34.8 C3.163,35.727 3.005,36.1 3,36.247 C3.18518784,36.4261779 3.38598284,36.5884872 3.6,36.732 C3.86136569,36.9140729 4.13730073,37.0742824 4.425,37.211 C5.277,37.647 6.446,38.245 6.686,39.465 C6.82865982,40.2207273 6.73544627,41.0020454 6.419,41.703 C6.244,42.073 6.065,42.393 5.908,42.668 C5.859,42.755 5.808,42.851 5.758,42.938 C6.172,43.272 6.738,43.696 6.978,43.872 C7.19643076,44.0334948 7.33976225,44.2769033 7.37503403,44.5462515 C7.41030582,44.8155997 7.33448237,45.0877071 7.165,45.3 C7.01691908,45.4930204 6.88797779,45.6999963 6.78,45.918 L6.987,46.036 C7.87220583,46.4166291 8.54814599,47.1633751 8.839,48.082 C8.98564963,48.7876772 8.95576498,49.5186489 8.752,50.21 C8.706,50.419 8.658,50.627 8.632,50.837 C8.57350619,51.4418023 8.65388223,52.0519761 8.867,52.621 C9.08611095,53.544498 9.99396616,54.1313632 10.926,53.952 C13.8403482,53.2516858 16.7117997,52.3835725 19.526,51.352 C20.0479091,51.1705745 20.6180744,51.4465909 20.7995,51.9685 C20.9809255,52.4904091 20.7049091,53.0605744 20.183,53.242 C17.2887222,54.3027843 14.334635,55.19265 11.336,55.907 C11.0649467,55.96639 10.7884727,55.9975562 10.511,56 Z M5.411,42.659 L5.443,42.688 C5.43377066,42.6766361 5.42374541,42.6659425 5.413,42.656 L5.411,42.659 Z" id="Shape" fill="#000000"/><path d="M24.78,61 C24.3194886,60.9998779 23.9186017,60.6852787 23.809,60.238 C23.421,58.657 21.88,54.314 19.438,53.211 C19.0639436,53.0419148 18.8312137,52.6614066 18.8510746,52.25139 C18.8709354,51.8413735 19.1393525,51.4851405 19.528,51.353 C20.57,50.999 21.515,50.669 22.258,50.409 C22.951,50.167 23.473,49.985 23.744,49.898 C27.901,48.583 28.744,47.082 28.72,46.053 C28.7138345,45.7872547 28.8137271,45.5299897 28.9976105,45.338038 C29.1814939,45.1460862 29.4342349,45.0352448 29.7,45.03 L29.724,45.03 C30.2670463,45.0298436 30.7109669,45.4631101 30.724,46.006 C30.782,48.498 28.64,50.449 24.356,51.806 C24.097,51.889 23.592,52.065 22.922,52.299 L22.022,52.614 C23.671106,54.4424992 24.8739191,56.6283742 25.536,59 L48.218,58.937 L48.151,58.837 C47.8630969,58.4195592 47.6041562,57.9828684 47.376,57.53 C46.879054,56.5216399 46.4640482,55.4749292 46.135,54.4 C45.5288621,52.3528819 45.1078369,50.2554538 44.877,48.133 C44.4837247,44.7875424 44.9897805,41.3977283 46.343,38.313 C46.623507,37.6717781 46.9496785,37.0515177 47.319,36.457 C47.61683,36.0052334 48.2199818,35.8723201 48.6801116,36.1570592 C49.1402414,36.4417984 49.2904136,37.0408863 49.019,37.509 C48.6991723,38.0209554 48.417413,38.5557299 48.176,39.109 C46.9634966,41.8673687 46.509527,44.8994711 46.861,47.892 C47.0768071,49.8955347 47.4727419,51.8755435 48.044,53.808 C48.3424759,54.7857332 48.7200564,55.7375437 49.173,56.654 C49.3640492,57.0288282 49.5802082,57.3903183 49.82,57.736 C50.2447748,58.3188965 50.585758,58.9584505 50.833,59.636 C50.9284293,59.9394437 50.8737998,60.2701879 50.6858608,60.5268273 C50.4979218,60.7834667 50.199095,60.9353833 49.881,60.936 L24.781,61.006 L24.78,61 Z" id="Shape" fill="#000000"/><path d="M11.194,19.567 C10.8884083,19.5671753 10.5995104,19.4276105 10.4097039,19.1881114 C10.2198975,18.9486123 10.1500194,18.635471 10.22,18.338 L10.32,17.905 C10.5131052,16.9892005 10.7602032,16.085623 11.06,15.199 C11.7555725,13.2746582 12.8327926,11.5106976 14.227,10.013 C15.7596426,8.53520641 17.6473921,7.47750189 19.708,6.942 C20.0522577,6.82944433 20.4304681,6.91183364 20.6967164,7.1573819 C20.9629648,7.40293017 21.0756292,7.7732514 20.9912433,8.12547458 C20.9068574,8.47769775 20.6386132,8.75676066 20.29,8.855 C18.5634442,9.29302828 16.9771231,10.1641454 15.681,11.386 C14.4733406,12.6864483 13.5401016,14.2169058 12.937,15.886 C12.6667971,16.6958165 12.4434278,17.5205136 12.268,18.356 L12.168,18.791 C12.0636686,19.2449301 11.6597655,19.5667256 11.194,19.567 Z" id="Shape" fill="#000000"/><circle id="Oval" fill="#000000" cx="10" cy="22" r="1"/><path d="M37.373,25.627 C37.0791987,25.6268648 36.8003218,25.4975352 36.6104223,25.2733537 C36.4205228,25.0491721 36.3388166,24.7528233 36.387,24.463 L37.8,15.978 C37.8451838,15.7053412 38.0011961,15.4635402 38.231,15.31 L59.445,1.168 C59.8416659,0.903039143 60.3702529,0.955138943 60.707557,1.29244303 C61.0448611,1.62974711 61.0969609,2.1583341 60.832,2.555 L46.689,23.768 C46.5356566,23.9981823 46.2938272,24.154575 46.021,24.2 L37.537,25.614 C37.4827794,25.622799 37.4279297,25.6271469 37.373,25.627 Z M39.7,16.734 L38.59,23.411 L45.266,22.3 L56.4,5.605 L39.7,16.734 Z" id="Shape" fill="#000000"/><path d="M38.787,17.142 C38.5484169,17.1423614 38.3176792,17.056811 38.137,16.901 L28.237,8.416 C27.9441761,8.16491557 27.8218706,7.76780081 27.9226945,7.39547865 C28.0235184,7.0231565 28.3294929,6.74201888 28.709,6.673 L59.821,1.016 C60.3644482,0.917141039 60.885141,1.27755181 60.984,1.821 C61.082859,2.36444819 60.7224482,2.88514102 60.179,2.984 L31.134,8.265 L39.434,15.383 C39.7515561,15.6554081 39.8659592,16.0967113 39.7207417,16.4890886 C39.5755242,16.8814659 39.2013874,17.1419621 38.783,17.142 L38.787,17.142 Z" id="Shape" fill="#000000"/><path d="M54.343,34.113 C54.0511983,34.1129773 53.7739629,33.9855002 53.584,33.764 L45.099,23.864 C44.8464803,23.5957497 44.7619051,23.2103822 44.878884,22.8610395 C44.9958629,22.5116968 45.2954472,22.2549667 45.6585844,22.1928717 C46.0217216,22.1307768 46.3895894,22.2733754 46.616,22.564 L53.734,30.869 L59.017,1.821 C59.0679407,1.45753284 59.3138946,1.15117752 59.6577602,1.02288185 C60.0016258,0.894586181 60.3881399,0.964968722 60.6647085,1.20624274 C60.9412771,1.44751676 61.0634523,1.82090679 60.983,2.179 L55.326,33.292 C55.2569518,33.6712635 54.9760494,33.9770658 54.604,34.078 C54.518993,34.1014645 54.4311857,34.1132394 54.343,34.113 Z" id="Shape" fill="#000000"/><path d="M37.373,25.627 C36.9686041,25.6269137 36.6040659,25.3832725 36.449322,25.0096546 C36.2945781,24.6360366 36.3800921,24.2059943 36.666,23.92 L43.736,16.849 C44.1283789,16.4700278 44.7520848,16.4754476 45.1378186,16.8611814 C45.5235524,17.2469152 45.5289722,17.8706211 45.15,18.263 L38.08,25.334 C37.8929469,25.5222061 37.6383486,25.6277185 37.373,25.627 Z" id="Shape" fill="#000000"/><path d="M25,39 C24.6212279,39 24.2749648,38.7859976 24.1055728,38.4472136 C23.9361808,38.1084296 23.9727368,37.7030176 24.2,37.4 C24.2,37.4 24.419,37.107 24.823,36.592 C25.0437901,36.3102961 25.3980959,36.1677811 25.7524537,36.218139 C26.1068115,36.2684969 26.407386,36.5040771 26.5409537,36.836139 C26.6745214,37.1682008 26.6207901,37.5462961 26.4,37.828 C26.017,38.315 25.809,38.594 25.8,38.6 C25.6111456,38.8518058 25.3147573,39 25,39 Z" id="Shape" fill="#000000"/><path d="M28.467,34.726 C28.076647,34.7260257 27.7219609,34.4989103 27.5586529,34.1443599 C27.3953448,33.7898095 27.4532705,33.3726426 27.707,33.076 C28.081,32.638 28.479,32.176 28.899,31.701 C29.2646125,31.2867864 29.8967864,31.2473875 30.311,31.613 C30.7252136,31.9786125 30.7646125,32.6107864 30.399,33.025 C29.985,33.493 29.599,33.945 29.227,34.375 C29.0371852,34.5975101 28.7594728,34.7257693 28.467,34.726 Z M32.7,30.044 C32.299364,30.0440411 31.9373748,29.8049654 31.780135,29.4364755 C31.6228952,29.0679855 31.7007599,28.6412181 31.978,28.352 C32.394,27.92 32.8193333,27.4866667 33.254,27.052 C33.5035645,26.7858656 33.8782617,26.6767674 34.2316845,26.7673337 C34.5851073,26.8579 34.8611582,27.1337557 34.9519745,27.4871143 C35.0427909,27.840473 34.9339578,28.2152473 34.668,28.465 C34.2433333,28.891 33.828,29.3156667 33.422,29.739 C33.2328614,29.9346751 32.9721424,30.0448126 32.7,30.044 Z" id="Shape" fill="#000000"/><path d="M37.246,25.657 C36.8303029,25.6571788 36.4578474,25.4001672 36.310499,25.0114609 C36.1631507,24.6227547 36.2716428,24.1834284 36.583,23.908 C36.8383333,23.6826667 37.094,23.46 37.35,23.24 C37.6215218,23.0077774 37.9963077,22.93805 38.3331793,23.0570835 C38.670051,23.176117 38.9178296,23.4658273 38.9831793,23.8170835 C39.0485291,24.1683396 38.9215219,24.5277774 38.65,24.76 C38.4013333,24.9726667 38.1543333,25.188 37.909,25.406 C37.7260671,25.5678236 37.4902362,25.657105 37.246,25.657 Z" id="Shape" fill="#000000"/><path d="M29,25 L23,25 C21.4246446,24.9990655 19.9965453,24.0735567 19.3522297,22.6359883 C18.7079141,21.1984198 18.9673882,19.5165437 20.015,18.34 C20.005,18.225 20,18.112 20,18 C20.0073677,16.8509363 20.5059878,15.7599235 21.3699943,15.0023652 C22.2340007,14.2448068 23.3808339,13.8930906 24.521,14.036 C25.6316536,12.1980072 27.9954725,11.5650025 29.8760132,12.6019864 C31.756554,13.6389703 32.4826868,15.9758626 31.521,17.896 C32.8345397,18.9636449 33.3338446,20.7425095 32.7677422,22.3377463 C32.2016397,23.932983 30.6927054,24.9991828 29,25 Z M24,16 C22.8954305,16 22,16.8954305 22,18 C22.0017009,18.1646109 22.0211467,18.3285585 22.058,18.489 C22.1423738,18.8805479 21.9849762,19.2846663 21.658,19.516 C21.64,19.532 21.613,19.56 21.59,19.584 C21.0172671,20.1552856 20.8450743,21.01533 21.1537179,21.7630795 C21.4623616,22.510829 22.1910567,22.9990198 23,23 L29,23 C29.9647894,22.9968044 30.7897751,22.3052995 30.9614562,21.3559026 C31.1331374,20.4065057 30.6025708,19.4698737 29.7,19.129 C29.371823,19.0091182 29.1300106,18.7266476 29.0621583,18.3839117 C28.994306,18.0411758 29.1102537,17.6878785 29.368,17.452 C29.774976,17.0794762 30.0046934,16.5517077 30,16 C29.9870885,15.0075522 29.248291,14.1747174 28.2644636,14.0435572 C27.2806362,13.9123969 26.3494586,14.5225967 26.077,15.477 C26.0030211,15.7550245 25.8128828,15.9877178 25.5551755,16.1156141 C25.2974682,16.2435104 24.9971615,16.2542178 24.731,16.145 C24.4989865,16.0499037 24.2507451,16.0006629 24,16 Z" id="Shape" fill="#000000"/><path d="M57,40 L51,40 C49.9388738,40.0020078 48.9209933,39.5796612 48.173,38.827 C47.7431734,38.3991405 47.4183434,37.8774957 47.224,37.303 C47.0743258,36.8849458 46.9985289,36.4440378 47,36 C47.0027771,34.7968468 47.5461732,33.6586521 48.48,32.9 C47.4895588,31.0627452 48.0782713,28.7727751 49.832,27.641 C50.1331749,27.4487911 50.5140142,27.4318577 50.8310594,27.5965783 C51.1481047,27.761299 51.3531891,28.0826488 51.3690594,28.4395783 C51.3849298,28.7965079 51.2091749,29.1347911 50.908,29.327 C50.3391141,29.6926627 49.9966053,30.3237391 50,31 C49.9960748,31.5521713 50.2269144,32.0800125 50.635,32.452 C50.8927463,32.6878785 51.008694,33.0411758 50.9408417,33.3839117 C50.8729894,33.7266476 50.631177,34.0091182 50.303,34.129 C49.5208943,34.4197925 49.0015098,35.1655857 49,36 C48.9993015,36.2162953 49.0358347,36.4310973 49.108,36.635 C49.204254,36.9283976 49.3683653,37.1949499 49.587,37.413 C49.9606971,37.7895323 50.4695047,38.0009053 51,38 L57,38 C57.8081708,37.9990202 58.5363294,37.5117478 58.8454705,36.7650398 C59.1546116,36.0183318 58.9839737,35.1589529 58.413,34.587 L58.331,34.508 C58.0283171,34.262425 57.8799629,33.8738057 57.942,33.489 C57.9788533,33.3285585 57.9982991,33.1646109 58,33 C58,31.8954305 57.1045695,31 56,31 C55.7495764,31.0006403 55.501658,31.0498843 55.27,31.145 C54.8939964,31.301751 54.4608106,31.2202328 54.1675048,30.9375293 C53.874199,30.6548258 53.7767946,30.2249333 53.9196023,29.8434159 C54.06241,29.4618985 54.4181534,29.201626 54.825,29.181 C55.2053166,29.0618381 55.6014532,29.0008163 56,29 C58.209139,29 60,30.790861 60,33 C60,33.113 59.995,33.226 59.985,33.341 C61.0319499,34.5175925 61.2910201,36.1990295 60.646789,37.6361935 C60.002558,39.0733575 58.5749515,39.9987155 57,40 Z" id="Shape" fill="#000000"/></g></g></svg>
