<?xml version="1.0" encoding="UTF-8"?>
<svg xmlns="http://www.w3.org/2000/svg" xmlns:xlink="http://www.w3.org/1999/xlink" width="512" height="512" viewBox="0 0 60 61" version="1.1"><!-- Generator: Sketch 51.3 (57544) - http://www.bohemiancoding.com/sketch --><title>040 - Law</title><desc>Created with Sketch.</desc><defs/><g id="Page-1" stroke="none" stroke-width="1" fill="none" fill-rule="evenodd"><g id="040---Law" transform="translate(-1.000000, -1.000000)" fill-rule="nonzero"><path d="M47.26,38.71 C45.9803538,41.6319437 45.5006323,44.8415908 45.87,48.01 C46.0951005,50.0721875 46.5033794,52.1102353 47.09,54.1 C47.4066015,55.1331686 47.8045116,56.1396471 48.28,57.11 C48.8738098,58.0143772 49.4082676,58.956359 49.88,59.93 L24.78,60 L24.78,59.99 C24.7,59.69 23.19,53.81 19.85,52.3 C19.23,52.52 18.57,52.74 17.9,52.97 C15.6789002,53.7404523 13.4191713,54.3946722 11.13,54.93 C10.4993821,55.0806865 9.83512584,54.9878335 9.27,54.67 C8.62676625,54.2742562 8.14753634,53.660132 7.92,52.94 C7.65806229,52.2276891 7.56229323,51.4649569 7.64,50.71 C7.87036773,49.9391054 7.94848689,49.1307419 7.87,48.33 C7.61,47.32 6.65,47.07 5.89,46.53 C5.27,46.09 6.38,44.68 6.38,44.68 C6.38,44.68 5.2,43.81 4.78,43.44 C4.34,43.07 4.96,42.45 5.51,41.28 C5.73694079,40.7719796 5.80323378,40.2067446 5.7,39.66 C5.49,38.59 3.87,38.19 3.07,37.59 C2.69,37.31 2.08,36.89 2.01,36.38 C1.9,35.67 2.74,34.67 3.15,34.17 C4.89454657,31.9217816 6.38996718,29.4908848 7.61,26.92 C7.77010631,26.6486227 7.86589137,26.3441631 7.89,26.03 C7.87,24.6 5.8,24.01 5.61,22.62 C5.58022555,22.2120559 5.65239212,21.803112 5.82,21.43 C6.39667192,20.2042401 6.89109856,18.9414478 7.3,17.65 C7.54612792,16.4653226 7.86336869,15.2965408 8.25,14.15 C9.08859812,11.8496676 10.3808376,9.74127689 12.05,7.95 C14.5,5.36 18.12,4.08 21.54,3.4 C24.5813721,2.73504394 27.6655865,2.28393999 30.77,2.05 C30.87,2.04 30.97,2.04 31.07,2.03 C37.47,1.71 42.53,3.88 47.49,7.77 C50.1943357,9.78046229 52.1705976,12.6167315 53.12,15.85 C53.8445851,18.5214574 54.1846722,21.2825609 54.13,24.05 C54.110834,26.7831121 53.3129958,29.4541358 51.83,31.75 C50.34,34.11 48.39,36.14 47.26,38.71 Z" id="Shape" fill="#6A1B9A"/><path d="M44.26,38.71 C42.9803538,41.6319437 42.5006323,44.8415908 42.87,48.01 C43.0951005,50.0721875 43.5033794,52.1102353 44.09,54.1 C44.4066015,55.1331686 44.8045116,56.1396471 45.28,57.11 C45.8738098,58.0143772 46.4082676,58.956359 46.88,59.93 L24.78,59.99 C24.7,59.69 23.19,53.81 19.85,52.3 C19.23,52.52 18.57,52.74 17.9,52.97 C17.5823905,52.6995596 17.2290765,52.4741116 16.85,52.3 C14.44,53.14 11.5,54.11 9.27,54.67 C8.62676625,54.2742562 8.14753634,53.660132 7.92,52.94 C7.65806229,52.2276891 7.56229323,51.4649569 7.64,50.71 C7.87036773,49.9391054 7.94848689,49.1307419 7.87,48.33 C7.61,47.32 6.65,47.07 5.89,46.53 C5.27,46.09 6.38,44.68 6.38,44.68 C6.38,44.68 5.2,43.81 4.78,43.44 C4.34,43.07 4.96,42.45 5.51,41.28 C5.73694079,40.7719796 5.80323378,40.2067446 5.7,39.66 C5.49,38.59 3.87,38.19 3.07,37.59 C2.69,37.31 2.08,36.89 2.01,36.38 C1.9,35.67 2.74,34.67 3.15,34.17 C4.89454657,31.9217816 6.38996718,29.4908848 7.61,26.92 C7.77010631,26.6486227 7.86589137,26.3441631 7.89,26.03 C7.87,24.6 5.8,24.01 5.61,22.62 C5.58022555,22.2120559 5.65239212,21.803112 5.82,21.43 C6.39667192,20.2042401 6.89109856,18.9414478 7.3,17.65 C7.54612792,16.4653226 7.86336869,15.2965408 8.25,14.15 C9.08859812,11.8496676 10.3808376,9.74127689 12.05,7.95 C14.5,5.36 18.12,4.08 21.54,3.4 C24.5813721,2.73504394 27.6655865,2.28393999 30.77,2.05 C35.93,2.37 40.25,4.44 44.49,7.77 C47.1943357,9.78046229 49.1705976,12.6167315 50.12,15.85 C50.8445851,18.5214574 51.1846722,21.2825609 51.13,24.05 C51.110834,26.7831121 50.3129958,29.4541358 48.83,31.75 C47.34,34.11 45.39,36.14 44.26,38.71 Z" id="Shape" fill="#9D27B0"/><rect id="Rectangle-path" fill="#FFDC00" x="41" y="11.23" width="4" height="20.77"/><path d="M49.97,35.96 C49.9808919,36.2320768 49.8803633,36.49683 49.6916334,36.693109 C49.5029035,36.8893881 49.2422947,37.0002179 48.97,37 L37.03,37 C36.7577053,37.0002179 36.4970965,36.8893881 36.3083666,36.693109 C36.1196367,36.49683 36.0191081,36.2320768 36.03,35.96 C36.05,35.55 36.07,35.14 36.1,35 C36.5752686,32.6716687 38.6236569,30.999515 41,31 L45,31 C47.3763431,30.999515 49.4247314,32.6716687 49.9,35 C49.93,35.14 49.95,35.55 49.97,35.96 Z" id="Shape" fill="#FEC108"/><path d="M46.97,35.96 C46.9808919,36.2320768 46.8803633,36.49683 46.6916334,36.693109 C46.5029035,36.8893881 46.2422947,37.0002179 45.97,37 L37.03,37 C36.7577053,37.0002179 36.4970965,36.8893881 36.3083666,36.693109 C36.1196367,36.49683 36.0191081,36.2320768 36.03,35.96 C36.05,35.55 36.07,35.14 36.1,35 C36.5752686,32.6716687 38.6236569,30.999515 41,31 L42,31 C44.3763431,30.999515 46.4247314,32.6716687 46.9,35 C46.93,35.14 46.95,35.55 46.97,35.96 Z" id="Shape" fill="#FFDC00"/><circle id="Oval" fill="#FFDC00" cx="43" cy="9" r="4"/><path d="M34.75,20 L27.25,20 C26.8362425,20.001099 26.501099,20.3362425 26.5,20.75 L26.5,22.25 C26.500552,24.3208391 28.1791609,25.999448 30.25,26 L31.75,26 C33.8208391,25.999448 35.499448,24.3208391 35.5,22.25 L35.5,20.75 C35.498901,20.3362425 35.1637575,20.001099 34.75,20 Z" id="Shape" fill="#FFEB3A"/><path d="M59.03,15.78 L50.97,15.78 C50.5281722,15.78 50.17,16.1381722 50.17,16.58 L50.17,18.19 C50.1693886,20.146133 51.5736018,21.8202251 53.5,22.16 C53.7277317,22.2006788 53.9586649,22.2207599 54.19,22.22 L55.81,22.22 C56.8777417,22.2194712 57.9014532,21.7943937 58.6555221,21.0384489 C59.4095911,20.2825041 59.8321239,19.2577397 59.83,18.19 L59.83,16.58 C59.83,16.1381722 59.4718278,15.78 59.03,15.78 Z" id="Shape" fill="#FDD834"/><path d="M56.03,15.78 L50.97,15.78 C50.5281722,15.78 50.17,16.1381722 50.17,16.58 L50.17,18.19 C50.1693886,20.146133 51.5736018,21.8202251 53.5,22.16 C55.4263982,21.8202251 56.8306114,20.146133 56.83,18.19 L56.83,16.58 C56.83,16.1381722 56.4718278,15.78 56.03,15.78 Z" id="Shape" fill="#FFEB3A"/><path d="M10.511,56 C8.86145152,55.9690108 7.4263849,54.8624583 6.977,53.275 C6.66129272,52.4143284 6.54869822,51.4923539 6.648,50.581 C6.682,50.318 6.739,50.05 6.798,49.781 C6.91941128,49.3932674 6.95356021,48.9834802 6.898,48.581 C6.817,48.267 6.586,48.11 5.998,47.774 C5.765,47.641 5.528,47.505 5.306,47.349 C4.98074391,47.1171358 4.76606133,46.7609003 4.713,46.365 C4.67448978,45.8623148 4.78770505,45.359639 5.038,44.922 C4.698,44.661 4.325,44.367 4.109,44.172 C3.185,43.417 3.798,42.333 4.164,41.686 C4.299,41.449 4.455,41.174 4.604,40.854 C4.74159405,40.5365137 4.78128854,40.1851827 4.718,39.845 C4.667,39.586 3.942,39.216 3.51,38.995 C3.14797678,38.8240989 2.80078202,38.6234083 2.472,38.395 C1.75470729,37.9902386 1.23115797,37.313086 1.02,36.517 C0.86,35.487 1.62,34.458 2.345,33.575 C4.05560327,31.369443 5.52247783,28.985227 6.72,26.464 C6.79697882,26.3281355 6.85421996,26.1820023 6.89,26.03 C6.89,25.755 6.565,25.439 6.076,24.991 C5.3374331,24.4449531 4.82021123,23.6511932 4.619,22.755 C4.56192334,22.1842424 4.65284498,21.6084053 4.883,21.083 C5.062,20.611 5.266,20.155 5.47,19.699 C5.82566937,18.9679886 6.11224857,18.2053397 6.326,17.421 L6.426,16.999 C6.65602311,15.9179422 6.95190812,14.8519547 7.312,13.807 C8.19404573,11.3778111 9.55841114,9.15217091 11.323,7.264 C13.559,4.9 16.836,3.316 21.345,2.419 C24.5310865,1.72059835 27.7640828,1.25668862 31.018,1.031 C33.9037234,0.863588577 36.7949227,1.24743015 39.537,2.162 C39.8764023,2.27543182 40.1295078,2.56131612 40.2009742,2.91196307 C40.2724405,3.26261001 40.1514102,3.62474797 39.8834742,3.86196308 C39.6155381,4.09917819 39.2414023,4.17543184 38.902,4.062 C36.3968507,3.22950648 33.7564718,2.87998967 31.121,3.032 C27.9653684,3.25249955 24.8300391,3.70302975 21.74,4.38 C17.704,5.18 14.689,6.615 12.776,8.637 C11.1965696,10.3291549 9.97605599,12.323545 9.188,14.5 C8.85614522,15.4674021 8.58396707,16.4542566 8.373,17.455 L8.273,17.881 C8.03405513,18.788547 7.70821606,19.6709581 7.3,20.516 C7.111,20.937 6.923,21.357 6.76,21.786 C6.66364086,22.0015614 6.61063423,22.2339751 6.604,22.47 C6.649,22.796 7.03,23.146 7.434,23.517 C8.25904392,24.1003679 8.79170832,25.0118401 8.895,26.017 C8.87635428,26.4916102 8.74434083,26.9548574 8.51,27.368 C7.2548892,30.0038306 5.71756418,32.4957388 3.925,34.8 C3.163,35.727 3.005,36.1 3,36.247 C3.18518784,36.4261779 3.38598284,36.5884872 3.6,36.732 C3.86136569,36.9140729 4.13730073,37.0742824 4.425,37.211 C5.277,37.647 6.446,38.245 6.686,39.465 C6.82865982,40.2207273 6.73544627,41.0020454 6.419,41.703 C6.244,42.073 6.065,42.393 5.908,42.668 C5.859,42.755 5.808,42.851 5.758,42.938 C6.172,43.272 6.738,43.696 6.978,43.872 C7.19643076,44.0334948 7.33976225,44.2769033 7.37503403,44.5462515 C7.41030582,44.8155997 7.33448237,45.0877071 7.165,45.3 C7.01691908,45.4930204 6.88797779,45.6999963 6.78,45.918 L6.987,46.037 C7.87230663,46.4169671 8.54836782,47.1634818 8.839,48.082 C8.98564963,48.7876772 8.95576498,49.5186489 8.752,50.21 C8.706,50.419 8.658,50.627 8.632,50.837 C8.5729723,51.4418114 8.65336419,52.0521056 8.867,52.621 C9.08565875,53.5448173 9.99386067,54.1319066 10.926,53.952 C13.8403482,53.2516858 16.7117997,52.3835725 19.526,51.352 C20.0479091,51.1705745 20.6180744,51.4465909 20.7995,51.9685 C20.9809255,52.4904091 20.7049091,53.0605744 20.183,53.242 C17.2887222,54.3027843 14.334635,55.19265 11.336,55.907 C11.0649467,55.96639 10.7884727,55.9975562 10.511,56 Z M5.411,42.659 L5.443,42.688 C5.43377066,42.6766361 5.42374541,42.6659425 5.413,42.656 L5.411,42.659 Z" id="Shape" fill="#000000"/><path d="M24.78,61 C24.3194886,60.9998779 23.9186017,60.6852787 23.809,60.238 C23.421,58.657 21.88,54.314 19.438,53.211 C19.0639436,53.0419148 18.8312137,52.6614066 18.8510746,52.25139 C18.8709354,51.8413735 19.1393525,51.4851405 19.528,51.353 C20.57,50.999 21.515,50.669 22.258,50.409 C22.951,50.167 23.473,49.985 23.744,49.898 C27.901,48.583 28.744,47.082 28.72,46.053 C28.7138345,45.7872547 28.8137271,45.5299897 28.9976105,45.338038 C29.1814939,45.1460862 29.4342349,45.0352448 29.7,45.03 C29.967917,45.0135651 30.2305734,45.1094625 30.4248748,45.294656 C30.6191761,45.4798494 30.7275633,45.7376031 30.724,46.006 C30.782,48.498 28.64,50.449 24.356,51.806 C24.097,51.889 23.592,52.065 22.922,52.299 L22.022,52.614 C23.671106,54.4424992 24.8739191,56.6283742 25.536,59 L48.218,58.937 L48.151,58.837 C47.8630969,58.4195592 47.6041562,57.9828684 47.376,57.53 C46.879054,56.5216399 46.4640482,55.4749292 46.135,54.4 C45.5288621,52.3528819 45.1078369,50.2554538 44.877,48.133 C44.5853662,45.6471632 44.7937861,43.1281051 45.49,40.724 C45.5830108,40.3732182 45.858763,40.1003577 46.2105058,40.0110499 C46.5622485,39.9217421 46.9347685,40.0300057 47.1838535,40.293929 C47.4329384,40.5578524 47.5194893,40.9360073 47.41,41.282 C46.7891332,43.427575 46.6031606,45.6755656 46.863,47.894 C47.0788986,49.8971926 47.4748323,51.8768612 48.046,53.809 C48.3444759,54.7867332 48.7220564,55.7385437 49.175,56.655 C49.3660492,57.0298282 49.5822082,57.3913183 49.822,57.737 C50.2467748,58.3198965 50.587758,58.9594505 50.835,59.637 C50.9304293,59.9404437 50.8757998,60.2711879 50.6878608,60.5278273 C50.4999218,60.7844667 50.201095,60.9363833 49.883,60.937 L24.783,61.007 L24.78,61 Z" id="Shape" fill="#000000"/><path d="M11.194,19.567 C10.8884083,19.5671753 10.5995104,19.4276105 10.4097039,19.1881114 C10.2198975,18.9486123 10.1500194,18.635471 10.22,18.338 L10.32,17.905 C10.5131052,16.9892005 10.7602032,16.085623 11.06,15.199 C11.7555725,13.2746582 12.8327926,11.5106976 14.227,10.013 C15.7596426,8.53520641 17.6473921,7.47750189 19.708,6.942 C20.0522577,6.82944433 20.4304681,6.91183364 20.6967164,7.1573819 C20.9629648,7.40293017 21.0756292,7.7732514 20.9912433,8.12547458 C20.9068574,8.47769775 20.6386132,8.75676066 20.29,8.855 C18.5634442,9.29302828 16.9771231,10.1641454 15.681,11.386 C14.4733406,12.6864483 13.5401016,14.2169058 12.937,15.886 C12.6667971,16.6958165 12.4434278,17.5205136 12.268,18.356 L12.168,18.791 C12.0636686,19.2449301 11.6597655,19.5667256 11.194,19.567 Z" id="Shape" fill="#000000"/><circle id="Oval" fill="#000000" cx="10" cy="22" r="1"/><path d="M43,13 C40.790861,13 39,11.209139 39,9 C39,6.790861 40.790861,5 43,5 C45.209139,5 47,6.790861 47,9 C47,10.060866 46.5785726,11.0782816 45.8284271,11.8284271 C45.0782816,12.5785726 44.060866,13 43,13 Z M43,7 C41.8954305,7 41,7.8954305 41,9 C41,10.1045695 41.8954305,11 43,11 C44.1045695,11 45,10.1045695 45,9 C45,7.8954305 44.1045695,7 43,7 Z" id="Shape" fill="#000000"/><path d="M45,32 L41,32 C40.4477153,32 40,31.5522847 40,31 L40,11.23 C40,10.6777153 40.4477153,10.23 41,10.23 C41.5522847,10.23 42,10.6777153 42,11.23 L42,30 L44,30 L44,11.23 C44,10.6777153 44.4477153,10.23 45,10.23 C45.5522847,10.23 46,10.6777153 46,11.23 L46,31 C46,31.5522847 45.5522847,32 45,32 Z" id="Shape" fill="#000000"/><path d="M50,38 L36,38 C35.4477153,38 35,37.5522847 35,37 L35,36 C35.0033074,32.6876624 37.6876624,30.0033074 41,30 L45,30 C48.3123376,30.0033074 50.9966926,32.6876624 51,36 L51,37 C51,37.5522847 50.5522847,38 50,38 Z M37,36 L49,36 C49,33.790861 47.209139,32 45,32 L41,32 C38.790861,32 37,33.790861 37,36 Z" id="Shape" fill="#000000"/><path d="M32,27 L30,27 C27.2399468,26.9966939 25.0033061,24.7600532 25,22 L25,20 C25,19.4477153 25.4477153,19 26,19 L36,19 C36.5522847,19 37,19.4477153 37,20 L37,22 C36.9966939,24.7600532 34.7600532,26.9966939 32,27 Z M27,21 L27,22 C27,23.6568542 28.3431458,25 30,25 L32,25 C33.6568542,25 35,23.6568542 35,22 L35,21 L27,21 Z" id="Shape" fill="#000000"/><path d="M36,21 C35.6366064,21.0003783 35.3016092,20.8035913 35.125,20.486 L31,13.059 L26.874,20.486 C26.6055896,20.9686969 25.9966969,21.1424104 25.514,20.874 C25.0313032,20.6055896 24.8575896,19.9966969 25.126,19.514 L30.126,10.514 C30.3175031,10.2170645 30.6466671,10.0376701 31,10.0376701 C31.3533329,10.0376701 31.6824969,10.2170645 31.874,10.514 L36.874,19.514 C37.0462384,19.823731 37.0416752,20.2014894 36.8620052,20.5069694 C36.6823353,20.8124495 36.3544,21.0000146 36,21 Z" id="Shape" fill="#000000"/><path d="M31,12 C30.480671,11.9985857 30.0488555,11.5998709 30.0061156,11.0823016 C29.9633758,10.5647324 30.3239378,10.1005846 30.836,10.014 L39.876,8.504 C40.4208289,8.41287303 40.936373,8.7806711 41.0275,9.3255 C41.118627,9.8703289 40.7508289,10.385873 40.206,10.477 L31.166,11.986 C31.1111914,11.9955808 31.055639,12.0002659 31,12 Z" id="Shape" fill="#000000"/><path d="M45.959,9.51 C45.4383052,9.50910895 45.0054309,9.10880305 44.9638976,8.58976663 C44.9223642,8.0707302 45.2860728,7.60668163 45.8,7.523 L54.84,6.014 C55.1964798,5.94548948 55.5620917,6.07553989 55.7952298,6.35378107 C56.0283678,6.63202226 56.0924151,7.01475342 55.9625654,7.353738 C55.8327156,7.69272259 55.5293631,7.93471938 55.17,7.986 L46.125,9.5 C46.070021,9.50774636 46.0145113,9.51109032 45.959,9.51 Z" id="Shape" fill="#000000"/><path d="M56,23 L54,23 C51.2399468,22.9966939 49.0033061,20.7600532 49,18 L49,16 C49,15.4477153 49.4477153,15 50,15 L60,15 C60.5522847,15 61,15.4477153 61,16 L61,18 C60.9966939,20.7600532 58.7600532,22.9966939 56,23 Z M51,17 L51,18 C51,19.6568542 52.3431458,21 54,21 L56,21 C57.6568542,21 59,19.6568542 59,18 L59,17 L51,17 Z" id="Shape" fill="#000000"/><path d="M60,17 C59.6366064,17.0003783 59.3016092,16.8035913 59.125,16.486 L55,9.059 L50.874,16.486 C50.6055896,16.9686969 49.9966969,17.1424104 49.514,16.874 C49.0313032,16.6055896 48.8575896,15.9966969 49.126,15.514 L54.126,6.514 C54.3175031,6.21706446 54.6466671,6.03767012 55,6.03767012 C55.3533329,6.03767012 55.6824969,6.21706446 55.874,6.514 L60.874,15.514 C61.0462384,15.823731 61.0416752,16.2014894 60.8620052,16.5069694 C60.6823353,16.8124495 60.3544,17.0000146 60,17 Z" id="Shape" fill="#000000"/></g></g></svg>
