<?xml version="1.0" encoding="UTF-8"?>
<svg xmlns="http://www.w3.org/2000/svg" xmlns:xlink="http://www.w3.org/1999/xlink" width="512" height="512" viewBox="0 0 60 61" version="1.1"><!-- Generator: Sketch 51.3 (57544) - http://www.bohemiancoding.com/sketch --><title>041 - Strategy</title><desc>Created with Sketch.</desc><defs/><g id="Page-1" stroke="none" stroke-width="1" fill="none" fill-rule="evenodd"><g id="041---Strategy" transform="translate(-1.000000, -1.000000)" fill-rule="nonzero"><path d="M47.26,38.71 C45.9803538,41.6319437 45.5006323,44.8415908 45.87,48.01 C46.0951005,50.0721875 46.5033794,52.1102353 47.09,54.1 C47.4048963,55.1305317 47.802868,56.1338218 48.28,57.1 C48.8718004,58.0090608 49.4061765,58.9542385 49.88,59.93 L24.78,60 L24.78,59.99 C24.7,59.69 23.19,53.81 19.85,52.3 C19.23,52.52 18.57,52.74 17.9,52.97 C15.6789002,53.7404523 13.4191713,54.3946722 11.13,54.93 C10.4993821,55.0806865 9.83512584,54.9878335 9.27,54.67 C8.62676625,54.2742562 8.14753634,53.660132 7.92,52.94 C7.65806229,52.2276891 7.56229323,51.4649569 7.64,50.71 C7.87036773,49.9391054 7.94848689,49.1307419 7.87,48.33 C7.61,47.32 6.65,47.07 5.89,46.53 C5.27,46.09 6.38,44.68 6.38,44.68 C6.38,44.68 5.2,43.81 4.78,43.43 C4.34,43.07 4.96,42.45 5.51,41.28 C5.73694079,40.7719796 5.80323378,40.2067446 5.7,39.66 C5.49,38.59 3.87,38.18 3.07,37.59 C2.69,37.31 2.08,36.89 2.01,36.38 C1.9,35.67 2.74,34.67 3.15,34.17 C4.89454657,31.9217816 6.38996718,29.4908848 7.61,26.92 C7.77010631,26.6486227 7.86589137,26.3441631 7.89,26.03 C7.87,24.6 5.8,24.01 5.61,22.62 C5.58022555,22.2120559 5.65239212,21.803112 5.82,21.43 C6.39667192,20.2042401 6.89109856,18.9414478 7.3,17.65 C7.54612792,16.4653226 7.86336869,15.2965408 8.25,14.15 C9.08859812,11.8496676 10.3808376,9.74127689 12.05,7.95 C14.5,5.36 18.12,4.08 21.54,3.4 C24.5813721,2.73504394 27.6655865,2.28393999 30.77,2.05 C30.87,2.04 30.97,2.04 31.07,2.03 C37.47,1.71 42.53,3.88 47.49,7.76 C50.1927291,9.77631392 52.1683037,12.6151058 53.12,15.85 C53.8451888,18.5213389 54.1852867,21.2825294 54.13,24.05 C54.110834,26.7831121 53.3129958,29.4541358 51.83,31.75 C50.34,34.1 48.39,36.14 47.26,38.71 Z" id="Shape" fill="#FEC108"/><path d="M44.26,38.71 C42.9803538,41.6319437 42.5006323,44.8415908 42.87,48.01 C43.0951005,50.0721875 43.5033794,52.1102353 44.09,54.1 C44.4048963,55.1305317 44.802868,56.1338218 45.28,57.1 C45.8718004,58.0090608 46.4061765,58.9542385 46.88,59.93 L24.78,59.99 C24.7,59.69 23.19,53.81 19.85,52.3 C19.23,52.52 18.57,52.74 17.9,52.97 C17.5823905,52.6995596 17.2290765,52.4741116 16.85,52.3 C14.44,53.14 11.5,54.11 9.27,54.67 C8.62676625,54.2742562 8.14753634,53.660132 7.92,52.94 C7.65806229,52.2276891 7.56229323,51.4649569 7.64,50.71 C7.87036773,49.9391054 7.94848689,49.1307419 7.87,48.33 C7.61,47.32 6.65,47.07 5.89,46.53 C5.27,46.09 6.38,44.68 6.38,44.68 C6.38,44.68 5.2,43.81 4.78,43.43 C4.34,43.07 4.96,42.45 5.51,41.28 C5.73694079,40.7719796 5.80323378,40.2067446 5.7,39.66 C5.49,38.59 3.87,38.18 3.07,37.59 C2.69,37.31 2.08,36.89 2.01,36.38 C1.9,35.67 2.74,34.67 3.15,34.17 C4.89454657,31.9217816 6.38996718,29.4908848 7.61,26.92 C7.77010631,26.6486227 7.86589137,26.3441631 7.89,26.03 C7.87,24.6 5.8,24.01 5.61,22.62 C5.58022555,22.2120559 5.65239212,21.803112 5.82,21.43 C6.39667192,20.2042401 6.89109856,18.9414478 7.3,17.65 C7.54612792,16.4653226 7.86336869,15.2965408 8.25,14.15 C9.08859812,11.8496676 10.3808376,9.74127689 12.05,7.95 C14.5,5.36 18.12,4.08 21.54,3.4 C24.5813721,2.73504394 27.6655865,2.28393999 30.77,2.05 C35.93,2.37 40.25,4.44 44.49,7.76 C47.1927291,9.77631392 49.1683037,12.6151058 50.12,15.85 C50.8451888,18.5213389 51.1852867,21.2825294 51.13,24.05 C51.110834,26.7831121 50.3129958,29.4541358 48.83,31.75 C47.34,34.1 45.39,36.14 44.26,38.71 Z" id="Shape" fill="#FFDC00"/><path d="M39.92,24.85 L44.41,29.41 C44.7889954,29.7893736 45.3037549,30.0017569 45.84,30 L57.878,30 C58.884191,30.0243255 59.7644027,29.3270531 59.971,28.342 C60.0701234,27.7606631 59.908291,27.1651681 59.5285632,26.7139643 C59.1488353,26.2627606 58.5897249,26.0016102 58,26 L47.52,26 C46.9837549,26.0017569 46.4689954,25.7893736 46.09,25.41 L42.73,22 L39.92,19.15 L35.42,14.59 C35.0410046,14.2106264 34.5262451,13.9982431 33.99,14 L27.5,14 C27.2238576,14 27,13.7761424 27,13.5 L27,12 L21.624,15.584 C21.4849224,15.6767366 21.4013878,15.8328395 21.4013878,16 C21.4013878,16.1671605 21.4849224,16.3232634 21.624,16.416 L27,20 L27,18.5 C27,18.2238576 27.2238576,18 27.5,18 L32.31,18 C32.8462451,17.9982431 33.3610046,18.2106264 33.74,18.59 L37.1,22 L39.92,24.85 Z" id="Shape" fill="#3F51B5"/><path d="M59.97,28.34 C59.7695779,29.3278744 58.8876005,30.0283923 57.88,30 L54.88,30 C55.8876005,30.0283923 56.7695779,29.3278744 56.97,28.34 C57.0702551,27.7588486 56.9089142,27.163075 56.5291038,26.7119297 C56.1492934,26.2607843 55.5897355,26.0002619 55,26 L58,26 C58.5897355,26.0002619 59.1492934,26.2607843 59.5291038,26.7119297 C59.9089142,27.163075 60.0702551,27.7588486 59.97,28.34 Z" id="Shape" fill="#283593"/><path d="M60,16 C60,17.1045695 59.1045695,18 58,18 L47.516,18 C46.9811924,18.0000983 46.4687023,18.2143861 46.093,18.595 L35.417,29.405 C35.0412977,29.7856139 34.5288076,29.9999017 33.994,30 L27.5,30 C27.2238576,30 27,30.2238576 27,30.5 L27,32 L21.624,28.416 C21.4849224,28.3232634 21.4013878,28.1671605 21.4013878,28 C21.4013878,27.8328395 21.4849224,27.6767366 21.624,27.584 L27,24 L27,25.5 C27,25.7761424 27.2238576,26 27.5,26 L32.314,26 C32.8488076,25.9999017 33.3612977,25.7856139 33.737,25.405 L44.413,14.6 C44.7878727,14.2175496 45.3004667,14.0014172 45.836,14 L58,14 C59.1045695,14 60,14.8954305 60,16 Z" id="Shape" fill="#02A9F4"/><path d="M59.971,16.34 C59.7705779,17.3278744 58.8886005,18.0283923 57.881,18 L54.881,18 C55.8886005,18.0283923 56.7705779,17.3278744 56.971,16.34 C57.0712848,15.7586763 56.9098175,15.1627314 56.5297817,14.7115473 C56.1497459,14.2603633 55.5899104,13.999967 55,14 L58,14 C58.5899104,13.999967 59.1497459,14.2603633 59.5297817,14.7115473 C59.9098175,15.1627314 60.0712848,15.7586763 59.971,16.34 Z" id="Shape" fill="#0377BC"/><path d="M53.972,27 C53.9197716,26.9999456 53.8676223,26.9959341 53.816,26.988 C53.2703644,26.9029124 52.8969888,26.3916475 52.982,25.846 C53.073545,25.246528 53.1229993,24.6413812 53.13,24.035 C53.1610206,22.074151 52.9962033,20.1151031 52.638,18.187 C52.5347228,17.6443802 52.8908802,17.1207772 53.4335,17.0175 C53.9761198,16.9142228 54.4997228,17.2703802 54.603,17.813 C54.9892961,19.8738626 55.1658638,21.9685523 55.13,24.065 C55.1214778,24.7644935 55.064004,25.4625327 54.958,26.154 C54.8822265,26.6401729 54.4640413,26.9989809 53.972,27 Z" id="Shape" fill="#000000"/><path d="M10.51,56 C8.86087491,55.9693546 7.42607373,54.8630997 6.977,53.276 C6.66180736,52.4152066 6.54956038,51.4932757 6.649,50.582 C6.682,50.319 6.74,50.051 6.798,49.782 C6.91954191,49.394293 6.95369328,48.9844766 6.898,48.582 C6.817,48.269 6.586,48.112 5.998,47.775 C5.764,47.643 5.527,47.506 5.305,47.35 C4.97965396,47.1182191 4.76494566,46.7619409 4.712,46.366 C4.67373033,45.8632085 4.78729954,45.3605079 5.038,44.923 C4.697,44.662 4.324,44.368 4.108,44.173 C3.183,43.418 3.796,42.335 4.163,41.688 C4.297,41.45 4.454,41.175 4.603,40.855 C4.74079442,40.5375542 4.78015866,40.1860629 4.716,39.846 C4.666,39.587 3.941,39.217 3.508,38.995 C3.1463953,38.8239078 2.79954825,38.6232248 2.471,38.395 C1.75491391,37.9888454 1.2318101,37.312269 1.019,36.517 C0.86,35.488 1.619,34.46 2.342,33.578 C4.05403523,31.3721378 5.52194066,28.9872106 6.72,26.465 C6.79591349,26.3282777 6.85309275,26.1819661 6.89,26.03 C6.89,25.755 6.565,25.439 6.076,24.99 C5.33769985,24.4445732 4.82048502,23.6515341 4.619,22.756 C4.56294901,22.1857868 4.65311901,21.6106949 4.881,21.085 C5.062,20.611 5.265,20.156 5.468,19.701 C5.82542646,18.9701756 6.11271352,18.2070903 6.326,17.422 L6.426,17.001 C6.65555173,15.9194988 6.95144435,14.8531499 7.312,13.808 C8.19432433,11.378648 9.55864935,9.15273351 11.323,7.264 C13.559,4.9 16.837,3.315 21.345,2.42 C24.5306187,1.72068008 27.7633257,1.25642965 31.017,1.031 C37.188,0.731 42.459,2.555 48.106,6.972 C50.3983029,8.69688461 52.2125369,10.9781866 53.377,13.6 C53.5291805,13.9295956 53.4907825,14.3157785 53.2766802,14.6089549 C53.0625779,14.9021312 52.7064037,15.0562469 52.3461273,15.0116028 C51.9858509,14.9669588 51.6780669,14.7305679 51.542,14.394 C50.5084687,12.0786814 48.9014885,10.0652237 46.873,8.544 C41.633,4.444 36.773,2.734 31.12,3.026 C27.9645439,3.24841474 24.8295411,3.70095139 21.74,4.38 C17.705,5.18 14.69,6.614 12.776,8.638 C11.1968387,10.3299783 9.97635163,12.3239847 9.188,14.5 C8.85614578,15.4680809 8.58396833,16.4556008 8.373,17.457 L8.273,17.882 C8.03223001,18.7907608 7.70437906,19.6741835 7.294,20.52 C7.105,20.94 6.917,21.36 6.754,21.788 C6.65929553,22.0047674 6.60669376,22.2375727 6.599,22.474 C6.643,22.798 7.025,23.148 7.429,23.519 C8.25473785,24.1017313 8.78760356,25.013548 8.89,26.019 C8.87135419,26.4934269 8.73897076,26.956426 8.504,27.369 C7.25068748,30.0044113 5.71502777,32.4960025 3.924,34.8 C3.162,35.731 3,36.1 3,36.249 C3.18487123,36.4285354 3.38569965,36.5908717 3.6,36.734 C3.86055542,36.9167929 4.13622025,37.0770398 4.424,37.213 C5.278,37.649 6.447,38.247 6.687,39.468 C6.83018406,40.2237094 6.73695159,41.0051861 6.42,41.706 C6.246,42.076 6.066,42.396 5.909,42.672 C5.86,42.758 5.809,42.854 5.759,42.941 C6.173,43.274 6.739,43.698 6.979,43.875 C7.19653158,44.03646 7.33924808,44.2792679 7.37449617,44.5478696 C7.40974425,44.8164714 7.33450751,45.0878809 7.166,45.3 C7.01745938,45.4932548 6.88817724,45.7005751 6.78,45.919 C6.849,45.959 6.918,45.999 6.988,46.038 C7.87185426,46.4188803 8.54685539,47.1646653 8.838,48.082 C8.98493295,48.7875986 8.95539225,49.5185593 8.752,50.21 C8.706,50.419 8.659,50.628 8.632,50.838 C8.57354163,51.4428017 8.65391662,52.0529676 8.867,52.622 C9.08790242,53.5437662 9.99373144,54.1296061 10.925,53.953 C13.8394025,53.252886 16.7108654,52.3847693 19.525,51.353 C19.8643892,51.2281245 20.2447562,51.2962158 20.5197476,51.5310745 C20.7947391,51.7659332 20.921504,52.1309622 20.8512673,52.4857096 C20.7810305,52.840457 20.5247368,53.1296438 20.181,53.242 C17.2871037,54.3039279 14.3329485,55.1938141 11.334,55.907 C11.0633364,55.9667008 10.7871614,55.9978711 10.51,56 Z M5.41,42.659 L5.442,42.688 L5.41,42.659 Z" id="Shape" fill="#000000"/><path d="M24.78,61 C24.3191958,60.9997651 23.9182106,60.6846758 23.809,60.237 C23.42,58.657 21.879,54.314 19.438,53.211 C19.0639436,53.0419148 18.8312137,52.6614066 18.8510746,52.25139 C18.8709354,51.8413735 19.1393525,51.4851405 19.528,51.353 C20.588,50.993 21.546,50.653 22.295,50.396 C22.969,50.161 23.476,49.984 23.743,49.896 C27.902,48.582 28.743,47.081 28.721,46.052 C28.7126042,45.6947344 28.8954452,45.3601283 29.2006484,45.1742246 C29.5058516,44.9883208 29.8870495,44.9793627 30.2006484,45.1507246 C30.5142474,45.3220864 30.7126043,45.6477344 30.721,46.005 C30.779,48.498 28.637,50.448 24.352,51.805 C24.1,51.887 23.608,52.059 22.952,52.286 L22.013,52.614 C23.6649911,54.4418569 24.8708746,56.6277134 25.536,59 L48.218,58.937 C48.196,58.902 48.174,58.869 48.152,58.837 C47.8634115,58.4198081 47.604122,57.9830924 47.376,57.53 C46.8787683,56.5217667 46.4637532,55.4750326 46.135,54.4 C45.5282586,52.3533716 45.1072219,50.2562207 44.877,48.134 C44.4831254,44.7888591 44.989208,41.3992101 46.343,38.315 C47.1412654,36.6445823 48.1290959,35.0715695 49.287,33.627 C49.866,32.846 50.466,32.038 50.987,31.219 C51.3224228,30.6956465 51.6230713,30.1508046 51.887,29.588 C52.0296684,29.2537699 52.3424277,29.0232459 52.7039083,28.9858852 C53.0653889,28.9485246 53.4186847,29.110209 53.6266953,29.4081948 C53.834706,29.7061807 53.8646855,30.0935577 53.705,30.42 C53.4059966,31.0644403 53.0642342,31.688165 52.682,32.287 C52.122,33.171 51.5,34.009 50.899,34.818 C49.8329359,36.1434733 48.9213887,37.5861134 48.182,39.118 C46.9705327,41.8759508 46.5172619,44.9073072 46.869,47.899 C47.0847001,49.9024701 47.4802962,51.8824587 48.051,53.815 C48.3506169,54.792333 48.7281614,55.7440529 49.18,56.661 C49.3720142,57.0355003 49.5884826,57.396949 49.828,57.743 C50.2527748,58.3258965 50.593758,58.9654505 50.841,59.643 C50.9364293,59.9464437 50.8817998,60.2771879 50.6938608,60.5338273 C50.5059218,60.7904667 50.207095,60.9423833 49.889,60.943 L24.789,61.013 L24.78,61 Z" id="Shape" fill="#000000"/><path d="M11.194,19.566 C10.8888508,19.5660321 10.6003862,19.4267344 10.4106651,19.1877325 C10.2209439,18.9487305 10.1507311,18.6361832 10.22,18.339 L10.32,17.906 C10.5128846,16.9898189 10.7599859,16.0858957 11.06,15.199 C11.7551734,13.2744666 12.8324398,11.51043 14.227,10.013 C15.7596052,8.53568316 17.6469016,7.47803948 19.707,6.942 C20.2355365,6.78073285 20.7947329,7.07846349 20.956,7.607 C21.1172671,8.13553651 20.8195365,8.69473285 20.291,8.856 C18.5638104,9.29316632 16.9769597,10.1643852 15.681,11.387 C14.4727696,12.6870159 13.5394558,14.2175962 12.937,15.887 C12.6670637,16.6958805 12.4436976,17.5195638 12.268,18.354 L12.168,18.791 C12.0632698,19.2445327 11.6594679,19.565833 11.194,19.566 Z" id="Shape" fill="#000000"/><circle id="Oval" fill="#000000" cx="10" cy="22" r="1"/><path d="M27,33 C26.8025206,32.9996876 26.6095007,32.9412599 26.445,32.832 L20.445,28.832 C20.1668449,28.6465268 19.9997756,28.3343211 19.9997756,28 C19.9997756,27.6656789 20.1668449,27.3534732 20.445,27.168 L26.445,23.168 C26.7518587,22.9632678 27.1465085,22.9440981 27.471765,23.118126 C27.7970216,23.292154 28.0000552,23.6311131 28,24 L28,25 L32.314,25 C32.5821004,25.0002169 32.8388967,24.8920163 33.026,24.7 L43.7,13.892 C44.2652045,13.3226776 45.0337648,13.0017245 45.836,13 L58,13 C59.6568542,13 61,14.3431458 61,16 C61,17.6568542 59.6568542,19 58,19 L47.516,19 C47.2484069,19.0008423 46.9923148,19.1088981 46.805,19.3 L36.129,30.108 C35.56404,30.6770773 34.7958883,30.99801 33.994,31 L28,31 L28,32 C28,32.5522847 27.5522847,33 27,33 Z M22.8,28 L26,30.132 L26,30 C26,29.4477153 26.4477153,29 27,29 L33.994,29 C34.2619402,28.9994252 34.5184421,28.8913486 34.706,28.7 L45.381,17.892 C45.9457715,17.3226427 46.714045,17.0016591 47.516,17 L58,17 C58.5522847,17 59,16.5522847 59,16 C59,15.4477153 58.5522847,15 58,15 L45.836,15 C45.5678535,14.9995544 45.3109719,15.1077911 45.124,15.3 L34.449,26.108 C33.88404,26.6770773 33.1158883,26.99801 32.314,27 L27,27 C26.4477153,27 26,26.5522847 26,26 L26,25.868 L22.8,28 Z" id="Shape" fill="#000000"/><path d="M37.1,23 C36.8320598,22.9994252 36.5755579,22.8913486 36.388,22.7 L33.028,19.29 C32.8366382,19.1018758 32.5783357,18.9975475 32.31,19 L28,19 L28,20 C28.0000552,20.3688869 27.7970216,20.707846 27.471765,20.881874 C27.1465085,21.0559019 26.7518587,21.0367322 26.445,20.832 L20.445,16.832 C20.1668449,16.6465268 19.9997756,16.3343211 19.9997756,16 C19.9997756,15.6656789 20.1668449,15.3534732 20.445,15.168 L26.445,11.168 C26.7518587,10.9632678 27.1465085,10.9440981 27.471765,11.118126 C27.7970216,11.292154 28.0000552,11.6311131 28,12 L28,13 L33.99,13 C34.7917029,12.9969677 35.5612666,13.3149484 36.127,13.883 L40.627,18.448 C41.01498,18.8412267 41.0107267,19.47452 40.6175,19.8625 C40.2242733,20.25048 39.59098,20.2462267 39.203,19.853 L34.703,15.292 C34.5133151,15.1041846 34.256935,14.9991875 33.99,15 L27,15 C26.4477153,15 26,14.5522847 26,14 L26,13.868 L22.8,16 L26,18.132 L26,18 C26,17.4477153 26.4477153,17 27,17 L32.31,17 C33.1115585,16.9967031 33.8811017,17.3143152 34.447,17.882 L37.812,21.3 C38.0935788,21.587266 38.1756232,22.0152854 38.0202285,22.3863122 C37.8648337,22.7573389 37.5022532,22.9991389 37.1,23 Z" id="Shape" fill="#000000"/><path d="M58,31 L45.84,31 C45.0382971,31.0030323 44.2687334,30.6850516 43.703,30.117 L39.203,25.551 C38.9290654,25.301582 38.8154695,24.9211563 38.9077937,24.5623726 C39.0001179,24.2035889 39.2832317,23.9252467 39.6435327,23.8390337 C40.0038337,23.7528207 40.3822738,23.8728659 40.627,24.151 L45.118,28.712 C45.3104839,28.9006664 45.5705083,29.004388 45.84,29 L58,29 C58.5522847,29 59,28.5522847 59,28 C59,27.4477153 58.5522847,27 58,27 L47.52,27 C46.7184415,27.0032969 45.9488983,26.6856848 45.383,26.118 L42.018,22.7 C41.7440654,22.450582 41.6304695,22.0701563 41.7227937,21.7113726 C41.8151179,21.3525889 42.0982317,21.0742467 42.4585327,20.9880337 C42.8188337,20.9018207 43.1972738,21.0218659 43.442,21.3 L46.802,24.71 C46.9933618,24.8981242 47.2516643,25.0024525 47.52,25 L58,25 C59.6568542,25 61,26.3431458 61,28 C61,29.6568542 59.6568542,31 58,31 Z" id="Shape" fill="#000000"/></g></g></svg>
