<?xml version="1.0" encoding="UTF-8"?>
<svg xmlns="http://www.w3.org/2000/svg" xmlns:xlink="http://www.w3.org/1999/xlink" width="512" height="512" viewBox="0 0 60 61" version="1.1"><!-- Generator: Sketch 51.3 (57544) - http://www.bohemiancoding.com/sketch --><title>042 - Goal</title><desc>Created with Sketch.</desc><defs/><g id="Page-1" stroke="none" stroke-width="1" fill="none" fill-rule="evenodd"><g id="042---Goal" transform="translate(-1.000000, 0.000000)" fill-rule="nonzero"><path d="M47.26,37.71 C45.9803538,40.6319437 45.5006323,43.8415908 45.87,47.01 C46.0951005,49.0721875 46.5033794,51.1102353 47.09,53.1 C47.4048963,54.1305317 47.802868,55.1338218 48.28,56.1 C48.8718004,57.0090608 49.4061765,57.9542385 49.88,58.93 L24.78,59 L24.78,58.99 C24.7,58.69 23.19,52.81 19.85,51.3 C19.23,51.52 18.57,51.74 17.9,51.97 C15.6789002,52.7404523 13.4191713,53.3946722 11.13,53.93 C10.4993821,54.0806865 9.83512584,53.9878335 9.27,53.67 C8.62676625,53.2742562 8.14753634,52.660132 7.92,51.94 C7.65806229,51.2276891 7.56229323,50.4649569 7.64,49.71 C7.87036773,48.9391054 7.94848689,48.1307419 7.87,47.33 C7.61,46.32 6.65,46.07 5.89,45.53 C5.27,45.09 6.38,43.68 6.38,43.68 C6.38,43.68 5.2,42.81 4.78,42.43 C4.34,42.07 4.96,41.45 5.51,40.28 C5.73694079,39.7719796 5.80323378,39.2067446 5.7,38.66 C5.49,37.59 3.87,37.18 3.07,36.59 C2.69,36.31 2.08,35.89 2.01,35.38 C1.9,34.67 2.74,33.67 3.15,33.17 C4.89454657,30.9217816 6.38996718,28.4908848 7.61,25.92 C7.77010631,25.6486227 7.86589137,25.3441631 7.89,25.03 C7.87,23.6 5.8,23.01 5.61,21.62 C5.58022555,21.2120559 5.65239212,20.803112 5.82,20.43 C6.39667192,19.2042401 6.89109856,17.9414478 7.3,16.65 C7.54612792,15.4653226 7.86336869,14.2965408 8.25,13.15 C9.08859812,10.8496676 10.3808376,8.74127689 12.05,6.95 C14.5,4.36 18.12,3.08 21.54,2.4 C24.5813721,1.73504394 27.6655865,1.28393999 30.77,1.05 C30.87,1.04 30.97,1.04 31.07,1.03 C37.47,0.71 42.53,2.88 47.49,6.76 C50.1927291,8.77631392 52.1683037,11.6151058 53.12,14.85 C53.8451888,17.5213389 54.1852867,20.2825294 54.13,23.05 C54.110834,25.7831121 53.3129958,28.4541358 51.83,30.75 C50.34,33.1 48.39,35.14 47.26,37.71 Z" id="Shape" fill="#FEC108"/><path d="M44.26,37.71 C42.9803538,40.6319437 42.5006323,43.8415908 42.87,47.01 C43.0951005,49.0721875 43.5033794,51.1102353 44.09,53.1 C44.4048963,54.1305317 44.802868,55.1338218 45.28,56.1 C45.8718004,57.0090608 46.4061765,57.9542385 46.88,58.93 L24.78,58.99 C24.7,58.69 23.19,52.81 19.85,51.3 C19.23,51.52 18.57,51.74 17.9,51.97 C17.5823905,51.6995596 17.2290765,51.4741116 16.85,51.3 C14.44,52.14 11.5,53.11 9.27,53.67 C8.62676625,53.2742562 8.14753634,52.660132 7.92,51.94 C7.65806229,51.2276891 7.56229323,50.4649569 7.64,49.71 C7.87036773,48.9391054 7.94848689,48.1307419 7.87,47.33 C7.61,46.32 6.65,46.07 5.89,45.53 C5.27,45.09 6.38,43.68 6.38,43.68 C6.38,43.68 5.2,42.81 4.78,42.43 C4.34,42.07 4.96,41.45 5.51,40.28 C5.73694079,39.7719796 5.80323378,39.2067446 5.7,38.66 C5.49,37.59 3.87,37.18 3.07,36.59 C2.69,36.31 2.08,35.89 2.01,35.38 C1.9,34.67 2.74,33.67 3.15,33.17 C4.89454657,30.9217816 6.38996718,28.4908848 7.61,25.92 C7.77010631,25.6486227 7.86589137,25.3441631 7.89,25.03 C7.87,23.6 5.8,23.01 5.61,21.62 C5.58022555,21.2120559 5.65239212,20.803112 5.82,20.43 C6.39667192,19.2042401 6.89109856,17.9414478 7.3,16.65 C7.54612792,15.4653226 7.86336869,14.2965408 8.25,13.15 C9.08859812,10.8496676 10.3808376,8.74127689 12.05,6.95 C14.5,4.36 18.12,3.08 21.54,2.4 C24.5813721,1.73504394 27.6655865,1.28393999 30.77,1.05 C35.93,1.37 40.25,3.44 44.49,6.76 C47.1927291,8.77631392 49.1683037,11.6151058 50.12,14.85 C50.8451888,17.5213389 51.1852867,20.2825294 51.13,23.05 C51.110834,25.7831121 50.3129958,28.4541358 48.83,30.75 C47.34,33.1 45.39,35.14 44.26,37.71 Z" id="Shape" fill="#FFDC00"/><path d="M51,12 L51,26 L33,26 L33,10 L49,10 C50.1032019,10.0032948 50.9967052,10.8967981 51,12 Z" id="Shape" fill="#C81E1E"/><path d="M48,12 L48,26 L33,26 L33,10 L46,10 C47.1032019,10.0032948 47.9967052,10.8967981 48,12 Z" id="Shape" fill="#F44335"/><path d="M60,17 L60,31 C60,31.5522847 59.5522847,32 59,32 L42,32 L51,26 L51,16 L59,16 C59.5522847,16 60,16.4477153 60,17 Z" id="Shape" fill="#C81E1E"/><path d="M57,17 L57,31 C57,31.5522847 56.5522847,32 56,32 L42,32 L51,26 L51,16 L56,16 C56.5522847,16 57,16.4477153 57,17 Z" id="Shape" fill="#F44335"/><polygon id="Shape" fill="#C81E1E" points="51 26 42 32 42 26"/><rect id="Rectangle-path" fill="#F5F5F5" x="29" y="6.23" width="4" height="31.77"/><path d="M39,41 L39,43 L23,43 L23,41 C23,38.790861 24.790861,37 27,37 L35,37 C37.209139,37 39,38.790861 39,41 Z" id="Shape" fill="#37474F"/><path d="M36,41 L36,43 L23,43 L23,41 C23,38.790861 24.790861,37 27,37 L32,37 C34.209139,37 36,38.790861 36,41 Z" id="Shape" fill="#7F8E94"/><circle id="Oval" fill="#7F8E94" cx="31" cy="4" r="4"/><path d="M10.51,55 C8.86087491,54.9693546 7.42607373,53.8630997 6.977,52.276 C6.66180736,51.4152066 6.54956038,50.4932757 6.649,49.582 C6.682,49.319 6.74,49.051 6.798,48.782 C6.91954191,48.394293 6.95369328,47.9844766 6.898,47.582 C6.817,47.269 6.586,47.112 5.998,46.775 C5.764,46.643 5.527,46.506 5.305,46.35 C4.97965396,46.1182191 4.76494566,45.7619409 4.712,45.366 C4.67373033,44.8632085 4.78729954,44.3605079 5.038,43.923 C4.697,43.662 4.324,43.368 4.108,43.173 C3.183,42.418 3.796,41.335 4.163,40.688 C4.297,40.45 4.454,40.175 4.603,39.855 C4.74079442,39.5375542 4.78015866,39.1860629 4.716,38.846 C4.666,38.587 3.941,38.217 3.508,37.995 C3.1463953,37.8239078 2.79954825,37.6232248 2.471,37.395 C1.75491391,36.9888454 1.2318101,36.312269 1.019,35.517 C0.86,34.488 1.619,33.46 2.342,32.578 C4.05403523,30.3721378 5.52194066,27.9872106 6.72,25.465 C6.79591349,25.3282777 6.85309275,25.1819661 6.89,25.03 C6.89,24.755 6.565,24.439 6.076,23.99 C5.33769985,23.4445732 4.82048502,22.6515341 4.619,21.756 C4.56294901,21.1857868 4.65311901,20.6106949 4.881,20.085 C5.062,19.611 5.265,19.156 5.468,18.701 C5.82542646,17.9701756 6.11271352,17.2070903 6.326,16.422 L6.426,16.001 C6.65555173,14.9194988 6.95144435,13.8531499 7.312,12.808 C8.19432433,10.378648 9.55864935,8.15273351 11.323,6.264 C13.559,3.9 16.837,2.315 21.345,1.42 C22.276,1.229 23.213,1.048 24.15,0.877 C24.5044367,0.805476309 24.8698769,0.93085793 25.105746,1.20491407 C25.3416151,1.47897021 25.4111697,1.85900869 25.287654,2.19883936 C25.1641384,2.53867004 24.8667936,2.78535444 24.51,2.844 C23.586,3.01333333 22.663,3.192 21.741,3.38 C17.705,4.18 14.69,5.614 12.776,7.638 C11.1968387,9.32997827 9.97635163,11.3239847 9.188,13.5 C8.85614578,14.4680809 8.58396833,15.4556008 8.373,16.457 L8.273,16.882 C8.03223001,17.7907608 7.70437906,18.6741835 7.294,19.52 C7.105,19.94 6.917,20.36 6.754,20.788 C6.65929553,21.0047674 6.60669376,21.2375727 6.599,21.474 C6.643,21.798 7.025,22.148 7.429,22.519 C8.25473785,23.1017313 8.78760356,24.013548 8.89,25.019 C8.87135419,25.4934269 8.73897076,25.956426 8.504,26.369 C7.25068748,29.0044113 5.71502777,31.4960025 3.924,33.8 C3.162,34.731 3,35.1 3,35.249 C3.18487123,35.4285354 3.38569965,35.5908717 3.6,35.734 C3.86055542,35.9167929 4.13622025,36.0770398 4.424,36.213 C5.278,36.649 6.447,37.247 6.687,38.468 C6.83018406,39.2237094 6.73695159,40.0051861 6.42,40.706 C6.246,41.076 6.066,41.396 5.909,41.672 C5.86,41.758 5.809,41.854 5.759,41.941 C6.173,42.274 6.739,42.698 6.979,42.875 C7.19653158,43.03646 7.33924808,43.2792679 7.37449617,43.5478696 C7.40974425,43.8164714 7.33450751,44.0878809 7.166,44.3 C7.01745938,44.4932548 6.88817724,44.7005751 6.78,44.919 C6.849,44.959 6.918,44.999 6.988,45.038 C7.87185426,45.4188803 8.54685539,46.1646653 8.838,47.082 C8.98493295,47.7875986 8.95539225,48.5185593 8.752,49.21 C8.706,49.419 8.659,49.628 8.632,49.838 C8.57354163,50.4428017 8.65391662,51.0529676 8.867,51.622 C9.08834925,52.5434498 9.99383671,53.1290688 10.925,52.953 C13.8394025,52.252886 16.7108654,51.3847693 19.525,50.353 C19.8643892,50.2281245 20.2447562,50.2962158 20.5197476,50.5310745 C20.7947391,50.7659332 20.921504,51.1309622 20.8512673,51.4857096 C20.7810305,51.840457 20.5247368,52.1296438 20.181,52.242 C17.2871037,53.3039279 14.3329485,54.1938141 11.334,54.907 C11.0633364,54.9667008 10.7871614,54.9978711 10.51,55 Z M5.41,41.659 L5.442,41.688 L5.41,41.659 Z" id="Shape" fill="#000000"/><path d="M46.479,7 C46.2670248,7.00065259 46.0604829,6.93297416 45.89,6.807 C43.3457574,4.85661074 40.4405834,3.42917381 37.342,2.607 C36.9745518,2.54222031 36.6737282,2.2782624 36.5617318,1.92235318 C36.4497354,1.56644395 36.5451955,1.1777847 36.8093337,0.914259406 C37.0734719,0.650734117 37.4623519,0.556177101 37.818,0.669 C41.1711559,1.54944114 44.3160146,3.08719954 47.07,5.193 C47.4191714,5.44851869 47.5644065,5.89961593 47.4299052,6.31085775 C47.2954038,6.72209958 46.9116782,7.00019414 46.479,7 Z" id="Shape" fill="#000000"/><path d="M24.78,60 C24.3191958,59.9997651 23.9182106,59.6846758 23.809,59.237 C23.42,57.657 21.879,53.314 19.438,52.211 C19.0639436,52.0419148 18.8312137,51.6614066 18.8510746,51.25139 C18.8709354,50.8413735 19.1393525,50.4851405 19.528,50.353 C20.588,49.993 21.546,49.653 22.295,49.396 C22.969,49.161 23.476,48.984 23.743,48.896 C24.587,48.629 27.143,47.822 28.235,46.391 C28.5737594,45.9636856 29.1924117,45.8865518 29.6257246,46.2176039 C30.0590374,46.5486561 30.1472386,47.1658276 29.824,47.605 C28.345,49.539 25.339,50.489 24.351,50.805 C24.099,50.887 23.607,51.059 22.951,51.286 L22.012,51.614 C23.6643514,53.4417572 24.8705815,55.6276215 25.536,58 L48.218,57.937 C48.196,57.902 48.174,57.869 48.152,57.837 C47.8634115,57.4198081 47.604122,56.9830924 47.376,56.53 C46.8787683,55.5217667 46.4637532,54.4750326 46.135,53.4 C45.5282586,51.3533716 45.1072219,49.2562207 44.877,47.134 C44.4887019,43.7889479 44.9945673,40.4007541 46.343,37.315 C46.6212366,36.685275 46.9419766,36.0752008 47.303,35.489 C47.5874266,35.0154158 48.2019158,34.8620734 48.6755,35.1465 C49.1490842,35.4309266 49.3024266,36.0454158 49.018,36.519 C48.702474,37.0306616 48.421514,37.5628487 48.177,38.112 C46.9697784,40.8736516 46.5163733,43.9060137 46.863,46.9 C47.0791617,48.9017589 47.4747523,50.8800463 48.045,52.811 C48.3446169,53.788333 48.7221614,54.7400529 49.174,55.657 C49.3660142,56.0315003 49.5824826,56.392949 49.822,56.739 C50.2467748,57.3218965 50.587758,57.9614505 50.835,58.639 C50.9304293,58.9424437 50.8757998,59.2731879 50.6878608,59.5298273 C50.4999218,59.7864667 50.201095,59.9383833 49.883,59.939 L24.783,60.009 L24.78,60 Z" id="Shape" fill="#000000"/><path d="M11.194,18.566 C10.8888508,18.5660321 10.6003862,18.4267344 10.4106651,18.1877325 C10.2209439,17.9487305 10.1507311,17.6361832 10.22,17.339 L10.32,16.906 C10.5128846,15.9898189 10.7599859,15.0858957 11.06,14.199 C11.7551734,12.2744666 12.8324398,10.51043 14.227,9.013 C15.7596052,7.53568316 17.6469016,6.47803948 19.707,5.942 C20.2355365,5.78073285 20.7947329,6.07846349 20.956,6.607 C21.1172671,7.13553651 20.8195365,7.69473285 20.291,7.856 C18.5638104,8.29316632 16.9769597,9.16438523 15.681,10.387 C14.4727696,11.6870159 13.5394558,13.2175962 12.937,14.887 C12.6670637,15.6958805 12.4436976,16.5195638 12.268,17.354 L12.168,17.791 C12.0632698,18.2445327 11.6594679,18.565833 11.194,18.566 Z" id="Shape" fill="#000000"/><circle id="Oval" fill="#000000" cx="10" cy="21" r="1"/><path d="M51,27 L33,27 C32.4477153,27 32,26.5522847 32,26 L32,10 C32,9.44771525 32.4477153,9 33,9 L49,9 C50.6568542,9 52,10.3431458 52,12 L52,26 C52,26.5522847 51.5522847,27 51,27 Z M34,25 L50,25 L50,12 C50,11.4477153 49.5522847,11 49,11 L34,11 L34,25 Z" id="Shape" fill="#000000"/><path d="M59,33 L42,33 C41.4477153,33 41,32.5522847 41,32 L41,26 C41,25.4477153 41.4477153,25 42,25 C42.5522847,25 43,25.4477153 43,26 L43,31 L59,31 L59,17 L51,17 C50.4477153,17 50,16.5522847 50,16 C50,15.4477153 50.4477153,15 51,15 L59,15 C60.1045695,15 61,15.8954305 61,17 L61,31 C61,32.1045695 60.1045695,33 59,33 Z" id="Shape" fill="#000000"/><path d="M37.59,2.64 L37.58,2.64 C37.0286982,2.63724346 36.5836248,2.18881946 36.5850031,1.63751249 C36.5863814,1.08620553 37.0336913,0.6400125 37.585,0.6400125 C38.1363087,0.6400125 38.5836186,1.08620553 38.5849969,1.63751249 C38.5863752,2.18881946 38.1413018,2.63724346 37.59,2.64 Z" id="Shape" fill="#000000"/><path d="M31,8 C28.790861,8 27,6.209139 27,4 C27,1.790861 28.790861,4.05812251e-16 31,0 C33.209139,-4.05812251e-16 35,1.790861 35,4 C35,5.06086596 34.5785726,6.07828161 33.8284271,6.82842712 C33.0782816,7.57857264 32.060866,8 31,8 Z M31,2 C29.8954305,2 29,2.8954305 29,4 C29,5.1045695 29.8954305,6 31,6 C32.1045695,6 33,5.1045695 33,4 C33,3.46956702 32.7892863,2.96085919 32.4142136,2.58578644 C32.0391408,2.21071368 31.530433,2 31,2 Z" id="Shape" fill="#000000"/><path d="M33,38 L29,38 C28.4477153,38 28,37.5522847 28,37 L28,6.23 C28,5.67771525 28.4477153,5.23 29,5.23 C29.5522847,5.23 30,5.67771525 30,6.23 L30,36 L32,36 L32,6.23 C32,5.67771525 32.4477153,5.23 33,5.23 C33.5522847,5.23 34,5.67771525 34,6.23 L34,37 C34,37.5522847 33.5522847,38 33,38 Z" id="Shape" fill="#000000"/><path d="M39,44 L23,44 C22.4477153,44 22,43.5522847 22,43 L22,41 C22.0033061,38.2399468 24.2399468,36.0033061 27,36 L35,36 C37.7600532,36.0033061 39.9966939,38.2399468 40,41 L40,43 C40,43.2652165 39.8946432,43.5195704 39.7071068,43.7071068 C39.5195704,43.8946432 39.2652165,44 39,44 Z M24,42 L38,42 L38,41 C38,39.3431458 36.6568542,38 35,38 L27,38 C25.3431458,38 24,39.3431458 24,41 L24,42 Z" id="Shape" fill="#000000"/><path d="M39,44 L23,44 C22.4477153,44 22,43.5522847 22,43 L22,41 C22.0033061,38.2399468 24.2399468,36.0033061 27,36 L35,36 C37.7600532,36.0033061 39.9966939,38.2399468 40,41 L40,43 C40,43.2652165 39.8946432,43.5195704 39.7071068,43.7071068 C39.5195704,43.8946432 39.2652165,44 39,44 Z M24,42 L38,42 L38,41 C38,39.3431458 36.6568542,38 35,38 L27,38 C25.3431458,38 24,39.3431458 24,41 L24,42 Z" id="Shape" fill="#000000"/><path d="M42,33 C41.5591231,33.0005403 41.1699098,32.7122901 41.0418732,32.290414 C40.9138366,31.868538 41.0771898,31.4125875 41.444,31.168 L50.444,25.168 C50.9035009,24.861482 51.524482,24.9854991 51.831,25.445 C52.137518,25.9045009 52.0135009,26.525482 51.554,26.832 L42.554,32.832 C42.3899366,32.9413972 42.1971916,32.999847 42,33 Z" id="Shape" fill="#000000"/><path d="M42,15 L33,15 C32.4477153,15 32,14.5522847 32,14 C32,13.4477153 32.4477153,13 33,13 L42,13 C42.5522847,13 43,13.4477153 43,14 C43,14.5522847 42.5522847,15 42,15 Z" id="Shape" fill="#000000"/><path d="M39,19 L33,19 C32.4477153,19 32,18.5522847 32,18 C32,17.4477153 32.4477153,17 33,17 L39,17 C39.5522847,17 40,17.4477153 40,18 C40,18.5522847 39.5522847,19 39,19 Z" id="Shape" fill="#000000"/><path d="M36,23 L33,23 C32.4477153,23 32,22.5522847 32,22 C32,21.4477153 32.4477153,21 33,21 L36,21 C36.5522847,21 37,21.4477153 37,22 C37,22.5522847 36.5522847,23 36,23 Z" id="Shape" fill="#000000"/></g></g></svg>
