<?xml version="1.0" encoding="UTF-8"?>
<svg xmlns="http://www.w3.org/2000/svg" xmlns:xlink="http://www.w3.org/1999/xlink" width="512" height="512" viewBox="0 0 61 61" version="1.1"><!-- Generator: Sketch 51.3 (57544) - http://www.bohemiancoding.com/sketch --><title>043 - Opportunities</title><desc>Created with Sketch.</desc><defs/><g id="Page-1" stroke="none" stroke-width="1" fill="none" fill-rule="evenodd"><g id="043---Opportunities" transform="translate(-1.000000, 0.000000)" fill-rule="nonzero"><path d="M47.26,37.71 C45.9803538,40.6319437 45.5006323,43.8415908 45.87,47.01 C46.0951005,49.0721875 46.5033794,51.1102353 47.09,53.1 C47.4048963,54.1305317 47.802868,55.1338218 48.28,56.1 C48.8718004,57.0090608 49.4061765,57.9542385 49.88,58.93 L24.78,59 L24.78,58.99 C24.7,58.69 23.19,52.81 19.85,51.3 C19.23,51.52 18.57,51.74 17.9,51.97 C15.6789002,52.7404523 13.4191713,53.3946722 11.13,53.93 C10.4993821,54.0806865 9.83512584,53.9878335 9.27,53.67 C8.62676625,53.2742562 8.14753634,52.660132 7.92,51.94 C7.65806229,51.2276891 7.56229323,50.4649569 7.64,49.71 C7.87036773,48.9391054 7.94848689,48.1307419 7.87,47.33 C7.61,46.32 6.65,46.07 5.89,45.53 C5.27,45.09 6.38,43.68 6.38,43.68 C6.38,43.68 5.2,42.81 4.78,42.43 C4.34,42.07 4.96,41.45 5.51,40.28 C5.73694079,39.7719796 5.80323378,39.2067446 5.7,38.66 C5.49,37.59 3.87,37.18 3.07,36.59 C2.69,36.31 2.08,35.89 2.01,35.38 C1.9,34.67 2.74,33.67 3.15,33.17 C4.89454657,30.9217816 6.38996718,28.4908848 7.61,25.92 C7.77010631,25.6486227 7.86589137,25.3441631 7.89,25.03 C7.87,23.6 5.8,23.01 5.61,21.62 C5.58022555,21.2120559 5.65239212,20.803112 5.82,20.43 C6.39667192,19.2042401 6.89109856,17.9414478 7.3,16.65 C7.54612792,15.4653226 7.86336869,14.2965408 8.25,13.15 C9.08859812,10.8496676 10.3808376,8.74127689 12.05,6.95 C14.5,4.36 18.12,3.08 21.54,2.4 C24.5813721,1.73504394 27.6655865,1.28393999 30.77,1.05 C30.87,1.04 30.97,1.04 31.07,1.03 C37.47,0.71 42.53,2.88 47.49,6.76 C50.1927291,8.77631392 52.1683037,11.6151058 53.12,14.85 C53.8451888,17.5213389 54.1852867,20.2825294 54.13,23.05 C54.110834,25.7831121 53.3129958,28.4541358 51.83,30.75 C50.34,33.1 48.39,35.14 47.26,37.71 Z" id="Shape" fill="#0377BC"/><path d="M44.26,37.71 C42.9803538,40.6319437 42.5006323,43.8415908 42.87,47.01 C43.0951005,49.0721875 43.5033794,51.1102353 44.09,53.1 C44.4048963,54.1305317 44.802868,55.1338218 45.28,56.1 C45.8718004,57.0090608 46.4061765,57.9542385 46.88,58.93 L24.78,58.99 C24.7,58.69 23.19,52.81 19.85,51.3 C19.23,51.52 18.57,51.74 17.9,51.97 C17.5823905,51.6995596 17.2290765,51.4741116 16.85,51.3 C14.44,52.14 11.5,53.11 9.27,53.67 C8.62676625,53.2742562 8.14753634,52.660132 7.92,51.94 C7.65806229,51.2276891 7.56229323,50.4649569 7.64,49.71 C7.87036773,48.9391054 7.94848689,48.1307419 7.87,47.33 C7.61,46.32 6.65,46.07 5.89,45.53 C5.27,45.09 6.38,43.68 6.38,43.68 C6.38,43.68 5.2,42.81 4.78,42.43 C4.34,42.07 4.96,41.45 5.51,40.28 C5.73694079,39.7719796 5.80323378,39.2067446 5.7,38.66 C5.49,37.59 3.87,37.18 3.07,36.59 C2.69,36.31 2.08,35.89 2.01,35.38 C1.9,34.67 2.74,33.67 3.15,33.17 C4.89454657,30.9217816 6.38996718,28.4908848 7.61,25.92 C7.77010631,25.6486227 7.86589137,25.3441631 7.89,25.03 C7.87,23.6 5.8,23.01 5.61,21.62 C5.58022555,21.2120559 5.65239212,20.803112 5.82,20.43 C6.39667192,19.2042401 6.89109856,17.9414478 7.3,16.65 C7.54612792,15.4653226 7.86336869,14.2965408 8.25,13.15 C9.08859812,10.8496676 10.3808376,8.74127689 12.05,6.95 C14.5,4.36 18.12,3.08 21.54,2.4 C24.5813721,1.73504394 27.6655865,1.28393999 30.77,1.05 C35.93,1.37 40.25,3.44 44.49,6.76 C47.1927291,8.77631392 49.1683037,11.6151058 50.12,14.85 C50.8451888,17.5213389 51.1852867,20.2825294 51.13,23.05 C51.110834,25.7831121 50.3129958,28.4541358 48.83,30.75 C47.34,33.1 45.39,35.14 44.26,37.71 Z" id="Shape" fill="#02A9F4"/><path d="M53,16 C52.9993733,20.200856 50.0951556,23.8435748 46,24.78 L42,24.78 C39.2907348,24.1627084 37.0185161,22.3285727 35.8435518,19.8105127 C34.6685875,17.2924528 34.7226385,14.3728449 35.99,11.9 L35.99,11.89 L38.62,8.79 C39.7599635,7.93735172 41.0865317,7.36833282 42.49,7.13 C42.9883279,7.04080082 43.4937592,6.99728687 44,7 C45.9833227,6.99943186 47.910746,7.65714746 49.48,8.87 L52.04,11.97 C52.6759271,13.2178763 53.0050337,14.5994383 53,16 Z" id="Shape" fill="#FEC108"/><path d="M50,16 C49.9993733,20.200856 47.0951556,23.8435748 43,24.78 L42,24.78 C39.2907348,24.1627084 37.0185161,22.3285727 35.8435518,19.8105127 C34.6685875,17.2924528 34.7226385,14.3728449 35.99,11.9 L35.99,11.89 L38.62,8.79 C39.7599635,7.93735172 41.0865317,7.36833282 42.49,7.13 C43.9432345,7.37176661 45.3140113,7.96954898 46.48,8.87 L49.04,11.97 C49.6759271,13.2178763 50.0050337,14.5994383 50,16 Z" id="Shape" fill="#FFDC00"/><path d="M60.065,1.69 L58.929,8.531 C58.8979088,8.71536792 58.7665509,8.86698425 58.5884923,8.92402196 C58.4104336,8.98105967 58.2154295,8.93398718 58.083,8.802 L57,7.723 C56.8047501,7.52780903 56.4882499,7.52780903 56.293,7.723 L46.584,17.414 C46.2091442,17.7898029 45.999052,18.2992045 46,18.83 L46,35 C46,36.1045695 45.1045695,37 44,37 C42.8954305,37 42,36.1045695 42,35 L42,18.819 C41.9993899,18.2951711 41.7932906,17.7924899 41.426,17.419 L31.941,7.778 C31.8320798,7.66807538 31.6837483,7.60623523 31.529,7.60623523 C31.3742517,7.60623523 31.2259202,7.66807538 31.117,7.778 L30.1,8.8 C29.9676843,8.93315931 29.7719317,8.98098629 29.5931205,8.92384261 C29.4143093,8.86669894 29.2825714,8.71421403 29.252,8.529 L28.133,1.8 C28.1024165,1.61540197 28.1627684,1.42738802 28.2950782,1.29507819 C28.427388,1.16276837 28.615402,1.10241652 28.8,1.133 L35.524,2.251 C35.7105001,2.27977912 35.8649102,2.4111076 35.9232514,2.59057021 C35.9815926,2.77003281 35.9339253,2.96705434 35.8,3.1 L34.768,4.13 C34.6593643,4.23859048 34.5983296,4.38589791 34.5983296,4.5395 C34.5983296,4.69310209 34.6593643,4.84040952 34.768,4.949 L42.675,12.849 C43.4558851,13.6290976 44.7211149,13.6290976 45.502,12.849 L53.465,4.894 C53.660191,4.69875007 53.660191,4.38224993 53.465,4.187 L52.384,3.1 C52.2519821,2.96743211 52.2050198,2.77225269 52.262285,2.59414126 C52.3195501,2.41602984 52.4714602,2.28479048 52.656,2.254 L59.49,1.115 C59.6491362,1.08863493 59.8112172,1.14066238 59.9252774,1.25472258 C60.0393376,1.36878277 60.0913651,1.53086377 60.065,1.69 Z" id="Shape" fill="#9D27B0"/><path d="M10.51,55 C8.86087491,54.9693546 7.42607373,53.8630997 6.977,52.276 C6.66180736,51.4152066 6.54956038,50.4932757 6.649,49.582 C6.682,49.319 6.74,49.051 6.798,48.782 C6.91954191,48.394293 6.95369328,47.9844766 6.898,47.582 C6.817,47.269 6.586,47.112 5.998,46.775 C5.764,46.643 5.527,46.506 5.305,46.35 C4.97965396,46.1182191 4.76494566,45.7619409 4.712,45.366 C4.67373033,44.8632085 4.78729954,44.3605079 5.038,43.923 C4.697,43.662 4.324,43.368 4.108,43.173 C3.183,42.418 3.796,41.335 4.163,40.688 C4.297,40.45 4.454,40.175 4.603,39.855 C4.74079442,39.5375542 4.78015866,39.1860629 4.716,38.846 C4.666,38.587 3.941,38.217 3.508,37.995 C3.1463953,37.8239078 2.79954825,37.6232248 2.471,37.395 C1.75491391,36.9888454 1.2318101,36.312269 1.019,35.517 C0.86,34.488 1.619,33.46 2.342,32.578 C4.05403523,30.3721378 5.52194066,27.9872106 6.72,25.465 C6.79591349,25.3282777 6.85309275,25.1819661 6.89,25.03 C6.89,24.755 6.565,24.439 6.076,23.99 C5.33769985,23.4445732 4.82048502,22.6515341 4.619,21.756 C4.56294901,21.1857868 4.65311901,20.6106949 4.881,20.085 C5.062,19.611 5.265,19.156 5.468,18.701 C5.82542646,17.9701756 6.11271352,17.2070903 6.326,16.422 L6.426,16.001 C6.65555173,14.9194988 6.95144435,13.8531499 7.312,12.808 C8.19432433,10.378648 9.55864935,8.15273351 11.323,6.264 C13.559,3.9 16.837,2.315 21.345,1.42 L21.445,1.399 C22.27,1.234 23.094,1.069 23.928,0.925 C24.4733812,0.830283165 24.9922832,1.19561881 25.087,1.741 C25.1817168,2.28638119 24.8163812,2.80528317 24.271,2.9 C23.454,3.041 22.646,3.2 21.838,3.364 L21.738,3.385 C17.707,4.185 14.692,5.618 12.778,7.642 C11.1985789,9.33262283 9.97742876,11.3252405 9.188,13.5 C8.85614578,14.4680809 8.58396833,15.4556008 8.373,16.457 L8.273,16.882 C8.03223001,17.7907608 7.70437906,18.6741835 7.294,19.52 C7.105,19.94 6.917,20.36 6.754,20.788 C6.65929553,21.0047674 6.60669376,21.2375727 6.599,21.474 C6.643,21.798 7.025,22.148 7.429,22.519 C8.25473785,23.1017313 8.78760356,24.013548 8.89,25.019 C8.87135419,25.4934269 8.73897076,25.956426 8.504,26.369 C7.25068748,29.0044113 5.71502777,31.4960025 3.924,33.8 C3.162,34.731 3,35.1 3,35.249 C3.18487123,35.4285354 3.38569965,35.5908717 3.6,35.734 C3.86055542,35.9167929 4.13622025,36.0770398 4.424,36.213 C5.278,36.649 6.447,37.247 6.687,38.468 C6.83018406,39.2237094 6.73695159,40.0051861 6.42,40.706 C6.246,41.076 6.066,41.396 5.909,41.672 C5.86,41.758 5.809,41.854 5.759,41.941 C6.173,42.274 6.739,42.698 6.979,42.875 C7.19653158,43.03646 7.33924808,43.2792679 7.37449617,43.5478696 C7.40974425,43.8164714 7.33450751,44.0878809 7.166,44.3 C7.01745938,44.4932548 6.88817724,44.7005751 6.78,44.919 C6.849,44.959 6.918,44.999 6.988,45.038 C7.87185426,45.4188803 8.54685539,46.1646653 8.838,47.082 C8.98493295,47.7875986 8.95539225,48.5185593 8.752,49.21 C8.706,49.419 8.659,49.628 8.632,49.838 C8.57354163,50.4428017 8.65391662,51.0529676 8.867,51.622 C9.08879513,52.543134 9.99394191,53.1285326 10.925,52.953 C13.8394025,52.252886 16.7108654,51.3847693 19.525,50.353 C19.8643892,50.2281245 20.2447562,50.2962158 20.5197476,50.5310745 C20.7947391,50.7659332 20.921504,51.1309622 20.8512673,51.4857096 C20.7810305,51.840457 20.5247368,52.1296438 20.181,52.242 C17.2871037,53.3039279 14.3329485,54.1938141 11.334,54.907 C11.0633364,54.9667008 10.7871614,54.9978711 10.51,55 Z M5.41,41.659 L5.442,41.688 L5.41,41.659 Z" id="Shape" fill="#000000"/><path d="M24.78,60 C24.3191958,59.9997651 23.9182106,59.6846758 23.809,59.237 C23.42,57.657 21.879,53.314 19.438,52.211 C19.0639436,52.0419148 18.8312137,51.6614066 18.8510746,51.25139 C18.8709354,50.8413735 19.1393525,50.4851405 19.528,50.353 C20.588,49.993 21.546,49.653 22.295,49.396 C22.969,49.161 23.476,48.984 23.743,48.896 C27.902,47.582 28.743,46.081 28.721,45.052 C28.7151025,44.7865956 28.8149786,44.5297379 28.9986179,44.3380327 C29.1822572,44.1463276 29.4345873,44.0355094 29.7,44.03 C30.2487388,44.0263384 30.7014291,44.4586732 30.723,45.007 C30.781,47.5 28.639,49.45 24.354,50.807 C24.102,50.889 23.61,51.061 22.954,51.288 L22.015,51.616 C23.6660021,53.4434798 24.871177,55.6286079 25.536,58 L48.218,57.937 C48.196,57.902 48.174,57.869 48.152,57.837 C47.8634115,57.4198081 47.604122,56.9830924 47.376,56.53 C46.8787683,55.5217667 46.4637532,54.4750326 46.135,53.4 C45.5282586,51.3533716 45.1072219,49.2562207 44.877,47.134 C44.602284,44.8462534 44.7562447,42.527347 45.331,40.296 C45.4690712,39.7608361 46.0148361,39.4389288 46.55,39.577 C47.0851639,39.7150712 47.4070712,40.2608361 47.269,40.796 C46.7554971,42.7863918 46.6178085,44.8551115 46.863,46.896 C47.0786847,48.8988163 47.4742821,50.8781423 48.045,52.81 C48.3444446,53.7877169 48.7219936,54.7397827 49.174,55.657 C49.3660142,56.0315003 49.5824826,56.392949 49.822,56.739 C50.2467748,57.3218965 50.587758,57.9614505 50.835,58.639 C50.9304293,58.9424437 50.8757998,59.2731879 50.6878608,59.5298273 C50.4999218,59.7864667 50.201095,59.9383833 49.883,59.939 L24.783,60.009 L24.78,60 Z" id="Shape" fill="#000000"/><path d="M11.194,18.566 C10.8888508,18.5660321 10.6003862,18.4267344 10.4106651,18.1877325 C10.2209439,17.9487305 10.1507311,17.6361832 10.22,17.339 L10.32,16.906 C10.5128846,15.9898189 10.7599859,15.0858957 11.06,14.199 C11.7551734,12.2744666 12.8324398,10.51043 14.227,9.013 C15.7596052,7.53568316 17.6469016,6.47803948 19.707,5.942 C20.2355365,5.78073285 20.7947329,6.07846349 20.956,6.607 C21.1172671,7.13553651 20.8195365,7.69473285 20.291,7.856 C18.5638104,8.29316632 16.9769597,9.16438523 15.681,10.387 C14.4727696,11.6870159 13.5394558,13.2175962 12.937,14.887 C12.6670637,15.6958805 12.4436976,16.5195638 12.268,17.354 L12.168,17.791 C12.0632698,18.2445327 11.6594679,18.565833 11.194,18.566 Z" id="Shape" fill="#000000"/><circle id="Oval" fill="#000000" cx="10" cy="21" r="1"/><path d="M44,38 C42.3431458,38 41,36.6568542 41,35 L41,18.819 C40.9996949,18.5570856 40.8966453,18.3057449 40.713,18.119 L31.526,8.782 L30.119,10.2 C29.8547499,10.4686512 29.4619141,10.5659421 29.1028277,10.4516681 C28.7437413,10.3373942 28.4793845,10.0309614 28.419,9.659 L27.009,1.169 C26.9562699,0.850727542 27.0603248,0.52656555 27.2884452,0.29844516 C27.5165655,0.0703247696 27.8407275,-0.0337301335 28.159,0.019 L36.639,1.429 C37.0076584,1.49083838 37.3110471,1.75312764 37.4255246,2.10897583 C37.540002,2.46482402 37.4464523,2.85480963 37.183,3.12 L35.773,4.538 L43.383,12.138 C43.7733851,12.5277159 44.4056149,12.5277159 44.796,12.138 L52.407,4.538 L50.991,3.115 C50.7275168,2.84967125 50.6340772,2.45951023 50.7487821,2.10360927 C50.8634871,1.7477083 51.1671696,1.48553757 51.536,1.424 L60.016,0.014 C60.3344289,-0.0390971627 60.6589046,0.0647941745 60.8872758,0.292967001 C61.115647,0.521139828 61.2198204,0.845525087 61.167,1.164 L59.756,9.654 C59.6943764,10.0233295 59.4315894,10.3272884 59.0750441,10.4416441 C58.7184989,10.5559997 58.3279419,10.4615894 58.063,10.197 L56.649,8.783 L47.293,18.122 C47.1060057,18.3098632 47.000711,18.5639359 47,18.829 L47,35 C47,36.6568542 45.6568542,38 44,38 Z M31.53,6.36 C31.7972459,6.36110942 32.0529286,6.46914435 32.24,6.66 L42.14,16.716 C42.692309,17.2753281 43.0016993,18.0299385 43.001,18.816 L43.001,35 C43.001,35.5522847 43.4487153,36 44.001,36 C44.5532847,36 45.001,35.5522847 45.001,35 L45.001,18.829 C45.0037378,18.0331453 45.3198982,17.2704085 45.881,16.706 L55.943,6.662 C56.3334999,6.27161806 56.9665001,6.27161806 57.357,6.662 L58.102,7.407 L58.964,2.215 L53.776,3.078 L54.529,3.834 C54.9180509,4.22426975 54.9180509,4.85573025 54.529,5.246 L46.21,13.555 C45.0387298,14.7248135 43.1412702,14.7248135 41.97,13.555 L33.653,5.247 C33.2639491,4.85673025 33.2639491,4.22526975 33.653,3.835 L34.406,3.078 L29.218,2.216 L30.077,7.4 L30.822,6.653 C31.0097377,6.46520544 31.2644587,6.35979125 31.53,6.36 Z" id="Shape" fill="#000000"/><path d="M42,25.78 C41.9253594,25.7798757 41.8509427,25.7718307 41.778,25.756 C38.7733877,25.0728162 36.2515036,23.0426318 34.9424675,20.2532125 C33.6334314,17.4637933 33.6834344,14.2266576 35.078,11.479 C35.2747607,11.055099 35.7388841,10.8240071 36.1957344,10.9224683 C36.6525847,11.0209294 36.9803161,11.4226833 36.985,11.89 C36.9854103,12.0518132 36.9477276,12.2114511 36.875,12.356 C35.748403,14.5539232 35.700178,17.1489902 36.7443359,19.3872532 C37.7884937,21.6255163 39.8079538,23.2560007 42.216,23.805 C42.711182,23.9178092 43.0431649,24.3838787 42.9879499,24.8887376 C42.932735,25.3935964 42.5078597,25.7768905 42,25.78 Z" id="Shape" fill="#000000"/><path d="M46,25.78 C45.4913962,25.778884 45.0646478,25.3961887 45.0083413,24.8907101 C44.9520348,24.3852314 45.2841089,23.9180091 45.78,23.805 C49.4088725,22.9549065 51.9812194,19.7270661 52,16 C52.0069291,14.7577918 51.7154212,13.5320868 51.15,12.426 C50.9870869,12.1080336 51.006182,11.7273074 51.2000924,11.4272374 C51.3940028,11.1271673 51.7332689,10.953341 52.0900924,10.9712373 C52.4469159,10.9891336 52.7670869,11.1960336 52.93,11.514 C53.6407925,12.9020596 54.0077537,14.4405529 54,16 C54.0222393,20.6761166 50.7846784,24.73649 46.221,25.756 C46.1483841,25.7717605 46.0743063,25.7798051 46,25.78 Z" id="Shape" fill="#000000"/><path d="M49.479,9.87 C49.2584883,9.87049829 49.044135,9.79728732 48.87,9.662 C46.0339643,7.47266315 42.0859365,7.44362151 39.218,9.591 C38.9321875,9.80535938 38.5537265,9.85095647 38.2251796,9.71061529 C37.8966327,9.57027411 37.667914,9.26531581 37.6251796,8.91061526 C37.5824452,8.55591471 37.7321875,8.20535934 38.018,7.991 C41.6038656,5.3061837 46.5401227,5.34258798 50.086,8.08 C50.4250452,8.3413563 50.5601256,8.78953429 50.4219746,9.19471706 C50.2838235,9.59989983 49.9030873,9.87220508 49.475,9.872 L49.479,9.87 Z" id="Shape" fill="#000000"/></g></g></svg>
