<?xml version="1.0" encoding="UTF-8"?>
<svg xmlns="http://www.w3.org/2000/svg" xmlns:xlink="http://www.w3.org/1999/xlink" width="512" height="512" viewBox="0 0 60 61" version="1.1"><!-- Generator: Sketch 51.3 (57544) - http://www.bohemiancoding.com/sketch --><title>044 - Empathy</title><desc>Created with Sketch.</desc><defs/><g id="Page-1" stroke="none" stroke-width="1" fill="none" fill-rule="evenodd"><g id="044---Empathy" transform="translate(-1.000000, -1.000000)" fill-rule="nonzero"><path d="M47.26,38.71 C45.9803538,41.6319437 45.5006323,44.8415908 45.87,48.01 C46.0951005,50.0721875 46.5033794,52.1102353 47.09,54.1 C47.4048963,55.1305317 47.802868,56.1338218 48.28,57.1 C48.8718004,58.0090608 49.4061765,58.9542385 49.88,59.93 L24.78,60 L24.78,59.99 C24.7,59.69 23.19,53.81 19.85,52.3 C19.23,52.52 18.57,52.74 17.9,52.97 C15.6789002,53.7404523 13.4191713,54.3946722 11.13,54.93 C10.4993821,55.0806865 9.83512584,54.9878335 9.27,54.67 C8.62676625,54.2742562 8.14753634,53.660132 7.92,52.94 C7.65806229,52.2276891 7.56229323,51.4649569 7.64,50.71 C7.87036773,49.9391054 7.94848689,49.1307419 7.87,48.33 C7.61,47.32 6.65,47.07 5.89,46.53 C5.27,46.09 6.38,44.68 6.38,44.68 C6.38,44.68 5.2,43.81 4.78,43.43 C4.34,43.07 4.96,42.45 5.51,41.28 C5.73694079,40.7719796 5.80323378,40.2067446 5.7,39.66 C5.49,38.59 3.87,38.18 3.07,37.59 C2.69,37.31 2.08,36.89 2.01,36.38 C1.9,35.67 2.74,34.67 3.15,34.17 C4.89454657,31.9217816 6.38996718,29.4908848 7.61,26.92 C7.77010631,26.6486227 7.86589137,26.3441631 7.89,26.03 C7.87,24.6 5.8,24.01 5.61,22.62 C5.58022555,22.2120559 5.65239212,21.803112 5.82,21.43 C6.39667192,20.2042401 6.89109856,18.9414478 7.3,17.65 C7.54612792,16.4653226 7.86336869,15.2965408 8.25,14.15 C9.08859812,11.8496676 10.3808376,9.74127689 12.05,7.95 C14.5,5.36 18.12,4.08 21.54,3.4 C24.5813721,2.73504394 27.6655865,2.28393999 30.77,2.05 C30.87,2.04 30.97,2.04 31.07,2.03 C37.47,1.71 42.53,3.88 47.49,7.76 C50.1927291,9.77631392 52.1683037,12.6151058 53.12,15.85 C53.8451888,18.5213389 54.1852867,21.2825294 54.13,24.05 C54.110834,26.7831121 53.3129958,29.4541358 51.83,31.75 C50.34,34.1 48.39,36.14 47.26,38.71 Z" id="Shape" fill="#FEC108"/><path d="M44.26,38.71 C42.9803538,41.6319437 42.5006323,44.8415908 42.87,48.01 C43.0951005,50.0721875 43.5033794,52.1102353 44.09,54.1 C44.4048963,55.1305317 44.802868,56.1338218 45.28,57.1 C45.8718004,58.0090608 46.4061765,58.9542385 46.88,59.93 L24.78,59.99 C24.7,59.69 23.19,53.81 19.85,52.3 C19.23,52.52 18.57,52.74 17.9,52.97 C17.5823905,52.6995596 17.2290765,52.4741116 16.85,52.3 C14.44,53.14 11.5,54.11 9.27,54.67 C8.62676625,54.2742562 8.14753634,53.660132 7.92,52.94 C7.65806229,52.2276891 7.56229323,51.4649569 7.64,50.71 C7.87036773,49.9391054 7.94848689,49.1307419 7.87,48.33 C7.61,47.32 6.65,47.07 5.89,46.53 C5.27,46.09 6.38,44.68 6.38,44.68 C6.38,44.68 5.2,43.81 4.78,43.43 C4.34,43.07 4.96,42.45 5.51,41.28 C5.73694079,40.7719796 5.80323378,40.2067446 5.7,39.66 C5.49,38.59 3.87,38.18 3.07,37.59 C2.69,37.31 2.08,36.89 2.01,36.38 C1.9,35.67 2.74,34.67 3.15,34.17 C4.89454657,31.9217816 6.38996718,29.4908848 7.61,26.92 C7.77010631,26.6486227 7.86589137,26.3441631 7.89,26.03 C7.87,24.6 5.8,24.01 5.61,22.62 C5.58022555,22.2120559 5.65239212,21.803112 5.82,21.43 C6.39667192,20.2042401 6.89109856,18.9414478 7.3,17.65 C7.54612792,16.4653226 7.86336869,15.2965408 8.25,14.15 C9.08859812,11.8496676 10.3808376,9.74127689 12.05,7.95 C14.5,5.36 18.12,4.08 21.54,3.4 C24.5813721,2.73504394 27.6655865,2.28393999 30.77,2.05 C35.93,2.37 40.25,4.44 44.49,7.76 C47.1927291,9.77631392 49.1683037,12.6151058 50.12,15.85 C50.8451888,18.5213389 51.1852867,21.2825294 51.13,24.05 C51.110834,26.7831121 50.3129958,29.4541358 48.83,31.75 C47.34,34.1 45.39,36.14 44.26,38.71 Z" id="Shape" fill="#FFDC00"/><path d="M60,10.54 C58.5199828,11.7210805 57.4808099,13.366144 57.05,15.21 C56.31,18.31 58.52,22.97 54.09,27.63 C51.94,29.89 48.75,30.5 46.03,30.54 C42.58,32.33 40.39,36.4 39.6,37.9 C38.99,39.03 39.82,41 39.82,41 C37.2005247,40.3117123 34.8270491,38.9014866 32.97,36.93 C31.8439239,35.8526128 30.9845145,34.5275473 30.46,33.06 C36.49,33.29 36.45,28.02 36.38,27.02 L36.38,27.01 C36.01,26.97 35.64,26.92 35.28,26.87 C32.3456526,26.5311788 29.634231,25.1381549 27.65,22.95 C26.0588802,20.8559972 25.0482207,18.3793641 24.72,15.77 C24.211946,12.761128 24.1681036,9.692157 24.59,6.67 C25.67,8 26.83,9.4 28.42,9.93 C29.597771,10.2533236 30.8404509,10.2567755 32.02,9.94 C34.32,9.44 36.52,8.44 38.86,8.22 C42.6425691,7.98984596 46.3010837,9.61212307 48.67,12.57 L48.68,12.56 C49.0907925,11.4131313 49.7151335,10.3544661 50.52,9.44 C51.6156088,8.34053835 53.3198439,8.13008801 54.65,8.93 C56.2409778,9.97089246 58.0987986,10.529975 60,10.54 Z" id="Shape" fill="#02A9F4"/><path d="M60,10.54 C58.5199828,11.7210805 57.4808099,13.366144 57.05,15.21 C56.31,18.31 58.52,22.97 54.09,27.63 C51.94,29.89 48.75,30.5 46.03,30.54 L45.98,30.24 C47.9133259,29.9226271 49.6995681,29.0102803 51.09,27.63 C55.52,22.97 53.31,18.31 54.05,15.21 C54.4808099,13.366144 55.5199828,11.7210805 57,10.54 C55.0987986,10.529975 53.2409778,9.97089246 51.65,8.93 C51.5707692,8.88196181 51.4870389,8.84177129 51.4,8.81 C52.4330555,8.29381648 53.6578237,8.3390387 54.65,8.93 C56.2409778,9.97089246 58.0987986,10.529975 60,10.54 Z" id="Shape" fill="#0377BC"/><path d="M39.6,37.9 C38.99,39.03 39.82,41 39.82,41 C38.6311019,40.7452339 37.4924453,40.2958531 36.45,39.67 C36.3061224,39.0793919 36.358785,38.4579732 36.6,37.9 C37.39,36.4 39.58,32.33 43.03,30.54 C44.020512,30.5317558 45.0081061,30.4313225 45.98,30.24 L46.03,30.54 C42.58,32.33 40.39,36.4 39.6,37.9 Z" id="Shape" fill="#0377BC"/><path d="M10.51,56 C8.86087491,55.9693546 7.42607373,54.8630997 6.977,53.276 C6.66180736,52.4152066 6.54956038,51.4932757 6.649,50.582 C6.682,50.319 6.74,50.051 6.798,49.782 C6.91954191,49.394293 6.95369328,48.9844766 6.898,48.582 C6.817,48.269 6.586,48.112 5.998,47.775 C5.764,47.643 5.527,47.506 5.305,47.35 C4.97965396,47.1182191 4.76494566,46.7619409 4.712,46.366 C4.67373033,45.8632085 4.78729954,45.3605079 5.038,44.923 C4.697,44.662 4.324,44.368 4.108,44.173 C3.183,43.418 3.796,42.335 4.163,41.688 C4.297,41.45 4.454,41.175 4.603,40.855 C4.74079442,40.5375542 4.78015866,40.1860629 4.716,39.846 C4.666,39.587 3.941,39.217 3.508,38.995 C3.1463953,38.8239078 2.79954825,38.6232248 2.471,38.395 C1.75491391,37.9888454 1.2318101,37.312269 1.019,36.517 C0.86,35.488 1.619,34.46 2.342,33.578 C4.05403523,31.3721378 5.52194066,28.9872106 6.72,26.465 C6.79591349,26.3282777 6.85309275,26.1819661 6.89,26.03 C6.89,25.755 6.565,25.439 6.076,24.99 C5.33769985,24.4445732 4.82048502,23.6515341 4.619,22.756 C4.56294901,22.1857868 4.65311901,21.6106949 4.881,21.085 C5.062,20.611 5.265,20.156 5.468,19.701 C5.82542646,18.9701756 6.11271352,18.2070903 6.326,17.422 L6.426,17.001 C6.65555173,15.9194988 6.95144435,14.8531499 7.312,13.808 C8.19432433,11.378648 9.55864935,9.15273351 11.323,7.264 C13.559,4.9 16.837,3.315 21.345,2.42 C24.5306187,1.72068008 27.7633257,1.25642965 31.017,1.031 C37.188,0.731 42.459,2.555 48.106,6.972 C49.0506359,7.70939899 49.9241184,8.53366645 50.715,9.434 C51.0772988,9.85097499 51.032975,10.4827012 50.616,10.845 C50.199025,11.2072988 49.5672988,11.162975 49.205,10.746 C48.4968138,9.94125912 47.7147234,9.20470138 46.869,8.546 C41.633,4.446 36.769,2.739 31.12,3.031 C27.9646675,3.25176761 24.8296659,3.70263297 21.74,4.38 C17.705,5.18 14.69,6.614 12.776,8.638 C11.1968387,10.3299783 9.97635163,12.3239847 9.188,14.5 C8.85614578,15.4680809 8.58396833,16.4556008 8.373,17.457 L8.273,17.882 C8.03223001,18.7907608 7.70437906,19.6741835 7.294,20.52 C7.105,20.94 6.917,21.36 6.754,21.788 C6.65929553,22.0047674 6.60669376,22.2375727 6.599,22.474 C6.643,22.798 7.025,23.148 7.429,23.519 C8.25473785,24.1017313 8.78760356,25.013548 8.89,26.019 C8.87135419,26.4934269 8.73897076,26.956426 8.504,27.369 C7.25068748,30.0044113 5.71502777,32.4960025 3.924,34.8 C3.162,35.731 3,36.1 3,36.249 C3.18487123,36.4285354 3.38569965,36.5908717 3.6,36.734 C3.86055542,36.9167929 4.13622025,37.0770398 4.424,37.213 C5.278,37.649 6.447,38.247 6.687,39.468 C6.83018406,40.2237094 6.73695159,41.0051861 6.42,41.706 C6.246,42.076 6.066,42.396 5.909,42.672 C5.86,42.758 5.809,42.854 5.759,42.941 C6.173,43.274 6.739,43.698 6.979,43.875 C7.19653158,44.03646 7.33924808,44.2792679 7.37449617,44.5478696 C7.40974425,44.8164714 7.33450751,45.0878809 7.166,45.3 C7.01745938,45.4932548 6.88817724,45.7005751 6.78,45.919 C6.849,45.959 6.918,45.999 6.988,46.038 C7.87185426,46.4188803 8.54685539,47.1646653 8.838,48.082 C8.98493295,48.7875986 8.95539225,49.5185593 8.752,50.21 C8.706,50.419 8.659,50.628 8.632,50.838 C8.57354163,51.4428017 8.65391662,52.0529676 8.867,52.622 C9.08790242,53.5437662 9.99373144,54.1296061 10.925,53.953 C13.8394025,53.252886 16.7108654,52.3847693 19.525,51.353 C19.8643892,51.2281245 20.2447562,51.2962158 20.5197476,51.5310745 C20.7947391,51.7659332 20.921504,52.1309622 20.8512673,52.4857096 C20.7810305,52.840457 20.5247368,53.1296438 20.181,53.242 C17.2871037,54.3039279 14.3329485,55.1938141 11.334,55.907 C11.0633364,55.9667008 10.7871614,55.9978711 10.51,56 Z M5.41,42.659 L5.442,42.688 L5.41,42.659 Z" id="Shape" fill="#000000"/><path d="M24.78,61 C24.3191958,60.9997651 23.9182106,60.6846758 23.809,60.237 C23.42,58.657 21.879,54.314 19.438,53.211 C19.0639436,53.0419148 18.8312137,52.6614066 18.8510746,52.25139 C18.8709354,51.8413735 19.1393525,51.4851405 19.528,51.353 C20.588,50.993 21.546,50.653 22.295,50.396 C22.969,50.161 23.476,49.984 23.743,49.896 C27.902,48.582 28.743,47.081 28.721,46.052 C28.7126042,45.6947344 28.8954452,45.3601283 29.2006484,45.1742246 C29.5058516,44.9883208 29.8870495,44.9793627 30.2006484,45.1507246 C30.5142474,45.3220864 30.7126043,45.6477344 30.721,46.005 C30.779,48.498 28.637,50.448 24.352,51.805 C24.1,51.887 23.608,52.059 22.952,52.286 L22.013,52.614 C23.6649911,54.4418569 24.8708746,56.6277134 25.536,59 L48.218,58.937 C48.196,58.902 48.174,58.869 48.152,58.837 C47.8634115,58.4198081 47.604122,57.9830924 47.376,57.53 C46.8787683,56.5217667 46.4637532,55.4750326 46.135,54.4 C45.5282586,52.3533716 45.1072219,50.2562207 44.877,48.134 C44.4831254,44.7888591 44.989208,41.3992101 46.343,38.315 C47.1412654,36.6445823 48.1290959,35.0715695 49.287,33.627 C49.866,32.846 50.466,32.038 50.987,31.219 C51.6500242,30.186884 52.1710394,29.0701824 52.536,27.899 C52.641572,27.5576327 52.9212418,27.2985183 53.2696605,27.2192627 C53.6180792,27.1400071 53.9823138,27.2526511 54.2251605,27.5147627 C54.4680072,27.7768744 54.552572,28.1486327 54.447,28.49 C54.0293948,29.8307385 53.4326709,31.1089521 52.673,32.29 C52.117,33.168 51.495,34.006 50.894,34.815 C49.8279359,36.1404733 48.9163887,37.5831134 48.177,39.115 C46.9655327,41.8729508 46.5122619,44.9043072 46.864,47.896 C47.0795932,49.8991584 47.4751918,51.8788245 48.046,53.811 C48.3454446,54.7887169 48.7229936,55.7407827 49.175,56.658 C49.3670142,57.0325003 49.5834826,57.393949 49.823,57.74 C50.2477748,58.3228965 50.588758,58.9624505 50.836,59.64 C50.9314293,59.9434437 50.8767998,60.2741879 50.6888608,60.5308273 C50.5009218,60.7874667 50.202095,60.9393833 49.884,60.94 L24.784,61.01 L24.78,61 Z" id="Shape" fill="#000000"/><path d="M11.194,19.566 C10.8888508,19.5660321 10.6003862,19.4267344 10.4106651,19.1877325 C10.2209439,18.9487305 10.1507311,18.6361832 10.22,18.339 L10.32,17.906 C10.5128846,16.9898189 10.7599859,16.0858957 11.06,15.199 C11.7551734,13.2744666 12.8324398,11.51043 14.227,10.013 C15.7596052,8.53568316 17.6469016,7.47803948 19.707,6.942 C20.2355365,6.78073285 20.7947329,7.07846349 20.956,7.607 C21.1172671,8.13553651 20.8195365,8.69473285 20.291,8.856 C18.5638104,9.29316632 16.9769597,10.1643852 15.681,11.387 C14.4727696,12.6870159 13.5394558,14.2175962 12.937,15.887 C12.6670637,16.6958805 12.4436976,17.5195638 12.268,18.354 L12.168,18.791 C12.0632698,19.2445327 11.6594679,19.565833 11.194,19.566 Z" id="Shape" fill="#000000"/><circle id="Oval" fill="#000000" cx="10" cy="22" r="1"/><path d="M38.931,28.157 C37.6565389,28.1542129 36.3841589,28.0539202 35.125,27.857 C31.9535668,27.4742684 29.0265243,25.9606849 26.881,23.594 C25.1645887,21.3711284 24.0766943,18.7280633 23.731,15.941 C23.2007619,12.8283205 23.1565698,9.65222708 23.6,6.526 C23.6562104,6.13199646 23.9407116,5.80883277 24.3244141,5.70314095 C24.7081167,5.59744913 25.117967,5.72935197 25.368,6.039 C26.506,7.448 27.476,8.56 28.736,8.981 C29.740861,9.24867166 30.7992706,9.24072668 31.8,8.958 C32.657,8.772 33.5,8.516 34.383,8.244 C35.8055935,7.75718758 37.2742285,7.41708617 38.766,7.229 C44.0930635,6.94934653 49.0535856,9.94150177 51.291,14.784 C51.4722234,15.1088876 51.4581194,15.5075199 51.2543881,15.8187874 C51.0506569,16.1300549 50.690978,16.302501 50.3207175,16.2664306 C49.950457,16.2303602 49.6308241,15.9917363 49.491,15.647 C47.491,11.471 43.169,8.815 38.956,9.221 C37.5996844,9.397031 36.2648062,9.71064696 34.972,10.157 C34.084,10.429 33.172,10.709 32.229,10.913 C30.8742165,11.2701056 29.4485351,11.2580207 28.1,10.878 C27.0544979,10.4954124 26.1128149,9.87390164 25.35,9.063 C25.2153183,11.2482108 25.3327588,13.4416628 25.7,15.6 C25.9912405,18.0346415 26.9267413,20.3475032 28.41,22.3 C30.2456786,24.2921303 32.7351472,25.5595736 35.426,25.872 C38.4180043,26.4247011 41.5018104,26.1998546 44.382,25.219 C44.7158784,25.0760552 45.1010117,25.1253728 45.3880986,25.3478343 C45.6751855,25.5702958 45.819087,25.9309234 45.764018,26.2899156 C45.708949,26.6489078 45.4635681,26.94982 45.123,27.076 C43.1456703,27.8237058 41.0447112,28.1904915 38.931,28.157 Z" id="Shape" fill="#000000"/><path d="M39.821,42 C39.7538285,42.000115 39.6868186,41.993414 39.621,41.98 C36.7880426,41.255547 34.2207792,39.7373923 32.221,37.604 C30.9939992,36.4238255 30.0627705,34.9707934 29.503,33.363 C29.4044569,33.0528183 29.4630265,32.7140847 29.66,32.455 C29.8512882,32.1885369 30.166731,32.039893 30.494,32.062 C31.8376607,32.226574 33.1873079,31.8063115 34.2,30.908 C35.0751735,29.8318734 35.501437,28.4595914 35.39,27.077 C35.3563766,26.5262136 35.7752548,26.0522906 36.326,26.018 C36.8746778,25.9909732 37.3449087,26.406196 37.386,26.954 C37.5404973,28.900939 36.9083895,30.8285979 35.631,32.306 C34.6464083,33.2780575 33.3541106,33.8770048 31.976,34 C32.4081278,34.8200329 32.9723427,35.5633099 33.646,36.2 C35.0002835,37.6153649 36.6214727,38.748498 38.416,39.534 C38.3037448,38.81975 38.408245,38.0882485 38.716,37.434 C39.482,35.994 41.816,31.615 45.571,29.66 C45.888601,29.4883358 46.2740723,29.5011898 46.5795318,29.6936307 C46.8849913,29.8860715 47.0630073,30.2282173 47.0452859,30.5888069 C47.0275644,30.9493966 46.8168572,31.2724382 46.494,31.434 C43.286,33.103 41.175,37.07 40.482,38.373 C40.3205631,39.1309839 40.4133456,39.9210411 40.746,40.621 C40.8722854,40.9293485 40.8366917,41.2803417 40.6510752,41.5570606 C40.4654588,41.8337796 40.1542069,41.9998678 39.821,42 Z" id="Shape" fill="#000000"/><path d="M45.822,31.539 C44.4811853,31.5343251 43.143138,31.4169115 41.822,31.188 C41.4699148,31.1270862 41.1770717,30.8829643 41.0537819,30.5475927 C40.9304922,30.212221 40.9954864,29.8365505 41.2242819,29.5620927 C41.4530775,29.2876348 41.8109148,29.1560862 42.163,29.217 C43.4352634,29.4433282 44.7258255,29.5507913 46.018,29.538 C49.297,29.491 51.771,28.616 53.367,26.938 C56.167,24 56.035,21.056 55.921,18.457 C55.8135996,17.2961407 55.8647358,16.1260637 56.073,14.979 C56.3893663,13.6546437 56.9846125,12.4130133 57.819,11.337 C56.5340008,11.0065344 55.3038223,10.491153 54.167,9.807 C53.2233234,9.22024881 51.9990562,9.3655994 51.219,10.157 C50.5253711,10.961271 49.9857128,11.8863511 49.627,12.886 C49.5140362,13.2188374 49.2346262,13.4679315 48.8910549,13.5420954 C48.5474835,13.6162593 48.1902013,13.5046026 47.95,13.248 C47.676802,12.9550039 47.6019339,12.5285296 47.759,12.16 C47.768,12.141 47.777,12.12 47.788,12.101 C48.2413706,10.858183 48.9299163,9.71434143 49.816,8.732 C51.2320755,7.32682746 53.4163362,7.05020369 55.138,8.058 C56.564062,9.01505039 58.2405866,9.53052954 59.958,9.54 C60.403186,9.51282883 60.8100506,9.79120986 60.946,10.216 C61.0891911,10.635267 60.9394367,11.0987734 60.578,11.355 C59.301636,12.4013826 58.4028747,13.8368016 58.019,15.442 C57.8589307,16.4095434 57.8253158,17.3937902 57.919,18.37 C58.043,21.219 58.198,24.763 54.819,28.317 C52.838,30.399 49.886,31.482 46.046,31.538 L45.822,31.539 Z" id="Shape" fill="#000000"/><path d="M53.01,13.06 C52.746092,13.0568974 52.4942522,12.9489661 52.31,12.76 C52.2133697,12.6709841 52.1381549,12.5612389 52.09,12.439 C51.928513,12.0656977 52.0162625,11.6313377 52.31,11.35 C52.4948146,11.1589962 52.7492202,11.0511554 53.015,11.0511554 C53.2807798,11.0511554 53.5351854,11.1589962 53.72,11.35 C53.8135387,11.4412664 53.8882811,11.5499825 53.94,11.67 C53.9882077,11.7942856 54.0119756,11.9267071 54.01,12.06 C54.0103118,12.3226228 53.9059456,12.574541 53.72,12.76 C53.5329286,12.9508556 53.2772459,13.0588906 53.01,13.06 Z" id="Shape" fill="#000000"/><path d="M32.669,15.574 C30.9973629,15.5391136 29.3367153,15.2945351 27.726,14.846 C27.1947021,14.694674 26.886674,14.1412979 27.038,13.61 C27.189326,13.0787021 27.7427021,12.770674 28.274,12.922 C30.205,13.471 33.795,13.993 35.206,13.052 C35.503208,12.846326 35.8882701,12.8170347 36.2131691,12.9753856 C36.5380681,13.1337365 36.7522346,13.4550829 36.7733434,13.8158997 C36.7944522,14.1767165 36.6192178,14.520844 36.315,14.716 C35.2063591,15.3438494 33.9412877,15.6415541 32.669,15.574 Z" id="Shape" fill="#000000"/><path d="M32.305,19.665 C31.7318298,19.6685107 31.1595111,19.6203155 30.595,19.521 C30.0532087,19.4133045 29.7013045,18.8867913 29.809,18.345 C29.9166956,17.8032087 30.4432087,17.4513045 30.985,17.559 C31.019,17.566 34.385,18.192 36.293,16.281 C36.5464799,16.0284132 36.9154585,15.9302434 37.260945,16.02347 C37.6064316,16.1166967 37.8759384,16.3871566 37.967945,16.73297 C38.0599516,17.0787835 37.9604799,17.4474132 37.707,17.7 C36.2351322,19.0404441 34.294106,19.7465005 32.305,19.665 Z" id="Shape" fill="#000000"/><path d="M34,23.328 C33.4477153,23.328 33,22.8802847 33,22.328 C33,21.7757153 33.4477153,21.328 34,21.328 C34.039,21.328 36.4,21.285 36.935,19.684 C37.109522,19.1593295 37.6763295,18.875478 38.201,19.05 C38.7256705,19.224522 39.009522,19.7913295 38.835,20.316 C37.837,23.294 34.156,23.328 34,23.328 Z" id="Shape" fill="#000000"/><path d="M40,25 C39.5979286,24.9987383 39.235715,24.7567908 39.0805757,24.385853 C38.9254364,24.0149153 39.0075466,23.5871359 39.289,23.3 C39.5282103,23.0686364 39.697051,22.774292 39.776,22.451 C39.776,21.8987153 40.2237153,21.451 40.776,21.451 C41.3282847,21.451 41.776,21.8987153 41.776,22.451 C41.7030457,23.3078791 41.3239092,24.1098167 40.708,24.71 C40.5197717,24.8966949 40.2651111,25.0010051 40,25 Z" id="Shape" fill="#000000"/></g></g></svg>
