<?xml version="1.0" encoding="UTF-8"?>
<svg xmlns="http://www.w3.org/2000/svg" xmlns:xlink="http://www.w3.org/1999/xlink" width="512" height="512" viewBox="0 0 60 61" version="1.1"><!-- Generator: Sketch 51.3 (57544) - http://www.bohemiancoding.com/sketch --><title>046 - Materialistic</title><desc>Created with Sketch.</desc><defs/><g id="Page-1" stroke="none" stroke-width="1" fill="none" fill-rule="evenodd"><g id="046---Materialistic" transform="translate(-1.000000, -1.000000)" fill-rule="nonzero"><path d="M47.26,38.71 C45.9803538,41.6319437 45.5006323,44.8415908 45.87,48.01 C46.0951005,50.0721875 46.5033794,52.1102353 47.09,54.1 C47.4048963,55.1305317 47.802868,56.1338218 48.28,57.1 C48.8718004,58.0090608 49.4061765,58.9542385 49.88,59.93 L24.78,60 L24.78,59.99 C24.7,59.69 23.19,53.81 19.85,52.3 C19.23,52.52 18.57,52.74 17.9,52.97 C15.6789002,53.7404523 13.4191713,54.3946722 11.13,54.93 C10.4993821,55.0806865 9.83512584,54.9878335 9.27,54.67 C8.62676625,54.2742562 8.14753634,53.660132 7.92,52.94 C7.65806229,52.2276891 7.56229323,51.4649569 7.64,50.71 C7.87036773,49.9391054 7.94848689,49.1307419 7.87,48.33 C7.61,47.32 6.65,47.07 5.89,46.53 C5.27,46.09 6.38,44.68 6.38,44.68 C6.38,44.68 5.2,43.81 4.78,43.43 C4.34,43.07 4.96,42.45 5.51,41.28 C5.73694079,40.7719796 5.80323378,40.2067446 5.7,39.66 C5.49,38.59 3.87,38.18 3.07,37.59 C2.69,37.31 2.08,36.89 2.01,36.38 C1.9,35.67 2.74,34.67 3.15,34.17 C4.89454657,31.9217816 6.38996718,29.4908848 7.61,26.92 C7.77010631,26.6486227 7.86589137,26.3441631 7.89,26.03 C7.87,24.6 5.8,24.01 5.61,22.62 C5.58022555,22.2120559 5.65239212,21.803112 5.82,21.43 C6.39667192,20.2042401 6.89109856,18.9414478 7.3,17.65 C7.54612792,16.4653226 7.86336869,15.2965408 8.25,14.15 C9.08859812,11.8496676 10.3808376,9.74127689 12.05,7.95 C14.5,5.36 18.12,4.08 21.54,3.4 C24.5813721,2.73504394 27.6655865,2.28393999 30.77,2.05 C30.87,2.04 30.97,2.04 31.07,2.03 C37.47,1.71 42.53,3.88 47.49,7.76 C50.1927291,9.77631392 52.1683037,12.6151058 53.12,15.85 C53.8451888,18.5213389 54.1852867,21.2825294 54.13,24.05 C54.110834,26.7831121 53.3129958,29.4541358 51.83,31.75 C50.34,34.1 48.39,36.14 47.26,38.71 Z" id="Shape" fill="#283593"/><path d="M44.26,38.71 C42.9803538,41.6319437 42.5006323,44.8415908 42.87,48.01 C43.0951005,50.0721875 43.5033794,52.1102353 44.09,54.1 C44.4048963,55.1305317 44.802868,56.1338218 45.28,57.1 C45.8718004,58.0090608 46.4061765,58.9542385 46.88,59.93 L24.78,59.99 C24.7,59.69 23.19,53.81 19.85,52.3 C19.23,52.52 18.57,52.74 17.9,52.97 C17.5823905,52.6995596 17.2290765,52.4741116 16.85,52.3 C14.44,53.14 11.5,54.11 9.27,54.67 C8.62676625,54.2742562 8.14753634,53.660132 7.92,52.94 C7.65806229,52.2276891 7.56229323,51.4649569 7.64,50.71 C7.87036773,49.9391054 7.94848689,49.1307419 7.87,48.33 C7.61,47.32 6.65,47.07 5.89,46.53 C5.27,46.09 6.38,44.68 6.38,44.68 C6.38,44.68 5.2,43.81 4.78,43.43 C4.34,43.07 4.96,42.45 5.51,41.28 C5.73694079,40.7719796 5.80323378,40.2067446 5.7,39.66 C5.49,38.59 3.87,38.18 3.07,37.59 C2.69,37.31 2.08,36.89 2.01,36.38 C1.9,35.67 2.74,34.67 3.15,34.17 C4.89454657,31.9217816 6.38996718,29.4908848 7.61,26.92 C7.77010631,26.6486227 7.86589137,26.3441631 7.89,26.03 C7.87,24.6 5.8,24.01 5.61,22.62 C5.58022555,22.2120559 5.65239212,21.803112 5.82,21.43 C6.39667192,20.2042401 6.89109856,18.9414478 7.3,17.65 C7.54612792,16.4653226 7.86336869,15.2965408 8.25,14.15 C9.08859812,11.8496676 10.3808376,9.74127689 12.05,7.95 C14.5,5.36 18.12,4.08 21.54,3.4 C24.5813721,2.73504394 27.6655865,2.28393999 30.77,2.05 C35.93,2.37 40.25,4.44 44.49,7.76 C47.1927291,9.77631392 49.1683037,12.6151058 50.12,15.85 C50.8451888,18.5213389 51.1852867,21.2825294 51.13,24.05 C51.110834,26.7831121 50.3129958,29.4541358 48.83,31.75 C47.34,34.1 45.39,36.14 44.26,38.71 Z" id="Shape" fill="#3F51B5"/><path d="M60,20 C60,20.33 59.99,20.67 59.97,21 C59.8845305,22.6174027 59.5783629,24.2155305 59.06,25.75 C58.8515975,26.3827247 58.6010363,27.0007755 58.31,27.6 C57.5711831,29.204758 56.593413,30.6882712 55.41,32 C54.9704785,32.4995211 54.4995211,32.9704785 54,33.41 C52.6882712,34.593413 51.204758,35.5711831 49.6,36.31 C49.0007755,36.6010363 48.3827247,36.8515975 47.75,37.06 C46.2155305,37.5783629 44.6174027,37.8845305 43,37.97 C42.67,37.99 42.33,38 42,38 C41.67,38 41.33,37.99 41,37.97 L40.5,37.94 C39.0525122,37.8227178 37.625045,37.5271481 36.25,37.06 C35.6172753,36.8515975 34.9992245,36.6010363 34.4,36.31 C32.795242,35.5711831 31.3117288,34.593413 30,33.41 C29.5004789,32.9704785 29.0295215,32.4995211 28.59,32 C27.406587,30.6882712 26.4288169,29.204758 25.69,27.6 C25.3989637,27.0007755 25.1484025,26.3827247 24.94,25.75 C24.4216371,24.2155305 24.1154695,22.6174027 24.03,21 C24.01,20.67 24,20.33 24,20 C24,19.67 24.01,19.33 24.03,19 C24.1154695,17.3825973 24.4216371,15.7844695 24.94,14.25 C25.1484025,13.6172753 25.3989637,12.9992245 25.69,12.4 C26.4288169,10.795242 27.406587,9.31172879 28.59,8 C29.0295215,7.50047891 29.5004789,7.02952148 30,6.59 C31.3117288,5.40658698 32.795242,4.42881693 34.4,3.69 C34.9992245,3.39896368 35.6172753,3.14840254 36.25,2.94 C37.625045,2.47285191 39.0525122,2.17728223 40.5,2.06 L41,2.03 C41.33,2.01 41.67,2 42,2 C42.33,2 42.67,2.01 43,2.03 C44.6174027,2.11546946 46.2155305,2.4216371 47.75,2.94 C48.3827247,3.14840254 49.0007755,3.39896368 49.6,3.69 C51.204758,4.42881693 52.6882712,5.40658698 54,6.59 C54.4995211,7.02952148 54.9704785,7.50047891 55.41,8 C56.593413,9.31172879 57.5711831,10.795242 58.31,12.4 C58.6010363,12.9992245 58.8515975,13.6172753 59.06,14.25 C59.5783629,15.7844695 59.8845305,17.3825973 59.97,19 C59.99,19.33 60,19.67 60,20 Z" id="Shape" fill="#F57C00"/><path d="M57,20 C57,20.33 56.99,20.67 56.97,21 C56.8845305,22.6174027 56.5783629,24.2155305 56.06,25.75 C55.8515975,26.3827247 55.6010363,27.0007755 55.31,27.6 C54.5711831,29.204758 53.593413,30.6882712 52.41,32 C51.9704785,32.4995211 51.4995211,32.9704785 51,33.41 C49.6882712,34.593413 48.204758,35.5711831 46.6,36.31 C46.0007755,36.6010363 45.3827247,36.8515975 44.75,37.06 C43.374955,37.5271481 41.9474878,37.8227178 40.5,37.94 C39.0525122,37.8227178 37.625045,37.5271481 36.25,37.06 C35.6172753,36.8515975 34.9992245,36.6010363 34.4,36.31 C32.795242,35.5711831 31.3117288,34.593413 30,33.41 C29.5004789,32.9704785 29.0295215,32.4995211 28.59,32 C27.406587,30.6882712 26.4288169,29.204758 25.69,27.6 C25.3989637,27.0007755 25.1484025,26.3827247 24.94,25.75 C24.4216371,24.2155305 24.1154695,22.6174027 24.03,21 C24.01,20.67 24,20.33 24,20 C24,19.67 24.01,19.33 24.03,19 C24.1154695,17.3825973 24.4216371,15.7844695 24.94,14.25 C25.1484025,13.6172753 25.3989637,12.9992245 25.69,12.4 C26.4288169,10.795242 27.406587,9.31172879 28.59,8 C29.0295215,7.50047891 29.5004789,7.02952148 30,6.59 C31.3117288,5.40658698 32.795242,4.42881693 34.4,3.69 C34.9992245,3.39896368 35.6172753,3.14840254 36.25,2.94 C37.625045,2.47285191 39.0525122,2.17728223 40.5,2.06 C41.9474878,2.17728223 43.374955,2.47285191 44.75,2.94 C45.3827247,3.14840254 46.0007755,3.39896368 46.6,3.69 C48.204758,4.42881693 49.6882712,5.40658698 51,6.59 C51.4995211,7.02952148 51.9704785,7.50047891 52.41,8 C53.593413,9.31172879 54.5711831,10.795242 55.31,12.4 C55.6010363,12.9992245 55.8515975,13.6172753 56.06,14.25 C56.5783629,15.7844695 56.8845305,17.3825973 56.97,19 C56.99,19.33 57,19.67 57,20 Z" id="Shape" fill="#FF9801"/><path d="M56,20 C55.9917327,27.7285595 49.7285595,33.9917327 42,34 C41.5056264,33.9985479 41.0116496,33.9718465 40.52,33.92 C33.4065316,33.1640529 28.0071639,27.1669944 27.9994553,20.0134758 C27.9917468,12.8599572 33.3781773,6.85127606 40.49,6.08 C40.9916833,6.02815565 41.4956471,6.00145557 42,6 C45.7138443,5.99734441 49.2763423,7.47148738 51.9024274,10.0975726 C54.5285126,12.7236577 56.0026556,16.2861557 56,20 Z" id="Shape" fill="#FFDC00"/><path d="M53,20 C52.9936425,27.1417806 47.6187186,33.136888 40.52,33.92 C33.4065316,33.1640529 28.0071639,27.1669944 27.9994553,20.0134758 C27.9917468,12.8599572 33.3781773,6.85127606 40.49,6.08 C47.6070994,6.83623832 53.0052717,12.8428377 53,20 Z" id="Shape" fill="#FFEB3A"/><path d="M56,20 C55.9971632,26.0186871 52.1478559,31.3620272 46.4398434,33.2707431 C40.7318309,35.1794589 34.4426476,33.2263528 30.82,28.42 C34.4,23.2 41.82,16.14 55.27,15.53 C55.753405,16.9707328 55.999939,18.4803319 56,20 Z" id="Shape" fill="#FFDC00"/><path d="M10.51,56 C8.86087491,55.9693546 7.42607373,54.8630997 6.977,53.276 C6.66129272,52.4153284 6.54869822,51.4933539 6.648,50.582 C6.682,50.319 6.739,50.051 6.798,49.782 C6.91957463,49.3942994 6.95372661,48.9844757 6.898,48.582 C6.817,48.269 6.587,48.112 5.998,47.775 C5.764,47.643 5.527,47.506 5.305,47.351 C4.98004672,47.1184091 4.7654898,46.7620202 4.712,46.366 C4.67342776,45.8633103 4.78664708,45.3606165 5.037,44.923 C4.697,44.661 4.324,44.367 4.108,44.172 C3.183,43.419 3.797,42.335 4.163,41.688 C4.298,41.449 4.454,41.175 4.603,40.855 C4.7406535,40.5375296 4.78035002,40.1861805 4.717,39.846 C4.666,39.587 3.941,39.217 3.508,38.995 C3.1463953,38.8239078 2.79954825,38.6232248 2.471,38.395 C1.75491753,37.989076 1.2320576,37.312349 1.02,36.517 C0.86,35.486 1.62,34.458 2.345,33.575 C4.05537424,31.3696418 5.52223551,28.9857827 6.72,26.465 C6.7962489,26.3284357 6.85344643,26.1820774 6.89,26.03 C6.89,25.755 6.565,25.438 6.076,24.99 C5.33743403,24.444388 4.82018041,23.6509345 4.619,22.755 C4.56187795,22.1842411 4.65280141,21.6083925 4.883,21.083 C5.062,20.61 5.266,20.155 5.469,19.699 C5.82521775,18.9684587 6.1121406,18.2061211 6.326,17.422 L6.426,17.001 C6.65555173,15.9194988 6.95144435,14.8531499 7.312,13.808 C8.194025,11.3785037 9.55838496,9.15253225 11.323,7.264 C13.56,4.9 16.837,3.315 21.345,2.42 C24.5310192,1.72102869 27.7640329,1.25678222 31.018,1.031 C33.2481927,0.910964707 35.4841368,1.10792711 37.659,1.616 C38.1966492,1.74274935 38.5297494,2.2813508 38.403,2.819 C38.2762506,3.3566492 37.7376492,3.68974935 37.2,3.563 C35.208754,3.09643942 33.161085,2.91662439 31.119,3.029 C27.9639482,3.25042526 24.8292785,3.7019594 21.74,4.38 C17.704,5.18 14.69,6.614 12.776,8.638 C11.1965737,10.3297768 9.97605163,12.3238404 9.188,14.5 C8.85627171,15.4682024 8.58376811,16.455694 8.372,17.457 L8.272,17.882 C8.03336932,18.7891867 7.70786465,19.6712641 7.3,20.516 C7.111,20.937 6.923,21.357 6.76,21.785 C6.66368284,22.0012793 6.61068412,22.2343377 6.604,22.471 C6.649,22.796 7.03,23.146 7.434,23.517 C8.25973785,24.0997313 8.79260356,25.011548 8.895,26.017 C8.87592261,26.4907772 8.74429154,26.9531999 8.511,27.366 C7.25523043,30.0023143 5.71759593,32.4948514 3.925,34.8 C3.163,35.727 3.005,36.1 3,36.246 C3.18538937,36.42495 3.38616343,36.5872424 3.6,36.731 C3.860901,36.9138012 4.13689862,37.0740471 4.425,37.21 C5.278,37.646 6.447,38.244 6.687,39.465 C6.82965982,40.2207273 6.73644627,41.0020454 6.42,41.703 C6.245,42.073 6.066,42.393 5.909,42.669 C5.86,42.755 5.809,42.851 5.759,42.938 C6.174,43.271 6.739,43.695 6.979,43.872 C7.19743076,44.0334948 7.34076225,44.2769033 7.37603403,44.5462515 C7.41130582,44.8155997 7.33548237,45.0877071 7.166,45.3 C7.01745938,45.4932548 6.88817724,45.7005751 6.78,45.919 L6.987,46.038 C7.87214829,46.4181888 8.54813158,47.1646174 8.839,48.083 C8.98560816,48.7886806 8.95572393,49.5196421 8.752,50.211 C8.706,50.42 8.658,50.629 8.632,50.838 C8.57293656,51.442812 8.65332951,52.0531143 8.867,52.622 C9.08565375,53.5453556 9.99320419,54.1323088 10.925,53.953 C13.8394785,53.2531668 16.7109576,52.3850452 19.525,51.353 C20.046119,51.1733515 20.6143419,51.4492734 20.7954169,51.9698984 C20.9764919,52.4905235 20.7021272,53.0594999 20.182,53.242 C17.2880366,54.3037267 14.3338934,55.1936093 11.335,55.907 C11.0640098,55.9667703 10.7874959,55.9979409 10.51,56 Z M5.41,42.659 C5.42066667,42.6683333 5.43166667,42.6783333 5.443,42.689 C5.4338037,42.6766799 5.42342061,42.665292 5.412,42.655 L5.41,42.659 Z" id="Shape" fill="#000000"/><path d="M24.78,61 C24.3191958,60.9997651 23.9182106,60.6846758 23.809,60.237 C23.421,58.657 21.88,54.314 19.438,53.211 C19.0639436,53.0419148 18.8312137,52.6614066 18.8510746,52.25139 C18.8709354,51.8413735 19.1393525,51.4851405 19.528,51.353 C20.586,50.993 21.544,50.659 22.293,50.397 C22.968,50.161 23.476,49.984 23.742,49.897 C27.901,48.583 28.742,47.082 28.72,46.053 C28.7138345,45.7872547 28.8137271,45.5299897 28.9976105,45.338038 C29.1814939,45.1460862 29.4342349,45.0352448 29.7,45.03 C30.2499607,45.0236815 30.7044905,45.4573492 30.724,46.007 C30.782,48.499 28.64,50.45 24.355,51.807 C24.103,51.889 23.61,52.061 22.955,52.289 L22.019,52.616 C23.6689182,54.4436238 24.8727555,56.6288093 25.536,59 L48.218,58.937 C48.196,58.903 48.175,58.87 48.153,58.837 C47.8640706,58.4187931 47.6044495,57.9810793 47.376,57.527 C46.878203,56.5190177 46.4631695,55.4722371 46.135,54.397 C45.5286533,52.3502738 45.1076238,50.2531587 44.877,48.131 C44.4831254,44.7858591 44.989208,41.3962101 46.343,38.312 C46.6408122,37.6364841 46.9901774,36.984893 47.388,36.363 C47.691891,35.9146666 48.2974787,35.7897606 48.753965,36.0812616 C49.2104513,36.3727626 49.3518924,36.9747031 49.073,37.439 C48.7310162,37.9747798 48.4301536,38.5357213 48.173,39.117 C46.9624707,41.8727389 46.5098764,44.9017715 46.862,47.891 C47.077909,49.8945191 47.473842,51.8745187 48.045,53.807 C48.343388,54.7847639 48.7209713,55.7365816 49.174,56.653 C49.3652231,57.0285796 49.5817208,57.3907455 49.822,57.737 C50.2468059,58.319716 50.5874808,58.9593229 50.834,59.637 C50.9294293,59.9404437 50.8747998,60.2711879 50.6868608,60.5278273 C50.4989218,60.7844667 50.200095,60.9363833 49.882,60.937 L24.782,61.007 L24.78,61 Z" id="Shape" fill="#000000"/><path d="M11.194,19.566 C10.8886297,19.5661035 10.5999486,19.4266722 10.4101849,19.1874218 C10.2204211,18.9481714 10.1503755,18.6353272 10.22,18.338 L10.32,17.905 C10.5133176,16.9892519 10.7604123,16.0856868 11.06,15.199 C11.7555725,13.2746582 12.8327926,11.5106976 14.227,10.013 C15.7598052,8.53542525 17.6474938,7.47775479 19.708,6.942 C20.0499032,6.8380357 20.421299,6.9243719 20.6822863,7.16848659 C20.9432736,7.41260128 21.0542022,7.77740763 20.9732863,8.12548661 C20.8923705,8.47356559 20.6319032,8.75203572 20.29,8.856 C18.5631668,9.29332387 16.9766775,10.1645333 15.681,11.387 C14.4727916,12.6870326 13.5394807,14.2176081 12.937,15.887 C12.6665339,16.6963982 12.4431601,17.5207777 12.268,18.356 L12.168,18.791 C12.0632698,19.2445327 11.6594679,19.565833 11.194,19.566 Z" id="Shape" fill="#000000"/><circle id="Oval" fill="#000000" cx="10" cy="22" r="1"/><path d="M42,39 C31.5065898,39 23,30.4934102 23,20 C23,9.50658975 31.5065898,1 42,1 C52.4934102,1 61,9.50658975 61,20 C60.9884265,30.4886126 52.4886126,38.9884265 42,39 Z M42,3 C32.6111593,3 25,10.6111593 25,20 C25,29.3888407 32.6111593,37 42,37 C51.3888407,37 59,29.3888407 59,20 C58.989529,10.6154999 51.3845001,3.01047101 42,3 Z" id="Shape" fill="#000000"/><path d="M42,35 C33.7157288,35 27,28.2842712 27,20 C27,11.7157288 33.7157288,5 42,5 C50.2842712,5 57,11.7157288 57,20 C56.9906315,28.2803876 50.2803876,34.9906315 42,35 Z M42,7 C34.8202983,7 29,12.8202983 29,20 C29,27.1797017 34.8202983,33 42,33 C49.1797017,33 55,27.1797017 55,20 C54.991734,12.8237249 49.1762751,7.00826602 42,7 Z" id="Shape" fill="#000000"/><path d="M42,7 C41.4477153,7 41,6.55228475 41,6 L41,2 C41,1.44771525 41.4477153,1 42,1 C42.5522847,1 43,1.44771525 43,2 L43,6 C43,6.55228475 42.5522847,7 42,7 Z" id="Shape" fill="#000000"/><path d="M42,39 C41.4477153,39 41,38.5522847 41,38 L41,34 C41,33.4477153 41.4477153,33 42,33 C42.5522847,33 43,33.4477153 43,34 L43,38 C43,38.5522847 42.5522847,39 42,39 Z" id="Shape" fill="#000000"/><path d="M28,21 L24,21 C23.4477153,21 23,20.5522847 23,20 C23,19.4477153 23.4477153,19 24,19 L28,19 C28.5522847,19 29,19.4477153 29,20 C29,20.5522847 28.5522847,21 28,21 Z" id="Shape" fill="#000000"/><path d="M60,21 L56,21 C55.4477153,21 55,20.5522847 55,20 C55,19.4477153 55.4477153,19 56,19 L60,19 C60.5522847,19 61,19.4477153 61,20 C61,20.5522847 60.5522847,21 60,21 Z" id="Shape" fill="#000000"/><path d="M32.1,11.1 C31.8348052,11.0999434 31.5804927,10.9945494 31.393,10.807 L28.565,7.979 C28.3050434,7.72792553 28.2007874,7.35612211 28.2923028,7.00649268 C28.3838183,6.65686324 28.6568632,6.38381828 29.0064927,6.29230284 C29.3561221,6.2007874 29.7279255,6.30504342 29.979,6.565 L32.808,9.394 C33.0933222,9.68021606 33.1783185,10.1100368 33.0234088,10.483308 C32.8684991,10.8565792 32.5041391,11.0999144 32.1,11.1 Z" id="Shape" fill="#000000"/><path d="M54.728,33.728 C54.4628052,33.7279434 54.2084927,33.6225494 54.021,33.435 L51.192,30.606 C50.8130278,30.2136211 50.8184476,29.5899152 51.2041814,29.2041814 C51.5899152,28.8184476 52.2136211,28.8130278 52.606,29.192 L55.435,32.021 C55.7209079,32.3069943 55.8064219,32.7370366 55.651678,33.1106546 C55.4969341,33.4842725 55.1323959,33.7279137 54.728,33.728 Z" id="Shape" fill="#000000"/><path d="M29.272,33.728 C28.8676041,33.7279137 28.5030659,33.4842725 28.348322,33.1106546 C28.1935781,32.7370366 28.2790921,32.3069943 28.565,32.021 L31.394,29.192 C31.7863789,28.8130278 32.4100848,28.8184476 32.7958186,29.2041814 C33.1815524,29.5899152 33.1869722,30.2136211 32.808,30.606 L29.979,33.435 C29.7915073,33.6225494 29.5371948,33.7279434 29.272,33.728 Z" id="Shape" fill="#000000"/><path d="M51.9,11.1 C51.4956041,11.0999137 51.1310659,10.8562725 50.976322,10.4826546 C50.8215781,10.1090366 50.9070921,9.67899425 51.193,9.393 L54.022,6.564 C54.2730745,6.30404342 54.6448779,6.1997874 54.9945073,6.29130284 C55.3441368,6.38281828 55.6171817,6.65586324 55.7086972,7.00549268 C55.8002126,7.35512211 55.6959566,7.72692553 55.436,7.978 L52.606,10.808 C52.4185889,10.9949379 52.1647049,11.0999438 51.9,11.1 Z" id="Shape" fill="#000000"/><path d="M29,15.8 C28.8728501,15.800121 28.7468745,15.7756729 28.629,15.728 L24.915,14.243 C24.5776983,14.1143314 24.3359332,13.8138501 24.2824486,13.4568243 C24.228964,13.0997985 24.3720643,12.741662 24.6568545,12.5198003 C24.9416446,12.2979387 25.3239066,12.2467994 25.657,12.386 L29.371,13.871 C29.8167411,14.0485664 30.0735436,14.5176947 29.9829242,14.9888667 C29.8923048,15.4600387 29.479807,15.8004421 29,15.8 Z" id="Shape" fill="#000000"/><path d="M58.713,27.685 C58.5858501,27.685121 58.4598745,27.6606729 58.342,27.613 L54.628,26.128 C54.2906983,25.9993314 54.0489332,25.6988501 53.9954486,25.3418243 C53.941964,24.9847985 54.0850643,24.626662 54.3698545,24.4048003 C54.6546446,24.1829387 55.0369066,24.1317994 55.37,24.271 L59.084,25.756 C59.5297411,25.9335664 59.7865436,26.4026947 59.6959242,26.8738667 C59.6053048,27.3450387 59.192807,27.6854421 58.713,27.685 Z" id="Shape" fill="#000000"/><path d="M35.315,37.713 C34.9833627,37.7127901 34.6734024,37.5481789 34.4875061,37.2735411 C34.3016097,36.9989033 34.2639625,36.6499694 34.387,36.342 L35.872,32.628 C36.0006686,32.2906983 36.3011499,32.0489332 36.6581757,31.9954486 C37.0152015,31.941964 37.373338,32.0850643 37.5951997,32.3698545 C37.8170613,32.6546446 37.8682006,33.0369066 37.729,33.37 L36.244,37.084 C36.0921898,37.4639891 35.7241919,37.7131502 35.315,37.713 Z" id="Shape" fill="#000000"/><path d="M47.2,8 C47.0729133,8.00046396 46.9469353,7.97635497 46.829,7.929 C46.5827357,7.83048552 46.3856972,7.63817058 46.2812375,7.39436863 C46.1767777,7.15056669 46.1734549,6.87525208 46.272,6.629 L47.757,2.915 C47.8856686,2.57769832 48.1861499,2.33593316 48.5431757,2.28244857 C48.9002015,2.22896399 49.258338,2.3720643 49.4801997,2.65685447 C49.7020613,2.94164464 49.7532006,3.32390661 49.614,3.657 L48.128,7.372 C47.9760081,7.75125769 47.6085804,7.99990491 47.2,8 Z" id="Shape" fill="#000000"/><path d="M55,15.8 C54.520193,15.8004421 54.1076952,15.4600387 54.0170758,14.9888667 C53.9264564,14.5176947 54.1832589,14.0485664 54.629,13.871 L58.343,12.386 C58.6760934,12.2467994 59.0583554,12.2979387 59.3431455,12.5198003 C59.6279357,12.741662 59.771036,13.0997985 59.7175514,13.4568243 C59.6640668,13.8138501 59.4223017,14.1143314 59.085,14.243 L55.37,15.729 C55.2523696,15.7762044 55.1267481,15.8003102 55,15.8 Z" id="Shape" fill="#000000"/><path d="M25.287,27.685 C24.807193,27.6854421 24.3946952,27.3450387 24.3040758,26.8738667 C24.2134564,26.4026947 24.4702589,25.9335664 24.916,25.756 L28.63,24.271 C28.9630934,24.1317994 29.3453554,24.1829387 29.6301455,24.4048003 C29.9149357,24.626662 30.058036,24.9847985 30.0045514,25.3418243 C29.9510668,25.6988501 29.7093017,25.9993314 29.372,26.128 L25.658,27.613 C25.5401255,27.6606729 25.4141499,27.685121 25.287,27.685 Z" id="Shape" fill="#000000"/><path d="M48.685,37.713 C48.2758081,37.7131502 47.9078102,37.4639891 47.756,37.084 L46.271,33.37 C46.1317994,33.0369066 46.1829387,32.6546446 46.4048003,32.3698545 C46.626662,32.0850643 46.9847985,31.941964 47.3418243,31.9954486 C47.6988501,32.0489332 47.9993314,32.2906983 48.128,32.628 L49.613,36.342 C49.7360375,36.6499694 49.6983903,36.9989033 49.5124939,37.2735411 C49.3265976,37.5481789 49.0166373,37.7127901 48.685,37.713 Z" id="Shape" fill="#000000"/><path d="M36.8,8 C36.3908081,8.00015022 36.0228102,7.7509891 35.871,7.371 L34.387,3.658 C34.2477994,3.32490661 34.2989387,2.94264464 34.5208003,2.65785447 C34.742662,2.3730643 35.1007985,2.22996399 35.4578243,2.28344857 C35.8148501,2.33693316 36.1153314,2.57869832 36.244,2.916 L37.729,6.63 C37.8275451,6.87625208 37.8242223,7.15156669 37.7197625,7.39536863 C37.6153028,7.63917058 37.4182643,7.83148552 37.172,7.93 C37.0536847,7.97713974 36.9273572,8.00091104 36.8,8 Z" id="Shape" fill="#000000"/><path d="M44,29 L37,29 C36.4477153,29 36,28.5522847 36,28 C36,27.4477153 36.4477153,27 37,27 L44,27 C45.1045695,27 46,26.1045695 46,25 L46,23 C46,21.8954305 45.1045695,21 44,21 L40,21 C37.790861,21 36,19.209139 36,17 L36,15 C36,12.790861 37.790861,11 40,11 L47,11 C47.5522847,11 48,11.4477153 48,12 C48,12.5522847 47.5522847,13 47,13 L40,13 C38.8954305,13 38,13.8954305 38,15 L38,17 C38,18.1045695 38.8954305,19 40,19 L44,19 C46.209139,19 48,20.790861 48,23 L48,25 C48,27.209139 46.209139,29 44,29 Z" id="Shape" fill="#000000"/><path d="M42,31 C41.4477153,31 41,30.5522847 41,30 L41,10 C41,9.44771525 41.4477153,9 42,9 C42.5522847,9 43,9.44771525 43,10 L43,30 C43,30.5522847 42.5522847,31 42,31 Z" id="Shape" fill="#000000"/></g></g></svg>
