<?xml version="1.0" encoding="UTF-8"?>
<svg xmlns="http://www.w3.org/2000/svg" xmlns:xlink="http://www.w3.org/1999/xlink" width="512" height="512" viewBox="0 0 60 60" version="1.1"><!-- Generator: Sketch 51.3 (57544) - http://www.bohemiancoding.com/sketch --><title>047 - Observation</title><desc>Created with Sketch.</desc><defs/><g id="Page-1" stroke="none" stroke-width="1" fill="none" fill-rule="evenodd"><g id="047---Observation" transform="translate(-1.000000, -1.000000)" fill-rule="nonzero"><path d="M47.26,38.71 C45.9803538,41.6319437 45.5006323,44.8415908 45.87,48.01 C46.0951005,50.0721875 46.5033794,52.1102353 47.09,54.1 C47.4048963,55.1305317 47.802868,56.1338218 48.28,57.1 C48.8718004,58.0090608 49.4061765,58.9542385 49.88,59.93 L24.78,60 L24.78,59.99 C24.7,59.69 23.19,53.81 19.85,52.3 C19.23,52.52 18.57,52.74 17.9,52.97 C15.6789002,53.7404523 13.4191713,54.3946722 11.13,54.93 C10.4993821,55.0806865 9.83512584,54.9878335 9.27,54.67 C8.62676625,54.2742562 8.14753634,53.660132 7.92,52.94 C7.65806229,52.2276891 7.56229323,51.4649569 7.64,50.71 C7.87036773,49.9391054 7.94848689,49.1307419 7.87,48.33 C7.61,47.32 6.65,47.07 5.89,46.53 C5.27,46.09 6.38,44.68 6.38,44.68 C6.38,44.68 5.2,43.81 4.78,43.43 C4.34,43.07 4.96,42.45 5.51,41.28 C5.73694079,40.7719796 5.80323378,40.2067446 5.7,39.66 C5.49,38.59 3.87,38.18 3.07,37.59 C2.69,37.31 2.08,36.89 2.01,36.38 C1.9,35.67 2.74,34.67 3.15,34.17 C4.89454657,31.9217816 6.38996718,29.4908848 7.61,26.92 C7.77010631,26.6486227 7.86589137,26.3441631 7.89,26.03 C7.87,24.6 5.8,24.01 5.61,22.62 C5.58022555,22.2120559 5.65239212,21.803112 5.82,21.43 C6.39667192,20.2042401 6.89109856,18.9414478 7.3,17.65 C7.54612792,16.4653226 7.86336869,15.2965408 8.25,14.15 C9.08859812,11.8496676 10.3808376,9.74127689 12.05,7.95 C14.5,5.36 18.12,4.08 21.54,3.4 C24.5813721,2.73504394 27.6655865,2.28393999 30.77,2.05 C30.87,2.04 30.97,2.04 31.07,2.03 C37.47,1.71 42.53,3.88 47.49,7.76 C50.1927291,9.77631392 52.1683037,12.6151058 53.12,15.85 C53.8451888,18.5213389 54.1852867,21.2825294 54.13,24.05 C54.110834,26.7831121 53.3129958,29.4541358 51.83,31.75 C50.34,34.1 48.39,36.14 47.26,38.71 Z" id="Shape" fill="#283593"/><path d="M44.26,38.71 C42.9803538,41.6319437 42.5006323,44.8415908 42.87,48.01 C43.0951005,50.0721875 43.5033794,52.1102353 44.09,54.1 C44.4048963,55.1305317 44.802868,56.1338218 45.28,57.1 C45.8718004,58.0090608 46.4061765,58.9542385 46.88,59.93 L24.78,59.99 C24.7,59.69 23.19,53.81 19.85,52.3 C19.23,52.52 18.57,52.74 17.9,52.97 C17.5823905,52.6995596 17.2290765,52.4741116 16.85,52.3 C14.44,53.14 11.5,54.11 9.27,54.67 C8.62676625,54.2742562 8.14753634,53.660132 7.92,52.94 C7.65806229,52.2276891 7.56229323,51.4649569 7.64,50.71 C7.87036773,49.9391054 7.94848689,49.1307419 7.87,48.33 C7.61,47.32 6.65,47.07 5.89,46.53 C5.27,46.09 6.38,44.68 6.38,44.68 C6.38,44.68 5.2,43.81 4.78,43.43 C4.34,43.07 4.96,42.45 5.51,41.28 C5.73694079,40.7719796 5.80323378,40.2067446 5.7,39.66 C5.49,38.59 3.87,38.18 3.07,37.59 C2.69,37.31 2.08,36.89 2.01,36.38 C1.9,35.67 2.74,34.67 3.15,34.17 C4.89454657,31.9217816 6.38996718,29.4908848 7.61,26.92 C7.77010631,26.6486227 7.86589137,26.3441631 7.89,26.03 C7.87,24.6 5.8,24.01 5.61,22.62 C5.58022555,22.2120559 5.65239212,21.803112 5.82,21.43 C6.39667192,20.2042401 6.89109856,18.9414478 7.3,17.65 C7.54612792,16.4653226 7.86336869,15.2965408 8.25,14.15 C9.08859812,11.8496676 10.3808376,9.74127689 12.05,7.95 C14.5,5.36 18.12,4.08 21.54,3.4 C24.5813721,2.73504394 27.6655865,2.28393999 30.77,2.05 C35.93,2.37 40.25,4.44 44.49,7.76 C47.1927291,9.77631392 49.1683037,12.6151058 50.12,15.85 C50.8451888,18.5213389 51.1852867,21.2825294 51.13,24.05 C51.110834,26.7831121 50.3129958,29.4541358 48.83,31.75 C47.34,34.1 45.39,36.14 44.26,38.71 Z" id="Shape" fill="#3F51B5"/><path d="M53.88,23.69 C56.1267329,22.0286087 58.1796181,20.1199622 60,18 C58.1796181,15.8800378 56.1267329,13.9713913 53.88,12.31 L53.88,23.69 Z" id="Shape" fill="#EF314C"/><path d="M26.12,23.69 C23.8732671,22.0286087 21.8203819,20.1199622 20,18 C21.8203819,15.8800378 23.8732671,13.9713913 26.12,12.31 L26.12,23.69 Z" id="Shape" fill="#EF314C"/><path d="M55,18 C54.9972403,26.2831279 48.2831279,32.9972403 40,33 C39.5088158,33.0038156 39.0178692,32.9770974 38.53,32.92 C38.51,32.92 38.49,32.93 38.47,32.92 C30.825708,32.1273267 25.0171264,25.6852802 25.0171264,18 C25.0171264,10.3147198 30.825708,3.87267331 38.47,3.08 C38.49,3.07 38.51,3.08 38.53,3.08 C39.0178692,3.02290259 39.5088158,2.99618441 40,3 C48.2831279,3.00275966 54.9972403,9.71687211 55,18 Z" id="Shape" fill="#CFD8DC"/><path d="M52,18 C51.9935489,25.6890571 46.1783891,32.1301992 38.53,32.92 C38.51,32.92 38.49,32.93 38.47,32.92 C30.825708,32.1273267 25.0171264,25.6852802 25.0171264,18 C25.0171264,10.3147198 30.825708,3.87267331 38.47,3.08 C38.49,3.07 38.51,3.08 38.53,3.08 C46.1783891,3.8698008 51.9935489,10.3109429 52,18 Z" id="Shape" fill="#F5F5F5"/><path d="M58,49.18 C57.3549477,49.5595595 56.5878668,49.6742631 55.86,49.5 C55.1745519,49.3539505 54.562219,48.9716849 54.13,48.42 L54.1,48.37 C54.0243658,48.2798349 53.9574027,48.1827385 53.9,48.08 L48.9,39.42 C48.6276996,38.9390205 48.7925843,38.3285014 49.27,38.05 L50.78,37.18 L52.73,36.05 C53.2109795,35.7776996 53.8214986,35.9425843 54.1,36.42 L55.23,38.37 L59.1,45.08 C59.9252757,46.5163528 59.4334186,48.3496384 58,49.18 Z" id="Shape" fill="#0377BC"/><path d="M55.86,49.5 C55.1745519,49.3539505 54.562219,48.9716849 54.13,48.42 L54.1,48.37 C54.0243658,48.2798349 53.9574027,48.1827385 53.9,48.08 L48.9,39.42 C48.6276996,38.9390205 48.7925843,38.3285014 49.27,38.05 L50.78,37.18 C50.9145717,37.2545382 51.0254618,37.3654283 51.1,37.5 L52.23,39.45 L56.1,46.16 C56.7099657,47.2177896 56.6149359,48.5402872 55.86,49.5 Z" id="Shape" fill="#02A9F4"/><circle id="Oval" fill="#7F8C8D" cx="40" cy="18" r="12"/><path d="M51,18 C50.9908988,23.5784264 46.801083,28.2637768 41.2583423,28.8938156 C35.7156015,29.5238543 30.5811024,25.8983911 29.32022,20.4643227 C28.0593376,15.0302543 31.0727083,9.5142175 36.3265487,7.63909472 C41.5803891,5.76397195 47.4053284,8.12557016 49.87,13.13 C50.6156612,14.6450141 51.0023241,16.3114287 51,18 Z" id="Shape" fill="#00BCD4"/><path d="M51,18 C50.9969918,22.5901953 48.1439983,26.6959648 43.8430505,28.2996325 C39.5421027,29.9033003 34.6975004,28.6676857 31.69,25.2 C33.0636149,22.6477731 34.8744042,20.3563631 37.04,18.43 C38.3945862,17.2361451 39.8968716,16.2211782 41.51,15.41 C44.1230027,14.1165264 46.9621111,13.3422241 49.87,13.13 C50.6142388,14.6455212 51.0008237,16.3115998 51,18 Z" id="Shape" fill="#00838F"/><path d="M41.51,15.41 C39.8968716,16.2211782 38.3945862,17.2361451 37.04,18.43 C37.0113697,18.2885034 36.9979601,18.1443497 37,18 C37.0008146,16.9265449 37.5751199,15.9353302 38.5059949,15.4007478 C39.4368699,14.8661655 40.5824356,14.8696938 41.51,15.41 Z" id="Shape" fill="#35495E"/><path d="M43,18 C42.9714577,19.5516279 41.7642563,20.8253715 40.2163893,20.9370465 C38.6685222,21.0487215 37.29098,19.961461 37.04,18.43 C38.3945862,17.2361451 39.8968716,16.2211782 41.51,15.41 C42.433064,15.9457864 43.0008293,16.9327074 43,18 Z" id="Shape" fill="#3F51B5"/><path d="M10.51,56 C8.86087491,55.9693546 7.42607373,54.8630997 6.977,53.276 C6.66125741,52.4153369 6.54866189,51.4933541 6.648,50.582 C6.682,50.319 6.739,50.051 6.798,49.782 C6.91957463,49.3942994 6.95372661,48.9844757 6.898,48.582 C6.817,48.269 6.587,48.112 5.998,47.775 C5.764,47.643 5.527,47.506 5.305,47.351 C4.98004672,47.1184091 4.7654898,46.7620202 4.712,46.366 C4.67342776,45.8633103 4.78664708,45.3606165 5.037,44.923 C4.697,44.661 4.324,44.367 4.108,44.172 C3.183,43.419 3.797,42.335 4.163,41.688 C4.298,41.449 4.454,41.175 4.603,40.855 C4.7406535,40.5375296 4.78035002,40.1861805 4.717,39.846 C4.666,39.587 3.941,39.217 3.508,38.995 C3.1463953,38.8239078 2.79954825,38.6232248 2.471,38.395 C1.75491753,37.989076 1.2320576,37.312349 1.02,36.517 C0.86,35.486 1.62,34.458 2.345,33.575 C4.05537424,31.3696418 5.52223551,28.9857827 6.72,26.465 C6.7962489,26.3284357 6.85344643,26.1820774 6.89,26.03 C6.89,25.755 6.565,25.438 6.076,24.99 C5.33743403,24.444388 4.82018041,23.6509345 4.619,22.755 C4.56187795,22.1842411 4.65280141,21.6083925 4.883,21.083 C5.062,20.61 5.266,20.155 5.469,19.699 C5.82566903,18.9686532 6.11260814,18.2062724 6.326,17.422 L6.426,17.001 C6.65555173,15.9194988 6.95144435,14.8531499 7.312,13.808 C8.194025,11.3785037 9.55838496,9.15253225 11.323,7.264 C13.56,4.9 16.837,3.315 21.345,2.42 C24.5310192,1.72102869 27.7640329,1.25678222 31.018,1.031 C33.8177461,0.869627376 36.6231478,1.22869438 39.292,2.09 C39.6387433,2.19544638 39.9012948,2.48024857 39.9782486,2.83440665 C40.0552024,3.18856474 39.9345124,3.55664014 39.662793,3.79647014 C39.3910737,4.03630013 39.0108589,4.11034263 38.669,3.99 C36.2336739,3.20437368 33.6734808,2.87850009 31.119,3.029 C27.9639482,3.25042526 24.8292785,3.7019594 21.74,4.38 C17.704,5.18 14.69,6.614 12.776,8.638 C11.1965737,10.3297768 9.97605163,12.3238404 9.188,14.5 C8.85627171,15.4682024 8.58376811,16.455694 8.372,17.457 L8.272,17.882 C8.03336932,18.7891867 7.70786465,19.6712641 7.3,20.516 C7.111,20.937 6.923,21.357 6.76,21.785 C6.66368284,22.0012793 6.61068412,22.2343377 6.604,22.471 C6.649,22.796 7.03,23.146 7.434,23.517 C8.25904392,24.1003679 8.79170832,25.0118401 8.895,26.017 C8.87592261,26.4907772 8.74429154,26.9531999 8.511,27.366 C7.25523043,30.0023143 5.71759593,32.4948514 3.925,34.8 C3.163,35.727 3.005,36.1 3,36.246 C3.18538937,36.42495 3.38616343,36.5872424 3.6,36.731 C3.860901,36.9138012 4.13689862,37.0740471 4.425,37.21 C5.278,37.646 6.447,38.244 6.687,39.465 C6.82965982,40.2207273 6.73644627,41.0020454 6.42,41.703 C6.245,42.073 6.066,42.393 5.909,42.669 C5.86,42.755 5.809,42.851 5.759,42.938 C6.174,43.271 6.739,43.695 6.979,43.872 C7.19743076,44.0334948 7.34076225,44.2769033 7.37603403,44.5462515 C7.41130582,44.8155997 7.33548237,45.0877071 7.166,45.3 C7.01745938,45.4932548 6.88817724,45.7005751 6.78,45.919 L6.987,46.038 C7.87214829,46.4181888 8.54813158,47.1646174 8.839,48.083 C8.98560816,48.7886806 8.95572393,49.5196421 8.752,50.211 C8.706,50.42 8.658,50.629 8.632,50.838 C8.57293656,51.442812 8.65332951,52.0531143 8.867,52.622 C9.08520109,53.545675 9.99309856,54.1328526 10.925,53.953 C13.8394785,53.2531668 16.7109576,52.3850452 19.525,51.353 C20.046119,51.1733515 20.6143419,51.4492734 20.7954169,51.9698984 C20.9764919,52.4905235 20.7021272,53.0594999 20.182,53.242 C17.2880366,54.3037267 14.3338934,55.1936093 11.335,55.907 C11.0640098,55.9667703 10.7874959,55.9979409 10.51,56 Z M5.41,42.659 C5.42066667,42.6683333 5.43166667,42.6783333 5.443,42.689 C5.4338037,42.6766799 5.42342061,42.665292 5.412,42.655 L5.41,42.659 Z" id="Shape" fill="#000000"/><path d="M24.78,61 C24.3191958,60.9997651 23.9182106,60.6846758 23.809,60.237 C23.421,58.657 21.88,54.314 19.438,53.211 C19.0639436,53.0419148 18.8312137,52.6614066 18.8510746,52.25139 C18.8709354,51.8413735 19.1393525,51.4851405 19.528,51.353 C20.586,50.993 21.544,50.659 22.293,50.397 C22.968,50.161 23.476,49.984 23.742,49.897 C27.901,48.583 28.742,47.082 28.72,46.053 C28.7138345,45.7872547 28.8137271,45.5299897 28.9976105,45.338038 C29.1814939,45.1460862 29.4342349,45.0352448 29.7,45.03 C30.2493336,45.0252703 30.702933,45.4580501 30.724,46.007 C30.782,48.499 28.64,50.45 24.355,51.807 C24.103,51.889 23.61,52.061 22.955,52.289 L22.019,52.616 C23.6689182,54.4436238 24.8727555,56.6288093 25.536,59 L48.218,58.937 C48.196,58.903 48.175,58.87 48.153,58.837 C47.8640706,58.4187931 47.6044495,57.9810793 47.376,57.527 C46.878203,56.5190177 46.4631695,55.4722371 46.135,54.397 C45.5286533,52.3502738 45.1076238,50.2531587 44.877,48.131 C44.6427337,46.1980968 44.7180111,44.2402093 45.1,42.331 C45.209794,41.7908298 45.7359937,41.4413673 46.2764626,41.5496815 C46.8169315,41.6579958 47.1678337,42.1832365 47.061,42.724 C46.7200689,44.4233985 46.652553,46.1663201 46.861,47.887 C47.076909,49.8905191 47.472842,51.8705187 48.044,53.803 C48.342388,54.7807639 48.7199713,55.7325816 49.173,56.649 C49.3642231,57.0245796 49.5807208,57.3867455 49.821,57.733 C50.2458059,58.315716 50.5864808,58.9553229 50.833,59.633 C50.9284293,59.9364437 50.8737998,60.2671879 50.6858608,60.5238273 C50.4979218,60.7804667 50.199095,60.9323833 49.881,60.933 L24.781,61.003 L24.78,61 Z" id="Shape" fill="#000000"/><path d="M11.194,19.566 C10.8886297,19.5661035 10.5999486,19.4266722 10.4101849,19.1874218 C10.2204211,18.9481714 10.1503755,18.6353272 10.22,18.338 L10.32,17.905 C10.5133176,16.9892519 10.7604123,16.0856868 11.06,15.199 C11.7555725,13.2746582 12.8327926,11.5106976 14.227,10.013 C15.7598052,8.53542525 17.6474938,7.47775479 19.708,6.942 C20.0499032,6.8380357 20.421299,6.9243719 20.6822863,7.16848659 C20.9432736,7.41260128 21.0542022,7.77740763 20.9732863,8.12548661 C20.8923705,8.47356559 20.6319032,8.75203572 20.29,8.856 C18.5631668,9.29332387 16.9766775,10.1645333 15.681,11.387 C14.4727916,12.6870326 13.5394807,14.2176081 12.937,15.887 C12.6665339,16.6963982 12.4431601,17.5207777 12.268,18.356 L12.168,18.791 C12.0632698,19.2445327 11.6594679,19.565833 11.194,19.566 Z" id="Shape" fill="#000000"/><circle id="Oval" fill="#000000" cx="10" cy="22" r="1"/><path d="M53.881,24.69 C53.4505696,24.69 53.0684307,24.4145699 52.9323167,24.0062278 C52.7962027,23.5978856 52.9366557,23.1482582 53.281,22.89 C55.2301299,21.4352686 57.0359827,19.7978459 58.674,18 C57.0365204,16.2029468 55.2313437,14.5661996 53.283,13.112 C52.9962943,12.8987125 52.8451549,12.548671 52.8865146,12.1937328 C52.9278742,11.8387947 53.1554493,11.5328834 53.4835146,11.3912328 C53.8115799,11.2495822 54.1902944,11.2937124 54.477,11.507 C56.7922165,13.2161152 58.9057689,15.1827254 60.777,17.369 C61.0759562,17.7365517 61.0759562,18.2634483 60.777,18.631 C58.9057689,20.8172746 56.7922165,22.7838848 54.477,24.493 C54.3046269,24.6209337 54.0956614,24.6900045 53.881,24.69 Z" id="Shape" fill="#000000"/><path d="M26.119,24.69 C25.9026298,24.69 25.6920962,24.6198221 25.519,24.49 C23.2037835,22.7808848 21.0902311,20.8142746 19.219,18.628 C18.9200438,18.2604483 18.9200438,17.7335517 19.219,17.366 C21.0902311,15.1797254 23.2037835,13.2131152 25.519,11.504 C25.8057056,11.2907124 26.1844201,11.2465822 26.5124854,11.3882328 C26.8405506,11.5298834 27.0681258,11.8357947 27.1094854,12.1907328 C27.150845,12.545671 26.9997056,12.8957124 26.713,13.109 C24.7659105,14.5643479 22.9620753,16.2020977 21.326,18 C22.9634796,19.7970532 24.7686563,21.4338004 26.717,22.888 C27.0613443,23.1462582 27.2017973,23.5958856 27.0656833,24.0042278 C26.9295693,24.4125699 26.5474304,24.688 26.117,24.688 L26.119,24.69 Z" id="Shape" fill="#000000"/><path d="M40.69,8.02 C40.6462167,8.0198271 40.602479,8.01715609 40.559,8.012 C40.5193592,8.00997452 40.4796408,8.00997452 40.44,8.012 C40.247,8 40.129,8 40,8 C39.871,8 39.753,8 39.624,8.008 C39.524,8.008 39.48,8.008 39.441,8.008 C39.1566895,8.04085957 38.871773,7.95167628 38.6569391,7.76257672 C38.4421052,7.57347716 38.3174861,7.30218191 38.314,7.016 C38.3130143,6.48668599 38.7246707,6.04828729 39.253,6.016 C39.353,6.007 39.453,6.005 39.56,6.005 C39.8746801,5.98492337 40.1903199,5.98492337 40.505,6.005 C40.5974927,6.00326606 40.6900038,6.00727376 40.782,6.017 C41.2933249,6.07164035 41.6813365,6.50276435 41.682,7.017 C41.6836686,7.56734484 41.2403298,8.01559975 40.69,8.02 Z" id="Shape" fill="#000000"/><path d="M40,30 C39.888,30 39.768,30 39.653,29.992 C39.5195314,29.994617 39.386017,29.9902778 39.253,29.979 C38.7007153,29.9384071 38.2859071,29.4577847 38.3265,28.9055 C38.3670929,28.3532153 38.8477153,27.9384071 39.4,27.979 C39.4565394,27.9879269 39.5137828,27.9916092 39.571,27.99 C39.6299322,27.9860004 39.6890678,27.9860004 39.748,27.99 C39.83,28 39.92,28 40,28 C40.08,28 40.169,28 40.251,27.994 C40.3098476,27.9880035 40.3691524,27.9880035 40.428,27.994 C40.4798344,27.9958496 40.531728,27.9928364 40.583,27.985 C40.8651535,27.9593036 41.1452053,28.0527064 41.3554465,28.2426262 C41.5656877,28.432546 41.6869807,28.7016949 41.69,28.985 C41.69,29.5372847 41.2422847,29.985 40.69,29.985 L40.68,29.985 C40.569378,29.9962218 40.4581428,30.0002303 40.347,29.997 C40.232,30 40.112,30 40,30 Z" id="Shape" fill="#000000"/><path d="M40,30 C33.372583,30 28,24.627417 28,18 C28,11.372583 33.372583,6 40,6 C46.627417,6 52,11.372583 52,18 C51.9928352,24.624447 46.624447,29.9928352 40,30 Z M40,8 C34.4771525,8 30,12.4771525 30,18 C30,23.5228475 34.4771525,28 40,28 C45.5228475,28 50,23.5228475 50,18 C49.9939376,12.4796656 45.5203344,8.00606237 40,8 Z" id="Shape" fill="#000000"/><path d="M33,19 C32.4477153,19 32,18.5522847 32,18 C32.0049599,13.5837781 35.5837781,10.0049599 40,10 C40.5522847,10 41,10.4477153 41,11 C41,11.5522847 40.5522847,12 40,12 C36.6876624,12.0033074 34.0033074,14.6876624 34,18 C34,18.5522847 33.5522847,19 33,19 Z" id="Shape" fill="#000000"/><path d="M40,21 C38.3431458,21 37,19.6568542 37,18 C37,16.3431458 38.3431458,15 40,15 C41.6568542,15 43,16.3431458 43,18 C43,19.6568542 41.6568542,21 40,21 Z M40,17 C39.4477153,17 39,17.4477153 39,18 C39,18.5522847 39.4477153,19 40,19 C40.5522847,19 41,18.5522847 41,18 C41,17.4477153 40.5522847,17 40,17 Z" id="Shape" fill="#000000"/><path d="M40,34 C31.163444,34 24,26.836556 24,18 C24,9.163444 31.163444,2 40,2 C48.836556,2 56,9.163444 56,18 C55.9895304,26.8322157 48.8322157,33.9895304 40,34 Z M40,4 C32.2680135,4 26,10.2680135 26,18 C26,25.7319865 32.2680135,32 40,32 C47.7319865,32 54,25.7319865 54,18 C53.9917327,10.2714405 47.7285595,4.00826732 40,4 Z" id="Shape" fill="#000000"/><path d="M56.507,50.58 C56.1551376,50.5795953 55.8048373,50.5332023 55.465,50.442 C54.4389429,50.1704743 53.5642364,49.4995899 53.036,48.579 L48.036,39.919 C47.4842541,38.9629241 47.8114264,37.7406155 48.767,37.188 L52.232,35.188 C52.691569,34.9225611 53.237796,34.8506665 53.7503975,34.988148 C54.2629991,35.1256295 54.6999391,35.4612129 54.965,35.921 L59.965,44.58 C60.6789001,45.8165061 60.679578,47.3397878 59.9667786,48.5769288 C59.2539792,49.8140698 57.9357936,50.5774664 56.508,50.58 L56.507,50.58 Z M53.231,36.919 L49.768,38.919 L54.768,47.579 C55.113423,48.2208787 55.7807049,48.6240004 56.5095907,48.6311384 C57.2384764,48.6382764 57.9135251,48.2483002 58.2714526,47.6133094 C58.62938,46.9783186 58.6134977,46.198883 58.23,45.579 L53.231,36.919 Z" id="Shape" fill="#000000"/><path d="M56.507,50.58 C56.1551376,50.5795953 55.8048373,50.5332023 55.465,50.442 C54.4389429,50.1704743 53.5642364,49.4995899 53.036,48.579 L48.036,39.919 C47.4842541,38.9629241 47.8114264,37.7406155 48.767,37.188 L52.232,35.188 C52.691569,34.9225611 53.237796,34.8506665 53.7503975,34.988148 C54.2629991,35.1256295 54.6999391,35.4612129 54.965,35.921 L59.965,44.58 C60.6789001,45.8165061 60.679578,47.3397878 59.9667786,48.5769288 C59.2539792,49.8140698 57.9357936,50.5774664 56.508,50.58 L56.507,50.58 Z M53.231,36.919 L49.768,38.919 L54.768,47.579 C55.113423,48.2208787 55.7807049,48.6240004 56.5095907,48.6311384 C57.2384764,48.6382764 57.9135251,48.2483002 58.2714526,47.6133094 C58.62938,46.9783186 58.6134977,46.198883 58.23,45.579 L53.231,36.919 Z" id="Shape" fill="#000000"/><path d="M51,38.053 C50.6423863,38.0533484 50.3118068,37.8627028 50.133,37.553 L46.633,31.49 C46.4515156,31.1804296 46.4498167,30.7973505 46.6285481,30.4861826 C46.8072796,30.1750146 47.1390366,29.983469 47.4978817,29.9842579 C47.8567268,29.9850468 48.1876384,30.1780492 48.365,30.49 L51.865,36.553 C52.0435415,36.8622425 52.0436393,37.2432222 51.8652566,37.5525563 C51.6868739,37.8618904 51.3570824,38.052634 51,38.053 Z" id="Shape" fill="#000000"/><circle id="Oval" fill="#000000" cx="44" cy="12" r="1"/></g></g></svg>
