<?xml version="1.0" encoding="UTF-8"?>
<svg xmlns="http://www.w3.org/2000/svg" xmlns:xlink="http://www.w3.org/1999/xlink" width="512" height="512" viewBox="0 0 60 61" version="1.1"><!-- Generator: Sketch 51.3 (57544) - http://www.bohemiancoding.com/sketch --><title>048 - Depression</title><desc>Created with Sketch.</desc><defs/><g id="Page-1" stroke="none" stroke-width="1" fill="none" fill-rule="evenodd"><g id="048---Depression" transform="translate(-1.000000, -1.000000)" fill-rule="nonzero"><path d="M47.26,38.71 C45.9803538,41.6319437 45.5006323,44.8415908 45.87,48.01 C46.0951005,50.0721875 46.5033794,52.1102353 47.09,54.1 C47.4048963,55.1305317 47.802868,56.1338218 48.28,57.1 C48.8718004,58.0090608 49.4061765,58.9542385 49.88,59.93 L24.78,60 L24.78,59.99 C24.7,59.69 23.19,53.81 19.85,52.3 C19.23,52.52 18.57,52.74 17.9,52.97 C15.6789002,53.7404523 13.4191713,54.3946722 11.13,54.93 C10.4993821,55.0806865 9.83512584,54.9878335 9.27,54.67 C8.62676625,54.2742562 8.14753634,53.660132 7.92,52.94 C7.65806229,52.2276891 7.56229323,51.4649569 7.64,50.71 C7.87036773,49.9391054 7.94848689,49.1307419 7.87,48.33 C7.61,47.32 6.65,47.07 5.89,46.53 C5.27,46.09 6.38,44.68 6.38,44.68 C6.38,44.68 5.2,43.81 4.78,43.43 C4.34,43.07 4.96,42.45 5.51,41.28 C5.73694079,40.7719796 5.80323378,40.2067446 5.7,39.66 C5.49,38.59 3.87,38.18 3.07,37.59 C2.69,37.31 2.08,36.89 2.01,36.38 C1.9,35.67 2.74,34.67 3.15,34.17 C4.89454657,31.9217816 6.38996718,29.4908848 7.61,26.92 C7.77010631,26.6486227 7.86589137,26.3441631 7.89,26.03 C7.87,24.6 5.8,24.01 5.61,22.62 C5.58022555,22.2120559 5.65239212,21.803112 5.82,21.43 C6.39667192,20.2042401 6.89109856,18.9414478 7.3,17.65 C7.54612792,16.4653226 7.86336869,15.2965408 8.25,14.15 C9.08859812,11.8496676 10.3808376,9.74127689 12.05,7.95 C14.5,5.36 18.12,4.08 21.54,3.4 C24.5813721,2.73504394 27.6655865,2.28393999 30.77,2.05 C30.87,2.04 30.97,2.04 31.07,2.03 C37.47,1.71 42.53,3.88 47.49,7.76 C50.1927291,9.77631392 52.1683037,12.6151058 53.12,15.85 C53.8451888,18.5213389 54.1852867,21.2825294 54.13,24.05 C54.110834,26.7831121 53.3129958,29.4541358 51.83,31.75 C50.34,34.1 48.39,36.14 47.26,38.71 Z" id="Shape" fill="#283593"/><path d="M44.26,38.71 C42.9803538,41.6319437 42.5006323,44.8415908 42.87,48.01 C43.0951005,50.0721875 43.5033794,52.1102353 44.09,54.1 C44.4048963,55.1305317 44.802868,56.1338218 45.28,57.1 C45.8718004,58.0090608 46.4061765,58.9542385 46.88,59.93 L24.78,59.99 C24.7,59.69 23.19,53.81 19.85,52.3 C19.23,52.52 18.57,52.74 17.9,52.97 C17.5823905,52.6995596 17.2290765,52.4741116 16.85,52.3 C14.44,53.14 11.5,54.11 9.27,54.67 C8.62676625,54.2742562 8.14753634,53.660132 7.92,52.94 C7.65806229,52.2276891 7.56229323,51.4649569 7.64,50.71 C7.87036773,49.9391054 7.94848689,49.1307419 7.87,48.33 C7.61,47.32 6.65,47.07 5.89,46.53 C5.27,46.09 6.38,44.68 6.38,44.68 C6.38,44.68 5.2,43.81 4.78,43.43 C4.34,43.07 4.96,42.45 5.51,41.28 C5.73694079,40.7719796 5.80323378,40.2067446 5.7,39.66 C5.49,38.59 3.87,38.18 3.07,37.59 C2.69,37.31 2.08,36.89 2.01,36.38 C1.9,35.67 2.74,34.67 3.15,34.17 C4.89454657,31.9217816 6.38996718,29.4908848 7.61,26.92 C7.77010631,26.6486227 7.86589137,26.3441631 7.89,26.03 C7.87,24.6 5.8,24.01 5.61,22.62 C5.58022555,22.2120559 5.65239212,21.803112 5.82,21.43 C6.39667192,20.2042401 6.89109856,18.9414478 7.3,17.65 C7.54612792,16.4653226 7.86336869,15.2965408 8.25,14.15 C9.08859812,11.8496676 10.3808376,9.74127689 12.05,7.95 C14.5,5.36 18.12,4.08 21.54,3.4 C24.5813721,2.73504394 27.6655865,2.28393999 30.77,2.05 C35.93,2.37 40.25,4.44 44.49,7.76 C47.1927291,9.77631392 49.1683037,12.6151058 50.12,15.85 C50.8451888,18.5213389 51.1852867,21.2825294 51.13,24.05 C51.110834,26.7831121 50.3129958,29.4541358 48.83,31.75 C47.34,34.1 45.39,36.14 44.26,38.71 Z" id="Shape" fill="#3F51B5"/><path d="M54.43,16.07 C56.3139355,13.3156007 56.517773,9.74447379 54.9594909,6.79359506 C53.4012088,3.84271632 50.3370528,1.99733155 47,2 C46.5003869,1.99728785 46.0015945,2.04080666 45.51,2.13 C42.5330522,2.62392074 40.0040293,4.58175271 38.78,7.34 C37.7077806,6.47873836 36.3752765,6.00636919 35,6 C34.4970806,5.99656923 33.9959646,6.06046993 33.51,6.19 C30.8567302,6.87020277 29.0009349,9.26092798 29,12 C28.9967538,13.4786877 29.5459835,14.9052585 30.54,16 L30.5,16 C26.9101491,16 24,18.9101491 24,22.5 C24,26.0898509 26.9101491,29 30.5,29 L53.5,29 C56.9007633,28.9889421 59.718143,26.3583658 59.9621165,22.9663471 C60.20609,19.5743285 57.7941755,16.5676312 54.43,16.07 Z" id="Shape" fill="#545C60"/><path d="M51.43,16.07 C53.1609994,13.539705 53.4832386,10.3017311 52.2848753,7.47990949 C51.086512,4.65808788 48.5327707,2.64147733 45.51,2.13 C42.5330522,2.62392074 40.0040293,4.58175271 38.78,7.34 C38.0868885,6.77264436 37.2725602,6.37232326 36.4,6.17 C36.1657967,6.54477346 35.958605,6.93576422 35.78,7.34 C35.1138709,6.7993737 34.3399334,6.40729085 33.51,6.19 C30.8567302,6.87020277 29.0009349,9.26092798 29,12 C28.9967538,13.4786877 29.5459835,14.9052585 30.54,16 L30.5,16 C26.9101491,16 24,18.9101491 24,22.5 C24,26.0898509 26.9101491,29 30.5,29 L50.5,29 C53.9007633,28.9889421 56.718143,26.3583658 56.9621165,22.9663471 C57.20609,19.5743285 54.7941755,16.5676312 51.43,16.07 Z" id="Shape" fill="#7F8E94"/><path d="M36,38 C36,39.6568542 34.6568542,41 33,41 C31.3431458,41 30,39.6568542 30,38 C30,36.343 33,33 33,33 C33,33 36,36.343 36,38 Z" id="Shape" fill="#0377BC"/><path d="M33,38.375 C33,39.825 32.328,41 31.5,41 C30.672,41 30,39.825 30,38.375 C30,36.925 31.5,34 31.5,34 C31.5,34 33,36.925 33,38.375 Z" id="Shape" fill="#02A9F4"/><path d="M57,49 C57,50.6568542 55.6568542,52 54,52 C52.3431458,52 51,50.6568542 51,49 C51,47.343 54,44 54,44 C54,44 57,47.343 57,49 Z" id="Shape" fill="#0377BC"/><path d="M54,49.375 C54,50.825 53.328,52 52.5,52 C51.672,52 51,50.825 51,49.375 C51,47.925 52.5,45 52.5,45 C52.5,45 54,47.925 54,49.375 Z" id="Shape" fill="#02A9F4"/><path d="M42,52 C42,53.6568542 40.6568542,55 39,55 C37.3431458,55 36,53.6568542 36,52 C36,50.343 39,47 39,47 C39,47 42,50.343 42,52 Z" id="Shape" fill="#0377BC"/><path d="M39,52.375 C39,53.825 38.328,55 37.5,55 C36.672,55 36,53.825 36,52.375 C36,50.925 37.5,48 37.5,48 C37.5,48 39,50.925 39,52.375 Z" id="Shape" fill="#02A9F4"/><path d="M54.29,34.71 L45,44 L45.2,42.37 L45.43,40.57 L45.86,37.12 C45.8942778,36.8364249 45.8056531,36.5517268 45.6164785,36.337711 C45.4273038,36.1236952 45.1556382,36.0007922 44.87,36 L41.43,36 C41.1041901,35.9998614 40.7988747,35.8410089 40.6117679,35.5742822 C40.4246611,35.3075555 40.3792246,34.9663999 40.49,34.66 L43.76,25.66 C43.9011572,25.2625332 44.2782177,24.9977886 44.7,25 L50.56,25 C50.8876745,24.9993611 51.194613,25.1602538 51.3805048,25.4300967 C51.5663966,25.6999396 51.6073571,26.0440616 51.49,26.35 L49.51,31.65 C49.3926429,31.9559384 49.4336034,32.3000604 49.6194952,32.5699033 C49.805387,32.8397462 50.1123255,33.0006389 50.44,33 L53.59,33 C53.9944441,33.0016958 54.3580455,33.2468472 54.5112679,33.6211476 C54.6644903,33.995448 54.5771614,34.4251909 54.29,34.71 Z" id="Shape" fill="#FEC108"/><path d="M51.29,34.71 L45.43,40.57 L45.86,37.12 C45.8942778,36.8364249 45.8056531,36.5517268 45.6164785,36.337711 C45.4273038,36.1236952 45.1556382,36.0007922 44.87,36 L41.43,36 C41.1041901,35.9998614 40.7988747,35.8410089 40.6117679,35.5742822 C40.4246611,35.3075555 40.3792246,34.9663999 40.49,34.66 L43.76,25.66 C43.9011572,25.2625332 44.2782177,24.9977886 44.7,25 L47.56,25 C47.8876745,24.9993611 48.194613,25.1602538 48.3805048,25.4300967 C48.5663966,25.6999396 48.6073571,26.0440616 48.49,26.35 L46.51,31.65 C46.3926429,31.9559384 46.4336034,32.3000604 46.6194952,32.5699033 C46.805387,32.8397462 47.1123255,33.0006389 47.44,33 L50.59,33 C50.9944441,33.0016958 51.3580455,33.2468472 51.5112679,33.6211476 C51.6644903,33.995448 51.5771614,34.4251909 51.29,34.71 Z" id="Shape" fill="#FFDC00"/><path d="M10.51,56 C8.86087491,55.9693546 7.42607373,54.8630997 6.977,53.276 C6.66129272,52.4153284 6.54869822,51.4933539 6.648,50.582 C6.682,50.319 6.739,50.051 6.798,49.782 C6.91957463,49.3942994 6.95372661,48.9844757 6.898,48.582 C6.817,48.269 6.587,48.112 5.998,47.775 C5.764,47.643 5.527,47.506 5.305,47.351 C4.98004672,47.1184091 4.7654898,46.7620202 4.712,46.366 C4.67342776,45.8633103 4.78664708,45.3606165 5.037,44.923 C4.697,44.661 4.324,44.367 4.108,44.172 C3.183,43.419 3.797,42.335 4.163,41.688 C4.298,41.449 4.454,41.175 4.603,40.855 C4.7406535,40.5375296 4.78035002,40.1861805 4.717,39.846 C4.666,39.587 3.941,39.217 3.508,38.995 C3.1463953,38.8239078 2.79954825,38.6232248 2.471,38.395 C1.75491753,37.989076 1.2320576,37.312349 1.02,36.517 C0.86,35.486 1.62,34.458 2.345,33.575 C4.05537424,31.3696418 5.52223551,28.9857827 6.72,26.465 C6.7962489,26.3284357 6.85344643,26.1820774 6.89,26.03 C6.89,25.755 6.565,25.438 6.076,24.99 C5.33743403,24.444388 4.82018041,23.6509345 4.619,22.755 C4.56187795,22.1842411 4.65280141,21.6083925 4.883,21.083 C5.062,20.61 5.266,20.155 5.469,19.699 C5.82566903,18.9686532 6.11260814,18.2062724 6.326,17.422 L6.426,17.001 C6.65555173,15.9194988 6.95144435,14.8531499 7.312,13.808 C8.194025,11.3785037 9.55838496,9.15253225 11.323,7.264 C13.56,4.9 16.837,3.315 21.345,2.42 C24.5310192,1.72102869 27.7640329,1.25678222 31.018,1.031 C34.7235917,0.819410514 38.4247975,1.51591827 41.8,3.06 C42.2895656,3.29613128 42.5008759,3.88006438 42.2757948,4.37480775 C42.0507138,4.86955112 41.4716717,5.09391736 40.972,4.88 C37.8888168,3.46651053 34.5059626,2.83093773 31.12,3.029 C27.9646105,3.25035562 24.8296033,3.70189023 21.74,4.38 C17.704,5.18 14.69,6.614 12.776,8.638 C11.1965737,10.3297768 9.97605163,12.3238404 9.188,14.5 C8.85627171,15.4682024 8.58376811,16.455694 8.372,17.457 L8.272,17.882 C8.03336932,18.7891867 7.70786465,19.6712641 7.3,20.516 C7.111,20.937 6.923,21.357 6.76,21.785 C6.66368284,22.0012793 6.61068412,22.2343377 6.604,22.471 C6.649,22.796 7.03,23.146 7.434,23.517 C8.25904392,24.1003679 8.79170832,25.0118401 8.895,26.017 C8.87592261,26.4907772 8.74429154,26.9531999 8.511,27.366 C7.25523043,30.0023143 5.71759593,32.4948514 3.925,34.8 C3.163,35.727 3.005,36.1 3,36.246 C3.18538937,36.42495 3.38616343,36.5872424 3.6,36.731 C3.860901,36.9138012 4.13689862,37.0740471 4.425,37.21 C5.278,37.646 6.447,38.244 6.687,39.465 C6.82965982,40.2207273 6.73644627,41.0020454 6.42,41.703 C6.245,42.073 6.066,42.393 5.909,42.669 C5.86,42.755 5.809,42.851 5.759,42.938 C6.174,43.271 6.739,43.695 6.979,43.872 C7.19743076,44.0334948 7.34076225,44.2769033 7.37603403,44.5462515 C7.41130582,44.8155997 7.33548237,45.0877071 7.166,45.3 C7.01745938,45.4932548 6.88817724,45.7005751 6.78,45.919 L6.987,46.038 C7.87214829,46.4181888 8.54813158,47.1646174 8.839,48.083 C8.98560816,48.7886806 8.95572393,49.5196421 8.752,50.211 C8.706,50.42 8.658,50.629 8.632,50.838 C8.57293656,51.442812 8.65332951,52.0531143 8.867,52.622 C9.08520109,53.545675 9.99309856,54.1328526 10.925,53.953 C13.8394785,53.2531668 16.7109576,52.3850452 19.525,51.353 C20.046119,51.1733515 20.6143419,51.4492734 20.7954169,51.9698984 C20.9764919,52.4905235 20.7021272,53.0594999 20.182,53.242 C17.2880366,54.3037267 14.3338934,55.1936093 11.335,55.907 C11.0640098,55.9667703 10.7874959,55.9979409 10.51,56 Z M5.41,42.659 C5.42066667,42.6683333 5.43166667,42.6783333 5.443,42.689 C5.4338037,42.6766799 5.42342061,42.665292 5.412,42.655 L5.41,42.659 Z" id="Shape" fill="#000000"/><path d="M24.78,61 C24.3191958,60.9997651 23.9182106,60.6846758 23.809,60.237 C23.421,58.657 21.88,54.314 19.438,53.211 C19.0639436,53.0419148 18.8312137,52.6614066 18.8510746,52.25139 C18.8709354,51.8413735 19.1393525,51.4851405 19.528,51.353 C20.586,50.993 21.544,50.659 22.293,50.397 C22.968,50.161 23.476,49.984 23.742,49.897 C27.901,48.583 28.742,47.082 28.72,46.053 C28.7138345,45.7872547 28.8137271,45.5299897 28.9976105,45.338038 C29.1814939,45.1460862 29.4342349,45.0352448 29.7,45.03 C30.2487108,45.0268416 30.7013926,45.4587461 30.724,46.007 C30.782,48.499 28.64,50.45 24.355,51.807 C24.103,51.889 23.61,52.061 22.955,52.289 L22.019,52.616 C23.6689182,54.4436238 24.8727555,56.6288093 25.536,59 L48.218,58.937 C48.196,58.903 48.175,58.87 48.153,58.837 C47.8640706,58.4187931 47.6044495,57.9810793 47.376,57.527 C46.878203,56.5190177 46.4631695,55.4722371 46.135,54.397 C45.5286533,52.3502738 45.1076238,50.2531587 44.877,48.131 C44.6598351,46.3281978 44.7130889,44.5030729 45.035,42.716 C45.0755069,42.3450492 45.3191823,42.0275107 45.6670197,41.8924018 C46.0148571,41.7572928 46.4089846,41.8270925 46.6892662,42.0734408 C46.9695478,42.3197891 47.0893513,42.7016995 47,43.064 C46.7128597,44.6556361 46.6649987,46.2812275 46.858,47.887 C47.0744115,49.8915071 47.4706746,51.8724876 48.042,53.806 C48.340388,54.7837639 48.7179713,55.7355816 49.171,56.652 C49.3622231,57.0275796 49.5787208,57.3897455 49.819,57.736 C50.2438059,58.318716 50.5844808,58.9583229 50.831,59.636 C50.9264293,59.9394437 50.8717998,60.2701879 50.6838608,60.5268273 C50.4959218,60.7834667 50.197095,60.9353833 49.879,60.936 L24.779,61.006 L24.78,61 Z" id="Shape" fill="#000000"/><path d="M11.194,19.566 C10.8886297,19.5661035 10.5999486,19.4266722 10.4101849,19.1874218 C10.2204211,18.9481714 10.1503755,18.6353272 10.22,18.338 L10.32,17.905 C10.5133176,16.9892519 10.7604123,16.0856868 11.06,15.199 C11.7555725,13.2746582 12.8327926,11.5106976 14.227,10.013 C15.7598052,8.53542525 17.6474938,7.47775479 19.708,6.942 C20.0499032,6.8380357 20.421299,6.9243719 20.6822863,7.16848659 C20.9432736,7.41260128 21.0542022,7.77740763 20.9732863,8.12548661 C20.8923705,8.47356559 20.6319032,8.75203572 20.29,8.856 C18.5631668,9.29332387 16.9766775,10.1645333 15.681,11.387 C14.4727916,12.6870326 13.5394807,14.2176081 12.937,15.887 C12.6665339,16.6963982 12.4431601,17.5207777 12.268,18.356 L12.168,18.791 C12.0632698,19.2445327 11.6594679,19.565833 11.194,19.566 Z" id="Shape" fill="#000000"/><circle id="Oval" fill="#000000" cx="10" cy="22" r="1"/><path d="M53.5,30 L50.5,30 C49.9477153,30 49.5,29.5522847 49.5,29 C49.5,28.4477153 49.9477153,28 50.5,28 L53.5,28 C56.3732761,27.9851718 58.7509548,25.7611346 58.9574014,22.8952464 C59.1638481,20.0293582 57.129485,17.4874958 54.288,17.061 C53.9452355,17.0122712 53.6520611,16.7897161 53.5129835,16.4726681 C53.373906,16.1556202 53.4087141,15.7891909 53.605,15.504 C54.5170008,14.1793626 55.00362,12.6082278 55,11 C54.9975494,7.22479828 52.3562686,3.96512497 48.6635932,3.1800756 C44.9709178,2.39502623 41.2320142,4.29829551 39.694,7.746 C39.5674904,8.03084616 39.3154025,8.24041852 39.0122421,8.312777 C38.7090816,8.38513548 38.3895181,8.31200514 38.148,8.115 C36.1248531,6.47186212 33.1783929,6.66047118 31.3812611,8.54815308 C29.5841293,10.435835 29.5404724,13.3880028 31.281,15.328 C31.5469333,15.6210613 31.6150297,16.0433787 31.4546884,16.4051744 C31.2943471,16.7669701 30.935734,17.0001777 30.54,17 C28.5750392,16.9928547 26.7555286,18.0345462 25.7668602,19.7326795 C24.7781918,21.4308127 24.7705678,23.5274009 25.7468602,25.2326795 C26.7231526,26.9379581 28.5350392,27.9928547 30.5,28 L42.55,28 C43.1022847,28 43.55,28.4477153 43.55,29 C43.55,29.5522847 43.1022847,30 42.55,30 L30.5,30 C26.6922273,30.0017965 23.4874087,27.1499809 23.0468336,23.3677818 C22.6062585,19.5855828 25.0697671,16.0734836 28.776,15.2 C27.3671257,12.456249 27.9201187,9.11368643 30.1375902,6.96987748 C32.3550616,4.82606853 35.7143925,4.38627122 38.409,5.887 C41.1626585,1.28975736 47.0507711,-0.319663807 51.7600294,2.23771016 C56.4692877,4.79508414 58.325541,10.6101017 55.969,15.423 C59.4164357,16.6326056 61.4906843,20.1503167 60.8805598,23.7524976 C60.2704353,27.3546784 57.1534793,29.9931219 53.5,30 Z" id="Shape" fill="#000000"/><path d="M49,18 C48.4477153,18 48,17.5522847 48,17 C48,14.790861 46.209139,13 44,13 C43.4477153,13 43,12.5522847 43,12 C43,11.4477153 43.4477153,11 44,11 C47.3123376,11.0033074 49.9966926,13.6876624 50,17 C50,17.5522847 49.5522847,18 49,18 Z" id="Shape" fill="#000000"/><path d="M35,22 C34.4477153,22 34,21.5522847 34,21 C34,18.790861 35.790861,17 38,17 C38.5522847,17 39,17.4477153 39,18 C39,18.5522847 38.5522847,19 38,19 C36.8954305,19 36,19.8954305 36,21 C36,21.5522847 35.5522847,22 35,22 Z" id="Shape" fill="#000000"/><path d="M33,42 C30.790861,42 29,40.209139 29,38 C29,36.059 31.712,32.938 32.256,32.332 C32.4507188,32.1298432 32.7193173,32.0156261 33,32.0156261 C33.2806827,32.0156261 33.5492812,32.1298432 33.744,32.332 C34.288,32.938 37,36.059 37,38 C37,40.209139 35.209139,42 33,42 Z M33,34.549 C31.939,35.874 31,37.362 31,38 C31,39.1045695 31.8954305,40 33,40 C34.1045695,40 35,39.1045695 35,38 C35,37.381 34.062,35.881 33,34.549 Z" id="Shape" fill="#000000"/><path d="M54,53 C51.790861,53 50,51.209139 50,49 C50,47.059 52.712,43.938 53.256,43.332 C53.4507188,43.1298432 53.7193173,43.0156261 54,43.0156261 C54.2806827,43.0156261 54.5492812,43.1298432 54.744,43.332 C55.288,43.938 58,47.059 58,49 C58,51.209139 56.209139,53 54,53 Z M54,45.549 C52.939,46.874 52,48.362 52,49 C52,50.1045695 52.8954305,51 54,51 C55.1045695,51 56,50.1045695 56,49 C56,48.381 55.062,46.881 54,45.549 Z" id="Shape" fill="#000000"/><path d="M39,56 C36.790861,56 35,54.209139 35,52 C35,50.059 37.712,46.938 38.256,46.332 C38.4507188,46.1298432 38.7193173,46.0156261 39,46.0156261 C39.2806827,46.0156261 39.5492812,46.1298432 39.744,46.332 C40.288,46.938 43,50.059 43,52 C43,54.209139 41.209139,56 39,56 Z M39,48.549 C37.939,49.874 37,51.362 37,52 C37,53.1045695 37.8954305,54 39,54 C40.1045695,54 41,53.1045695 41,52 C41,51.381 40.062,49.881 39,48.549 Z" id="Shape" fill="#000000"/><path d="M45,45 C44.8479205,45.0008984 44.6976865,44.9666765 44.561,44.9 C44.1773406,44.7123733 43.9551825,44.3018025 44.008,43.878 L44.867,37 L41.428,37 C40.775549,36.9998695 40.1641762,36.6814966 39.7899934,36.1470067 C39.4158106,35.6125167 39.3258618,34.9291081 39.549,34.316 L42.82,25.316 C43.1090964,24.5268061 43.859523,24.0015074 44.7,24 L50.557,24 C51.2124465,24.0001637 51.8262159,24.3214787 52.1998106,24.8600297 C52.5734054,25.3985806 52.6594063,26.0860106 52.43,26.7 L50.443,32 L53.586,32 C54.3947918,32.0001727 55.1238681,32.487455 55.433356,33.2346909 C55.7428438,33.9819268 55.5718158,34.8420115 55,35.414 L45.707,44.707 C45.5195073,44.8945494 45.2651948,44.9999434 45,45 Z M44.7,26 L41.428,35 L44.867,35 C45.4409232,34.9998391 45.9872586,35.2462426 46.3670419,35.6765361 C46.7468252,36.1068297 46.9234535,36.6795421 46.852,37.249 L46.352,41.232 L53.586,34 L50.443,34 C49.7875535,33.9998363 49.1737841,33.6785213 48.8001894,33.1399703 C48.4265946,32.6014194 48.3405937,31.9139894 48.57,31.3 L50.557,26 L44.7,26 Z" id="Shape" fill="#000000"/></g></g></svg>
