<?xml version="1.0" encoding="UTF-8"?>
<svg xmlns="http://www.w3.org/2000/svg" xmlns:xlink="http://www.w3.org/1999/xlink" width="512" height="512" viewBox="0 0 60 61" version="1.1"><!-- Generator: Sketch 51.3 (57544) - http://www.bohemiancoding.com/sketch --><title>049 - Growth</title><desc>Created with Sketch.</desc><defs/><g id="Page-1" stroke="none" stroke-width="1" fill="none" fill-rule="evenodd"><g id="049---Growth" transform="translate(-1.000000, 0.000000)" fill-rule="nonzero"><path d="M47.26,37.71 C45.9803538,40.6319437 45.5006323,43.8415908 45.87,47.01 C46.0951005,49.0721875 46.5033794,51.1102353 47.09,53.1 C47.4048963,54.1305317 47.802868,55.1338218 48.28,56.1 C48.8718004,57.0090608 49.4061765,57.9542385 49.88,58.93 L24.78,59 L24.78,58.99 C24.7,58.69 23.19,52.81 19.85,51.3 C19.23,51.52 18.57,51.74 17.9,51.97 C15.6789002,52.7404523 13.4191713,53.3946722 11.13,53.93 C10.4993821,54.0806865 9.83512584,53.9878335 9.27,53.67 C8.62676625,53.2742562 8.14753634,52.660132 7.92,51.94 C7.65806229,51.2276891 7.56229323,50.4649569 7.64,49.71 C7.87036773,48.9391054 7.94848689,48.1307419 7.87,47.33 C7.61,46.32 6.65,46.07 5.89,45.53 C5.27,45.09 6.38,43.68 6.38,43.68 C6.38,43.68 5.2,42.81 4.78,42.43 C4.34,42.07 4.96,41.45 5.51,40.28 C5.73694079,39.7719796 5.80323378,39.2067446 5.7,38.66 C5.49,37.59 3.87,37.18 3.07,36.59 C2.69,36.31 2.08,35.89 2.01,35.38 C1.9,34.67 2.74,33.67 3.15,33.17 C4.89454657,30.9217816 6.38996718,28.4908848 7.61,25.92 C7.77010631,25.6486227 7.86589137,25.3441631 7.89,25.03 C7.87,23.6 5.8,23.01 5.61,21.62 C5.58022555,21.2120559 5.65239212,20.803112 5.82,20.43 C6.39667192,19.2042401 6.89109856,17.9414478 7.3,16.65 C7.54612792,15.4653226 7.86336869,14.2965408 8.25,13.15 C9.08859812,10.8496676 10.3808376,8.74127689 12.05,6.95 C14.5,4.36 18.12,3.08 21.54,2.4 C24.5813721,1.73504394 27.6655865,1.28393999 30.77,1.05 C30.87,1.04 30.97,1.04 31.07,1.03 C37.47,0.71 42.53,2.88 47.49,6.76 C50.1927291,8.77631392 52.1683037,11.6151058 53.12,14.85 C53.8451888,17.5213389 54.1852867,20.2825294 54.13,23.05 C54.110834,25.7831121 53.3129958,28.4541358 51.83,30.75 C50.34,33.1 48.39,35.14 47.26,37.71 Z" id="Shape" fill="#FEC108"/><path d="M44.26,37.71 C42.9803538,40.6319437 42.5006323,43.8415908 42.87,47.01 C43.0951005,49.0721875 43.5033794,51.1102353 44.09,53.1 C44.4048963,54.1305317 44.802868,55.1338218 45.28,56.1 C45.8718004,57.0090608 46.4061765,57.9542385 46.88,58.93 L24.78,58.99 C24.7,58.69 23.19,52.81 19.85,51.3 C19.23,51.52 18.57,51.74 17.9,51.97 C17.5823905,51.6995596 17.2290765,51.4741116 16.85,51.3 C14.44,52.14 11.5,53.11 9.27,53.67 C8.62676625,53.2742562 8.14753634,52.660132 7.92,51.94 C7.65806229,51.2276891 7.56229323,50.4649569 7.64,49.71 C7.87036773,48.9391054 7.94848689,48.1307419 7.87,47.33 C7.61,46.32 6.65,46.07 5.89,45.53 C5.27,45.09 6.38,43.68 6.38,43.68 C6.38,43.68 5.2,42.81 4.78,42.43 C4.34,42.07 4.96,41.45 5.51,40.28 C5.73694079,39.7719796 5.80323378,39.2067446 5.7,38.66 C5.49,37.59 3.87,37.18 3.07,36.59 C2.69,36.31 2.08,35.89 2.01,35.38 C1.9,34.67 2.74,33.67 3.15,33.17 C4.89454657,30.9217816 6.38996718,28.4908848 7.61,25.92 C7.77010631,25.6486227 7.86589137,25.3441631 7.89,25.03 C7.87,23.6 5.8,23.01 5.61,21.62 C5.58022555,21.2120559 5.65239212,20.803112 5.82,20.43 C6.39667192,19.2042401 6.89109856,17.9414478 7.3,16.65 C7.54612792,15.4653226 7.86336869,14.2965408 8.25,13.15 C9.08859812,10.8496676 10.3808376,8.74127689 12.05,6.95 C14.5,4.36 18.12,3.08 21.54,2.4 C24.5813721,1.73504394 27.6655865,1.28393999 30.77,1.05 C35.93,1.37 40.25,3.44 44.49,6.76 C47.1927291,8.77631392 49.1683037,11.6151058 50.12,14.85 C50.8451888,17.5213389 51.1852867,20.2825294 51.13,23.05 C51.110834,25.7831121 50.3129958,28.4541358 48.83,30.75 C47.34,33.1 45.39,35.14 44.26,37.71 Z" id="Shape" fill="#FFDC00"/><path d="M47.01,17.2 C46.7308589,16.8646337 46.470462,16.5140994 46.23,16.15 C42.27,10.22 46.17,4.78 52.29,2.02 C53.174906,1.61628383 54.0871663,1.27543932 55.02,1 C57.25,8.48 53.84,14.59 47.01,17.2 Z" id="Shape" fill="#549414"/><path d="M46.23,16.15 C42.27,10.22 46.17,4.78 52.29,2.02 C53.73,8.19 51.27,13.32 46.23,16.15 Z" id="Shape" fill="#60A917"/><path d="M60,41 C60,42.8565154 59.2625021,44.6369928 57.9497475,45.9497475 C56.6369928,47.2625021 54.8565154,48 53,48 L43,48 C39.1340068,48 36,44.8659932 36,41 C35.9960018,40.6649206 36.0227809,40.330182 36.08,40 C36.5250028,36.8458333 39.0534076,34.3956691 42.22,34.05 C43.2236912,32.5738746 44.7557482,31.5393782 46.5,31.16 C46.9932553,31.0557786 47.495859,31.0021676 48,31 C50.3133998,30.9946054 52.4787776,32.1372355 53.78,34.05 C56.9402169,34.3936352 59.46664,36.8336497 59.92,39.98 C59.9722434,40.3175086 59.9989858,40.6584734 60,41 Z" id="Shape" fill="#624421"/><path d="M57,41 C57,44.8659932 53.8659932,48 50,48 L43,48 C39.1340068,48 36,44.8659932 36,41 C35.9960018,40.6649206 36.0227809,40.330182 36.08,40 C36.5250028,36.8458333 39.0534076,34.3956691 42.22,34.05 C43.2236912,32.5738746 44.7557482,31.5393782 46.5,31.16 C48.2442518,31.5393782 49.7763088,32.5738746 50.78,34.05 C53.9402169,34.3936352 56.46664,36.8336497 56.92,39.98 C56.9722434,40.3175086 56.9989858,40.6584734 57,41 Z" id="Shape" fill="#825A2C"/><path d="M42.179,21.842 C33.494,12.879 25,27 25,27 C25,27 40.609,34.224 42.179,21.842 Z" id="Shape" fill="#60A917"/><path d="M10.51,55 C8.86087491,54.9693546 7.42607373,53.8630997 6.977,52.276 C6.66125741,51.4153369 6.54866189,50.4933541 6.648,49.582 C6.682,49.319 6.739,49.051 6.798,48.782 C6.91957463,48.3942994 6.95372661,47.9844757 6.898,47.582 C6.817,47.269 6.587,47.112 5.998,46.775 C5.764,46.643 5.527,46.506 5.305,46.351 C4.98004672,46.1184091 4.7654898,45.7620202 4.712,45.366 C4.67342776,44.8633103 4.78664708,44.3606165 5.037,43.923 C4.697,43.661 4.324,43.367 4.108,43.172 C3.183,42.419 3.797,41.335 4.163,40.688 C4.298,40.449 4.454,40.175 4.603,39.855 C4.7406535,39.5375296 4.78035002,39.1861805 4.717,38.846 C4.666,38.587 3.941,38.217 3.508,37.995 C3.1463953,37.8239078 2.79954825,37.6232248 2.471,37.395 C1.75491753,36.989076 1.2320576,36.312349 1.02,35.517 C0.86,34.486 1.62,33.458 2.345,32.575 C4.05537424,30.3696418 5.52223551,27.9857827 6.72,25.465 C6.7962489,25.3284357 6.85344643,25.1820774 6.89,25.03 C6.89,24.755 6.565,24.438 6.076,23.99 C5.33743403,23.444388 4.82018041,22.6509345 4.619,21.755 C4.56187795,21.1842411 4.65280141,20.6083925 4.883,20.083 C5.062,19.61 5.266,19.155 5.469,18.699 C5.82566903,17.9686532 6.11260814,17.2062724 6.326,16.422 L6.426,16.001 C6.65555173,14.9194988 6.95144435,13.8531499 7.312,12.808 C8.194025,10.3785037 9.55838496,8.15253225 11.323,6.264 C13.56,3.9 16.837,2.315 21.345,1.42 C24.5310192,0.721028686 27.7640329,0.256782219 31.018,0.031 C36.842,-0.252 41.992,1.431 47.246,5.331 C47.6742836,5.66476224 47.7579749,6.27930422 47.4345398,6.71543923 C47.1111047,7.15157425 46.4987375,7.24992338 46.055,6.937 C41.125,3.276 36.509,1.755 31.12,2.037 C27.9648082,2.25572013 24.829803,2.70458068 21.74,3.38 C17.704,4.18 14.69,5.614 12.776,7.638 C11.1965737,9.32977677 9.97605163,11.3238404 9.188,13.5 C8.85627171,14.4682024 8.58376811,15.455694 8.372,16.457 L8.272,16.882 C8.03336932,17.7891867 7.70786465,18.6712641 7.3,19.516 C7.111,19.937 6.923,20.357 6.76,20.785 C6.66368284,21.0012793 6.61068412,21.2343377 6.604,21.471 C6.649,21.796 7.03,22.146 7.434,22.517 C8.25904392,23.1003679 8.79170832,24.0118401 8.895,25.017 C8.87592261,25.4907772 8.74429154,25.9531999 8.511,26.366 C7.25523043,29.0023143 5.71759593,31.4948514 3.925,33.8 C3.163,34.727 3.005,35.1 3,35.246 C3.18538937,35.42495 3.38616343,35.5872424 3.6,35.731 C3.860901,35.9138012 4.13689862,36.0740471 4.425,36.21 C5.278,36.646 6.447,37.244 6.687,38.465 C6.82965982,39.2207273 6.73644627,40.0020454 6.42,40.703 C6.245,41.073 6.066,41.393 5.909,41.669 C5.86,41.755 5.809,41.851 5.759,41.938 C6.174,42.271 6.739,42.695 6.979,42.872 C7.19743076,43.0334948 7.34076225,43.2769033 7.37603403,43.5462515 C7.41130582,43.8155997 7.33548237,44.0877071 7.166,44.3 C7.01745938,44.4932548 6.88817724,44.7005751 6.78,44.919 L6.987,45.038 C7.87214829,45.4181888 8.54813158,46.1646174 8.839,47.083 C8.98560816,47.7886806 8.95572393,48.5196421 8.752,49.211 C8.706,49.42 8.658,49.629 8.632,49.838 C8.57293656,50.442812 8.65332951,51.0531143 8.867,51.622 C9.08610543,52.5450367 9.99330977,53.1317661 10.925,52.953 C13.8394785,52.2531668 16.7109576,51.3850452 19.525,50.353 C20.046119,50.1733515 20.6143419,50.4492734 20.7954169,50.9698984 C20.9764919,51.4905235 20.7021272,52.0594999 20.182,52.242 C17.2880366,53.3037267 14.3338934,54.1936093 11.335,54.907 C11.0640098,54.9667703 10.7874959,54.9979409 10.51,55 Z M5.41,41.659 C5.42066667,41.6683333 5.43166667,41.6783333 5.443,41.689 C5.4338037,41.6766799 5.42342061,41.665292 5.412,41.655 L5.41,41.659 Z" id="Shape" fill="#000000"/><path d="M24.78,60 C24.3191958,59.9997651 23.9182106,59.6846758 23.809,59.237 C23.421,57.657 21.88,53.314 19.438,52.211 C19.0639436,52.0419148 18.8312137,51.6614066 18.8510746,51.25139 C18.8709354,50.8413735 19.1393525,50.4851405 19.528,50.353 C20.586,49.993 21.544,49.659 22.293,49.397 C22.968,49.161 23.476,48.984 23.742,48.897 C27.901,47.583 28.742,46.082 28.72,45.053 C28.7138345,44.7872547 28.8137271,44.5299897 28.9976105,44.338038 C29.1814939,44.1460862 29.4342349,44.0352448 29.7,44.03 C30.2478869,44.0289103 30.6993649,44.4596662 30.724,45.007 C30.782,47.499 28.64,49.45 24.355,50.807 C24.103,50.889 23.61,51.061 22.955,51.289 L22.019,51.616 C23.6689182,53.4436238 24.8727555,55.6288093 25.536,58 L48.218,57.937 C48.196,57.903 48.175,57.87 48.153,57.837 C47.8640706,57.4187931 47.6044495,56.9810793 47.376,56.527 C46.878203,55.5190177 46.4631695,54.4722371 46.135,53.397 C45.6188788,51.6775242 45.2426526,49.9191267 45.01,48.139 C44.9510305,47.6013324 45.3302681,47.1142283 45.8659802,47.0395533 C46.4016923,46.9648783 46.8996834,47.329702 46.99,47.863 C47.2091631,49.5365978 47.5622969,51.1899059 48.046,52.807 C48.344388,53.7847639 48.7219713,54.7365816 49.175,55.653 C49.3662231,56.0285796 49.5827208,56.3907455 49.823,56.737 C50.2478059,57.319716 50.5884808,57.9593229 50.835,58.637 C50.9304293,58.9404437 50.8757998,59.2711879 50.6878608,59.5278273 C50.4999218,59.7844667 50.201095,59.9363833 49.883,59.937 L24.783,60.007 L24.78,60 Z" id="Shape" fill="#000000"/><path d="M51.159,32.728 C50.9598552,32.7286765 50.7653479,32.6679148 50.602,32.554 C50.382838,32.4081154 50.2315127,32.1802606 50.1820518,31.9216723 C50.1325909,31.6630839 50.189146,31.3954673 50.339,31.179 C50.574,30.841 50.786,30.537 50.979,30.225 C52.3671771,28.082586 53.113536,25.5877832 53.13,23.035 C53.1859062,20.3644317 52.8585749,17.6996453 52.158,15.122 C52.032,14.689 51.885,14.265 51.712,13.832 C51.5632954,13.4974997 51.6092461,13.1084804 51.8317928,12.817832 C52.0543395,12.5271837 52.4179105,12.3813633 52.7796175,12.4376802 C53.1413244,12.4939972 53.4433523,12.7434499 53.567,13.088 C53.7632518,13.5728944 53.9344772,14.0675456 54.08,14.57 C54.8351146,17.3364102 55.1887293,20.1969851 55.13,23.064 C55.1112649,25.9826658 54.2591688,28.8352448 52.674,31.286 C52.474,31.619 52.237,31.953 52.005,32.286 C51.8117109,32.562204 51.4961179,32.7270883 51.159,32.728 Z" id="Shape" fill="#000000"/><path d="M11.194,18.566 C10.8886297,18.5661035 10.5999486,18.4266722 10.4101849,18.1874218 C10.2204211,17.9481714 10.1503755,17.6353272 10.22,17.338 L10.32,16.905 C10.5133176,15.9892519 10.7604123,15.0856868 11.06,14.199 C11.7555725,12.2746582 12.8327926,10.5106976 14.227,9.013 C15.7598052,7.53542525 17.6474938,6.47775479 19.708,5.942 C20.0499032,5.8380357 20.421299,5.9243719 20.6822863,6.16848659 C20.9432736,6.41260128 21.0542022,6.77740763 20.9732863,7.12548661 C20.8923705,7.47356559 20.6319032,7.75203572 20.29,7.856 C18.5631668,8.29332387 16.9766775,9.16453329 15.681,10.387 C14.4727916,11.6870326 13.5394807,13.2176081 12.937,14.887 C12.6665339,15.6963982 12.4431601,16.5207777 12.268,17.356 L12.168,17.791 C12.0632698,18.2445327 11.6594679,18.565833 11.194,18.566 Z" id="Shape" fill="#000000"/><circle id="Oval" fill="#000000" cx="10" cy="21" r="1"/><path d="M53,49 L43,49 C38.849265,48.9905145 35.3952222,45.8081025 35.0465565,41.6720267 C34.6978909,37.5359509 37.5704292,33.8202166 41.661,33.116 C43.1766232,31.1506525 45.5181248,29.9994664 48,29.9994664 C50.4818752,29.9994664 52.8233768,31.1506525 54.339,33.116 C58.4295708,33.8202166 61.3021091,37.5359509 60.9534435,41.6720267 C60.6047778,45.8081025 57.150735,48.9905145 53,49 Z M48,32 C46.0180282,31.9976154 44.1632371,32.9759297 43.046,34.613 C42.8803637,34.8557859 42.6163095,35.0134138 42.324,35.044 C40.9725775,35.1849564 39.7119072,35.7903751 38.757,36.757 C37.0407088,38.4730005 36.5272336,41.0539615 37.4560444,43.2961979 C38.3848552,45.5384342 40.5730032,47.0002907 43,47 L53,47 C56.1630929,46.9733491 58.7621906,44.4956232 58.9399652,41.3374175 C59.1177397,38.1792119 56.8131206,35.4254571 53.673,35.044 C53.3817771,35.0125696 53.1189769,34.8550357 52.954,34.613 C51.8367629,32.9759297 49.9819718,31.9976154 48,32 Z" id="Shape" fill="#000000"/><path d="M48.1,35.8 C47.6212694,35.7996246 47.2099587,35.4600102 47.119,34.99 C45.989,29.166 45.058,23.41 46.043,17.038 C46.135051,16.5010227 46.6400067,16.1365414 47.1786505,16.218278 C47.7172943,16.3000145 48.091392,16.7978878 48.02,17.338 C47.083,23.393 47.988,28.961 49.082,34.604 C49.1871026,35.1460456 48.8330069,35.6706982 48.291,35.776 C48.2282912,35.7903395 48.164307,35.7983794 48.1,35.8 Z" id="Shape" fill="#000000"/><path d="M47.01,18.2 C46.7101784,18.2001999 46.4260869,18.0658621 46.236,17.834 C43.236,14.177 43.363,10.955 43.996,8.897 C45.181,5.041 49.3,1.649 54.737,0.041 C55.2660395,-0.115379688 55.8217846,0.186208253 55.979,0.715 C58.279,8.429 54.895,15.265 47.365,18.13 C47.2519077,18.1747259 47.1316054,18.1984475 47.01,18.2 Z M54.323,2.274 C50.012,3.78 46.829,6.484 45.908,9.474 C45.2816517,11.7451329 45.8159538,14.179051 47.336,15.979 C53.111,13.487 55.725,8.346 54.323,2.274 Z" id="Shape" fill="#000000"/><path d="M33.938,30.094 C30.7078109,29.9679285 27.5314883,29.2256099 24.58,27.907 C24.3224183,27.787548 24.1277584,27.5642305 24.04458,27.2927559 C23.9614015,27.0212813 23.9975471,26.7272461 24.144,26.484 C24.336,26.164 28.937,18.625 35.124,17.916 C37.895,17.604 40.512,18.685 42.896,21.146 C43.1078229,21.3639701 43.2090163,21.6664462 43.171,21.968 C42.749,25.292 41.34,27.639 38.983,28.943 C37.4257205,29.7471085 35.6899409,30.1431208 33.938,30.094 Z M26.512,26.538 C28.856,27.428 34.449,29.171 38.018,27.192 C39.794433,26.1199824 40.9477243,24.2598351 41.118,22.192 C39.6513982,20.5809912 37.5243738,19.7354935 35.352,19.9 C31.332,20.364 27.9,24.589 26.512,26.538 Z" id="Shape" fill="#000000"/><path d="M46.73,26.4 C46.2891516,26.3998549 45.9004052,26.111037 45.773,25.689 C45.3493382,23.9856923 43.7483173,22.8446519 42,23 C41.4477153,23 41,22.5522847 41,22 C41,21.4477153 41.4477153,21 42,21 C44.6353232,20.8331492 47.0196103,22.5563919 47.688,25.111 C47.847423,25.6395178 47.5484173,26.1972441 47.02,26.357 C46.9260497,26.3858527 46.8282803,26.4003496 46.73,26.4 Z" id="Shape" fill="#000000"/><path d="M25,28 C24.4477153,28.0248528 23.9798529,27.5972847 23.955,27.045 C23.9301472,26.4927153 24.3577153,26.0248528 24.91,26 C25.018,25.99 35.73,24.975 41.446,21.164 C41.743245,20.9657176 42.1236931,20.9410754 42.4440332,21.0993559 C42.7643733,21.2576364 42.9759381,21.574793 42.9990332,21.9313559 C43.0221283,22.2879188 42.853245,22.6297176 42.556,22.828 C36.415,26.922 25.556,27.95 25.092,27.992 C25.06,28 25.029,28 25,28 Z" id="Shape" fill="#000000"/><path d="M47,18 C46.9327926,17.9998206 46.8657789,17.9927842 46.8,17.979 C46.2595739,17.8681574 45.9110001,17.3405982 46.021,16.8 C46.106,16.38 48.192,6.436 54.312,0.294 C54.701913,-0.0972937453 55.3352063,-0.0984130334 55.7265,0.2915 C56.1177937,0.681413033 56.118913,1.31470625 55.729,1.706 C50.027,7.428 48,17.1 47.979,17.2 C47.8840215,17.6652983 47.4748929,17.999622 47,18 Z" id="Shape" fill="#000000"/><path d="M50,36 L46,36 C45.4477153,36 45,35.5522847 45,35 C45,34.4477153 45.4477153,34 46,34 L50,34 C50.5522847,34 51,34.4477153 51,35 C51,35.5522847 50.5522847,36 50,36 Z" id="Shape" fill="#000000"/></g></g></svg>
