<?xml version="1.0" encoding="UTF-8"?>
<svg xmlns="http://www.w3.org/2000/svg" xmlns:xlink="http://www.w3.org/1999/xlink" width="512" height="512" viewBox="0 0 60 61" version="1.1"><!-- Generator: Sketch 51.3 (57544) - http://www.bohemiancoding.com/sketch --><title>051 - Bipolar</title><desc>Created with Sketch.</desc><defs/><g id="Page-1" stroke="none" stroke-width="1" fill="none" fill-rule="evenodd"><g id="051---Bipolar" transform="translate(-1.000000, -1.000000)" fill-rule="nonzero"><path d="M47.26,38.71 C45.9803538,41.6319437 45.5006323,44.8415908 45.87,48.01 C46.0951005,50.0721875 46.5033794,52.1102353 47.09,54.1 C47.4048963,55.1305317 47.802868,56.1338218 48.28,57.1 C48.8718004,58.0090608 49.4061765,58.9542385 49.88,59.93 L24.78,60 L24.78,59.99 C24.7,59.69 23.19,53.81 19.85,52.3 C19.23,52.52 18.57,52.74 17.9,52.97 C15.6789002,53.7404523 13.4191713,54.3946722 11.13,54.93 C10.4993821,55.0806865 9.83512584,54.9878335 9.27,54.67 C8.62676625,54.2742562 8.14753634,53.660132 7.92,52.94 C7.65806229,52.2276891 7.56229323,51.4649569 7.64,50.71 C7.87036773,49.9391054 7.94848689,49.1307419 7.87,48.33 C7.61,47.32 6.65,47.07 5.89,46.53 C5.27,46.09 6.38,44.68 6.38,44.68 C6.38,44.68 5.2,43.81 4.78,43.43 C4.34,43.07 4.96,42.45 5.51,41.28 C5.73694079,40.7719796 5.80323378,40.2067446 5.7,39.66 C5.49,38.59 3.87,38.18 3.07,37.59 C2.69,37.31 2.08,36.89 2.01,36.38 C1.9,35.67 2.74,34.67 3.15,34.17 C4.89454657,31.9217816 6.38996718,29.4908848 7.61,26.92 C7.77010631,26.6486227 7.86589137,26.3441631 7.89,26.03 C7.87,24.6 5.8,24.01 5.61,22.62 C5.58022555,22.2120559 5.65239212,21.803112 5.82,21.43 C6.39667192,20.2042401 6.89109856,18.9414478 7.3,17.65 C7.54612792,16.4653226 7.86336869,15.2965408 8.25,14.15 C9.08859812,11.8496676 10.3808376,9.74127689 12.05,7.95 C14.5,5.36 18.12,4.08 21.54,3.4 C24.5813721,2.73504394 27.6655865,2.28393999 30.77,2.05 C30.87,2.04 30.97,2.04 31.07,2.03 C37.47,1.71 42.53,3.88 47.49,7.76 C50.1927291,9.77631392 52.1683037,12.6151058 53.12,15.85 C53.8451888,18.5213389 54.1852867,21.2825294 54.13,24.05 C54.110834,26.7831121 53.3129958,29.4541358 51.83,31.75 C50.34,34.1 48.39,36.14 47.26,38.71 Z" id="Shape" fill="#6A1B9A"/><path d="M44.26,38.71 C42.9803538,41.6319437 42.5006323,44.8415908 42.87,48.01 C43.0951005,50.0721875 43.5033794,52.1102353 44.09,54.1 C44.4048963,55.1305317 44.802868,56.1338218 45.28,57.1 C45.8718004,58.0090608 46.4061765,58.9542385 46.88,59.93 L24.78,59.99 C24.7,59.69 23.19,53.81 19.85,52.3 C19.23,52.52 18.57,52.74 17.9,52.97 C17.5823905,52.6995596 17.2290765,52.4741116 16.85,52.3 C14.44,53.14 11.5,54.11 9.27,54.67 C8.62676625,54.2742562 8.14753634,53.660132 7.92,52.94 C7.65806229,52.2276891 7.56229323,51.4649569 7.64,50.71 C7.87036773,49.9391054 7.94848689,49.1307419 7.87,48.33 C7.61,47.32 6.65,47.07 5.89,46.53 C5.27,46.09 6.38,44.68 6.38,44.68 C6.38,44.68 5.2,43.81 4.78,43.43 C4.34,43.07 4.96,42.45 5.51,41.28 C5.73694079,40.7719796 5.80323378,40.2067446 5.7,39.66 C5.49,38.59 3.87,38.18 3.07,37.59 C2.69,37.31 2.08,36.89 2.01,36.38 C1.9,35.67 2.74,34.67 3.15,34.17 C4.89454657,31.9217816 6.38996718,29.4908848 7.61,26.92 C7.77010631,26.6486227 7.86589137,26.3441631 7.89,26.03 C7.87,24.6 5.8,24.01 5.61,22.62 C5.58022555,22.2120559 5.65239212,21.803112 5.82,21.43 C6.39667192,20.2042401 6.89109856,18.9414478 7.3,17.65 C7.54612792,16.4653226 7.86336869,15.2965408 8.25,14.15 C9.08859812,11.8496676 10.3808376,9.74127689 12.05,7.95 C14.5,5.36 18.12,4.08 21.54,3.4 C24.5813721,2.73504394 27.6655865,2.28393999 30.77,2.05 C35.93,2.37 40.25,4.44 44.49,7.76 C47.1927291,9.77631392 49.1683037,12.6151058 50.12,15.85 C50.8451888,18.5213389 51.1852867,21.2825294 51.13,24.05 C51.110834,26.7831121 50.3129958,29.4541358 48.83,31.75 C47.34,34.1 45.39,36.14 44.26,38.71 Z" id="Shape" fill="#9D27B0"/><path d="M42,34 C41.999587,36.2746872 41.0308662,38.4416459 39.3361246,39.9588976 C37.641383,41.4761494 35.3808835,42.2002156 33.12,41.95 C32.92,41.93 32.72,41.9 32.52,41.86 C29.2322997,41.2434159 26.6762636,38.644821 26.114049,35.3473881 C25.5518345,32.0499552 27.1023664,28.7511877 30,27.08 L30,10 C29.9972318,8.37115065 30.9877478,6.90518689 32.5,6.3 C32.9741272,6.09816328 33.4847146,5.99604578 34,6 C35.0612728,5.99867092 36.0794609,6.41967146 36.8298947,7.17010528 C37.5803285,7.92053909 38.0013291,8.93872715 38,10 L38,27.08 C40.4773621,28.5028986 42.0034826,31.1430871 42,34 Z" id="Shape" fill="#00838F"/><path d="M39,34 C39.0003728,37.8335098 36.2832278,41.129306 32.52,41.86 C29.2322997,41.2434159 26.6762636,38.644821 26.114049,35.3473881 C25.5518345,32.0499552 27.1023664,28.7511877 30,27.08 L30,10 C29.9972318,8.37115065 30.9877478,6.90518689 32.5,6.3 C32.9959784,6.50020127 33.4478494,6.79578609 33.83,7.17 C34.5776392,7.92233113 34.9981058,8.93935734 35,10 L35,27.08 C37.4773621,28.5028986 39.0034826,31.1430871 39,34 Z" id="Shape" fill="#00BCD4"/><path d="M60,14 C60.0034826,16.8569129 58.4773621,19.4971014 56,20.92 L56,38 C56.0013291,39.0612728 55.5803285,40.0794609 54.8298947,40.8298947 C54.0794609,41.5803285 53.0612728,42.0013291 52,42 C51.4814699,42.0040744 50.9675923,41.9019795 50.49,41.7 C49.3629443,41.2422027 48.5054648,40.2963992 48.16,39.13 C48.0558048,38.7623034 48.0019805,38.3821695 48,38 L48,20.92 C45.1060201,19.2586836 43.5535732,15.9702099 44.11,12.68 C44.3872617,10.9830196 45.2126623,9.42353928 46.46,8.24 C46.706979,8.00113255 46.9710092,7.78055031 47.25,7.58 C47.5294001,7.36930758 47.8234804,7.17882372 48.13,7.01 C48.8769566,6.59262785 49.6879585,6.30201882 50.53,6.15 C50.7237543,6.10131414 50.9210242,6.06787857 51.12,6.05 C53.3808835,5.79978436 55.641383,6.52385058 57.3361246,8.04110236 C59.0308662,9.55835415 59.999587,11.7253128 60,14 Z" id="Shape" fill="#00838F"/><path d="M57,14 C57.0034826,16.8569129 55.4773621,19.4971014 53,20.92 L53,38 C52.9981058,39.0606427 52.5776392,40.0776689 51.83,40.83 C51.4485593,41.2098626 50.9922096,41.5061493 50.49,41.7 C49.3629443,41.2422027 48.5054648,40.2963992 48.16,39.13 C48.0558048,38.7623034 48.0019805,38.3821695 48,38 L48,20.92 C45.1060201,19.2586836 43.5535732,15.9702099 44.11,12.68 C44.3872617,10.9830196 45.2126623,9.42353928 46.46,8.24 C46.706979,8.00113255 46.9710092,7.78055031 47.25,7.58 C47.5294001,7.36930758 47.8234804,7.17882372 48.13,7.01 C48.8769566,6.59262785 49.6879585,6.30201882 50.53,6.15 C54.2894197,6.87768007 57.0036251,10.170804 57,14 Z" id="Shape" fill="#00BCD4"/><path d="M38,34 C37.9890589,36.2045911 36.2045911,37.9890589 34,38 C31.790861,38 30,36.209139 30,34 C30.0109411,31.7954089 31.7954089,30.0109411 34,30 C36.209139,30 38,31.790861 38,34 Z" id="Shape" fill="#F44335"/><path d="M56,14 C56,16.209139 54.209139,18 52,18 C49.7954089,17.9890589 48.0109411,16.2045911 48,14 C48,11.790861 49.790861,10 52,10 C54.2045911,10.0109411 55.9890589,11.7954089 56,14 Z" id="Shape" fill="#3F51B5"/><path d="M10.51,56 C8.86087491,55.9693546 7.42607373,54.8630997 6.977,53.276 C6.66180736,52.4152066 6.54956038,51.4932757 6.649,50.582 C6.682,50.319 6.74,50.051 6.798,49.782 C6.91954191,49.394293 6.95369328,48.9844766 6.898,48.582 C6.817,48.269 6.586,48.112 5.998,47.775 C5.764,47.643 5.527,47.506 5.305,47.35 C4.97965396,47.1182191 4.76494566,46.7619409 4.712,46.366 C4.67373033,45.8632085 4.78729954,45.3605079 5.038,44.923 C4.697,44.662 4.324,44.368 4.108,44.173 C3.183,43.418 3.796,42.335 4.163,41.688 C4.297,41.45 4.454,41.175 4.603,40.855 C4.74079442,40.5375542 4.78015866,40.1860629 4.716,39.846 C4.666,39.587 3.941,39.217 3.508,38.995 C3.1463953,38.8239078 2.79954825,38.6232248 2.471,38.395 C1.75491391,37.9888454 1.2318101,37.312269 1.019,36.517 C0.86,35.488 1.619,34.46 2.342,33.578 C4.05403523,31.3721378 5.52194066,28.9872106 6.72,26.465 C6.79591349,26.3282777 6.85309275,26.1819661 6.89,26.03 C6.89,25.755 6.565,25.439 6.076,24.99 C5.33769985,24.4445732 4.82048502,23.6515341 4.619,22.756 C4.56294901,22.1857868 4.65311901,21.6106949 4.881,21.085 C5.062,20.611 5.265,20.156 5.468,19.701 C5.82542646,18.9701756 6.11271352,18.2070903 6.326,17.422 L6.426,17.001 C6.65555173,15.9194988 6.95144435,14.8531499 7.312,13.808 C8.19454857,11.3787561 9.55884742,9.15288427 11.323,7.264 C13.559,4.9 16.837,3.315 21.345,2.42 C24.5306187,1.72068008 27.7633257,1.25642965 31.017,1.031 C35.685051,0.756605443 40.324793,1.92212596 44.309,4.37 C44.6247728,4.54776722 44.8196681,4.88245385 44.818429,5.24482401 C44.8171898,5.60719416 44.6200102,5.94054007 44.303029,6.11614357 C43.9860478,6.29174707 43.5988699,6.28212775 43.291,6.091 C39.6439956,3.84637151 35.3950085,2.77740441 31.12,3.029 C27.9646181,3.25042647 24.829616,3.70196034 21.74,4.38 C17.705,5.18 14.69,6.614 12.776,8.638 C11.1968387,10.3299783 9.97635163,12.3239847 9.188,14.5 C8.85614578,15.4680809 8.58396833,16.4556008 8.373,17.457 L8.273,17.882 C8.03223001,18.7907608 7.70437906,19.6741835 7.294,20.52 C7.105,20.94 6.917,21.36 6.754,21.788 C6.65929553,22.0047674 6.60669376,22.2375727 6.599,22.474 C6.643,22.798 7.025,23.148 7.429,23.519 C8.25473785,24.1017313 8.78760356,25.013548 8.89,26.019 C8.87135419,26.4934269 8.73897076,26.956426 8.504,27.369 C7.25068748,30.0044113 5.71502777,32.4960025 3.924,34.8 C3.162,35.731 3,36.1 3,36.249 C3.18487123,36.4285354 3.38569965,36.5908717 3.6,36.734 C3.86055542,36.9167929 4.13622025,37.0770398 4.424,37.213 C5.278,37.649 6.447,38.247 6.687,39.468 C6.83018406,40.2237094 6.73695159,41.0051861 6.42,41.706 C6.246,42.076 6.066,42.396 5.909,42.672 C5.86,42.758 5.809,42.854 5.759,42.941 C6.173,43.274 6.739,43.698 6.979,43.875 C7.19653158,44.03646 7.33924808,44.2792679 7.37449617,44.5478696 C7.40974425,44.8164714 7.33450751,45.0878809 7.166,45.3 C7.01745938,45.4932548 6.88817724,45.7005751 6.78,45.919 C6.849,45.959 6.918,45.999 6.988,46.038 C7.87185426,46.4188803 8.54685539,47.1646653 8.838,48.082 C8.98493295,48.7875986 8.95539225,49.5185593 8.752,50.21 C8.706,50.419 8.659,50.628 8.632,50.838 C8.57354163,51.4428017 8.65391662,52.0529676 8.867,52.622 C9.08834925,53.5434498 9.99383671,54.1290688 10.925,53.953 C13.8394025,53.252886 16.7108654,52.3847693 19.525,51.353 C19.8643892,51.2281245 20.2447562,51.2962158 20.5197476,51.5310745 C20.7947391,51.7659332 20.921504,52.1309622 20.8512673,52.4857096 C20.7810305,52.840457 20.5247368,53.1296438 20.181,53.242 C17.2871037,54.3039279 14.3329485,55.1938141 11.334,55.907 C11.0633364,55.9667008 10.7871614,55.9978711 10.51,56 Z M5.41,42.659 L5.442,42.688 L5.41,42.659 Z" id="Shape" fill="#000000"/><path d="M24.78,61 C24.3191958,60.9997651 23.9182106,60.6846758 23.809,60.237 C23.42,58.657 21.879,54.314 19.438,53.211 C19.0639436,53.0419148 18.8312137,52.6614066 18.8510746,52.25139 C18.8709354,51.8413735 19.1393525,51.4851405 19.528,51.353 C20.588,50.993 21.546,50.653 22.295,50.396 C22.969,50.161 23.476,49.984 23.743,49.896 C27.902,48.582 28.743,47.081 28.721,46.052 C28.7126042,45.6947344 28.8954452,45.3601283 29.2006484,45.1742246 C29.5058516,44.9883208 29.8870495,44.9793627 30.2006484,45.1507246 C30.5142474,45.3220864 30.7126043,45.6477344 30.721,46.005 C30.779,48.498 28.637,50.448 24.352,51.805 C24.1,51.887 23.608,52.059 22.952,52.286 L22.013,52.614 C23.6649911,54.4418569 24.8708746,56.6277134 25.536,59 L48.218,58.937 C48.196,58.902 48.174,58.869 48.152,58.837 C47.8634115,58.4198081 47.604122,57.9830924 47.376,57.53 C46.8787683,56.5217667 46.4637532,55.4750326 46.135,54.4 C45.5282586,52.3533716 45.1072219,50.2562207 44.877,48.134 C44.675936,46.4523207 44.7079042,44.7509391 44.972,43.078 C45.0584326,42.5323427 45.5708427,42.1600675 46.1165,42.2465001 C46.6621573,42.3329326 47.0344325,42.8453427 46.948,43.391 C46.7122386,44.8815779 46.6836347,46.3975895 46.863,47.896 C47.078776,49.8984743 47.4743724,51.87746 48.045,53.809 C48.3444446,54.7867169 48.7219936,55.7387827 49.174,56.656 C49.3660142,57.0305003 49.5824826,57.391949 49.822,57.738 C50.2467748,58.3208965 50.587758,58.9604505 50.835,59.638 C50.9304293,59.9414437 50.8757998,60.2721879 50.6878608,60.5288273 C50.4999218,60.7854667 50.201095,60.9373833 49.883,60.938 L24.783,61.008 L24.78,61 Z" id="Shape" fill="#000000"/><path d="M11.194,19.566 C10.8888508,19.5660321 10.6003862,19.4267344 10.4106651,19.1877325 C10.2209439,18.9487305 10.1507311,18.6361832 10.22,18.339 L10.32,17.906 C10.5128846,16.9898189 10.7599859,16.0858957 11.06,15.199 C11.7551734,13.2744666 12.8324398,11.51043 14.227,10.013 C15.7596052,8.53568316 17.6469016,7.47803948 19.707,6.942 C20.2355365,6.78073285 20.7947329,7.07846349 20.956,7.607 C21.1172671,8.13553651 20.8195365,8.69473285 20.291,8.856 C18.5638104,9.29316632 16.9769597,10.1643852 15.681,11.387 C14.4727696,12.6870159 13.5394558,14.2175962 12.937,15.887 C12.6670637,16.6958805 12.4436976,17.5195638 12.268,18.354 L12.168,18.791 C12.0632698,19.2445327 11.6594679,19.565833 11.194,19.566 Z" id="Shape" fill="#000000"/><circle id="Oval" fill="#000000" cx="10" cy="22" r="1"/><path d="M33.979,43 C29.5850639,42.9984096 25.836976,39.8188804 25.119,35.484 C24.5257081,31.9919351 26.0472294,28.4784402 29,26.522 L29,10 C29,7.23857625 31.2385763,5 34,5 C36.7614237,5 39,7.23857625 39,10 L39,26.523 C42.2934859,28.7295616 43.7553074,32.8312802 42.5997261,36.6234558 C41.4441448,40.4156314 37.9433332,43.0050977 33.979,43 Z M34,7 C32.3431458,7 31,8.34314575 31,10 L31,27.08 C31.0003484,27.4376137 30.8097028,27.7681932 30.5,27.947 C27.9637184,29.4011063 26.6056794,32.2845426 27.1,35.166 C27.63614,38.2427193 30.132616,40.6000274 33.235,40.959 C36.5203889,41.3118352 39.6050784,39.3192226 40.6342615,36.1793094 C41.6634445,33.0393962 40.3567974,29.607416 37.5,27.947 C37.1902972,27.7681932 36.9996516,27.4376137 37,27.08 L37,10 C37,8.34314575 35.6568542,7 34,7 Z" id="Shape" fill="#000000"/><path d="M34,39 C31.2385763,39 29,36.7614237 29,34 C29,31.2385763 31.2385763,29 34,29 C36.7614237,29 39,31.2385763 39,34 C38.9966939,36.7600532 36.7600532,38.9966939 34,39 Z M34,31 C32.3431458,31 31,32.3431458 31,34 C31,35.6568542 32.3431458,37 34,37 C35.6568542,37 37,35.6568542 37,34 C37,32.3431458 35.6568542,31 34,31 Z" id="Shape" fill="#000000"/><path d="M34,31 C33.4477153,31 33,30.5522847 33,30 L33,12 C33,11.4477153 33.4477153,11 34,11 C34.5522847,11 35,11.4477153 35,12 L35,30 C35,30.5522847 34.5522847,31 34,31 Z" id="Shape" fill="#000000"/><path d="M52,43 C49.2399468,42.9966939 47.0033061,40.7600532 47,38 L47,21.478 C44.0477656,19.5220501 42.5262858,16.009435 43.119,12.518 C43.7935398,8.46570524 47.1264492,5.38444472 51.2191356,5.02945923 C55.311822,4.67447374 59.1254819,7.13586552 60.487663,11.0115021 C61.8498442,14.8871388 60.4147984,19.1933082 57,21.477 L57,38 C56.9966939,40.7600532 54.7600532,42.9966939 52,43 Z M52.008,7 C51.7474694,7.00029885 51.4871262,7.01398356 51.228,7.041 C48.125696,7.40050126 45.6296323,9.75821123 45.094,12.835 C44.60013,15.7161244 45.9581068,18.5990293 48.494,20.053 C48.8037028,20.2318068 48.9943484,20.5623863 48.994,20.92 L48.994,38 C48.9940001,39.6568542 50.3371458,40.9999999 51.994,40.9999999 C53.6508542,40.9999999 54.9939999,39.6568542 54.994,38 L54.994,20.92 C54.9936516,20.5623863 55.1842972,20.2318068 55.494,20.053 C58.2259496,18.4662292 59.5564111,15.2461388 58.7412336,12.1937831 C57.926056,9.14142727 55.1673053,7.01342256 52.008,7 Z" id="Shape" fill="#000000"/><path d="M52,19 C49.2385763,19 47,16.7614237 47,14 C47,11.2385763 49.2385763,9 52,9 C54.7614237,9 57,11.2385763 57,14 C56.9966939,16.7600532 54.7600532,18.9966939 52,19 Z M52,11 C50.3431458,11 49,12.3431458 49,14 C49,15.6568542 50.3431458,17 52,17 C53.6568542,17 55,15.6568542 55,14 C55,12.3431458 53.6568542,11 52,11 Z" id="Shape" fill="#000000"/><path d="M52,29 C51.4477153,29 51,28.5522847 51,28 L51,18 C51,17.4477153 51.4477153,17 52,17 C52.5522847,17 53,17.4477153 53,18 L53,28 C53,28.5522847 52.5522847,29 52,29 Z" id="Shape" fill="#000000"/><path d="M56,32 L54,32 C53.4477153,32 53,31.5522847 53,31 C53,30.4477153 53.4477153,30 54,30 L56,30 C56.5522847,30 57,30.4477153 57,31 C57,31.5522847 56.5522847,32 56,32 Z" id="Shape" fill="#000000"/><path d="M56,37 L54,37 C53.4477153,37 53,36.5522847 53,36 C53,35.4477153 53.4477153,35 54,35 L56,35 C56.5522847,35 57,35.4477153 57,36 C57,36.5522847 56.5522847,37 56,37 Z" id="Shape" fill="#000000"/></g></g></svg>
