<?xml version="1.0" encoding="UTF-8"?>
<svg xmlns="http://www.w3.org/2000/svg" xmlns:xlink="http://www.w3.org/1999/xlink" width="512" height="512" viewBox="0 0 60 61" version="1.1"><!-- Generator: Sketch 51.3 (57544) - http://www.bohemiancoding.com/sketch --><title>052 - Split Personality</title><desc>Created with Sketch.</desc><defs/><g id="Page-1" stroke="none" stroke-width="1" fill="none" fill-rule="evenodd"><g id="052---Split-Personality" transform="translate(-1.000000, -1.000000)" fill-rule="nonzero"><path d="M47.26,38.71 C45.9803538,41.6319437 45.5006323,44.8415908 45.87,48.01 C46.0951005,50.0721875 46.5033794,52.1102353 47.09,54.1 C47.4048963,55.1305317 47.802868,56.1338218 48.28,57.1 C48.8718004,58.0090608 49.4061765,58.9542385 49.88,59.93 L24.78,60 L24.78,59.99 C24.7,59.69 23.19,53.81 19.85,52.3 C19.23,52.52 18.57,52.74 17.9,52.97 C15.6789002,53.7404523 13.4191713,54.3946722 11.13,54.93 C10.4993821,55.0806865 9.83512584,54.9878335 9.27,54.67 C8.62676625,54.2742562 8.14753634,53.660132 7.92,52.94 C7.65806229,52.2276891 7.56229323,51.4649569 7.64,50.71 C7.87036773,49.9391054 7.94848689,49.1307419 7.87,48.33 C7.61,47.32 6.65,47.07 5.89,46.53 C5.27,46.09 6.38,44.68 6.38,44.68 C6.38,44.68 5.2,43.81 4.78,43.43 C4.34,43.07 4.96,42.45 5.51,41.28 C5.73694079,40.7719796 5.80323378,40.2067446 5.7,39.66 C5.49,38.59 3.87,38.18 3.07,37.59 C2.69,37.31 2.08,36.89 2.01,36.38 C1.9,35.67 2.74,34.67 3.15,34.17 C4.89454657,31.9217816 6.38996718,29.4908848 7.61,26.92 C7.77010631,26.6486227 7.86589137,26.3441631 7.89,26.03 C7.87,24.6 5.8,24.01 5.61,22.62 C5.58022555,22.2120559 5.65239212,21.803112 5.82,21.43 C6.39667192,20.2042401 6.89109856,18.9414478 7.3,17.65 C7.54612792,16.4653226 7.86336869,15.2965408 8.25,14.15 C9.08859812,11.8496676 10.3808376,9.74127689 12.05,7.95 C14.5,5.36 18.12,4.08 21.54,3.4 C24.5813721,2.73504394 27.6655865,2.28393999 30.77,2.05 C30.87,2.04 30.97,2.04 31.07,2.03 C37.47,1.71 42.53,3.88 47.49,7.76 C50.1927291,9.77631392 52.1683037,12.6151058 53.12,15.85 C53.8451888,18.5213389 54.1852867,21.2825294 54.13,24.05 C54.110834,26.7831121 53.3129958,29.4541358 51.83,31.75 C50.34,34.1 48.39,36.14 47.26,38.71 Z" id="Shape" fill="#6A1B9A"/><path d="M44.26,38.71 C42.9803538,41.6319437 42.5006323,44.8415908 42.87,48.01 C43.0951005,50.0721875 43.5033794,52.1102353 44.09,54.1 C44.4048963,55.1305317 44.802868,56.1338218 45.28,57.1 C45.8718004,58.0090608 46.4061765,58.9542385 46.88,59.93 L24.78,59.99 C24.7,59.69 23.19,53.81 19.85,52.3 C19.23,52.52 18.57,52.74 17.9,52.97 C17.5823905,52.6995596 17.2290765,52.4741116 16.85,52.3 C14.44,53.14 11.5,54.11 9.27,54.67 C8.62676625,54.2742562 8.14753634,53.660132 7.92,52.94 C7.65806229,52.2276891 7.56229323,51.4649569 7.64,50.71 C7.87036773,49.9391054 7.94848689,49.1307419 7.87,48.33 C7.61,47.32 6.65,47.07 5.89,46.53 C5.27,46.09 6.38,44.68 6.38,44.68 C6.38,44.68 5.2,43.81 4.78,43.43 C4.34,43.07 4.96,42.45 5.51,41.28 C5.73694079,40.7719796 5.80323378,40.2067446 5.7,39.66 C5.49,38.59 3.87,38.18 3.07,37.59 C2.69,37.31 2.08,36.89 2.01,36.38 C1.9,35.67 2.74,34.67 3.15,34.17 C4.89454657,31.9217816 6.38996718,29.4908848 7.61,26.92 C7.77010631,26.6486227 7.86589137,26.3441631 7.89,26.03 C7.87,24.6 5.8,24.01 5.61,22.62 C5.58022555,22.2120559 5.65239212,21.803112 5.82,21.43 C6.39667192,20.2042401 6.89109856,18.9414478 7.3,17.65 C7.54612792,16.4653226 7.86336869,15.2965408 8.25,14.15 C9.08859812,11.8496676 10.3808376,9.74127689 12.05,7.95 C14.5,5.36 18.12,4.08 21.54,3.4 C24.5813721,2.73504394 27.6655865,2.28393999 30.77,2.05 C35.93,2.37 40.25,4.44 44.49,7.76 C47.1927291,9.77631392 49.1683037,12.6151058 50.12,15.85 C50.8451888,18.5213389 51.1852867,21.2825294 51.13,24.05 C51.110834,26.7831121 50.3129958,29.4541358 48.83,31.75 C47.34,34.1 45.39,36.14 44.26,38.71 Z" id="Shape" fill="#9D27B0"/><path d="M60,31 C59.9946937,36.0047678 57.1168524,40.5620809 52.6002882,42.7180902 C48.0837239,44.8740996 42.7305517,44.2459106 38.8358281,41.1028456 C34.9411045,37.9597807 33.1965094,32.8600296 34.35,27.99 L46.65,18.01 C46.77,18 46.88,18 47,18 C54.1797017,18 60,23.8202983 60,31 Z" id="Shape" fill="#0377BC"/><path d="M57,30 C57,37.18 51.646,43 45.04,43 C42.0454927,42.9840728 39.1772511,41.7916658 37.054,39.68 C35.0600922,37.2284445 33.9804699,34.1599701 34,31 C33.9984997,29.9879919 34.1064609,28.9787899 34.322,27.99 L45.638,18.01 C45.748,18 45.85,18 45.96,18 C48.9545073,18.0159272 51.8227489,19.2083342 53.946,21.32 C55.9399078,23.7715555 57.0195301,26.8400299 57,30 Z" id="Shape" fill="#02A9F4"/><circle id="Oval" fill="#607D8B" cx="42" cy="28" r="2"/><circle id="Oval" fill="#607D8B" cx="52" cy="28" r="2"/><path d="M47,15 C46.9989078,21.1354806 42.7082607,26.4349199 36.7073017,27.7126581 C30.7063427,28.9903963 24.6290001,25.8985335 22.1285557,20.2956859 C19.6281113,14.6928383 21.3853808,8.10453707 26.3440142,4.49121747 C31.3026476,0.877897869 38.1125188,1.2233868 42.68,5.32 C45.4298618,7.78637471 47.0006576,11.3061208 47,15 Z" id="Shape" fill="#FEC108"/><path d="M44,14 C44,21.18 38.646,27 32.04,27 C29.0454927,26.9840728 26.1772511,25.7916658 24.054,23.68 C22.0600922,21.2284445 20.9804699,18.1599701 21,15 C21,7.82 26.354,2 32.96,2 C35.9545073,2.01592719 38.8227489,3.20833415 40.946,5.32 C42.9399078,7.77155546 44.0195301,10.8400299 44,14 Z" id="Shape" fill="#FFDC00"/><circle id="Oval" fill="#607D8B" cx="29" cy="12" r="2"/><circle id="Oval" fill="#607D8B" cx="39" cy="12" r="2"/><path d="M10.51,56 C8.86087491,55.9693546 7.42607373,54.8630997 6.977,53.276 C6.66180736,52.4152066 6.54956038,51.4932757 6.649,50.582 C6.682,50.319 6.74,50.051 6.798,49.782 C6.91954191,49.394293 6.95369328,48.9844766 6.898,48.582 C6.817,48.269 6.586,48.112 5.998,47.775 C5.764,47.643 5.527,47.506 5.305,47.35 C4.97965396,47.1182191 4.76494566,46.7619409 4.712,46.366 C4.67373033,45.8632085 4.78729954,45.3605079 5.038,44.923 C4.697,44.662 4.324,44.368 4.108,44.173 C3.183,43.418 3.796,42.335 4.163,41.688 C4.297,41.45 4.454,41.175 4.603,40.855 C4.74079442,40.5375542 4.78015866,40.1860629 4.716,39.846 C4.666,39.587 3.941,39.217 3.508,38.995 C3.1463953,38.8239078 2.79954825,38.6232248 2.471,38.395 C1.75491391,37.9888454 1.2318101,37.312269 1.019,36.517 C0.86,35.488 1.619,34.46 2.342,33.578 C4.05403523,31.3721378 5.52194066,28.9872106 6.72,26.465 C6.79591349,26.3282777 6.85309275,26.1819661 6.89,26.03 C6.89,25.755 6.565,25.439 6.076,24.99 C5.33769985,24.4445732 4.82048502,23.6515341 4.619,22.756 C4.56294901,22.1857868 4.65311901,21.6106949 4.881,21.085 C5.062,20.611 5.265,20.156 5.468,19.701 C5.82542646,18.9701756 6.11271352,18.2070903 6.326,17.422 L6.426,17.001 C6.65555173,15.9194988 6.95144435,14.8531499 7.312,13.808 C8.19432433,11.378648 9.55864935,9.15273351 11.323,7.264 C13.559,4.9 16.837,3.315 21.345,2.42 C24.5306187,1.72068008 27.7633257,1.25642965 31.017,1.031 C31.784,0.992 32.553,0.987 33.37,1.021 C33.9188419,1.03984339 34.3542466,1.48983524 34.355,2.039 C34.3561075,2.57890874 33.9199054,3.01779517 33.38,3.02 C32.536,2.989 31.828,2.992 31.122,3.029 C27.9659426,3.25028719 24.8302655,3.70182201 21.74,4.38 C17.705,5.18 14.69,6.614 12.776,8.638 C11.1968387,10.3299783 9.97635163,12.3239847 9.188,14.5 C8.85614578,15.4680809 8.58396833,16.4556008 8.373,17.457 L8.273,17.882 C8.03223001,18.7907608 7.70437906,19.6741835 7.294,20.52 C7.105,20.94 6.917,21.36 6.754,21.788 C6.65929553,22.0047674 6.60669376,22.2375727 6.599,22.474 C6.643,22.798 7.025,23.148 7.429,23.519 C8.25473785,24.1017313 8.78760356,25.013548 8.89,26.019 C8.87135419,26.4934269 8.73897076,26.956426 8.504,27.369 C7.25068748,30.0044113 5.71502777,32.4960025 3.924,34.8 C3.162,35.731 3,36.1 3,36.249 C3.18487123,36.4285354 3.38569965,36.5908717 3.6,36.734 C3.86055542,36.9167929 4.13622025,37.0770398 4.424,37.213 C5.278,37.649 6.447,38.247 6.687,39.468 C6.83018406,40.2237094 6.73695159,41.0051861 6.42,41.706 C6.246,42.076 6.066,42.396 5.909,42.672 C5.86,42.758 5.809,42.854 5.759,42.941 C6.173,43.274 6.739,43.698 6.979,43.875 C7.19653158,44.03646 7.33924808,44.2792679 7.37449617,44.5478696 C7.40974425,44.8164714 7.33450751,45.0878809 7.166,45.3 C7.01745938,45.4932548 6.88817724,45.7005751 6.78,45.919 C6.849,45.959 6.918,45.999 6.988,46.038 C7.87185426,46.4188803 8.54685539,47.1646653 8.838,48.082 C8.98493295,48.7875986 8.95539225,49.5185593 8.752,50.21 C8.706,50.419 8.659,50.628 8.632,50.838 C8.57354163,51.4428017 8.65391662,52.0529676 8.867,52.622 C9.08879513,53.543134 9.99394191,54.1285326 10.925,53.953 C13.8394025,53.252886 16.7108654,52.3847693 19.525,51.353 C19.8643892,51.2281245 20.2447562,51.2962158 20.5197476,51.5310745 C20.7947391,51.7659332 20.921504,52.1309622 20.8512673,52.4857096 C20.7810305,52.840457 20.5247368,53.1296438 20.181,53.242 C17.2871037,54.3039279 14.3329485,55.1938141 11.334,55.907 C11.0633364,55.9667008 10.7871614,55.9978711 10.51,56 Z M5.41,42.659 L5.442,42.688 L5.41,42.659 Z" id="Shape" fill="#000000"/><path d="M53.929,21.01 C53.4234657,21.0090423 52.9981578,20.6309431 52.938,20.129 C52.7817873,18.7752071 52.5210082,17.4355382 52.158,16.122 C51.268664,13.0883716 49.4129226,10.428183 46.873,8.546 C44.5374235,6.64562929 41.9012609,5.14808614 39.073,4.115 C38.9302769,4.06661409 38.7994097,3.98857089 38.689,3.886 C38.3348079,3.55310642 38.2712925,3.01373483 38.5384661,2.60767031 C38.8056398,2.20160579 39.3261105,2.04647295 39.772,2.24 C42.7926875,3.34534536 45.6089586,4.94440883 48.106,6.972 C50.9704742,9.12193125 53.0660062,12.1375898 54.082,15.572 C54.4737954,16.9863507 54.7549769,18.4290358 54.923,19.887 C54.9548741,20.150525 54.8806655,20.4159103 54.7167254,20.6246806 C54.5527854,20.8334509 54.3125669,20.9684745 54.049,21 C54.0092469,21.0058256 53.969169,21.0091654 53.929,21.01 Z" id="Shape" fill="#000000"/><path d="M24.78,61 C24.3191958,60.9997651 23.9182106,60.6846758 23.809,60.237 C23.42,58.657 21.879,54.314 19.438,53.211 C19.0639436,53.0419148 18.8312137,52.6614066 18.8510746,52.25139 C18.8709354,51.8413735 19.1393525,51.4851405 19.528,51.353 C20.588,50.993 21.546,50.653 22.295,50.396 C22.969,50.161 23.476,49.984 23.743,49.896 C27.902,48.582 28.743,47.081 28.721,46.052 C28.7126042,45.6947344 28.8954452,45.3601283 29.2006484,45.1742246 C29.5058516,44.9883208 29.8870495,44.9793627 30.2006484,45.1507246 C30.5142474,45.3220864 30.7126043,45.6477344 30.721,46.005 C30.779,48.498 28.637,50.448 24.352,51.805 C24.1,51.887 23.608,52.059 22.952,52.286 L22.013,52.614 C23.6649911,54.4418569 24.8708746,56.6277134 25.536,59 L48.218,58.937 C48.196,58.902 48.174,58.869 48.152,58.837 C47.8634115,58.4198081 47.604122,57.9830924 47.376,57.53 C46.8787683,56.5217667 46.4637532,55.4750326 46.135,54.4 C45.5282586,52.3533716 45.1072219,50.2562207 44.877,48.134 C44.708,46.7029723 44.708,45.2570277 44.877,43.826 C44.9193359,43.4712352 45.1477207,43.1660051 45.476124,43.0252867 C45.8045273,42.8845684 46.1830567,42.9297403 46.469124,43.1437867 C46.7551913,43.3578331 46.905336,43.7082353 46.863,44.063 C46.7120015,45.3362053 46.7120015,46.6227947 46.863,47.896 C47.078776,49.8984743 47.4743724,51.87746 48.045,53.809 C48.3444446,54.7867169 48.7219936,55.7387827 49.174,56.656 C49.3660142,57.0305003 49.5824826,57.391949 49.822,57.738 C50.2467748,58.3208965 50.587758,58.9604505 50.835,59.638 C50.9304293,59.9414437 50.8757998,60.2721879 50.6878608,60.5288273 C50.4999218,60.7854667 50.201095,60.9373833 49.883,60.938 L24.783,61.008 L24.78,61 Z" id="Shape" fill="#000000"/><path d="M11.194,19.566 C10.8888508,19.5660321 10.6003862,19.4267344 10.4106651,19.1877325 C10.2209439,18.9487305 10.1507311,18.6361832 10.22,18.339 L10.32,17.906 C10.5128846,16.9898189 10.7599859,16.0858957 11.06,15.199 C11.7551734,13.2744666 12.8324398,11.51043 14.227,10.013 C15.7596052,8.53568316 17.6469016,7.47803948 19.707,6.942 C20.2355365,6.78073285 20.7947329,7.07846349 20.956,7.607 C21.1172671,8.13553651 20.8195365,8.69473285 20.291,8.856 C18.5638104,9.29316632 16.9769597,10.1643852 15.681,11.387 C14.4727696,12.6870159 13.5394558,14.2175962 12.937,15.887 C12.6670637,16.6958805 12.4436976,17.5195638 12.268,18.354 L12.168,18.791 C12.0632698,19.2445327 11.6594679,19.565833 11.194,19.566 Z" id="Shape" fill="#000000"/><circle id="Oval" fill="#000000" cx="10" cy="22" r="1"/><path d="M34,29 C26.2680135,29 20,22.7319865 20,15 C20,7.2680135 26.2680135,1 34,1 C41.7319865,1 48,7.2680135 48,15 C47.9917327,22.7285595 41.7285595,28.9917327 34,29 Z M34,3 C27.372583,3 22,8.372583 22,15 C22,21.627417 27.372583,27 34,27 C40.627417,27 46,21.627417 46,15 C45.9928352,8.37555305 40.624447,3.00716485 34,3 Z" id="Shape" fill="#000000"/><path d="M29,15 C27.3431458,15 26,13.6568542 26,12 C26,10.3431458 27.3431458,9 29,9 C30.6568542,9 32,10.3431458 32,12 C32,12.7956495 31.6839295,13.5587112 31.1213203,14.1213203 C30.5587112,14.6839295 29.7956495,15 29,15 Z M29,11 C28.4477153,11 28,11.4477153 28,12 C28,12.5522847 28.4477153,13 29,13 C29.5522847,13 30,12.5522847 30,12 C30,11.4477153 29.5522847,11 29,11 Z" id="Shape" fill="#000000"/><path d="M39,15 C37.3431458,15 36,13.6568542 36,12 C36,10.3431458 37.3431458,9 39,9 C40.6568542,9 42,10.3431458 42,12 C42,12.7956495 41.6839295,13.5587112 41.1213203,14.1213203 C40.5587112,14.6839295 39.7956495,15 39,15 Z M39,11 C38.4477153,11 38,11.4477153 38,12 C38,12.5522847 38.4477153,13 39,13 C39.5522847,13 40,12.5522847 40,12 C40,11.4477153 39.5522847,11 39,11 Z" id="Shape" fill="#000000"/><path d="M34,24 C30.6876624,23.9966926 28.0033074,21.3123376 28,18 C28,17.4477153 28.4477153,17 29,17 C29.5522847,17 30,17.4477153 30,18 C30,20.209139 31.790861,22 34,22 C36.209139,22 38,20.209139 38,18 C38,17.4477153 38.4477153,17 39,17 C39.5522847,17 40,17.4477153 40,18 C39.9966926,21.3123376 37.3123376,23.9966926 34,24 Z" id="Shape" fill="#000000"/><path d="M47,45 C42.7181136,44.9963004 38.6729434,43.0349579 36.0181988,39.6753604 C33.3634542,36.3157629 32.3905629,31.9267141 33.377,27.76 C33.5095573,27.2286273 34.0448735,26.9027319 34.5777814,27.0289758 C35.1106894,27.1552197 35.4429127,27.6866318 35.323,28.221 C34.1396983,33.1917112 36.2337882,38.3665564 40.5409615,41.1154528 C44.8481347,43.8643492 50.4236004,43.5843184 54.4336629,40.4176843 C58.4437254,37.2510502 60.0087659,31.8924232 58.3333623,27.065292 C56.6579586,22.2381608 52.1096155,19.0013707 47,19 C46.905,19 46.823,19 46.731,19.007 C46.3748062,19.0359385 46.030231,18.8726517 45.8270726,18.5786481 C45.6239143,18.2846444 45.5930372,17.9045902 45.7460726,17.5816481 C45.8991081,17.2587059 46.2128062,17.0419385 46.569,17.013 C46.717,17 46.852,17 47,17 C54.7319865,17 61,23.2680135 61,31 C61,38.7319865 54.7319865,45 47,45 Z" id="Shape" fill="#000000"/><path d="M42,31 C40.3431458,31 39,29.6568542 39,28 C39,26.3431458 40.3431458,25 42,25 C43.6568542,25 45,26.3431458 45,28 C45,29.6568542 43.6568542,31 42,31 Z M42,27 C41.4477153,27 41,27.4477153 41,28 C41,28.5522847 41.4477153,29 42,29 C42.5522847,29 43,28.5522847 43,28 C43,27.4477153 42.5522847,27 42,27 Z" id="Shape" fill="#000000"/><path d="M52,31 C50.3431458,31 49,29.6568542 49,28 C49,26.3431458 50.3431458,25 52,25 C53.6568542,25 55,26.3431458 55,28 C55,29.6568542 53.6568542,31 52,31 Z M52,27 C51.4477153,27 51,27.4477153 51,28 C51,28.5522847 51.4477153,29 52,29 C52.5522847,29 53,28.5522847 53,28 C53,27.4477153 52.5522847,27 52,27 Z" id="Shape" fill="#000000"/><path d="M52,40 C51.4477153,40 51,39.5522847 51,39 C51,36.790861 49.209139,35 47,35 C44.790861,35 43,36.790861 43,39 C43,39.5522847 42.5522847,40 42,40 C41.4477153,40 41,39.5522847 41,39 C41,35.6862915 43.6862915,33 47,33 C50.3137085,33 53,35.6862915 53,39 C53,39.5522847 52.5522847,40 52,40 Z" id="Shape" fill="#000000"/></g></g></svg>
