<?xml version="1.0" encoding="UTF-8"?>
<svg xmlns="http://www.w3.org/2000/svg" xmlns:xlink="http://www.w3.org/1999/xlink" width="512" height="512" viewBox="0 0 54 60" version="1.1"><!-- Generator: Sketch 51.3 (57544) - http://www.bohemiancoding.com/sketch --><title>053 - Materialistic</title><desc>Created with Sketch.</desc><defs/><g id="Page-1" stroke="none" stroke-width="1" fill="none" fill-rule="evenodd"><g id="053---Materialistic" transform="translate(-1.000000, 0.000000)" fill-rule="nonzero"><path d="M41.208,22.22 C39.937,21.57 38.667,23.5 38.667,23.5 L38.588,23.49 C38.7509709,20.4955491 38.7509709,17.4944509 38.588,14.5 C38,1.64 23.187,1 23.187,1 L20.807,1 C20.807,1 6,1.64 5.407,14.5 C5.24402908,17.4944509 5.24402908,20.4955491 5.407,23.49 L5.328,23.5 C5.328,23.5 4.057,21.57 2.787,22.22 C1.528,22.85 2.148,28.64 2.148,28.64 C2.148,28.64 2.778,33.1 6.528,35.04 C6.367,38.76 6.088,42.14 10.148,46 C10.6300751,46.4551694 11.0873982,46.9358594 11.518,47.44 L11.518,56.96 C11.5179862,58.060676 12.4073377,58.9544966 13.508,58.96 L30.487,58.96 C31.5876623,58.9544966 32.4770138,58.060676 32.477,56.96 L32.477,47.44 C32.9076018,46.9358594 33.3649249,46.4551694 33.847,46 C37.907,42.14 37.628,38.76 37.467,35.04 C41.217,33.1 41.847,28.64 41.847,28.64 C41.847,28.64 42.467,22.85 41.208,22.22 Z" id="Shape" fill="#F29C1F"/><path d="M6.588,33.14 C6.588,33.79 6.567,34.42 6.528,35.04 C2.778,33.1 2.148,28.64 2.148,28.64 C2.148,28.64 1.528,22.85 2.787,22.22 C4.057,21.57 5.328,23.5 5.328,23.5 L5.407,23.49 C5.727,28.45 6.588,30.02 6.588,33.14 Z" id="Shape" fill="#FF9801"/><path d="M38.59,23.49 C38.27,28.45 37.41,30.02 37.41,33.14 C37.41,33.79 37.43,34.42 37.47,35.04 C37.63,38.76 37.91,42.14 33.85,46 C33.3674124,46.4546547 32.9100622,46.9353732 32.48,47.44 C29.06,51.41 28.6,55 24.37,55 L19.63,55 C15.4,55 14.94,51.41 11.52,47.44 C11.0899378,46.9353732 10.6325876,46.4546547 10.15,46 C6.09,42.14 6.37,38.76 6.53,35.04 C6.57,34.42 6.59,33.79 6.59,33.14 C6.59,30.02 5.73,28.45 5.41,23.49 C5.2465184,20.495563 5.2465184,17.494437 5.41,14.5 C5.95,2.75 18.37,1.2 20.5,1.02 C20.7,1 20.81,1 20.81,1 L23.19,1 C23.19,1 38,1.64 38.59,14.5 C38.7534816,17.494437 38.7534816,20.495563 38.59,23.49 Z" id="Shape" fill="#FEC108"/><path d="M35.59,23.49 C35.27,28.45 34.41,30.02 34.41,33.14 C34.41,33.79 34.43,34.42 34.47,35.04 C34.63,38.76 34.91,42.14 30.85,46 C30.3674124,46.4546547 29.9100622,46.9353732 29.48,47.44 C26.06,51.41 25.6,55 21.37,55 L19.63,55 C15.4,55 14.94,51.41 11.52,47.44 C11.0899378,46.9353732 10.6325876,46.4546547 10.15,46 C6.09,42.14 6.37,38.76 6.53,35.04 C6.57,34.42 6.59,33.79 6.59,33.14 C6.59,30.02 5.73,28.45 5.41,23.49 C5.2465184,20.495563 5.2465184,17.494437 5.41,14.5 C5.95,2.75 18.37,1.2 20.5,1.02 C22.63,1.2 35.05,2.75 35.59,14.5 C35.7534816,17.494437 35.7534816,20.495563 35.59,23.49 Z" id="Shape" fill="#FFDC00"/><path d="M41.847,28.64 C41.847,28.64 41.217,33.1 37.467,35.04 C37.427,34.42 37.407,33.79 37.407,33.14 C37.407,30.02 38.268,28.45 38.588,23.49 L38.667,23.5 C38.667,23.5 39.937,21.57 41.208,22.22 C42.467,22.85 41.847,28.64 41.847,28.64 Z" id="Shape" fill="#FF9801"/><path d="M32.477,47.44 L32.477,56.96 C32.4770138,58.060676 31.5876623,58.9544966 30.487,58.96 L13.508,58.96 C12.4073377,58.9544966 11.5179862,58.060676 11.518,56.96 L11.518,47.44 C14.937,51.41 15.4,55 19.627,55 L24.367,55 C28.6,55 29.057,51.41 32.477,47.44 Z" id="Shape" fill="#FF9801"/><rect id="Rectangle-path" fill="#007900" x="16" y="6.04" width="38" height="20" rx="2"/><rect id="Rectangle-path" fill="#008A00" x="16" y="6.04" width="35" height="20" rx="2"/><path d="M27.01,10.04 L21,10.04 C20.4477153,10.04 20,10.4877153 20,11.04 L20,21.04 C20,21.5922847 20.4477153,22.04 21,22.04 L49,22.04 C49.5522847,22.04 50,21.5922847 50,21.04 L50,11.04 C50,10.4877153 49.5522847,10.04 49,10.04 L27.01,10.04 Z" id="Shape" fill="#A4C400"/><circle id="Oval" fill="#14A085" cx="35" cy="16.04" r="10"/><circle id="Oval" fill="#A4C400" cx="35" cy="16.04" r="9.04"/><path d="M6.53,36.076 C6.37067056,36.0760148 6.21364387,36.0379581 6.072,35.965 C1.907,33.813 1.192,29.026 1.164,28.823 C0.842,25.835 0.788,22.147 2.339,21.365 C3.967,20.539 5.511,21.996 6.166,22.988 C6.45864172,23.4487382 6.32777555,24.0590241 5.87195367,24.359266 C5.41613178,24.659508 4.80375962,24.5387803 4.496,24.088 C4.205,23.654 3.611,23.096 3.307,23.128 C2.97,23.72 2.894,26.2 3.148,28.576 C3.148,28.576 3.759,32.517 6.99,34.186 C7.39951073,34.3980617 7.61090029,34.8626656 7.50173467,35.3107193 C7.39256905,35.7587729 6.99116073,36.0740722 6.53,36.074 L6.53,36.076 Z" id="Shape" fill="#000000"/><path d="M24.37,56.04 L19.63,56.04 C16.158,56.04 14.786,53.933 13.197,51.491 C12.152706,49.7669717 10.8977094,48.1797503 9.461,46.766 C5.191,42.711 5.361,38.977 5.524,35.366 C5.557,34.651 5.59,33.925 5.59,33.181 C5.56909313,31.8555116 5.41871188,30.5352379 5.141,29.239 C4.665,26.617 4.013,23.026 4.411,14.494 C5.036,0.878 20.61,0.048 20.767,0.041 L23.19,0.041 C23.549,0.056 31.025,0.441 35.797,5.341 C36.1752253,5.73802333 36.163179,6.36557911 35.7699958,6.74779486 C35.3768126,7.1300106 34.7491672,7.12430296 34.363,6.735 C30.153,2.406 23.215,2.04 23.146,2.035 L20.81,2.035 C20.287,2.059 6.949,2.8 6.41,14.581 C6.022,22.887 6.625,26.208 7.11,28.881 C7.41069164,30.2951556 7.57212921,31.7353663 7.592,33.181 C7.592,33.956 7.558,34.713 7.524,35.457 C7.361,39.052 7.232,41.891 10.84,45.315 C12.3881876,46.8380857 13.7430385,48.5459232 14.874,50.4 C16.517,52.924 17.339,54.04 19.63,54.04 L24.37,54.04 C26.661,54.04 27.483,52.924 29.126,50.4 C30.2575158,48.5454611 31.6130448,46.8372796 33.162,45.314 C36.769,41.885 36.644,39.05 36.486,35.46 L36.471,35.123 C36.431,34.503 36.41,33.853 36.41,33.18 C36.4304906,31.7392456 36.5905723,30.3038687 36.888,28.894 C37.041,28.046 37.214,27.086 37.357,25.918 C37.4243788,25.3695813 37.9235813,24.9796213 38.472,25.047 C39.0204187,25.1143788 39.4103787,25.6135813 39.343,26.162 C39.193,27.386 39.014,28.375 38.856,29.248 C38.5804987,30.5411549 38.4311321,31.8579924 38.41,33.18 C38.41,33.808 38.43,34.417 38.468,35.016 L38.484,35.372 C38.643,38.978 38.807,42.707 34.539,46.765 C33.1014027,48.1790921 31.8454137,49.7666298 30.8,51.491 C29.214,53.933 27.842,56.04 24.37,56.04 Z" id="Shape" fill="#000000"/><path d="M37.471,36.08 C37.0098393,36.0800722 36.6084309,35.7647729 36.4992653,35.3167193 C36.3900997,34.8686656 36.6014893,34.4040617 37.011,34.192 C40.232,32.525 40.851,28.598 40.86,28.537 C40.86,28.537 40.98,27.35 40.99,26.037 C40.9938469,25.4874509 41.4404374,25.0439865 41.99,25.044 L42,25.044 C42.5518988,25.0484017 42.995881,25.4990973 42.992,26.051 C42.981,27.483 42.852,28.735 42.847,28.788 C42.814,29.026 42.092,33.819 37.932,35.972 C37.7891945,36.0443847 37.6310966,36.0814228 37.471,36.08 Z" id="Shape" fill="#000000"/><path d="M30.487,60 L13.513,60 C11.8561458,60 10.513,58.6568542 10.513,57 L10.513,47.48 C10.513,46.9277153 10.9607153,46.48 11.513,46.48 C12.0652847,46.48 12.513,46.9277153 12.513,47.48 L12.513,57 C12.513,57.5522847 12.9607153,58 13.513,58 L30.487,58 C31.0392847,58 31.487,57.5522847 31.487,57 L31.487,47.48 C31.487,46.9277153 31.9347153,46.48 32.487,46.48 C33.0392847,46.48 33.487,46.9277153 33.487,47.48 L33.487,57 C33.487,58.6568542 32.1438542,60 30.487,60 Z" id="Shape" fill="#000000"/><path d="M52,27.04 L18,27.04 C16.3431458,27.04 15,25.6968542 15,24.04 L15,8.04 C15,6.38314575 16.3431458,5.04 18,5.04 L52,5.04 C53.6568542,5.04 55,6.38314575 55,8.04 L55,24.04 C55,25.6968542 53.6568542,27.04 52,27.04 Z M18,7.04 C17.4477153,7.04 17,7.48771525 17,8.04 L17,24.04 C17,24.5922847 17.4477153,25.04 18,25.04 L52,25.04 C52.5522847,25.04 53,24.5922847 53,24.04 L53,8.04 C53,7.48771525 52.5522847,7.04 52,7.04 L18,7.04 Z" id="Shape" fill="#000000"/><path d="M49,23.04 L42.99,23.04 C42.4377153,23.04 41.99,22.5922847 41.99,22.04 C41.99,21.4877153 42.4377153,21.04 42.99,21.04 L49,21.04 L49,11.04 L42.99,11.04 C42.4377153,11.04 41.99,10.5922847 41.99,10.04 C41.99,9.48771525 42.4377153,9.04 42.99,9.04 L49,9.04 C50.1045695,9.04 51,9.9354305 51,11.04 L51,21.04 C51,22.1445695 50.1045695,23.04 49,23.04 Z" id="Shape" fill="#000000"/><path d="M27.01,23.04 L21,23.04 C19.8954305,23.04 19,22.1445695 19,21.04 L19,11.04 C19,9.9354305 19.8954305,9.04 21,9.04 L27.01,9.04 C27.5622847,9.04 28.01,9.48771525 28.01,10.04 C28.01,10.5922847 27.5622847,11.04 27.01,11.04 L21,11.04 L21,21.04 L27.01,21.04 C27.5622847,21.04 28.01,21.4877153 28.01,22.04 C28.01,22.5922847 27.5622847,23.04 27.01,23.04 Z" id="Shape" fill="#000000"/><path d="M35,27.04 C30.5509153,27.04 26.5399161,24.359936 24.8373251,20.2495178 C23.1347341,16.1390995 24.0758475,11.4078034 27.2218254,8.26182541 C30.3678034,5.11584745 35.0990995,4.17473414 39.2095178,5.87732514 C43.319936,7.57991614 46,11.5909153 46,16.04 C45.9928365,22.1121626 41.0721626,27.0328365 35,27.04 Z M35,7.04 C30.0294373,7.04 26,11.0694373 26,16.04 C26,21.0105627 30.0294373,25.04 35,25.04 C39.9705627,25.04 44,21.0105627 44,16.04 C43.9944889,11.0717218 39.9682782,7.04551113 35,7.04 Z" id="Shape" fill="#000000"/><path d="M36.5,22.04 L32,22.04 C31.4477153,22.04 31,21.5922847 31,21.04 C31,20.4877153 31.4477153,20.04 32,20.04 L36.5,20.04 C37.3284271,20.04 38,19.3684271 38,18.54 C38,17.7115729 37.3284271,17.04 36.5,17.04 L33.5,17.04 C31.5670034,17.04 30,15.4729966 30,13.54 C30,11.6070034 31.5670034,10.04 33.5,10.04 L38,10.04 C38.5522847,10.04 39,10.4877153 39,11.04 C39,11.5922847 38.5522847,12.04 38,12.04 L33.5,12.04 C32.6715729,12.04 32,12.7115729 32,13.54 C32,14.3684271 32.6715729,15.04 33.5,15.04 L36.5,15.04 C38.4329966,15.04 40,16.6070034 40,18.54 C40,20.4729966 38.4329966,22.04 36.5,22.04 Z" id="Shape" fill="#000000"/><path d="M35,23.04 C34.4477153,23.04 34,22.5922847 34,22.04 L34,10.04 C34,9.48771525 34.4477153,9.04 35,9.04 C35.5522847,9.04 36,9.48771525 36,10.04 L36,22.04 C36,22.5922847 35.5522847,23.04 35,23.04 Z" id="Shape" fill="#000000"/></g></g></svg>
