<?xml version="1.0" encoding="UTF-8"?>
<svg xmlns="http://www.w3.org/2000/svg" xmlns:xlink="http://www.w3.org/1999/xlink" width="512" height="512" viewBox="0 0 60 60" version="1.1"><!-- Generator: Sketch 51.3 (57544) - http://www.bohemiancoding.com/sketch --><title>054 - Love</title><desc>Created with Sketch.</desc><defs/><g id="Page-1" stroke="none" stroke-width="1" fill="none" fill-rule="evenodd"><g id="054---Love" transform="translate(-1.000000, 0.000000)"><path d="M24.593,33.14 C24.593,33.79 24.573,34.42 24.533,35.04 C20.783,33.1 20.153,28.64 20.153,28.64 C20.153,28.64 19.533,22.85 20.792,22.22 C22.063,21.57 23.333,23.5 23.333,23.5 L23.412,23.49 C23.732,28.45 24.593,30.02 24.593,33.14 Z" id="Shape" fill="#F29C1F" fill-rule="nonzero"/><path d="M59.213,22.22 C57.943,21.57 56.672,23.5 56.672,23.5 L56.593,23.49 C56.7559709,20.4955491 56.7559709,17.4944509 56.593,14.5 C56,1.64 41.193,1 41.193,1 L38.812,1 C36.0859428,1.20934799 33.4229586,1.92596615 30.96,3.113 C28.5186807,1.94945606 25.8835087,1.24667573 23.187,1.04 L20.807,1.04 C20.807,1.04 6,1.68 5.407,14.54 C5.24402908,17.5344509 5.24402908,20.5355491 5.407,23.53 L5.328,23.54 C5.328,23.54 4.057,21.61 2.787,22.26 C1.528,22.89 2.148,28.68 2.148,28.68 C2.148,28.68 2.778,33.14 6.528,35.08 C6.367,38.8 6.088,42.18 10.148,46.04 C10.6300751,46.4951694 11.0873982,46.9758594 11.518,47.48 L11.518,57 C11.5179862,58.100676 12.4073377,58.9944966 13.508,59 L30.487,59 C30.6832883,58.9960853 30.8778421,58.9623671 31.064,58.9 C31.2109996,58.9359555 31.3616721,58.9547476 31.513,58.956 L48.492,58.956 C49.5926623,58.9504966 50.4820138,58.056676 50.482,56.956 L50.482,47.44 C50.9126018,46.9358594 51.3699249,46.4551694 51.852,46 C55.912,42.14 55.633,38.76 55.472,35.04 C59.222,33.1 59.852,28.64 59.852,28.64 C59.852,28.64 60.472,22.85 59.213,22.22 Z" id="Shape" fill="#F29C1F" fill-rule="nonzero"/><path d="M56.59,23.49 C56.27,28.45 55.41,30.02 55.41,33.14 C55.41,33.79 55.43,34.42 55.47,35.04 C55.63,38.76 55.91,42.14 51.85,46 C51.3674124,46.4546547 50.9100622,46.9353732 50.48,47.44 C47.06,51.41 46.6,55 42.37,55 L37.63,55 C33.4,55 32.94,51.41 29.52,47.44 C29.0899378,46.9353732 28.6325876,46.4546547 28.15,46 C24.09,42.14 24.37,38.76 24.53,35.04 C24.57,34.42 24.59,33.79 24.59,33.14 C24.59,30.02 23.73,28.45 23.41,23.49 C23.2465184,20.495563 23.2465184,17.494437 23.41,14.5 C23.95,2.75 36.37,1.2 38.5,1.02 C38.7,1 38.81,1 38.81,1 L41.19,1 C41.19,1 56,1.64 56.59,14.5 C56.7534816,17.494437 56.7534816,20.495563 56.59,23.49 Z" id="Shape" fill="#549414" fill-rule="nonzero"/><path d="M53.59,23.49 C53.27,28.45 52.41,30.02 52.41,33.14 C52.41,33.79 52.43,34.42 52.47,35.04 C52.63,38.76 52.91,42.14 48.85,46 C48.3674124,46.4546547 47.9100622,46.9353732 47.48,47.44 C44.06,51.41 43.6,55 39.37,55 L37.63,55 C33.4,55 32.94,51.41 29.52,47.44 C29.0899378,46.9353732 28.6325876,46.4546547 28.15,46 C24.09,42.14 24.37,38.76 24.53,35.04 C24.57,34.42 24.59,33.79 24.59,33.14 C24.59,30.02 23.73,28.45 23.41,23.49 C23.2465184,20.495563 23.2465184,17.494437 23.41,14.5 C23.95,2.75 36.37,1.2 38.5,1.02 C40.63,1.2 53.05,2.75 53.59,14.5 C53.7534816,17.494437 53.7534816,20.495563 53.59,23.49 Z" id="Shape" fill="#60A917" fill-rule="nonzero"/><path d="M59.852,28.64 C59.852,28.64 59.222,33.1 55.472,35.04 C55.433,34.42 55.412,33.79 55.412,33.14 C55.412,30.02 56.273,28.45 56.593,23.49 L56.672,23.5 C56.672,23.5 57.943,21.57 59.213,22.22 C60.472,22.85 59.852,28.64 59.852,28.64 Z" id="Shape" fill="#008A00" fill-rule="nonzero"/><path d="M50.482,47.44 L50.482,56.96 C50.4820138,58.060676 49.5926623,58.9544966 48.492,58.96 L31.513,58.96 C30.4123377,58.9544966 29.5229862,58.060676 29.523,56.96 L29.523,47.44 C32.943,51.41 33.403,55 37.633,55 L42.373,55 C46.6,55 47.063,51.41 50.482,47.44 Z" id="Shape" fill="#008A00" fill-rule="nonzero"/><path d="M6.588,33.18 C6.588,33.83 6.567,34.46 6.528,35.08 C2.778,33.14 2.148,28.68 2.148,28.68 C2.148,28.68 1.528,22.89 2.787,22.26 C4.057,21.61 5.328,23.54 5.328,23.54 L5.407,23.53 C5.727,28.49 6.588,30.06 6.588,33.18 Z" id="Shape" fill="#FF9801" fill-rule="nonzero"/><path d="M38.59,23.53 C38.27,28.49 37.41,30.06 37.41,33.18 C37.41,33.83 37.43,34.46 37.47,35.08 C37.63,38.8 37.91,42.18 33.85,46.04 C33.3674124,46.4946547 32.9100622,46.9753732 32.48,47.48 C29.06,51.45 28.6,55.04 24.37,55.04 L19.63,55.04 C15.4,55.04 14.94,51.45 11.52,47.48 C11.0899378,46.9753732 10.6325876,46.4946547 10.15,46.04 C6.09,42.18 6.37,38.8 6.53,35.08 C6.57,34.46 6.59,33.83 6.59,33.18 C6.59,30.06 5.73,28.49 5.41,23.53 C5.2465184,20.535563 5.2465184,17.534437 5.41,14.54 C5.95,2.79 18.37,1.24 20.5,1.06 C20.7,1.04 20.81,1.04 20.81,1.04 L23.19,1.04 C23.19,1.04 38,1.68 38.59,14.54 C38.7534816,17.534437 38.7534816,20.535563 38.59,23.53 Z" id="Shape" fill="#FEC108" fill-rule="nonzero"/><path d="M35.59,23.53 C35.27,28.49 34.41,30.06 34.41,33.18 C34.41,33.83 34.43,34.46 34.47,35.08 C34.63,38.8 34.91,42.18 30.85,46.04 C30.3674124,46.4946547 29.9100622,46.9753732 29.48,47.48 C26.06,51.45 25.6,55.04 21.37,55.04 L19.63,55.04 C15.4,55.04 14.94,51.45 11.52,47.48 C11.0899378,46.9753732 10.6325876,46.4946547 10.15,46.04 C6.09,42.18 6.37,38.8 6.53,35.08 C6.57,34.46 6.59,33.83 6.59,33.18 C6.59,30.06 5.73,28.49 5.41,23.53 C5.2465184,20.535563 5.2465184,17.534437 5.41,14.54 C5.95,2.79 18.37,1.24 20.5,1.06 C22.63,1.24 35.05,2.79 35.59,14.54 C35.7534816,17.534437 35.7534816,20.535563 35.59,23.53 Z" id="Shape" fill="#FFDC00" fill-rule="nonzero"/><path d="M41.847,28.68 C41.847,28.68 41.217,33.14 37.467,35.08 C37.427,34.46 37.407,33.83 37.407,33.18 C37.407,30.06 38.268,28.49 38.588,23.53 L38.667,23.54 C38.667,23.54 39.937,21.61 41.208,22.26 C42.467,22.89 41.847,28.68 41.847,28.68 Z" id="Shape" fill="#F29C1F" fill-rule="nonzero"/><path d="M32.477,47.48 L32.477,57 C32.4770138,58.100676 31.5876623,58.9944966 30.487,59 L13.508,59 C12.4073377,58.9944966 11.5179862,58.100676 11.518,57 L11.518,47.48 C14.937,51.45 15.398,55.04 19.627,55.04 L24.367,55.04 C28.6,55.04 29.057,51.45 32.477,47.48 Z" id="Shape" fill="#FF9801" fill-rule="nonzero"/><path d="M41.72,28.09 C43.3166114,26.7059434 44.6688389,25.0629869 45.72,23.23 C48.76,17.85 48.76,12.46 45.72,9.77 C43.2994838,7.77993935 39.9210631,7.43697249 37.15,8.9 C35.6290282,9.70746122 34.380196,10.9458575 33.56,12.46 C30.51,7.08 24.43,7.08 21.39,9.77 C18.35,12.46 18.35,17.85 21.39,23.23 C22.4401056,25.0521746 23.7850011,26.6876756 25.37,28.07 L29,31.01 C30.4668326,32.0854845 31.9889116,33.0835144 33.56,34 C34.84,33.25 36.19,32.39 37.51,31.45 C37.68,31.34 37.84,31.22 38,31.1 L41.72,28.09 Z" id="Shape" fill="#C81E1E"/><path d="M39.348,28.09 C40.8055613,26.6776492 42.0216925,25.0358721 42.948,23.23 C45.684,17.85 45.684,12.46 42.948,9.77 C40.8593107,7.79109243 37.7120274,7.43608965 35.235,8.9 C33.830387,9.74313906 32.7052337,10.9813294 32,12.46 C29.26,7.08 23.788,7.08 21.052,9.77 C18.316,12.46 18.316,17.85 21.052,23.23 C21.9777443,25.0255928 23.187306,26.6599531 24.634,28.07 L27.9,31.01 C29.2117516,32.0798681 30.5804179,33.0779931 32,34 C33.152,33.25 34.367,32.39 35.555,31.45 C35.708,31.34 35.855,31.22 35.996,31.1 L39.348,28.09 Z" id="Shape" fill="#F44335"/><path d="M23,29.887 C23.4327222,28.9727272 24.2621781,28.3085078 25.2489258,28.0860844 C26.2356735,27.863661 27.269881,28.1077908 28.053,28.748 C29.316,29.887 29.316,32.165 28.053,34.448 C27.168,36.152 24.9,37.861 23,39 C21.105,37.861 18.832,36.152 17.947,34.444 C16.684,32.165 16.684,29.887 17.947,28.744 C18.7306563,28.1040516 19.7653012,27.8605224 20.7521259,28.0837444 C21.7389507,28.3069663 22.5680583,28.9720806 23,29.887 Z" id="Shape" fill="#AD1457"/><path d="M21.5,29.887 C22.447,27.609 24.342,27.609 25.289,28.748 C26.236,29.887 26.237,32.165 25.289,34.448 C24.407507,36.2460594 23.1082851,37.8069088 21.5,39 C19.8912206,37.8057795 18.5919599,36.243512 17.711,34.444 C16.763,32.165 16.763,29.887 17.711,28.744 C18.659,27.601 20.553,27.609 21.5,29.887 Z" id="Shape" fill="#E91E63"/><path d="M44,29.887 C44.4327222,28.9727272 45.2621781,28.3085078 46.2489258,28.0860844 C47.2356735,27.863661 48.269881,28.1077908 49.053,28.748 C50.316,29.887 50.316,32.165 49.053,34.448 C48.168,36.152 45.9,37.861 44,39 C42.1,37.861 39.832,36.152 38.947,34.444 C37.684,32.165 37.684,29.887 38.947,28.744 C39.7306563,28.1040516 40.7653012,27.8605224 41.7521259,28.0837444 C42.7389507,28.3069663 43.5680583,28.9720806 44,29.887 Z" id="Shape" fill="#AD1457"/><path d="M42.5,29.887 C43.447,27.609 45.342,27.609 46.289,28.748 C47.236,29.887 47.237,32.165 46.289,34.448 C45.407507,36.2460594 44.1082851,37.8069088 42.5,39 C40.8912206,37.8057795 39.5919599,36.243512 38.711,34.444 C37.763,32.165 37.763,29.887 38.711,28.744 C39.659,27.601 41.553,27.609 42.5,29.887 Z" id="Shape" fill="#E91E63"/><path d="M6.53,36.076 C6.37067056,36.0760148 6.21364387,36.0379581 6.072,35.965 C1.907,33.813 1.192,29.026 1.164,28.823 C0.842,25.835 0.788,22.147 2.339,21.365 C3.969,20.539 5.511,21.996 6.166,22.988 C6.45864172,23.4487382 6.32777555,24.0590241 5.87195367,24.359266 C5.41613178,24.659508 4.80375962,24.5387803 4.496,24.088 C4.205,23.654 3.61,23.096 3.307,23.128 C2.97,23.72 2.894,26.2 3.148,28.576 C3.148,28.576 3.759,32.517 6.99,34.186 C7.39951073,34.3980617 7.61090029,34.8626656 7.50173467,35.3107193 C7.39256905,35.7587729 6.99116073,36.0740722 6.53,36.074 L6.53,36.076 Z" id="Shape" fill="#000000" fill-rule="nonzero"/><path d="M24.37,56.04 L19.63,56.04 C16.158,56.04 14.786,53.933 13.197,51.491 C12.152706,49.7669717 10.8977094,48.1797503 9.461,46.766 C5.191,42.711 5.361,38.977 5.524,35.366 C5.557,34.651 5.59,33.925 5.59,33.181 C5.56909313,31.8555116 5.41871188,30.5352379 5.141,29.239 C4.665,26.617 4.013,23.026 4.411,14.494 C5.036,0.878 20.61,0.048 20.767,0.041 L23.19,0.041 C23.67,0.061 33.99,0.598 38.039,8.441 C38.2924987,8.93198114 38.0999811,9.53550128 37.609,9.78899998 C37.1180189,10.0424987 36.5144987,9.84998113 36.261,9.359 C32.738,2.533 23.242,2.043 23.146,2.039 L20.81,2.039 C20.287,2.063 6.949,2.804 6.41,14.585 C6.022,22.891 6.625,26.212 7.11,28.885 C7.41069164,30.2991556 7.57212921,31.7393663 7.592,33.185 C7.592,33.96 7.558,34.717 7.524,35.461 C7.361,39.056 7.232,41.895 10.84,45.319 C12.387927,46.8408441 13.742768,48.5473258 14.874,50.4 C16.517,52.924 17.339,54.04 19.63,54.04 L24.37,54.04 C26.661,54.04 27.483,52.924 29.126,50.4 C30.2575158,48.5454611 31.6130448,46.8372796 33.162,45.314 C36.77,41.89 36.641,39.051 36.478,35.456 C36.444,34.712 36.41,33.956 36.41,33.18 C36.4052474,32.5589692 36.4413251,31.9382977 36.518,31.322 C36.5560508,30.9611749 36.7865581,30.649267 37.1203195,30.506979 C37.454081,30.3646911 37.8387294,30.4143481 38.1254124,30.6367338 C38.4120955,30.8591195 38.5558326,31.2193414 38.501,31.578 C38.4361452,32.1088085 38.4057482,32.6432611 38.41,33.178 C38.41,33.922 38.443,34.648 38.476,35.363 C38.64,38.975 38.809,42.709 34.539,46.763 C33.1010383,48.1775037 31.8450203,49.7657501 30.8,51.491 C29.214,53.933 27.842,56.04 24.37,56.04 Z" id="Shape" fill="#000000" fill-rule="nonzero"/><path d="M30.487,60 L13.513,60 C11.8561458,60 10.513,58.6568542 10.513,57 L10.513,47.48 C10.513,46.9277153 10.9607153,46.48 11.513,46.48 C12.0652847,46.48 12.513,46.9277153 12.513,47.48 L12.513,57 C12.513,57.5522847 12.9607153,58 13.513,58 L30.487,58 C31.0392847,58 31.487,57.5522847 31.487,57 L31.487,47.48 C31.487,46.9277153 31.9347153,46.4800001 32.487,46.4800001 C33.0392847,46.4800001 33.487,46.9277153 33.487,47.48 L33.487,57 C33.487,58.6568542 32.1438542,60 30.487,60 Z" id="Shape" fill="#000000" fill-rule="nonzero"/><path d="M42.37,56.04 L37.63,56.04 C34.475,56.04 33.054,54.294 31.648,52.185 C31.341482,51.7254991 31.4654991,51.104518 31.925,50.798 C32.3845009,50.491482 33.005482,50.6154991 33.312,51.075 C34.706,53.166 35.612,54.04 37.63,54.04 L42.37,54.04 C44.661,54.04 45.485,52.923 47.131,50.396 C47.9106253,49.1478489 48.7763946,47.9556202 49.722,46.828 C50.1750091,46.2964251 50.657079,45.7903185 51.166,45.312 C54.766,41.89 54.641,39.051 54.478,35.456 C54.444,34.712 54.41,33.956 54.41,33.18 C54.4298708,31.7343663 54.5913084,30.2941556 54.892,28.88 C55.376,26.211 55.979,22.89 55.592,14.58 C55.366,9.646 52.892,6.042 48.246,3.866 C46.0049689,2.84367638 43.6017928,2.22291231 41.146,2.032 L38.81,2.032 C36.2538549,2.24153054 33.7571795,2.91449437 31.442,4.018 C31.1201109,4.18905264 30.7306455,4.17140611 30.4255442,3.97194477 C30.1204429,3.77248343 29.948043,3.42280795 29.975602,3.05933564 C30.0031609,2.69586334 30.2263127,2.37617914 30.558,2.225 C33.1327971,0.987664873 35.9177451,0.246730971 38.767,0.041 L41.19,0.041 C41.39,0.049 56.964,0.879 57.59,14.495 C57.99,23.026 57.336,26.617 56.86,29.239 C56.5822881,30.5352379 56.4319069,31.8555116 56.411,33.181 C56.411,33.925 56.444,34.651 56.477,35.366 C56.641,38.978 56.81,42.712 52.54,46.766 C52.0813279,47.1958245 51.6473031,47.6512167 51.24,48.13 C50.3519591,49.1913259 49.5386706,50.3130225 48.806,51.487 C47.216,53.931 45.841,56.04 42.37,56.04 Z" id="Shape" fill="#000000" fill-rule="nonzero"/><path d="M55.47,36.076 C55.0088393,36.0760722 54.6074309,35.7607729 54.4982653,35.3127193 C54.3890997,34.8646656 54.6004893,34.4000617 55.01,34.188 C58.266,32.506 58.85,28.588 58.855,28.546 C59.106,26.201 59.03,23.724 58.694,23.131 C58.365,23.099 57.76,23.701 57.504,24.09 C57.1962404,24.5407803 56.5838682,24.661508 56.1280463,24.361266 C55.6722244,24.0610241 55.5413583,23.4507382 55.834,22.99 C56.489,21.998 58.034,20.54 59.664,21.368 C61.212,22.149 61.158,25.837 60.84,28.794 C60.808,29.028 60.093,33.815 55.928,35.967 C55.7861835,36.0392648 55.6291657,36.0766337 55.47,36.076 Z" id="Shape" fill="#000000" fill-rule="nonzero"/><path d="M48.49,60 L31.51,60 C31.2348924,60.0035175 30.9609236,59.9640417 30.698,59.883 C30.3432304,59.7876194 30.069323,59.5053953 29.9845935,59.1479323 C29.8998639,58.7904692 30.0179562,58.4153294 30.2921712,58.1708604 C30.5663861,57.9263914 30.952567,57.8519601 31.298,57.977 C31.3672129,57.9947115 31.4385991,58.0024562 31.51,58 L48.49,58 C49.0383755,57.994516 49.4800274,57.548403 49.48,57 L49.48,47.48 C49.48,46.9277153 49.9277153,46.48 50.48,46.48 C51.0322847,46.48 51.48,46.9277153 51.48,47.48 L51.48,57 C51.4800092,58.6529569 50.1429477,59.9944901 48.49,60 Z" id="Shape" fill="#000000" fill-rule="nonzero"/><path d="M33.56,35 C33.3824908,34.9999638 33.2081904,34.9526783 33.055,34.863 C31.4532044,33.9289855 29.9017215,32.9112421 28.407,31.814 C28.1058374,31.6072716 27.9413581,31.2527794 27.9779666,30.8893301 C28.014575,30.5258808 28.2464457,30.211311 28.582786,30.0687952 C28.9191263,29.9262793 29.3064137,29.9784964 29.593,30.205 C30.825,31.112 32.157,31.996 33.56,32.838 C34.734,32.138 35.86,31.394 36.93,30.638 C37.114,30.518 37.251,30.413 37.39,30.309 L38.59,31.909 C38.415,32.04 38.24,32.171 38.053,32.292 C36.825,33.167 35.471,34.041 34.065,34.864 C33.9119198,34.9538265 33.7374872,35.0008024 33.56,35 Z" id="Shape" fill="#000000" fill-rule="nonzero"/><path d="M33.56,35 C33.3824908,34.9999638 33.2081904,34.9526783 33.055,34.863 C31.4532044,33.9289855 29.9017215,32.9112421 28.407,31.814 C28.1058374,31.6072716 27.9413581,31.2527794 27.9779666,30.8893301 C28.014575,30.5258808 28.2464457,30.211311 28.582786,30.0687952 C28.9191263,29.9262793 29.3064137,29.9784964 29.593,30.205 C30.825,31.112 32.157,31.996 33.56,32.838 C34.734,32.138 35.86,31.394 36.93,30.638 C37.114,30.518 37.251,30.413 37.39,30.309 L38.59,31.909 C38.415,32.04 38.24,32.171 38.053,32.292 C36.825,33.167 35.471,34.041 34.065,34.864 C33.9119198,34.9538265 33.7374872,35.0008024 33.56,35 Z" id="Shape" fill="#000000" fill-rule="nonzero"/><path d="M41.721,29.09 C41.3078803,29.0905352 40.9369566,28.8369774 40.7874686,28.451852 C40.6379806,28.0667267 40.7407039,27.6293208 41.046,27.351 C42.559,26.046701 43.8404174,24.4958141 44.836,22.764 C47.644,17.792 47.727,12.882 45.058,10.519 C42.9510902,8.79393201 40.0134707,8.50517984 37.611,9.787 C36.2636432,10.5086973 35.1576332,11.6098396 34.43,12.954 C34.2521949,13.266945 33.9199294,13.4601936 33.56,13.46 C33.1998623,13.4599894 32.8675479,13.2663304 32.69,12.953 C31.6285264,10.9343941 29.699742,9.5142515 27.457,9.1 C25.5358473,8.75827441 23.561545,9.27744277 22.057,10.52 C19.387,12.883 19.47,17.793 22.265,22.739 C23.2615129,24.4725418 24.5408102,26.0273021 26.05,27.339 C26.3233705,27.5779262 26.4457663,27.9462508 26.3697675,28.3012738 C26.2937688,28.6562969 26.0313163,28.9422381 25.6840919,29.0483154 C25.3368675,29.1543927 24.9594262,29.0639395 24.698,28.812 C23.0250546,27.3542639 21.6084095,25.6263017 20.507,23.7 C17.249,17.935 17.333,12.026 20.728,9.022 C22.6793563,7.36734646 25.2676906,6.67057184 27.786,7.122 C30.0911455,7.51803769 32.1574033,8.78104893 33.561,10.652 C34.3989447,9.54990871 35.4710592,8.64754286 36.7,8.01 C39.8367717,6.35751823 43.6599891,6.75649354 46.388,9.021 C49.782,12.021 49.866,17.934 46.596,23.721 C45.4949575,25.6483601 44.0747925,27.374875 42.396,28.827 C42.2117778,28.9959479 41.9709623,29.0897767 41.721,29.09 Z" id="Shape" fill="#000000" fill-rule="nonzero"/><path d="M30.082,15.433 C29.7211472,15.4337107 29.3879001,15.2399536 29.21,14.926 C28.7462026,13.9554832 27.8539906,13.2587433 26.8,13.044 C26.0669357,12.9067267 25.3096813,13.0770547 24.706,13.515 C24.2917864,13.8814409 23.6589409,13.8427135 23.2925,13.4285 C22.9260591,13.0142864 22.9647865,12.3814409 23.379,12.015 C24.4298452,11.1666753 25.7994381,10.8209883 27.127,11.069 C28.7812056,11.3728382 30.1973835,12.4344164 30.953,13.937 C31.1288385,14.2464835 31.1269137,14.626107 30.9479459,14.9337915 C30.7689782,15.241476 30.4399483,15.4308356 30.084,15.431 L30.082,15.433 Z" id="Shape" fill="#000000" fill-rule="nonzero"/><path d="M23,40 C22.8185385,39.9999426 22.6405125,39.9505101 22.485,39.857 C20.934,38.925 18.166,37.041 17.059,34.903 C15.559,32.203 15.64,29.482 17.277,28.003 C18.2138639,27.1892049 19.467758,26.8412888 20.69,27.056 C21.5645898,27.2021582 22.3719632,27.6170293 23,28.243 C23.6284371,27.6181272 24.4357691,27.2043259 25.31,27.059 C26.5317648,26.8443334 27.7852022,27.1918574 28.722,28.005 C30.36,29.482 30.44,32.205 28.922,34.929 C27.829,37.041 25.061,38.929 23.51,39.857 C23.3559434,39.9496404 23.1797631,39.99904 23,40 Z M19.987,29 C19.4858049,28.9915322 18.9987185,29.1661011 18.617,29.491 C17.725,30.291 17.81,32.133 18.817,33.958 C19.8870235,35.5584438 21.3203607,36.8831585 23,37.824 C24.6699155,36.8874246 26.0965466,35.5717727 27.165,33.983 C28.19,32.133 28.275,30.295 27.383,29.49 C26.8977929,29.0873147 26.2595758,28.9193435 25.639,29.031 C24.8713037,29.1729432 24.2166245,29.6710041 23.875,30.373 C23.6830124,30.6699012 23.353567,30.8491917 23,30.8491917 C22.646433,30.8491917 22.3169876,30.6699012 22.125,30.373 C21.7833755,29.6710041 21.1286963,29.1729432 20.361,29.031 C20.2373544,29.010751 20.1122921,29.0003849 19.987,29 Z" id="Shape" fill="#000000" fill-rule="nonzero"/><path d="M44,40 C43.8185385,39.9999426 43.6405125,39.9505101 43.485,39.857 C41.934,38.925 39.166,37.041 38.059,34.903 C36.559,32.203 36.64,29.482 38.277,28.003 C39.2138639,27.1892049 40.467758,26.8412888 41.69,27.056 C42.5645898,27.2021582 43.3719632,27.6170293 44,28.243 C44.6284371,27.6181272 45.4357691,27.2043259 46.31,27.059 C47.5317861,26.8438924 48.7854111,27.1914684 49.722,28.005 C51.36,29.482 51.44,32.205 49.922,34.929 C48.829,37.041 46.061,38.929 44.51,39.857 C44.3559434,39.9496404 44.1797631,39.99904 44,40 Z M40.987,29 C40.4858049,28.9915322 39.9987185,29.1661011 39.617,29.491 C38.725,30.291 38.81,32.133 39.822,33.958 C40.890608,35.5578552 42.3221803,36.8825221 44,37.824 C45.6699155,36.8874246 47.0965466,35.5717727 48.165,33.983 C49.19,32.133 49.275,30.295 48.383,29.49 C47.8977929,29.0873147 47.2595758,28.9193435 46.639,29.031 C45.8713037,29.1729432 45.2166245,29.6710041 44.875,30.373 C44.6830124,30.6699012 44.353567,30.8491917 44,30.8491917 C43.646433,30.8491917 43.3169876,30.6699012 43.125,30.373 C42.7833755,29.6710041 42.1286963,29.1729432 41.361,29.031 C41.2373544,29.010751 41.1122921,29.0003849 40.987,29 Z" id="Shape" fill="#000000" fill-rule="nonzero"/></g></g></svg>
