<?xml version="1.0" encoding="UTF-8"?>
<svg xmlns="http://www.w3.org/2000/svg" xmlns:xlink="http://www.w3.org/1999/xlink" width="512" height="512" viewBox="0 0 51 60" version="1.1"><!-- Generator: Sketch 51.3 (57544) - http://www.bohemiancoding.com/sketch --><title>055 - Dreaming</title><desc>Created with Sketch.</desc><defs/><g id="Page-1" stroke="none" stroke-width="1" fill="none" fill-rule="evenodd"><g id="055---Dreaming" transform="translate(-1.000000, 0.000000)" fill-rule="nonzero"><path d="M41.208,22.26 C39.937,21.61 38.667,23.54 38.667,23.54 L38.588,23.53 C38.7509709,20.5355491 38.7509709,17.5344509 38.588,14.54 C38,1.68 23.187,1.04 23.187,1.04 L20.807,1.04 C20.807,1.04 5.997,1.68 5.407,14.54 C5.24402908,17.5344509 5.24402908,20.5355491 5.407,23.53 L5.328,23.54 C5.328,23.54 4.057,21.61 2.787,22.26 C1.528,22.89 2.148,28.68 2.148,28.68 C2.148,28.68 2.778,33.14 6.528,35.08 C6.367,38.8 6.088,42.18 10.148,46.04 C10.6300751,46.4951694 11.0873982,46.9758594 11.518,47.48 L11.518,57 C11.5179862,58.100676 12.4073377,58.9944966 13.508,59 L30.487,59 C31.5876623,58.9944966 32.4770138,58.100676 32.477,57 L32.477,47.48 C32.9076018,46.9758594 33.3649249,46.4951694 33.847,46.04 C37.907,42.18 37.628,38.8 37.467,35.08 C41.217,33.14 41.847,28.68 41.847,28.68 C41.847,28.68 42.467,22.89 41.208,22.26 Z" id="Shape" fill="#4482C3"/><path d="M6.588,33.18 C6.588,33.83 6.567,34.46 6.528,35.08 C2.778,33.14 2.148,28.68 2.148,28.68 C2.148,28.68 1.528,22.89 2.787,22.26 C4.057,21.61 5.328,23.54 5.328,23.54 L5.407,23.53 C5.727,28.49 6.588,30.06 6.588,33.18 Z" id="Shape" fill="#0377BC"/><path d="M38.59,23.53 C38.27,28.49 37.41,30.06 37.41,33.18 C37.41,33.83 37.43,34.46 37.47,35.08 C37.63,38.8 37.91,42.18 33.85,46.04 C33.3674124,46.4946547 32.9100622,46.9753732 32.48,47.48 C29.06,51.45 28.6,55.04 24.37,55.04 L19.63,55.04 C15.4,55.04 14.94,51.45 11.52,47.48 C11.0899378,46.9753732 10.6325876,46.4946547 10.15,46.04 C6.09,42.18 6.37,38.8 6.53,35.08 C6.57,34.46 6.59,33.83 6.59,33.18 C6.59,30.06 5.73,28.49 5.41,23.53 C5.2465184,20.535563 5.2465184,17.534437 5.41,14.54 C5.95,2.79 18.37,1.24 20.5,1.06 C20.7,1.04 20.81,1.04 20.81,1.04 L23.19,1.04 C23.19,1.04 38,1.68 38.59,14.54 C38.7534816,17.534437 38.7534816,20.535563 38.59,23.53 Z" id="Shape" fill="#0377BC"/><path d="M35.59,23.53 C35.27,28.49 34.41,30.06 34.41,33.18 C34.41,33.83 34.43,34.46 34.47,35.08 C34.63,38.8 34.91,42.18 30.85,46.04 C30.3674124,46.4946547 29.9100622,46.9753732 29.48,47.48 C26.06,51.45 25.6,55.04 21.37,55.04 L19.63,55.04 C15.4,55.04 14.94,51.45 11.52,47.48 C11.0899378,46.9753732 10.6325876,46.4946547 10.15,46.04 C6.09,42.18 6.37,38.8 6.53,35.08 C6.57,34.46 6.59,33.83 6.59,33.18 C6.59,30.06 5.73,28.49 5.41,23.53 C5.2465184,20.535563 5.2465184,17.534437 5.41,14.54 C5.95,2.79 18.37,1.24 20.5,1.06 C22.63,1.24 35.05,2.79 35.59,14.54 C35.7534816,17.534437 35.7534816,20.535563 35.59,23.53 Z" id="Shape" fill="#02A9F4"/><path d="M41.847,28.68 C41.847,28.68 41.217,33.14 37.467,35.08 C37.427,34.46 37.407,33.83 37.407,33.18 C37.407,30.06 38.268,28.49 38.588,23.53 L38.667,23.54 C38.667,23.54 39.937,21.61 41.208,22.26 C42.467,22.89 41.847,28.68 41.847,28.68 Z" id="Shape" fill="#0377BC"/><path d="M32.477,47.48 L32.477,57 C32.4770138,58.100676 31.5876623,58.9944966 30.487,59 L13.508,59 C12.4073377,58.9944966 11.5179862,58.100676 11.518,57 L11.518,47.48 C14.937,51.45 15.398,55.04 19.627,55.04 L24.367,55.04 C28.6,55.04 29.057,51.45 32.477,47.48 Z" id="Shape" fill="#0377BC"/><path d="M51,19 C50.9950437,22.3116533 48.3116533,24.9950437 45,25 L29,25 C25.6862915,25 23,22.3137085 23,19 C22.9992795,18.6646124 23.0294064,18.3298693 23.09,18 C23.2861936,16.7693104 23.8714565,15.6338302 24.76,14.76 C25.4490859,14.0615714 26.3014709,13.5460159 27.24,13.26 C27.0784903,12.6873598 26.9977108,12.0949765 27,11.5 C26.9983443,11.4464716 27.0016922,11.3929056 27.01,11.34 C27.01,11.23 27.01,11.12 27.02,11 L27.14,10.81 L30.16,5.92 C30.7315524,5.58002345 31.3522094,5.33041138 32,5.18 C32.4907242,5.05870164 32.9945096,4.99824739 33.5,5 C33.66,5 33.82,5.01 33.97,5.02 C36.0280136,5.1640444 37.8934008,6.28253358 38.99,8.03 C39.1050619,8.20300804 39.2086188,8.38339747 39.3,8.57 C39.5272888,8.44639476 39.7648403,8.34267509 40.01,8.26 C40.4877474,8.08726828 40.9919859,7.99928035 41.5,8 C43.4700993,7.99979659 45.2118128,9.27975345 45.8,11.16 C45.932083,11.5944274 45.9994725,12.0459374 46,12.5 C46.0019622,12.6940851 45.9885873,12.8880218 45.96,13.08 C48.4906525,13.4888601 50.480621,15.462748 50.91,17.99 C50.9701469,18.3232973 51.0002677,18.6613192 51,19 Z" id="Shape" fill="#CFD8DC"/><path d="M48,19 C47.9950437,22.3116533 45.3116533,24.9950437 42,25 L29,25 C25.6862915,25 23,22.3137085 23,19 C22.9992795,18.6646124 23.0294064,18.3298693 23.09,18 C23.2861936,16.7693104 23.8714565,15.6338302 24.76,14.76 C25.4490859,14.0615714 26.3014709,13.5460159 27.24,13.26 C27.0784903,12.6873598 26.9977108,12.0949765 27,11.5 C26.9983443,11.4464716 27.0016922,11.3929056 27.01,11.34 C27.01,11.23 27.01,11.12 27.02,11 L27.14,10.81 L30.16,5.92 C30.7315524,5.58002345 31.3522094,5.33041138 32,5.18 C33.8654671,5.61572043 35.4409092,6.85775508 36.3,8.57 C36.9729852,8.1961464 37.7301458,7.99997296 38.5,8 C38.6638006,7.99972113 38.8274568,8.00974089 38.99,8.03 C39.3382333,8.06400354 39.6808727,8.14126538 40.01,8.26 C41.3444991,8.73382108 42.3781112,9.80818485 42.8,11.16 C42.932083,11.5944274 42.9994725,12.0459374 43,12.5 C43.0019622,12.6940851 42.9885873,12.8880218 42.96,13.08 C45.4906525,13.4888601 47.480621,15.462748 47.91,17.99 C47.9701469,18.3232973 48.0002677,18.6613192 48,19 Z" id="Shape" fill="#F5F5F5"/><path d="M31,8 C30.9950578,9.6548028 29.6548028,10.9950578 28,11 L20,11 C19.2044649,11.0000702 18.4416324,10.6834227 17.88,10.12 C17.3126865,9.56098207 16.9953313,8.79644449 17,8 C16.9968904,6.52754811 18.0659156,5.27186779 19.52,5.04 C19.5080164,4.94377361 19.5013397,4.84696045 19.5,4.75 C19.5016526,3.5080445 20.5080445,2.50165264 21.75,2.5 C22.1358828,2.49751258 22.5154985,2.59759308 22.85,2.79 C23.1575998,2.17917435 23.6513634,1.68190885 24.26,1.37 C24.7182943,1.12500223 25.2303338,0.997851493 25.75,1 C27.1222205,0.99685064 28.3477986,1.85795941 28.81,3.15 C28.9353398,3.50321663 28.9995922,3.87520421 29,4.25 C29.0008014,4.5474655 28.9604181,4.84360989 28.88,5.13 C29.3498064,5.27179209 29.7762823,5.52974127 30.12,5.88 C30.4319911,6.19217151 30.674013,6.56713497 30.83,6.98 C30.9430443,7.30816794 31.000501,7.65290784 31,8 Z" id="Shape" fill="#545C60"/><path d="M28,8 C27.9950578,9.6548028 26.6548028,10.9950578 25,11 L20,11 C19.2044649,11.0000702 18.4416324,10.6834227 17.88,10.12 C17.3126865,9.56098207 16.9953313,8.79644449 17,8 C16.9968904,6.52754811 18.0659156,5.27186779 19.52,5.04 C19.5080164,4.94377361 19.5013397,4.84696045 19.5,4.75 C19.5016526,3.5080445 20.5080445,2.50165264 21.75,2.5 C22.1358828,2.49751258 22.5154985,2.59759308 22.85,2.79 C23.1575998,2.17917435 23.6513634,1.68190885 24.26,1.37 C24.9824025,1.74695089 25.5359461,2.3826332 25.81,3.15 C25.9353398,3.50321663 25.9995922,3.87520421 26,4.25 C26.0008014,4.5474655 25.9604181,4.84360989 25.88,5.13 C26.3498064,5.27179209 26.7762823,5.52974127 27.12,5.88 C27.4319911,6.19217151 27.674013,6.56713497 27.83,6.98 C27.9430443,7.30816794 28.000501,7.65290784 28,8 Z" id="Shape" fill="#7F8E94"/><path d="M6.53,36.076 C6.37067056,36.0760148 6.21364387,36.0379581 6.072,35.965 C1.907,33.813 1.192,29.026 1.164,28.823 C0.842,25.835 0.788,22.147 2.339,21.365 C3.968,20.539 5.511,21.996 6.166,22.988 C6.45864172,23.4487382 6.32777555,24.0590241 5.87195367,24.359266 C5.41613178,24.659508 4.80375962,24.5387803 4.496,24.088 C4.205,23.654 3.605,23.096 3.307,23.128 C2.97,23.72 2.894,26.2 3.148,28.576 C3.148,28.576 3.759,32.517 6.99,34.186 C7.39951073,34.3980617 7.61090029,34.8626656 7.50173467,35.3107193 C7.39256905,35.7587729 6.99116073,36.0740722 6.53,36.074 L6.53,36.076 Z" id="Shape" fill="#000000"/><path d="M24.37,56.04 L19.63,56.04 C16.158,56.04 14.786,53.933 13.197,51.491 C12.152706,49.7669717 10.8977094,48.1797503 9.461,46.766 C5.191,42.711 5.361,38.977 5.524,35.366 C5.557,34.651 5.59,33.925 5.59,33.181 C5.56909313,31.8555116 5.41871188,30.5352379 5.141,29.239 C4.665,26.617 4.013,23.026 4.411,14.494 C4.821,5.525 11.783,2.146 15.9,0.931 C16.4296411,0.774151131 16.9861511,1.07635892 17.143,1.606 C17.2998489,2.13564108 16.9976411,2.69215113 16.468,2.849 C12.068,4.149 6.749,7.242 6.413,14.586 C6.025,22.892 6.628,26.213 7.113,28.886 C7.41369164,30.3001556 7.57512921,31.7403663 7.595,33.186 C7.595,33.961 7.561,34.718 7.527,35.462 C7.364,39.057 7.235,41.896 10.843,45.32 C12.3898083,46.8417083 13.7436334,48.5478436 14.874,50.4 C16.517,52.924 17.339,54.04 19.63,54.04 L24.37,54.04 C26.661,54.04 27.483,52.924 29.126,50.4 C30.2575158,48.5454611 31.6130448,46.8372796 33.162,45.314 C36.769,41.885 36.644,39.05 36.486,35.46 L36.471,35.123 C36.431,34.503 36.41,33.853 36.41,33.18 C36.4300242,31.731071 36.5914566,30.2875577 36.892,28.87 C37.092,27.785 37.311,26.556 37.475,24.901 C37.5302285,24.3512006 38.0207005,23.9502716 38.5705,24.0055001 C39.1202994,24.0607285 39.5212284,24.5512006 39.466,25.101 C39.294,26.835 39.066,28.101 38.86,29.229 C38.5818387,30.5289027 38.4311252,31.8528369 38.41,33.182 C38.41,33.81 38.43,34.419 38.468,35.018 L38.484,35.374 C38.643,38.98 38.807,42.709 34.539,46.767 C33.1015345,48.1804719 31.8455507,49.7673314 30.8,51.491 C29.214,53.933 27.842,56.04 24.37,56.04 Z" id="Shape" fill="#000000"/><path d="M37.471,36.08 C37.0098393,36.0800722 36.6084309,35.7647729 36.4992653,35.3167193 C36.3900997,34.8686656 36.6014893,34.4040617 37.011,34.192 C40.264,32.508 40.854,28.579 40.859,28.54 C40.9744652,27.3788144 41.0152158,26.2114105 40.981,25.045 C40.9687929,24.7797133 41.0626106,24.5204662 41.2417634,24.3244298 C41.4209163,24.1283934 41.6706892,24.0116698 41.936,24 C42.4841505,23.9844186 42.9457578,24.4066366 42.979,24.954 C43.0200285,26.2332484 42.9749266,27.5138079 42.844,28.787 C42.812,29.021 42.09,33.814 37.93,35.967 C37.7882291,36.040807 37.6308319,36.0795562 37.471,36.08 Z" id="Shape" fill="#000000"/><path d="M30.487,60 L13.513,60 C11.8561458,60 10.513,58.6568542 10.513,57 L10.513,47.48 C10.513,46.9277153 10.9607153,46.48 11.513,46.48 C12.0652847,46.48 12.513,46.9277153 12.513,47.48 L12.513,57 C12.513,57.5522847 12.9607153,58 13.513,58 L30.487,58 C31.0392847,58 31.487,57.5522847 31.487,57 L31.487,47.48 C31.487,46.9277153 31.9347153,46.48 32.487,46.48 C33.0392847,46.48 33.487,46.9277153 33.487,47.48 L33.487,57 C33.487,58.6568542 32.1438542,60 30.487,60 Z" id="Shape" fill="#000000"/><path d="M45,26 L29,26 C25.1358343,25.9955914 22.0044086,22.8641657 22,19 C22.0093536,16.2646848 23.601171,13.7820267 26.083,12.632 C26.0274715,12.257228 25.9997292,11.8788633 26,11.5 C26,11.312 26.01,11.133 26.021,10.944 C26.0610364,10.3949265 26.5299523,9.97693163 27.08,10 C27.6307143,10.0332513 28.0504508,10.506238 28.018,11.057 C28.009,11.209 28,11.349 28,11.496 C27.9970719,11.9975771 28.0643922,12.4970935 28.2,12.98 C28.3503014,13.5046951 28.0521218,14.0529895 27.53,14.212 C25.434362,14.8663884 24.0054154,16.8045744 24,19 C24.0033061,21.7600532 26.2399468,23.9966939 29,24 L45,24 C47.5997525,23.9918676 49.759513,21.992797 49.9682213,19.4014228 C50.1769295,16.8100486 48.3649411,14.4910948 45.8,14.067 C45.2558915,13.9790175 44.8855632,13.4673562 44.972,12.923 C44.9920091,12.7829101 45.0013693,12.641505 45,12.5 C45,10.5670034 43.4329966,9 41.5,9 C40.899594,9.00100293 40.3092284,9.1540989 39.784,9.445 C39.546001,9.57691672 39.2645212,9.60614827 39.0044943,9.5259513 C38.7444675,9.44575433 38.5283509,9.26305511 38.406,9.02 C37.5381531,7.29804218 35.8292868,6.15879802 33.906,6.02 C33.776,6.009 33.638,6 33.5,6 C32.5035652,6.00218998 31.5259479,6.27154411 30.669,6.78 C30.3610677,6.97769616 29.9697441,6.99141047 29.6487273,6.81575644 C29.3277106,6.64010241 29.128273,6.30313516 29.1287467,5.93720369 C29.1292204,5.57127221 29.3295296,5.2348224 29.651,5.06 C30.8157657,4.36798358 32.1451707,4.00187047 33.5,4 C33.682,4 33.864,4.011 34.035,4.021 C36.3297821,4.18557067 38.4220733,5.39427802 39.711,7.3 C41.3570584,6.73239133 43.174668,6.97773722 44.6113236,7.96145901 C46.0479793,8.9451808 46.9339781,10.5510779 47,12.291 C50.332143,13.2830072 52.4312463,16.5702752 51.929349,20.0105301 C51.4274517,23.4507851 48.4766727,26.001328 45,26 Z" id="Shape" fill="#000000"/><path d="M28,12 L20,12 C18.0762501,12.0028541 16.4229426,10.6358919 16.0642222,8.74588092 C15.7055018,6.8558699 16.7429847,4.97820099 18.534,4.276 C18.666393,3.38486258 19.1624247,2.58853675 19.9038888,2.07679002 C20.645353,1.56504329 21.5658421,1.38370907 22.446,1.576 C23.5792125,0.17729078 25.4705642,-0.356000212 27.1675365,0.244701927 C28.8645089,0.845404065 29.9991362,2.44984519 30,4.25 C30,4.344 29.997,4.437 29.991,4.529 C30.2990408,4.70683155 30.5818866,4.92510378 30.832,5.178 C31.5844362,5.92369164 32.0053528,6.94066644 32,8 C32,10.209139 30.209139,12 28,12 Z M21.75,3.5 C21.0601007,3.5011012 20.5011012,4.06010071 20.5,4.75 C20.498786,4.79411657 20.5011269,4.83825926 20.507,4.882 C20.5940091,5.42704498 20.2229693,5.93951842 19.678,6.027 C18.6522156,6.19725842 17.928015,7.12515222 18.0120138,8.16157188 C18.0960126,9.19799153 18.9601859,9.99715229 20,10 L28,10 C29.1045695,10 30,9.1045695 30,8 C29.9964078,7.12225553 29.4247615,6.34792355 28.587,6.086 C28.0657827,5.92656038 27.7682506,5.37908358 27.918,4.855 C27.9737476,4.65821362 28.0013548,4.45452587 28,4.25 C28.0009806,3.20805368 27.2861459,2.30186599 26.2726103,2.06020786 C25.2590747,1.81854973 24.2122622,2.30470646 23.743,3.235 C23.6203149,3.4783863 23.4036,3.66114922 23.143,3.741 C22.8825584,3.81973833 22.6013734,3.79017786 22.363,3.659 C22.175585,3.55455278 21.9645544,3.49981565 21.75,3.5 Z" id="Shape" fill="#000000"/><path d="M45,22 L29,22 C28.4477153,22 28,21.5522847 28,21 C28,20.4477153 28.4477153,20 29,20 L45,20 C45.5522847,20 46,20.4477153 46,21 C46,21.5522847 45.5522847,22 45,22 Z" id="Shape" fill="#000000"/></g></g></svg>
