<?xml version="1.0" encoding="UTF-8"?>
<svg xmlns="http://www.w3.org/2000/svg" xmlns:xlink="http://www.w3.org/1999/xlink" width="512" height="512" viewBox="0 0 44 60" version="1.1"><!-- Generator: Sketch 51.3 (57544) - http://www.bohemiancoding.com/sketch --><title>056 - Observation</title><desc>Created with Sketch.</desc><defs/><g id="Page-1" stroke="none" stroke-width="1" fill="none" fill-rule="evenodd"><g id="056---Observation" transform="translate(-1.000000, 0.000000)" fill-rule="nonzero"><path d="M41.208,22.26 C39.937,21.61 38.667,23.54 38.667,23.54 L38.588,23.53 C38.7509709,20.5355491 38.7509709,17.5344509 38.588,14.54 C38,1.68 23.187,1.04 23.187,1.04 L20.807,1.04 C20.807,1.04 5.997,1.68 5.407,14.54 C5.24402908,17.5344509 5.24402908,20.5355491 5.407,23.53 L5.328,23.54 C5.328,23.54 4.057,21.61 2.787,22.26 C1.528,22.89 2.148,28.68 2.148,28.68 C2.148,28.68 2.778,33.14 6.528,35.08 C6.367,38.8 6.088,42.18 10.148,46.04 C10.6300751,46.4951694 11.0873982,46.9758594 11.518,47.48 L11.518,57 C11.5179862,58.100676 12.4073377,58.9944966 13.508,59 L30.487,59 C31.5876623,58.9944966 32.4770138,58.100676 32.477,57 L32.477,47.48 C32.9076018,46.9758594 33.3649249,46.4951694 33.847,46.04 C37.907,42.18 37.628,38.8 37.467,35.08 C41.217,33.14 41.847,28.68 41.847,28.68 C41.847,28.68 42.467,22.89 41.208,22.26 Z" id="Shape" fill="#2C3E50"/><path d="M38.59,23.53 C38.27,28.49 37.41,30.06 37.41,33.18 C37.41,33.83 37.43,34.46 37.47,35.08 C37.63,38.8 37.91,42.18 33.85,46.04 C33.3674124,46.4946547 32.9100622,46.9753732 32.48,47.48 C29.06,51.45 28.6,55.04 24.37,55.04 L19.63,55.04 C15.4,55.04 14.94,51.45 11.52,47.48 C11.0899378,46.9753732 10.6325876,46.4946547 10.15,46.04 C6.09,42.18 6.37,38.8 6.53,35.08 C6.57,34.46 6.59,33.83 6.59,33.18 C6.59,30.06 5.73,28.49 5.41,23.53 C5.2465184,20.535563 5.2465184,17.534437 5.41,14.54 C5.95,2.79 18.37,1.24 20.5,1.06 C20.7,1.04 20.81,1.04 20.81,1.04 L23.19,1.04 C23.19,1.04 38,1.68 38.59,14.54 C38.7534816,17.534437 38.7534816,20.535563 38.59,23.53 Z" id="Shape" fill="#283593"/><path d="M35.59,23.53 C35.27,28.49 34.41,30.06 34.41,33.18 C34.41,33.83 34.43,34.46 34.47,35.08 C34.63,38.8 34.91,42.18 30.85,46.04 C30.3674124,46.4946547 29.9100622,46.9753732 29.48,47.48 C26.06,51.45 25.6,55.04 21.37,55.04 L19.63,55.04 C15.4,55.04 14.94,51.45 11.52,47.48 C11.0899378,46.9753732 10.6325876,46.4946547 10.15,46.04 C6.09,42.18 6.37,38.8 6.53,35.08 C6.57,34.46 6.59,33.83 6.59,33.18 C6.59,30.06 5.73,28.49 5.41,23.53 C5.2465184,20.535563 5.2465184,17.534437 5.41,14.54 C5.95,2.79 18.37,1.24 20.5,1.06 C22.63,1.24 35.05,2.79 35.59,14.54 C35.7534816,17.534437 35.7534816,20.535563 35.59,23.53 Z" id="Shape" fill="#3F51B5"/><path d="M6.588,33.18 C6.588,33.83 6.567,34.46 6.528,35.08 C2.778,33.14 2.148,28.68 2.148,28.68 C2.148,28.68 1.528,22.89 2.787,22.26 C4.057,21.61 5.328,23.54 5.328,23.54 L5.407,23.53 C5.727,28.49 6.588,30.06 6.588,33.18 Z" id="Shape" fill="#283593"/><path d="M41.847,28.68 C41.847,28.68 41.217,33.14 37.467,35.08 C37.427,34.46 37.407,33.83 37.407,33.18 C37.407,30.06 38.268,28.49 38.588,23.53 L38.667,23.54 C38.667,23.54 39.937,21.61 41.208,22.26 C42.467,22.89 41.847,28.68 41.847,28.68 Z" id="Shape" fill="#283593"/><path d="M32.477,47.48 L32.477,57 C32.4770138,58.100676 31.5876623,58.9944966 30.487,59 L13.508,59 C12.4073377,58.9944966 11.5179862,58.100676 11.518,57 L11.518,47.48 C14.937,51.45 15.398,55.04 19.627,55.04 L24.367,55.04 C28.6,55.04 29.057,51.45 32.477,47.48 Z" id="Shape" fill="#283593"/><path d="M34.01,22.98 C36.196393,21.5624675 38.2070824,19.8908091 40,18 C38.2070824,16.1091909 36.196393,14.4375325 34.01,13.02 L34.01,22.98 Z" id="Shape" fill="#EF314C"/><path d="M9.99,22.98 C7.80360704,21.5624675 5.79291758,19.8908091 4,18 C5.79291758,16.1091909 7.80360704,14.4375325 9.99,13.02 L9.99,22.98 Z" id="Shape" fill="#EF314C"/><path d="M35,18 C35,25.1797017 29.1797017,31 22,31 C21.4986354,31.0005196 20.9977056,30.9704638 20.5,30.91 C13.9566156,30.1360175 9.02705599,24.5890006 9.02705599,18 C9.02705599,11.4109994 13.9566156,5.86398252 20.5,5.09 C20.9977056,5.02953619 21.4986354,4.99948041 22,5 C29.1797017,5 35,10.8202983 35,18 Z" id="Shape" fill="#545C60"/><ellipse id="Oval" fill="#7F8E94" cx="20.5" cy="18" rx="11.5" ry="12.91"/><circle id="Oval" fill="#95A5A5" cx="22" cy="18" r="10"/><path d="M30.46,14.93 C28.9693871,10.82308 24.7444878,8.37994075 20.4414349,9.13654855 C16.1383821,9.89315635 13.0002767,13.6309362 13,18 C13.0115464,22.9657722 17.0342278,26.9884536 22,27 C24.9348072,26.9999325 27.6852526,25.5689262 29.3697236,23.1656679 C31.0541946,20.7624096 31.4610953,17.6887862 30.46,14.93 Z M22,21 C20.3701019,21.0004438 19.0380309,19.6994544 19,18.07 C20.3795764,16.9303777 21.9600634,16.0587357 23.66,15.5 C24.7629995,16.2316467 25.2561725,17.5996914 24.873726,18.8668337 C24.4912794,20.1339759 23.323599,21.0007449 22,21 Z" id="Shape" fill="#00BCD4"/><path d="M23.66,15.5 C21.9600634,16.0587357 20.3795764,16.9303777 19,18.07 L19,18 C19,16.3431458 20.3431458,15 22,15 C22.5899723,15.0030997 23.1664612,15.1767409 23.66,15.5 Z" id="Shape" fill="#35495E"/><path d="M42.51,38.51 C41.3649749,39.6473353 39.5278053,39.6825808 38.34,38.59 L35.29,35.54 C35.28,35.53 35.27,35.51 35.26,35.5 L34.02,34.26 C33.6322764,33.8699625 33.6322764,33.2400375 34.02,32.85 L36.85,30.02 C37.2400375,29.6322764 37.8699625,29.6322764 38.26,30.02 L39.5,31.26 C39.5150488,31.267481 39.5286046,31.2776478 39.54,31.29 L42.59,34.34 C43.6825808,35.5278053 43.6473353,37.3649749 42.51,38.51 Z" id="Shape" fill="#02A9F4"/><path d="M25,18 C25.01933,19.6568542 23.6918542,21.01567 22.035,21.035 C20.3781458,21.05433 19.01933,19.7268542 19,18.07 C20.3795764,16.9303777 21.9600634,16.0587357 23.66,15.5 C24.4990839,16.0545802 25.0027254,16.99421 25,18 Z" id="Shape" fill="#3F51B5"/><path d="M31,18 C31.0033438,21.9073435 28.4832342,25.3697491 24.7640431,26.5676481 C21.044852,27.765547 16.9777149,26.4248007 14.7,23.25 C15.8095125,21.2783481 17.2662623,19.5234727 19,18.07 C19.0340077,19.4927173 20.0629069,20.6957665 21.4631309,20.9500372 C22.863355,21.2043078 24.2495445,20.4398213 24.7815964,19.1198964 C25.3136482,17.7999714 24.8451349,16.2878682 23.66,15.5 C25.855892,14.8057554 28.1791751,14.6110096 30.46,14.93 C30.8186333,15.9137499 31.0014186,16.9529185 31,18 Z" id="Shape" fill="#00838F"/><path d="M6.529,36.076 C6.36970273,36.0757464 6.21273817,36.0377047 6.071,35.965 C1.907,33.813 1.192,29.026 1.164,28.823 C0.842,25.835 0.788,22.147 2.34,21.365 C3.969,20.538 5.511,21.996 6.166,22.988 C6.45864172,23.4487382 6.32777555,24.0590241 5.87195367,24.359266 C5.41613178,24.659508 4.80375962,24.5387803 4.496,24.088 C4.206,23.655 3.632,23.099 3.307,23.128 C2.971,23.72 2.894,26.2 3.148,28.576 C3.148,28.576 3.759,32.517 6.989,34.186 C7.39851073,34.3980617 7.60990029,34.8626656 7.50073467,35.3107193 C7.39156905,35.7587729 6.99016073,36.0740722 6.529,36.074 L6.529,36.076 Z" id="Shape" fill="#000000"/><path d="M5.331,17.68 L5.3,17.68 C5.03457038,17.6726798 4.78294998,17.5600944 4.60061394,17.3670658 C4.4182779,17.1740373 4.32019869,16.9164159 4.328,16.651 C4.349,15.964 4.369,15.245 4.409,14.486 C5.036,0.878 20.609,0.048 20.767,0.041 L23.19,0.041 C23.39,0.049 38.964,0.879 39.59,14.495 L39.598,14.678 C39.625,15.372 39.652,16.031 39.661,16.656 C39.6650082,16.9212252 39.5634765,17.1771766 39.3787468,17.3675326 C39.1940171,17.5578886 38.9412261,17.6670515 38.676,17.671 L38.66,17.671 C38.1135205,17.6710615 37.6681972,17.232418 37.66,16.686 C37.651,16.077 37.625,15.435 37.598,14.759 L37.591,14.581 C37.364,9.654 34.891,6.05 30.245,3.874 C28.0040036,2.85157829 25.6008099,2.23080966 23.145,2.04 L20.81,2.04 C20.286,2.064 6.949,2.805 6.41,14.586 C6.37,15.335 6.35,16.036 6.331,16.708 C6.31583714,17.24932 5.87253232,17.6802123 5.331,17.68 Z" id="Shape" fill="#000000"/><path d="M24.37,56.04 L19.63,56.04 C16.158,56.04 14.785,53.932 13.196,51.491 C12.1524813,49.7669775 10.8981461,48.1797429 9.462,46.766 C5.191,42.711 5.362,38.977 5.524,35.366 C5.557,34.651 5.59,33.925 5.59,33.181 C5.56909715,31.8578243 5.41871333,30.5398725 5.141,29.246 C4.51185512,25.9656236 4.22664482,22.6285626 4.29,19.289 C4.29,18.7367153 4.73771525,18.289 5.29,18.289 C5.84228475,18.289 6.29,18.7367153 6.29,19.289 C6.22849615,22.5087254 6.50264299,25.7260967 7.108,28.889 C7.40852126,30.3004806 7.56995983,31.7380208 7.59,33.181 C7.59,33.956 7.556,34.713 7.522,35.457 C7.359,39.051 7.23,41.89 10.839,45.315 C12.3873614,46.8379294 13.7422302,48.5457895 14.873,50.4 C16.516,52.925 17.339,54.041 19.63,54.041 L24.37,54.041 C26.661,54.041 27.484,52.925 29.127,50.4 C30.2577698,48.5457895 31.6126386,46.8379294 33.161,45.315 C35.3762293,43.4456592 36.6168411,40.6672632 36.53,37.77 C36.535484,37.2216245 36.981597,36.7799726 37.53,36.78 L37.541,36.78 C37.8062216,36.7829014 38.059426,36.8910511 38.2449029,37.0806539 C38.4303798,37.2702567 38.5329335,37.5257788 38.53,37.791 C38.6197466,41.2308684 37.1535081,44.5277926 34.539,46.765 C33.1010618,48.1787861 31.8450376,49.7663685 30.8,51.491 C29.215,53.932 27.842,56.04 24.37,56.04 Z" id="Shape" fill="#000000"/><path d="M37.751,30.75 C37.6916349,30.7500886 37.6323868,30.7447328 37.574,30.734 C37.0306756,30.6366047 36.669022,30.1173991 36.766,29.574 L36.877,28.961 C37.2337982,27.1450214 37.4726312,25.3078445 37.592,23.461 C37.672,22.28 37.71,20.915 37.71,19.286 C37.71,18.7337153 38.1577153,18.286 38.71,18.286 C39.2622847,18.286 39.71,18.7337153 39.71,19.286 C39.71,20.96 39.67,22.369 39.588,23.594 C39.4631361,25.5152776 39.2149582,27.4265478 38.845,29.316 L38.734,29.922 C38.6505579,30.3999046 38.2361334,30.7489825 37.751,30.75 Z" id="Shape" fill="#000000"/><path d="M40.479,33.23 C40.2918363,33.2304096 40.1083983,33.1777015 39.95,33.078 C39.482015,32.7849586 39.3401053,32.1680769 39.633,31.7 C40.2327557,30.7295951 40.648691,29.6570447 40.86,28.536 C41.108,26.201 41.031,23.727 40.695,23.136 C40.395,23.099 39.795,23.659 39.503,24.095 C39.1889768,24.5283156 38.5894779,24.6376168 38.1427382,24.3430043 C37.6959984,24.0483918 37.5603711,23.454295 37.835,22.995 C38.489,22 40.035,20.542 41.665,21.374 C43.212,22.148 43.16,25.835 42.844,28.791 C42.598881,30.2011311 42.0841515,31.5507683 41.328,32.766 C41.1436356,33.0563888 40.8229668,33.2316424 40.479,33.23 Z" id="Shape" fill="#000000"/><path d="M30.487,60 L13.513,60 C11.8561458,60 10.513,58.6568542 10.513,57 L10.513,47.48 C10.513,46.9277153 10.9607153,46.48 11.513,46.48 C12.0652847,46.48 12.513,46.9277153 12.513,47.48 L12.513,57 C12.513,57.5522847 12.9607153,58 13.513,58 L30.487,58 C31.0392847,58 31.487,57.5522847 31.487,57 L31.487,47.48 C31.487,46.9277153 31.9347153,46.48 32.487,46.48 C33.0392847,46.48 33.487,46.9277153 33.487,47.48 L33.487,57 C33.487,58.6568542 32.1438542,60 30.487,60 Z" id="Shape" fill="#000000"/><path d="M22,32 C14.2680135,32 8,25.7319865 8,18 C8,10.2680135 14.2680135,4 22,4 C29.7319865,4 36,10.2680135 36,18 C35.9917327,25.7285595 29.7285595,31.9917327 22,32 Z M22,6 C15.372583,6 10,11.372583 10,18 C10,24.627417 15.372583,30 22,30 C28.627417,30 34,24.627417 34,18 C33.9928352,11.375553 28.624447,6.00716485 22,6 Z" id="Shape" fill="#000000"/><path d="M22,28 C16.4771525,28 12,23.5228475 12,18 C12,12.4771525 16.4771525,8 22,8 C27.5228475,8 32,12.4771525 32,18 C31.9939376,23.5203344 27.5203344,27.9939376 22,28 Z M22,10 C17.581722,10 14,13.581722 14,18 C14,22.418278 17.581722,26 22,26 C26.418278,26 30,22.418278 30,18 C29.9950401,13.5837781 26.4162219,10.0049599 22,10 Z" id="Shape" fill="#000000"/><path d="M40.385,40.385 C39.3235395,40.3882094 38.305022,39.9661081 37.557,39.213 L33.313,34.971 C32.5322361,34.1900003 32.5322361,32.9239997 33.313,32.143 L36.143,29.313 C36.9239997,28.5322361 38.1900003,28.5322361 38.971,29.313 L43.213,33.557 C44.7745278,35.1189994 44.7745278,37.6510006 43.213,39.213 C42.464851,39.9659188 41.4464164,40.3879858 40.385,40.385 Z M37.557,30.728 L34.728,33.557 L38.971,37.8 C39.762167,38.555814 41.007833,38.555814 41.799,37.8 C42.5797639,37.0190003 42.5797639,35.7529997 41.799,34.972 L37.557,30.728 Z" id="Shape" fill="#000000"/><path d="M35.435,32.435 C35.1698052,32.4349434 34.9154927,32.3295494 34.728,32.142 L30.485,27.9 C30.0942586,27.5092585 30.0942586,26.8757415 30.485,26.485 C30.8757415,26.0942586 31.5092585,26.0942586 31.9,26.485 L36.143,30.728 C36.4289079,31.0139943 36.5144219,31.4440366 36.359678,31.8176546 C36.2049341,32.1912725 35.8403959,32.4349137 35.436,32.435 L35.435,32.435 Z" id="Shape" fill="#000000"/><path d="M34.011,23.98 C33.5687088,23.9799103 33.179013,23.6892824 33.0527898,23.2653848 C32.9265667,22.8414872 33.0938023,22.385023 33.464,22.143 C35.309463,20.9331937 37.0320166,19.5455717 38.607,18 C37.0320166,16.4544283 35.309463,15.0668063 33.464,13.857 C33.1560986,13.6657245 32.9758105,13.3228066 32.9927874,12.9607273 C33.0097642,12.598648 33.2213477,12.2741038 33.5457957,12.1124773 C33.8702437,11.9508509 34.2567524,11.9774506 34.556,12.182 C36.817506,13.6454045 38.895343,15.374753 40.745,17.333 C41.084923,17.7127036 41.084923,18.2872964 40.745,18.667 C38.895343,20.625247 36.817506,22.3545955 34.556,23.818 C34.3940065,23.9239664 34.2045734,23.9802749 34.011,23.98 Z" id="Shape" fill="#000000"/><path d="M9.989,23.98 C9.79542656,23.9802749 9.60599345,23.9239664 9.444,23.818 C7.18249396,22.3545955 5.10465701,20.625247 3.255,18.667 C2.91507695,18.2872964 2.91507695,17.7127036 3.255,17.333 C5.10465701,15.374753 7.18249396,13.6454045 9.444,12.182 C9.74324764,11.9774506 10.1297563,11.9508509 10.4542043,12.1124773 C10.7786523,12.2741038 10.9902358,12.598648 11.0072126,12.9607273 C11.0241895,13.3228066 10.8439014,13.6657245 10.536,13.857 C8.69053705,15.0668063 6.96798343,16.4544283 5.393,18 C6.96798343,19.5455717 8.69053705,20.9331937 10.536,22.143 C10.9061977,22.385023 11.0734333,22.8414872 10.9472102,23.2653848 C10.820987,23.6892824 10.4312912,23.9799103 9.989,23.98 Z" id="Shape" fill="#000000"/><path d="M22,21 C20.3431458,21 19,19.6568542 19,18 C19,16.3431458 20.3431458,15 22,15 C23.6568542,15 25,16.3431458 25,18 C25,19.6568542 23.6568542,21 22,21 Z M22,17 C21.4477153,17 21,17.4477153 21,18 C21,18.5522847 21.4477153,19 22,19 C22.5522847,19 23,18.5522847 23,18 C23,17.4477153 22.5522847,17 22,17 Z" id="Shape" fill="#000000"/></g></g></svg>
