<?xml version="1.0" encoding="UTF-8"?>
<svg xmlns="http://www.w3.org/2000/svg" xmlns:xlink="http://www.w3.org/1999/xlink" width="512" height="512" viewBox="0 0 42 60" version="1.1"><!-- Generator: Sketch 51.3 (57544) - http://www.bohemiancoding.com/sketch --><title>057 - Calm</title><desc>Created with Sketch.</desc><defs/><g id="Page-1" stroke="none" stroke-width="1" fill="none" fill-rule="evenodd"><g id="057---Calm" transform="translate(-1.000000, 0.000000)" fill-rule="nonzero"><path d="M41.208,22.26 C39.937,21.61 38.667,23.54 38.667,23.54 L38.588,23.53 C38.7509709,20.5355491 38.7509709,17.5344509 38.588,14.54 C38,1.68 23.187,1.04 23.187,1.04 L20.807,1.04 C20.807,1.04 5.997,1.68 5.407,14.54 C5.24402908,17.5344509 5.24402908,20.5355491 5.407,23.53 L5.328,23.54 C5.328,23.54 4.057,21.61 2.787,22.26 C1.528,22.89 2.148,28.68 2.148,28.68 C2.148,28.68 2.778,33.14 6.528,35.08 C6.367,38.8 6.088,42.18 10.148,46.04 C10.6300751,46.4951694 11.0873982,46.9758594 11.518,47.48 L11.518,57 C11.5179862,58.100676 12.4073377,58.9944966 13.508,59 L30.487,59 C31.5876623,58.9944966 32.4770138,58.100676 32.477,57 L32.477,47.48 C32.9076018,46.9758594 33.3649249,46.4951694 33.847,46.04 C37.907,42.18 37.628,38.8 37.467,35.08 C41.217,33.14 41.847,28.68 41.847,28.68 C41.847,28.68 42.467,22.89 41.208,22.26 Z" id="Shape" fill="#B0D3F0"/><path d="M38.59,23.53 C38.27,28.49 37.41,30.06 37.41,33.18 C37.41,33.83 37.43,34.46 37.47,35.08 C37.63,38.8 37.91,42.18 33.85,46.04 C33.3674124,46.4946547 32.9100622,46.9753732 32.48,47.48 C29.06,51.45 28.6,55.04 24.37,55.04 L19.63,55.04 C15.4,55.04 14.94,51.45 11.52,47.48 C11.0899378,46.9753732 10.6325876,46.4946547 10.15,46.04 C6.09,42.18 6.37,38.8 6.53,35.08 C6.57,34.46 6.59,33.83 6.59,33.18 C6.59,30.06 5.73,28.49 5.41,23.53 C5.2465184,20.535563 5.2465184,17.534437 5.41,14.54 C5.95,2.79 18.37,1.24 20.5,1.06 C20.7,1.04 20.81,1.04 20.81,1.04 L23.19,1.04 C23.19,1.04 38,1.68 38.59,14.54 C38.7534816,17.534437 38.7534816,20.535563 38.59,23.53 Z" id="Shape" fill="#0377BC"/><path d="M35.59,23.53 C35.27,28.49 34.41,30.06 34.41,33.18 C34.41,33.83 34.43,34.46 34.47,35.08 C34.63,38.8 34.91,42.18 30.85,46.04 C30.3674124,46.4946547 29.9100622,46.9753732 29.48,47.48 C26.06,51.45 25.6,55.04 21.37,55.04 L19.63,55.04 C15.4,55.04 14.94,51.45 11.52,47.48 C11.0899378,46.9753732 10.6325876,46.4946547 10.15,46.04 C6.09,42.18 6.37,38.8 6.53,35.08 C6.57,34.46 6.59,33.83 6.59,33.18 C6.59,30.06 5.73,28.49 5.41,23.53 C5.2465184,20.535563 5.2465184,17.534437 5.41,14.54 C5.95,2.79 18.37,1.24 20.5,1.06 C22.63,1.24 35.05,2.79 35.59,14.54 C35.7534816,17.534437 35.7534816,20.535563 35.59,23.53 Z" id="Shape" fill="#02A9F4"/><path d="M6.588,33.18 C6.588,33.83 6.567,34.46 6.528,35.08 C2.778,33.14 2.148,28.68 2.148,28.68 C2.148,28.68 1.528,22.89 2.787,22.26 C4.057,21.61 5.328,23.54 5.328,23.54 L5.407,23.53 C5.727,28.49 6.588,30.06 6.588,33.18 Z" id="Shape" fill="#0377BC"/><path d="M41.847,28.68 C41.847,28.68 41.217,33.14 37.467,35.08 C37.427,34.46 37.407,33.83 37.407,33.18 C37.407,30.06 38.268,28.49 38.588,23.53 L38.667,23.54 C38.667,23.54 39.937,21.61 41.208,22.26 C42.467,22.89 41.847,28.68 41.847,28.68 Z" id="Shape" fill="#0377BC"/><path d="M32.477,47.48 L32.477,57 C32.4770138,58.100676 31.5876623,58.9944966 30.487,59 L13.508,59 C12.4073377,58.9944966 11.5179862,58.100676 11.518,57 L11.518,47.48 C14.937,51.45 15.398,55.04 19.627,55.04 L24.367,55.04 C28.6,55.04 29.057,51.45 32.477,47.48 Z" id="Shape" fill="#0377BC"/><path d="M26.565,12.612 L23.238,26.94 L22.927,28.276 L22.677,27.56 L22.039,25.681 L17.582,12.672 C17.72,12.224 17.876,11.793 18.048,11.372 C19.0014996,9.03229264 20.3550401,6.87644099 22.048,5.001 C23.7526131,6.85640004 25.1207568,8.994738 26.091,11.32 C26.263,11.733 26.427,12.164 26.565,12.612 Z" id="Shape" fill="#EF314C"/><path d="M22.039,24.474 L22.039,30 L20.367,28.129 L9.393,15.853 C9.293,15.276 9.238,14.707 9.203,14.164 C9.08248818,12.3456238 9.20422094,10.5192961 9.565,8.733 C12.5005978,9.42347413 15.2415658,10.7701965 17.582,12.672 C18.5019478,13.4546119 19.3036137,14.3664226 19.962,15.379 C21.2503583,17.5147453 21.9657575,19.9468272 22.039,22.44 C22.0740603,23.1175467 22.0740603,23.7964533 22.039,24.474 Z" id="Shape" fill="#EF314C"/><path d="M34.88,14.16 C34.84,14.71 34.78,15.28 34.69,15.85 L34.68,15.85 L23.73,28.11 L22.04,30 L22.04,24.47 C21.9999453,23.7939261 21.9999453,23.1160739 22.04,22.44 C22.1091284,19.9474563 22.8222557,17.5152442 24.11,15.38 C24.7865701,14.3386185 25.6158348,13.404853 26.57,12.61 C28.0999619,11.3454148 29.8259585,10.3388649 31.68,9.63 C32.5967766,9.25213188 33.5433666,8.95109617 34.51,8.73 C34.8709386,10.5159403 34.9953394,12.3416061 34.88,14.16 Z" id="Shape" fill="#BB193B"/><path d="M31.88,14.16 C31.84,14.71 31.78,15.28 31.69,15.85 L31.68,15.85 L22.04,26.64 L22.04,24.47 C21.9999453,23.7939261 21.9999453,23.1160739 22.04,22.44 C22.1091284,19.9474563 22.8222557,17.5152442 24.11,15.38 C24.7865701,14.3386185 25.6158348,13.404853 26.57,12.61 C28.0999619,11.3454148 29.8259585,10.3388649 31.68,9.63 C31.9002664,11.129296 31.9672787,12.6471258 31.88,14.16 Z" id="Shape" fill="#EF314C"/><path d="M22.091,29.931 C22.0677703,29.9318492 22.0446703,29.9348622 22.022,29.94 C21.255,30.009 14.643,30.509 10.151,26.819 C5.367,22.888 4.763,15.707 4.763,15.707 C5.41955297,15.6477191 6.07905926,15.6276835 6.738,15.647 C9.212,15.681 13.496,16.181 16.712,18.819 C21.5,22.75 22.091,29.931 22.091,29.931 Z" id="Shape" fill="#E91E63"/><path d="M39.31,15.71 C39.31,15.71 38.71,22.89 33.93,26.82 C29.59,30.38 23.3,30.04 22.17,29.94 L22.15,29.94 C22.11,29.94 22.08,29.93 22.06,29.93 L21.99,29.93 C21.99,29.93 22,29.78 22.04,29.5 C22.1201805,28.8571849 22.2370377,28.2194782 22.39,27.59 L22.4,27.54 C23.0705348,24.350207 24.6712505,21.4306407 27,19.15 L27,19.14 C27.12,19.03 27.24,18.92 27.37,18.82 C29.4938127,17.1881432 32.019868,16.1618252 34.68,15.85 C35.2,15.78 35.7,15.73 36.16,15.7 C36.56,15.67 36.93,15.65 37.27,15.65 C37.9505637,15.6218073 38.6322697,15.6418574 39.31,15.71 Z" id="Shape" fill="#AD1457"/><path d="M36.31,15.71 C36.31,15.71 35.71,22.89 30.93,26.82 C28.3901479,28.7171734 25.3372942,29.8044911 22.17,29.94 L22.15,29.94 C22.11,29.94 22.08,29.93 22.06,29.93 L21.99,29.93 C21.99,29.93 22,29.78 22.04,29.5 C22.1201805,28.8571849 22.2370377,28.2194782 22.39,27.59 L22.4,27.54 C23.0705348,24.350207 24.6712505,21.4306407 27,19.15 L27,19.14 C27.12,19.03 27.24,18.92 27.37,18.82 C29.4938127,17.1881432 32.019868,16.1618252 34.68,15.85 C35.2,15.78 35.7,15.73 36.16,15.7 C36.2101967,15.6989174 36.2603912,15.7022637 36.31,15.71 Z" id="Shape" fill="#E91E63"/><path d="M6.529,36.076 C6.36970273,36.0757464 6.21273817,36.0377047 6.071,35.965 C1.907,33.813 1.192,29.026 1.164,28.823 C0.842,25.835 0.788,22.147 2.34,21.365 C3.969,20.538 5.511,21.996 6.166,22.988 C6.45864172,23.4487382 6.32777555,24.0590241 5.87195367,24.359266 C5.41613178,24.659508 4.80375962,24.5387803 4.496,24.088 C4.206,23.655 3.636,23.099 3.307,23.128 C2.971,23.72 2.894,26.2 3.148,28.576 C3.148,28.576 3.759,32.517 6.989,34.186 C7.39851073,34.3980617 7.60990029,34.8626656 7.50073467,35.3107193 C7.39156905,35.7587729 6.99016073,36.0740722 6.529,36.074 L6.529,36.076 Z" id="Shape" fill="#000000"/><path d="M24.37,56.04 L19.63,56.04 C16.158,56.04 14.785,53.932 13.196,51.491 C12.1524813,49.7669775 10.8981461,48.1797429 9.462,46.766 C5.191,42.711 5.362,38.977 5.524,35.366 C5.557,34.651 5.59,33.925 5.59,33.181 C5.56937278,31.8534568 5.41865198,30.5311331 5.14,29.233 C4.41866686,25.4143759 4.13683227,21.5257295 4.3,17.643 C4.31628553,17.0934999 4.76826981,16.6574994 5.318,16.661 C5.58340697,16.6657294 5.83604354,16.7757891 6.02024218,16.966928 C6.20444082,17.158067 6.30508567,17.4145996 6.3,17.68 C6.14092544,21.4318936 6.41168652,25.1896682 7.107,28.88 C7.4079596,30.2958226 7.56972959,31.7376855 7.59,33.185 C7.59,33.96 7.556,34.717 7.522,35.461 C7.359,39.055 7.23,41.894 10.839,45.319 C12.3871007,46.8406879 13.7419595,48.5471921 14.873,50.4 C16.516,52.925 17.339,54.041 19.63,54.041 L24.37,54.041 C26.661,54.041 27.484,52.925 29.127,50.4 C30.2577698,48.5457895 31.6126386,46.8379294 33.161,45.315 C36.77,41.89 36.641,39.051 36.478,35.457 C36.444,34.713 36.41,33.957 36.41,33.181 C36.430285,31.7377592 36.591382,30.2999435 36.891,28.888 C37.5851131,25.208674 37.8535452,21.4616967 37.691,17.721 C37.6856423,17.4557683 37.7858944,17.1992768 37.9696913,17.0079779 C38.1534883,16.8166791 38.4057662,16.7062516 38.671,16.701 C39.2209159,16.6969259 39.6736431,17.132343 39.691,17.682 C39.8582564,21.5551577 39.5790854,25.4346953 38.859,29.244 C38.5821673,30.5386706 38.4321253,31.8572319 38.411,33.181 C38.411,33.925 38.444,34.651 38.477,35.366 C38.641,38.978 38.81,42.712 34.539,46.766 C33.1010969,48.1794482 31.8450719,49.7666955 30.8,51.491 C29.215,53.932 27.842,56.04 24.37,56.04 Z" id="Shape" fill="#000000"/><path d="M38.64,16.73 C38.0977116,16.7301833 37.6540995,16.2981051 37.64,15.756 C37.631,15.375 37.611,14.995 37.592,14.596 C37.364,9.653 34.892,6.049 30.245,3.873 C28.0040036,2.85057829 25.6008099,2.22980966 23.145,2.039 L20.81,2.039 C20.286,2.063 6.949,2.804 6.41,14.585 C6.39,14.991 6.37,15.385 6.361,15.755 C6.34041768,16.304097 5.8854322,16.7364442 5.336,16.729 C5.07075604,16.7224518 4.81898722,16.6107616 4.63612173,16.4185184 C4.45325624,16.2262752 4.35428606,15.9692398 4.361,15.704 C4.372,15.315 4.392,14.904 4.412,14.489 C5.036,0.878 20.609,0.048 20.767,0.041 L23.19,0.041 C23.39,0.049 38.964,0.879 39.59,14.495 C39.61,14.914 39.631,15.31 39.641,15.706 C39.6477139,15.9712398 39.5487438,16.2282752 39.3658783,16.4205184 C39.1830128,16.6127616 38.931244,16.7244518 38.666,16.731 L38.64,16.73 Z" id="Shape" fill="#000000"/><path d="M37.471,36.076 C37.0098393,36.0760722 36.6084309,35.7607729 36.4992653,35.3127193 C36.3900997,34.8646656 36.6014893,34.4000617 37.011,34.188 C40.266,32.506 40.85,28.588 40.855,28.546 C41.106,26.201 41.03,23.724 40.693,23.131 C40.377,23.099 39.76,23.701 39.504,24.09 C39.3103323,24.3949124 38.9672801,24.5716812 38.6065752,24.5524272 C38.2458703,24.5331733 37.9235852,24.3208897 37.7634772,23.9970932 C37.6033692,23.6732967 37.6303274,23.2883224 37.834,22.99 C38.488,21.999 40.027,20.537 41.663,21.368 C43.212,22.149 43.163,25.837 42.84,28.794 C42.808,29.028 42.093,33.815 37.929,35.967 C37.7870905,36.0390116 37.6301347,36.0763657 37.471,36.076 Z" id="Shape" fill="#000000"/><path d="M30.487,60 L13.513,60 C11.8561458,60 10.513,58.6568542 10.513,57 L10.513,47.48 C10.513,46.9277153 10.9607153,46.48 11.513,46.48 C12.0652847,46.48 12.513,46.9277153 12.513,47.48 L12.513,57 C12.513,57.5522847 12.9607153,58 13.513,58 L30.487,58 C31.0392847,58 31.487,57.5522847 31.487,57 L31.487,47.48 C31.487,46.9277153 31.9347153,46.48 32.487,46.48 C33.0392847,46.48 33.487,46.9277153 33.487,47.48 L33.487,57 C33.487,58.6568542 32.1438542,60 30.487,60 Z" id="Shape" fill="#000000"/><path d="M20.442,31.135 C17.942,31.135 13.221,30.687 9.653,27.697 C4.682,23.528 4.028,16.156 4,15.845 C3.95655913,15.3078194 4.3466255,14.8328406 4.882,14.771 C5.188,14.737 12.414,13.95 17.397,18.127 C22.369,22.295 23.021,29.668 23.047,29.979 C23.0910088,30.5165527 22.7007937,30.992155 22.165,31.054 C21.592495,31.1113388 21.0173593,31.1383766 20.442,31.135 Z M6.14,16.7 C6.49,18.744 7.624,23.385 10.94,26.163 C14.256,28.941 18.872,29.175 20.916,29.124 C20.565,27.08 19.433,22.438 16.116,19.659 C12.819,16.9 8.161,16.653 6.14,16.7 Z" id="Shape" fill="#000000"/><path d="M22,25.619 L21.975,25.619 C21.7186397,25.6219321 21.4716712,25.5226241 21.2887042,25.3430349 C21.1057372,25.1634457 21.0018449,24.9183705 21,24.662 C21,24.644 21,24.539 21,24.521 C21.032,23.941 21.031,23.27 21,22.577 C20.9449893,20.2481218 20.2935671,17.9722757 19.108,15.967 C18.5154038,15.032461 17.788633,14.1901212 16.951,13.467 C15.0658753,11.8864449 12.8783399,10.7067614 10.522,10 C10.2544634,11.9081005 10.2605245,13.8446116 10.54,15.751 C10.6126898,16.2896218 10.2418706,16.7876853 9.70502353,16.8724935 C9.16817643,16.9573018 8.66188366,16.5977998 8.565,16.063 C8.18839451,13.5583995 8.25031743,11.0073782 8.748,8.524 C8.86749441,7.99124035 9.39433953,7.65459525 9.928,7.77 C12.9975397,8.50013294 15.8551705,9.93425482 18.275,11.959 C19.2575458,12.8104068 20.109945,13.8012788 20.805,14.9 C22.1738773,17.1962039 22.9297154,19.8056532 23,22.478 C23.035,23.242 23.035,23.985 23,24.632 C22.9738303,25.1708893 22.5391855,25.5998837 22,25.619 Z" id="Shape" fill="#000000"/><path d="M23.493,31.125 C22.572,31.125 21.979,31.064 21.893,31.056 C21.6492475,31.030638 21.4217449,30.9218324 21.249,30.748 C21.052718,30.5510405 20.9445029,30.2830278 20.949,30.005 C20.949,30.005 20.958,29.815 21.01,29.479 C21.0949482,28.8133118 21.2141058,28.1524374 21.367,27.499 C21.367,27.478 21.376,27.455 21.381,27.434 C22.0663395,24.0773821 23.7140471,20.9928818 26.123,18.557 C26.143,18.532 26.166,18.51 26.188,18.487 C26.326,18.356 26.463,18.236 26.61,18.116 C28.8303918,16.3634861 31.4914499,15.257884 34.3,14.921 C35.8936245,14.6757543 37.5111439,14.6250494 39.117,14.77 C39.6527761,14.8313456 40.043407,15.3064731 40,15.844 C39.975,16.155 39.322,23.526 34.351,27.698 C30.77,30.694 25.961,31.125 23.493,31.125 Z M23.086,29.125 C25.086,29.172 29.73,28.956 33.063,26.167 C36.396,23.378 37.517,18.738 37.863,16.698 C36.7683391,16.6736631 35.6735533,16.7405611 34.59,16.898 C32.1483607,17.1945661 29.8328501,18.147727 27.89,19.656 C27.8,19.73 27.72,19.799 27.642,19.87 C27.6154674,19.9010208 27.5870822,19.9304078 27.557,19.958 C25.4077592,22.124822 23.9409337,24.8742071 23.338,27.866 C23.338,27.887 23.33,27.908 23.325,27.93 C23.219,28.386 23.142,28.789 23.086,29.124 L23.086,29.125 Z" id="Shape" fill="#000000"/><path d="M22.358,28.652 C22.0936951,28.6541317 21.8394683,28.5506969 21.6517275,28.3646458 C21.4639867,28.1785947 21.3582578,27.9253134 21.358,27.661 L21.358,27.644 C21.3624099,27.0927782 21.812059,26.6490801 22.3632907,26.6520142 C22.9145224,26.6549482 23.3594227,27.1034078 23.3579645,27.6546454 C23.3565063,28.2058829 22.9092395,28.6519824 22.358,28.652 Z" id="Shape" fill="#000000"/><path d="M22,31.131 C21.4477153,31.131 21,30.6832847 21,30.131 L21,24.576 C20.9649237,23.8787742 20.9649237,23.1802258 21,22.483 C21.0666966,19.8090712 21.8212899,17.1974415 23.191,14.9 C23.9079838,13.7768247 24.7871654,12.7658837 25.8,11.9 C28.2055775,9.90914851 31.0369363,8.49843037 34.075,7.777 C34.6076962,7.66565189 35.1316375,8.00072549 35.254,8.531 C35.7510666,11.014468 35.81265,13.5654395 35.436,16.07 C35.3660457,16.5967502 34.8963416,16.9768041 34.3665903,16.9352967 C33.8368389,16.8937894 33.4320598,16.4452174 33.445,15.914 C33.4450144,15.8313562 33.4554296,15.7490428 33.476,15.669 C33.7417244,13.7913547 33.7417244,11.8856453 33.476,10.008 C31.1469493,10.7061132 28.9806426,11.8620208 27.104,13.408 C26.240114,14.145859 25.4906041,15.0079303 24.88,15.966 C23.6963202,17.972883 23.0489004,20.250561 23,22.58 C22.9674754,23.2265912 22.9674754,23.8744088 23,24.521 L23,30.131 C23,30.3962165 22.8946432,30.6505704 22.7071068,30.8381068 C22.5195704,31.0256432 22.2652165,31.131 22,31.131 Z" id="Shape" fill="#000000"/><path d="M17.615,13.713 C17.5167607,13.7127904 17.4190733,13.6983057 17.325,13.67 C16.7964732,13.5098256 16.4978526,12.951535 16.658,12.423 C17.6160386,9.42619024 19.1915784,6.66346 21.283,4.313 C21.4712548,4.11387616 21.7329751,4.00072912 22.007,4 C22.2788915,4.00051638 22.5388513,4.11172142 22.727,4.308 C24.8336618,6.63121945 26.4281706,9.37152596 27.407,12.351 C27.5288952,12.6962357 27.4523793,13.0804849 27.2075323,13.3526909 C26.9626854,13.6248969 26.5886566,13.7415358 26.2324849,13.6567544 C25.8763133,13.571973 25.594948,13.2993272 25.499,12.946 C24.7298777,10.6214248 23.5498423,8.45373635 22.015,6.546 C20.491863,8.47494644 19.3258528,10.6606653 18.572,13 C18.4453188,13.4228291 18.0563983,13.7125892 17.615,13.713 Z" id="Shape" fill="#000000"/><path d="M26.882,20.216 C26.3297153,20.216 25.882,19.7682847 25.882,19.216 L25.882,19.207 C25.882,18.6547153 26.3297153,18.207 26.882,18.207 C27.4342847,18.207 27.882,18.6547153 27.882,19.207 C27.882,19.7592847 27.4342847,20.207 26.882,20.207 L26.882,20.216 Z" id="Shape" fill="#000000"/><path d="M17.174,20.259 C16.6217153,20.259 16.174,19.8112847 16.174,19.259 L16.174,19.25 C16.174,18.6977153 16.6217153,18.25 17.174,18.25 C17.7262847,18.25 18.174,18.6977153 18.174,19.25 C18.174,19.8022847 17.7262847,20.25 17.174,20.25 L17.174,20.259 Z" id="Shape" fill="#000000"/></g></g></svg>
