<?xml version="1.0" encoding="UTF-8"?>
<svg xmlns="http://www.w3.org/2000/svg" xmlns:xlink="http://www.w3.org/1999/xlink" width="512" height="512" viewBox="0 0 42 60" version="1.1"><!-- Generator: Sketch 51.3 (57544) - http://www.bohemiancoding.com/sketch --><title>058 - Brain</title><desc>Created with Sketch.</desc><defs/><g id="Page-1" stroke="none" stroke-width="1" fill="none" fill-rule="evenodd"><g id="058---Brain" transform="translate(-1.000000, 0.000000)" fill-rule="nonzero"><path d="M41.208,22.26 C39.938,21.61 38.667,23.54 38.667,23.54 L38.588,23.53 C38.7509709,20.5355491 38.7509709,17.5344509 38.588,14.54 C38,1.68 23.187,1.04 23.187,1.04 L20.807,1.04 C20.807,1.04 5.997,1.68 5.407,14.54 C5.24402908,17.5344509 5.24402908,20.5355491 5.407,23.53 L5.328,23.54 C5.328,23.54 4.057,21.61 2.787,22.26 C1.528,22.89 2.148,28.68 2.148,28.68 C2.148,28.68 2.778,33.14 6.528,35.08 C6.367,38.8 6.088,42.18 10.148,46.04 C10.6300751,46.4951694 11.0873982,46.9758594 11.518,47.48 L11.518,57 C11.5179862,58.100676 12.4073377,58.9944966 13.508,59 L30.487,59 C31.5876623,58.9944966 32.4770138,58.100676 32.477,57 L32.477,47.48 C32.9076018,46.9758594 33.3649249,46.4951694 33.847,46.04 C37.907,42.18 37.628,38.8 37.467,35.08 C41.217,33.14 41.847,28.68 41.847,28.68 C41.847,28.68 42.467,22.89 41.208,22.26 Z" id="Shape" fill="#35495E"/><path d="M38.59,23.53 C38.27,28.49 37.41,30.06 37.41,33.18 C37.41,33.83 37.43,34.46 37.47,35.08 C37.63,38.8 37.91,42.18 33.85,46.04 C33.3674124,46.4946547 32.9100622,46.9753732 32.48,47.48 C29.06,51.45 28.6,55.04 24.37,55.04 L19.63,55.04 C15.4,55.04 14.94,51.45 11.52,47.48 C11.0899378,46.9753732 10.6325876,46.4946547 10.15,46.04 C6.09,42.18 6.37,38.8 6.53,35.08 C6.57,34.46 6.59,33.83 6.59,33.18 C6.59,30.06 5.73,28.49 5.41,23.53 C5.2465184,20.535563 5.2465184,17.534437 5.41,14.54 C5.95,2.79 18.37,1.24 20.5,1.06 C20.7,1.04 20.81,1.04 20.81,1.04 L23.19,1.04 C23.19,1.04 38,1.68 38.59,14.54 C38.7534816,17.534437 38.7534816,20.535563 38.59,23.53 Z" id="Shape" fill="#37474F"/><path d="M35.59,23.53 C35.27,28.49 34.41,30.06 34.41,33.18 C34.41,33.83 34.43,34.46 34.47,35.08 C34.63,38.8 34.91,42.18 30.85,46.04 C30.3674124,46.4946547 29.9100622,46.9753732 29.48,47.48 C26.06,51.45 25.6,55.04 21.37,55.04 L19.63,55.04 C15.4,55.04 14.94,51.45 11.52,47.48 C11.0899378,46.9753732 10.6325876,46.4946547 10.15,46.04 C6.09,42.18 6.37,38.8 6.53,35.08 C6.57,34.46 6.59,33.83 6.59,33.18 C6.59,30.06 5.73,28.49 5.41,23.53 C5.2465184,20.535563 5.2465184,17.534437 5.41,14.54 C5.95,2.79 18.37,1.24 20.5,1.06 C22.63,1.24 35.05,2.79 35.59,14.54 C35.7534816,17.534437 35.7534816,20.535563 35.59,23.53 Z" id="Shape" fill="#607D8B"/><path d="M6.588,33.18 C6.588,33.83 6.567,34.46 6.528,35.08 C2.778,33.14 2.148,28.68 2.148,28.68 C2.148,28.68 1.528,22.89 2.787,22.26 C4.057,21.61 5.328,23.54 5.328,23.54 L5.407,23.53 C5.727,28.49 6.588,30.06 6.588,33.18 Z" id="Shape" fill="#37474F"/><path d="M41.847,28.68 C41.847,28.68 41.217,33.14 37.467,35.08 C37.427,34.46 37.407,33.83 37.407,33.18 C37.407,30.06 38.268,28.49 38.588,23.53 L38.667,23.54 C38.667,23.54 39.937,21.61 41.208,22.26 C42.467,22.89 41.847,28.68 41.847,28.68 Z" id="Shape" fill="#37474F"/><path d="M32.477,47.48 L32.477,57 C32.4770138,58.100676 31.5876623,58.9944966 30.487,59 L13.508,59 C12.4073377,58.9944966 11.5179862,58.100676 11.518,57 L11.518,47.48 C14.937,51.45 15.398,55.04 19.627,55.04 L24.367,55.04 C28.6,55.04 29.057,51.45 32.477,47.48 Z" id="Shape" fill="#37474F"/><path d="M34,24 C34,26.4852814 31.9852814,28.5 29.5,28.5 L29.425,28.5 C29.4764176,28.7466496 29.501558,28.9980528 29.5,29.25 C29.5,31.3210678 27.8210678,33 25.75,33 C23.6789322,33 22,31.3210678 22,29.25 C22,31.3210678 20.3210678,33 18.25,33 C16.1789322,33 14.5,31.3210678 14.5,29.25 C14.498442,28.9980528 14.5235824,28.7466496 14.575,28.5 L14.5,28.5 C12.3349701,28.5006588 10.4763602,26.9595095 10.0761731,24.8317865 C9.67598588,22.7040635 10.847673,20.5929688 12.865,19.807 C12.464527,19.289941 12.2480912,18.6540069 12.25,18 C12.2489885,17.5887027 12.3359321,17.1819433 12.505,16.807 C11.5408077,15.7720374 11.241614,14.2823109 11.7314376,12.9553267 C12.2212611,11.6283425 13.4166098,10.6902896 14.822,10.53 C14.6107945,10.0475055 14.501186,9.52669468 14.5,9 C14.5000001,6.92893223 16.1789322,5.25000011 18.25,5.25000011 C20.3210678,5.25000011 21.9999999,6.92893223 22,9 C22,6.92893219 23.6789322,5.25 25.75,5.25 C27.8210678,5.25 29.5,6.92893219 29.5,9 C29.498814,9.52669468 29.3892055,10.0475055 29.178,10.53 C30.5833902,10.6902896 31.7787389,11.6283425 32.2685624,12.9553267 C32.758386,14.2823109 32.4591923,15.7720374 31.495,16.807 C31.6640679,17.1819433 31.7510115,17.5887027 31.75,18 C31.7519088,18.6540069 31.535473,19.289941 31.135,19.807 C32.8609248,20.4830987 33.9974122,22.1463768 34,24 Z" id="Shape" fill="#E91E63"/><path d="M34,24 C33.9961455,26.483683 31.983683,28.4961455 29.5,28.5 L29.43,28.5 C29.4789885,28.7469384 29.5024452,28.9982611 29.5,29.25 C29.499448,31.3208391 27.8208391,32.999448 25.75,33 C25.2328348,33.0021624 24.7212583,32.8930261 24.25,32.68 C25.6169268,32.0876958 26.5011573,30.7397355 26.5,29.25 C26.5024452,28.9982611 26.4789885,28.7469384 26.43,28.5 L26.5,28.5 C28.6610966,28.4945855 30.5131787,26.9536806 30.9115928,24.8296198 C31.310007,22.7055591 30.1422341,20.5982141 28.13,19.81 C28.5343473,19.2935654 28.752777,18.6558915 28.75,18 C28.7528694,17.5889379 28.6640477,17.1824079 28.49,16.81 C29.4563742,15.7763972 29.7578717,14.2864707 29.269386,12.9584663 C28.7809003,11.6304619 27.5858029,10.6910345 26.18,10.53 C26.3894093,10.0470064 26.4982873,9.5264334 26.5,9 C26.4986225,7.50857762 25.6158709,6.1589485 24.25,5.56 C25.4099457,5.05712043 26.7450606,5.17153108 27.8025359,5.86442919 C28.8600112,6.5573273 29.4979526,7.7357383 29.5,9 C29.4982873,9.5264334 29.3894093,10.0470064 29.18,10.53 C30.5858029,10.6910345 31.7809003,11.6304619 32.269386,12.9584663 C32.7578717,14.2864707 32.4563742,15.7763972 31.49,16.81 C31.6640477,17.1824079 31.7528694,17.5889379 31.75,18 C31.752777,18.6558915 31.5343473,19.2935654 31.13,19.81 C32.8603528,20.4797072 34.0007229,22.144568 34,24 Z" id="Shape" fill="#AD1457"/><path d="M6.529,36.076 C6.36970273,36.0757464 6.21273817,36.0377047 6.071,35.965 C1.907,33.813 1.192,29.026 1.164,28.823 C0.842,25.835 0.788,22.147 2.34,21.365 C3.969,20.538 5.511,21.996 6.166,22.988 C6.45864172,23.4487382 6.32777555,24.0590241 5.87195367,24.359266 C5.41613178,24.659508 4.80375962,24.5387803 4.496,24.088 C4.206,23.655 3.623,23.099 3.307,23.128 C2.971,23.72 2.894,26.2 3.148,28.576 C3.148,28.576 3.759,32.517 6.989,34.186 C7.39851073,34.3980617 7.60990029,34.8626656 7.50073467,35.3107193 C7.39156905,35.7587729 6.99016073,36.0740722 6.529,36.074 L6.529,36.076 Z" id="Shape" fill="#000000"/><path d="M24.37,56.04 L19.63,56.04 C16.157,56.04 14.785,53.933 13.195,51.491 C12.150706,49.7669717 10.8957094,48.1797503 9.459,46.766 C5.189,42.713 5.359,38.981 5.524,35.374 C5.558,34.657 5.591,33.929 5.591,33.183 C5.57025623,31.8557948 5.41953636,30.5338141 5.141,29.236 C4.666,26.613 4.015,23.021 4.407,14.494 C5.034,0.881 20.614,0.048 20.771,0.041 L23.186,0.041 C23.386,0.049 38.966,0.882 39.593,14.495 C39.985,23.022 39.334,26.614 38.859,29.237 C38.5804636,30.5348141 38.4297438,31.8567948 38.409,33.184 C38.409,33.93 38.442,34.658 38.476,35.375 C38.641,38.982 38.811,42.714 34.541,46.767 C33.1042906,48.1807503 31.849294,49.7679717 30.805,51.492 C29.215,53.933 27.843,56.04 24.37,56.04 Z M20.814,2.04 C20.291,2.064 6.947,2.808 6.405,14.586 C6.022,22.886 6.625,26.209 7.105,28.88 C7.40481618,30.2942973 7.56624411,31.734422 7.587,33.18 C7.587,33.957 7.553,34.716 7.518,35.462 C7.354,39.053 7.225,41.889 10.832,45.311 C12.3830791,46.8345066 13.7400208,48.5437829 14.872,50.4 C16.516,52.924 17.339,54.04 19.63,54.04 L24.37,54.04 C26.661,54.04 27.484,52.924 29.128,50.4 C30.2589392,48.5450587 31.614522,46.8368095 33.164,45.314 C36.771,41.892 36.642,39.056 36.478,35.465 C36.443,34.719 36.409,33.96 36.409,33.183 C36.4297559,31.737422 36.5911838,30.2972973 36.891,28.883 C37.375,26.212 37.978,22.89 37.591,14.589 C37.364,9.657 34.891,6.054 30.24,3.877 C27.9989838,2.8544688 25.5958299,2.23337198 23.14,2.042 L20.814,2.04 Z" id="Shape" fill="#000000"/><path d="M37.471,36.076 C37.0098393,36.0760722 36.6084309,35.7607729 36.4992653,35.3127193 C36.3900997,34.8646656 36.6014893,34.4000617 37.011,34.188 C40.266,32.506 40.85,28.588 40.855,28.546 C41.106,26.201 41.03,23.724 40.693,23.131 C40.373,23.099 39.76,23.701 39.504,24.09 C39.3103323,24.3949124 38.9672801,24.5716812 38.6065752,24.5524272 C38.2458703,24.5331733 37.9235852,24.3208897 37.7634772,23.9970932 C37.6033692,23.6732967 37.6303274,23.2883224 37.834,22.99 C38.489,21.999 40.028,20.537 41.663,21.368 C43.212,22.149 43.163,25.837 42.84,28.794 C42.808,29.028 42.093,33.815 37.929,35.967 C37.7870905,36.0390116 37.6301347,36.0763657 37.471,36.076 Z" id="Shape" fill="#000000"/><path d="M30.487,60 L13.513,60 C11.8561458,60 10.513,58.6568542 10.513,57 L10.513,47.48 C10.513,46.9277153 10.9607153,46.48 11.513,46.48 C12.0652847,46.48 12.513,46.9277153 12.513,47.48 L12.513,57 C12.513,57.5522847 12.9607153,58 13.513,58 L30.487,58 C31.0392847,58 31.487,57.5522847 31.487,57 L31.487,47.48 C31.487,46.9277153 31.9347153,46.48 32.487,46.48 C33.0392847,46.48 33.487,46.9277153 33.487,47.48 L33.487,57 C33.487,58.6568542 32.1438542,60 30.487,60 Z" id="Shape" fill="#000000"/><path d="M25.75,34 C24.2830924,33.9999227 22.8986935,33.3213826 22,32.162 C20.7733149,33.7463016 18.6841005,34.3900092 16.7784914,33.7707984 C14.8728823,33.1515875 13.5611021,31.4027568 13.5,29.4 C11.2874051,28.9946605 9.54580198,27.2808287 9.10495177,25.0750347 C8.66410157,22.8692407 9.61317502,20.61765 11.5,19.393 C11.3342832,18.9472851 11.249617,18.4755247 11.25,18 C11.2491087,17.6625256 11.2921366,17.3263698 11.378,17 C10.5274153,15.8002269 10.28042,14.274171 10.709121,12.8673429 C11.1378221,11.4605149 12.1938824,10.3315375 13.569,9.81 C13.1969893,7.66157001 14.3357548,5.53584589 16.3304281,4.65526543 C18.3251014,3.77468496 20.6631356,4.36552013 22,6.088 C23.3376816,4.36746436 25.6745815,3.77796387 27.6683087,4.6581267 C29.662036,5.53828952 30.8010235,7.6622762 30.431,9.81 C31.8077307,10.3311583 32.8651151,11.4610577 33.2939438,12.8692833 C33.7227725,14.2775089 33.4746003,15.8049725 32.622,17.005 C32.7078634,17.3313698 32.7508913,17.6675256 32.75,18.005 C32.749624,18.4803098 32.6642816,18.9517248 32.498,19.397 C34.3832104,20.6246443 35.3307123,22.8766432 34.8902308,25.0827947 C34.4497493,27.2889463 32.7100982,29.0044267 30.498,29.414 C30.4065465,31.9709492 28.3085828,33.9973312 25.75,34 Z M23,29.25 C23,30.7687831 24.2312169,32 25.75,32 C27.2687831,32 28.5,30.7687831 28.5,29.25 C28.5016307,29.0703297 28.4841999,28.8909933 28.448,28.715 C28.3828461,28.4190458 28.4554118,28.1095118 28.6453121,27.8733513 C28.8352123,27.6371908 29.121959,27.499883 29.425,27.5 C31.1231456,27.5373698 32.6029941,26.3500917 32.9346395,24.6842266 C33.2662849,23.0183616 32.3539807,21.3548466 30.771,20.739 C30.4770729,20.6242374 30.2545524,20.3774808 30.1706799,20.0732951 C30.0868073,19.7691093 30.1514225,19.4431813 30.345,19.194 C30.6102069,18.8527487 30.7528624,18.4321793 30.75,18 C30.7511795,17.7303608 30.6942191,17.4636359 30.583,17.218 C30.4180086,16.8507525 30.4893439,16.4203755 30.764,16.126 C31.4690995,15.3667211 31.6871569,14.2753793 31.3279648,13.3034478 C30.9687727,12.3315163 30.0934092,11.6442649 29.064,11.526 C28.7497945,11.4889812 28.4716404,11.3054577 28.313994,11.0311529 C28.1563475,10.7568481 28.1378063,10.4241218 28.264,10.134 C28.4202861,9.77640208 28.5006476,9.39025784 28.5,9 C28.5,7.48121694 27.2687831,6.25 25.75,6.25 C24.2312169,6.25 23,7.48121694 23,9 C23,9.55228475 22.5522847,10 22,10 C21.4477153,10 21,9.55228475 21,9 C21,7.48121694 19.7687831,6.25 18.25,6.25 C16.7312169,6.25 15.5,7.48121694 15.5,9 C15.5005747,9.38979598 15.5819538,9.77523996 15.739,10.132 C15.8651937,10.4221218 15.8466525,10.7548481 15.689006,11.0291529 C15.5313596,11.3034577 15.2532055,11.4869812 14.939,11.524 C13.9095908,11.6422649 13.0342273,12.3295163 12.6750352,13.3014478 C12.3158431,14.2733793 12.5339005,15.3647211 13.239,16.124 C13.5136561,16.4183755 13.5849914,16.8487525 13.42,17.216 C13.3074666,17.4620186 13.2494742,17.729466 13.25,18 C13.2471376,18.4321793 13.3897931,18.8527487 13.655,19.194 C13.8485775,19.4431813 13.9131927,19.7691093 13.8293201,20.0732951 C13.7454476,20.3774808 13.5229271,20.6242374 13.229,20.739 C11.6603995,21.350457 10.7493807,22.9920568 11.0604253,24.6466378 C11.3714699,26.3012189 12.8164362,27.4999171 14.5,27.5 C14.8133062,27.4997249 15.1112019,27.6358954 15.316,27.873 C15.5172152,28.1039333 15.603878,28.4131285 15.552,28.715 C15.5158001,28.8909933 15.4983693,29.0703297 15.5,29.25 C15.5,30.7687831 16.7312169,32 18.25,32 C19.7687831,32 21,30.7687831 21,29.25 C21,28.6977153 21.4477153,28.25 22,28.25 C22.5522847,28.25 23,28.6977153 23,29.25 Z" id="Shape" fill="#000000"/><path d="M22,30.25 C21.4477153,30.25 21,29.8022847 21,29.25 L21,16.5 C21,15.9477153 21.4477153,15.5 22,15.5 C22.5522847,15.5 23,15.9477153 23,16.5 L23,29.25 C23,29.8022847 22.5522847,30.25 22,30.25 Z" id="Shape" fill="#000000"/><path d="M22,13.75 C21.4477153,13.75 21,13.3022847 21,12.75 L21,8.25 C21,7.69771525 21.4477153,7.25 22,7.25 C22.5522847,7.25 23,7.69771525 23,8.25 L23,12.75 C23,13.3022847 22.5522847,13.75 22,13.75 Z" id="Shape" fill="#000000"/><path d="M16.4,11.678 C16.2981905,11.6776962 16.1970244,11.6618468 16.1,11.631 C15.8281378,11.5440634 15.5444243,11.4998702 15.259,11.5 C14.7067153,11.5 14.259,11.0522847 14.259,10.5 C14.259,9.94771525 14.7067153,9.5 15.259,9.5 C15.7503795,9.4999064 16.2388182,9.57580329 16.707,9.725 C17.1763911,9.8742177 17.4672318,10.3430052 17.3924502,10.8298334 C17.3176686,11.3166615 16.8995361,11.6765438 16.407,11.678 L16.4,11.678 Z" id="Shape" fill="#000000"/><path d="M13.81,18.713 C13.6782912,18.7127214 13.5478855,18.6869119 13.426,18.637 C12.8009883,18.3748239 12.2383824,17.9836237 11.775,17.489 C11.4137971,17.0835117 11.4422137,16.4638664 11.8390135,16.0931397 C12.2358132,15.722413 12.8559585,15.7361124 13.236,16.124 C13.5044347,16.4107898 13.8306,16.6374355 14.193,16.789 C14.6339771,16.9714958 14.8845396,17.4401699 14.7913647,17.908234 C14.6981898,18.3762981 14.2872478,18.7132902 13.81,18.713 Z" id="Shape" fill="#000000"/><path d="M14.575,29.5 C14.0227153,29.5035899 13.5720899,29.0587847 13.5685,28.5065 C13.5649101,27.9542153 14.0097153,27.5035899 14.562,27.5 C14.9928854,27.4943648 15.4186479,27.4057492 15.816,27.239 C16.3257588,27.0258181 16.9118181,27.2662412 17.125,27.776 C17.3381819,28.2857588 17.0977588,28.8718181 16.588,29.085 C15.9540691,29.3501609 15.2750943,29.4910481 14.588,29.5 L14.575,29.5 Z" id="Shape" fill="#000000"/><path d="M27.6,11.678 C27.1074639,11.6765438 26.6893314,11.3166615 26.6145498,10.8298334 C26.5397682,10.3430052 26.8306089,9.8742177 27.3,9.725 C27.7688208,9.57559939 28.2579498,9.49970005 28.75,9.5 C29.3022847,9.5 29.75,9.94771525 29.75,10.5 C29.75,11.0522847 29.3022847,11.5 28.75,11.5 C28.4645757,11.4998702 28.1808622,11.5440634 27.909,11.631 C27.8091002,11.6627659 27.7048268,11.6786262 27.6,11.678 Z" id="Shape" fill="#000000"/><path d="M30.19,18.713 C29.7127522,18.7132902 29.3018102,18.3762981 29.2086353,17.908234 C29.1154604,17.4401699 29.3660229,16.9714958 29.807,16.789 C30.1694,16.6374355 30.4955653,16.4107898 30.764,16.124 C31.0054018,15.853001 31.3746817,15.7340654 31.7288659,15.8132414 C32.0830501,15.8924173 32.3665351,16.1572749 32.4695643,16.5052696 C32.5725934,16.8532643 32.4789922,17.2297641 32.225,17.489 C31.7616176,17.9836237 31.1990117,18.3748239 30.574,18.637 C30.4521145,18.6869119 30.3217088,18.7127214 30.19,18.713 Z" id="Shape" fill="#000000"/><path d="M29.5,29.5 L29.425,29.5 C28.7335602,29.4923648 28.0500808,29.3514587 27.412,29.085 C27.0822439,28.9470955 26.8511078,28.6437436 26.8056586,28.2892142 C26.7602093,27.9346847 26.9073517,27.5828391 27.1916586,27.3662142 C27.4759654,27.1495893 27.8542439,27.1010955 28.184,27.239 C28.5813521,27.4057492 29.0071146,27.4943648 29.438,27.5 C29.9950092,27.5046771 30.4479995,27.9501471 30.462,28.507 C30.4689982,28.7670738 30.3709039,29.0189963 30.1898773,29.2058564 C30.0088506,29.3927166 29.760165,29.4987489 29.5,29.5 Z" id="Shape" fill="#000000"/></g></g></svg>
