<?xml version="1.0" encoding="UTF-8"?>
<svg xmlns="http://www.w3.org/2000/svg" xmlns:xlink="http://www.w3.org/1999/xlink" width="512" height="512" viewBox="0 0 42 60" version="1.1"><!-- Generator: Sketch 51.3 (57544) - http://www.bohemiancoding.com/sketch --><title>059 - Law</title><desc>Created with Sketch.</desc><defs/><g id="Page-1" stroke="none" stroke-width="1" fill="none" fill-rule="evenodd"><g id="059---Law" fill-rule="nonzero"><path d="M40.208,22.26 C38.938,21.61 37.667,23.54 37.667,23.54 L37.588,23.53 C37.7509709,20.5355491 37.7509709,17.5344509 37.588,14.54 C37,1.68 22.188,1.04 22.188,1.04 L19.807,1.04 C19.807,1.04 4.997,1.68 4.407,14.54 C4.24402908,17.5344509 4.24402908,20.5355491 4.407,23.53 L4.328,23.54 C4.328,23.54 3.057,21.61 1.787,22.26 C0.528,22.89 1.148,28.68 1.148,28.68 C1.148,28.68 1.778,33.14 5.528,35.08 C5.367,38.8 5.088,42.18 9.148,46.04 C9.63007511,46.4951694 10.0873982,46.9758594 10.518,47.48 L10.518,57 C10.5179862,58.100676 11.4073377,58.9944966 12.508,59 L29.487,59 C30.5876623,58.9944966 31.4770138,58.100676 31.477,57 L31.477,47.48 C31.9076018,46.9758594 32.3649249,46.4951694 32.847,46.04 C36.907,42.18 36.628,38.8 36.467,35.08 C40.217,33.14 40.847,28.68 40.847,28.68 C40.847,28.68 41.467,22.89 40.208,22.26 Z" id="Shape" fill="#35495E"/><path d="M37.59,23.53 C37.27,28.49 36.41,30.06 36.41,33.18 C36.41,33.83 36.43,34.46 36.47,35.08 C36.63,38.8 36.91,42.18 32.85,46.04 C32.3674124,46.4946547 31.9100622,46.9753732 31.48,47.48 C28.06,51.45 27.6,55.04 23.37,55.04 L18.63,55.04 C14.4,55.04 13.94,51.45 10.52,47.48 C10.0899378,46.9753732 9.63258763,46.4946547 9.15,46.04 C5.09,42.18 5.37,38.8 5.53,35.08 C5.57,34.46 5.59,33.83 5.59,33.18 C5.59,30.06 4.73,28.49 4.41,23.53 C4.2465184,20.535563 4.2465184,17.534437 4.41,14.54 C4.95,2.79 17.37,1.24 19.5,1.06 C19.7,1.04 19.81,1.04 19.81,1.04 L22.19,1.04 C22.19,1.04 37,1.68 37.59,14.54 C37.7534816,17.534437 37.7534816,20.535563 37.59,23.53 Z" id="Shape" fill="#6A1B9A"/><path d="M34.59,23.53 C34.27,28.49 33.41,30.06 33.41,33.18 C33.41,33.83 33.43,34.46 33.47,35.08 C33.63,38.8 33.91,42.18 29.85,46.04 C29.3674124,46.4946547 28.9100622,46.9753732 28.48,47.48 C25.06,51.45 24.6,55.04 20.37,55.04 L18.63,55.04 C14.4,55.04 13.94,51.45 10.52,47.48 C10.0899378,46.9753732 9.63258763,46.4946547 9.15,46.04 C5.09,42.18 5.37,38.8 5.53,35.08 C5.57,34.46 5.59,33.83 5.59,33.18 C5.59,30.06 4.73,28.49 4.41,23.53 C4.2465184,20.535563 4.2465184,17.534437 4.41,14.54 C4.95,2.79 17.37,1.24 19.5,1.06 C21.63,1.24 34.05,2.79 34.59,14.54 C34.7534816,17.534437 34.7534816,20.535563 34.59,23.53 Z" id="Shape" fill="#9D27B0"/><path d="M5.588,33.18 C5.588,33.83 5.567,34.46 5.528,35.08 C1.778,33.14 1.148,28.68 1.148,28.68 C1.148,28.68 0.528,22.89 1.787,22.26 C3.057,21.61 4.328,23.54 4.328,23.54 L4.407,23.53 C4.727,28.49 5.588,30.06 5.588,33.18 Z" id="Shape" fill="#673AB7"/><path d="M40.847,28.68 C40.847,28.68 40.217,33.14 36.467,35.08 C36.427,34.46 36.407,33.83 36.407,33.18 C36.407,30.06 37.268,28.49 37.588,23.53 L37.667,23.54 C37.667,23.54 38.937,21.61 40.208,22.26 C41.467,22.89 40.847,28.68 40.847,28.68 Z" id="Shape" fill="#673AB7"/><path d="M31.477,47.48 L31.477,57 C31.4770138,58.100676 30.5876623,58.9944966 29.487,59 L12.508,59 C11.4073377,58.9944966 10.5179862,58.100676 10.518,57 L10.518,47.48 C13.937,51.45 14.398,55.04 18.627,55.04 L23.367,55.04 C27.6,55.04 28.057,51.45 31.477,47.48 Z" id="Shape" fill="#673AB7"/><rect id="Rectangle-path" fill="#FFDC00" x="18.5" y="11.23" width="4" height="20.77"/><path d="M27.47,35.96 C27.4808919,36.2320768 27.3803633,36.49683 27.1916334,36.693109 C27.0029035,36.8893881 26.7422947,37.0002179 26.47,37 L14.53,37 C14.2577053,37.0002179 13.9970965,36.8893881 13.8083666,36.693109 C13.6196367,36.49683 13.5191081,36.2320768 13.53,35.96 C13.55,35.55 13.57,35.14 13.6,35 C14.0752686,32.6716687 16.1236569,30.999515 18.5,31 L22.5,31 C24.8763431,30.999515 26.9247314,32.6716687 27.4,35 C27.43,35.14 27.45,35.55 27.47,35.96 Z" id="Shape" fill="#FEC108"/><path d="M24.47,35.96 C24.4808919,36.2320768 24.3803633,36.49683 24.1916334,36.693109 C24.0029035,36.8893881 23.7422947,37.0002179 23.47,37 L14.53,37 C14.2577053,37.0002179 13.9970965,36.8893881 13.8083666,36.693109 C13.6196367,36.49683 13.5191081,36.2320768 13.53,35.96 C13.55,35.55 13.57,35.14 13.6,35 C14.0752686,32.6716687 16.1236569,30.999515 18.5,31 L19.5,31 C21.8763431,30.999515 23.9247314,32.6716687 24.4,35 C24.43,35.14 24.45,35.55 24.47,35.96 Z" id="Shape" fill="#FFDC00"/><ellipse id="Oval" fill="#FFDC00" cx="21.25" cy="9" rx="3.25" ry="3"/><path d="M12.25,20 L4.75,20 C4.3362425,20.001099 4.00109896,20.3362425 4,20.75 L4,22.25 C4.000552,24.3208391 5.67916088,25.999448 7.75,26 L9.25,26 C11.3208391,25.999448 12.999448,24.3208391 13,22.25 L13,20.75 C12.998901,20.3362425 12.6637575,20.001099 12.25,20 Z" id="Shape" fill="#FFEB3A"/><path d="M36.53,15.78 L28.47,15.78 C28.0281722,15.78 27.67,16.1381722 27.67,16.58 L27.67,18.19 C27.6693886,20.146133 29.0736018,21.8202251 31,22.16 C31.2277317,22.2006788 31.4586649,22.2207599 31.69,22.22 L33.31,22.22 C34.3777417,22.2194712 35.4014532,21.7943937 36.1555221,21.0384489 C36.9095911,20.2825041 37.3321239,19.2577397 37.33,18.19 L37.33,16.58 C37.33,16.1381722 36.9718278,15.78 36.53,15.78 Z" id="Shape" fill="#FDD834"/><path d="M33.53,15.78 L28.47,15.78 C28.0281722,15.78 27.67,16.1381722 27.67,16.58 L27.67,18.19 C27.6693886,20.146133 29.0736018,21.8202251 31,22.16 C32.9263982,21.8202251 34.3306114,20.146133 34.33,18.19 L34.33,16.58 C34.33,16.1381722 33.9718278,15.78 33.53,15.78 Z" id="Shape" fill="#FFEB3A"/><path d="M5.529,36.08 C5.36925033,36.0798651 5.2118577,36.04146 5.07,35.968 C0.91,33.815 0.188,29.022 0.16,28.819 C0.15,28.728 0.01,27.378 -3.6760925e-15,25.867 C-0.00186302723,25.6017816 0.101711223,25.3466864 0.287936245,25.1578358 C0.474161268,24.9689853 0.727781473,24.86185 0.993,24.86 L1,24.86 C1.54995006,24.8599901 1.9967003,25.3040598 2,25.854 C2.01,27.268 2.144,28.562 2.145,28.575 C2.146,28.588 2.76,32.521 5.99,34.192 C6.3996772,34.4041472 6.61105146,34.8690248 6.50161748,35.3172056 C6.3921835,35.7653864 5.99034754,36.0805342 5.529,36.08 Z" id="Shape" fill="#000000"/><path d="M4.741,13 C4.66910194,13.0000058 4.59739305,12.9926338 4.527,12.978 C4.26786136,12.921283 4.04187652,12.7639257 3.89877914,12.5405588 C3.75568175,12.3171918 3.70719874,12.0461202 3.764,11.787 C6.169,0.752 19.631,0.047 19.767,0.041 L22.19,0.041 C25.6640645,0.278755829 29.0334817,1.33041409 32.026,3.111 C32.4548496,3.41963023 32.5696016,4.00862433 32.2879789,4.45567383 C32.0063563,4.90272333 31.4255509,5.0535451 30.962,4.8 C28.2740025,3.21584595 25.2582221,2.26988647 22.147,2.035 L19.81,2.035 C19.362,2.057 7.793,2.686 5.718,12.208 C5.61988649,12.6693844 5.21270071,12.9994675 4.741,13 Z" id="Shape" fill="#000000"/><path d="M23.37,56.04 L18.63,56.04 C15.158,56.04 13.785,53.932 12.196,51.491 C11.1524813,49.7669775 9.89814608,48.1797429 8.462,46.766 C4.192,42.707 4.357,38.978 4.517,35.366 L4.531,35.033 C4.571,34.413 4.59,33.804 4.59,33.176 C4.57875524,31.9963497 4.45350612,30.8205484 4.216,29.665 C4.11741717,29.1212757 4.47827566,28.6005828 5.022,28.502 C5.56572434,28.4034172 6.08641717,28.7642757 6.185,29.308 C6.44049314,30.5817616 6.57442788,31.8769105 6.585,33.176 C6.585,33.849 6.564,34.499 6.523,35.141 L6.51,35.455 C6.351,39.045 6.226,41.881 9.835,45.311 C11.3850577,46.8349103 12.7412908,48.5441402 13.873,50.4 C15.516,52.925 16.339,54.041 18.63,54.041 L23.37,54.041 C25.661,54.041 26.484,52.925 28.127,50.4 C29.2577698,48.5457895 30.6126386,46.8379294 32.161,45.315 C35.769,41.886 35.644,39.05 35.485,35.46 L35.471,35.124 C35.431,34.504 35.41,33.854 35.41,33.181 C35.430187,31.7373155 35.5919619,30.2990937 35.893,28.887 C36.081,27.849 36.293,26.672 36.455,25.118 C36.5178886,24.5708976 37.0067074,24.17451 37.555,24.226 C37.8193092,24.2532203 38.0619187,24.384511 38.2292738,24.5908907 C38.396629,24.7972704 38.4749687,25.0617689 38.447,25.326 C38.278,26.957 38.057,28.174 37.861,29.248 C37.5831205,30.5421832 37.4327352,31.860483 37.412,33.184 C37.412,33.812 37.431,34.421 37.47,35.02 L37.485,35.374 C37.645,38.982 37.81,42.711 33.541,46.774 C32.1029531,48.1848777 30.8462758,49.769413 29.8,51.491 C28.215,53.932 26.842,56.04 23.37,56.04 Z" id="Shape" fill="#000000"/><path d="M36.471,36.08 C36.0096525,36.0805342 35.6078165,35.7653864 35.4983825,35.3172056 C35.3889485,34.8690248 35.6003228,34.4041472 36.01,34.192 C39.24,32.521 39.854,28.577 39.859,28.537 C40.078,26.478 40.072,23.789 39.674,23.1 C39.4925156,22.7904296 39.4908167,22.4073505 39.6695481,22.0961826 C39.8482796,21.7850146 40.1800366,21.593469 40.5388817,21.5942579 C40.8977268,21.5950468 41.2286384,21.7880492 41.406,22.1 C42.332,23.7 41.934,27.95 41.844,28.786 C41.812,29.022 41.09,33.815 36.93,35.968 C36.7881423,36.04146 36.6307497,36.0798651 36.471,36.08 Z" id="Shape" fill="#000000"/><path d="M29.487,60 L12.513,60 C10.8561458,60 9.513,58.6568542 9.513,57 L9.513,47.48 C9.513,46.9277153 9.96071525,46.48 10.513,46.48 C11.0652847,46.48 11.513,46.9277153 11.513,47.48 L11.513,57 C11.513,57.5522847 11.9607153,58 12.513,58 L29.487,58 C30.0392847,58 30.487,57.5522847 30.487,57 L30.487,47.48 C30.487,46.9277153 30.9347153,46.48 31.487,46.48 C32.0392847,46.48 32.487,46.9277153 32.487,47.48 L32.487,57 C32.487,58.6568542 31.1438542,60 29.487,60 Z" id="Shape" fill="#000000"/><path d="M21,13 C18.790861,13 17,11.209139 17,9 C17,6.790861 18.790861,5 21,5 C23.209139,5 25,6.790861 25,9 C25,10.060866 24.5785726,11.0782816 23.8284271,11.8284271 C23.0782816,12.5785726 22.060866,13 21,13 Z M21,7 C19.8954305,7 19,7.8954305 19,9 C19,10.1045695 19.8954305,11 21,11 C22.1045695,11 23,10.1045695 23,9 C23,7.8954305 22.1045695,7 21,7 Z" id="Shape" fill="#000000"/><path d="M23,32 L19,32 C18.4477153,32 18,31.5522847 18,31 L18,11.23 C18,10.6777153 18.4477153,10.23 19,10.23 C19.5522847,10.23 20,10.6777153 20,11.23 L20,30 L22,30 L22,11.23 C22,10.6777153 22.4477153,10.23 23,10.23 C23.5522847,10.23 24,10.6777153 24,11.23 L24,31 C24,31.5522847 23.5522847,32 23,32 Z" id="Shape" fill="#000000"/><path d="M28,38 L14,38 C13.4477153,38 13,37.5522847 13,37 L13,36 C13.0033074,32.6876624 15.6876624,30.0033074 19,30 L23,30 C26.3123376,30.0033074 28.9966926,32.6876624 29,36 L29,37 C29,37.5522847 28.5522847,38 28,38 Z M15,36 L27,36 C27,33.790861 25.209139,32 23,32 L19,32 C16.790861,32 15,33.790861 15,36 Z" id="Shape" fill="#000000"/><path d="M10,27 L8,27 C5.23994685,26.9966939 3.00330612,24.7600532 3,22 L3,20 C3,19.4477153 3.44771525,19 4,19 L14,19 C14.5522847,19 15,19.4477153 15,20 L15,22 C14.9966939,24.7600532 12.7600532,26.9966939 10,27 Z M5,21 L5,22 C5,23.6568542 6.34314575,25 8,25 L10,25 C11.6568542,25 13,23.6568542 13,22 L13,21 L5,21 Z" id="Shape" fill="#000000"/><path d="M14,21 C13.6363956,21.0001766 13.3013481,20.8029773 13.125,20.485 L9,13.06 L4.874,20.485 C4.70681146,20.8088027 4.37671534,21.0160217 4.01243034,21.0258532 C3.64814535,21.0356848 3.30735279,20.8465722 3.12294237,20.5322586 C2.93853195,20.2179451 2.93970343,19.8281993 3.126,19.515 L8.126,10.515 C8.31750308,10.2180645 8.64666709,10.0386701 9,10.0386701 C9.35333291,10.0386701 9.68249692,10.2180645 9.874,10.515 L14.874,19.515 C15.1415913,19.9977274 14.9674866,20.6059748 14.485,20.874 C14.3368985,20.9571077 14.1698254,21.0005123 14,21 Z" id="Shape" fill="#000000"/><path d="M9,12 C8.48067098,11.9985857 8.04885547,11.5998709 8.00611561,11.0823016 C7.96337575,10.5647324 8.32393776,10.1005846 8.836,10.014 L17.876,8.504 C18.2284425,8.44505118 18.5855616,8.57860606 18.8128341,8.85435581 C19.0401065,9.13010556 19.1030041,9.50615723 18.9778341,9.84085581 C18.852664,10.1755544 18.5584425,10.4180512 18.206,10.477 L9.166,11.986 C9.1111914,11.9955808 9.05563904,12.0002659 9,12 Z" id="Shape" fill="#000000"/><path d="M23.959,9.51 C23.4383052,9.50910895 23.0054309,9.10880305 22.9638976,8.58976663 C22.9223642,8.0707302 23.2860728,7.60668163 23.8,7.523 L32.84,6.014 C33.3774655,5.9373044 33.877947,6.30345923 33.9675532,6.83892366 C34.0571593,7.37438809 33.7031533,7.88353526 33.17,7.986 L24.125,9.5 C24.0700719,9.50824154 24.0145203,9.51158802 23.959,9.51 Z" id="Shape" fill="#000000"/><path d="M34,23 L32,23 C29.2399468,22.9966939 27.0033061,20.7600532 27,18 L27,16 C27,15.4477153 27.4477153,15 28,15 L38,15 C38.5522847,15 39,15.4477153 39,16 L39,18 C38.9966939,20.7600532 36.7600532,22.9966939 34,23 Z M29,17 L29,18 C29,19.6568542 30.3431458,21 32,21 L34,21 C35.6568542,21 37,19.6568542 37,18 L37,17 L29,17 Z" id="Shape" fill="#000000"/><path d="M38,17 C37.6363956,17.0001766 37.3013481,16.8029773 37.125,16.485 L33,9.06 L28.874,16.485 C28.597631,16.9496279 28.0020358,17.1104896 27.5293303,16.8481759 C27.0566248,16.5858622 26.8779775,15.995358 27.126,15.515 L32.126,6.515 C32.3175031,6.21806446 32.6466671,6.03867012 33,6.03867012 C33.3533329,6.03867012 33.6824969,6.21806446 33.874,6.515 L38.874,15.515 C39.1415913,15.9977274 38.9674866,16.6059748 38.485,16.874 C38.3368985,16.9571077 38.1698254,17.0005123 38,17 Z" id="Shape" fill="#000000"/></g></g></svg>
