<?xml version="1.0" encoding="UTF-8"?>
<svg xmlns="http://www.w3.org/2000/svg" xmlns:xlink="http://www.w3.org/1999/xlink" width="512" height="512" viewBox="0 0 48 60" version="1.1"><!-- Generator: Sketch 51.3 (57544) - http://www.bohemiancoding.com/sketch --><title>060 - Mind Map</title><desc>Created with Sketch.</desc><defs/><g id="Page-1" stroke="none" stroke-width="1" fill="none" fill-rule="evenodd"><g id="060---Mind-Map" fill-rule="nonzero"><path d="M43.208,22.26 C41.938,21.61 40.667,23.54 40.667,23.54 L40.588,23.53 C40.7509709,20.5355491 40.7509709,17.5344509 40.588,14.54 C40,1.68 25.188,1.04 25.188,1.04 L22.807,1.04 C22.807,1.04 7.997,1.68 7.407,14.54 C7.24402908,17.5344509 7.24402908,20.5355491 7.407,23.53 L7.328,23.54 C7.328,23.54 6.057,21.61 4.787,22.26 C3.528,22.89 4.148,28.68 4.148,28.68 C4.148,28.68 4.778,33.14 8.528,35.08 C8.367,38.8 8.088,42.18 12.148,46.04 C12.6300751,46.4951694 13.0873982,46.9758594 13.518,47.48 L13.518,57 C13.5179862,58.100676 14.4073377,58.9944966 15.508,59 L32.487,59 C33.5876623,58.9944966 34.4770138,58.100676 34.477,57 L34.477,47.48 C34.9076018,46.9758594 35.3649249,46.4951694 35.847,46.04 C39.907,42.18 39.628,38.8 39.467,35.08 C43.217,33.14 43.847,28.68 43.847,28.68 C43.847,28.68 44.467,22.89 43.208,22.26 Z" id="Shape" fill="#F0C419"/><path d="M40.59,23.53 C40.27,28.49 39.41,30.06 39.41,33.18 C39.41,33.83 39.43,34.46 39.47,35.08 C39.63,38.8 39.91,42.18 35.85,46.04 C35.3674124,46.4946547 34.9100622,46.9753732 34.48,47.48 C31.06,51.45 30.6,55.04 26.37,55.04 L21.63,55.04 C17.4,55.04 16.94,51.45 13.52,47.48 C13.0899378,46.9753732 12.6325876,46.4946547 12.15,46.04 C8.09,42.18 8.37,38.8 8.53,35.08 C8.57,34.46 8.59,33.83 8.59,33.18 C8.59,30.06 7.73,28.49 7.41,23.53 C7.2465184,20.535563 7.2465184,17.534437 7.41,14.54 C7.95,2.79 20.37,1.24 22.5,1.06 C22.7,1.04 22.81,1.04 22.81,1.04 L25.19,1.04 C25.19,1.04 40,1.68 40.59,14.54 C40.7534816,17.534437 40.7534816,20.535563 40.59,23.53 Z" id="Shape" fill="#FEC108"/><path d="M37.59,23.53 C37.27,28.49 36.41,30.06 36.41,33.18 C36.41,33.83 36.43,34.46 36.47,35.08 C36.63,38.8 36.91,42.18 32.85,46.04 C32.3674124,46.4946547 31.9100622,46.9753732 31.48,47.48 C28.06,51.45 27.6,55.04 23.37,55.04 L21.63,55.04 C17.4,55.04 16.94,51.45 13.52,47.48 C13.0899378,46.9753732 12.6325876,46.4946547 12.15,46.04 C8.09,42.18 8.37,38.8 8.53,35.08 C8.57,34.46 8.59,33.83 8.59,33.18 C8.59,30.06 7.73,28.49 7.41,23.53 C7.2465184,20.535563 7.2465184,17.534437 7.41,14.54 C7.95,2.79 20.37,1.24 22.5,1.06 C24.63,1.24 37.05,2.79 37.59,14.54 C37.7534816,17.534437 37.7534816,20.535563 37.59,23.53 Z" id="Shape" fill="#FFDC00"/><path d="M8.588,33.18 C8.588,33.83 8.567,34.46 8.528,35.08 C4.778,33.14 4.148,28.68 4.148,28.68 C4.148,28.68 3.528,22.89 4.787,22.26 C6.057,21.61 7.328,23.54 7.328,23.54 L7.407,23.53 C7.727,28.49 8.588,30.06 8.588,33.18 Z" id="Shape" fill="#F0C419"/><path d="M43.847,28.68 C43.847,28.68 43.217,33.14 39.467,35.08 C39.427,34.46 39.407,33.83 39.407,33.18 C39.407,30.06 40.268,28.49 40.588,23.53 L40.667,23.54 C40.667,23.54 41.937,21.61 43.208,22.26 C44.467,22.89 43.847,28.68 43.847,28.68 Z" id="Shape" fill="#FEC108"/><path d="M34.477,47.48 L34.477,57 C34.4770138,58.100676 33.5876623,58.9944966 32.487,59 L15.508,59 C14.4073377,58.9944966 13.5179862,58.100676 13.518,57 L13.518,47.48 C16.937,51.45 17.398,55.04 21.627,55.04 L26.367,55.04 C30.6,55.04 31.057,51.45 34.477,47.48 Z" id="Shape" fill="#FEC108"/><path d="M33,20 C33,24.418278 29.418278,28 25,28 C24.4967634,27.99946 23.9946448,27.9525956 23.5,27.86 C19.7235972,27.1440687 16.9901007,23.843667 16.9901007,20 C16.9901007,16.156333 19.7235972,12.8559313 23.5,12.14 C23.9946448,12.0474044 24.4967634,12.00054 25,12 C29.418278,12 33,15.581722 33,20 Z" id="Shape" fill="#BB193B"/><ellipse id="Oval" fill="#EF314C" cx="23.5" cy="20" rx="6.5" ry="7.86"/><path d="M44,8 C44,10.7614237 41.7614237,13 39,13 C38.4920766,12.9984453 37.986978,12.9243642 37.5,12.78 C35.4160564,12.1199968 33.9998679,10.185961 33.9998679,8 C33.9998679,5.81403904 35.4160564,3.88000321 37.5,3.22 C37.986978,3.07563582 38.4920766,3.00155469 39,3 C41.7614237,3 44,5.23857625 44,8 Z" id="Shape" fill="#0377BC"/><ellipse id="Oval" fill="#02A9F4" cx="37.5" cy="8" rx="3.5" ry="4.78"/><path d="M46,37 C46,39.209139 44.209139,41 42,41 C41.6622628,41.0030533 41.3257307,40.9593041 41,40.87 C39.2395597,40.4098818 38.0114841,38.8195766 38.0114841,37 C38.0114841,35.1804234 39.2395597,33.5901182 41,33.13 C41.3257307,33.0406959 41.6622628,32.9969467 42,33 C43.060866,33 44.0782816,33.4214274 44.8284271,34.1715729 C45.5785726,34.9217184 46,35.939134 46,37 Z" id="Shape" fill="#AD1457"/><ellipse id="Oval" fill="#E91E63" cx="41" cy="37" rx="3" ry="3.87"/><circle id="Oval" fill="#02A9F4" cx="20" cy="38" r="3"/><circle id="Oval" fill="#E91E63" cx="6" cy="28" r="5"/><circle id="Oval" fill="#02A9F4" cx="18" cy="5" r="4"/><path d="M4.15,24.585 C3.59771525,24.585 3.15,24.1372847 3.15,23.585 L3.15,23.575 C3.15275816,23.0233745 3.60168737,22.5781691 4.15331667,22.5800055 C4.70494598,22.581842 5.15090092,23.0300267 5.14998612,23.5816583 C5.14907133,24.1332899 4.70163236,24.5799931 4.15,24.58 L4.15,24.585 Z" id="Shape" fill="#000000"/><path d="M26.37,56.04 L21.63,56.04 C18.158,56.04 16.785,53.932 15.196,51.491 C14.1524813,49.7669775 12.8981461,48.1797429 11.462,46.766 C7.192,42.707 7.357,38.978 7.517,35.366 L7.531,35.033 C7.571,34.413 7.59,33.804 7.59,33.176 C7.59,32.976 7.59,32.776 7.581,32.595 C7.56313672,32.2377344 7.73722929,31.8980774 8.03769872,31.7039746 C8.33816816,31.5098717 8.71936601,31.4908118 9.03769873,31.6539746 C9.35603145,31.8171373 9.56313673,32.1377344 9.581,32.495 C9.592,32.711 9.592,32.937 9.592,33.174 C9.592,33.847 9.571,34.497 9.53,35.139 L9.517,35.453 C9.358,39.043 9.233,41.879 12.842,45.309 C14.3897296,46.8339392 15.7436028,48.5438297 16.873,50.4 C18.516,52.925 19.339,54.041 21.63,54.041 L26.37,54.041 C28.661,54.041 29.484,52.925 31.127,50.4 C32.2577698,48.5457895 33.6126386,46.8379294 35.161,45.315 C36.9255289,43.8061017 38.0862871,41.7111267 38.43,39.415 C38.5230881,38.8854145 39.0182945,38.5242464 39.5509961,38.5974256 C40.0836977,38.6706049 40.4631675,39.1519305 40.41,39.687 C40.0035201,42.4324726 38.6304885,44.9427233 36.538,46.766 C35.100704,48.1797367 33.8450435,49.766948 32.8,51.491 C31.215,53.932 29.842,56.04 26.37,56.04 Z" id="Shape" fill="#000000"/><path d="M39.439,35.43 C38.928613,35.4293574 38.500611,35.0444573 38.446,34.537 C38.4334147,34.395031 38.4280744,34.2525127 38.43,34.11 C38.42,33.818 38.41,33.5 38.41,33.18 C38.4299738,31.7383385 38.5914145,30.3021188 38.892,28.892 C39.24077,27.100106 39.4745805,25.2877402 39.592,23.466 C39.7526439,20.5081796 39.7526439,17.5438204 39.592,14.586 C39.5676143,14.0758041 39.5175509,13.56716 39.442,13.062 C39.370608,12.5218878 39.7447057,12.0240145 40.2833495,11.942278 C40.8219933,11.8605414 41.326949,12.2250227 41.419,12.762 C41.5050336,13.3350917 41.5621061,13.9121582 41.59,14.491 C41.7542399,17.5247788 41.7542399,20.5652212 41.59,23.599 C41.467973,25.4976299 41.2244746,27.3864957 40.861,29.254 C40.5832879,30.5461833 40.4329022,31.8624763 40.412,33.184 C40.412,33.484 40.422,33.784 40.431,34.084 C40.431,34.191 40.431,34.264 40.437,34.33 C40.4677892,34.6133718 40.3761882,34.8964155 40.1852116,35.1080177 C39.9942349,35.3196198 39.7220347,35.4396678 39.437,35.438 L39.439,35.43 Z" id="Shape" fill="#000000"/><path d="M7.389,24.08 C6.85968599,24.0809857 6.42128729,23.6693293 6.389,23.141 C6.24321843,20.2603393 6.24956058,17.3739923 6.408,14.494 C6.52906272,9.19616243 9.67865633,4.43755421 14.508,2.256 C14.998708,2.02997545 15.5802178,2.2345738 15.821289,2.71806748 C16.0623602,3.20156117 15.8758181,3.78911213 15.4,4.045 C11.2100712,5.89164527 8.47702836,10.0068269 8.4,14.585 C8.2450201,17.394351 8.2380104,20.2099121 8.379,23.02 C8.41202524,23.5711415 7.99212841,24.0447565 7.441,24.078 L7.389,24.08 Z" id="Shape" fill="#000000"/><path d="M35.669,5.79 C35.447749,5.7902751 35.2327304,5.71672536 35.058,5.581 C32.1359691,3.52402885 28.7099035,2.29974271 25.146,2.039 L22.811,2.039 C22.001187,2.1017731 21.195786,2.21229869 20.399,2.37 C19.8694823,2.44814471 19.3723219,2.09548365 19.271062,1.56989631 C19.1698021,1.04430898 19.5003516,0.532180876 20.021,0.408 C20.9256473,0.225793991 21.8412843,0.103196838 22.762,0.041 L25.19,0.041 C29.1835272,0.303633109 33.0247085,1.67464256 36.282,4 C36.6204822,4.26180582 36.7548718,4.70996616 36.6163019,5.11482527 C36.477732,5.51968438 36.0969162,5.79150698 35.669,5.791 L35.669,5.79 Z" id="Shape" fill="#000000"/><path d="M41.909,34.05 C41.525774,34.0493066 41.1766498,33.8296634 41.0101376,33.4845021 C40.8436255,33.1393408 40.8890157,32.7293766 41.127,32.429 C42.0048657,31.288537 42.5985705,29.9554435 42.859,28.54 C43.108,26.201 43.031,23.727 42.695,23.134 C42.385,23.097 41.795,23.657 41.503,24.093 C41.1889768,24.5263156 40.5894779,24.6356168 40.1427382,24.3410043 C39.6959984,24.0463918 39.5603711,23.452295 39.835,22.993 C40.489,21.998 42.035,20.54 43.665,21.372 C45.212,22.146 45.16,25.833 44.844,28.789 C44.5352772,30.5681334 43.7969038,32.2450067 42.693,33.674 C42.5026812,33.9123349 42.2139986,34.0507848 41.909,34.05 Z" id="Shape" fill="#000000"/><path d="M32.487,60 L15.513,60 C13.8561458,60 12.513,58.6568542 12.513,57 L12.513,47.48 C12.513,46.9277153 12.9607153,46.48 13.513,46.48 C14.0652847,46.48 14.513,46.9277153 14.513,47.48 L14.513,57 C14.513,57.5522847 14.9607153,58 15.513,58 L32.487,58 C33.0392847,58 33.487,57.5522847 33.487,57 L33.487,47.48 C33.487,46.9277153 33.9347153,46.48 34.487,46.48 C35.0392847,46.48 35.487,46.9277153 35.487,47.48 L35.487,57 C35.487,58.6568542 34.1438542,60 32.487,60 Z" id="Shape" fill="#000000"/><path d="M24.5,29 C19.5294373,29 15.5,24.9705627 15.5,20 C15.5,15.0294373 19.5294373,11 24.5,11 C29.4705627,11 33.5,15.0294373 33.5,20 C33.4944889,24.9682782 29.4682782,28.9944889 24.5,29 Z M24.5,13 C20.6340068,13 17.5,16.1340068 17.5,20 C17.5,23.8659932 20.6340068,27 24.5,27 C28.3659932,27 31.5,23.8659932 31.5,20 C31.4950416,16.1360624 28.3639376,13.0049584 24.5,13 Z" id="Shape" fill="#000000"/><path d="M20.5,21 C19.9477153,21 19.5,20.5522847 19.5,20 C19.5033061,17.2399468 21.7399468,15.0033061 24.5,15 C25.0522847,15 25.5,15.4477153 25.5,16 C25.5,16.5522847 25.0522847,17 24.5,17 C22.8431458,17 21.5,18.3431458 21.5,20 C21.5,20.5522847 21.0522847,21 20.5,21 Z" id="Shape" fill="#000000"/><path d="M39.5,14 C37.0732265,14 34.8854088,12.5381469 33.9567228,10.2961006 C33.0280368,8.05405426 33.5413713,5.47334729 35.2573593,3.75735931 C36.9733473,2.04137134 39.5540543,1.5280368 41.7961006,2.4567228 C44.0381469,3.38540881 45.5,5.57322653 45.5,8 C45.4966926,11.3123376 42.8123376,13.9966926 39.5,14 Z M39.5,4 C37.290861,4 35.5,5.790861 35.5,8 C35.5,10.209139 37.290861,12 39.5,12 C41.709139,12 43.5,10.209139 43.5,8 C43.5,6.93913404 43.0785726,5.92171839 42.3284271,5.17157288 C41.5782816,4.42142736 40.560866,4 39.5,4 Z" id="Shape" fill="#000000"/><path d="M42.5,42 C39.7385763,42 37.5,39.7614237 37.5,37 C37.5,34.2385763 39.7385763,32 42.5,32 C45.2614237,32 47.5,34.2385763 47.5,37 C47.4966939,39.7600532 45.2600532,41.9966939 42.5,42 Z M42.5,34 C40.8431458,34 39.5,35.3431458 39.5,37 C39.5,38.6568542 40.8431458,40 42.5,40 C44.1568542,40 45.5,38.6568542 45.5,37 C45.5,35.3431458 44.1568542,34 42.5,34 Z" id="Shape" fill="#000000"/><path d="M20.5,42 C18.290861,42 16.5,40.209139 16.5,38 C16.5,35.790861 18.290861,34 20.5,34 C22.709139,34 24.5,35.790861 24.5,38 C24.5,40.209139 22.709139,42 20.5,42 Z M20.5,36 C19.3954305,36 18.5,36.8954305 18.5,38 C18.5,39.1045695 19.3954305,40 20.5,40 C21.6045695,40 22.5,39.1045695 22.5,38 C22.5,36.8954305 21.6045695,36 20.5,36 Z" id="Shape" fill="#000000"/><path d="M6.5,34 C3.1862915,34 0.5,31.3137085 0.5,28 C0.5,24.6862915 3.1862915,22 6.5,22 C9.8137085,22 12.5,24.6862915 12.5,28 C12.4966926,31.3123376 9.81233757,33.9966926 6.5,34 Z M6.5,24 C4.290861,24 2.5,25.790861 2.5,28 C2.5,30.209139 4.290861,32 6.5,32 C8.709139,32 10.5,30.209139 10.5,28 C10.5,25.790861 8.709139,24 6.5,24 Z" id="Shape" fill="#000000"/><path d="M18.5,10 C15.7385763,10 13.5,7.76142375 13.5,5 C13.5,2.23857625 15.7385763,5.07265313e-16 18.5,0 C21.2614237,-5.07265313e-16 23.5,2.23857625 23.5,5 C23.4966939,7.76005315 21.2600532,9.99669388 18.5,10 Z M18.5,2 C16.8431458,2 15.5,3.34314575 15.5,5 C15.5,6.65685425 16.8431458,8 18.5,8 C20.1568542,8 21.5,6.65685425 21.5,5 C21.5,3.34314575 20.1568542,2 18.5,2 Z" id="Shape" fill="#000000"/><path d="M21.53,13.57 C21.1220308,13.5696608 20.7551724,13.3215268 20.603,12.943 L19.053,9.083 C18.9091801,8.74951203 18.9574725,8.36426472 19.1791572,8.07659429 C19.4008419,7.78892386 19.761066,7.64405747 20.1201931,7.69815074 C20.4793202,7.75224401 20.780889,7.99679246 20.908,8.337 L22.458,12.197 C22.5818959,12.505189 22.5446779,12.8547836 22.3586744,13.1299806 C22.1726709,13.4051775 21.8621606,13.570056 21.53,13.57 Z" id="Shape" fill="#000000"/><path d="M30.751,16 C30.3260033,16.0006249 29.9470392,15.7325525 29.8061098,15.3316018 C29.6651805,14.930651 29.7930767,14.4844234 30.125,14.219 L34.975,10.339 C35.2540244,10.115709 35.630978,10.0582373 35.9638659,10.1882341 C36.2967538,10.3182308 36.5350024,10.6159464 36.5888659,10.9692341 C36.6427293,11.3225219 36.5040244,11.677709 36.225,11.901 L31.375,15.781 C31.1980919,15.9230803 30.977899,16.0003595 30.751,16 Z" id="Shape" fill="#000000"/><path d="M39.59,35.26 C39.3340525,35.2600781 39.0878179,35.1620137 38.902,34.986 L29.633,26.217 C29.3734465,25.9713799 29.264646,25.6059475 29.3475825,25.2583575 C29.430519,24.9107676 29.6925926,24.6338273 30.0350825,24.5318575 C30.3775725,24.4298877 30.7484466,24.5183799 31.008,24.764 L40.277,33.533 C40.5748732,33.8143354 40.6709898,34.2489153 40.5195426,34.6296276 C40.3680954,35.0103398 39.9997292,35.2601486 39.59,35.26 Z" id="Shape" fill="#000000"/><path d="M21.151,36.07 C21.0780764,36.0696656 21.0053734,36.0619597 20.934,36.047 C20.6749871,35.9896319 20.4493844,35.8316939 20.3068474,35.6079484 C20.1643105,35.3842029 20.1165219,35.1129886 20.174,34.854 L21.783,27.593 C21.860348,27.2441301 22.1179403,26.9630258 22.4587445,26.8555762 C22.7995487,26.7481266 23.1717884,26.8306559 23.4352445,27.0720762 C23.6987007,27.3134964 23.813348,27.6771301 23.736,28.026 L22.127,35.287 C22.0253121,35.7444415 21.6196077,36.0699196 21.151,36.07 Z" id="Shape" fill="#000000"/><path d="M11.071,26.97 C10.5983905,26.9706086 10.1898817,26.6402681 10.091582,26.177994 C9.99328239,25.71572 10.2320341,25.2477437 10.664,25.056 L16.784,22.336 C17.2887883,22.1114962 17.8799962,22.3387117 18.1045,22.8435 C18.3290038,23.3482883 18.1017883,23.9394962 17.597,24.164 L11.477,26.884 C11.3490698,26.9404338 11.2108243,26.9697173 11.071,26.97 Z" id="Shape" fill="#000000"/></g></g></svg>
