<?xml version="1.0" encoding="UTF-8"?>
<svg xmlns="http://www.w3.org/2000/svg" xmlns:xlink="http://www.w3.org/1999/xlink" width="512" height="512" viewBox="0 0 62 60" version="1.1"><!-- Generator: Sketch 51.3 (57544) - http://www.bohemiancoding.com/sketch --><title>061 - Learning</title><desc>Created with Sketch.</desc><defs/><g id="Page-1" stroke="none" stroke-width="1" fill="none" fill-rule="evenodd"><g id="061---Learning" fill-rule="nonzero"><path d="M59.213,22.22 C57.943,21.57 56.672,23.5 56.672,23.5 L56.593,23.49 C56.7559709,20.4955491 56.7559709,17.4944509 56.593,14.5 C56,1.64 41.193,1 41.193,1 L38.812,1 C36.0859428,1.20934799 33.4229586,1.92596615 30.96,3.113 C28.5186807,1.94945606 25.8835087,1.24667573 23.187,1.04 L20.807,1.04 C20.807,1.04 6,1.68 5.407,14.54 C5.24402908,17.5344509 5.24402908,20.5355491 5.407,23.53 L5.328,23.54 C5.328,23.54 4.057,21.61 2.787,22.26 C1.528,22.89 2.148,28.68 2.148,28.68 C2.148,28.68 2.778,33.14 6.528,35.08 C6.367,38.8 6.088,42.18 10.148,46.04 C10.6300751,46.4951694 11.0873982,46.9758594 11.518,47.48 L11.518,57 C11.5179862,58.100676 12.4073377,58.9944966 13.508,59 L30.487,59 C30.6832883,58.9960853 30.8778421,58.9623671 31.064,58.9 C31.2109996,58.9359555 31.3616721,58.9547476 31.513,58.956 L48.492,58.956 C49.5926623,58.9504966 50.4820138,58.056676 50.482,56.956 L50.482,47.44 C50.9126018,46.9358594 51.3699249,46.4551694 51.852,46 C55.912,42.14 55.633,38.76 55.472,35.04 C59.222,33.1 59.852,28.64 59.852,28.64 C59.852,28.64 60.472,22.85 59.213,22.22 Z" id="Shape" fill="#B0D3F0"/><path d="M56.59,23.49 C56.27,28.45 55.41,30.02 55.41,33.14 C55.41,33.79 55.43,34.42 55.47,35.04 C55.63,38.76 55.91,42.14 51.85,46 C51.3674124,46.4546547 50.9100622,46.9353732 50.48,47.44 C47.06,51.41 46.6,55 42.37,55 L37.63,55 C33.4,55 32.94,51.41 29.52,47.44 C29.0899378,46.9353732 28.6325876,46.4546547 28.15,46 C24.09,42.14 24.37,38.76 24.53,35.04 C24.57,34.42 24.59,33.79 24.59,33.14 C24.59,30.02 23.73,28.45 23.41,23.49 C23.2465184,20.495563 23.2465184,17.494437 23.41,14.5 C23.95,2.75 36.37,1.2 38.5,1.02 C38.7,1 38.81,1 38.81,1 L41.19,1 C41.19,1 56,1.64 56.59,14.5 C56.7534816,17.494437 56.7534816,20.495563 56.59,23.49 Z" id="Shape" fill="#0377BC"/><path d="M53.59,23.49 C53.27,28.45 52.41,30.02 52.41,33.14 C52.41,33.79 52.43,34.42 52.47,35.04 C52.63,38.76 52.91,42.14 48.85,46 C48.3674124,46.4546547 47.9100622,46.9353732 47.48,47.44 C44.06,51.41 43.6,55 39.37,55 L37.63,55 C33.4,55 32.94,51.41 29.52,47.44 C29.0899378,46.9353732 28.6325876,46.4546547 28.15,46 C24.09,42.14 24.37,38.76 24.53,35.04 C24.57,34.42 24.59,33.79 24.59,33.14 C24.59,30.02 23.73,28.45 23.41,23.49 C23.2465184,20.495563 23.2465184,17.494437 23.41,14.5 C23.95,2.75 36.37,1.2 38.5,1.02 C40.63,1.2 53.05,2.75 53.59,14.5 C53.7534816,17.494437 53.7534816,20.495563 53.59,23.49 Z" id="Shape" fill="#02A9F4"/><path d="M59.852,28.64 C59.852,28.64 59.222,33.1 55.472,35.04 C55.433,34.42 55.412,33.79 55.412,33.14 C55.412,30.02 56.273,28.45 56.593,23.49 L56.672,23.5 C56.672,23.5 57.943,21.57 59.213,22.22 C60.472,22.85 59.852,28.64 59.852,28.64 Z" id="Shape" fill="#3F51B5"/><path d="M50.482,47.44 L50.482,56.96 C50.4820138,58.060676 49.5926623,58.9544966 48.492,58.96 L31.513,58.96 C30.4123377,58.9544966 29.5229862,58.060676 29.523,56.96 L29.523,47.44 C32.943,51.41 33.403,55 37.633,55 L42.373,55 C46.6,55 47.063,51.41 50.482,47.44 Z" id="Shape" fill="#3F51B5"/><path d="M48,14.04 C48,18.458278 44.418278,22.04 40,22.04 C39.551121,22.0389748 39.103037,22.0021918 38.66,21.93 L38.65,21.87 L36.01,7.11 C36.7846963,6.66075061 37.6300401,6.3462827 38.51,6.18 C39.0012821,6.08745274 39.5000772,6.04058609 40,6.04 C44.418278,6.04 48,9.621722 48,14.04 Z" id="Shape" fill="#6A1B9A"/><path d="M45,14.04 C45.0009483,17.8231154 42.351776,21.0897326 38.65,21.87 L36.01,7.11 C36.7846963,6.66075061 37.6300401,6.3462827 38.51,6.18 C42.2772033,6.90649362 44.9994458,10.2033851 45,14.04 Z" id="Shape" fill="#9D27B0"/><path d="M6.588,33.18 C6.588,33.83 6.567,34.46 6.528,35.08 C2.778,33.14 2.148,28.68 2.148,28.68 C2.148,28.68 1.528,22.89 2.787,22.26 C4.057,21.61 5.328,23.54 5.328,23.54 L5.407,23.53 C5.727,28.49 6.588,30.06 6.588,33.18 Z" id="Shape" fill="#FF9801"/><path d="M38.59,23.53 C38.27,28.49 37.41,30.06 37.41,33.18 C37.41,33.83 37.43,34.46 37.47,35.08 C37.63,38.8 37.91,42.18 33.85,46.04 C33.3674124,46.4946547 32.9100622,46.9753732 32.48,47.48 C29.06,51.45 28.6,55.04 24.37,55.04 L19.63,55.04 C15.4,55.04 14.94,51.45 11.52,47.48 C11.0899378,46.9753732 10.6325876,46.4946547 10.15,46.04 C6.09,42.18 6.37,38.8 6.53,35.08 C6.57,34.46 6.59,33.83 6.59,33.18 C6.59,30.06 5.73,28.49 5.41,23.53 C5.2465184,20.535563 5.2465184,17.534437 5.41,14.54 C5.95,2.79 18.37,1.24 20.5,1.06 C20.7,1.04 20.81,1.04 20.81,1.04 L23.19,1.04 C23.19,1.04 38,1.68 38.59,14.54 C38.7534816,17.534437 38.7534816,20.535563 38.59,23.53 Z" id="Shape" fill="#FEC108"/><path d="M35.59,23.53 C35.27,28.49 34.41,30.06 34.41,33.18 C34.41,33.83 34.43,34.46 34.47,35.08 C34.63,38.8 34.91,42.18 30.85,46.04 C30.3674124,46.4946547 29.9100622,46.9753732 29.48,47.48 C26.06,51.45 25.6,55.04 21.37,55.04 L19.63,55.04 C15.4,55.04 14.94,51.45 11.52,47.48 C11.0899378,46.9753732 10.6325876,46.4946547 10.15,46.04 C6.09,42.18 6.37,38.8 6.53,35.08 C6.57,34.46 6.59,33.83 6.59,33.18 C6.59,30.06 5.73,28.49 5.41,23.53 C5.2465184,20.535563 5.2465184,17.534437 5.41,14.54 C5.95,2.79 18.37,1.24 20.5,1.06 C22.63,1.24 35.05,2.79 35.59,14.54 C35.7534816,17.534437 35.7534816,20.535563 35.59,23.53 Z" id="Shape" fill="#FFDC00"/><path d="M41.847,28.68 C41.847,28.68 41.217,33.14 37.467,35.08 C37.427,34.46 37.407,33.83 37.407,33.18 C37.407,30.06 38.268,28.49 38.588,23.53 L38.667,23.54 C38.667,23.54 39.937,21.61 41.208,22.26 C42.467,22.89 41.847,28.68 41.847,28.68 Z" id="Shape" fill="#FF9801"/><path d="M32.477,47.48 L32.477,57 C32.4770138,58.100676 31.5876623,58.9944966 30.487,59 L13.508,59 C12.4073377,58.9944966 11.5179862,58.100676 11.518,57 L11.518,47.48 C14.937,51.45 15.398,55.04 19.627,55.04 L24.367,55.04 C28.6,55.04 29.057,51.45 32.477,47.48 Z" id="Shape" fill="#FF9801"/><path d="M27.52,19.83 C24.358124,22.8447031 19.362443,22.7653547 16.2979052,19.6517551 C13.2333674,16.5381556 13.2333674,11.5418444 16.2979052,8.42824486 C19.362443,5.31464527 24.358124,5.23529694 27.52,8.25 L27.52,19.83 Z" id="Shape" fill="#673AB7"/><path d="M41,17.04 L31,17.04 C30.4477153,17.04 30,17.4877153 30,18.04 L30,19.813 C30.0001053,20.2067523 29.7691359,20.5639145 29.41,20.725353 C29.0508642,20.8867914 28.6304215,20.8224516 28.336,20.561 L21.841,14.787 C21.6277889,14.5972439 21.505824,14.3254231 21.505824,14.04 C21.505824,13.7545769 21.6277889,13.4827561 21.841,13.293 L28.336,7.519 C28.6304215,7.25754842 29.0508642,7.19320855 29.41,7.35464701 C29.7691359,7.51608547 30.0001053,7.87324765 30,8.267 L30,10.04 C30,10.5922847 30.4477153,11.04 31,11.04 L41,11.04" id="Shape" fill="#9D27B0"/><path d="M6.476,36.076 C6.31694817,36.0763626 6.1601645,36.0382817 6.019,35.965 C1.848,33.813 1.132,29.026 1.1,28.823 C0.777,25.835 0.724,22.146 2.277,21.364 C3.909,20.538 5.451,21.996 6.105,22.988 C6.31602577,23.2860753 6.34777195,23.6754852 6.18781229,24.0038047 C6.02785263,24.3321242 5.70163094,24.5471295 5.33683868,24.5646621 C4.97204643,24.5821947 4.6267089,24.3994657 4.436,24.088 C4.145,23.654 3.563,23.088 3.243,23.129 C2.906,23.72 2.829,26.199 3.084,28.575 C3.084,28.575 3.695,32.517 6.932,34.186 C7.34151073,34.3980617 7.55290029,34.8626656 7.44373467,35.3107193 C7.33456905,35.7587729 6.93316073,36.0740722 6.472,36.074 L6.476,36.076 Z" id="Shape" fill="#000000"/><path d="M24.34,56.04 L19.6,56.04 C16.123,56.04 14.748,53.933 13.156,51.492 C12.1083945,49.7677922 10.8507759,48.1803174 9.412,46.766 C5.136,42.715 5.307,38.983 5.473,35.375 C5.506,34.657 5.54,33.928 5.54,33.175 C5.51892741,31.8477619 5.36787257,30.5257809 5.089,29.228 C4.612,26.606 3.96,23.016 4.351,14.489 C4.976,0.878 20.579,0.048 20.737,0.041 L23.16,0.041 C23.723,0.064 35.969,0.708 38.968,10.755 C39.1126791,11.2795224 38.8114346,11.8234615 38.2900624,11.9791112 C37.7686902,12.134761 37.2185519,11.8449926 37.052,11.327 C34.463,2.652 23.229,2.044 23.116,2.039 L20.78,2.039 C20.255,2.063 6.889,2.804 6.349,14.585 C5.968,22.885 6.572,26.206 7.057,28.875 C7.35763593,30.2891859 7.51940414,31.7293584 7.54,33.175 C7.54,33.954 7.505,34.714 7.471,35.462 C7.306,39.052 7.176,41.888 10.788,45.309 C12.3403475,46.8328763 13.6983165,48.542849 14.831,50.4 C16.362,52.748 17.206,54.041 19.6,54.041 L24.34,54.041 C26.734,54.041 27.578,52.748 29.109,50.4 C30.2420909,48.5449533 31.6000449,46.8370147 33.152,45.315 C36.764,41.894 36.634,39.058 36.469,35.468 C36.435,34.72 36.4,33.96 36.4,33.181 C36.4203903,31.7333626 36.5821587,30.2911795 36.883,28.875 C37.6129473,24.9834631 37.881468,21.019427 37.683,17.065 C37.6744256,16.7077344 37.8571015,16.373033 38.1622154,16.1869746 C38.4673293,16.0009162 38.8485271,15.9917674 39.1622154,16.1629746 C39.4759037,16.3341818 39.6744256,16.6597344 39.683,17.017 C39.8878862,21.1067669 39.6096303,25.2064261 38.854,29.231 C38.5751292,30.5297948 38.4240755,31.8527708 38.403,33.181 C38.403,33.929 38.437,34.658 38.47,35.381 C38.636,38.989 38.807,42.721 34.531,46.772 C33.0922241,48.1863174 31.8346055,49.7737922 30.787,51.498 C29.192,53.933 27.817,56.04 24.34,56.04 Z" id="Shape" fill="#000000"/><path d="M37.463,36.076 C37.0012779,36.0774619 36.5985833,35.7626177 36.4886117,35.3141808 C36.3786401,34.8657438 36.5899864,34.4003165 37,34.188 C40.261,32.506 40.846,28.588 40.851,28.546 C41.102,26.201 41.026,23.724 40.689,23.132 C40.403,23.069 39.789,23.656 39.489,24.093 C39.1827352,24.5504105 38.5643816,24.6742847 38.1055559,24.3701441 C37.6467302,24.0660035 37.5199901,23.448231 37.822,22.988 C38.477,21.996 40.022,20.536 41.654,21.366 C43.204,22.146 43.154,25.835 42.831,28.792 C42.799,29.026 42.083,33.813 37.913,35.965 C37.7738828,36.0370503 37.6196653,36.0750906 37.463,36.076 Z" id="Shape" fill="#000000"/><path d="M30.47,60 L13.47,60 C11.8131458,60 10.47,58.6568542 10.47,57 L10.47,47.48 C10.47,46.9277153 10.9177153,46.48 11.47,46.48 C12.0222847,46.48 12.47,46.9277153 12.47,47.48 L12.47,57 C12.47,57.5522847 12.9177153,58 13.47,58 L30.47,58 C31.0222847,58 31.47,57.5522847 31.47,57 L31.47,47.48 C31.47,46.9277153 31.9177153,46.48 32.47,46.48 C33.0222847,46.48 33.47,46.9277153 33.47,47.48 L33.47,57 C33.47,58.6568542 32.1268542,60 30.47,60 Z" id="Shape" fill="#000000"/><path d="M42.4,56.04 L37.66,56.04 C34.48,56.04 33.051,54.271 31.636,52.132 C31.4201773,51.8341896 31.38525,51.441944 31.5450578,51.1106858 C31.7048656,50.7794277 32.0336125,50.5626282 32.4010364,50.5461916 C32.7684603,50.529755 33.1152523,50.7163344 33.304,51.032 C34.709,53.156 35.625,54.044 37.66,54.044 L42.4,54.044 C44.794,54.044 45.64,52.75 47.174,50.4 C47.9562338,49.1510601 48.8250285,47.9584723 49.774,46.831 C50.2260033,46.2994727 50.707424,45.7936805 51.216,45.316 C54.825,41.897 54.695,39.061 54.53,35.471 C54.496,34.723 54.461,33.963 54.461,33.184 C54.4815959,31.7383584 54.6433641,30.2981859 54.944,28.884 C55.429,26.215 56.033,22.894 55.652,14.594 C55.426,9.673 52.967,6.077 48.343,3.9 C46.0812857,2.86544468 43.6554246,2.23621686 41.176,2.041 L38.84,2.041 C36.2764345,2.25234986 33.7730261,2.93013742 31.453,4.041 C30.9473833,4.26439918 30.3563992,4.03561669 30.133,3.53 C29.9096008,3.02438331 30.1383833,2.43339918 30.644,2.21 C33.2034551,0.984269991 35.9697829,0.248595015 38.8,0.041 L41.22,0.041 C41.42,0.049 57.02,0.879 57.649,14.495 C58.04,23.022 57.388,26.612 56.911,29.234 C56.6321274,30.5317809 56.4810726,31.8537619 56.46,33.181 C56.46,33.929 56.494,34.658 56.527,35.381 C56.693,38.989 56.864,42.721 52.588,46.772 C52.1292632,47.2017593 51.6952348,47.6571552 51.288,48.136 C50.3967927,49.1980378 49.5804917,50.320744 48.845,51.496 C47.254,53.932 45.877,56.04 42.4,56.04 Z" id="Shape" fill="#000000"/><path d="M55.524,36.076 C55.0628393,36.0760722 54.6614309,35.7607729 54.5522653,35.3127193 C54.4430997,34.8646656 54.6544893,34.4000617 55.064,34.188 C58.325,32.506 58.91,28.588 58.916,28.546 C59.167,26.201 59.091,23.724 58.754,23.132 C58.454,23.069 57.854,23.656 57.554,24.093 C57.2477352,24.5504105 56.6293816,24.6742847 56.1705559,24.3701441 C55.7117302,24.0660035 55.5849901,23.448231 55.887,22.988 C56.541,21.996 58.087,20.536 59.718,21.366 C61.268,22.146 61.218,25.835 60.896,28.792 C60.864,29.026 60.148,33.813 55.977,35.965 C55.8370359,36.0376581 55.6816993,36.0757207 55.524,36.076 Z" id="Shape" fill="#000000"/><path d="M48.53,60 L31.53,60 C31.2540244,60.0021779 30.9791829,59.9644545 30.714,59.888 C30.1960074,59.7214481 29.906239,59.1713098 30.0618888,58.6499376 C30.2175385,58.1285654 30.7614776,57.8273209 31.286,57.972 C31.3656988,57.9922923 31.4477762,58.001711 31.53,58 L48.53,58 C49.0822847,58 49.53,57.5522847 49.53,57 L49.53,47.48 C49.53,46.9277153 49.9777153,46.48 50.53,46.48 C51.0822847,46.48 51.53,46.9277153 51.53,47.48 L51.53,57 C51.53,58.6568542 50.1868542,60 48.53,60 Z" id="Shape" fill="#000000"/><path d="M22,23.04 C17.9532926,23.040112 14.4041004,20.33936 13.3253951,16.4390733 C12.2466898,12.5387867 13.9037502,8.39813732 17.3754278,6.31888373 C20.8471054,4.23963014 25.2796335,4.73310949 28.209,7.525 C28.6094064,7.90552419 28.6255242,8.53859356 28.245,8.939 C27.8644758,9.33940644 27.2314064,9.35552419 26.831,8.975 C24.064701,6.33609465 19.6928152,6.40478068 17.0107799,9.12928399 C14.3287446,11.8537873 14.3287446,16.2262127 17.0107799,18.950716 C19.6928152,21.6752193 24.064701,21.7439054 26.831,19.105 C27.0900176,18.858844 27.4606823,18.7695707 27.8033684,18.8708085 C28.1460545,18.9720463 28.4086999,19.2484147 28.4923684,19.5958085 C28.576037,19.9432023 28.4680176,20.308844 28.209,20.555 C26.5368839,22.1524911 24.3125619,23.0427214 22,23.04 Z" id="Shape" fill="#000000"/><path d="M40,23.04 C39.4975117,23.0392654 38.9958957,22.9981329 38.5,22.917 C37.9546188,22.829739 37.583239,22.3168812 37.6705,21.7715 C37.757761,21.2261188 38.2706188,20.854739 38.816,20.942 C39.206693,21.0068798 39.6019602,21.0403203 39.998,21.042 C43.8639932,21.042 46.998,17.9079932 46.998,14.042 C46.998,10.1760068 43.8639932,7.042 39.998,7.042 C38.7735046,7.04035545 37.5704046,7.36295325 36.511,7.977 C36.0335498,8.2547992 35.4212993,8.09295013 35.1435,7.61549998 C34.8657008,7.13804983 35.0275499,6.52579924 35.505,6.248 C38.7821524,4.35377569 42.894285,4.71251378 45.7939279,7.14559516 C48.6935707,9.57867654 49.7609358,13.566039 48.4645719,17.1223369 C47.168208,20.6786347 43.785208,23.0437223 40,23.04 Z" id="Shape" fill="#000000"/><path d="M30,23.04 C29.754813,23.0400431 29.5181547,22.9500062 29.335,22.787 L20.335,14.787 C20.1217889,14.5972439 19.999824,14.3254231 19.999824,14.04 C19.999824,13.7545769 20.1217889,13.4827561 20.335,13.293 L29.335,5.293 C29.6292374,5.03100678 30.0498835,4.96619175 30.4093391,5.12746102 C30.7687947,5.2887303 31.0000617,5.64602524 31,6.04 L31,10.04 L41,10.04 C41.5522847,10.04 42,10.4877153 42,11.04 C42,11.5922847 41.5522847,12.04 41,12.04 L30,12.04 C29.4477153,12.04 29,11.5922847 29,11.04 L29,8.267 L22.5,14.04 L29,19.813 L29,17.04 C29,16.4877153 29.4477153,16.04 30,16.04 L41,16.04 C41.5522847,16.04 42,16.4877153 42,17.04 C42,17.5922847 41.5522847,18.04 41,18.04 L31,18.04 L31,22.04 C30.9999663,22.4336244 30.7690192,22.790614 30.41,22.952 C30.281224,23.0103918 30.1413955,23.0404038 30,23.04 Z" id="Shape" fill="#000000"/></g></g></svg>
