<?xml version="1.0" encoding="UTF-8"?>
<svg xmlns="http://www.w3.org/2000/svg" xmlns:xlink="http://www.w3.org/1999/xlink" width="512" height="512" viewBox="0 0 52 60" version="1.1"><!-- Generator: Sketch 51.3 (57544) - http://www.bohemiancoding.com/sketch --><title>063 - Strategy</title><desc>Created with Sketch.</desc><defs/><g id="Page-1" stroke="none" stroke-width="1" fill="none" fill-rule="evenodd"><g id="063---Strategy" transform="translate(-1.000000, 0.000000)" fill-rule="nonzero"><path d="M41.208,22.22 C39.937,21.57 38.667,23.5 38.667,23.5 L38.588,23.49 C38.7509709,20.4955491 38.7509709,17.4944509 38.588,14.5 C38,1.64 23.187,1 23.187,1 L20.807,1 C20.807,1 6,1.64 5.407,14.5 C5.24402908,17.4944509 5.24402908,20.4955491 5.407,23.49 L5.328,23.5 C5.328,23.5 4.057,21.57 2.787,22.22 C1.528,22.85 2.148,28.64 2.148,28.64 C2.148,28.64 2.778,33.1 6.528,35.04 C6.367,38.76 6.088,42.14 10.148,46 C10.6300751,46.4551694 11.0873982,46.9358594 11.518,47.44 L11.518,56.96 C11.5179862,58.060676 12.4073377,58.9544966 13.508,58.96 L30.487,58.96 C31.5876623,58.9544966 32.4770138,58.060676 32.477,56.96 L32.477,47.44 C32.9076018,46.9358594 33.3649249,46.4551694 33.847,46 C37.907,42.14 37.627,38.76 37.467,35.04 C41.217,33.1 41.847,28.64 41.847,28.64 C41.847,28.64 42.467,22.85 41.208,22.22 Z" id="Shape" fill="#F29C1F"/><path d="M6.588,33.14 C6.588,33.79 6.567,34.42 6.528,35.04 C2.778,33.1 2.148,28.64 2.148,28.64 C2.148,28.64 1.528,22.85 2.787,22.22 C4.057,21.57 5.328,23.5 5.328,23.5 L5.407,23.49 C5.727,28.45 6.588,30.02 6.588,33.14 Z" id="Shape" fill="#FF9801"/><path d="M38.59,23.49 C38.27,28.45 37.41,30.02 37.41,33.14 C37.41,33.79 37.43,34.42 37.47,35.04 C37.63,38.76 37.91,42.14 33.85,46 C33.3674124,46.4546547 32.9100622,46.9353732 32.48,47.44 C29.06,51.41 28.6,55 24.37,55 L19.63,55 C15.4,55 14.94,51.41 11.52,47.44 C11.0899378,46.9353732 10.6325876,46.4546547 10.15,46 C6.09,42.14 6.37,38.76 6.53,35.04 C6.57,34.42 6.59,33.79 6.59,33.14 C6.59,30.02 5.73,28.45 5.41,23.49 C5.2465184,20.495563 5.2465184,17.494437 5.41,14.5 C5.95,2.75 18.37,1.2 20.5,1.02 C20.7,1 20.81,1 20.81,1 L23.19,1 C23.19,1 38,1.64 38.59,14.5 C38.7534816,17.494437 38.7534816,20.495563 38.59,23.49 Z" id="Shape" fill="#FEC108"/><path d="M35.59,23.49 C35.27,28.45 34.41,30.02 34.41,33.14 C34.41,33.79 34.43,34.42 34.47,35.04 C34.63,38.76 34.91,42.14 30.85,46 C30.3674124,46.4546547 29.9100622,46.9353732 29.48,47.44 C26.06,51.41 25.6,55 21.37,55 L19.63,55 C15.4,55 14.94,51.41 11.52,47.44 C11.0899378,46.9353732 10.6325876,46.4546547 10.15,46 C6.09,42.14 6.37,38.76 6.53,35.04 C6.57,34.42 6.59,33.79 6.59,33.14 C6.59,30.02 5.73,28.45 5.41,23.49 C5.2465184,20.495563 5.2465184,17.494437 5.41,14.5 C5.95,2.75 18.37,1.2 20.5,1.02 C22.63,1.2 35.05,2.75 35.59,14.5 C35.7534816,17.494437 35.7534816,20.495563 35.59,23.49 Z" id="Shape" fill="#FFDC00"/><path d="M41.847,28.64 C41.847,28.64 41.217,33.1 37.467,35.04 C37.427,34.42 37.407,33.79 37.407,33.14 C37.407,30.02 38.268,28.45 38.588,23.49 L38.667,23.5 C38.667,23.5 39.937,21.57 41.208,22.22 C42.467,22.85 41.847,28.64 41.847,28.64 Z" id="Shape" fill="#FF9801"/><path d="M32.477,47.44 L32.477,56.96 C32.4770138,58.060676 31.5876623,58.9544966 30.487,58.96 L13.507,58.96 C12.4067287,58.9539484 11.5179834,58.060288 11.518,56.96 L11.518,47.44 C14.937,51.41 15.4,55 19.627,55 L24.367,55 C28.6,55 29.057,51.41 32.477,47.44 Z" id="Shape" fill="#FF9801"/><path d="M52,21 C51.9967052,22.1032019 51.1032019,22.9967052 50,23 L37.84,23 C37.3037549,23.0017569 36.7889954,22.7893736 36.41,22.41 L33.32,19.27 L31.92,17.85 L27.38,13.89 L24.74,11.59 C24.3610046,11.2106264 23.8462451,10.9982431 23.31,11 L18.5,11 C18.2238576,11 18,11.2238576 18,11.5 L18,13 L12.62,9.42 C12.483493,9.32369627 12.4023039,9.16705861 12.4023039,9 C12.4023039,8.83294139 12.483493,8.67630373 12.62,8.58 L18,5 L18,6.5 C18,6.77614237 18.2238576,7 18.5,7 L24.99,7 C25.5262451,6.9982431 26.0410046,7.21062637 26.42,7.59 L30.24,11 L34.73,15 L36.14,16.43 L38.09,18.41 C38.4677866,18.7911807 38.9833378,19.0038906 39.52,19 L50,19 C51.1032019,19.0032948 51.9967052,19.8967981 52,21 Z" id="Shape" fill="#3F51B5"/><path d="M52,9 C52,10.1045695 51.1045695,11 50,11 L39.516,11 C38.9804667,11.0014172 38.4678727,11.2175496 38.093,11.6 L27.417,22.405 C27.0412977,22.7856139 26.5288076,22.9999017 25.994,23 L19.5,23 C19.2238576,23 19,23.2238576 19,23.5 L19,25 L13.624,21.416 C13.4849224,21.3232634 13.4013878,21.1671605 13.4013878,21 C13.4013878,20.8328395 13.4849224,20.6767366 13.624,20.584 L19,17 L19,18.5 C19,18.7761424 19.2238576,19 19.5,19 L24.314,19 C24.8488076,18.9999017 25.3612977,18.7856139 25.737,18.405 L36.413,7.6 C36.7878727,7.21754956 37.3004667,7.00141717 37.836,7 L50,7 C51.1045695,7 52,7.8954305 52,9 Z" id="Shape" fill="#00BCD4"/><path d="M52,21 C51.9967052,22.1032019 51.1032019,22.9967052 50,23 L47,23 C48.1045695,23 49,22.1045695 49,21 C49,19.8954305 48.1045695,19 47,19 L50,19 C51.1032019,19.0032948 51.9967052,19.8967981 52,21 Z" id="Shape" fill="#283593"/><path d="M52,9 C51.9967052,10.1032019 51.1032019,10.9967052 50,11 L47,11 C48.1045695,11 49,10.1045695 49,9 C49,7.8954305 48.1045695,7 47,7 L50,7 C51.1032019,7.0032948 51.9967052,7.89679813 52,9 Z" id="Shape" fill="#00838F"/><path d="M6.53,36.036 C6.37067056,36.0360148 6.21364387,35.9979581 6.072,35.925 C1.907,33.773 1.192,28.986 1.164,28.783 C0.842,25.795 0.788,22.106 2.34,21.325 C3.968,20.499 5.51,21.956 6.166,22.948 C6.45864172,23.4087382 6.32777555,24.0190241 5.87195367,24.319266 C5.41613178,24.619508 4.80375962,24.4987803 4.496,24.048 C4.205,23.614 3.596,23.071 3.307,23.089 C2.97,23.68 2.894,26.16 3.148,28.536 C3.148,28.536 3.759,32.477 6.99,34.145 C7.40065725,34.3565193 7.61299718,34.8217883 7.50370399,35.2706031 C7.39441079,35.719418 6.99192951,36.0349687 6.53,36.034 L6.53,36.036 Z" id="Shape" fill="#000000"/><path d="M38.7,19.83 C38.1477153,19.83 37.7,19.3822847 37.7,18.83 C37.7,17.446 37.664,16.006 37.591,14.55 C37.5510256,13.6139301 37.4170181,12.6842528 37.191,11.775 C37.0556903,11.2392838 37.3802838,10.6953098 37.916,10.56 C38.4517162,10.4246903 38.9956902,10.7492838 39.131,11.285 C39.389378,12.3230285 39.5431454,13.3843247 39.59,14.453 C39.664,15.939 39.701,17.413 39.701,18.83 C39.7010001,19.0953898 39.595506,19.3498954 39.4077533,19.5374606 C39.2200006,19.7250257 38.9653897,19.8302654 38.7,19.83 Z" id="Shape" fill="#000000"/><path d="M24.37,56 L19.63,56 C16.158,56 14.786,53.893 13.197,51.451 C12.152706,49.7269717 10.8977094,48.1397503 9.461,46.726 C5.193,42.667 5.361,38.938 5.516,35.332 L5.531,35 C5.57,34.38 5.59,33.771 5.59,33.143 C5.56915447,31.8218031 5.41876783,30.5058362 5.141,29.214 C4.77704879,27.3462363 4.53354665,25.4570071 4.412,23.558 C4.24785164,20.5268874 4.24785164,17.4891126 4.412,14.458 C5.036,0.838 20.61,0.008 20.767,0 L23.19,0 C23.619,0.018 32.723,0.487 37.224,7.033 C37.4307423,7.32731207 37.4635068,7.70997768 37.309806,8.03515152 C37.1561052,8.36032535 36.8396189,8.57790966 36.4809696,8.60497654 C36.1223202,8.63204342 35.776763,8.46442283 35.576,8.166 C31.634,2.434 23.231,2 23.146,2 L20.81,2 C20.287,2.024 6.949,2.765 6.41,14.546 C6.24990347,17.5041688 6.24990347,20.4688312 6.41,23.427 C6.52683202,25.2487969 6.76064741,27.0612002 7.11,28.853 C7.40979742,30.2628876 7.57089854,31.6987306 7.591,33.14 C7.591,33.812 7.57,34.463 7.529,35.104 L7.515,35.42 C7.357,39.01 7.232,41.845 10.84,45.275 C12.3887959,46.7977962 13.7440111,48.5056696 14.875,50.36 C16.517,52.884 17.339,54 19.63,54 L24.37,54 C26.661,54 27.483,52.884 29.126,50.36 C30.2572572,48.5052806 31.6128103,46.7970687 33.162,45.274 C36.769,41.845 36.644,39.01 36.486,35.42 L36.471,35.083 C36.431,34.463 36.41,33.812 36.41,33.14 C36.4298225,31.6992038 36.5899114,30.2637623 36.888,28.854 C37.2656299,26.9038025 37.5072124,24.9297093 37.611,22.946 C37.6209146,22.6793755 37.7385666,22.4281786 37.9370433,22.24987 C38.1355199,22.0715615 38.3978406,21.9813964 38.664,22 C39.2150408,22.0301143 39.6375191,22.500927 39.608,23.052 C39.4992665,25.1188577 39.2480028,27.1757457 38.856,29.208 C38.5802721,30.5004423 38.4309023,31.8166385 38.41,33.138 C38.41,33.766 38.43,34.375 38.468,34.974 L38.484,35.33 C38.643,38.936 38.807,42.665 34.539,46.723 C33.1012707,48.1377123 31.8452768,49.7259282 30.8,51.451 C29.214,53.893 27.842,56 24.37,56 Z" id="Shape" fill="#000000"/><path d="M38.669,24.5 C38.3032047,24.4990013 37.9671442,24.2983556 37.7927268,23.976819 C37.6183093,23.6552824 37.633371,23.2641706 37.832,22.957 C37.9816399,22.7324642 38.1488293,22.5201336 38.332,22.322 C38.7089469,21.9259909 39.3340541,21.906118 39.7353937,22.2773844 C40.1367332,22.6486509 40.1655105,23.2734115 39.8,23.68 C39.690862,23.7952799 39.5905773,23.91863 39.5,24.049 C39.3160512,24.3290604 39.0040648,24.4983816 38.669,24.5 Z" id="Shape" fill="#000000"/><path d="M37.471,36.04 C37.0098393,36.0400722 36.6084309,35.7247729 36.4992653,35.2767193 C36.3900997,34.8286656 36.6014893,34.3640617 37.011,34.152 C40.24,32.48 40.854,28.537 40.86,28.497 C41.079487,26.7682276 41.0481638,25.0168185 40.767,23.297 C40.6196331,22.776444 40.9129885,22.233082 41.4290611,22.0707099 C41.9451336,21.9083379 42.4967588,22.1858433 42.674,22.697 C43.274,24.582 42.89,28.324 42.844,28.745 C42.812,28.98 42.09,33.773 37.93,35.926 C37.7883161,36.0001541 37.6309143,36.0392474 37.471,36.04 Z" id="Shape" fill="#000000"/><path d="M30.487,59.96 L13.513,59.96 C11.8561458,59.96 10.513,58.6168542 10.513,56.96 L10.513,47.44 C10.513,46.8877153 10.9607153,46.44 11.513,46.44 C12.0652847,46.44 12.513,46.8877153 12.513,47.44 L12.513,56.96 C12.513,57.5122847 12.9607153,57.96 13.513,57.96 L30.487,57.96 C31.0392847,57.96 31.487,57.5122847 31.487,56.96 L31.487,47.44 C31.487,46.8877153 31.9347153,46.44 32.487,46.44 C33.0392847,46.44 33.487,46.8877153 33.487,47.44 L33.487,56.96 C33.487,58.6168542 32.1438542,59.96 30.487,59.96 Z" id="Shape" fill="#000000"/><path d="M19,26 C18.8025206,25.9996876 18.6095007,25.9412599 18.445,25.832 L12.445,21.832 C12.1668449,21.6465268 11.9997756,21.3343211 11.9997756,21 C11.9997756,20.6656789 12.1668449,20.3534732 12.445,20.168 L18.445,16.168 C18.7518587,15.9632678 19.1465085,15.9440981 19.471765,16.118126 C19.7970216,16.292154 20.0000552,16.6311131 20,17 L20,18 L24.314,18 C24.5821004,18.0002169 24.8388967,17.8920163 25.026,17.7 L35.7,6.892 C36.2652045,6.32267756 37.0337648,6.00172448 37.836,6 L50,6 C51.6568542,6 53,7.34314575 53,9 C53,10.6568542 51.6568542,12 50,12 L39.516,12 C39.2484069,12.0008423 38.9923148,12.1088981 38.805,12.3 L28.129,23.108 C27.56404,23.6770773 26.7958883,23.99801 25.994,24 L20,24 L20,25 C20,25.5522847 19.5522847,26 19,26 Z M14.8,21 L18,23.132 L18,23 C18,22.4477153 18.4477153,22 19,22 L25.994,22 C26.2619402,21.9994252 26.5184421,21.8913486 26.706,21.7 L37.381,10.892 C37.9457715,10.3226427 38.714045,10.0016591 39.516,10 L50,10 C50.5522847,10 51,9.55228475 51,9 C51,8.44771525 50.5522847,8 50,8 L37.836,8 C37.5678535,7.99955445 37.3109719,8.1077911 37.124,8.3 L26.449,19.108 C25.88404,19.6770773 25.1158883,19.99801 24.314,20 L19,20 C18.4477153,20 18,19.5522847 18,19 L18,18.868 L14.8,21 Z" id="Shape" fill="#000000"/><path d="M28.1,16 C27.8320598,15.9994252 27.5755579,15.8913486 27.388,15.7 L24.028,12.29 C23.8366382,12.1018758 23.5783357,11.9975475 23.31,12 L19,12 L19,13 C19.0000552,13.3688869 18.7970216,13.707846 18.471765,13.881874 C18.1465085,14.0559019 17.7518587,14.0367322 17.445,13.832 L11.445,9.832 C11.1668449,9.64652682 10.9997756,9.33432107 10.9997756,9 C10.9997756,8.66567893 11.1668449,8.35347318 11.445,8.168 L17.445,4.168 C17.7518587,3.96326779 18.1465085,3.94409811 18.471765,4.11812603 C18.7970216,4.29215395 19.0000552,4.63111315 19,5 L19,6 L24.99,6 C25.7917029,5.99696774 26.5612666,6.31494844 27.127,6.883 L31.627,11.448 C31.9776401,11.8465064 31.9558293,12.4495362 31.577316,12.82167 C31.1988028,13.1938038 30.5954894,13.2053625 30.203,12.848 L25.703,8.287 C25.5125041,8.10101488 25.2562227,7.99785532 24.99,8 L18,8 C17.4477153,8 17,7.55228475 17,7 L17,6.868 L13.8,9 L17,11.132 L17,11 C17,10.4477153 17.4477153,10 18,10 L23.31,10 C24.1115585,9.99670311 24.8811017,10.3143152 25.447,10.882 L28.812,14.3 C29.0935788,14.587266 29.1756232,15.0152854 29.0202285,15.3863122 C28.8648337,15.7573389 28.5022532,15.9991389 28.1,16 Z" id="Shape" fill="#000000"/><path d="M50,24 L37.84,24 C37.0382971,24.0030323 36.2687334,23.6850516 35.703,23.117 L31.203,18.551 C30.9290654,18.301582 30.8154695,17.9211563 30.9077937,17.5623726 C31.0001179,17.2035889 31.2832317,16.9252467 31.6435327,16.8390337 C32.0038337,16.7528207 32.3822738,16.8728659 32.627,17.151 L37.118,21.712 C37.3104839,21.9006664 37.5705083,22.004388 37.84,22 L50,22 C50.5522847,22 51,21.5522847 51,21 C51,20.4477153 50.5522847,20 50,20 L39.52,20 C38.7187877,20.0030294 37.9496542,19.6854378 37.384,19.118 L34.018,15.7 C33.7440654,15.450582 33.6304695,15.0701563 33.7227937,14.7113726 C33.8151179,14.3525889 34.0982317,14.0742467 34.4585327,13.9880337 C34.8188337,13.9018207 35.1972738,14.0218659 35.442,14.3 L38.802,17.71 C38.8924948,17.7975581 38.9973515,17.8689283 39.112,17.921 C39.241236,17.9747272 39.3800501,18.0016054 39.52,18 L50,18 C51.6568542,18 53,19.3431458 53,21 C53,22.6568542 51.6568542,24 50,24 Z" id="Shape" fill="#000000"/></g></g></svg>
