<?xml version="1.0" encoding="UTF-8"?>
<svg xmlns="http://www.w3.org/2000/svg" xmlns:xlink="http://www.w3.org/1999/xlink" width="512" height="512" viewBox="0 0 42 60" version="1.1"><!-- Generator: Sketch 51.3 (57544) - http://www.bohemiancoding.com/sketch --><title>064 - Empathy</title><desc>Created with Sketch.</desc><defs/><g id="Page-1" stroke="none" stroke-width="1" fill="none" fill-rule="evenodd"><g id="064---Empathy" transform="translate(-1.000000, -1.000000)"><path d="M41.213,23.22 C39.943,22.57 38.672,24.5 38.672,24.5 L38.593,24.49 C38.7559709,21.4955491 38.7559709,18.4944509 38.593,15.5 C38,2.64 23.193,2 23.193,2 L20.813,2 C20.813,2 6,2.64 5.412,15.5 C5.24902908,18.4944509 5.24902908,21.4955491 5.412,24.49 L5.333,24.5 C5.333,24.5 4.063,22.57 2.792,23.22 C1.533,23.85 2.153,29.64 2.153,29.64 C2.153,29.64 2.783,34.1 6.533,36.04 C6.373,39.76 6.093,43.14 10.153,47 C10.6353309,47.4549126 11.0926674,47.9356167 11.523,48.44 L11.523,57.96 C11.5229862,59.060676 12.4123377,59.9544966 13.513,59.96 L30.493,59.96 C31.5932713,59.9539484 32.4820166,59.060288 32.482,57.96 L32.482,48.44 C32.9126018,47.9358594 33.3699249,47.4551694 33.852,47 C37.912,43.14 37.633,39.76 37.472,36.04 C41.222,34.1 41.852,29.64 41.852,29.64 C41.852,29.64 42.472,23.85 41.213,23.22 Z" id="Shape" fill="#D75E72" fill-rule="nonzero"/><path d="M6.593,34.14 C6.593,34.79 6.573,35.42 6.533,36.04 C2.783,34.1 2.153,29.64 2.153,29.64 C2.153,29.64 1.533,23.85 2.792,23.22 C4.063,22.57 5.333,24.5 5.333,24.5 L5.412,24.49 C5.732,29.45 6.593,31.02 6.593,34.14 Z" id="Shape" fill="#BB193B" fill-rule="nonzero"/><path d="M38.59,24.49 C38.27,29.45 37.41,31.02 37.41,34.14 C37.41,34.79 37.43,35.42 37.47,36.04 C37.63,39.76 37.91,43.14 33.85,47 C33.3674124,47.4546547 32.9100622,47.9353732 32.48,48.44 C29.06,52.41 28.6,56 24.37,56 L19.63,56 C15.4,56 14.94,52.41 11.52,48.44 C11.0899378,47.9353732 10.6325876,47.4546547 10.15,47 C6.09,43.14 6.37,39.76 6.53,36.04 C6.57,35.42 6.59,34.79 6.59,34.14 C6.59,31.02 5.73,29.45 5.41,24.49 C5.2465184,21.495563 5.2465184,18.494437 5.41,15.5 C5.95,3.75 18.37,2.2 20.5,2.02 C20.7,2 20.81,2 20.81,2 L23.19,2 C23.19,2 38,2.64 38.59,15.5 C38.7534816,18.494437 38.7534816,21.495563 38.59,24.49 Z" id="Shape" fill="#BB193B" fill-rule="nonzero"/><path d="M35.59,24.49 C35.27,29.45 34.41,31.02 34.41,34.14 C34.41,34.79 34.43,35.42 34.47,36.04 C34.63,39.76 34.91,43.14 30.85,47 C30.3674124,47.4546547 29.9100622,47.9353732 29.48,48.44 C26.06,52.41 25.6,56 21.37,56 L19.63,56 C15.4,56 14.94,52.41 11.52,48.44 C11.0899378,47.9353732 10.6325876,47.4546547 10.15,47 C6.09,43.14 6.37,39.76 6.53,36.04 C6.57,35.42 6.59,34.79 6.59,34.14 C6.59,31.02 5.73,29.45 5.41,24.49 C5.2465184,21.495563 5.2465184,18.494437 5.41,15.5 C5.95,3.75 18.37,2.2 20.5,2.02 C22.63,2.2 35.05,3.75 35.59,15.5 C35.7534816,18.494437 35.7534816,21.495563 35.59,24.49 Z" id="Shape" fill="#EF314C" fill-rule="nonzero"/><path d="M41.852,29.64 C41.852,29.64 41.222,34.1 37.472,36.04 C37.433,35.42 37.412,34.79 37.412,34.14 C37.412,31.02 38.273,29.45 38.593,24.49 L38.672,24.5 C38.672,24.5 39.943,22.57 41.213,23.22 C42.472,23.85 41.852,29.64 41.852,29.64 Z" id="Shape" fill="#BB193B" fill-rule="nonzero"/><path d="M32.482,48.44 L32.482,57.96 C32.4820138,59.060676 31.5926623,59.9544966 30.492,59.96 L13.513,59.96 C12.4123377,59.9544966 11.5229862,59.060676 11.523,57.96 L11.523,48.44 C14.943,52.41 15.403,56 19.633,56 L24.373,56 C28.6,56 29.063,52.41 32.482,48.44 Z" id="Shape" fill="#BB193B" fill-rule="nonzero"/><path d="M39.3,18.98 L39.06,19.23 L33.08,25.27 L33.06,25.27 C33.0041107,26.0729638 32.4823989,26.7684615 31.7271573,27.046822 C30.9719156,27.3251825 30.1236298,27.1346268 29.56,26.56 L29.55,26.56 C30.3602114,27.3764412 30.3602114,28.6935588 29.55,29.51 C29.1659563,29.9031419 28.6395909,30.1247879 28.09,30.1247879 C27.5404091,30.1247879 27.0140437,29.9031419 26.63,29.51 C27.4402114,30.3264412 27.4402114,31.6435588 26.63,32.46 C26.2436686,32.8488789 25.7181594,33.0675642 25.17,33.0675642 C24.6218406,33.0675642 24.0963314,32.8488789 23.71,32.46 C24.5202114,33.2764412 24.5202114,34.5935588 23.71,35.41 C23.3236686,35.7988789 22.7981594,36.0175642 22.25,36.0175642 C21.7018406,36.0175642 21.1763314,35.7988789 20.79,35.41 L20.75,35.37 L4.95,19.44 L4.96,19.43 C4.87246565,19.3542419 4.79212367,19.2705523 4.72,19.18 C1.04746631,15.1984359 1.15315356,9.03334617 4.96,5.18 C6.81975165,3.28385677 9.3640566,2.2155015 12.02,2.2155015 C14.6759434,2.2155015 17.2202484,3.28385677 19.08,5.18 L20.44,6.48 L21.97,7.96 L25.18,4.73 C29.1013268,1.0201723 35.2692727,1.12682266 39.06,4.97 C42.8671089,8.82715738 42.9727629,14.9947078 39.3,18.98 Z" id="Shape" fill="#DFC49C"/><path d="M36.3,18.98 L36.06,19.23 L30.08,25.27 L30.06,25.27 C30.0283859,25.7410862 29.8339501,26.1865208 29.51,26.53 L29.48,26.56 C29.0959563,26.9531419 28.5695909,27.1747879 28.02,27.1747879 C27.4704091,27.1747879 26.9440437,26.9531419 26.56,26.56 L26.55,26.56 C27.3482782,27.3610318 27.3615942,28.6526809 26.58,29.47 C26.572519,29.4850488 26.5623522,29.4986046 26.55,29.51 C26.1659563,29.9031419 25.6395909,30.1247879 25.09,30.1247879 C24.5404091,30.1247879 24.0140437,29.9031419 23.63,29.51 C24.4282782,30.3110318 24.4415942,31.6026809 23.66,32.42 C23.652519,32.4350488 23.6423522,32.4486046 23.63,32.46 C23.2436686,32.8488789 22.7181594,33.0675642 22.17,33.0675642 C21.6218406,33.0675642 21.0963314,32.8488789 20.71,32.46 C21.5063947,33.2602859 21.524097,34.5481266 20.75,35.37 L4.95,19.44 L4.96,19.43 C4.87246565,19.3542419 4.79212367,19.2705523 4.72,19.18 C1.04746631,15.1984359 1.15315356,9.03334617 4.96,5.18 C6.45959857,3.65813153 8.4089142,2.65893197 10.52,2.33 C12.6310858,2.65893197 14.5804014,3.65813153 16.08,5.18 L18.97,7.96 L20.44,6.48 L21.97,7.96 L25.18,4.73 C26.6488565,3.34420703 28.5041506,2.43748437 30.5,2.13 C32.6102062,2.45508727 34.5596996,3.4508717 36.06,4.97 C39.8671089,8.82715738 39.9727629,14.9947078 36.3,18.98 Z" id="Shape" fill="#FFE0B2"/><path d="M25.179,4.728 C25.099,4.808 25.009,4.888 24.929,4.968" id="Shape" fill="#FDD7AD"/><path d="M6.53,37.036 C6.37067056,37.0360148 6.21364387,36.9979581 6.072,36.925 C1.907,34.773 1.192,29.986 1.164,29.783 C0.842,26.795 0.788,23.106 2.34,22.325 C3.968,21.499 5.51,22.956 6.166,23.948 C6.45864172,24.4087382 6.32777555,25.0190241 5.87195367,25.319266 C5.41613178,25.619508 4.80375962,25.4987803 4.496,25.048 C4.205,24.614 3.596,24.071 3.307,24.089 C2.97,24.68 2.894,27.16 3.148,29.536 C3.148,29.536 3.759,33.477 6.99,35.145 C7.40065725,35.3565193 7.61299718,35.8217883 7.50370399,36.2706031 C7.39441079,36.719418 6.99192951,37.0349687 6.53,37.034 L6.53,37.036 Z" id="Shape" fill="#000000" fill-rule="nonzero"/><path d="M24.37,57 L19.63,57 C16.158,57 14.786,54.893 13.197,52.451 C12.152706,50.7269717 10.8977094,49.1397503 9.461,47.726 C5.193,43.667 5.361,39.938 5.516,36.332 L5.531,36 C5.57,35.38 5.59,34.771 5.59,34.143 C5.56915447,32.8218031 5.41876783,31.5058362 5.141,30.214 C4.77704879,28.3462363 4.53354665,26.4570071 4.412,24.558 C4.312,23.082 4.271,21.503 4.29,19.732 C4.29602819,19.1840158 4.74198265,18.7429668 5.29,18.743 L5.3,18.743 C5.56522159,18.7459014 5.81842595,18.8540511 6.00390287,19.0436539 C6.18937979,19.2332567 6.29193348,19.4887788 6.289,19.754 C6.27,21.471 6.309,22.999 6.407,24.425 C6.52354443,26.2484793 6.7573613,28.0625642 7.107,29.856 C7.40679742,31.2658876 7.56789854,32.7017306 7.588,34.143 C7.588,34.815 7.567,35.466 7.526,36.107 L7.512,36.423 C7.354,40.013 7.229,42.848 10.837,46.278 C12.3857959,47.8007962 13.7410111,49.5086696 14.872,51.363 C16.517,53.884 17.339,55 19.63,55 L24.37,55 C26.661,55 27.483,53.884 29.126,51.36 C30.2572572,49.5052806 31.6128103,47.7970687 33.162,46.274 C36.769,42.845 36.644,40.01 36.486,36.42 L36.471,36.083 C36.431,35.463 36.41,34.812 36.41,34.14 C36.4301015,32.6987306 36.5912026,31.2628876 36.891,29.853 C37.2404141,28.0608737 37.4742298,26.2481338 37.591,24.426 C37.691,22.933 37.726,21.354 37.699,19.596 C37.6947237,19.330603 37.7961364,19.0743941 37.9808949,18.8838209 C38.1656534,18.6932476 38.4185979,18.583947 38.684,18.58 L38.7,18.58 C39.2460962,18.5799301 39.6912625,19.0179737 39.7,19.564 C39.728,21.378 39.691,23.012 39.587,24.557 C39.4660949,26.4553535 39.2229239,28.3439372 38.859,30.211 C38.5812322,31.5028362 38.4308455,32.8188031 38.41,34.14 C38.41,34.768 38.43,35.377 38.468,35.976 L38.484,36.332 C38.643,39.938 38.807,43.667 34.539,47.725 C33.1014027,49.1390921 31.8454137,50.7266298 30.8,52.451 C29.214,54.893 27.842,57 24.37,57 Z" id="Shape" fill="#000000" fill-rule="nonzero"/><path d="M15.839,3.96 C15.3379911,3.96878264 14.9078324,3.60540417 14.8327595,3.10997394 C14.7576867,2.6145437 15.0608806,2.14003986 15.542,2 C17.2377484,1.46295025 18.9908023,1.12730906 20.765,1 L23.19,1 C24.8921417,1.11404581 26.5755279,1.4234104 28.207,1.922 C28.5492604,2.02453522 28.8108203,2.30187544 28.8931524,2.64954929 C28.9754845,2.99722314 28.8660807,3.36241069 28.6061524,3.60754931 C28.346224,3.85268793 27.9752604,3.94053524 27.633,3.838 C26.1725822,3.39499725 24.6678678,3.11397414 23.146,3 L20.81,3 C19.2230646,3.12963124 17.6556334,3.43654319 16.137,3.915 C16.0404396,3.94465872 15.9400125,3.9598239 15.839,3.96 Z" id="Shape" fill="#000000" fill-rule="nonzero"/><path d="M37.47,37.036 C37.0080705,37.0369687 36.6055892,36.721418 36.496296,36.2726031 C36.3870028,35.8237883 36.5993428,35.3585193 37.01,35.147 C40.266,33.466 40.85,29.547 40.855,29.506 C41.106,27.163 41.03,24.686 40.694,24.093 C40.375,24.035 39.794,24.617 39.502,25.053 C39.3046108,25.3509595 38.9632561,25.5209795 38.606521,25.4990152 C38.2497858,25.4770508 37.9318668,25.266439 37.772521,24.9465152 C37.6131751,24.6265913 37.6366108,24.2459595 37.834,23.948 C38.489,22.955 40.034,21.497 41.664,22.327 C43.212,23.106 43.158,26.795 42.84,29.752 C42.808,29.986 42.093,34.773 37.928,36.925 C37.7863561,36.9979581 37.6293294,37.0360148 37.47,37.036 Z" id="Shape" fill="#000000" fill-rule="nonzero"/><path d="M30.487,60.96 L13.513,60.96 C11.8561458,60.96 10.513,59.6168542 10.513,57.96 L10.513,48.44 C10.513,47.8877153 10.9607153,47.44 11.513,47.44 C12.0652847,47.44 12.513,47.8877153 12.513,48.44 L12.513,57.96 C12.513,58.5122847 12.9607153,58.96 13.513,58.96 L30.487,58.96 C31.0392847,58.96 31.487,58.5122847 31.487,57.96 L31.487,48.44 C31.487,47.8877153 31.9347153,47.44 32.487,47.44 C33.0392847,47.44 33.487,47.8877153 33.487,48.44 L33.487,57.96 C33.487,59.6168542 32.1438542,60.96 30.487,60.96 Z" id="Shape" fill="#000000" fill-rule="nonzero"/><path d="M4.972,20.412 C4.7037128,20.4116932 4.44680099,20.3035957 4.259,20.112 C4.171,20.022 4.085,19.933 4,19.842 C-0.0619083877,15.4744919 0.0537925115,8.67772647 4.262,4.451 C6.31050905,2.36631335 9.11228253,1.19449222 12.035,1.2 C14.9569564,1.19385768 17.7582986,2.36456787 19.807,4.448 C20.0592295,4.70165857 20.1569739,5.07061159 20.0634139,5.41587804 C19.9698539,5.76114448 19.6992035,6.03027016 19.3534139,6.12187804 C19.0076244,6.21348591 18.6392295,6.11365857 18.387,5.86 C16.7102976,4.16195558 14.4233541,3.20618947 12.037,3.20618947 C9.65064592,3.20618947 7.3637024,4.16195558 5.687,5.86 C2.23402935,9.32533524 2.13862088,14.9005472 5.471,18.482 L5.69,18.711 C5.97183177,18.9985259 6.05374558,19.427027 5.89783927,19.7982325 C5.74193297,20.169438 5.3786168,20.4109425 4.976,20.411 L4.972,20.412 Z" id="Shape" fill="#000000" fill-rule="nonzero"/><path d="M20.8,36.388 C20.5324069,36.3871577 20.2763148,36.2791019 20.089,36.088 L4.018,19.87 C3.76648502,19.6161628 3.66949614,19.2474259 3.76356812,18.902689 C3.85764009,18.557952 4.12848116,18.2895887 4.47406812,18.198689 C4.81965507,18.1077892 5.18748502,18.2081628 5.439,18.462 L21.513,34.684 C21.7943286,34.9710058 21.876505,35.3985455 21.721621,35.7693946 C21.5667369,36.1402437 21.2048897,36.3823384 20.803,36.384 L20.8,36.388 Z" id="Shape" fill="#000000" fill-rule="nonzero"/><path d="M39.075,20.208 C38.6727468,20.2071389 38.3101663,19.9653389 38.1547715,19.5943122 C37.9993768,19.2232854 38.0814212,18.795266 38.363,18.508 C38.436,18.435 38.508,18.36 38.578,18.284 C41.9097326,14.7014761 41.8152348,9.12654928 38.364,5.659 C34.963764,2.18438519 29.402504,2.08724917 25.883,5.441 C25.807,5.514 25.732,5.586 25.658,5.66 C25.4076398,5.92056791 25.0361801,6.02579985 24.6863537,5.93526065 C24.3365273,5.84472144 24.062758,5.5724966 23.970241,5.22318804 C23.877724,4.87387947 23.9808527,4.50183039 24.24,4.25 C24.329,4.16 24.419,4.072 24.511,3.986 C28.8181435,-0.117383312 35.6227912,0.000675586373 39.785,4.251 C43.9928542,8.4773325 44.1089916,15.273361 40.048,19.641 C39.964,19.732 39.875,19.823 39.786,19.914 C39.5976928,20.1028992 39.3417245,20.2087426 39.075,20.208 Z" id="Shape" fill="#000000" fill-rule="nonzero"/><path d="M33.093,26.245 C32.6911103,26.2433384 32.3292631,26.0012437 32.174379,25.6303946 C32.019495,25.2595455 32.1016714,24.8320058 32.383,24.545 L38.594,18.271 C38.9941303,17.8896474 39.6276474,17.9048697 40.009,18.305 C40.3903526,18.7051303 40.3751303,19.3386474 39.975,19.72 L39.792,19.909 L33.8,25.949 C33.6129996,26.13765 33.3586262,26.2441486 33.093,26.245 Z" id="Shape" fill="#000000" fill-rule="nonzero"/><path d="M23.725,33.438 C23.4577541,33.4368906 23.2020714,33.3288556 23.015,33.138 L10.837,20.854 C10.4479154,20.4616017 10.4506017,19.8280846 10.843,19.439 C11.2353983,19.0499154 11.8689154,19.0526017 12.258,19.445 L24.436,31.734 C24.7174534,32.0211359 24.7995636,32.4489153 24.6444243,32.819853 C24.489285,33.1907908 24.1270714,33.4327383 23.725,33.434 L23.725,33.438 Z" id="Shape" fill="#000000" fill-rule="nonzero"/><path d="M26.646,30.486 C26.3784069,30.4851577 26.1223148,30.3771019 25.935,30.186 L15.6,19.756 C15.2111915,19.3636017 15.2141017,18.7303085 15.6065,18.3415 C15.9988983,17.9526915 16.6321915,17.9556017 17.021,18.348 L27.356,28.782 C27.6373286,29.0690058 27.719505,29.4965455 27.564621,29.8673946 C27.4097369,30.2382437 27.0478897,30.4803384 26.646,30.482 L26.646,30.486 Z" id="Shape" fill="#000000" fill-rule="nonzero"/><path d="M29.573,27.539 C29.3057541,27.5378906 29.0500714,27.4298556 28.863,27.239 L18.778,17.065 C18.3891915,16.6723255 18.3923255,16.0388085 18.785,15.65 C19.1776745,15.2611915 19.8111915,15.2643255 20.2,15.657 L30.284,25.835 C30.5654534,26.1221359 30.6475636,26.5499153 30.4924243,26.920853 C30.337285,27.2917908 29.9750714,27.5337383 29.573,27.535 L29.573,27.539 Z" id="Shape" fill="#000000" fill-rule="nonzero"/><path d="M32.494,24.591 C32.2264069,24.5901577 31.9703148,24.4821019 31.783,24.291 L21.7,14.117 C21.3111915,13.7246017 21.3141017,13.0913085 21.7065,12.7025 C22.0988983,12.3136915 22.7321915,12.3166017 23.121,12.709 L33.2,22.887 C33.4813286,23.1740058 33.563505,23.6015455 33.408621,23.9723946 C33.2537369,24.3432437 32.8918897,24.5853384 32.49,24.587 L32.494,24.591 Z" id="Shape" fill="#000000" fill-rule="nonzero"/><path d="M22.264,37 C21.4473451,37.0017762 20.664411,36.6744723 20.092,36.092 C19.840485,35.8381628 19.7434961,35.4694259 19.8375681,35.1246889 C19.9316401,34.779952 20.2024811,34.5115887 20.5480681,34.4206889 C20.8936551,34.3297892 21.261485,34.4301628 21.513,34.684 C21.9301753,35.0910005 22.5958247,35.0910005 23.013,34.684 C23.432911,34.2561503 23.432911,33.5708497 23.013,33.143 C22.6239154,32.7506017 22.6266017,32.1170846 23.019,31.728 C23.4113983,31.3389154 24.0449154,31.3416017 24.434,31.734 C25.6246546,32.9426915 25.6246546,34.8833085 24.434,36.092 C23.862204,36.674167 23.0800068,37.0014643 22.264,37 Z" id="Shape" fill="#000000" fill-rule="nonzero"/><path d="M25.187,34.051 C24.3702999,34.0530028 23.5872815,33.7256636 23.015,33.143 C22.6259154,32.7506017 22.6286017,32.1170846 23.021,31.728 C23.4133983,31.3389154 24.0469154,31.3416017 24.436,31.734 C24.8529593,32.1415307 25.5190407,32.1415307 25.936,31.734 C26.355911,31.3061503 26.355911,30.6208497 25.936,30.193 C25.5583474,29.7990673 25.5662533,29.1751037 25.9537657,28.790866 C26.3412781,28.4066283 26.9652864,28.4040179 27.356,28.785 C28.5493533,29.9925843 28.5493533,31.9354157 27.356,33.143 C26.7844468,33.724919 26.0026601,34.0521953 25.187,34.051 Z" id="Shape" fill="#000000" fill-rule="nonzero"/><path d="M28.109,31.1 C27.2927369,31.1012812 26.5102974,30.7740333 25.938,30.192 C25.5603474,29.7980673 25.5682533,29.1741037 25.9557657,28.789866 C26.3432781,28.4056283 26.9672864,28.4030179 27.358,28.784 C27.7756044,29.1899449 28.4403956,29.1899449 28.858,28.784 C29.277911,28.3561503 29.277911,27.6708497 28.858,27.243 C28.5993336,26.9907762 28.4968266,26.6186424 28.5898537,26.269542 C28.6828807,25.9204415 28.9569753,25.6486633 29.3068526,25.5586021 C29.65673,25.468541 30.0279804,25.5742024 30.278,25.835 C31.4706946,27.0424652 31.4706946,28.9845348 30.278,30.192 C29.7059313,30.7731576 28.9244794,31.1002937 28.109,31.1 Z" id="Shape" fill="#000000" fill-rule="nonzero"/><path d="M31.032,28.151 C30.2155359,28.1528136 29.4327068,27.825914 28.86,27.244 C28.6013336,26.9917762 28.4988266,26.6196424 28.5918537,26.270542 C28.6848807,25.9214415 28.9589753,25.6496633 29.3088526,25.5596021 C29.65873,25.469541 30.0299804,25.5752024 30.28,25.836 C30.6982409,26.2403738 31.3617591,26.2403738 31.78,25.836 C32.2005658,25.408029 32.2005658,24.721971 31.78,24.294 C31.5213336,24.0417762 31.4188266,23.6696424 31.5118537,23.320542 C31.6048807,22.9714415 31.8789753,22.6996633 32.2288526,22.6096021 C32.57873,22.519541 32.9499804,22.6252024 33.2,22.886 C34.3901166,24.0949119 34.3901166,26.0350881 33.2,27.244 C32.6283297,27.825018 31.8471,28.1518516 31.032,28.151 Z" id="Shape" fill="#000000" fill-rule="nonzero"/><path d="M15.938,20.082 C15.1215359,20.0838136 14.3387068,19.756914 13.766,19.175 C12.5753454,17.9663085 12.5753454,16.0256915 13.766,14.817 L24.486,4.007 C24.7360196,3.74620245 25.10727,3.640541 25.4571474,3.73060214 C25.8070247,3.82066328 26.0811193,4.09244155 26.1741463,4.44154198 C26.2671734,4.7906424 26.1646664,5.16277619 25.906,5.415 L15.187,16.226 C14.767089,16.6538497 14.767089,17.3391503 15.187,17.767 C15.6048175,18.1724196 16.2691825,18.1724196 16.687,17.767 L24,10.393 C24.1999554,10.191219 24.4762934,10.0840029 24.7600158,10.0981223 C25.0437382,10.1122416 25.308066,10.2463637 25.487,10.467 C26.5037037,11.6607654 27.9251667,12.4373714 29.479,12.648 C30.9335026,12.640824 32.3117686,11.9964636 33.25,10.885 C33.6407136,10.5040179 34.2647219,10.5066283 34.6522343,10.890866 C35.0397467,11.2751037 35.0476526,11.8990673 34.67,12.293 C33.3313283,13.8171901 31.391353,14.6773298 29.363,14.646 C27.612658,14.4869712 25.9683705,13.7376443 24.7,12.521 L18.108,19.175 C17.5359727,19.7567042 16.7538385,20.0836147 15.938,20.082 Z" id="Shape" fill="#000000" fill-rule="nonzero"/></g></g></svg>
