<?xml version="1.0" encoding="UTF-8"?>
<svg xmlns="http://www.w3.org/2000/svg" xmlns:xlink="http://www.w3.org/1999/xlink" width="512" height="512" viewBox="0 0 60 60" version="1.1"><!-- Generator: Sketch 51.3 (57544) - http://www.bohemiancoding.com/sketch --><title>065 - Study</title><desc>Created with Sketch.</desc><defs/><g id="Page-1" stroke="none" stroke-width="1" fill="none" fill-rule="evenodd"><g id="065---Study" transform="translate(-1.000000, 0.000000)" fill-rule="nonzero"><path d="M41.213,22.22 C39.943,21.57 38.672,23.5 38.672,23.5 L38.593,23.49 C38.7559709,20.4955491 38.7559709,17.4944509 38.593,14.5 C38,1.64 23.193,1 23.193,1 L20.813,1 C20.813,1 6,1.64 5.412,14.5 C5.24902908,17.4944509 5.24902908,20.4955491 5.412,23.49 L5.333,23.5 C5.333,23.5 4.063,21.57 2.792,22.22 C1.533,22.85 2.153,28.64 2.153,28.64 C2.153,28.64 2.783,33.1 6.533,35.04 C6.373,38.76 6.093,42.14 10.153,46 C10.6353309,46.4549126 11.0926674,46.9356167 11.523,47.44 L11.523,56.96 C11.5229862,58.060676 12.4123377,58.9544966 13.513,58.96 L30.493,58.96 C31.5932713,58.9539484 32.4820166,58.060288 32.482,56.96 L32.482,47.44 C32.9126018,46.9358594 33.3699249,46.4551694 33.852,46 C37.912,42.14 37.633,38.76 37.472,35.04 C41.222,33.1 41.852,28.64 41.852,28.64 C41.852,28.64 42.472,22.85 41.213,22.22 Z" id="Shape" fill="#4FBA6F"/><path d="M6.593,33.14 C6.593,33.79 6.573,34.42 6.533,35.04 C2.783,33.1 2.153,28.64 2.153,28.64 C2.153,28.64 1.533,22.85 2.792,22.22 C4.063,21.57 5.333,23.5 5.333,23.5 L5.412,23.49 C5.732,28.45 6.593,30.02 6.593,33.14 Z" id="Shape" fill="#008A00"/><path d="M38.59,23.49 C38.27,28.45 37.41,30.02 37.41,33.14 C37.41,33.79 37.43,34.42 37.47,35.04 C37.63,38.76 37.91,42.14 33.85,46 C33.3674124,46.4546547 32.9100622,46.9353732 32.48,47.44 C29.06,51.41 28.6,55 24.37,55 L19.63,55 C15.4,55 14.94,51.41 11.52,47.44 C11.0899378,46.9353732 10.6325876,46.4546547 10.15,46 C6.09,42.14 6.37,38.76 6.53,35.04 C6.57,34.42 6.59,33.79 6.59,33.14 C6.59,30.02 5.73,28.45 5.41,23.49 C5.2465184,20.495563 5.2465184,17.494437 5.41,14.5 C5.95,2.75 18.37,1.2 20.5,1.02 C20.7,1 20.81,1 20.81,1 L23.19,1 C23.19,1 38,1.64 38.59,14.5 C38.7534816,17.494437 38.7534816,20.495563 38.59,23.49 Z" id="Shape" fill="#60A917"/><path d="M35.59,23.49 C35.27,28.45 34.41,30.02 34.41,33.14 C34.41,33.79 34.43,34.42 34.47,35.04 C34.63,38.76 34.91,42.14 30.85,46 C30.3674124,46.4546547 29.9100622,46.9353732 29.48,47.44 C26.06,51.41 25.6,55 21.37,55 L19.63,55 C15.4,55 14.94,51.41 11.52,47.44 C11.0899378,46.9353732 10.6325876,46.4546547 10.15,46 C6.09,42.14 6.37,38.76 6.53,35.04 C6.57,34.42 6.59,33.79 6.59,33.14 C6.59,30.02 5.73,28.45 5.41,23.49 C5.2465184,20.495563 5.2465184,17.494437 5.41,14.5 C5.95,2.75 18.37,1.2 20.5,1.02 C22.63,1.2 35.05,2.75 35.59,14.5 C35.7534816,17.494437 35.7534816,20.495563 35.59,23.49 Z" id="Shape" fill="#60A917"/><path d="M41.852,28.64 C41.852,28.64 41.222,33.1 37.472,35.04 C37.433,34.42 37.412,33.79 37.412,33.14 C37.412,30.02 38.273,28.45 38.593,23.49 L38.672,23.5 C38.672,23.5 39.943,21.57 41.213,22.22 C42.472,22.85 41.852,28.64 41.852,28.64 Z" id="Shape" fill="#802D40"/><path d="M32.482,47.44 L32.482,56.96 C32.4820138,58.060676 31.5926623,58.9544966 30.492,58.96 L13.513,58.96 C12.4123377,58.9544966 11.5229862,58.060676 11.523,56.96 L11.523,47.44 C14.943,51.41 15.403,55 19.633,55 L24.373,55 C28.6,55 29.063,51.41 32.482,47.44 Z" id="Shape" fill="#008A00"/><path d="M60,8.94 L60,33.06 C60.0016663,33.5759388 59.5859271,33.9961483 59.07,34 L44.93,34 C44.6830344,33.9996049 44.4458773,34.0966237 44.27,34.27 C44.1988832,34.3425328 44.1413103,34.4271988 44.1,34.52 C44.0318986,34.6457682 43.9974517,34.7870002 44,34.93 L44,36.06 C44.0016663,36.5759388 43.5859271,36.9961483 43.07,37 L36.94,37 C36.4240729,36.9961483 36.0083337,36.5759388 36.01,36.06 L36.01,34.93 C36.0030068,34.4192999 35.5907001,34.0069932 35.08,34 L20.93,34 C20.4140729,33.9961483 19.9983337,33.5759388 20,33.06 L20,8.94 C19.9983337,8.42406122 20.4140729,8.00385173 20.93,8 L59.07,8 C59.5859271,8.00385173 60.0016663,8.42406122 60,8.94 Z" id="Shape" fill="#624421"/><path d="M57,9.01 L57,32.768 C57.0203201,33.303065 56.6049214,33.754197 56.07,33.778 L44.93,33.778 C44.6792034,33.7784853 44.4399842,33.8835968 44.27,34.068 C44.0944442,34.2622167 43.9981015,34.5152055 44,34.777 L44,35.99 C43.9973424,36.1261365 43.9737323,36.2610515 43.93,36.39 C43.7914841,36.7476017 43.4532466,36.9883009 43.07,37.002 L36.94,37.002 C36.5567534,36.9883009 36.2185159,36.7476017 36.08,36.39 C36.0362677,36.2610515 36.0126576,36.1261365 36.01,35.99 L36.01,34.777 C36.0263556,34.2451574 35.61163,33.799216 35.08,33.777 L20.93,33.777 C20.3950786,33.753197 19.9796799,33.302065 20,32.767 L20,9.01 C19.9796799,8.47493497 20.3950786,8.02380303 20.93,8 L56.07,8 C56.6049214,8.02380303 57.0203201,8.47493497 57,9.01 Z" id="Shape" fill="#825A2C"/><path d="M40,29 L40,30 L24.89,30 C24.3694873,29.96675 23.9726413,29.5208555 24,29 L24,25 L36.44,25 C38.5241095,25.1287716 40.1138736,26.9150234 40,29 Z" id="Shape" fill="#FFDC00"/><path d="M40,8.73 L40,29 C40.1138736,26.9150234 38.5241095,25.1287716 36.44,25 L24,25 L24,5.93 C23.991044,5.42823563 24.3883267,5.01309761 24.89,5 L36.44,5 C37.4068008,5.02228241 38.3251202,5.42784732 38.9928054,6.12741633 C39.6604905,6.82698534 40.0228082,7.76321146 40,8.73 Z" id="Shape" fill="#FFDC00"/><path d="M56,5.93 L56,25 L43.56,25 C41.4758905,25.1287716 39.8861264,26.9150234 40,29 L40,8.73 C39.9771918,7.76321146 40.3395095,6.82698534 41.0071946,6.12741633 C41.6748798,5.42784732 42.5931992,5.02228241 43.56,5 L55.11,5 C55.6116733,5.01309761 56.008956,5.42823563 56,5.93 Z" id="Shape" fill="#FDD834"/><path d="M53,5.93 L53,25 L40.56,25 C40.3722796,25.0013141 40.1849839,25.0180369 40,25.05 L40,8.73 C39.9771918,7.76321146 40.3395095,6.82698534 41.0071946,6.12741633 C41.6748798,5.42784732 42.5931992,5.02228241 43.56,5 L52.11,5 C52.6116733,5.01309761 53.008956,5.42823563 53,5.93 Z" id="Shape" fill="#FFEB3A"/><path d="M56,25 L56,29 C56.0273587,29.5208555 55.6305127,29.96675 55.11,30 L40,30 L40,29 C39.8861264,26.9150234 41.4758905,25.1287716 43.56,25 L56,25 Z" id="Shape" fill="#FEC108"/><path d="M53,25 L53,29 C53.0273587,29.5208555 52.6305127,29.96675 52.11,30 L40,30 L40,29 C39.8861264,26.9150234 41.4758905,25.1287716 43.56,25 L53,25 Z" id="Shape" fill="#FFDC00"/><path d="M6.53,36.076 C6.37067056,36.0760148 6.21364387,36.0379581 6.072,35.965 C1.907,33.813 1.192,29.026 1.164,28.823 C0.842,25.835 0.788,22.147 2.339,21.365 C3.968,20.538 5.511,21.996 6.166,22.988 C6.45864172,23.4487382 6.32777555,24.0590241 5.87195367,24.359266 C5.41613178,24.659508 4.80375962,24.5387803 4.496,24.088 C4.205,23.653 3.601,23.101 3.307,23.128 C2.97,23.72 2.894,26.2 3.148,28.576 C3.148,28.576 3.759,32.517 6.99,34.186 C7.39951073,34.3980617 7.61090029,34.8626656 7.50173467,35.3107193 C7.39256905,35.7587729 6.99116073,36.0740722 6.53,36.074 L6.53,36.076 Z" id="Shape" fill="#000000"/><path d="M24.37,56.04 L19.63,56.04 C16.158,56.04 14.786,53.933 13.197,51.491 C12.152706,49.7669717 10.8977094,48.1797503 9.461,46.766 C5.191,42.711 5.361,38.977 5.524,35.366 C5.557,34.651 5.59,33.925 5.59,33.181 C5.56909313,31.8555116 5.41871188,30.5352379 5.141,29.239 C4.665,26.617 4.013,23.026 4.411,14.494 C5.036,0.878 20.61,0.048 20.767,0.041 L23.19,0.041 C23.5,0.054 29.829,0.37 34.571,4.225 C34.8482381,4.45043458 34.9841488,4.8066495 34.9275357,5.15946204 C34.8709227,5.51227458 34.6303869,5.80808412 34.2965357,5.93546206 C33.9626846,6.06284 33.5862381,6.00243461 33.309,5.777 C29.075,2.335 23.209,2.043 23.146,2.04 L20.81,2.04 C20.287,2.064 6.949,2.805 6.41,14.586 C6.022,22.892 6.625,26.213 7.11,28.886 C7.41069164,30.3001556 7.57212921,31.7403663 7.592,33.186 C7.592,33.961 7.558,34.718 7.524,35.462 C7.361,39.057 7.232,41.896 10.84,45.32 C12.3878619,46.8415337 13.7427004,48.5476764 14.874,50.4 C16.517,52.924 17.339,54.04 19.63,54.04 L24.37,54.04 C26.661,54.04 27.483,52.924 29.126,50.4 C30.2575158,48.5454611 31.6130448,46.8372796 33.162,45.314 C35.5678216,43.2623957 36.8243506,40.1680813 36.53,37.02 C36.5246423,36.7547683 36.6248944,36.4982768 36.8086913,36.3069779 C36.9924883,36.1156791 37.2447662,36.0052516 37.51,36 C38.0595396,35.9959113 38.5121126,36.4307364 38.53,36.98 C38.8267957,40.6903206 37.3459175,44.321459 34.539,46.766 C33.1012364,48.1795735 31.845226,49.7668026 30.8,51.491 C29.214,53.933 27.842,56.04 24.37,56.04 Z" id="Shape" fill="#000000"/><path d="M30.487,60 L13.513,60 C11.8561458,60 10.513,58.6568542 10.513,57 L10.513,47.48 C10.513,46.9277153 10.9607153,46.48 11.513,46.48 C12.0652847,46.48 12.513,46.9277153 12.513,47.48 L12.513,57 C12.513,57.5522847 12.9607153,58 13.513,58 L30.487,58 C31.0392847,58 31.487,57.5522847 31.487,57 L31.487,47.48 C31.487,46.9277153 31.9347153,46.4800001 32.487,46.4800001 C33.0392847,46.4800001 33.487,46.9277153 33.487,47.48 L33.487,57 C33.487,58.6568542 32.1438542,60 30.487,60 Z" id="Shape" fill="#000000"/><path d="M40.61,7.635 C40.0577153,7.635 39.61,7.18728475 39.61,6.635 L39.61,6.63 C39.61,6.07771525 40.0577153,5.63 40.61,5.63 C41.1622847,5.63 41.61,6.07771525 41.61,6.63 C41.61,7.18228475 41.1622847,7.63 40.61,7.63 L40.61,7.635 Z" id="Shape" fill="#000000"/><path d="M38.86,7 C38.4506391,7.0005125 38.0823043,6.75147379 37.9302713,6.37139146 C37.7782384,5.99130913 37.8732128,5.55694673 38.17,5.275 C38.4623028,4.99801926 38.8905055,4.91959385 39.262,5.075 C39.7060007,5.25728261 39.9578762,5.72930596 39.862104,6.19961573 C39.7663318,6.66992549 39.3499263,7.00586252 38.87,7 L38.86,7 Z" id="Shape" fill="#000000"/><path d="M40,32 C39.4477153,32 39,31.5522847 39,31 L39,8.728 C39.0443759,7.27004075 37.9017588,6.05053396 36.444,6 L25,6 L25,25.5 C25,26.0522847 24.5522847,26.5 24,26.5 C23.4477153,26.5 23,26.0522847 23,25.5 L23,5.932 C22.9888899,4.8771666 23.8341837,4.01263109 24.889,4 L36.444,4 C39.0062259,4.05088698 41.0440535,6.16564748 41,8.728 L41,31 C41,31.5522847 40.5522847,32 40,32 Z" id="Shape" fill="#000000"/><path d="M40,31 L24.889,31 C23.8159865,30.9673327 22.971412,30.0731299 23,29 L23,25 C23,24.4477153 23.4477153,24 24,24 L36.444,24 C39.0785544,24.1316604 41.1131979,26.3645877 41,29 L41,30 C41,30.5522847 40.5522847,31 40,31 Z M25,29 L39,29 C39.1107515,27.4696139 37.9725523,26.1336993 36.444,26 L25,26 L25,29 Z" id="Shape" fill="#000000"/><path d="M43.069,38 L36.944,38 C35.876501,37.9977934 35.012446,37.1315012 35.013,36.064 L35.013,34.933 L20.932,35 C19.863558,34.997793 18.998894,34.1304438 19,33.062 L19,8.936 C18.9999977,7.86833688 19.8643392,7.00220592 20.932,7 L23.732,7 C24.2842847,7 24.732,7.44771525 24.732,8 C24.732,8.55228475 24.2842847,9 23.732,9 L20.932,9 L21,33.062 L35.081,33 C36.1486608,33.0022059 37.0130023,33.8683369 37.013,34.936 L37.013,36.067 L43.069,36 L43,34.933 C43.0016519,33.8661186 43.8661186,33.0016519 44.933,33 L59.068,33 L59,8.936 L57.272,9 C56.7197153,9 56.272,8.55228475 56.272,8 C56.272,7.44771525 56.7197153,7 57.272,7 L59.072,7 C60.1383267,7.00385739 61.0005581,7.86966651 61,8.936 L61,33.062 C61.0007963,33.5751941 60.797694,34.0676853 60.4353736,34.431131 C60.0730532,34.7945766 59.5811941,34.999205 59.068,35 L44.933,35 L45,36.064 C45.000554,37.1315012 44.136499,37.9977934 43.069,38 Z" id="Shape" fill="#000000"/><path d="M40,33.954 C39.4477153,33.954 39,33.5062847 39,32.954 L39,31.091 C39,30.5387153 39.4477153,30.091 40,30.091 C40.5522847,30.091 41,30.5387153 41,31.091 L41,32.954 C41,33.5062847 40.5522847,33.954 40,33.954 Z" id="Shape" fill="#000000"/><path d="M36,11 L28,11 C27.4477153,11 27,10.5522847 27,10 C27,9.44771525 27.4477153,9 28,9 L36,9 C36.5522847,9 37,9.44771525 37,10 C37,10.5522847 36.5522847,11 36,11 Z" id="Shape" fill="#000000"/><path d="M36,16 L28,16 C27.4477153,16 27,15.5522847 27,15 C27,14.4477153 27.4477153,14 28,14 L36,14 C36.5522847,14 37,14.4477153 37,15 C37,15.5522847 36.5522847,16 36,16 Z" id="Shape" fill="#000000"/><path d="M36,21 L28,21 C27.4477153,21 27,20.5522847 27,20 C27,19.4477153 27.4477153,19 28,19 L36,19 C36.5522847,19 37,19.4477153 37,20 C37,20.5522847 36.5522847,21 36,21 Z" id="Shape" fill="#000000"/><path d="M40,32 C39.4477153,32 39,31.5522847 39,31 L39,8.728 C38.9559465,6.16564748 40.9937741,4.05088698 43.556,4 L55.111,4 C56.1655819,4.0131787 57.0105573,4.87738862 57,5.932 L57,25.5 C57,26.0522847 56.5522847,26.5 56,26.5 C55.4477153,26.5 55,26.0522847 55,25.5 L55,6 L43.556,6 C42.0982412,6.05053396 40.9556241,7.27004075 41,8.728 L41,31 C41,31.5522847 40.5522847,32 40,32 Z" id="Shape" fill="#000000"/><path d="M55.111,31 L40,31 C39.4477153,31 39,30.5522847 39,30 L39,29 C38.8868021,26.3645877 40.9214456,24.1316604 43.556,24 L56,24 C56.5522847,24 57,24.4477153 57,25 L57,29 C57.028588,30.0731299 56.1840135,30.9673327 55.111,31 Z M41,29 L54.991,29 L55,26 L43.556,26 C42.0274477,26.1336993 40.8892485,27.4696139 41,29 Z" id="Shape" fill="#000000"/><path d="M52,11 L44,11 C43.4477153,11 43,10.5522847 43,10 C43,9.44771525 43.4477153,9 44,9 L52,9 C52.5522847,9 53,9.44771525 53,10 C53,10.5522847 52.5522847,11 52,11 Z" id="Shape" fill="#000000"/><path d="M52,16 L44,16 C43.4477153,16 43,15.5522847 43,15 C43,14.4477153 43.4477153,14 44,14 L52,14 C52.5522847,14 53,14.4477153 53,15 C53,15.5522847 52.5522847,16 52,16 Z" id="Shape" fill="#000000"/><path d="M52,21 L44,21 C43.4477153,21 43,20.5522847 43,20 C43,19.4477153 43.4477153,19 44,19 L52,19 C52.5522847,19 53,19.4477153 53,20 C53,20.5522847 52.5522847,21 52,21 Z" id="Shape" fill="#000000"/></g></g></svg>
