<?xml version="1.0" encoding="UTF-8"?>
<svg xmlns="http://www.w3.org/2000/svg" xmlns:xlink="http://www.w3.org/1999/xlink" width="512" height="512" viewBox="0 0 57 60" version="1.1"><!-- Generator: Sketch 51.3 (57544) - http://www.bohemiancoding.com/sketch --><title>066 - Analyse</title><desc>Created with Sketch.</desc><defs/><g id="Page-1" stroke="none" stroke-width="1" fill="none" fill-rule="evenodd"><g id="066---Analyse" transform="translate(-1.000000, 0.000000)" fill-rule="nonzero"><path d="M6.588,33.14 C6.588,33.79 6.567,34.42 6.528,35.04 C2.778,33.1 2.148,28.64 2.148,28.64 C2.148,28.64 1.528,22.85 2.787,22.22 C4.057,21.57 5.328,23.5 5.328,23.5 L5.407,23.49 C5.727,28.45 6.588,30.02 6.588,33.14 Z" id="Shape" fill="#283593"/><path d="M38.59,23.49 C38.27,28.45 37.41,30.02 37.41,33.14 C37.41,33.79 37.43,34.42 37.47,35.04 C37.63,38.76 37.91,42.14 33.85,46 C33.3674124,46.4546547 32.9100622,46.9353732 32.48,47.44 C29.06,51.41 28.6,55 24.37,55 L19.63,55 C15.4,55 14.94,51.41 11.52,47.44 C11.0899378,46.9353732 10.6325876,46.4546547 10.15,46 C6.09,42.14 6.37,38.76 6.53,35.04 C6.57,34.42 6.59,33.79 6.59,33.14 C6.59,30.02 5.73,28.45 5.41,23.49 C5.2465184,20.495563 5.2465184,17.494437 5.41,14.5 C5.95,2.75 18.37,1.2 20.5,1.02 C20.7,1 20.81,1 20.81,1 L23.19,1 C23.19,1 38,1.64 38.59,14.5 C38.7534816,17.494437 38.7534816,20.495563 38.59,23.49 Z" id="Shape" fill="#283593"/><path d="M35.59,23.49 C35.27,28.45 34.41,30.02 34.41,33.14 C34.41,33.79 34.43,34.42 34.47,35.04 C34.63,38.76 34.91,42.14 30.85,46 C30.3674124,46.4546547 29.9100622,46.9353732 29.48,47.44 C26.06,51.41 25.6,55 21.37,55 L19.63,55 C15.4,55 14.94,51.41 11.52,47.44 C11.0899378,46.9353732 10.6325876,46.4546547 10.15,46 C6.09,42.14 6.37,38.76 6.53,35.04 C6.57,34.42 6.59,33.79 6.59,33.14 C6.59,30.02 5.73,28.45 5.41,23.49 C5.2465184,20.495563 5.2465184,17.494437 5.41,14.5 C5.95,2.75 18.37,1.2 20.5,1.02 C22.63,1.2 35.05,2.75 35.59,14.5 C35.7534816,17.494437 35.7534816,20.495563 35.59,23.49 Z" id="Shape" fill="#3F51B5"/><path d="M32.477,47.44 L32.477,56.96 C32.4770138,58.060676 31.5876623,58.9544966 30.487,58.96 L13.507,58.96 C12.4067287,58.9539484 11.5179834,58.060288 11.518,56.96 L11.518,47.44 C14.937,51.41 15.4,55 19.627,55 L24.367,55 C28.6,55 29.057,51.41 32.477,47.44 Z" id="Shape" fill="#283593"/><path d="M46,18 C46.0057593,20.901156 45.0334107,23.7195577 43.24,26 L42,27.37 C40.843805,28.4902656 39.4867728,29.3825143 38,30 L34,30.96 C33.67,30.99 33.34,31 33,31 C32.4349152,30.9988714 31.8704632,30.9621319 31.31,30.89 C28.470706,30.5164189 25.8342223,29.2157536 23.81,27.19 L33,18 L33,5 C40.1797017,5 46,10.8202983 46,18 Z" id="Shape" fill="#6A1B9A"/><path d="M43,18 C43.0057593,20.901156 42.0334107,23.7195577 40.24,26 L39,27.37 C37.843805,28.4902656 36.4867728,29.3825143 35,30 L31.31,30.89 C28.470706,30.5164189 25.8342223,29.2157536 23.81,27.19 L33,18 L33,5.35 C38.8617607,6.74023861 43.0004121,11.9756327 43,18 Z" id="Shape" fill="#9D27B0"/><path d="M19.9999953,18 C19.9970793,21.4481626 21.3681879,24.7553773 23.81,27.19 L33,18 L19.9999953,18 Z" id="Shape" fill="#FFDC00"/><path d="M20,18 L33,18 L33,5 C25.8202983,5 20,10.8202983 20,18 Z" id="Shape" fill="#F44335"/><path d="M34,22 L38,22 L38,35 C38,35.5522847 37.5522847,36 37,36 L35,36 C34.4477153,36 34,35.5522847 34,35 L34,22 Z" id="Shape" fill="#02A9F4" transform="translate(36.000000, 29.000000) rotate(-180.000000) translate(-36.000000, -29.000000) "/><path d="M42,26 L46,26 L46,35 C46,35.5522847 45.5522847,36 45,36 L43,36 C42.4477153,36 42,35.5522847 42,35 L42,26 Z" id="Shape" fill="#FFDC00" transform="translate(44.000000, 31.000000) rotate(-180.000000) translate(-44.000000, -31.000000) "/><path d="M50,30 L54,30 L54,35 C54,35.5522847 53.5522847,36 53,36 L51,36 C50.4477153,36 50,35.5522847 50,35 L50,30 Z" id="Shape" fill="#02A9F4" transform="translate(52.000000, 33.000000) rotate(-180.000000) translate(-52.000000, -33.000000) "/><path d="M6.529,36.036 C6.36970273,36.0357464 6.21273817,35.9977047 6.071,35.925 C1.907,33.773 1.192,28.986 1.164,28.783 C0.842,25.795 0.789,22.106 2.34,21.325 C3.97,20.498 5.511,21.956 6.166,22.948 C6.45864172,23.4087382 6.32777555,24.0190241 5.87195367,24.319266 C5.41613178,24.619508 4.80375962,24.4987803 4.496,24.048 C4.205,23.614 3.64,23.071 3.307,23.089 C2.97,23.68 2.894,26.16 3.148,28.536 C3.148,28.536 3.759,32.477 6.989,34.145 C7.39965725,34.3565193 7.61199718,34.8217883 7.50270399,35.2706031 C7.39341079,35.719418 6.99092951,36.0349687 6.529,36.034 L6.529,36.036 Z" id="Shape" fill="#000000"/><path d="M24.37,56 L19.63,56 C16.158,56 14.785,53.892 13.196,51.451 C12.1524813,49.7269775 10.8981461,48.1397429 9.462,46.726 C5.191,42.671 5.362,38.937 5.524,35.326 C5.557,34.611 5.59,33.885 5.59,33.141 C5.56902808,31.8158462 5.41864719,30.4959106 5.141,29.2 C4.664,26.579 4.013,22.987 4.411,14.455 C5.036,0.838 20.609,0.008 20.767,0 L23.19,0 C23.505,0.013 29.944,0.33 34.698,4.28 C34.9785795,4.50639863 35.1155708,4.86630136 35.0565443,5.22196565 C34.9975179,5.57762993 34.751613,5.87398676 34.4129427,5.99761395 C34.0742725,6.12124115 33.6952747,6.05299699 33.421,5.819 C29.18,2.3 23.208,2 23.147,2 L20.81,2 C20.286,2.024 6.949,2.765 6.41,14.546 C6.022,22.853 6.625,26.173 7.11,28.846 C7.41020531,30.2602344 7.57163752,31.7003972 7.592,33.146 C7.592,33.921 7.558,34.678 7.524,35.422 C7.361,39.016 7.232,41.855 10.841,45.28 C12.3895887,46.8027251 13.7444808,48.5106146 14.875,50.365 C16.516,52.884 17.339,54 19.63,54 L24.37,54 C26.661,54 27.484,52.884 29.127,50.359 C30.2575192,48.5046146 31.6124113,46.7967251 33.161,45.274 C36.487,42.119 36.644,39.458 36.501,36.042 C36.4859948,35.6847344 36.6627284,35.3466022 36.9646269,35.1549746 C37.2665254,34.963347 37.6477233,34.9473366 37.9646269,35.1129746 C38.2815306,35.2786125 38.4859948,35.6007344 38.501,35.958 C38.655,39.647 38.463,43.004 34.54,46.726 C33.1017454,48.1393892 31.8453826,49.7266391 30.8,51.451 C29.215,53.892 27.842,56 24.37,56 Z" id="Shape" fill="#000000"/><path d="M30.487,59.96 L13.513,59.96 C11.8561458,59.96 10.513,58.6168542 10.513,56.96 L10.513,47.44 C10.513,46.8877153 10.9607153,46.44 11.513,46.44 C12.0652847,46.44 12.513,46.8877153 12.513,47.44 L12.513,56.96 C12.513,57.5122847 12.9607153,57.96 13.513,57.96 L30.487,57.96 C31.0392847,57.96 31.487,57.5122847 31.487,56.96 L31.487,47.44 C31.487,46.8877153 31.9347153,46.44 32.487,46.44 C33.0392847,46.44 33.487,46.8877153 33.487,47.44 L33.487,56.96 C33.487,58.6168542 32.1438542,59.96 30.487,59.96 Z" id="Shape" fill="#000000"/><path d="M38,31 C37.5229402,30.9998129 37.1124423,30.6626696 37.0195381,30.1947435 C36.9266338,29.7268174 37.1771967,29.258424 37.618,29.076 C38.9892787,28.5070603 40.2405972,27.6839316 41.306,26.65 C41.703645,26.2667144 42.3367144,26.278355 42.72,26.676 C43.1032856,27.073645 43.091645,27.7067144 42.694,28.09 C41.4485365,29.2985004 39.9854078,30.2601207 38.382,30.924 C38.2609554,30.9743783 38.1311096,31.0002115 38,31 Z" id="Shape" fill="#000000"/><path d="M33,32 C25.2680135,32 19,25.7319865 19,18 C19,10.2680135 25.2680135,4 33,4 C40.7319865,4 47,10.2680135 47,18 C47.0129442,21.1265214 45.9644313,24.164882 44.026,26.618 C43.6815407,27.0413236 43.0612842,27.1102834 42.632256,26.7729559 C42.2032278,26.4356284 42.1238987,25.8166127 42.454,25.382 C44.1134467,23.2802714 45.011002,20.6778546 45,18 C45,11.372583 39.627417,6 33,6 C26.372583,6 21,11.372583 21,18 C21,24.627417 26.372583,30 33,30 C33.309,30 33.608,29.991 33.908,29.964 C34.4580756,29.9131898 34.9451898,30.3179244 34.996,30.868 C35.0468102,31.4180756 34.6420756,31.9051898 34.092,31.956 C33.731,31.989 33.371,32 33,32 Z" id="Shape" fill="#000000"/><path d="M33,19 C32.4477153,19 32,18.5522847 32,18 L32,5 C32,4.44771525 32.4477153,4 33,4 C33.5522847,4 34,4.44771525 34,5 L34,18 C34,18.5522847 33.5522847,19 33,19 Z" id="Shape" fill="#000000"/><path d="M33,19 L20,19 C19.4477153,19 19,18.5522847 19,18 C19,17.4477153 19.4477153,17 20,17 L33,17 C33.5522847,17 34,17.4477153 34,18 C34,18.5522847 33.5522847,19 33,19 Z" id="Shape" fill="#000000"/><path d="M23.808,28.192 C23.4036041,28.1919137 23.0390659,27.9482725 22.884322,27.5746546 C22.7295781,27.2010366 22.8150921,26.7709943 23.101,26.485 L32.293,17.293 C32.6853789,16.9140278 33.3090848,16.9194476 33.6948186,17.3051814 C34.0805524,17.6909152 34.0859722,18.3146211 33.707,18.707 L24.515,27.9 C24.3273437,28.0871827 24.0730514,28.1922087 23.808,28.192 Z" id="Shape" fill="#000000"/><path d="M38,37 L34,37 C33.4477153,37 33,36.5522847 33,36 L33,23 C33,21.8954305 33.8954305,21 35,21 L37,21 C38.1045695,21 39,21.8954305 39,23 L39,36 C39,36.5522847 38.5522847,37 38,37 Z M35,35 L37,35 L37,23 L35,23 L35,35 Z" id="Shape" fill="#000000"/><path d="M46,37 L42,37 C41.4477153,37 41,36.5522847 41,36 L41,27 C41,25.8954305 41.8954305,25 43,25 L45,25 C46.1045695,25 47,25.8954305 47,27 L47,36 C47,36.5522847 46.5522847,37 46,37 Z M43,35 L45,35 L45,27 L43,27 L43,35 Z" id="Shape" fill="#000000"/><path d="M54,37 L50,37 C49.4477153,37 49,36.5522847 49,36 L49,31 C49,29.8954305 49.8954305,29 51,29 L53,29 C54.1045695,29 55,29.8954305 55,31 L55,36 C55,36.5522847 54.5522847,37 54,37 Z M51,35 L53,35 L53,31 L51,31 L51,35 Z" id="Shape" fill="#000000"/><path d="M57,37 L31,37 C30.4477153,37 30,36.5522847 30,36 C30,35.4477153 30.4477153,35 31,35 L57,35 C57.5522847,35 58,35.4477153 58,36 C58,36.5522847 57.5522847,37 57,37 Z" id="Shape" fill="#000000"/></g></g></svg>
