<?xml version="1.0" encoding="UTF-8"?>
<svg xmlns="http://www.w3.org/2000/svg" xmlns:xlink="http://www.w3.org/1999/xlink" width="512" height="512" viewBox="0 0 60 60" version="1.1"><!-- Generator: Sketch 51.3 (57544) - http://www.bohemiancoding.com/sketch --><title>067 - Open Mind</title><desc>Created with Sketch.</desc><defs/><g id="Page-1" stroke="none" stroke-width="1" fill="none" fill-rule="evenodd"><g id="067---Open-Mind" transform="translate(-1.000000, 0.000000)" fill-rule="nonzero"><path d="M41.213,22.22 C39.943,21.57 38.672,23.5 38.672,23.5 L38.593,23.49 C38.7559709,20.4955491 38.7559709,17.4944509 38.593,14.5 C38,1.64 23.193,1 23.193,1 L20.813,1 C20.813,1 6,1.64 5.412,14.5 C5.24902908,17.4944509 5.24902908,20.4955491 5.412,23.49 L5.333,23.5 C5.333,23.5 4.063,21.57 2.792,22.22 C1.533,22.85 2.153,28.64 2.153,28.64 C2.153,28.64 2.783,33.1 6.533,35.04 C6.373,38.76 6.093,42.14 10.153,46 C10.6353309,46.4549126 11.0926674,46.9356167 11.523,47.44 L11.523,56.96 C11.5229862,58.060676 12.4123377,58.9544966 13.513,58.96 L30.493,58.96 C31.5932713,58.9539484 32.4820166,58.060288 32.482,56.96 L32.482,47.44 C32.9126018,46.9358594 33.3699249,46.4551694 33.852,46 C37.912,42.14 37.633,38.76 37.472,35.04 C41.222,33.1 41.852,28.64 41.852,28.64 C41.852,28.64 42.472,22.85 41.213,22.22 Z" id="Shape" fill="#35495E"/><path d="M38.59,23.49 C38.27,28.45 37.41,30.02 37.41,33.14 C37.41,33.79 37.43,34.42 37.47,35.04 C37.63,38.76 37.91,42.14 33.85,46 C33.3674124,46.4546547 32.9100622,46.9353732 32.48,47.44 C29.06,51.41 28.6,55 24.37,55 L19.63,55 C15.4,55 14.94,51.41 11.52,47.44 C11.0899378,46.9353732 10.6325876,46.4546547 10.15,46 C6.09,42.14 6.37,38.76 6.53,35.04 C6.57,34.42 6.59,33.79 6.59,33.14 C6.59,30.02 5.73,28.45 5.41,23.49 C5.2465184,20.495563 5.2465184,17.494437 5.41,14.5 C5.95,2.75 18.37,1.2 20.5,1.02 C20.7,1 20.81,1 20.81,1 L23.19,1 C23.19,1 38,1.64 38.59,14.5 C38.7534816,17.494437 38.7534816,20.495563 38.59,23.49 Z" id="Shape" fill="#283593"/><path d="M35.59,23.49 C35.27,28.45 34.41,30.02 34.41,33.14 C34.41,33.79 34.43,34.42 34.47,35.04 C34.63,38.76 34.91,42.14 30.85,46 C30.3674124,46.4546547 29.9100622,46.9353732 29.48,47.44 C26.06,51.41 25.6,55 21.37,55 L19.63,55 C15.4,55 14.94,51.41 11.52,47.44 C11.0899378,46.9353732 10.6325876,46.4546547 10.15,46 C6.09,42.14 6.37,38.76 6.53,35.04 C6.57,34.42 6.59,33.79 6.59,33.14 C6.59,30.02 5.73,28.45 5.41,23.49 C5.2465184,20.495563 5.2465184,17.494437 5.41,14.5 C5.95,2.75 18.37,1.2 20.5,1.02 C22.63,1.2 35.05,2.75 35.59,14.5 C35.7534816,17.494437 35.7534816,20.495563 35.59,23.49 Z" id="Shape" fill="#3F51B5"/><path d="M20,16 L20,23 C20,23.5522847 19.5522847,24 19,24 L17,24 C16.4477153,24 16,23.5522847 16,23 L16,16 L20,16 Z" id="Shape" fill="#FFEB3A"/><path d="M28,16 L28,23 C28,23.5522847 27.5522847,24 27,24 L25,24 C24.4477153,24 24,23.5522847 24,23 L24,16 L28,16 Z" id="Shape" fill="#FFEB3A"/><rect id="Rectangle-path" fill="#FF9801" x="20" y="16" width="4" height="4"/><path d="M6.593,33.14 C6.593,33.79 6.573,34.42 6.533,35.04 C2.783,33.1 2.153,28.64 2.153,28.64 C2.153,28.64 1.533,22.85 2.792,22.22 C4.063,21.57 5.333,23.5 5.333,23.5 L5.412,23.49 C5.732,28.45 6.593,30.02 6.593,33.14 Z" id="Shape" fill="#283593"/><path d="M41.852,28.64 C41.852,28.64 41.222,33.1 37.472,35.04 C37.433,34.42 37.412,33.79 37.412,33.14 C37.412,30.02 38.273,28.45 38.593,23.49 L38.672,23.5 C38.672,23.5 39.943,21.57 41.213,22.22 C42.472,22.85 41.852,28.64 41.852,28.64 Z" id="Shape" fill="#283593"/><path d="M32.482,47.44 L32.482,56.96 C32.4820138,58.060676 31.5926623,58.9544966 30.492,58.96 L13.513,58.96 C12.4123377,58.9544966 11.5229862,58.060676 11.523,56.96 L11.523,47.44 C14.943,51.41 15.403,55 19.633,55 L24.373,55 C28.6,55 29.063,51.41 32.482,47.44 Z" id="Shape" fill="#283593"/><path d="M60,14 C60,18.9705627 55.9705627,23 51,23 C50.5037179,23.0022899 50.0082835,22.958772 49.52,22.87 C45.9167598,22.2760814 43.031311,19.5605973 42.22,16 L14,16 C12.8967981,15.9967052 12.0032948,15.1032019 12,14 C12.0081672,12.8988312 12.8988312,12.0081672 14,12 L42.22,12 C43.031311,8.43940266 45.9167598,5.72391857 49.52,5.13 C50.0082835,5.04122799 50.5037179,4.9977101 51,5 C55.9705627,5 60,9.02943725 60,14 Z" id="Shape" fill="#FEC108"/><path d="M57,14 C56.9996513,18.3837914 53.8408187,22.1296264 49.52,22.87 C45.9167598,22.2760814 43.031311,19.5605973 42.22,16 L14,16 C12.8967981,15.9967052 12.0032948,15.1032019 12,14 C12.0081672,12.8988312 12.8988312,12.0081672 14,12 L42.22,12 C43.031311,8.43940266 45.9167598,5.72391857 49.52,5.13 C53.8408187,5.87037365 56.9996513,9.61620861 57,14 Z" id="Shape" fill="#FFDC00"/><circle id="Oval" fill="#607D8B" cx="54" cy="14" r="3"/><path d="M6.529,36.036 C6.36970273,36.0357464 6.21273817,35.9977047 6.071,35.925 C1.907,33.773 1.192,28.986 1.164,28.783 C0.842,25.8 0.789,22.106 2.34,21.325 C3.969,20.498 5.511,21.956 6.166,22.948 C6.45864172,23.4087382 6.32777555,24.0190241 5.87195367,24.319266 C5.41613178,24.619508 4.80375962,24.4987803 4.496,24.048 C4.205,23.614 3.641,23.071 3.307,23.089 C2.97,23.68 2.894,26.16 3.148,28.536 C3.148,28.536 3.759,32.477 6.989,34.145 C7.39965725,34.3565193 7.61199718,34.8217883 7.50270399,35.2706031 C7.39341079,35.719418 6.99092951,36.0349687 6.529,36.034 L6.529,36.036 Z" id="Shape" fill="#000000"/><path d="M24.37,56 L19.63,56 C16.158,56 14.785,53.892 13.196,51.451 C12.1524813,49.7269775 10.8981461,48.1397429 9.462,46.726 C5.191,42.671 5.362,38.937 5.524,35.326 C5.557,34.611 5.59,33.885 5.59,33.141 C5.56902808,31.8158462 5.41864719,30.4959106 5.141,29.2 C4.664,26.579 4.013,22.987 4.411,14.455 C5.036,0.838 20.609,0.008 20.767,0 L23.19,0 C23.369,0.007 36.862,0.712 39.247,11.789 C39.3635321,12.3288583 39.0203583,12.8609679 38.4805,12.9775 C37.9406417,13.0940321 37.4085321,12.7508583 37.292,12.211 C35.234,2.652 23.639,2.021 23.146,2 L20.81,2 C20.286,2.024 6.949,2.765 6.41,14.546 C6.022,22.853 6.625,26.173 7.11,28.846 C7.41020531,30.2602344 7.57163752,31.7003972 7.592,33.146 C7.592,33.921 7.558,34.678 7.524,35.422 C7.361,39.016 7.232,41.855 10.841,45.28 C12.3895887,46.8027251 13.7444808,48.5106146 14.875,50.365 C16.516,52.884 17.339,54 19.63,54 L24.37,54 C26.661,54 27.484,52.884 29.127,50.359 C30.2575192,48.5046146 31.6124113,46.7967251 33.161,45.274 C36.77,41.849 36.641,39.01 36.478,35.416 C36.444,34.672 36.41,33.916 36.41,33.14 C36.4303625,31.6943972 36.5917947,30.2542344 36.892,28.84 C37.6740249,24.6188601 37.9289747,20.3169602 37.651,16.033 C37.6324515,15.481733 38.0637674,15.0195449 38.615,15 C38.8818211,14.9835227 39.1436861,15.0774379 39.3392192,15.2597338 C39.5347523,15.4420296 39.6467636,15.69668 39.649,15.964 C39.9349594,20.3910265 39.6695921,24.8364319 38.859,29.198 C38.581233,30.493891 38.4308507,31.8138384 38.41,33.139 C38.41,33.883 38.443,34.609 38.476,35.324 C38.64,38.936 38.809,42.67 34.538,46.724 C33.1003161,48.1381273 31.8446241,49.7260503 30.8,51.451 C29.215,53.892 27.842,56 24.37,56 Z" id="Shape" fill="#000000"/><path d="M37.471,36.036 C37.0090705,36.0369687 36.6065892,35.721418 36.497296,35.2726031 C36.3880028,34.8237883 36.6003428,34.3585193 37.011,34.147 C40.266,32.466 40.85,28.547 40.855,28.506 C41.106,26.162 41.03,23.686 40.693,23.093 C40.367,23.043 39.793,23.618 39.502,24.053 C39.3046108,24.3509595 38.9632561,24.5209795 38.606521,24.4990152 C38.2497858,24.4770508 37.9318668,24.266439 37.772521,23.9465152 C37.6131751,23.6265913 37.6366108,23.2459595 37.834,22.948 C38.489,21.955 40.034,20.497 41.663,21.327 C43.211,22.106 43.163,25.795 42.84,28.752 C42.808,28.986 42.093,33.773 37.929,35.925 C37.7872618,35.9977047 37.6302973,36.0357464 37.471,36.036 Z" id="Shape" fill="#000000"/><path d="M30.487,59.96 L13.513,59.96 C11.8561458,59.96 10.513,58.6168542 10.513,56.96 L10.513,47.44 C10.513,46.8877153 10.9607153,46.44 11.513,46.44 C12.0652847,46.44 12.513,46.8877153 12.513,47.44 L12.513,56.96 C12.513,57.5122847 12.9607153,57.96 13.513,57.96 L30.487,57.96 C31.0392847,57.96 31.487,57.5122847 31.487,56.96 L31.487,47.44 C31.487,46.8877153 31.9347153,46.4400001 32.487,46.4400001 C33.0392847,46.4400001 33.487,46.8877153 33.487,47.44 L33.487,56.96 C33.487,58.6168542 32.1438542,59.96 30.487,59.96 Z" id="Shape" fill="#000000"/><path d="M51,28 C49.1541385,28.0043631 47.3255533,27.644491 45.619,26.941 C45.2844967,26.8077337 45.0474671,26.5049238 44.9984272,26.1482063 C44.9493873,25.7914887 45.0959101,25.4359497 45.382042,25.2173614 C45.6681739,24.998773 46.0497289,24.9508909 46.381,25.092 C50.0174003,26.5644355 54.1400281,26.1982774 57.46,24.108 C57.9250238,23.8097662 58.5437662,23.9449762 58.842,24.41 C59.1402338,24.8750238 59.0050238,25.4937662 58.54,25.792 C56.2902985,27.2355856 53.6730305,28.0020216 51,28 Z" id="Shape" fill="#000000"/><path d="M58,4.05 C57.8089283,4.04990872 57.6218824,3.99507893 57.461,3.892 C53.522252,1.37956347 48.4865974,1.36865367 44.537,3.864 C44.2354657,4.07068676 43.8451781,4.09636154 43.5191661,3.93095746 C43.193154,3.76555337 42.9833806,3.43543412 42.9720963,3.07003706 C42.960812,2.70464 43.1498156,2.36220564 43.465,2.177 C48.0711747,-0.736977701 53.9468479,-0.724895858 58.541,2.208 C58.9151133,2.44769687 59.0862052,2.90549299 58.9609975,3.33180085 C58.8357899,3.75810872 58.444314,4.05067726 58,4.05 Z" id="Shape" fill="#000000"/><path d="M51,24 C46.6241608,24.0219926 42.7485334,21.1800282 41.454,17 L14,17 C12.3431458,17 11,15.6568542 11,14 C11.0082058,12.3465566 12.3465566,11.0082058 14,11 L41.454,11 C42.9928259,6.10684947 47.9843954,3.17148194 53.0085795,4.20515574 C58.0327636,5.23882955 61.4601269,9.90630524 60.9423049,15.0095167 C60.4244829,20.1127282 56.1294148,23.9966101 51,24 Z M14,13 C13.7396157,12.9976148 13.4894558,13.1012164 13.307,13.287 C13.1105861,13.4720669 12.999469,13.7301336 13,14 C13,14.5522847 13.4477153,15 14,15 L42.22,15 C42.686736,15.0000218 43.0913846,15.3229107 43.195,15.778 C44.1000253,19.7482603 47.8429653,22.4051909 51.8895289,21.9498221 C55.9360925,21.4944532 58.9949177,18.0721048 58.9949177,14 C58.9949177,9.92789517 55.9360925,6.50554677 51.8895289,6.05017794 C47.8429653,5.59480911 44.1000253,8.25173969 43.195,12.222 C43.0913846,12.6770893 42.686736,12.9999782 42.22,13 L14,13 Z" id="Shape" fill="#000000"/><path d="M19,25 L17,25 C15.8954305,25 15,24.1045695 15,23 L15,16 C15,15.4477153 15.4477153,15 16,15 L20,15 C20.5522847,15 21,15.4477153 21,16 L21,23 C21,24.1045695 20.1045695,25 19,25 Z M17,17 L17,23 L19,23 L19,17 L17,17 Z" id="Shape" fill="#000000"/><path d="M27,25 L25,25 C23.8954305,25 23,24.1045695 23,23 L23,16 C23,15.4477153 23.4477153,15 24,15 L28,15 C28.5522847,15 29,15.4477153 29,16 L29,23 C29,24.1045695 28.1045695,25 27,25 Z M25,17 L25,23 L27,23 L27,17 L25,17 Z" id="Shape" fill="#000000"/><path d="M24,21 L20,21 C19.4477153,21 19,20.5522847 19,20 C19,19.4477153 19.4477153,19 20,19 L24,19 C24.5522847,19 25,19.4477153 25,20 C25,20.5522847 24.5522847,21 24,21 Z" id="Shape" fill="#000000"/><path d="M54,17 C52.3431458,17 51,15.6568542 51,14 C51,12.3431458 52.3431458,11 54,11 C55.6568542,11 57,12.3431458 57,14 C57,15.6568542 55.6568542,17 54,17 Z M54,13 C53.4477153,13 53,13.4477153 53,14 C53,14.5522847 53.4477153,15 54,15 C54.5522847,15 55,14.5522847 55,14 C55,13.4477153 54.5522847,13 54,13 Z" id="Shape" fill="#000000"/></g></g></svg>
