<?xml version="1.0" encoding="UTF-8"?>
<svg xmlns="http://www.w3.org/2000/svg" xmlns:xlink="http://www.w3.org/1999/xlink" width="512" height="512" viewBox="0 0 58 60" version="1.1"><!-- Generator: Sketch 51.3 (57544) - http://www.bohemiancoding.com/sketch --><title>068 - Creative</title><desc>Created with Sketch.</desc><defs/><g id="Page-1" stroke="none" stroke-width="1" fill="none" fill-rule="evenodd"><g id="068---Creative" transform="translate(-1.000000, 0.000000)" fill-rule="nonzero"><path d="M41.208,22.22 C39.937,21.57 38.667,23.5 38.667,23.5 L38.588,23.49 C38.7509709,20.4955491 38.7509709,17.4944509 38.588,14.5 C38,1.64 23.187,1 23.187,1 L20.807,1 C20.807,1 6,1.64 5.407,14.5 C5.24402908,17.4944509 5.24402908,20.4955491 5.407,23.49 L5.328,23.5 C5.328,23.5 4.057,21.57 2.787,22.22 C1.528,22.85 2.148,28.64 2.148,28.64 C2.148,28.64 2.778,33.1 6.528,35.04 C6.367,38.76 6.088,42.14 10.148,46 C10.6300751,46.4551694 11.0873982,46.9358594 11.518,47.44 L11.518,56.96 C11.5179862,58.060676 12.4073377,58.9544966 13.508,58.96 L30.487,58.96 C31.5876623,58.9544966 32.4770138,58.060676 32.477,56.96 L32.477,47.44 C32.9076018,46.9358594 33.3649249,46.4551694 33.847,46 C37.907,42.14 37.627,38.76 37.467,35.04 C41.217,33.1 41.847,28.64 41.847,28.64 C41.847,28.64 42.467,22.85 41.208,22.22 Z" id="Shape" fill="#B49ACA"/><path d="M38.59,23.49 C38.27,28.45 37.41,30.02 37.41,33.14 C37.41,33.79 37.43,34.42 37.47,35.04 C37.63,38.76 37.91,42.14 33.85,46 C33.3674124,46.4546547 32.9100622,46.9353732 32.48,47.44 C29.06,51.41 28.6,55 24.37,55 L19.63,55 C15.4,55 14.94,51.41 11.52,47.44 C11.0899378,46.9353732 10.6325876,46.4546547 10.15,46 C6.09,42.14 6.37,38.76 6.53,35.04 C6.57,34.42 6.59,33.79 6.59,33.14 C6.59,30.02 5.73,28.45 5.41,23.49 C5.2465184,20.495563 5.2465184,17.494437 5.41,14.5 C5.95,2.75 18.37,1.2 20.5,1.02 C20.7,1 20.81,1 20.81,1 L23.19,1 C23.19,1 38,1.64 38.59,14.5 C38.7534816,17.494437 38.7534816,20.495563 38.59,23.49 Z" id="Shape" fill="#6A1B9A"/><path d="M35.59,23.49 C35.27,28.45 34.41,30.02 34.41,33.14 C34.41,33.79 34.43,34.42 34.47,35.04 C34.63,38.76 34.91,42.14 30.85,46 C30.3674124,46.4546547 29.9100622,46.9353732 29.48,47.44 C26.06,51.41 25.6,55 21.37,55 L19.63,55 C15.4,55 14.94,51.41 11.52,47.44 C11.0899378,46.9353732 10.6325876,46.4546547 10.15,46 C6.09,42.14 6.37,38.76 6.53,35.04 C6.57,34.42 6.59,33.79 6.59,33.14 C6.59,30.02 5.73,28.45 5.41,23.49 C5.2465184,20.495563 5.2465184,17.494437 5.41,14.5 C5.95,2.75 18.37,1.2 20.5,1.02 C22.63,1.2 35.05,2.75 35.59,14.5 C35.7534816,17.494437 35.7534816,20.495563 35.59,23.49 Z" id="Shape" fill="#9D27B0"/><path d="M6.588,33.14 C6.588,33.79 6.567,34.42 6.528,35.04 C2.778,33.1 2.148,28.64 2.148,28.64 C2.148,28.64 1.528,22.85 2.787,22.22 C4.057,21.57 5.328,23.5 5.328,23.5 L5.407,23.49 C5.727,28.45 6.588,30.02 6.588,33.14 Z" id="Shape" fill="#673AB7"/><path d="M41.847,28.64 C41.847,28.64 41.217,33.1 37.467,35.04 C37.427,34.42 37.407,33.79 37.407,33.14 C37.407,30.02 38.268,28.45 38.588,23.49 L38.667,23.5 C38.667,23.5 39.937,21.57 41.208,22.22 C42.467,22.85 41.847,28.64 41.847,28.64 Z" id="Shape" fill="#673AB7"/><path d="M32.477,47.44 L32.477,56.96 C32.4770138,58.060676 31.5876623,58.9544966 30.487,58.96 L13.507,58.96 C12.4067287,58.9539484 11.5179834,58.060288 11.518,56.96 L11.518,47.44 C14.937,51.41 15.4,55 19.627,55 L24.367,55 C28.6,55 29.057,51.41 32.477,47.44 Z" id="Shape" fill="#673AB7"/><path d="M58,6 C57.27,9.63 53.92,14.84 49.07,17.42 C47.6396764,15.9428017 45.9160752,14.7812443 44.01,14.01 C44.8872611,15.445512 45.3188101,17.1090637 45.25,18.79 C44.5083425,18.9310945 43.7549579,19.0014104 43,19 C35.7,19 31.36,20.85 29.08,22.3 C28.3222759,22.7545661 27.6321943,23.313364 27.03,23.96 C27.0211305,23.9741449 27.0110956,23.9875247 27,24 C26.9183627,23.3398345 26.8782838,22.6751919 26.88,22.01 C26.86,14.91 31.07,5.41 41.72,3.4 C42.4350099,3.24698983 43.1602956,3.14671992 43.89,3.1 C44.5911582,3.03057441 45.2954187,2.99719713 46,3 C49.3196367,2.94109823 52.6175651,3.54628508 55.7,4.78 C56.5077639,5.10394726 57.2787697,5.51291558 58,6 Z" id="Shape" fill="#283593"/><path d="M55.7,4.78 C54.5103101,9.01423978 51.8966984,12.7086152 48.3,15.24 C46.7304063,13.9104973 44.8967502,12.9289118 42.92,12.36 C43.3345361,12.8729847 43.6745594,13.4419345 43.93,14.05 C44.3208482,14.9862228 44.5605009,15.9785874 44.64,16.99 C43.9155038,17.2042024 43.1720785,17.3481992 42.42,17.42 C35.16,18.15 31.02,20.43 28.9,22.1 C28.1916018,22.6281675 27.5619583,23.2544439 27.03,23.96 C27.0211305,23.9741449 27.0110956,23.9875247 27,24 C26.9183627,23.3398345 26.8782838,22.6751919 26.88,22.01 C26.86,14.91 31.07,5.41 41.72,3.4 C42.4350099,3.24698983 43.1602956,3.14671992 43.89,3.1 C44.5911582,3.03057441 45.2954187,2.99719713 46,3 C49.3196367,2.94109823 52.6175651,3.54628508 55.7,4.78 Z" id="Shape" fill="#3F51B5"/><path d="M6.529,36.076 C6.36970273,36.0757464 6.21273817,36.0377047 6.071,35.965 C1.907,33.813 1.192,29.026 1.164,28.823 C0.842,25.835 0.788,22.147 2.34,21.365 C3.968,20.538 5.511,21.995 6.166,22.988 C6.45864172,23.4487382 6.32777555,24.0590241 5.87195367,24.359266 C5.41613178,24.659508 4.80375962,24.5387803 4.496,24.088 C4.206,23.655 3.639,23.102 3.307,23.128 C2.971,23.72 2.894,26.2 3.148,28.576 C3.148,28.576 3.759,32.517 6.989,34.186 C7.39851073,34.3980617 7.60990029,34.8626656 7.50073467,35.3107193 C7.39156905,35.7587729 6.99016073,36.0740722 6.529,36.074 L6.529,36.076 Z" id="Shape" fill="#000000"/><path d="M24.37,56.04 L19.63,56.04 C16.158,56.04 14.785,53.932 13.196,51.491 C12.1524813,49.7669775 10.8981461,48.1797429 9.462,46.766 C5.191,42.711 5.362,38.977 5.524,35.366 C5.557,34.651 5.59,33.925 5.59,33.181 C5.56909313,31.8555116 5.41871188,30.5352379 5.141,29.239 C4.664,26.618 4.013,23.026 4.411,14.494 C5.036,0.878 20.609,0.048 20.767,0.041 L23.19,0.041 C23.55,0.056 31.025,0.441 35.797,5.341 C36.1752253,5.73802333 36.163179,6.36557911 35.7699958,6.74779486 C35.3768126,7.1300106 34.7491672,7.12430296 34.363,6.735 C30.154,2.406 23.216,2.04 23.146,2.035 L20.81,2.035 C20.286,2.059 6.949,2.8 6.41,14.581 C6.022,22.888 6.625,26.208 7.11,28.881 C7.41020531,30.2952344 7.57163752,31.7353972 7.592,33.181 C7.592,33.956 7.558,34.713 7.524,35.457 C7.361,39.051 7.232,41.89 10.841,45.315 C12.388659,46.8380459 13.7428521,48.545901 14.873,50.4 C16.516,52.925 17.339,54.041 19.63,54.041 L24.37,54.041 C26.661,54.041 27.484,52.925 29.127,50.4 C30.2577698,48.5457895 31.6126386,46.8379294 33.161,45.315 C36.77,41.89 36.641,39.051 36.478,35.457 C36.444,34.713 36.41,33.957 36.41,33.181 C36.4302305,31.7354423 36.5913257,30.2952989 36.891,28.881 C37.4970385,25.7016564 37.7715085,22.4680045 37.71,19.232 C37.71,18.6797153 38.1577153,18.232 38.71,18.232 C39.2622847,18.232 39.71,18.6797153 39.71,19.232 C39.7736179,22.5885124 39.4880829,25.9425437 38.858,29.24 C38.5811686,30.5366978 38.4311287,31.8572495 38.41,33.183 C38.41,33.927 38.443,34.653 38.476,35.368 C38.64,38.98 38.809,42.714 34.538,46.768 C33.1005804,48.1808871 31.8448985,49.7674536 30.8,51.491 C29.215,53.932 27.842,56.04 24.37,56.04 Z" id="Shape" fill="#000000"/><path d="M37.471,36.076 C37.0098393,36.0760722 36.6084309,35.7607729 36.4992653,35.3127193 C36.3900997,34.8646656 36.6014893,34.4000617 37.011,34.188 C40.266,32.506 40.85,28.588 40.855,28.546 C41.106,26.201 41.03,23.724 40.693,23.131 C40.371,23.094 39.76,23.702 39.504,24.09 C39.3103323,24.3949124 38.9672801,24.5716812 38.6065752,24.5524272 C38.2458703,24.5331733 37.9235852,24.3208897 37.7634772,23.9970932 C37.6033692,23.6732967 37.6303274,23.2883224 37.834,22.99 C38.488,21.998 40.027,20.536 41.663,21.368 C43.212,22.149 43.163,25.837 42.84,28.794 C42.808,29.028 42.093,33.815 37.929,35.967 C37.7870905,36.0390116 37.6301347,36.0763657 37.471,36.076 Z" id="Shape" fill="#000000"/><path d="M30.487,60 L13.513,60 C11.8561458,60 10.513,58.6568542 10.513,57 L10.513,47.48 C10.513,46.9277153 10.9607153,46.48 11.513,46.48 C12.0652847,46.48 12.513,46.9277153 12.513,47.48 L12.513,57 C12.513,57.5522847 12.9607153,58 13.513,58 L30.487,58 C31.0392847,58 31.487,57.5522847 31.487,57 L31.487,47.48 C31.487,46.9277153 31.9347153,46.4800001 32.487,46.4800001 C33.0392847,46.4800001 33.487,46.9277153 33.487,47.48 L33.487,57 C33.487,58.6568542 32.1438542,60 30.487,60 Z" id="Shape" fill="#000000"/><path d="M25,29 C24.9045116,29.0000465 24.8095218,28.9862359 24.718,28.959 C24.188508,28.8030708 23.8854918,28.2476158 24.041,27.718 C24.093,27.542 29.482,10.062 51.865,7.009 C52.4123142,6.93444156 52.9164416,7.31768581 52.991,7.865 C53.0655584,8.41231419 52.6823142,8.91644156 52.135,8.991 C31.021,11.87 26.008,28.118 25.959,28.282 C25.8339276,28.7075189 25.4435193,28.9998162 25,29 Z" id="Shape" fill="#000000"/><path d="M27,25 C26.4967782,25.000049 26.0719092,24.6261471 26.008,24.127 C25.4236843,18.399875 27.2123837,12.6835547 30.957,8.311 C34.6,4.182 39.8,2 46,2 C54.238,2 58.426,5.069 58.6,5.2 C58.9093006,5.43186853 59.057261,5.82123806 58.98,6.2 C58.188,10.142 54.689,15.566 49.54,18.306 C49.1235168,18.5268704 48.6093411,18.4268686 48.306,18.066 C47.630681,17.312519 46.844694,16.6661283 45.975,16.149 C46.1730098,17.018381 46.2653444,17.9084868 46.25,18.8 C46.2432677,19.2744479 45.9040441,19.6788426 45.438,19.768 C44.6344885,19.9221871 43.8181714,19.9998678 43,20 C31.722,20 27.814,24.584 27.776,24.63 C27.5857106,24.8632124 27.3009934,24.9989668 27,25 Z M46,4 C40.394,4 35.71,5.948 32.457,9.634 C29.5277111,13.0520385 27.9061866,17.3985462 27.881,21.9 C30.1,20.309 34.744,18 43,18 C43.4098923,18.0001935 43.8194935,17.9781612 44.227,17.934 C44.1679344,16.7386669 43.8059281,15.5779757 43.175,14.561 C42.9360128,14.1995922 42.9569549,13.7253921 43.2268714,13.386459 C43.4967878,13.047526 43.9542684,12.9209725 44.36,13.073 C46.1592475,13.8123903 47.8170238,14.857466 49.26,16.162 C52.8587587,13.9269781 55.5508875,10.4909716 56.86,6.462 C53.5106744,4.72457515 49.7711339,3.87680822 46,4 Z" id="Shape" fill="#000000"/><path d="M44,7 C43.4477153,7 43,6.55228475 43,6 C42.986749,5.18775751 42.7311546,4.39799149 42.266,3.732 C41.9608627,3.27139452 42.0868945,2.65063732 42.5475,2.3455 C43.0081055,2.04036268 43.6288627,2.16639452 43.934,2.627 C44.6130173,3.62217691 44.9837863,4.79535124 45,6 C45,6.55228475 44.5522847,7 44,7 Z" id="Shape" fill="#000000"/></g></g></svg>
