<?xml version="1.0" encoding="UTF-8"?>
<svg xmlns="http://www.w3.org/2000/svg" xmlns:xlink="http://www.w3.org/1999/xlink" width="512" height="512" viewBox="0 0 42 60" version="1.1"><!-- Generator: Sketch 51.3 (57544) - http://www.bohemiancoding.com/sketch --><title>069 - Opportunities</title><desc>Created with Sketch.</desc><defs/><g id="Page-1" stroke="none" stroke-width="1" fill="none" fill-rule="evenodd"><g id="069---Opportunities" transform="translate(-1.000000, 0.000000)" fill-rule="nonzero"><path d="M41.208,22.22 C39.937,21.57 38.667,23.5 38.667,23.5 L38.588,23.49 C38.7509709,20.4955491 38.7509709,17.4944509 38.588,14.5 C38,1.64 23.187,1 23.187,1 L20.807,1 C20.807,1 6,1.64 5.407,14.5 C5.24402908,17.4944509 5.24402908,20.4955491 5.407,23.49 L5.328,23.5 C5.328,23.5 4.057,21.57 2.787,22.22 C1.528,22.85 2.148,28.64 2.148,28.64 C2.148,28.64 2.778,33.1 6.528,35.04 C6.367,38.76 6.088,42.14 10.148,46 C10.6300751,46.4551694 11.0873982,46.9358594 11.518,47.44 L11.518,56.96 C11.5179862,58.060676 12.4073377,58.9544966 13.508,58.96 L30.487,58.96 C31.5876623,58.9544966 32.4770138,58.060676 32.477,56.96 L32.477,47.44 C32.9076018,46.9358594 33.3649249,46.4551694 33.847,46 C37.907,42.14 37.627,38.76 37.467,35.04 C41.217,33.1 41.847,28.64 41.847,28.64 C41.847,28.64 42.467,22.85 41.208,22.22 Z" id="Shape" fill="#B49ACA"/><path d="M38.59,23.49 C38.27,28.45 37.41,30.02 37.41,33.14 C37.41,33.79 37.43,34.42 37.47,35.04 C37.63,38.76 37.91,42.14 33.85,46 C33.3674124,46.4546547 32.9100622,46.9353732 32.48,47.44 C29.06,51.41 28.6,55 24.37,55 L19.63,55 C15.4,55 14.94,51.41 11.52,47.44 C11.0899378,46.9353732 10.6325876,46.4546547 10.15,46 C6.09,42.14 6.37,38.76 6.53,35.04 C6.57,34.42 6.59,33.79 6.59,33.14 C6.59,30.02 5.73,28.45 5.41,23.49 C5.2465184,20.495563 5.2465184,17.494437 5.41,14.5 C5.95,2.75 18.37,1.2 20.5,1.02 C20.7,1 20.81,1 20.81,1 L23.19,1 C23.19,1 38,1.64 38.59,14.5 C38.7534816,17.494437 38.7534816,20.495563 38.59,23.49 Z" id="Shape" fill="#0377BC"/><path d="M35.59,23.49 C35.27,28.45 34.41,30.02 34.41,33.14 C34.41,33.79 34.43,34.42 34.47,35.04 C34.63,38.76 34.91,42.14 30.85,46 C30.3674124,46.4546547 29.9100622,46.9353732 29.48,47.44 C26.06,51.41 25.6,55 21.37,55 L19.63,55 C15.4,55 14.94,51.41 11.52,47.44 C11.0899378,46.9353732 10.6325876,46.4546547 10.15,46 C6.09,42.14 6.37,38.76 6.53,35.04 C6.57,34.42 6.59,33.79 6.59,33.14 C6.59,30.02 5.73,28.45 5.41,23.49 C5.2465184,20.495563 5.2465184,17.494437 5.41,14.5 C5.95,2.75 18.37,1.2 20.5,1.02 C22.63,1.2 35.05,2.75 35.59,14.5 C35.7534816,17.494437 35.7534816,20.495563 35.59,23.49 Z" id="Shape" fill="#02A9F4"/><path d="M32,16.012 C32.0031449,19.8113656 29.8493626,23.2831573 26.444,24.968 C25.7387964,25.3244391 24.9925673,25.5931085 24.222,25.768 L19.778,25.768 C19.0074327,25.5931085 18.2612036,25.3244391 17.556,24.968 C14.1506374,23.2831573 11.9968551,19.8113656 12,16.012 C11.9983294,15.2559784 12.0879786,14.5025222 12.267,13.768 C12.4452614,12.9653777 12.7251877,12.1887756 13.1,11.457 L13.1,11.446 L16.022,8 C16.638972,7.54069332 17.3062773,7.15319327 18.011,6.845 C21.3460393,5.39130995 25.2079926,5.86840181 28.089,8.09 L30.933,11.534 C31.3135913,12.2664822 31.5905723,13.048289 31.756,13.857 C31.9220874,14.563188 32.0039907,15.2865549 32,16.012 Z" id="Shape" fill="#4482C3"/><path d="M41.847,28.64 C41.847,28.64 41.217,33.1 37.467,35.04 C37.427,34.42 37.407,33.79 37.407,33.14 C37.407,30.02 38.268,28.45 38.588,23.49 L38.667,23.5 C38.667,23.5 39.937,21.57 41.208,22.22 C42.467,22.85 41.847,28.64 41.847,28.64 Z" id="Shape" fill="#3F51B5"/><path d="M31,16 C31.0031556,19.4193098 29.0648227,22.5439025 26,24.06 C25.365365,24.3810694 24.6936582,24.6228839 24,24.78 L20,24.78 C19.3063418,24.6228839 18.634635,24.3810694 18,24.06 C14.9351773,22.5439025 12.9968444,19.4193098 13,16 C12.9984724,15.3194651 13.0790546,14.6412312 13.24,13.98 C13.4010096,13.257733 13.6530225,12.5588171 13.99,11.9 L13.99,11.89 L16.62,8.79 C17.1751298,8.37632103 17.7756876,8.02739359 18.41,7.75 C19.0779156,7.4565211 19.7800935,7.24821952 20.5,7.13 C20.9950181,7.04123013 21.4970907,6.99771716 22,7 C23.9827851,7.00266682 25.909194,7.66003627 27.48,8.87 L30.04,11.97 C30.3824768,12.6289433 30.6315348,13.3323636 30.78,14.06 C30.9299294,14.6956676 31.0037807,15.3469013 31,16 Z" id="Shape" fill="#FEC108"/><path d="M28,16 C28.0031556,19.4193098 26.0648227,22.5439025 23,24.06 C22.365365,24.3810694 21.6936582,24.6228839 21,24.78 L20,24.78 C19.3063418,24.6228839 18.634635,24.3810694 18,24.06 C14.9351773,22.5439025 12.9968444,19.4193098 13,16 C12.9984724,15.3194651 13.0790546,14.6412312 13.24,13.98 C13.4010096,13.257733 13.6530225,12.5588171 13.99,11.9 L13.99,11.89 L16.62,8.79 C17.1751298,8.37632103 17.7756876,8.02739359 18.41,7.75 C19.0779156,7.4565211 19.7800935,7.24821952 20.5,7.13 C21.2671242,7.25617892 22.0138087,7.48489309 22.72,7.81 C23.3454281,8.09456975 23.9359884,8.45024812 24.48,8.87 L27.04,11.97 C27.3824768,12.6289433 27.6315348,13.3323636 27.78,14.06 C27.9299294,14.6956676 28.0037807,15.3469013 28,16 Z" id="Shape" fill="#FFDC00"/><path d="M6.588,33.14 C6.588,33.79 6.567,34.42 6.528,35.04 C2.778,33.1 2.148,28.64 2.148,28.64 C2.148,28.64 1.528,22.85 2.787,22.22 C4.057,21.57 5.328,23.5 5.328,23.5 L5.407,23.49 C5.727,28.45 6.588,30.02 6.588,33.14 Z" id="Shape" fill="#3F51B5"/><path d="M32.477,47.44 L32.477,56.96 C32.4770138,58.060676 31.5876623,58.9544966 30.487,58.96 L13.507,58.96 C12.4067287,58.9539484 11.5179834,58.060288 11.518,56.96 L11.518,47.44 C14.937,51.41 15.4,55 19.627,55 L24.367,55 C28.6,55 29.057,51.41 32.477,47.44 Z" id="Shape" fill="#3F51B5"/><path d="M38.065,1.69 L36.929,8.531 C36.8979088,8.71536792 36.7665509,8.86698425 36.5884923,8.92402196 C36.4104336,8.98105967 36.2154295,8.93398718 36.083,8.802 L35,7.723 C34.8047501,7.52780903 34.4882499,7.52780903 34.293,7.723 L24.584,17.414 C24.2091442,17.7898029 23.999052,18.2992045 24,18.83 L24,28 C24,29.1045695 23.1045695,30 22,30 C20.8954305,30 20,29.1045695 20,28 L20,18.819 C19.9993899,18.2951711 19.7932906,17.7924899 19.426,17.419 L9.884,7.719 C9.7901167,7.62434367 9.66231877,7.57110084 9.529,7.57110084 C9.39568123,7.57110084 9.2678833,7.62434367 9.174,7.719 L8.1,8.8 C7.96768429,8.93315931 7.77193167,8.98098629 7.59312046,8.92384261 C7.41430925,8.86669894 7.28257139,8.71421403 7.252,8.529 L6.115,1.69 C6.08863493,1.53086377 6.14066238,1.36878277 6.25472258,1.25472258 C6.36878277,1.14066238 6.53086377,1.08863493 6.69,1.115 L13.524,2.251 C13.7105001,2.27977912 13.8649102,2.4111076 13.9232514,2.59057021 C13.9815926,2.77003281 13.9339253,2.96705434 13.8,3.1 L12.712,4.186 C12.516809,4.38124993 12.516809,4.69775007 12.712,4.893 L20.676,12.848 C21.4568851,13.6280976 22.7221149,13.6280976 23.503,12.848 L31.466,4.893 C31.661191,4.69775007 31.661191,4.38124993 31.466,4.186 L30.384,3.1 C30.2519821,2.96743211 30.2050198,2.77225269 30.262285,2.59414126 C30.3195501,2.41602984 30.4714602,2.28479048 30.656,2.254 L37.49,1.115 C37.6491362,1.08863493 37.8112172,1.14066238 37.9252774,1.25472258 C38.0393376,1.36878277 38.0913651,1.53086377 38.065,1.69 Z" id="Shape" fill="#9D27B0"/><path d="M6.529,36.076 C6.36970273,36.0757464 6.21273817,36.0377047 6.071,35.965 C1.907,33.813 1.192,29.026 1.164,28.823 C0.842,25.835 0.788,22.147 2.34,21.365 C3.969,20.538 5.511,21.995 6.166,22.988 C6.45864172,23.4487382 6.32777555,24.0590241 5.87195367,24.359266 C5.41613178,24.659508 4.80375962,24.5387803 4.496,24.088 C4.207,23.655 3.643,23.102 3.307,23.128 C2.971,23.72 2.894,26.2 3.148,28.576 C3.148,28.576 3.759,32.517 6.989,34.186 C7.39851073,34.3980617 7.60990029,34.8626656 7.50073467,35.3107193 C7.39156905,35.7587729 6.99016073,36.0740722 6.529,36.074 L6.529,36.076 Z" id="Shape" fill="#000000"/><path d="M24.37,56.04 L19.63,56.04 C16.158,56.04 14.785,53.932 13.196,51.491 C12.1524813,49.7669775 10.8981461,48.1797429 9.462,46.766 C5.191,42.711 5.362,38.977 5.524,35.366 C5.557,34.651 5.59,33.925 5.59,33.181 C5.56909313,31.8555116 5.41871188,30.5352379 5.141,29.239 C4.664,26.618 4.013,23.026 4.411,14.494 C4.435,13.951 4.484,13.41 4.559,12.894 C4.60955308,12.5403071 4.84495899,12.2404511 5.17654259,12.1073849 C5.5081262,11.9743186 5.88551207,12.0282581 6.16654259,12.2488849 C6.44757312,12.4695116 6.58955308,12.8233071 6.539,13.177 C6.474,13.632 6.43,14.107 6.409,14.588 C6.021,22.898 6.624,26.218 7.109,28.888 C7.40920531,30.3022344 7.57063752,31.7423972 7.591,33.188 C7.591,33.963 7.557,34.72 7.523,35.464 C7.36,39.058 7.231,41.897 10.84,45.322 C12.387554,46.842815 13.7420676,48.5482998 14.873,50.4 C16.516,52.925 17.339,54.041 19.63,54.041 L24.37,54.041 C26.661,54.041 27.484,52.925 29.127,50.4 C30.2577698,48.5457895 31.6126386,46.8379294 33.161,45.315 C36.77,41.89 36.641,39.051 36.478,35.457 C36.444,34.713 36.41,33.957 36.41,33.181 C36.4303625,31.7353972 36.5917947,30.2952344 36.892,28.881 C37.376,26.212 37.979,22.892 37.592,14.581 C37.573,14.17 37.54,13.775 37.492,13.393 C37.4469845,13.0384139 37.594558,12.6867474 37.8791308,12.4704698 C38.1637036,12.2541922 38.5420425,12.2061613 38.8716308,12.3444698 C39.2012191,12.4827783 39.4319845,12.7864139 39.477,13.141 C39.531,13.576 39.57,14.025 39.591,14.489 C39.991,23.019 39.338,26.611 38.861,29.232 C38.5832881,30.5282379 38.4329069,31.8485116 38.412,33.174 C38.412,33.918 38.445,34.644 38.478,35.359 C38.642,38.971 38.811,42.705 34.54,46.759 C33.1012827,48.1745594 31.844902,49.7641833 30.8,51.491 C29.215,53.932 27.842,56.04 24.37,56.04 Z" id="Shape" fill="#000000"/><path d="M18.453,2.347 C17.9365516,2.34668777 17.5052943,1.95315739 17.4578358,1.43889413 C17.4103773,0.924630858 17.7623311,0.458822302 18.27,0.364 C19.0953647,0.201725918 19.9304948,0.0938271056 20.77,0.041 L23.19,0.041 C23.843007,0.0775703904 24.4933965,0.151356886 25.138,0.262 C25.4930843,0.316680048 25.7915467,0.5576375 25.9198547,0.893214301 C26.0481628,1.2287911 25.9865946,1.60740654 25.7585702,1.88503869 C25.5305458,2.16267085 25.1711142,2.29664554 24.817,2.236 C24.2638782,2.1401751 23.7061126,2.0734168 23.146,2.036 L20.811,2.036 C20.0819609,2.08967366 19.356709,2.18617357 18.639,2.325 C18.5778395,2.33822468 18.5155581,2.34559131 18.453,2.347 Z" id="Shape" fill="#000000"/><path d="M37.471,36.076 C37.0098393,36.0760722 36.6084309,35.7607729 36.4992653,35.3127193 C36.3900997,34.8646656 36.6014893,34.4000617 37.011,34.188 C40.266,32.506 40.85,28.588 40.855,28.546 C41.106,26.201 41.03,23.724 40.693,23.131 C40.368,23.094 39.76,23.702 39.504,24.09 C39.3103323,24.3949124 38.9672801,24.5716812 38.6065752,24.5524272 C38.2458703,24.5331733 37.9235852,24.3208897 37.7634772,23.9970932 C37.6033692,23.6732967 37.6303274,23.2883224 37.834,22.99 C38.489,21.998 40.027,20.536 41.663,21.368 C43.212,22.149 43.163,25.837 42.84,28.794 C42.808,29.028 42.093,33.815 37.929,35.967 C37.7870905,36.0390116 37.6301347,36.0763657 37.471,36.076 Z" id="Shape" fill="#000000"/><path d="M30.487,60 L13.513,60 C11.8561458,60 10.513,58.6568542 10.513,57 L10.513,47.48 C10.513,46.9277153 10.9607153,46.48 11.513,46.48 C12.0652847,46.48 12.513,46.9277153 12.513,47.48 L12.513,57 C12.513,57.5522847 12.9607153,58 13.513,58 L30.487,58 C31.0392847,58 31.487,57.5522847 31.487,57 L31.487,47.48 C31.487,46.9277153 31.9347153,46.48 32.487,46.48 C33.0392847,46.48 33.487,46.9277153 33.487,47.48 L33.487,57 C33.487,58.6568542 32.1438542,60 30.487,60 Z" id="Shape" fill="#000000"/><path d="M22,31 C20.3431458,31 19,29.6568542 19,28 L19,18.819 C18.9996949,18.5570856 18.8966453,18.3057449 18.713,18.119 L9.526,8.782 L8.119,10.2 C7.85474995,10.4686512 7.46191407,10.5659421 7.10282768,10.4516681 C6.74374129,10.3373942 6.4793845,10.0309614 6.419,9.659 L5.009,1.169 C4.95626987,0.850727542 5.06032477,0.52656555 5.28844516,0.29844516 C5.51656555,0.0703247696 5.84072754,-0.0337301335 6.159,0.019 L14.64,1.429 C15.0086584,1.49083838 15.3120471,1.75312764 15.4265246,2.10897583 C15.541002,2.46482402 15.4474523,2.85480963 15.184,3.12 L13.773,4.538 L21.384,12.138 C21.7743851,12.5277159 22.4066149,12.5277159 22.797,12.138 L30.407,4.538 L28.991,3.115 C28.7275168,2.84967125 28.6340772,2.45951023 28.7487821,2.10360927 C28.8634871,1.7477083 29.1671696,1.48553757 29.536,1.424 L38.016,0.014 C38.3342725,-0.0387301335 38.6584345,0.0653247696 38.8865548,0.29344516 C39.1146752,0.52156555 39.2187301,0.845727542 39.166,1.164 L37.756,9.654 C37.6946361,10.0237522 37.4316593,10.3281451 37.074738,10.4425537 C36.7178167,10.5569624 36.3268855,10.4621752 36.062,10.197 L34.649,8.784 L25.293,18.122 C25.1054506,18.3094927 25.0000566,18.5638052 25,18.829 L25,28 C25,29.6568542 23.6568542,31 22,31 Z M9.53,6.36 C9.80139157,6.34365694 10.0649322,6.4545436 10.243,6.66 L20.143,16.716 C20.6955855,17.2751453 21.0050245,18.0298746 21.004,18.816 L21.004,28 C21.004,28.5522847 21.4517153,29 22.004,29 C22.5562847,29 23.004,28.5522847 23.004,28 L23.004,18.829 C23.0062463,18.0328506 23.3228889,17.2698174 23.885,16.706 L33.944,6.662 C34.3343851,6.27228406 34.9666149,6.27228406 35.357,6.662 L36.102,7.406 L36.964,2.215 L31.776,3.077 L32.529,3.834 C32.9180509,4.22426975 32.9180509,4.85573025 32.529,5.246 L24.213,13.554 C23.041615,14.7244795 21.143385,14.7244795 19.972,13.554 L11.653,5.247 C11.2639491,4.85673025 11.2639491,4.22526975 11.653,3.835 L12.406,3.079 L7.218,2.216 L8.077,7.4 L8.821,6.653 C9.00935478,6.46551818 9.26424273,6.36018366 9.53,6.36 Z" id="Shape" fill="#000000"/><path d="M22,31 C20.3431458,31 19,29.6568542 19,28 L19,18.819 C18.9996949,18.5570856 18.8966453,18.3057449 18.713,18.119 L9.526,8.782 L8.119,10.2 C7.85474995,10.4686512 7.46191407,10.5659421 7.10282768,10.4516681 C6.74374129,10.3373942 6.4793845,10.0309614 6.419,9.659 L5.009,1.169 C4.95626987,0.850727542 5.06032477,0.52656555 5.28844516,0.29844516 C5.51656555,0.0703247696 5.84072754,-0.0337301335 6.159,0.019 L14.64,1.429 C15.0086584,1.49083838 15.3120471,1.75312764 15.4265246,2.10897583 C15.541002,2.46482402 15.4474523,2.85480963 15.184,3.12 L13.773,4.538 L21.384,12.138 C21.7743851,12.5277159 22.4066149,12.5277159 22.797,12.138 L30.407,4.538 L28.991,3.115 C28.7275168,2.84967125 28.6340772,2.45951023 28.7487821,2.10360927 C28.8634871,1.7477083 29.1671696,1.48553757 29.536,1.424 L38.016,0.014 C38.3342725,-0.0387301335 38.6584345,0.0653247696 38.8865548,0.29344516 C39.1146752,0.52156555 39.2187301,0.845727542 39.166,1.164 L37.756,9.654 C37.6946361,10.0237522 37.4316593,10.3281451 37.074738,10.4425537 C36.7178167,10.5569624 36.3268855,10.4621752 36.062,10.197 L34.649,8.784 L25.293,18.122 C25.1054506,18.3094927 25.0000566,18.5638052 25,18.829 L25,28 C25,29.6568542 23.6568542,31 22,31 Z M9.53,6.36 C9.80139157,6.34365694 10.0649322,6.4545436 10.243,6.66 L20.143,16.716 C20.6955855,17.2751453 21.0050245,18.0298746 21.004,18.816 L21.004,28 C21.004,28.5522847 21.4517153,29 22.004,29 C22.5562847,29 23.004,28.5522847 23.004,28 L23.004,18.829 C23.0062463,18.0328506 23.3228889,17.2698174 23.885,16.706 L33.944,6.662 C34.3343851,6.27228406 34.9666149,6.27228406 35.357,6.662 L36.102,7.406 L36.964,2.215 L31.776,3.077 L32.529,3.834 C32.9180509,4.22426975 32.9180509,4.85573025 32.529,5.246 L24.213,13.554 C23.041615,14.7244795 21.143385,14.7244795 19.972,13.554 L11.653,5.247 C11.2639491,4.85673025 11.2639491,4.22526975 11.653,3.835 L12.406,3.079 L7.218,2.216 L8.077,7.4 L8.821,6.653 C9.00935478,6.46551818 9.26424273,6.36018366 9.53,6.36 Z" id="Shape" fill="#000000"/><path d="M20,25.78 C19.9250344,25.7797757 19.8502966,25.7717321 19.777,25.756 C16.773293,25.0715698 14.2527086,23.0408801 12.9447305,20.251634 C11.6367525,17.462388 11.6873944,14.2259575 13.082,11.479 C13.2787607,11.055099 13.7428841,10.8240071 14.1997344,10.9224683 C14.6565847,11.0209294 14.9843161,11.4226833 14.989,11.89 C14.9888203,12.0517447 14.9511692,12.2112485 14.879,12.356 C13.7524109,14.5540631 13.7043136,17.1492714 14.7486831,19.3875692 C15.7930526,21.6258669 17.8127728,23.2562503 20.221,23.805 C20.7170736,23.9180547 21.049176,24.3855681 20.9925958,24.8912054 C20.9360157,25.3968427 20.5087927,25.7793886 20,25.78 Z" id="Shape" fill="#000000"/><path d="M24,25.78 C23.4912073,25.7793886 23.0639843,25.3968427 23.0074042,24.8912054 C22.950824,24.3855681 23.2829264,23.9180547 23.779,23.805 C27.4086826,22.9559551 29.9818382,19.7276189 30,16 C30.0069291,14.7577918 29.7154212,13.5320868 29.15,12.426 C28.9870869,12.1080336 29.006182,11.7273075 29.2000924,11.4272374 C29.3940028,11.1271673 29.7332689,10.9533411 30.0900924,10.9712374 C30.4469159,10.9891337 30.7670869,11.1960336 30.93,11.514 C31.6407925,12.9020596 32.0077537,14.4405529 32,16 C32.0227219,20.6759478 28.7854935,24.7364261 24.222,25.756 C24.1490303,25.7716632 24.0746313,25.7797063 24,25.78 Z" id="Shape" fill="#000000"/><path d="M27.479,9.87 C27.2589984,9.87025713 27.0451402,9.79744687 26.871,9.663 C24.0354251,7.47268386 20.0869353,7.44322973 17.219,9.591 C16.9331875,9.80535937 16.5547266,9.85095645 16.2261797,9.71061526 C15.8976328,9.57027408 15.6689141,9.26531579 15.6261797,8.91061525 C15.5834452,8.5559147 15.7331875,8.20535935 16.019,7.991 C19.6052943,5.306752 24.5412288,5.34274191 28.088,8.079 C28.4279031,8.34012892 28.5635875,8.78883869 28.4253309,9.19455727 C28.2870743,9.60027586 27.9056279,9.87276314 27.477,9.872 L27.479,9.87 Z" id="Shape" fill="#000000"/></g></g></svg>
