<?xml version="1.0" encoding="UTF-8"?>
<svg xmlns="http://www.w3.org/2000/svg" xmlns:xlink="http://www.w3.org/1999/xlink" width="512" height="512" viewBox="0 0 60 60" version="1.1"><!-- Generator: Sketch 51.3 (57544) - http://www.bohemiancoding.com/sketch --><title>070 - Death</title><desc>Created with Sketch.</desc><defs/><g id="Page-1" stroke="none" stroke-width="1" fill="none" fill-rule="evenodd"><g id="070---Death" transform="translate(-1.000000, 0.000000)" fill-rule="nonzero"><path d="M38.59,23.49 C38.27,28.45 37.41,30.02 37.41,33.14 C37.41,33.79 37.43,34.42 37.47,35.04 C37.63,38.76 37.91,42.14 33.85,46 C33.3674124,46.4546547 32.9100622,46.9353732 32.48,47.44 C29.06,51.41 28.6,55 24.37,55 L19.63,55 C15.4,55 14.94,51.41 11.52,47.44 C11.0899378,46.9353732 10.6325876,46.4546547 10.15,46 C6.09,42.14 6.37,38.76 6.53,35.04 C6.57,34.42 6.59,33.79 6.59,33.14 C6.59,30.02 5.73,28.45 5.41,23.49 C5.2465184,20.495563 5.2465184,17.494437 5.41,14.5 C5.95,2.75 18.37,1.2 20.5,1.02 C20.7,1 20.81,1 20.81,1 L23.19,1 C23.19,1 38,1.64 38.59,14.5 C38.7534816,17.494437 38.7534816,20.495563 38.59,23.49 Z" id="Shape" fill="#283593"/><path d="M35.59,23.49 C35.27,28.45 34.41,30.02 34.41,33.14 C34.41,33.79 34.43,34.42 34.47,35.04 C34.63,38.76 34.91,42.14 30.85,46 C30.3674124,46.4546547 29.9100622,46.9353732 29.48,47.44 C26.06,51.41 25.6,55 21.37,55 L19.63,55 C15.4,55 14.94,51.41 11.52,47.44 C11.0899378,46.9353732 10.6325876,46.4546547 10.15,46 C6.09,42.14 6.37,38.76 6.53,35.04 C6.57,34.42 6.59,33.79 6.59,33.14 C6.59,30.02 5.73,28.45 5.41,23.49 C5.2465184,20.495563 5.2465184,17.494437 5.41,14.5 C5.95,2.75 18.37,1.2 20.5,1.02 C22.63,1.2 35.05,2.75 35.59,14.5 C35.7534816,17.494437 35.7534816,20.495563 35.59,23.49 Z" id="Shape" fill="#3F51B5"/><path d="M6.593,33.14 C6.593,33.79 6.573,34.42 6.533,35.04 C2.783,33.1 2.153,28.64 2.153,28.64 C2.153,28.64 1.533,22.85 2.792,22.22 C4.063,21.57 5.333,23.5 5.333,23.5 L5.412,23.49 C5.732,28.45 6.593,30.02 6.593,33.14 Z" id="Shape" fill="#283593"/><path d="M32.482,47.44 L32.482,56.96 C32.4820138,58.060676 31.5926623,58.9544966 30.492,58.96 L13.513,58.96 C12.4123377,58.9544966 11.5229862,58.060676 11.523,56.96 L11.523,47.44 C14.943,51.41 15.403,55 19.633,55 L24.373,55 C28.6,55 29.063,51.41 32.482,47.44 Z" id="Shape" fill="#283593"/><path d="M53,14 C53.0064779,18.0933715 51.0785839,21.9491595 47.8,24.4 C46.828313,25.1221514 46.1927966,26.2090289 46.04,27.41 C46.0114174,27.6053351 45.9980438,27.8025945 46,28 L46,29 C45.9967052,30.1032019 45.1032019,30.9967052 44,31 L36,31 C34.8967981,30.9967052 34.0032948,30.1032019 34,29 L34,28 C34.0019562,27.8025945 33.9885826,27.6053351 33.96,27.41 C33.8072034,26.2090289 33.171687,25.1221514 32.2,24.4 C28.9214161,21.9491595 26.9935221,18.0933715 27,14 C27,13.68 27.01,13.36 27.04,13.04 C27.4961401,6.82215588 32.3066886,1.80592084 38.5,1.09 C38.9977056,1.02953619 39.4986354,0.999480405 40,1 C46.8066781,0.999440577 52.4602639,6.25169161 52.96,13.04 C52.99,13.36 53,13.68 53,14 Z" id="Shape" fill="#FDD834"/><path d="M50,14 C50.0064779,18.0933715 48.0785839,21.9491595 44.8,24.4 C43.828313,25.1221514 43.1927966,26.2090289 43.04,27.41 C43.0114174,27.6053351 42.9980438,27.8025945 43,28 L43,29 C42.9967052,30.1032019 42.1032019,30.9967052 41,31 L36,31 C34.8967981,30.9967052 34.0032948,30.1032019 34,29 L34,28 C34.0019562,27.8025945 33.9885826,27.6053351 33.96,27.41 C33.8072034,26.2090289 33.171687,25.1221514 32.2,24.4 C28.9214161,21.9491595 26.9935221,18.0933715 27,14 C27,13.68 27.01,13.36 27.04,13.04 C27.4961401,6.82215588 32.3066886,1.80592084 38.5,1.09 C44.6933114,1.80592084 49.5038599,6.82215588 49.96,13.04 C49.99,13.36 50,13.68 50,14 Z" id="Shape" fill="#FFEB3A"/><circle id="Oval" fill="#607D8B" cx="35" cy="15" r="3"/><circle id="Oval" fill="#607D8B" cx="45" cy="15" r="3"/><path d="M6.529,36.057 C6.36958854,36.0567056 6.21255735,36.018305 6.071,35.945 C1.907,33.793 1.192,29.007 1.164,28.8 C0.842,25.811 0.788,22.124 2.34,21.342 C3.969,20.511 5.511,21.972 6.166,22.964 C6.36967258,23.2623224 6.39663083,23.6472967 6.23652279,23.9710932 C6.07641476,24.2948897 5.75412969,24.5071733 5.39342477,24.5264272 C5.03271985,24.5456812 4.68966769,24.3689124 4.496,24.064 C4.205,23.63 3.626,23.064 3.307,23.105 C2.971,23.696 2.894,26.177 3.148,28.554 C3.148,28.554 3.759,32.493 6.989,34.163 C7.39965725,34.3745193 7.61199718,34.8397883 7.50270399,35.2886031 C7.39341079,35.737418 6.99092951,36.0529687 6.529,36.052 L6.529,36.057 Z" id="Shape" fill="#000000"/><path d="M24.37,56.02 L19.63,56.02 C16.159,56.02 14.785,53.91 13.193,51.468 C12.4613731,50.2943791 11.6490837,49.173012 10.762,48.112 C10.3536912,47.6338066 9.91971912,47.1781359 9.462,46.747 C5.189,42.688 5.354,38.957 5.514,35.347 L5.528,35.014 C5.568,34.393 5.587,33.784 5.587,33.157 C5.56609891,31.8351459 5.41571361,30.5185209 5.138,29.226 C4.77445505,27.3585071 4.53095611,25.4696367 4.409,23.571 C4.24426737,20.5399032 4.24426737,17.5020968 4.409,14.471 C5.036,0.858 20.609,0.027 20.767,0.021 L23.19,0.021 C26.4790579,0.247400748 29.6770657,1.19990434 32.554,2.81 C32.955254,3.02650957 33.1592544,3.48702026 33.0500029,3.9296773 C32.9407513,4.37233434 32.5459129,4.68504652 32.09,4.69 C31.9086581,4.69027816 31.7304075,4.64304347 31.573,4.553 C28.9790567,3.11180959 26.1046105,2.24746324 23.146,2.019 L20.81,2.019 C20.286,2.043 6.949,2.784 6.41,14.564 C6.2493502,17.5218202 6.2493502,20.4861798 6.41,23.444 C6.52736071,25.2660768 6.76117156,27.078779 7.11,28.871 C7.40986371,30.2815313 7.57063358,31.7180771 7.59,33.16 C7.59,33.832 7.569,34.484 7.528,35.124 L7.515,35.438 C7.356,39.029 7.231,41.865 10.839,45.295 C11.346477,45.7738204 11.8275215,46.279902 12.28,46.811 C13.2252124,47.9374002 14.0903313,49.1286512 14.869,50.376 C16.516,52.9 17.34,54.02 19.63,54.02 L24.37,54.02 C26.66,54.02 27.484,52.902 29.131,50.376 C29.9104177,49.1274612 30.776548,47.9351955 31.723,46.808 C32.1753989,46.2768304 32.6564475,45.7707446 33.164,45.292 C36.764,41.865 36.644,39.029 36.485,35.438 L36.471,35.103 C36.431,34.484 36.41,33.832 36.41,33.16 C36.4119995,32.3980303 36.4610931,31.6369125 36.557,30.881 C36.6227219,30.3325813 37.1205813,29.9412781 37.669,30.007 C38.2174187,30.0727219 38.6087219,30.5705813 38.543,31.119 C38.4568016,31.7959571 38.4123842,32.4775812 38.41,33.16 C38.41,33.787 38.429,34.396 38.468,34.995 L38.483,35.35 C38.643,38.957 38.808,42.688 34.538,46.744 C34.0802057,47.1750603 33.6462296,47.6307352 33.238,48.109 C32.3496742,49.1708059 31.5363734,50.2931878 30.804,51.468 C29.215,53.91 27.841,56.02 24.37,56.02 Z" id="Shape" fill="#000000"/><path d="M30.487,59.98 L13.513,59.98 C11.8561458,59.98 10.513,58.6368542 10.513,56.98 L10.513,47.46 C10.513,46.9077153 10.9607153,46.46 11.513,46.46 C12.0652847,46.46 12.513,46.9077153 12.513,47.46 L12.513,56.98 C12.513,57.5322847 12.9607153,57.98 13.513,57.98 L30.487,57.98 C31.0392847,57.98 31.487,57.5322847 31.487,56.98 L31.487,47.46 C31.487,46.9077153 31.9347153,46.4600001 32.487,46.4600001 C33.0392847,46.4600001 33.487,46.9077153 33.487,47.46 L33.487,56.98 C33.487,58.6368542 32.1438542,59.98 30.487,59.98 Z" id="Shape" fill="#000000"/><path d="M44,32 L36,32 C34.3431458,32 33,30.6568542 33,29 L33,28 C32.9973406,26.8989789 32.4792212,25.8627402 31.6,25.2 C28.0585375,22.5695747 25.9794628,18.4114252 26,14 C26.0000001,6.26801358 32.2680136,2.0861627e-07 40,2.08616271e-07 C47.7319864,2.08616271e-07 53.9999999,6.26801358 54,14 C54.0200542,18.4113123 51.9410824,22.5692559 48.4,25.2 C47.5202869,25.8623305 47.0020365,26.8988312 47,28 L47,29 C47,29.7956495 46.6839295,30.5587112 46.1213203,31.1213203 C45.5587112,31.6839295 44.7956495,32 44,32 Z M40,2 C33.375553,2.00716485 28.0071648,7.37555305 28,14 C27.9826497,17.7811625 29.7646599,21.3451827 32.8,23.6 C34.1820899,24.6410687 34.996399,26.2696869 35,28 L35,29 C35,29.5522847 35.4477153,30 36,30 L44,30 C44.5522847,30 45,29.5522847 45,29 L45,28 C45.0031334,26.269576 45.8175409,24.6407611 47.2,23.6 C51.3321319,20.5009011 53.0175681,15.1053725 51.3841996,10.2052668 C49.750831,5.30516114 45.1651649,2 40,2 Z" id="Shape" fill="#000000"/><path d="M38,32 C37.4477153,32 37,31.5522847 37,31 L37,28 C37,27.4477153 37.4477153,27 38,27 C38.5522847,27 39,27.4477153 39,28 L39,31 C39,31.5522847 38.5522847,32 38,32 Z" id="Shape" fill="#000000"/><path d="M42,32 C41.4477153,32 41,31.5522847 41,31 L41,28 C41,27.4477153 41.4477153,27 42,27 C42.5522847,27 43,27.4477153 43,28 L43,31 C43,31.5522847 42.5522847,32 42,32 Z" id="Shape" fill="#000000"/><path d="M35,19 C32.790861,19 31,17.209139 31,15 C31,12.790861 32.790861,11 35,11 C37.209139,11 39,12.790861 39,15 C39,16.060866 38.5785726,17.0782816 37.8284271,17.8284271 C37.0782816,18.5785726 36.060866,19 35,19 Z M35,13 C33.8954305,13 33,13.8954305 33,15 C33,16.1045695 33.8954305,17 35,17 C36.1045695,17 37,16.1045695 37,15 C37,13.8954305 36.1045695,13 35,13 Z" id="Shape" fill="#000000"/><path d="M45,19 C42.790861,19 41,17.209139 41,15 C41,12.790861 42.790861,11 45,11 C47.209139,11 49,12.790861 49,15 C49,16.060866 48.5785726,17.0782816 47.8284271,17.8284271 C47.0782816,18.5785726 46.060866,19 45,19 Z M45,13 C43.8954305,13 43,13.8954305 43,15 C43,16.1045695 43.8954305,17 45,17 C46.1045695,17 47,16.1045695 47,15 C47,13.8954305 46.1045695,13 45,13 Z" id="Shape" fill="#000000"/><path d="M39,23 C38.6535599,22.999815 38.3318963,22.8203322 38.1498055,22.5256057 C37.9677146,22.2308792 37.9511412,21.8629025 38.106,21.553 L39.106,19.553 C39.3528713,19.0587052 39.9537051,18.8581287 40.448,19.105 C40.9422948,19.3518713 41.1428713,19.9527052 40.896,20.447 L39.896,22.447 C39.7264146,22.7863743 39.3793861,23.000556 39,23 Z" id="Shape" fill="#000000"/><path d="M41,23 C40.6191744,23.0020788 40.2702259,22.7876694 40.1,22.447 L39.1,20.447 C38.8531287,19.9527052 39.0537052,19.3518713 39.548,19.105 C40.0422949,18.8581287 40.6431287,19.0587052 40.89,19.553 L41.89,21.553 C42.0445455,21.8622668 42.0283796,22.2294236 41.8472507,22.5239106 C41.6661219,22.8183976 41.3457279,22.9984342 41,23 Z" id="Shape" fill="#000000"/><path d="M57,29 C56.8220072,29.0002284 56.6472317,28.9525623 56.494,28.862 L48.544,24.192 C48.0679306,23.9119916 47.9089917,23.2990695 48.189,22.823 C48.4690084,22.3469306 49.0819305,22.1879917 49.558,22.468 L57.508,27.138 C57.8970409,27.366779 58.0846232,27.8277961 57.9658326,28.2632057 C57.8470421,28.6986152 57.451323,29.0004932 57,29 Z" id="Shape" fill="#000000"/><path d="M27.449,11.62 C27.2706277,11.6197133 27.0955785,11.5717215 26.942,11.481 L22.492,8.861 C22.1747258,8.68426191 21.9782147,8.34940056 21.978642,7.98622143 C21.9790694,7.6230423 22.176368,7.28864435 22.4940573,7.11265342 C22.8117465,6.93666249 23.1998793,6.94674785 23.508,7.139 L27.958,9.759 C28.3461627,9.98829313 28.5329043,10.4489633 28.4139674,10.8838191 C28.2950304,11.318675 27.8998276,11.6201782 27.449,11.62 Z" id="Shape" fill="#000000"/><path d="M20,10 C19.5103795,9.99889213 19.0935663,9.64343115 19.0151659,9.1601271 C18.9367654,8.67682304 19.2198373,8.20782833 19.684,8.052 L21.735,7.367 L21.052,5.316 C20.9391041,4.97659769 21.0158529,4.60274775 21.253336,4.33527584 C21.490819,4.06780394 21.852957,3.94734542 22.203336,4.01927584 C22.553715,4.09120626 22.8391041,4.34459768 22.952,4.684 L23.952,7.684 C24.1260931,8.20753538 23.8432841,8.77315322 23.32,8.948 L20.32,9.948 C20.2168718,9.98262358 20.108785,10.0001877 20,10 Z" id="Shape" fill="#000000"/><path d="M58,32 C57.5697607,31.9996733 57.1879555,31.7241936 57.052,31.316 L56.052,28.316 C55.8779069,27.7924646 56.1607159,27.2268468 56.684,27.052 L59.684,26.052 C60.2086705,25.877478 60.775478,26.1613295 60.95,26.686 C61.1245219,27.2106705 60.8406705,27.777478 60.316,27.952 L58.265,28.637 L58.948,30.688 C59.0479317,30.9923032 58.996053,31.3260611 58.8084675,31.5856732 C58.6208819,31.8452852 58.320291,31.9993333 58,32 Z" id="Shape" fill="#000000"/><path d="M23,29 C22.548677,29.0004932 22.1529579,28.6986152 22.0341674,28.2632057 C21.9153768,27.8277961 22.1029591,27.366779 22.492,27.138 L30.442,22.468 C30.9180695,22.1879916 31.5309916,22.3469305 31.811,22.823 C32.0910084,23.2990695 31.9320695,23.9119916 31.456,24.192 L23.506,28.862 C23.3527683,28.9525623 23.1779928,29.0002284 23,29 Z" id="Shape" fill="#000000"/><path d="M52.551,11.62 C52.1001724,11.6201782 51.7049696,11.318675 51.5860326,10.8838191 C51.4670957,10.4489633 51.6538373,9.98829313 52.042,9.759 L56.492,7.139 C56.8001207,6.94674785 57.1882535,6.93666249 57.5059427,7.11265342 C57.823632,7.28864435 58.0209306,7.6230423 58.021358,7.98622143 C58.0217853,8.34940056 57.8252742,8.68426191 57.508,8.861 L53.058,11.481 C52.9044215,11.5717215 52.7293723,11.6197133 52.551,11.62 Z" id="Shape" fill="#000000"/><path d="M60,10 C59.8925571,9.99975524 59.7858558,9.9821968 59.684,9.948 L56.684,8.948 C56.1607159,8.77315322 55.8779069,8.20753538 56.052,7.684 L57.052,4.684 C57.1648959,4.34459768 57.450285,4.09120626 57.800664,4.01927584 C58.151043,3.94734542 58.513181,4.06780394 58.750664,4.33527584 C58.9881471,4.60274775 59.0648959,4.97659769 58.952,5.316 L58.269,7.367 L60.32,8.052 C60.7848783,8.20807032 61.0679981,8.67820823 60.9885087,9.1621 C60.9090193,9.64599177 60.4903765,10.0008504 60,10 Z" id="Shape" fill="#000000"/><path d="M22,32 C21.6787328,31.9997561 21.3771457,31.8451743 21.1893651,31.5844999 C21.0015845,31.3238255 20.9504794,30.9888053 21.052,30.684 L21.735,28.633 L19.684,27.948 C19.1593295,27.773478 18.875478,27.2066705 19.05,26.682 C19.224522,26.1573295 19.7913295,25.873478 20.316,26.048 L23.316,27.048 C23.8392841,27.2228468 24.1220931,27.7884646 23.948,28.312 L22.948,31.312 C22.8134341,31.7217744 22.4313029,31.9991017 22,32 Z" id="Shape" fill="#000000"/></g></g></svg>
