<?xml version="1.0" encoding="UTF-8"?>
<svg xmlns="http://www.w3.org/2000/svg" xmlns:xlink="http://www.w3.org/1999/xlink" width="512" height="512" viewBox="0 0 60 60" version="1.1"><!-- Generator: Sketch 51.3 (57544) - http://www.bohemiancoding.com/sketch --><title>071 - Mental Health</title><desc>Created with Sketch.</desc><defs/><g id="Page-1" stroke="none" stroke-width="1" fill="none" fill-rule="evenodd"><g id="071---Mental-Health" transform="translate(-1.000000, 0.000000)" fill-rule="nonzero"><path d="M41.213,22.22 C39.943,21.57 38.672,23.5 38.672,23.5 L38.593,23.49 C38.7559709,20.4955491 38.7559709,17.4944509 38.593,14.5 C38,1.64 23.193,1 23.193,1 L20.813,1 C20.813,1 6,1.64 5.412,14.5 C5.24902908,17.4944509 5.24902908,20.4955491 5.412,23.49 L5.333,23.5 C5.333,23.5 4.063,21.57 2.792,22.22 C1.533,22.85 2.153,28.64 2.153,28.64 C2.153,28.64 2.783,33.1 6.533,35.04 C6.373,38.76 6.093,42.14 10.153,46 C10.6353309,46.4549126 11.0926674,46.9356167 11.523,47.44 L11.523,56.96 C11.5229862,58.060676 12.4123377,58.9544966 13.513,58.96 L30.493,58.96 C31.5932713,58.9539484 32.4820166,58.060288 32.482,56.96 L32.482,47.44 C32.9126018,46.9358594 33.3699249,46.4551694 33.852,46 C37.912,42.14 37.633,38.76 37.472,35.04 C41.222,33.1 41.852,28.64 41.852,28.64 C41.852,28.64 42.472,22.85 41.213,22.22 Z" id="Shape" fill="#F29C1F"/><path d="M6.593,33.14 C6.593,33.79 6.573,34.42 6.533,35.04 C2.783,33.1 2.153,28.64 2.153,28.64 C2.153,28.64 1.533,22.85 2.792,22.22 C4.063,21.57 5.333,23.5 5.333,23.5 L5.412,23.49 C5.732,28.45 6.593,30.02 6.593,33.14 Z" id="Shape" fill="#FF9801"/><path d="M38.59,23.49 C38.27,28.45 37.41,30.02 37.41,33.14 C37.41,33.79 37.43,34.42 37.47,35.04 C37.63,38.76 37.91,42.14 33.85,46 C33.3674124,46.4546547 32.9100622,46.9353732 32.48,47.44 C29.06,51.41 28.6,55 24.37,55 L19.63,55 C15.4,55 14.94,51.41 11.52,47.44 C11.0899378,46.9353732 10.6325876,46.4546547 10.15,46 C6.09,42.14 6.37,38.76 6.53,35.04 C6.57,34.42 6.59,33.79 6.59,33.14 C6.59,30.02 5.73,28.45 5.41,23.49 C5.2465184,20.495563 5.2465184,17.494437 5.41,14.5 C5.95,2.75 18.37,1.2 20.5,1.02 C20.7,1 20.81,1 20.81,1 L23.19,1 C23.19,1 38,1.64 38.59,14.5 C38.7534816,17.494437 38.7534816,20.495563 38.59,23.49 Z" id="Shape" fill="#FEC108"/><path d="M35.59,23.49 C35.27,28.45 34.41,30.02 34.41,33.14 C34.41,33.79 34.43,34.42 34.47,35.04 C34.63,38.76 34.91,42.14 30.85,46 C30.3674124,46.4546547 29.9100622,46.9353732 29.48,47.44 C26.06,51.41 25.6,55 21.37,55 L19.63,55 C15.4,55 14.94,51.41 11.52,47.44 C11.0899378,46.9353732 10.6325876,46.4546547 10.15,46 C6.09,42.14 6.37,38.76 6.53,35.04 C6.57,34.42 6.59,33.79 6.59,33.14 C6.59,30.02 5.73,28.45 5.41,23.49 C5.2465184,20.495563 5.2465184,17.494437 5.41,14.5 C5.95,2.75 18.37,1.2 20.5,1.02 C22.63,1.2 35.05,2.75 35.59,14.5 C35.7534816,17.494437 35.7534816,20.495563 35.59,23.49 Z" id="Shape" fill="#FFDC00"/><path d="M41.852,28.64 C41.852,28.64 41.222,33.1 37.472,35.04 C37.433,34.42 37.412,33.79 37.412,33.14 C37.412,30.02 38.273,28.45 38.593,23.49 L38.672,23.5 C38.672,23.5 39.943,21.57 41.213,22.22 C42.472,22.85 41.852,28.64 41.852,28.64 Z" id="Shape" fill="#FF9801"/><path d="M32.482,47.44 L32.482,56.96 C32.4820138,58.060676 31.5926623,58.9544966 30.492,58.96 L13.513,58.96 C12.4123377,58.9544966 11.5229862,58.060676 11.523,56.96 L11.523,47.44 C14.943,51.41 15.403,55 19.633,55 L24.373,55 C28.6,55 29.063,51.41 32.482,47.44 Z" id="Shape" fill="#FF9801"/><path d="M46.48,13.822 L45.28,18.502 C44.8833192,19.1798855 44.4028751,19.8051349 43.85,20.363 L39.61,24.6 L26.88,11.873 L31.12,7.632 C34.6379221,4.12306189 40.3320779,4.12306189 43.85,7.632 C44.3599565,8.14071017 44.8034805,8.71191525 45.17,9.332 C45.966367,10.6994088 46.4161073,12.2408849 46.48,13.822 Z" id="Shape" fill="#CFD8DC"/><path d="M45,11.342 L43.8,16.022 C43.4033192,16.6998855 42.9228751,17.3251349 42.37,17.883 L38.13,22.122 L26.7,10.693 L30.76,6.633 C34.2770117,3.12186071 39.9729883,3.12186071 43.49,6.633 C43.56,6.703 43.63,6.782 43.69,6.852 C44.486367,8.21940878 44.9361073,9.76088491 45,11.342 Z" id="Shape" fill="#F5F5F5"/><path d="M39.61,24.6 L35.36,28.84 C32.1314229,32.0747462 26.9894317,32.3716478 23.41,29.53 C23.1413431,29.3137418 22.8843172,29.0834199 22.64,28.84 C20.9499931,27.1551424 20.000123,24.8668923 20.000123,22.4805 C20.000123,20.0941077 20.9499931,17.8058576 22.64,16.121 L26.88,11.871 L39.61,24.6 Z" id="Shape" fill="#C81E1E"/><path d="M38.13,22.122 L33.88,26.362 C30.6514229,29.5967462 25.5094317,29.8936478 21.93,27.052 C18.9340681,23.4814778 19.1686452,18.2121814 22.47,14.922 L26.7,10.693 L38.13,22.122 Z" id="Shape" fill="#F44335"/><path d="M60,16.48 C60,17.5845695 59.1045695,18.48 58,18.48 L53,18.48 C51.8967981,18.4832948 51.0032948,19.3767981 51,20.48 L51,25.48 C51.0006409,26.2881302 50.5148782,27.017236 49.7688469,27.3279 C49.0228156,27.6385641 48.1631318,27.4697322 47.59,26.9 C47.56,26.86 47.52,26.83 47.5,26.8 C47.1768312,26.436366 46.9988454,25.9664837 47,25.48 L47,20.48 C46.9967052,19.3767981 46.1032019,18.4832948 45,18.48 L40,18.48 C38.8954305,18.48 38,17.5845695 38,16.48 C38.0081672,15.3788312 38.8988312,14.4881672 40,14.48 L45,14.48 C46.1045695,14.48 47,13.5845695 47,12.48 L47,7.48 C47,6.3754305 47.8954305,5.48 49,5.48 C50.1045695,5.48 51,6.3754305 51,7.48 L51,12.48 C51,13.5845695 51.8954305,14.48 53,14.48 L58,14.48 C59.1032019,14.4832948 59.9967052,15.3767981 60,16.48 Z" id="Shape" fill="#549414"/><path d="M57,16.48 C57,17.5845695 56.1045695,18.48 55,18.48 L50,18.48 C48.8967981,18.4832948 48.0032948,19.3767981 48,20.48 L48,25.48 C48.0011546,25.9664837 47.8231688,26.436366 47.5,26.8 C47.1768312,26.436366 46.9988454,25.9664837 47,25.48 L47,20.48 C46.9967052,19.3767981 46.1032019,18.4832948 45,18.48 L40,18.48 C38.8954305,18.48 38,17.5845695 38,16.48 C38.0081672,15.3788312 38.8988312,14.4881672 40,14.48 L45,14.48 C46.1045695,14.48 47,13.5845695 47,12.48 L47,7.48 C47.0007378,6.99685907 47.1786364,6.53076466 47.5,6.17 C47.8213636,6.53076466 47.9992622,6.99685907 48,7.48 L48,12.48 C48,13.5845695 48.8954305,14.48 50,14.48 L55,14.48 C56.1032019,14.4832948 56.9967052,15.3767981 57,16.48 Z" id="Shape" fill="#60A917"/><path d="M6.53,36.076 C6.37067056,36.0760148 6.21364387,36.0379581 6.072,35.965 C1.907,33.813 1.192,29.026 1.164,28.823 C0.842,25.835 0.788,22.147 2.339,21.365 C3.967,20.538 5.511,21.996 6.166,22.988 C6.45864172,23.4487382 6.32777555,24.0590241 5.87195367,24.359266 C5.41613178,24.659508 4.80375962,24.5387803 4.496,24.088 C4.205,23.653 3.609,23.088 3.307,23.128 C2.97,23.72 2.894,26.2 3.148,28.576 C3.148,28.576 3.759,32.517 6.99,34.186 C7.39951073,34.3980617 7.61090029,34.8626656 7.50173467,35.3107193 C7.39256905,35.7587729 6.99116073,36.0740722 6.53,36.074 L6.53,36.076 Z" id="Shape" fill="#000000"/><path d="M24.37,56.04 L19.63,56.04 C16.158,56.04 14.786,53.933 13.197,51.491 C12.152706,49.7669717 10.8977094,48.1797503 9.461,46.766 C5.191,42.711 5.361,38.977 5.524,35.366 C5.557,34.651 5.59,33.925 5.59,33.181 C5.56909313,31.8555116 5.41871188,30.5352379 5.141,29.239 C4.665,26.617 4.013,23.026 4.411,14.494 C5.036,0.878 20.61,0.048 20.767,0.041 L23.19,0.041 C23.523,0.055 30.411,0.397 35.19,4.763 C35.4675396,5.00022161 35.593735,5.36984558 35.5192155,5.72726571 C35.444696,6.08468584 35.1813076,6.37308439 34.8320945,6.47963261 C34.4828814,6.58618082 34.1033567,6.49394112 33.842,6.239 C29.605,2.374 23.206,2.039 23.142,2.039 L20.81,2.039 C20.287,2.063 6.949,2.804 6.41,14.585 C6.022,22.891 6.625,26.212 7.11,28.885 C7.41069164,30.2991556 7.57212921,31.7393663 7.592,33.185 C7.592,33.96 7.558,34.717 7.524,35.461 C7.361,39.056 7.232,41.895 10.84,45.319 C12.387927,46.8408441 13.742768,48.5473258 14.874,50.4 C16.517,52.924 17.339,54.04 19.63,54.04 L24.37,54.04 C26.661,54.04 27.483,52.924 29.126,50.4 C30.2575158,48.5454611 31.6130448,46.8372796 33.162,45.314 C36.769,41.885 36.644,39.05 36.486,35.46 L36.471,35.123 C36.431,34.503 36.41,33.853 36.41,33.18 C36.4302939,31.7290516 36.5920597,30.2835415 36.893,28.864 C37.054,27.974 37.237,26.964 37.387,25.711 C37.4527219,25.1625812 37.9505812,24.7712781 38.499,24.837 C39.0474188,24.9027219 39.4387219,25.4005812 39.373,25.949 C39.215,27.262 39.027,28.303 38.861,29.221 C38.581957,30.5228075 38.4309047,31.848786 38.41,33.18 C38.41,33.808 38.43,34.417 38.468,35.016 L38.484,35.372 C38.643,38.978 38.807,42.707 34.539,46.765 C33.1014027,48.1790921 31.8454137,49.7666298 30.8,51.491 C29.214,53.933 27.842,56.04 24.37,56.04 Z" id="Shape" fill="#000000"/><path d="M37.471,36.08 C37.0098393,36.0800722 36.6084309,35.7647729 36.4992653,35.3167193 C36.3900997,34.8686656 36.6014893,34.4040617 37.011,34.192 C40.24,32.521 40.854,28.577 40.86,28.537 C41.045,26.802 41.115,23.937 40.678,23.121 C40.4357213,22.6362352 40.6236802,22.0466995 41.1018376,21.791628 C41.5799949,21.5365566 42.1743158,21.7087876 42.442,22.18 C43.322,23.827 42.932,27.972 42.842,28.786 C42.81,29.022 42.088,33.815 37.928,35.968 C37.7867431,36.0411503 37.6300732,36.0795464 37.471,36.08 Z" id="Shape" fill="#000000"/><path d="M30.487,60 L13.513,60 C11.8561458,60 10.513,58.6568542 10.513,57 L10.513,47.48 C10.513,46.9277153 10.9607153,46.48 11.513,46.48 C12.0652847,46.48 12.513,46.9277153 12.513,47.48 L12.513,57 C12.513,57.5522847 12.9607153,58 13.513,58 L30.487,58 C31.0392847,58 31.487,57.5522847 31.487,57 L31.487,47.48 C31.487,46.9277153 31.9347153,46.4800001 32.487,46.4800001 C33.0392847,46.4800001 33.487,46.9277153 33.487,47.48 L33.487,57 C33.487,58.6568542 32.1438542,60 30.487,60 Z" id="Shape" fill="#000000"/><path d="M29,32.482 C24.9547994,32.4845739 21.3069847,30.0483595 19.7596628,26.3107868 C18.212341,22.5732141 19.0707057,18.2714815 21.934,15.414 L30.413,6.926 C34.3249317,3.03612154 40.6440683,3.03612154 44.556,6.926 C46.3596599,8.75512751 47.4039824,11.1992639 47.479,13.767 C47.5102041,14.3192847 47.0877847,14.7922959 46.5355,14.8235 C45.9832153,14.8547041 45.5102041,14.4322847 45.479,13.88 C45.4281536,11.8045391 44.5935669,9.82525387 43.143,8.34 C40.0125197,5.2279051 34.9564803,5.2279051 31.826,8.34 L23.348,16.827 C21.2618809,18.8319471 20.4218086,21.8075602 21.151432,24.6074451 C21.8810555,27.4073299 24.0665055,29.5945206 26.8658086,30.3263729 C29.6651118,31.0582253 32.6413927,30.2205222 34.648,28.136 L43.139,19.654 C43.632541,19.1562397 44.0612643,18.5981603 44.415,17.993 C44.6961129,17.5174828 45.3094828,17.3598871 45.785,17.641 C46.2605172,17.9221129 46.4181129,18.5354828 46.137,19.011 C45.6972722,19.7603266 45.165101,20.45141 44.553,21.068 L36.062,29.55 C34.1946391,31.4321428 31.6513131,32.4880805 29,32.482 Z" id="Shape" fill="#000000"/><path d="M32.536,12.876 C32.1316041,12.8759137 31.7670659,12.6322725 31.612322,12.2586546 C31.4575781,11.8850366 31.5430921,11.4549943 31.829,11.169 L33.243,9.755 C35.5872549,7.41479902 39.3837451,7.41479902 41.728,9.755 C42.1069722,10.1473789 42.1015524,10.7710848 41.7158186,11.1568186 C41.3300848,11.5425524 40.7063789,11.5479722 40.314,11.169 C38.7505184,9.6101112 36.2204816,9.6101112 34.657,11.169 L33.243,12.583 C33.0555073,12.7705494 32.8011948,12.8759434 32.536,12.876 Z" id="Shape" fill="#000000"/><path d="M39.606,25.6 C39.3408052,25.5999434 39.0864927,25.4945494 38.899,25.307 L26.172,12.583 C25.9120434,12.3319255 25.8077874,11.9601221 25.8993028,11.6104927 C25.9908183,11.2608632 26.2638632,10.9878183 26.6134927,10.8963028 C26.9631221,10.8047874 27.3349255,10.9090434 27.586,11.169 L40.313,23.9 C40.5996239,24.1859 40.6855934,24.6164072 40.5307586,24.9904636 C40.3759237,25.36452 40.0108357,25.608319 39.606,25.608 L39.606,25.6 Z" id="Shape" fill="#000000"/><circle id="Oval" fill="#000000" cx="26.879" cy="17.533" r="1"/><path d="M49,28.482 C47.3431458,28.482 46,27.1388542 46,25.482 L46,20.482 C46,19.9297153 45.5522847,19.482 45,19.482 L40,19.482 C38.3431458,19.482 37,18.1388542 37,16.482 C37,14.8251458 38.3431458,13.482 40,13.482 L45,13.482 C45.5522847,13.482 46,13.0342847 46,12.482 L46,7.482 C46,5.82514575 47.3431458,4.482 49,4.482 C50.6568542,4.482 52,5.82514575 52,7.482 L52,12.482 C52,13.0342847 52.4477153,13.482 53,13.482 L58,13.482 C59.6568542,13.482 61,14.8251458 61,16.482 C61,18.1388542 59.6568542,19.482 58,19.482 L53,19.482 C52.4477153,19.482 52,19.9297153 52,20.482 L52,25.482 C52,27.1388542 50.6568542,28.482 49,28.482 Z M40,15.482 C39.4477153,15.482 39,15.9297153 39,16.482 C39,17.0342847 39.4477153,17.482 40,17.482 L45,17.482 C46.6568542,17.482 48,18.8251458 48,20.482 L48,25.482 C48,26.0342847 48.4477153,26.482 49,26.482 C49.5522847,26.482 50,26.0342847 50,25.482 L50,20.482 C50,18.8251458 51.3431458,17.482 53,17.482 L58,17.482 C58.5522847,17.482 59,17.0342847 59,16.482 C59,15.9297153 58.5522847,15.482 58,15.482 L53,15.482 C51.3431458,15.482 50,14.1388542 50,12.482 L50,7.482 C50,6.92971525 49.5522847,6.482 49,6.482 C48.4477153,6.482 48,6.92971525 48,7.482 L48,12.482 C48,14.1388542 46.6568542,15.482 45,15.482 L40,15.482 Z" id="Shape" fill="#000000"/></g></g></svg>
