<?xml version="1.0" encoding="UTF-8"?>
<svg xmlns="http://www.w3.org/2000/svg" xmlns:xlink="http://www.w3.org/1999/xlink" width="512" height="512" viewBox="0 0 58 60" version="1.1"><!-- Generator: Sketch 51.3 (57544) - http://www.bohemiancoding.com/sketch --><title>072 - Exhausted</title><desc>Created with Sketch.</desc><defs/><g id="Page-1" stroke="none" stroke-width="1" fill="none" fill-rule="evenodd"><g id="072---Exhausted" transform="translate(-1.000000, 0.000000)" fill-rule="nonzero"><path d="M41.208,22.22 C39.937,21.57 38.667,23.5 38.667,23.5 L38.588,23.49 C38.7509709,20.4955491 38.7509709,17.4944509 38.588,14.5 C38,1.64 23.187,1 23.187,1 L20.807,1 C20.807,1 6,1.64 5.407,14.5 C5.24402908,17.4944509 5.24402908,20.4955491 5.407,23.49 L5.328,23.5 C5.328,23.5 4.057,21.57 2.787,22.22 C1.528,22.85 2.148,28.64 2.148,28.64 C2.148,28.64 2.778,33.1 6.528,35.04 C6.367,38.76 6.088,42.14 10.148,46 C10.6300751,46.4551694 11.0873982,46.9358594 11.518,47.44 L11.518,56.96 C11.5179862,58.060676 12.4073377,58.9544966 13.508,58.96 L30.487,58.96 C31.5876623,58.9544966 32.4770138,58.060676 32.477,56.96 L32.477,47.44 C32.9076018,46.9358594 33.3649249,46.4551694 33.847,46 C37.907,42.14 37.627,38.76 37.467,35.04 C41.217,33.1 41.847,28.64 41.847,28.64 C41.847,28.64 42.467,22.85 41.208,22.22 Z" id="Shape" fill="#955BA5"/><path d="M6.588,33.14 C6.588,33.79 6.567,34.42 6.528,35.04 C2.778,33.1 2.148,28.64 2.148,28.64 C2.148,28.64 1.528,22.85 2.787,22.22 C4.057,21.57 5.328,23.5 5.328,23.5 L5.407,23.49 C5.727,28.45 6.588,30.02 6.588,33.14 Z" id="Shape" fill="#673AB7"/><path d="M38.59,23.49 C38.27,28.45 37.41,30.02 37.41,33.14 C37.41,33.79 37.43,34.42 37.47,35.04 C37.63,38.76 37.91,42.14 33.85,46 C33.3674124,46.4546547 32.9100622,46.9353732 32.48,47.44 C29.06,51.41 28.6,55 24.37,55 L19.63,55 C15.4,55 14.94,51.41 11.52,47.44 C11.0899378,46.9353732 10.6325876,46.4546547 10.15,46 C6.09,42.14 6.37,38.76 6.53,35.04 C6.57,34.42 6.59,33.79 6.59,33.14 C6.59,30.02 5.73,28.45 5.41,23.49 C5.2465184,20.495563 5.2465184,17.494437 5.41,14.5 C5.95,2.75 18.37,1.2 20.5,1.02 C20.7,1 20.81,1 20.81,1 L23.19,1 C23.19,1 38,1.64 38.59,14.5 C38.7534816,17.494437 38.7534816,20.495563 38.59,23.49 Z" id="Shape" fill="#6A1B9A"/><path d="M35.59,23.49 C35.27,28.45 34.41,30.02 34.41,33.14 C34.41,33.79 34.43,34.42 34.47,35.04 C34.63,38.76 34.91,42.14 30.85,46 C30.3674124,46.4546547 29.9100622,46.9353732 29.48,47.44 C26.06,51.41 25.6,55 21.37,55 L19.63,55 C15.4,55 14.94,51.41 11.52,47.44 C11.0899378,46.9353732 10.6325876,46.4546547 10.15,46 C6.09,42.14 6.37,38.76 6.53,35.04 C6.57,34.42 6.59,33.79 6.59,33.14 C6.59,30.02 5.73,28.45 5.41,23.49 C5.2465184,20.495563 5.2465184,17.494437 5.41,14.5 C5.95,2.75 18.37,1.2 20.5,1.02 C22.63,1.2 35.05,2.75 35.59,14.5 C35.7534816,17.494437 35.7534816,20.495563 35.59,23.49 Z" id="Shape" fill="#9D27B0"/><path d="M41.847,28.64 C41.847,28.64 41.217,33.1 37.467,35.04 C37.427,34.42 37.407,33.79 37.407,33.14 C37.407,30.02 38.268,28.45 38.588,23.49 L38.667,23.5 C38.667,23.5 39.937,21.57 41.208,22.22 C42.467,22.85 41.847,28.64 41.847,28.64 Z" id="Shape" fill="#673AB7"/><path d="M32.477,47.44 L32.477,56.96 C32.4770138,58.060676 31.5876623,58.9544966 30.487,58.96 L13.507,58.96 C12.4067287,58.9539484 11.5179834,58.060288 11.518,56.96 L11.518,47.44 C14.937,51.41 15.4,55 19.627,55 L24.367,55 C28.6,55 29.057,51.41 32.477,47.44 Z" id="Shape" fill="#673AB7"/><rect id="Rectangle-path" fill="#283593" x="26" y="9" width="32" height="18" rx="2"/><rect id="Rectangle-path" fill="#3F51B5" x="26" y="9" width="29" height="18" rx="2"/><rect id="Rectangle-path" fill="#00BCD4" x="30" y="13" width="24" height="10" rx="1"/><path d="M24,14 L26,14 L26,22 L24,22 C22.8954305,22 22,21.1045695 22,20 L22,16 C22,14.8954305 22.8954305,14 24,14 Z" id="Shape" fill="#3F51B5"/><path d="M31,13 L36,13 L36,23 L31,23 C30.4477153,23 30,22.5522847 30,22 L30,14 C30,13.4477153 30.4477153,13 31,13 Z" id="Shape" fill="#F44335"/><path d="M6.53,36.036 C6.37067056,36.0360148 6.21364387,35.9979581 6.072,35.925 C1.907,33.773 1.192,28.986 1.164,28.783 C0.842,25.8 0.788,22.106 2.34,21.325 C3.967,20.499 5.511,21.956 6.166,22.948 C6.45864172,23.4087382 6.32777555,24.0190241 5.87195367,24.319266 C5.41613178,24.619508 4.80375962,24.4987803 4.496,24.048 C4.205,23.614 3.602,23.061 3.307,23.089 C2.97,23.68 2.894,26.16 3.148,28.536 C3.148,28.536 3.759,32.477 6.99,34.145 C7.40065725,34.3565193 7.61299718,34.8217883 7.50370399,35.2706031 C7.39441079,35.719418 6.99192951,36.0349687 6.53,36.034 L6.53,36.036 Z" id="Shape" fill="#000000"/><path d="M24.37,56 L19.63,56 C16.158,56 14.786,53.893 13.197,51.451 C12.152706,49.7269717 10.8977094,48.1397503 9.461,46.726 C5.191,42.671 5.361,38.937 5.524,35.326 C5.557,34.611 5.59,33.885 5.59,33.141 C5.56902808,31.8158462 5.41864719,30.4959106 5.141,29.2 C4.665,26.578 4.013,22.987 4.411,14.455 C5.036,0.838 20.61,0.008 20.767,0 L23.19,0 C23.675,0.02 34.117,0.559 38.115,8.553 C38.2780317,8.87298399 38.2569628,9.25581778 38.059802,9.55597893 C37.8626412,9.85614008 37.5196678,10.0275309 37.1612525,10.0050026 C36.8028371,9.98247422 36.484024,9.76948645 36.326,9.447 C32.859,2.516 23.243,2 23.146,2 L20.81,2 C20.287,2.024 6.949,2.765 6.41,14.546 C6.022,22.852 6.625,26.173 7.11,28.846 C7.41069164,30.2601556 7.57212921,31.7003663 7.592,33.146 C7.592,33.921 7.558,34.678 7.524,35.422 C7.361,39.022 7.232,41.856 10.84,45.28 C12.3891897,46.8030687 13.7447428,48.5112806 14.876,50.366 C16.517,52.884 17.339,54 19.63,54 L24.37,54 C26.661,54 27.483,52.884 29.126,50.36 C30.2572572,48.5052806 31.6128103,46.7970687 33.162,45.274 C36.769,41.845 36.644,39.01 36.486,35.42 L36.471,35.083 C36.431,34.463 36.41,33.812 36.41,33.14 C36.4300437,31.6912957 36.5921533,30.2480513 36.894,28.831 C37.003,28.231 37.121,27.587 37.231,26.852 C37.2845898,26.4986643 37.5226112,26.2007585 37.8554038,26.0705008 C38.1881964,25.9402431 38.5652011,25.9974228 38.8444038,26.2205008 C39.1236066,26.4435788 39.2625899,26.7986643 39.209,27.152 C39.095,27.911 38.975,28.574 38.862,29.193 C38.5821878,30.492 38.4307926,31.8153678 38.41,33.144 C38.41,33.772 38.43,34.381 38.468,34.98 L38.484,35.336 C38.643,38.942 38.807,42.671 34.539,46.729 C33.1016663,48.1418517 31.8456875,49.7280329 30.8,51.451 C29.214,53.893 27.842,56 24.37,56 Z" id="Shape" fill="#000000"/><path d="M37.471,36.04 C37.0098393,36.0400722 36.6084309,35.7247729 36.4992653,35.2767193 C36.3900997,34.8286656 36.6014893,34.3640617 37.011,34.152 C40.221,32.491 40.847,28.585 40.86,28.498 C40.86,28.498 40.924,27.833 40.972,26.946 C41.0018234,26.3937153 41.4737153,25.9701766 42.026,26 C42.5782847,26.0298234 43.0018234,26.5017153 42.972,27.054 C42.92,28.021 42.848,28.739 42.848,28.739 C42.815,28.982 42.093,33.775 37.933,35.928 C37.7902416,36.0019271 37.631764,36.040346 37.471,36.04 Z" id="Shape" fill="#000000"/><path d="M30.487,59.96 L13.513,59.96 C11.8561458,59.96 10.513,58.6168542 10.513,56.96 L10.513,47.44 C10.513,46.8877153 10.9607153,46.44 11.513,46.44 C12.0652847,46.44 12.513,46.8877153 12.513,47.44 L12.513,56.96 C12.513,57.5122847 12.9607153,57.96 13.513,57.96 L30.487,57.96 C31.0392847,57.96 31.487,57.5122847 31.487,56.96 L31.487,47.44 C31.487,46.8877153 31.9347153,46.4400001 32.487,46.4400001 C33.0392847,46.4400001 33.487,46.8877153 33.487,47.44 L33.487,56.96 C33.487,58.6168542 32.1438542,59.96 30.487,59.96 Z" id="Shape" fill="#000000"/><path d="M56,28 L28,28 C26.3431458,28 25,26.6568542 25,25 L25,11 C25,9.34314575 26.3431458,8 28,8 L56,8 C57.6568542,8 59,9.34314575 59,11 L59,25 C59,26.6568542 57.6568542,28 56,28 Z M28,10 C27.4477153,10 27,10.4477153 27,11 L27,25 C27,25.5522847 27.4477153,26 28,26 L56,26 C56.5522847,26 57,25.5522847 57,25 L57,11 C57,10.4477153 56.5522847,10 56,10 L28,10 Z" id="Shape" fill="#000000"/><path d="M54,24 L30,24 C29.4477153,24 29,23.5522847 29,23 L29,13 C29,12.4477153 29.4477153,12 30,12 L54,12 C54.5522847,12 55,12.4477153 55,13 L55,23 C55,23.5522847 54.5522847,24 54,24 Z M31,22 L53,22 L53,14 L31,14 L31,22 Z" id="Shape" fill="#000000"/><path d="M26,23 L24,23 C22.3431458,23 21,21.6568542 21,20 L21,16 C21,14.3431458 22.3431458,13 24,13 L26,13 C26.5522847,13 27,13.4477153 27,14 L27,22 C27,22.5522847 26.5522847,23 26,23 Z M24,15 C23.4477153,15 23,15.4477153 23,16 L23,20 C23,20.5522847 23.4477153,21 24,21 L25,21 L25,15 L24,15 Z" id="Shape" fill="#000000"/><path d="M36,24 L30,24 C29.4477153,24 29,23.5522847 29,23 L29,13 C29,12.4477153 29.4477153,12 30,12 L36,12 C36.5522847,12 37,12.4477153 37,13 L37,23 C37,23.5522847 36.5522847,24 36,24 Z M31,22 L35,22 L35,14 L31,14 L31,22 Z" id="Shape" fill="#000000"/><path d="M42,24 C41.4477153,24 41,23.5522847 41,23 L41,21 C41,20.4477153 41.4477153,20 42,20 C42.5522847,20 43,20.4477153 43,21 L43,23 C43,23.5522847 42.5522847,24 42,24 Z" id="Shape" fill="#000000"/><path d="M48,24 C47.4477153,24 47,23.5522847 47,23 L47,21 C47,20.4477153 47.4477153,20 48,20 C48.5522847,20 49,20.4477153 49,21 L49,23 C49,23.5522847 48.5522847,24 48,24 Z" id="Shape" fill="#000000"/></g></g></svg>
