<?xml version="1.0" encoding="UTF-8"?>
<svg xmlns="http://www.w3.org/2000/svg" xmlns:xlink="http://www.w3.org/1999/xlink" width="512" height="512" viewBox="0 0 60 60" version="1.1"><!-- Generator: Sketch 51.3 (57544) - http://www.bohemiancoding.com/sketch --><title>073 - Inner Dialogue</title><desc>Created with Sketch.</desc><defs/><g id="Page-1" stroke="none" stroke-width="1" fill="none" fill-rule="evenodd"><g id="073---Inner-Dialogue" transform="translate(-1.000000, 0.000000)" fill-rule="nonzero"><path d="M6.593,33.14 C6.593,33.79 6.573,34.42 6.533,35.04 C2.783,33.1 2.153,28.64 2.153,28.64 C2.153,28.64 1.533,22.85 2.792,22.22 C4.063,21.57 5.333,23.5 5.333,23.5 L5.412,23.49 C5.732,28.45 6.593,30.02 6.593,33.14 Z" id="Shape" fill="#673AB7"/><path d="M38.59,23.49 C38.27,28.45 37.41,30.02 37.41,33.14 C37.41,33.79 37.43,34.42 37.47,35.04 C37.63,38.76 37.91,42.14 33.85,46 C33.3674124,46.4546547 32.9100622,46.9353732 32.48,47.44 C29.06,51.41 28.6,55 24.37,55 L19.63,55 C15.4,55 14.94,51.41 11.52,47.44 C11.0899378,46.9353732 10.6325876,46.4546547 10.15,46 C6.09,42.14 6.37,38.76 6.53,35.04 C6.57,34.42 6.59,33.79 6.59,33.14 C6.59,30.02 5.73,28.45 5.41,23.49 C5.2465184,20.495563 5.2465184,17.494437 5.41,14.5 C5.95,2.75 18.37,1.2 20.5,1.02 C20.7,1 20.81,1 20.81,1 L23.19,1 C23.19,1 38,1.64 38.59,14.5 C38.7534816,17.494437 38.7534816,20.495563 38.59,23.49 Z" id="Shape" fill="#6A1B9A"/><path d="M35.59,23.49 C35.27,28.45 34.41,30.02 34.41,33.14 C34.41,33.79 34.43,34.42 34.47,35.04 C34.63,38.76 34.91,42.14 30.85,46 C30.3674124,46.4546547 29.9100622,46.9353732 29.48,47.44 C26.06,51.41 25.6,55 21.37,55 L19.63,55 C15.4,55 14.94,51.41 11.52,47.44 C11.0899378,46.9353732 10.6325876,46.4546547 10.15,46 C6.09,42.14 6.37,38.76 6.53,35.04 C6.57,34.42 6.59,33.79 6.59,33.14 C6.59,30.02 5.73,28.45 5.41,23.49 C5.2465184,20.495563 5.2465184,17.494437 5.41,14.5 C5.95,2.75 18.37,1.2 20.5,1.02 C22.63,1.2 35.05,2.75 35.59,14.5 C35.7534816,17.494437 35.7534816,20.495563 35.59,23.49 Z" id="Shape" fill="#9D27B0"/><path d="M32.482,47.44 L32.482,56.96 C32.4820138,58.060676 31.5926623,58.9544966 30.492,58.96 L13.513,58.96 C12.4123377,58.9544966 11.5229862,58.060676 11.523,56.96 L11.523,47.44 C14.943,51.41 15.403,55 19.633,55 L24.373,55 C28.6,55 29.063,51.41 32.482,47.44 Z" id="Shape" fill="#673AB7"/><path d="M24,18 L24,28.53 C24.0027436,29.3407194 24.6592806,29.9972564 25.47,30 L27,30 L27,34 L32.04,30 L42.54,30 C43.3463357,30 44,29.3463357 44,28.54 L44,17.46 C43.9978024,16.6545763 43.3454237,16.0021976 42.54,16 L26,16 C24.8954305,16 24,16.8954305 24,18 Z" id="Shape" fill="#3F51B5"/><path d="M60,3 L60,19 C59.9967052,20.1032019 59.1032019,20.9967052 58,21 L56,21 L56,27 L53,24.43 L49,21 L34,21 C32.8967981,20.9967052 32.0032948,20.1032019 32,19 L32,3 C32.0032948,1.89679813 32.8967981,1.0032948 34,1 L58,1 C59.1032019,1.0032948 59.9967052,1.89679813 60,3 Z" id="Shape" fill="#0377BC"/><path d="M57,3 L57,19 C57.0001199,19.6650331 56.6704811,20.2868517 56.12,20.66 C56.0443793,20.7109713 55.964005,20.7545074 55.88,20.79 C55.6061398,20.9251436 55.3053747,20.9969171 55,21 L53,21 L53,24.43 L49,21 L34,21 C32.8967981,20.9967052 32.0032948,20.1032019 32,19 L32,3 C32.0032948,1.89679813 32.8967981,1.0032948 34,1 L55,1 C56.1032019,1.0032948 56.9967052,1.89679813 57,3 Z" id="Shape" fill="#02A9F4"/><circle id="Oval" fill="#3F51B5" cx="38" cy="11" r="2"/><circle id="Oval" fill="#3F51B5" cx="46" cy="11" r="2"/><circle id="Oval" fill="#3F51B5" cx="54" cy="11" r="2"/><path d="M6.53,36.076 C6.37067056,36.0760148 6.21364387,36.0379581 6.072,35.965 C1.907,33.813 1.192,29.026 1.164,28.823 C0.842,25.835 0.788,22.147 2.339,21.365 C3.966,20.538 5.511,21.996 6.166,22.988 C6.45864172,23.4487382 6.32777555,24.0590241 5.87195367,24.359266 C5.41613178,24.659508 4.80375962,24.5387803 4.496,24.088 C4.205,23.653 3.605,23.088 3.307,23.128 C2.97,23.72 2.894,26.2 3.148,28.576 C3.148,28.576 3.759,32.517 6.99,34.186 C7.39951073,34.3980617 7.61090029,34.8626656 7.50173467,35.3107193 C7.39256905,35.7587729 6.99116073,36.0740722 6.53,36.074 L6.53,36.076 Z" id="Shape" fill="#000000"/><path d="M24.37,56.04 L19.63,56.04 C16.158,56.04 14.786,53.933 13.197,51.491 C12.152706,49.7669717 10.8977094,48.1797503 9.461,46.766 C5.191,42.711 5.361,38.977 5.524,35.366 C5.557,34.651 5.59,33.925 5.59,33.181 C5.56909313,31.8555116 5.41871188,30.5352379 5.141,29.239 C4.665,26.617 4.013,23.026 4.411,14.494 C5.036,0.878 20.61,0.048 20.767,0.041 L23.19,0.041 C26.4576655,0.269264115 29.6355765,1.21103174 32.5,2.8 C32.8254784,2.97026286 33.0314125,3.30526134 33.0363839,3.67254992 C33.0413553,4.03983851 32.8445637,4.38028805 32.5238128,4.55929788 C32.203062,4.73830772 31.8099891,4.72705937 31.5,4.53 C28.9229976,3.11948074 26.0759009,2.27213458 23.147,2.044 L20.81,2.044 C20.287,2.068 6.949,2.809 6.41,14.59 C6.022,22.896 6.625,26.217 7.11,28.89 C7.41069164,30.3041556 7.57212921,31.7443663 7.592,33.19 C7.592,33.965 7.558,34.722 7.524,35.466 C7.361,39.061 7.232,41.9 10.84,45.324 C12.3876016,46.8442921 13.7424302,48.5490789 14.874,50.4 C16.517,52.924 17.339,54.04 19.63,54.04 L24.37,54.04 C26.661,54.04 27.483,52.924 29.126,50.4 C30.2575158,48.5454611 31.6130448,46.8372796 33.162,45.314 C36.769,41.885 36.644,39.05 36.486,35.46 L36.471,35.123 C36.431,34.503 36.41,33.853 36.41,33.18 C36.4172166,32.0583227 36.5222816,30.9394137 36.724,29.836 C36.7729371,29.4748471 37.0144799,29.1689163 37.3544244,29.0375237 C37.694369,28.9061311 38.0788769,28.9700858 38.3579865,29.2044448 C38.637096,29.4388038 38.7666036,29.8064508 38.696,30.164 C38.5126958,31.1590414 38.416996,32.1682397 38.41,33.18 C38.41,33.808 38.43,34.417 38.468,35.016 L38.484,35.372 C38.643,38.978 38.807,42.707 34.539,46.765 C33.1014027,48.1790921 31.8454137,49.7666298 30.8,51.491 C29.214,53.933 27.842,56.04 24.37,56.04 Z" id="Shape" fill="#000000"/><path d="M30.487,60 L13.513,60 C11.8561458,60 10.513,58.6568542 10.513,57 L10.513,47.48 C10.513,46.9277153 10.9607153,46.48 11.513,46.48 C12.0652847,46.48 12.513,46.9277153 12.513,47.48 L12.513,57 C12.513,57.5522847 12.9607153,58 13.513,58 L30.487,58 C31.0392847,58 31.487,57.5522847 31.487,57 L31.487,47.48 C31.487,46.9277153 31.9347153,46.4800001 32.487,46.4800001 C33.0392847,46.4800001 33.487,46.9277153 33.487,47.48 L33.487,57 C33.487,58.6568542 32.1438542,60 30.487,60 Z" id="Shape" fill="#000000"/><path d="M56,28 C55.7611843,27.9999784 55.5302611,27.9144907 55.349,27.759 L48.63,22 L34,22 C32.3431458,22 31,20.6568542 31,19 L31,3 C31,1.34314575 32.3431458,3.04359188e-16 34,0 L58,0 C59.6568542,1.01453063e-16 61,1.34314575 61,3 L61,19 C61,20.6568542 59.6568542,22 58,22 L57,22 L57,27 C57,27.5522847 56.5522847,28 56,28 Z M34,2 C33.4477153,2 33,2.44771525 33,3 L33,19 C33,19.5522847 33.4477153,20 34,20 L49,20 C49.2388157,20.0000216 49.4697389,20.0855093 49.651,20.241 L55,24.826 L55,21 C55,20.4477153 55.4477153,20 56,20 L58,20 C58.5522847,20 59,19.5522847 59,19 L59,3 C59,2.44771525 58.5522847,2 58,2 L34,2 Z" id="Shape" fill="#000000"/><path d="M27,35 C26.4477153,35 26,34.5522847 26,34 L26,31 L25.46,31 C24.0990762,30.9961394 22.9983396,29.8909282 23,28.53 L23,17.46 C23.001653,16.1020648 24.1020648,15.001653 25.46,15 L32,15 C32.5522847,15 33,15.4477153 33,16 L33,19 C33,19.5522847 33.4477153,20 34,20 L44,20 C44.5522847,20 45,20.4477153 45,21 L45,28.53 C45.0016604,29.8909282 43.9009238,30.9961394 42.54,31 L32.389,31 L27.622,34.783 C27.4451269,34.9235094 27.2258915,34.9999951 27,35 Z M25.46,17 C25.2073004,17.0032332 25.0032332,17.2073004 25,17.46 L25,28.53 C25.0004728,28.7855015 25.2045678,28.9940333 25.46,29 L27,29 C27.5522847,29 28,29.4477153 28,30 L28,31.93 L31.418,29.217 C31.5948731,29.0764906 31.8141085,29.0000049 32.04,29 L42.54,29 C42.7954322,28.9940333 42.9995272,28.7855015 43,28.53 L43,22 L34,22 C32.3431458,22 31,20.6568542 31,19 L31,17 L25.46,17 Z" id="Shape" fill="#000000"/><path d="M38,14 C36.3431458,14 35,12.6568542 35,11 C35,9.34314575 36.3431458,8 38,8 C39.6568542,8 41,9.34314575 41,11 C41,11.7956495 40.6839295,12.5587112 40.1213203,13.1213203 C39.5587112,13.6839295 38.7956495,14 38,14 Z M38,10 C37.4477153,10 37,10.4477153 37,11 C37,11.5522847 37.4477153,12 38,12 C38.5522847,12 39,11.5522847 39,11 C39,10.4477153 38.5522847,10 38,10 Z" id="Shape" fill="#000000"/><path d="M46,14 C44.3431458,14 43,12.6568542 43,11 C43,9.34314575 44.3431458,8 46,8 C47.6568542,8 49,9.34314575 49,11 C49,11.7956495 48.6839295,12.5587112 48.1213203,13.1213203 C47.5587112,13.6839295 46.7956495,14 46,14 Z M46,10 C45.4477153,10 45,10.4477153 45,11 C45,11.5522847 45.4477153,12 46,12 C46.5522847,12 47,11.5522847 47,11 C47,10.4477153 46.5522847,10 46,10 Z" id="Shape" fill="#000000"/><path d="M54,14 C52.3431458,14 51,12.6568542 51,11 C51,9.34314575 52.3431458,8 54,8 C55.6568542,8 57,9.34314575 57,11 C57,11.7956495 56.6839295,12.5587112 56.1213203,13.1213203 C55.5587112,13.6839295 54.7956495,14 54,14 Z M54,10 C53.4477153,10 53,10.4477153 53,11 C53,11.5522847 53.4477153,12 54,12 C54.5522847,12 55,11.5522847 55,11 C55,10.4477153 54.5522847,10 54,10 Z" id="Shape" fill="#000000"/></g></g></svg>
