<?xml version="1.0" encoding="UTF-8"?>
<svg xmlns="http://www.w3.org/2000/svg" xmlns:xlink="http://www.w3.org/1999/xlink" width="512" height="512" viewBox="0 0 58 60" version="1.1"><!-- Generator: Sketch 51.3 (57544) - http://www.bohemiancoding.com/sketch --><title>074 - Heartbreak</title><desc>Created with Sketch.</desc><defs/><g id="Page-1" stroke="none" stroke-width="1" fill="none" fill-rule="evenodd"><g id="074---Heartbreak" transform="translate(-1.000000, 0.000000)"><path d="M41.208,22.22 C39.937,21.57 38.667,23.5 38.667,23.5 L38.588,23.49 C38.7509709,20.4955491 38.7509709,17.4944509 38.588,14.5 C38,1.64 23.187,1 23.187,1 L20.807,1 C20.807,1 6,1.64 5.407,14.5 C5.24402908,17.4944509 5.24402908,20.4955491 5.407,23.49 L5.328,23.5 C5.328,23.5 4.057,21.57 2.787,22.22 C1.528,22.85 2.148,28.64 2.148,28.64 C2.148,28.64 2.778,33.1 6.528,35.04 C6.367,38.76 6.088,42.14 10.148,46 C10.6300751,46.4551694 11.0873982,46.9358594 11.518,47.44 L11.518,56.96 C11.5179862,58.060676 12.4073377,58.9544966 13.508,58.96 L30.487,58.96 C31.5876623,58.9544966 32.4770138,58.060676 32.477,56.96 L32.477,47.44 C32.9076018,46.9358594 33.3649249,46.4551694 33.847,46 C37.907,42.14 37.627,38.76 37.467,35.04 C41.217,33.1 41.847,28.64 41.847,28.64 C41.847,28.64 42.467,22.85 41.208,22.22 Z" id="Shape" fill="#35495E" fill-rule="nonzero"/><path d="M6.588,33.14 C6.588,33.79 6.567,34.42 6.528,35.04 C2.778,33.1 2.148,28.64 2.148,28.64 C2.148,28.64 1.528,22.85 2.787,22.22 C4.057,21.57 5.328,23.5 5.328,23.5 L5.407,23.49 C5.727,28.45 6.588,30.02 6.588,33.14 Z" id="Shape" fill="#283593" fill-rule="nonzero"/><path d="M38.59,23.49 C38.27,28.45 37.41,30.02 37.41,33.14 C37.41,33.79 37.43,34.42 37.47,35.04 C37.63,38.76 37.91,42.14 33.85,46 C33.3674124,46.4546547 32.9100622,46.9353732 32.48,47.44 C29.06,51.41 28.6,55 24.37,55 L19.63,55 C15.4,55 14.94,51.41 11.52,47.44 C11.0899378,46.9353732 10.6325876,46.4546547 10.15,46 C6.09,42.14 6.37,38.76 6.53,35.04 C6.57,34.42 6.59,33.79 6.59,33.14 C6.59,30.02 5.73,28.45 5.41,23.49 C5.2465184,20.495563 5.2465184,17.494437 5.41,14.5 C5.95,2.75 18.37,1.2 20.5,1.02 C20.7,1 20.81,1 20.81,1 L23.19,1 C23.19,1 38,1.64 38.59,14.5 C38.7534816,17.494437 38.7534816,20.495563 38.59,23.49 Z" id="Shape" fill="#283593" fill-rule="nonzero"/><path d="M35.59,23.49 C35.27,28.45 34.41,30.02 34.41,33.14 C34.41,33.79 34.43,34.42 34.47,35.04 C34.63,38.76 34.91,42.14 30.85,46 C30.3674124,46.4546547 29.9100622,46.9353732 29.48,47.44 C26.06,51.41 25.6,55 21.37,55 L19.63,55 C15.4,55 14.94,51.41 11.52,47.44 C11.0899378,46.9353732 10.6325876,46.4546547 10.15,46 C6.09,42.14 6.37,38.76 6.53,35.04 C6.57,34.42 6.59,33.79 6.59,33.14 C6.59,30.02 5.73,28.45 5.41,23.49 C5.2465184,20.495563 5.2465184,17.494437 5.41,14.5 C5.95,2.75 18.37,1.2 20.5,1.02 C22.63,1.2 35.05,2.75 35.59,14.5 C35.7534816,17.494437 35.7534816,20.495563 35.59,23.49 Z" id="Shape" fill="#3F51B5" fill-rule="nonzero"/><path d="M41.847,28.64 C41.847,28.64 41.217,33.1 37.467,35.04 C37.427,34.42 37.407,33.79 37.407,33.14 C37.407,30.02 38.268,28.45 38.588,23.49 L38.667,23.5 C38.667,23.5 39.937,21.57 41.208,22.22 C42.467,22.85 41.847,28.64 41.847,28.64 Z" id="Shape" fill="#2C3E50" fill-rule="nonzero"/><path d="M32.477,47.44 L32.477,56.96 C32.4770138,58.060676 31.5876623,58.9544966 30.487,58.96 L13.507,58.96 C12.4067287,58.9539484 11.5179834,58.060288 11.518,56.96 L11.518,47.44 C14.937,51.41 15.4,55 19.627,55 L24.367,55 C28.6,55 29.057,51.41 32.477,47.44 Z" id="Shape" fill="#283593" fill-rule="nonzero"/><path d="M40,10.45 C43.789,3.871 51.368,3.871 55.158,7.161 C58.948,10.451 58.947,17.029 55.158,23.607 C52.505,28.541 45.684,33.475 40,36.765 C34.316,33.475 27.5,28.541 24.842,23.607 C21.053,17.029 21.053,10.45 24.842,7.161 C28.631,3.872 36.211,3.871 40,10.45 Z" id="Shape" fill="#C81E1E"/><path d="M38.5,9 C42,11 46,2 52.4,8.109 C55.82,11.376 55.873,17.739 52.4,24.159 C49.963,28.975 43.71,33.79 38.5,37 C33.289,33.79 27.037,28.975 24.605,24.159 C21.132,17.739 21.132,11.319 24.605,8.109 C28.078,4.899 35.026,2.58 38.5,9 Z" id="Shape" fill="#F44335"/><path d="M6.53,36.076 C6.37067056,36.0760148 6.21364387,36.0379581 6.072,35.965 C1.907,33.813 1.192,29.026 1.164,28.823 C0.842,25.835 0.788,22.147 2.339,21.365 C3.968,20.538 5.511,21.996 6.166,22.988 C6.45864172,23.4487382 6.32777555,24.0590241 5.87195367,24.359266 C5.41613178,24.659508 4.80375962,24.5387803 4.496,24.088 C4.205,23.653 3.612,23.088 3.307,23.128 C2.97,23.72 2.894,26.2 3.148,28.576 C3.148,28.576 3.759,32.517 6.99,34.186 C7.39951073,34.3980617 7.61090029,34.8626656 7.50173467,35.3107193 C7.39256905,35.7587729 6.99116073,36.0740722 6.53,36.074 L6.53,36.076 Z" id="Shape" fill="#000000" fill-rule="nonzero"/><path d="M24.37,56.04 L19.63,56.04 C16.158,56.04 14.786,53.933 13.197,51.491 C12.152706,49.7669717 10.8977094,48.1797503 9.461,46.766 C5.191,42.711 5.361,38.977 5.524,35.366 C5.557,34.651 5.59,33.925 5.59,33.181 C5.56909313,31.8555116 5.41871188,30.5352379 5.141,29.239 C4.665,26.617 4.013,23.026 4.411,14.494 C5.036,0.878 20.61,0.048 20.767,0.041 L23.19,0.041 C23.536,0.055 30.717,0.411 35.505,5.041 C35.8996101,5.42530462 35.9091402,6.05635909 35.5263148,6.45240439 C35.1434893,6.8484497 34.5124749,6.86034089 34.115,6.479 C29.883,2.385 23.215,2.042 23.146,2.039 L20.81,2.039 C20.287,2.063 6.949,2.804 6.41,14.585 C6.022,22.891 6.625,26.212 7.11,28.885 C7.41069164,30.2991556 7.57212921,31.7393663 7.592,33.185 C7.592,33.96 7.558,34.717 7.524,35.461 C7.361,39.056 7.232,41.895 10.84,45.319 C12.387927,46.8408441 13.742768,48.5473258 14.874,50.4 C16.517,52.924 17.339,54.04 19.63,54.04 L24.37,54.04 C26.661,54.04 27.483,52.924 29.126,50.4 C30.2575158,48.5454611 31.6130448,46.8372796 33.162,45.314 C36.762,41.893 36.632,38.914 36.48,35.476 L36.471,35.264 C36.4466995,34.7117153 36.8747153,34.2443006 37.427,34.22 C37.9792847,34.1956995 38.4466995,34.6237153 38.471,35.176 L38.481,35.388 C38.639,38.988 38.803,42.715 34.541,46.765 C33.1026999,48.1789743 31.8460351,49.7665171 30.8,51.491 C29.214,53.933 27.842,56.04 24.37,56.04 Z" id="Shape" fill="#000000" fill-rule="nonzero"/><path d="M30.487,60 L13.513,60 C11.8561458,60 10.513,58.6568542 10.513,57 L10.513,47.48 C10.513,46.9277153 10.9607153,46.48 11.513,46.48 C12.0652847,46.48 12.513,46.9277153 12.513,47.48 L12.513,57 C12.513,57.5522847 12.9607153,58 13.513,58 L30.487,58 C31.0392847,58 31.487,57.5522847 31.487,57 L31.487,47.48 C31.487,46.9277153 31.9347153,46.4800001 32.487,46.4800001 C33.0392847,46.4800001 33.487,46.9277153 33.487,47.48 L33.487,57 C33.487,58.6568542 32.1438542,60 30.487,60 Z" id="Shape" fill="#000000" fill-rule="nonzero"/><path d="M40,37.765 C39.8243701,37.7646883 39.6519198,37.7181268 39.5,37.63 C35.9,35.546 27.173,30.053 23.962,24.081 C19.953,17.121 20.038,10.008 24.188,6.405 C26.5918916,4.41859821 29.7501335,3.5948204 32.818,4.154 C35.7043938,4.65287998 38.2816303,6.2597952 40,8.632 C41.7186072,6.25957575 44.2962423,4.65263579 47.183,4.154 C50.2508718,3.59467994 53.4091724,4.41847308 55.813,6.405 C59.963,10.005 60.048,17.121 56.024,24.105 C52.828,30.053 44.1,35.546 40.5,37.63 C40.3480802,37.7181268 40.1756299,37.7646883 40,37.765 Z M30.974,6 C28.9803773,5.97147464 27.041071,6.64991299 25.5,7.915 C22.095,10.872 22.179,16.978 25.711,23.108 C28.556,28.4 36.3,33.423 40,35.606 C43.7,33.423 51.444,28.406 54.277,23.134 C57.823,16.978 57.907,10.872 54.502,7.915 C52.5435319,6.33189529 49.993172,5.67924846 47.515,6.127 C44.6817691,6.64149179 42.2358493,8.41559307 40.867,10.949 C40.6737452,11.2388861 40.3483983,11.4130078 40,11.4130078 C39.6516017,11.4130078 39.3262548,11.2388861 39.133,10.949 C37.7641507,8.41559307 35.3182309,6.64149179 32.485,6.127 C31.9857812,6.04240674 31.4803353,5.99992386 30.974,6 Z" id="Shape" fill="#000000" fill-rule="nonzero"/><path d="M40,29 C39.4477153,29 39,28.5522847 39,28 L39,25.3 L37.168,22.552 C37.0085951,22.3132617 36.9594755,22.017532 37.0331435,21.7400812 C37.1068115,21.4626304 37.2961617,21.2302186 37.553,21.102 L39.764,20 L37.553,18.9 C37.2135855,18.7308365 36.9990661,18.3842341 36.9990661,18.005 C36.9990661,17.6257659 37.2135855,17.2791635 37.553,17.11 L39.764,16 L37.553,14.9 C37.2961617,14.7717814 37.1068115,14.5393696 37.0331435,14.2619188 C36.9594755,13.984468 37.0085951,13.6887383 37.168,13.45 L39.168,10.45 C39.3662824,10.152755 39.7080812,9.98387175 40.0646441,10.0069669 C40.421207,10.030062 40.7383636,10.2416268 40.8966441,10.5619669 C41.0549246,10.8823069 41.0302824,11.262755 40.832,11.56 L39.46,13.612 L42.447,15.105 C42.7864145,15.2741635 43.0009339,15.6207659 43.0009339,16 C43.0009339,16.3792341 42.7864145,16.7258365 42.447,16.895 L40.236,18 L42.447,19.105 C42.7864145,19.2741635 43.0009339,19.6207659 43.0009339,20 C43.0009339,20.3792341 42.7864145,20.7258365 42.447,20.895 L39.46,22.388 L40.832,24.445 C40.9412599,24.6095007 40.9996876,24.8025206 41,25 L41,28 C41,28.5522847 40.5522847,29 40,29 Z" id="Shape" fill="#000000" fill-rule="nonzero"/></g></g></svg>
