<?xml version="1.0" encoding="UTF-8"?>
<svg xmlns="http://www.w3.org/2000/svg" xmlns:xlink="http://www.w3.org/1999/xlink" width="512" height="512" viewBox="0 0 60 60" version="1.1"><!-- Generator: Sketch 51.3 (57544) - http://www.bohemiancoding.com/sketch --><title>075 - Calm</title><desc>Created with Sketch.</desc><defs/><g id="Page-1" stroke="none" stroke-width="1" fill="none" fill-rule="evenodd"><g id="075---Calm" transform="translate(-1.000000, 0.000000)" fill-rule="nonzero"><path d="M41.213,22.22 C39.943,21.57 38.672,23.5 38.672,23.5 L38.593,23.49 C38.7559709,20.4955491 38.7559709,17.4944509 38.593,14.5 C38,1.64 23.193,1 23.193,1 L20.813,1 C20.813,1 6,1.64 5.412,14.5 C5.24902908,17.4944509 5.24902908,20.4955491 5.412,23.49 L5.333,23.5 C5.333,23.5 4.063,21.57 2.792,22.22 C1.533,22.85 2.153,28.64 2.153,28.64 C2.153,28.64 2.783,33.1 6.533,35.04 C6.373,38.76 6.093,42.14 10.153,46 C10.6353309,46.4549126 11.0926674,46.9356167 11.523,47.44 L11.523,56.96 C11.5229862,58.060676 12.4123377,58.9544966 13.513,58.96 L30.493,58.96 C31.5932713,58.9539484 32.4820166,58.060288 32.482,56.96 L32.482,47.44 C32.9126018,46.9358594 33.3699249,46.4551694 33.852,46 C37.912,42.14 37.633,38.76 37.472,35.04 C41.222,33.1 41.852,28.64 41.852,28.64 C41.852,28.64 42.472,22.85 41.213,22.22 Z" id="Shape" fill="#F0C419"/><path d="M6.593,33.14 C6.593,33.79 6.573,34.42 6.533,35.04 C2.783,33.1 2.153,28.64 2.153,28.64 C2.153,28.64 1.533,22.85 2.792,22.22 C4.063,21.57 5.333,23.5 5.333,23.5 L5.412,23.49 C5.732,28.45 6.593,30.02 6.593,33.14 Z" id="Shape" fill="#FF9801"/><path d="M38.59,23.49 C38.27,28.45 37.41,30.02 37.41,33.14 C37.41,33.79 37.43,34.42 37.47,35.04 C37.63,38.76 37.91,42.14 33.85,46 C33.3674124,46.4546547 32.9100622,46.9353732 32.48,47.44 C29.06,51.41 28.6,55 24.37,55 L19.63,55 C15.4,55 14.94,51.41 11.52,47.44 C11.0899378,46.9353732 10.6325876,46.4546547 10.15,46 C6.09,42.14 6.37,38.76 6.53,35.04 C6.57,34.42 6.59,33.79 6.59,33.14 C6.59,30.02 5.73,28.45 5.41,23.49 C5.2465184,20.495563 5.2465184,17.494437 5.41,14.5 C5.95,2.75 18.37,1.2 20.5,1.02 C20.7,1 20.81,1 20.81,1 L23.19,1 C23.19,1 38,1.64 38.59,14.5 C38.7534816,17.494437 38.7534816,20.495563 38.59,23.49 Z" id="Shape" fill="#FEC108"/><path d="M35.59,23.49 C35.27,28.45 34.41,30.02 34.41,33.14 C34.41,33.79 34.43,34.42 34.47,35.04 C34.63,38.76 34.91,42.14 30.85,46 C30.3674124,46.4546547 29.9100622,46.9353732 29.48,47.44 C26.06,51.41 25.6,55 21.37,55 L19.63,55 C15.4,55 14.94,51.41 11.52,47.44 C11.0899378,46.9353732 10.6325876,46.4546547 10.15,46 C6.09,42.14 6.37,38.76 6.53,35.04 C6.57,34.42 6.59,33.79 6.59,33.14 C6.59,30.02 5.73,28.45 5.41,23.49 C5.2465184,20.495563 5.2465184,17.494437 5.41,14.5 C5.95,2.75 18.37,1.2 20.5,1.02 C22.63,1.2 35.05,2.75 35.59,14.5 C35.7534816,17.494437 35.7534816,20.495563 35.59,23.49 Z" id="Shape" fill="#FFDC00"/><path d="M41.852,28.64 C41.852,28.64 41.222,33.1 37.472,35.04 C37.433,34.42 37.412,33.79 37.412,33.14 C37.412,30.02 38.273,28.45 38.593,23.49 L38.672,23.5 C38.672,23.5 39.943,21.57 41.213,22.22 C42.472,22.85 41.852,28.64 41.852,28.64 Z" id="Shape" fill="#F29C1F"/><path d="M32.482,47.44 L32.482,56.96 C32.4820138,58.060676 31.5926623,58.9544966 30.492,58.96 L13.513,58.96 C12.4123377,58.9544966 11.5229862,58.060676 11.523,56.96 L11.523,47.44 C14.943,51.41 15.403,55 19.633,55 L24.373,55 C28.6,55 29.063,51.41 32.482,47.44 Z" id="Shape" fill="#FF9801"/><path d="M60,7.87 C58.5199828,9.0510805 57.4808099,10.696144 57.05,12.54 C56.31,15.64 58.52,20.3 54.09,24.96 C51.94,27.22 48.75,27.83 46.03,27.87 C42.58,29.66 40.39,33.73 39.6,35.23 C38.99,36.36 39.82,38.33 39.82,38.33 C37.2005247,37.6417123 34.8270491,36.2314866 32.97,34.26 C31.8439239,33.1826128 30.9845145,31.8575473 30.46,30.39 C36.49,30.62 36.45,25.35 36.38,24.35 L36.38,24.34 C36.01,24.3 35.64,24.25 35.28,24.2 C32.3456526,23.8611788 29.634231,22.4681549 27.65,20.28 C26.0588802,18.1859972 25.0482207,15.7093641 24.72,13.1 C24.211946,10.091128 24.1681036,7.022157 24.59,4 C25.67,5.33 26.83,6.73 28.42,7.26 C29.597771,7.58332361 30.8404509,7.5867755 32.02,7.27 C34.32,6.77 36.52,5.77 38.86,5.55 C42.6425691,5.31984596 46.3010837,6.94212307 48.67,9.9 L48.68,9.89 C49.0907925,8.74313127 49.7151335,7.68446608 50.52,6.77 C51.6156088,5.67053835 53.3198439,5.46008801 54.65,6.26 C56.2409778,7.30089246 58.0987986,7.85997498 60,7.87 Z" id="Shape" fill="#02A9F4"/><path d="M60,7.87 C58.5199828,9.0510805 57.4808099,10.696144 57.05,12.54 C56.31,15.64 58.52,20.3 54.09,24.96 C51.94,27.22 48.75,27.83 46.03,27.87 L45.98,27.57 C47.9133259,27.2526271 49.6995681,26.3402803 51.09,24.96 C55.52,20.3 53.31,15.64 54.05,12.54 C54.4808099,10.696144 55.5199828,9.0510805 57,7.87 C55.0987986,7.85997498 53.2409778,7.30089246 51.65,6.26 C51.5707692,6.21196181 51.4870389,6.17177129 51.4,6.14 C52.4330555,5.62381648 53.6578237,5.6690387 54.65,6.26 C56.2409778,7.30089246 58.0987986,7.85997498 60,7.87 Z" id="Shape" fill="#0377BC"/><path d="M39.6,35.23 C38.99,36.36 39.82,38.33 39.82,38.33 C38.6311019,38.0752339 37.4924453,37.6258531 36.45,37 C36.3061224,36.4093919 36.358785,35.7879732 36.6,35.23 C37.39,33.73 39.58,29.66 43.03,27.87 C44.020512,27.8617558 45.0081061,27.7613225 45.98,27.57 L46.03,27.87 C42.58,29.66 40.39,33.73 39.6,35.23 Z" id="Shape" fill="#0377BC"/><path d="M6.53,36.036 C6.37067056,36.0360148 6.21364387,35.9979581 6.072,35.925 C1.907,33.773 1.192,28.986 1.164,28.783 C0.842,25.8 0.788,22.106 2.34,21.325 C3.969,20.499 5.511,21.956 6.166,22.948 C6.45864172,23.4087382 6.32777555,24.0190241 5.87195367,24.319266 C5.41613178,24.619508 4.80375962,24.4987803 4.496,24.048 C4.205,23.614 3.601,23.061 3.307,23.089 C2.97,23.68 2.894,26.16 3.148,28.536 C3.148,28.536 3.759,32.477 6.99,34.145 C7.40065725,34.3565193 7.61299718,34.8217883 7.50370399,35.2706031 C7.39441079,35.719418 6.99192951,36.0349687 6.53,36.034 L6.53,36.036 Z" id="Shape" fill="#000000"/><path d="M24.37,56 L19.63,56 C16.159,56 14.784,53.891 13.193,51.447 C12.461077,50.2742131 11.6487998,49.1535312 10.762,48.093 C10.3544523,47.614437 9.92044032,47.1590583 9.462,46.729 C5.189,42.671 5.362,38.937 5.522,35.329 C5.555,34.614 5.588,33.888 5.588,33.144 C5.56788098,31.817908 5.41816895,30.4969588 5.141,29.2 C4.665,26.578 4.013,22.987 4.411,14.455 C5.036,0.838 20.61,0.008 20.767,0 L23.19,0 C23.563,0.015 31.39,0.409 36.131,5.649 C36.3819074,5.91198249 36.470362,6.29040014 36.3620267,6.63735512 C36.2536914,6.98431011 35.9656276,7.24516139 35.6096587,7.31864919 C35.2536898,7.392137 34.8858765,7.26668792 34.649,6.991 C30.458,2.364 23.22,2 23.147,2 L20.81,2 C20.287,2.024 6.949,2.765 6.41,14.546 C6.022,22.852 6.625,26.173 7.11,28.846 C7.41069164,30.2601556 7.57212921,31.7003663 7.592,33.146 C7.592,33.921 7.558,34.678 7.524,35.422 C7.361,39.022 7.232,41.856 10.84,45.28 C11.3481492,45.7591294 11.8298608,46.2655441 12.283,46.797 C13.2271058,47.9236765 14.0918515,49.1145396 14.871,50.361 C16.515,52.883 17.339,54 19.63,54 L24.37,54 C26.661,54 27.485,52.883 29.131,50.355 C29.9108981,49.1073501 30.776655,47.9154724 31.722,46.788 C32.1750612,46.2564738 32.6567767,45.750055 33.165,45.271 C35.4161638,43.3613374 36.6613151,40.5205479 36.54,37.571 C36.54,37.0187153 36.9877153,36.571 37.54,36.571 C38.0922847,36.571 38.54,37.0187153 38.54,37.571 C38.6701852,41.07167 37.1976651,44.4407961 34.54,46.723 C34.0814903,47.1529883 33.6474745,47.6083711 33.24,48.087 C32.3519591,49.1483259 31.5386706,50.2700225 30.806,51.444 C29.216,53.891 27.841,56 24.37,56 Z" id="Shape" fill="#000000"/><path d="M30.487,59.96 L13.513,59.96 C11.8561458,59.96 10.513,58.6168542 10.513,56.96 L10.513,47.44 C10.513,46.8877153 10.9607153,46.44 11.513,46.44 C12.0652847,46.44 12.513,46.8877153 12.513,47.44 L12.513,56.96 C12.513,57.5122847 12.9607153,57.96 13.513,57.96 L30.487,57.96 C31.0392847,57.96 31.487,57.5122847 31.487,56.96 L31.487,47.44 C31.487,46.8877153 31.9347153,46.4400001 32.487,46.4400001 C33.0392847,46.4400001 33.487,46.8877153 33.487,47.44 L33.487,56.96 C33.487,58.6168542 32.1438542,59.96 30.487,59.96 Z" id="Shape" fill="#000000"/><path d="M38.931,25.49 C37.6565389,25.4872129 36.3841589,25.3869202 35.125,25.19 C31.9536511,24.807708 29.0265699,23.2944596 26.881,20.928 C25.1647665,18.7046466 24.0769034,16.0613121 23.731,13.274 C23.2007619,10.1613205 23.1565698,6.98522708 23.6,3.859 C23.6562104,3.46499646 23.9407116,3.14183277 24.3244141,3.03614095 C24.7081167,2.93044913 25.117967,3.06235197 25.368,3.372 C26.506,4.781 27.476,5.893 28.736,6.314 C29.7407712,6.58199826 30.7991807,6.57439872 31.8,6.292 C32.656,6.106 33.494,5.85 34.381,5.578 C35.8054756,5.09037595 37.2761495,4.74993288 38.77,4.562 C43.8,4.091 48.943,7.2 51.3,12.117 C51.4812234,12.4418876 51.4671194,12.8405199 51.2633881,13.1517874 C51.0596569,13.4630549 50.699978,13.635501 50.3297175,13.5994306 C49.959457,13.5633602 49.6398241,13.3247363 49.5,12.98 C47.5,8.804 43.17,6.16 38.966,6.555 C37.6089229,6.73043184 36.2733211,7.04406037 34.98,7.491 C34.093,7.763 33.18,8.043 32.238,8.247 C30.8801513,8.60434404 29.4514259,8.59191434 28.1,8.211 C27.0563251,7.82901801 26.1160981,7.20893386 25.354,6.4 C25.2186799,8.58650072 25.3357857,10.7813124 25.703,12.941 C25.9943924,15.3757756 26.9302564,17.6886818 28.414,19.641 C30.2500085,21.6318201 32.7389069,22.8984441 35.429,23.211 C38.4210314,23.7632062 41.5047117,23.5383689 44.385,22.558 C44.7188784,22.4150552 45.1040117,22.4643728 45.3910986,22.6868343 C45.6781855,22.9092958 45.822087,23.2699234 45.767018,23.6289156 C45.711949,23.9879078 45.4665681,24.28882 45.126,24.415 C43.1473335,25.1610329 41.0453334,25.5257868 38.931,25.49 Z" id="Shape" fill="#000000"/><path d="M39.821,39.333 C39.7538308,39.3330672 39.6868258,39.3263667 39.621,39.313 C36.7876779,38.5894289 34.2201821,37.0711368 32.221,34.937 C30.9972686,33.7570538 30.0685448,32.3055589 29.51,30.7 C29.4111084,30.3895176 29.469693,30.0503238 29.667,29.791 C29.8627532,29.5307255 30.1747069,29.3842983 30.5,29.4 C31.8425654,29.5631602 33.1904454,29.1409459 34.2,28.241 C35.0751735,27.1648734 35.501437,25.7925914 35.39,24.41 C35.3680282,24.0527344 35.5383243,23.7108856 35.8367394,23.5132246 C36.1351546,23.3155636 36.5163524,23.29212 36.8367394,23.4517246 C37.1571264,23.6113292 37.3680282,23.9297344 37.39,24.287 C37.5444973,26.233939 36.9123895,28.1615979 35.635,29.639 C34.652271,30.6123497 33.3614567,31.2133862 31.984,31.339 C32.4169722,32.1567173 32.9811265,32.8978876 33.654,33.533 C35.0081058,34.9488252 36.6293227,36.0823176 38.424,36.868 C38.3106575,36.1521253 38.4151824,35.4187094 38.724,34.763 C39.489,33.324 41.817,28.945 45.579,26.988 C45.896601,26.8163358 46.2820723,26.8291898 46.5875318,27.0216307 C46.8929913,27.2140715 47.0710073,27.5562173 47.0532859,27.9168069 C47.0355644,28.2773966 46.8248572,28.6004382 46.502,28.762 C43.281,30.43 41.173,34.4 40.48,35.7 C40.3180339,36.4576298 40.4108407,37.2475425 40.744,37.947 C40.8736352,38.2558729 40.8400104,38.6091379 40.6544322,38.8880079 C40.4688539,39.1668779 40.1559741,39.3343083 39.821,39.334 L39.821,39.333 Z" id="Shape" fill="#000000"/><path d="M45.819,28.872 C44.4781522,28.8680522 43.1400439,28.7506332 41.819,28.521 C41.4669148,28.459729 41.1742623,28.2152769 41.051282,27.8797266 C40.9283016,27.5441764 40.9936771,27.1685059 41.222782,26.8942266 C41.4518869,26.6199474 41.8099148,26.488729 42.162,26.55 C43.4339847,26.7758831 44.7241734,26.883343 46.016,26.871 C49.296,26.824 51.769,25.949 53.365,24.271 C56.165,21.334 56.033,18.39 55.92,15.792 C55.8112863,14.6305446 55.8620913,13.4596735 56.071,12.312 C56.3882654,10.9873985 56.9845431,9.74575 57.82,8.67 C56.5350008,8.33953445 55.3048223,7.82415298 54.168,7.14 C53.2247195,6.55301638 52.0005537,6.69840425 51.221,7.49 C50.5270522,8.29421786 49.9870562,9.21929572 49.628,10.219 C49.5167494,10.546137 49.2444963,10.7926616 48.9079568,10.8709976 C48.5714173,10.9493336 48.2182821,10.84838 47.974,10.604 C47.6873102,10.3163993 47.6002992,9.88528141 47.753,9.509 C47.765,9.482 47.776,9.456 47.79,9.431 C48.2436641,8.18944414 48.9318231,7.04669957 49.817,6.065 C51.2330755,4.65982746 53.4173362,4.38320369 55.139,5.391 C56.5653179,6.34673027 58.2411179,6.86209352 59.958,6.873 C60.4024889,6.84833862 60.8079639,7.12576884 60.946,7.549 C61.0891911,7.96826701 60.9394367,8.43177341 60.578,8.688 C59.3017272,9.73428654 58.4032638,11.1697908 58.02,12.775 C57.859383,13.7431614 57.8257659,14.7281406 57.92,15.705 C58.044,18.553 58.198,22.096 54.82,25.65 C52.84,27.732 49.889,28.815 46.047,28.871 L45.819,28.872 Z" id="Shape" fill="#000000"/><path d="M53.01,10.393 C52.7459988,10.3903389 52.4939968,10.282338 52.31,10.093 C52.2136239,10.0041581 52.1384392,9.8947985 52.09,9.773 C51.9283469,9.39939264 52.0160912,8.96465908 52.31,8.683 C52.5467926,8.45071478 52.8827081,8.34979455 53.2083112,8.41311736 C53.5339143,8.47644016 53.8075229,8.69589976 53.94,9 C53.9882077,9.12428561 54.0119756,9.25670712 54.01,9.39 C54.0106448,9.65268872 53.9062278,9.90472994 53.72,10.09 C53.5334276,10.2819585 53.2776821,10.3911006 53.01,10.393 Z" id="Shape" fill="#000000"/><path d="M32.669,12.907 C30.9973629,12.8721136 29.3367153,12.6275351 27.726,12.179 C27.1947021,12.027674 26.886674,11.4742979 27.038,10.943 C27.189326,10.4117021 27.7427021,10.103674 28.274,10.255 C30.206,10.804 33.795,11.326 35.206,10.385 C35.503208,10.179326 35.8882701,10.1500347 36.2131691,10.3083856 C36.5380681,10.4667365 36.7522346,10.7880829 36.7733434,11.1488997 C36.7944522,11.5097165 36.6192178,11.853844 36.315,12.049 C35.2063591,12.6768494 33.9412877,12.9745541 32.669,12.907 Z" id="Shape" fill="#000000"/><path d="M32.305,17 C31.7318298,17.0035107 31.1595111,16.9553155 30.595,16.856 C30.0532087,16.7483045 29.7013045,16.2217913 29.809,15.68 C29.9166956,15.1382087 30.4432087,14.7863045 30.985,14.894 C31.019,14.901 34.385,15.527 36.293,13.616 C36.6853789,13.2370278 37.3090848,13.2424476 37.6948186,13.6281814 C38.0805524,14.0139152 38.0859722,14.6376211 37.707,15.03 C36.2359189,16.3722581 34.2948023,17.080144 32.305,17 Z" id="Shape" fill="#000000"/><path d="M34,20.661 C33.4477153,20.661 33,20.2132847 33,19.661 C33,19.1087153 33.4477153,18.661 34,18.661 C34.039,18.661 36.4,18.618 36.935,17.017 C37.109522,16.4923295 37.6763295,16.208478 38.201,16.383 C38.7256705,16.557522 39.009522,17.1243295 38.835,17.649 C37.837,20.627 34.156,20.661 34,20.661 Z" id="Shape" fill="#000000"/><path d="M40,22.333 C39.5982919,22.3309392 39.2368106,22.0886976 39.0821816,21.7179369 C38.9275526,21.3471762 39.0097954,20.9198755 39.291,20.633 C39.529317,20.4016613 39.6974386,20.1077084 39.776,19.785 C39.776,19.2327153 40.2237153,18.785 40.776,18.785 C41.3282847,18.785 41.776,19.2327153 41.776,19.785 C41.7036588,20.6422516 41.3240201,21.4445004 40.707,22.044 C40.5188543,22.2300834 40.264622,22.3340058 40,22.333 Z" id="Shape" fill="#000000"/></g></g></svg>
