<?xml version="1.0" encoding="UTF-8"?>
<svg xmlns="http://www.w3.org/2000/svg" xmlns:xlink="http://www.w3.org/1999/xlink" width="512" height="512" viewBox="0 0 42 60" version="1.1"><!-- Generator: Sketch 51.3 (57544) - http://www.bohemiancoding.com/sketch --><title>076 - Schizophrenia</title><desc>Created with Sketch.</desc><defs/><g id="Page-1" stroke="none" stroke-width="1" fill="none" fill-rule="evenodd"><g id="076---Schizophrenia" transform="translate(-1.000000, 0.000000)" fill-rule="nonzero"><path d="M41.208,22.22 C39.937,21.57 38.667,23.5 38.667,23.5 L38.588,23.49 C38.7509709,20.4955491 38.7509709,17.4944509 38.588,14.5 C38,1.64 23.187,1 23.187,1 L20.807,1 C20.807,1 6,1.64 5.407,14.5 C5.24402908,17.4944509 5.24402908,20.4955491 5.407,23.49 L5.328,23.5 C5.328,23.5 4.057,21.57 2.787,22.22 C1.528,22.85 2.148,28.64 2.148,28.64 C2.148,28.64 2.778,33.1 6.528,35.04 C6.367,38.76 6.088,42.14 10.148,46 C10.6300751,46.4551694 11.0873982,46.9358594 11.518,47.44 L11.518,56.96 C11.5179862,58.060676 12.4073377,58.9544966 13.508,58.96 L30.487,58.96 C31.5876623,58.9544966 32.4770138,58.060676 32.477,56.96 L32.477,47.44 C32.9076018,46.9358594 33.3649249,46.4551694 33.847,46 C37.907,42.14 37.627,38.76 37.467,35.04 C41.217,33.1 41.847,28.64 41.847,28.64 C41.847,28.64 42.467,22.85 41.208,22.22 Z" id="Shape" fill="#4482C3"/><path d="M6.588,33.14 C6.588,33.79 6.567,34.42 6.528,35.04 C2.778,33.1 2.148,28.64 2.148,28.64 C2.148,28.64 1.528,22.85 2.787,22.22 C4.057,21.57 5.328,23.5 5.328,23.5 L5.407,23.49 C5.727,28.45 6.588,30.02 6.588,33.14 Z" id="Shape" fill="#283593"/><path d="M38.59,23.49 C38.27,28.45 37.41,30.02 37.41,33.14 C37.41,33.79 37.43,34.42 37.47,35.04 C37.63,38.76 37.91,42.14 33.85,46 C33.3674124,46.4546547 32.9100622,46.9353732 32.48,47.44 C29.06,51.41 28.6,55 24.37,55 L19.63,55 C15.4,55 14.94,51.41 11.52,47.44 C11.0899378,46.9353732 10.6325876,46.4546547 10.15,46 C6.09,42.14 6.37,38.76 6.53,35.04 C6.57,34.42 6.59,33.79 6.59,33.14 C6.59,30.02 5.73,28.45 5.41,23.49 C5.2465184,20.495563 5.2465184,17.494437 5.41,14.5 C5.95,2.75 18.37,1.2 20.5,1.02 C20.7,1 20.81,1 20.81,1 L23.19,1 C23.19,1 38,1.64 38.59,14.5 C38.7534816,17.494437 38.7534816,20.495563 38.59,23.49 Z" id="Shape" fill="#283593"/><path d="M35.59,23.49 C35.27,28.45 34.41,30.02 34.41,33.14 C34.41,33.79 34.43,34.42 34.47,35.04 C34.63,38.76 34.91,42.14 30.85,46 C30.3674124,46.4546547 29.9100622,46.9353732 29.48,47.44 C26.06,51.41 25.6,55 21.37,55 L19.63,55 C15.4,55 14.94,51.41 11.52,47.44 C11.0899378,46.9353732 10.6325876,46.4546547 10.15,46 C6.09,42.14 6.37,38.76 6.53,35.04 C6.57,34.42 6.59,33.79 6.59,33.14 C6.59,30.02 5.73,28.45 5.41,23.49 C5.2465184,20.495563 5.2465184,17.494437 5.41,14.5 C5.95,2.75 18.37,1.2 20.5,1.02 C22.63,1.2 35.05,2.75 35.59,14.5 C35.7534816,17.494437 35.7534816,20.495563 35.59,23.49 Z" id="Shape" fill="#3F51B5"/><path d="M41.847,28.64 C41.847,28.64 41.217,33.1 37.467,35.04 C37.427,34.42 37.407,33.79 37.407,33.14 C37.407,30.02 38.268,28.45 38.588,23.49 L38.667,23.5 C38.667,23.5 39.937,21.57 41.208,22.22 C42.467,22.85 41.847,28.64 41.847,28.64 Z" id="Shape" fill="#283593"/><path d="M32.477,47.44 L32.477,56.96 C32.4770138,58.060676 31.5876623,58.9544966 30.487,58.96 L13.507,58.96 C12.4067287,58.9539484 11.5179834,58.060288 11.518,56.96 L11.518,47.44 C14.937,51.41 15.4,55 19.627,55 L24.367,55 C28.6,55 29.057,51.41 32.477,47.44 Z" id="Shape" fill="#283593"/><path d="M34.46,20.89 C34.326969,21.2822834 34.1561679,21.6607252 33.95,22.02 C32.6260389,24.1123168 30.219043,25.2594312 27.76,24.97 C27.5042659,24.9421109 27.2504642,24.8986975 27,24.84 C26.0755562,24.6084992 25.2056996,24.1973561 24.44,23.63 C24.14,23.41 21.76,21.39 22,21.04 C20.8675696,22.8773105 19.0926401,24.2281103 17.02,24.83 L17,24.83 C15.2992756,25.2317512 13.508235,24.9205796 12.0426829,23.9687263 C10.5771309,23.0168729 9.56454308,21.5071311 9.24,19.79 C8.90117126,17.2308313 9.15084316,14.6280873 9.97,12.18 C10.5899691,10.1601832 11.9040647,8.42458524 13.68,7.28 C15.7763337,5.99810996 18.1491696,5.23688227 20.6,5.06 C20.71,5.06 20.82,5.05 20.93,5.04 L23.08,5.04 C25.4673354,5.12244034 27.7969229,5.79589041 29.86,7 C32.132841,8.34067858 33.7478187,10.5639888 34.32,13.14 C34.89,15.47 35.28,18.5 34.46,20.89 Z" id="Shape" fill="#607D8B"/><path d="M34.46,20.89 C34.326969,21.2822834 34.1561679,21.6607252 33.95,22.02 C32.6260389,24.1123168 30.219043,25.2594312 27.76,24.97 C27.5042659,24.9421109 27.2504642,24.8986975 27,24.84 C26.99,24.84 26.99,24.84 26.98,24.83 C28.6351393,24.4829997 30.0724837,23.4656349 30.95,22.02 C31.1561679,21.6607252 31.326969,21.2822834 31.46,20.89 C32.28,18.5 31.89,15.47 31.32,13.14 C30.7478187,10.5639888 29.132841,8.34067858 26.86,7 C24.9464389,5.88928703 22.8063149,5.22605372 20.6,5.06 C20.71,5.06 20.82,5.05 20.93,5.04 L23.08,5.04 C25.4673354,5.12244034 27.7969229,5.79589041 29.86,7 C32.132841,8.34067858 33.7478187,10.5639888 34.32,13.14 C34.89,15.47 35.28,18.5 34.46,20.89 Z" id="Shape" fill="#37474F"/><circle id="Oval" fill="#FFE0B2" cx="22" cy="11" r="3"/><path d="M27,19 L27,24.84 C26.0755562,24.6084992 25.2056996,24.1973561 24.44,23.63 C24.14,23.41 21.76,21.39 22,21.04 C20.8675696,22.8773105 19.0926401,24.2281103 17.02,24.83 L17,24.83 L17,19 C17,16.2385763 19.2385763,14 22,14 C24.7614237,14 27,16.2385763 27,19 Z" id="Shape" fill="#EF314C"/><path d="M6.529,36.076 C6.36970273,36.0757464 6.21273817,36.0377047 6.071,35.965 C1.907,33.813 1.192,29.026 1.164,28.823 C0.842,25.835 0.788,22.147 2.34,21.365 C3.969,20.538 5.511,21.996 6.166,22.988 C6.45864172,23.4487382 6.32777555,24.0590241 5.87195367,24.359266 C5.41613178,24.659508 4.80375962,24.5387803 4.496,24.088 C4.206,23.655 3.632,23.088 3.307,23.128 C2.971,23.72 2.894,26.2 3.148,28.576 C3.148,28.576 3.759,32.517 6.989,34.186 C7.39851073,34.3980617 7.60990029,34.8626656 7.50073467,35.3107193 C7.39156905,35.7587729 6.99016073,36.0740722 6.529,36.074 L6.529,36.076 Z" id="Shape" fill="#000000"/><path d="M24.37,56.04 L19.63,56.04 C16.157,56.04 14.785,53.933 13.195,51.491 C12.150706,49.7669717 10.8957094,48.1797503 9.459,46.766 C5.189,42.713 5.359,38.981 5.524,35.374 C5.558,34.657 5.591,33.929 5.591,33.183 C5.57025623,31.8557948 5.41953636,30.5338141 5.141,29.236 C4.666,26.613 4.015,23.021 4.407,14.494 C5.034,0.881 20.614,0.048 20.771,0.041 L23.186,0.041 C23.386,0.049 38.966,0.882 39.593,14.495 C39.985,23.022 39.334,26.614 38.859,29.237 C38.5804636,30.5348141 38.4297438,31.8567948 38.409,33.184 C38.409,33.93 38.442,34.658 38.476,35.375 C38.641,38.982 38.811,42.714 34.541,46.767 C33.1042906,48.1807503 31.849294,49.7679717 30.805,51.492 C29.215,53.933 27.843,56.04 24.37,56.04 Z M20.814,2.04 C20.291,2.064 6.947,2.808 6.405,14.586 C6.022,22.886 6.625,26.209 7.105,28.88 C7.40481618,30.2942973 7.56624411,31.734422 7.587,33.18 C7.587,33.957 7.553,34.716 7.518,35.462 C7.354,39.053 7.225,41.889 10.832,45.311 C12.3830791,46.8345066 13.7400208,48.5437829 14.872,50.4 C16.516,52.924 17.339,54.04 19.63,54.04 L24.37,54.04 C26.661,54.04 27.484,52.924 29.128,50.4 C30.2589392,48.5450587 31.614522,46.8368095 33.164,45.314 C36.771,41.892 36.642,39.056 36.478,35.465 C36.443,34.719 36.409,33.96 36.409,33.183 C36.4297559,31.737422 36.5911838,30.2972973 36.891,28.883 C37.375,26.212 37.978,22.89 37.591,14.589 C37.364,9.657 34.891,6.054 30.24,3.877 C27.9989838,2.8544688 25.5958299,2.23337198 23.14,2.042 L20.814,2.04 Z" id="Shape" fill="#000000"/><path d="M28.484,26.011 C28.2047134,26.0105511 27.9256498,25.9951959 27.648,25.965 C26.2725813,25.7939092 24.9652088,25.2684103 23.854,24.44 C23.1617966,23.9507609 22.5175763,23.3969456 21.93,22.786 C20.1654706,25.095627 17.3038939,26.2899513 14.421,25.92 C11.2803541,25.5090622 8.77712819,23.093918 8.254,19.97 C7.88450705,17.2507653 8.1459233,14.4829694 9.018,11.881 C9.70541182,9.63702969 11.1649426,7.70881951 13.138,6.438 C15.3722228,5.06892649 17.9024372,4.25615769 20.516,4.068 L20.862,4.042 L23.078,4.042 C25.639425,4.12173218 28.1404022,4.83978351 30.354,6.131 C32.8686509,7.60233979 34.6560281,10.0554534 35.286,12.9 C35.854,15.194 36.334,18.5 35.405,21.215 C34.4176235,24.1717824 31.5991397,26.1236669 28.484,26.008 L28.484,26.011 Z M22.991,20.906 C23.6155895,21.6005038 24.2973107,22.2414155 25.029,22.822 C25.859096,23.4461299 26.8369821,23.8441068 27.867,23.977 C29.9343179,24.2262411 31.9620032,23.2708707 33.086,21.518 C33.2590599,21.2167586 33.4020812,20.8992311 33.513,20.57 C34.1092759,18.2033688 34.0512067,15.719185 33.345,13.383 C32.8414388,11.0680615 31.3958972,9.06771313 29.356,7.863 C27.447425,6.74287524 25.2896769,6.11631031 23.078,6.04 L20.693,6.061 C18.4000119,6.21965931 16.1786901,6.92683324 14.216,8.123 C12.6375578,9.1435119 11.4713392,10.6898498 10.924,12.488 C10.1475498,14.7789705 9.90805118,17.2177512 10.224,19.616 C10.5905716,21.9026926 12.4293945,23.6688606 14.729,23.943 C18.105,24.465 20.356,21.696 21.17,20.481 C21.4019247,20.1361895 21.8229254,19.9707442 22.2275527,20.0654016 C22.63218,20.1600591 22.9361004,20.4950906 22.991,20.907 L22.991,20.906 Z" id="Shape" fill="#000000"/><path d="M37.471,36.076 C37.0098393,36.0760722 36.6084309,35.7607729 36.4992653,35.3127193 C36.3900997,34.8646656 36.6014893,34.4000617 37.011,34.188 C40.266,32.506 40.85,28.588 40.855,28.546 C41.106,26.201 41.03,23.724 40.693,23.131 C40.381,23.09 39.76,23.702 39.504,24.09 C39.3103323,24.3949124 38.9672801,24.5716812 38.6065752,24.5524272 C38.2458703,24.5331733 37.9235852,24.3208897 37.7634772,23.9970932 C37.6033692,23.6732967 37.6303274,23.2883224 37.834,22.99 C38.489,21.999 40.028,20.535 41.663,21.368 C43.212,22.149 43.163,25.837 42.84,28.794 C42.808,29.028 42.093,33.815 37.929,35.967 C37.7870905,36.0390116 37.6301347,36.0763657 37.471,36.076 Z" id="Shape" fill="#000000"/><path d="M30.487,60 L13.513,60 C11.8561458,60 10.513,58.6568542 10.513,57 L10.513,47.48 C10.513,46.9277153 10.9607153,46.48 11.513,46.48 C12.0652847,46.48 12.513,46.9277153 12.513,47.48 L12.513,57 C12.513,57.5522847 12.9607153,58 13.513,58 L30.487,58 C31.0392847,58 31.487,57.5522847 31.487,57 L31.487,47.48 C31.487,46.9277153 31.9347153,46.48 32.487,46.48 C33.0392847,46.48 33.487,46.9277153 33.487,47.48 L33.487,57 C33.487,58.6568542 32.1438542,60 30.487,60 Z" id="Shape" fill="#000000"/><path d="M22,15 C19.790861,15 18,13.209139 18,11 C18,8.790861 19.790861,7 22,7 C24.209139,7 26,8.790861 26,11 C26,12.060866 25.5785726,13.0782816 24.8284271,13.8284271 C24.0782816,14.5785726 23.060866,15 22,15 Z M22,9 C20.8954305,9 20,9.8954305 20,11 C20,12.1045695 20.8954305,13 22,13 C23.1045695,13 24,12.1045695 24,11 C24,9.8954305 23.1045695,9 22,9 Z" id="Shape" fill="#000000"/><path d="M27,25.84 C26.4477153,25.84 26,25.3922847 26,24.84 L26,19 C26,16.790861 24.209139,15 22,15 C19.790861,15 18,16.790861 18,19 L18,24.83 C18,25.3822847 17.5522847,25.83 17,25.83 C16.4477153,25.83 16,25.3822847 16,24.83 L16,19 C16,15.6862915 18.6862915,13 22,13 C25.3137085,13 28,15.6862915 28,19 L28,24.84 C28,25.3922847 27.5522847,25.84 27,25.84 Z" id="Shape" fill="#000000"/></g></g></svg>
