<?xml version="1.0" encoding="UTF-8"?>
<svg xmlns="http://www.w3.org/2000/svg" xmlns:xlink="http://www.w3.org/1999/xlink" width="512" height="512" viewBox="0 0 60 60" version="1.1"><!-- Generator: Sketch 51.3 (57544) - http://www.bohemiancoding.com/sketch --><title>077 - Relax</title><desc>Created with Sketch.</desc><defs/><g id="Page-1" stroke="none" stroke-width="1" fill="none" fill-rule="evenodd"><g id="077---Relax" transform="translate(-1.000000, 0.000000)" fill-rule="nonzero"><path d="M41.213,22.22 C39.943,21.57 38.672,23.5 38.672,23.5 L38.593,23.49 C38.7559709,20.4955491 38.7559709,17.4944509 38.593,14.5 C38,1.64 23.193,1 23.193,1 L20.813,1 C20.813,1 6,1.64 5.412,14.5 C5.24902908,17.4944509 5.24902908,20.4955491 5.412,23.49 L5.333,23.5 C5.333,23.5 4.063,21.57 2.792,22.22 C1.533,22.85 2.153,28.64 2.153,28.64 C2.153,28.64 2.783,33.1 6.533,35.04 C6.373,38.76 6.093,42.14 10.153,46 C10.6353309,46.4549126 11.0926674,46.9356167 11.523,47.44 L11.523,56.96 C11.5229862,58.060676 12.4123377,58.9544966 13.513,58.96 L30.493,58.96 C31.5932713,58.9539484 32.4820166,58.060288 32.482,56.96 L32.482,47.44 C32.9126018,46.9358594 33.3699249,46.4551694 33.852,46 C37.912,42.14 37.633,38.76 37.472,35.04 C41.222,33.1 41.852,28.64 41.852,28.64 C41.852,28.64 42.472,22.85 41.213,22.22 Z" id="Shape" fill="#F3D55B"/><path d="M6.593,33.14 C6.593,33.79 6.573,34.42 6.533,35.04 C2.783,33.1 2.153,28.64 2.153,28.64 C2.153,28.64 1.533,22.85 2.792,22.22 C4.063,21.57 5.333,23.5 5.333,23.5 L5.412,23.49 C5.732,28.45 6.593,30.02 6.593,33.14 Z" id="Shape" fill="#FF9801"/><path d="M38.59,23.49 C38.27,28.45 37.41,30.02 37.41,33.14 C37.41,33.79 37.43,34.42 37.47,35.04 C37.63,38.76 37.91,42.14 33.85,46 C33.3674124,46.4546547 32.9100622,46.9353732 32.48,47.44 C29.06,51.41 28.6,55 24.37,55 L19.63,55 C15.4,55 14.94,51.41 11.52,47.44 C11.0899378,46.9353732 10.6325876,46.4546547 10.15,46 C6.09,42.14 6.37,38.76 6.53,35.04 C6.57,34.42 6.59,33.79 6.59,33.14 C6.59,30.02 5.73,28.45 5.41,23.49 C5.2465184,20.495563 5.2465184,17.494437 5.41,14.5 C5.95,2.75 18.37,1.2 20.5,1.02 C20.7,1 20.81,1 20.81,1 L23.19,1 C23.19,1 38,1.64 38.59,14.5 C38.7534816,17.494437 38.7534816,20.495563 38.59,23.49 Z" id="Shape" fill="#FEC108"/><path d="M35.59,23.49 C35.27,28.45 34.41,30.02 34.41,33.14 C34.41,33.79 34.43,34.42 34.47,35.04 C34.63,38.76 34.91,42.14 30.85,46 C30.3674124,46.4546547 29.9100622,46.9353732 29.48,47.44 C26.06,51.41 25.6,55 21.37,55 L19.63,55 C15.4,55 14.94,51.41 11.52,47.44 C11.0899378,46.9353732 10.6325876,46.4546547 10.15,46 C6.09,42.14 6.37,38.76 6.53,35.04 C6.57,34.42 6.59,33.79 6.59,33.14 C6.59,30.02 5.73,28.45 5.41,23.49 C5.2465184,20.495563 5.2465184,17.494437 5.41,14.5 C5.95,2.75 18.37,1.2 20.5,1.02 C22.63,1.2 35.05,2.75 35.59,14.5 C35.7534816,17.494437 35.7534816,20.495563 35.59,23.49 Z" id="Shape" fill="#FFDC00"/><path d="M41.852,28.64 C41.852,28.64 41.222,33.1 37.472,35.04 C37.433,34.42 37.412,33.79 37.412,33.14 C37.412,30.02 38.273,28.45 38.593,23.49 L38.672,23.5 C38.672,23.5 39.943,21.57 41.213,22.22 C42.472,22.85 41.852,28.64 41.852,28.64 Z" id="Shape" fill="#285680"/><path d="M32.482,47.44 L32.482,56.96 C32.4820138,58.060676 31.5926623,58.9544966 30.492,58.96 L13.513,58.96 C12.4123377,58.9544966 11.5229862,58.060676 11.523,56.96 L11.523,47.44 C14.943,51.41 15.403,55 19.633,55 L24.373,55 C28.6,55 29.063,51.41 32.482,47.44 Z" id="Shape" fill="#FF9801"/><path d="M43.82,11.78 C43.7393849,12.2531084 43.6291684,12.7206934 43.49,13.18 C43.43,13.4 43.36,13.62 43.28,13.83 C43.23,14 43.16,14.16 43.1,14.32 L42.95,14.68 C42.82,15 42.68,15.29 42.54,15.57 C42.5154819,15.552744 42.4885156,15.5392609 42.46,15.53 C41.6869899,15.1804972 40.8483494,14.9998145 40,15 C39.2998212,14.9972903 38.6050529,15.1226875 37.95,15.37 C37.91,15.24 37.86,15.1 37.81,14.96 C37.76,14.82 37.71,14.67 37.65,14.53 C37.4686193,14.0688119 37.2616305,13.6181105 37.03,13.18 C36.95,13.02 36.86,12.87 36.77,12.71 C36.6854762,12.5514748 36.5919915,12.3978927 36.49,12.25 C36.39,12.09 36.29,11.94 36.18,11.78 L36.18,11.77 C35.67,8.88 36.11,5.25 39.21,1.38 C39.4009813,1.1383905 39.6920243,0.997458966 40,0.997458966 C40.3079757,0.997458966 40.5990187,1.1383905 40.79,1.38 C43.89,5.25 44.33,8.89 43.82,11.78 Z" id="Shape" fill="#EF314C"/><path d="M37.81,14.96 C37.86,15.1 37.91,15.24 37.95,15.37 L37.86,15.4 C36.4092991,15.9568286 35.2303219,17.0533848 34.57,18.46 C33.3762794,17.8497674 32.0992721,17.4184826 30.78,17.18 C28.38,15.5 26.11,12.61 25.57,7.68 C25.5342379,7.37604663 25.6396327,7.07245274 25.8560427,6.85604274 C26.0724527,6.63963274 26.3760466,6.53423791 26.68,6.57 C31.6,7.11 34.49,9.38 36.18,11.77 L36.18,11.78 C36.29,11.94 36.39,12.09 36.49,12.25 C36.59,12.41 36.68,12.56 36.77,12.71 C36.86,12.86 36.95,13.02 37.03,13.18 C37.2616305,13.6181105 37.4686193,14.0688119 37.65,14.53 C37.71,14.67 37.76,14.82 37.81,14.96 Z" id="Shape" fill="#E91E63"/><path d="M34,21 C33.9972903,21.7001788 34.1226875,22.3949471 34.37,23.05 C34.24,23.09 34.1,23.14 33.96,23.19 C33.82,23.24 33.68,23.29 33.53,23.35 C33.0688119,23.5313807 32.6181105,23.7383695 32.18,23.97 C32.0182864,24.047212 31.8613391,24.1340339 31.71,24.23 C31.5514748,24.3145238 31.3978927,24.4080085 31.25,24.51 C31.09,24.61 30.94,24.71 30.78,24.82 L30.77,24.82 C27.88,25.33 24.25,24.89 20.38,21.79 C20.1383905,21.5990187 19.997459,21.3079757 19.997459,21 C19.997459,20.6920243 20.1383905,20.4009813 20.38,20.21 C24.25,17.11 27.89,16.67 30.78,17.18 C32.0992721,17.4184826 33.3762794,17.8497674 34.57,18.46 C34.552744,18.4845181 34.5392609,18.5114844 34.53,18.54 C34.1804972,19.3130101 33.9998145,20.1516506 34,21 Z" id="Shape" fill="#EF314C"/><path d="M37.46,26.43 C37.32,26.71 37.18,27 37.05,27.32 L36.9,27.68 C36.84,27.84 36.78,28.01 36.72,28.17 C36.64,28.38 36.57,28.6 36.51,28.82 C36.3755363,29.2805597 36.2653842,29.7478716 36.18,30.22 C34.5,32.62 31.61,34.89 26.68,35.43 C26.3760466,35.4657621 26.0724527,35.3603673 25.8560427,35.1439573 C25.6396327,34.9275473 25.5342379,34.6239534 25.57,34.32 C26.11,29.4 28.38,26.51 30.77,24.82 L30.78,24.82 C30.94,24.71 31.09,24.61 31.25,24.51 C31.41,24.41 31.56,24.32 31.71,24.23 C31.86,24.14 32.02,24.05 32.18,23.97 C32.6181105,23.7383695 33.0688119,23.5313807 33.53,23.35 C33.67,23.29 33.82,23.24 33.96,23.19 C34.1,23.14 34.24,23.09 34.37,23.05 L34.4,23.14 C34.9568286,24.5907009 36.0533848,25.7696781 37.46,26.43 Z" id="Shape" fill="#E91E63"/><path d="M40.79,40.62 C40.5990187,40.8616095 40.3079757,41.002541 40,41.002541 C39.6920243,41.002541 39.4009813,40.8616095 39.21,40.62 C36.11,36.75 35.67,33.11 36.18,30.22 C36.2653842,29.7478716 36.3755363,29.2805597 36.51,28.82 C36.57,28.6 36.64,28.38 36.72,28.17 C36.78,28.01 36.84,27.84 36.9,27.68 L37.05,27.32 C37.18,27 37.32,26.71 37.46,26.43 C37.4845181,26.447256 37.5114844,26.4607391 37.54,26.47 C38.3130101,26.8195028 39.1516506,27.0001855 40,27 C40.7001788,27.0027097 41.3949471,26.8773125 42.05,26.63 C42.4584335,27.9079303 43.0549819,29.1178789 43.82,30.22 L43.82,30.23 C44.33,33.12 43.89,36.75 40.79,40.62 Z" id="Shape" fill="#EF314C"/><path d="M54.43,34.32 C54.4657621,34.6239534 54.3603673,34.9275473 54.1439573,35.1439573 C53.9275473,35.3603673 53.6239534,35.4657621 53.32,35.43 C52.6117713,35.3590721 51.9098225,35.2353954 51.22,35.06 C48.2326189,34.4405075 45.5895277,32.7153548 43.82,30.23 L43.82,30.22 C43.0549819,29.1178789 42.4584335,27.9079303 42.05,26.63 L42.14,26.6 C43.2315838,26.17939 44.1768306,25.4496038 44.86,24.5 C45.0805173,24.1991326 45.2714066,23.8776347 45.43,23.54 C46.6237206,24.1502326 47.9007279,24.5815174 49.22,24.82 C51.61,26.5 53.88,29.38 54.43,34.32 Z" id="Shape" fill="#AD1457"/><path d="M59.62,21.79 C56.9237887,24.1651806 53.3515015,25.2942266 49.78,24.9 C49.59,24.88 49.4,24.85 49.22,24.82 C47.9007279,24.5815174 46.6237206,24.1502326 45.43,23.54 C45.447256,23.5154819 45.4607391,23.4885156 45.47,23.46 C45.8195028,22.6869899 46.0001855,21.8483494 46,21 C46.0027097,20.2998212 45.8773125,19.6050529 45.63,18.95 C45.77,18.91 45.9,18.86 46.04,18.81 C46.18,18.76 46.33,18.71 46.47,18.65 C46.9321534,18.4708936 47.3829857,18.2638447 47.82,18.03 C47.98,17.95 48.13,17.86 48.29,17.77 C48.45,17.68 48.6,17.59 48.75,17.49 C48.9,17.39 49.06,17.29 49.22,17.18 C49.4,17.15 49.59,17.12 49.78,17.1 C53.3515015,16.7057734 56.9237887,17.8348194 59.62,20.21 C59.8616095,20.4009813 60.002541,20.6920243 60.002541,21 C60.002541,21.3079757 59.8616095,21.5990187 59.62,21.79 Z" id="Shape" fill="#BB193B"/><path d="M54.43,7.68 C53.88,12.62 51.61,15.5 49.22,17.18 C49.06,17.29 48.91,17.4 48.75,17.49 C48.59,17.58 48.44,17.68 48.29,17.77 C48.14,17.86 47.98,17.95 47.82,18.03 C47.3829857,18.2638447 46.9321534,18.4708936 46.47,18.65 C46.33,18.71 46.18,18.76 46.04,18.81 C45.9,18.86 45.77,18.91 45.63,18.95 L45.6,18.86 C45.4691033,18.5149144 45.3049996,18.1833579 45.11,17.87 C44.4959814,16.8690942 43.6026471,16.0696122 42.54,15.57 C42.68,15.29 42.82,15 42.95,14.68 C43,14.57 43.05,14.44 43.1,14.32 C43.16,14.16 43.23,14 43.28,13.83 C43.36,13.62 43.43,13.4 43.49,13.18 C43.6291684,12.7206934 43.7393849,12.2531084 43.82,11.78 C45.5835244,9.28650739 48.2287479,7.55638826 51.22,6.94 C51.9098225,6.76460463 52.6117713,6.64092793 53.32,6.57 C53.6239534,6.53423791 53.9275473,6.63963274 54.1439573,6.85604274 C54.3603673,7.07245274 54.4657621,7.37604663 54.43,7.68 Z" id="Shape" fill="#AD1457"/><path d="M51.43,34.32 C51.4614651,34.5847999 51.3858653,34.8511993 51.22,35.06 C48.2326189,34.4405075 45.5895277,32.7153548 43.82,30.23 L43.82,30.22 C43.0549819,29.1178789 42.4584335,27.9079303 42.05,26.63 L42.14,26.6 C43.2315838,26.17939 44.1768306,25.4496038 44.86,24.5 C45.3062716,24.6347182 45.7604792,24.7415906 46.22,24.82 C48.61,26.5 50.88,29.38 51.43,34.32 Z" id="Shape" fill="#E91E63"/><path d="M56.62,21.79 C54.6715424,23.4393679 52.3037675,24.515944 49.78,24.9 C49.59,24.88 49.4,24.85 49.22,24.82 C47.9007279,24.5815174 46.6237206,24.1502326 45.43,23.54 C45.447256,23.5154819 45.4607391,23.4885156 45.47,23.46 C45.8195028,22.6869899 46.0001855,21.8483494 46,21 C46.0027097,20.2998212 45.8773125,19.6050529 45.63,18.95 C45.77,18.91 45.9,18.86 46.04,18.81 C46.18,18.76 46.33,18.71 46.47,18.65 C46.9321534,18.4708936 47.3829857,18.2638447 47.82,18.03 C47.98,17.95 48.13,17.86 48.29,17.77 C48.45,17.68 48.6,17.59 48.75,17.49 C48.9,17.39 49.06,17.29 49.22,17.18 C49.4,17.15 49.59,17.12 49.78,17.1 C52.3037675,17.484056 54.6715424,18.5606321 56.62,20.21 C56.8616095,20.4009813 57.002541,20.6920243 57.002541,21 C57.002541,21.3079757 56.8616095,21.5990187 56.62,21.79 Z" id="Shape" fill="#EF314C"/><path d="M51.43,7.68 C50.88,12.62 48.61,15.5 46.22,17.18 C46.06,17.29 45.91,17.4 45.75,17.49 C45.59,17.58 45.44,17.68 45.29,17.77 C45.23,17.8 45.17,17.84 45.11,17.87 C44.4959814,16.8690942 43.6026471,16.0696122 42.54,15.57 C42.68,15.29 42.82,15 42.95,14.68 C43,14.57 43.05,14.44 43.1,14.32 C43.16,14.16 43.23,14 43.28,13.83 C43.36,13.62 43.43,13.4 43.49,13.18 C43.6291684,12.7206934 43.7393849,12.2531084 43.82,11.78 C45.5835244,9.28650739 48.2287479,7.55638826 51.22,6.94 C51.3858653,7.1488007 51.4614651,7.41520012 51.43,7.68 Z" id="Shape" fill="#E91E63"/><path d="M45,21 C45.0045433,23.5925052 43.0316284,25.7607908 40.4502101,26.0003392 C37.8687917,26.2398877 35.5305796,24.4716628 35.0579987,21.9225901 C34.5854179,19.3735175 36.1343909,16.8846347 38.6301255,16.1829132 C41.12586,15.4811917 43.7449168,16.7981566 44.67,19.22 C44.8868314,19.7884686 44.9986449,20.3915835 45,21 Z" id="Shape" fill="#F3D55B"/><path d="M45.43,23.54 C44.7696781,24.9466152 43.5907009,26.0431714 42.14,26.6 L42.05,26.63 C41.94,26.29 41.85,25.97 41.78,25.67 C43.0169098,25.1990326 44.0166247,24.2568552 44.56,23.05 C44.82,23.21 45.11,23.37 45.43,23.54 Z" id="Shape" fill="#FF5364"/><path d="M42.05,26.63 C41.3949471,26.8773125 40.7001788,27.0027097 40,27 C39.1516506,27.0001855 38.3130101,26.8195028 37.54,26.47 C37.5114844,26.4607391 37.4845181,26.447256 37.46,26.43 C37.63,26.11 37.79,25.82 37.95,25.56 C39.1609574,26.1057621 40.5397153,26.1453609 41.78,25.67 C41.85,25.97 41.94,26.29 42.05,26.63 Z" id="Shape" fill="#DF4D60"/><path d="M35,21 C35.0003712,21.6085076 35.1122174,22.211799 35.33,22.78 C35.0633333,22.84 34.7733333,22.92 34.46,23.02 L34.37,23.05 C34.1226875,22.3949471 33.9972903,21.7001788 34,21 C33.9998145,20.1516506 34.1804972,19.3130101 34.53,18.54 C34.5392609,18.5114844 34.552744,18.4845181 34.57,18.46 C34.89,18.63 35.18,18.79 35.44,18.95 C35.1508468,19.5948021 35.0009182,20.2933329 35,21 Z" id="Shape" fill="#DF4D60"/><path d="M38.22,16.33 C36.9830902,16.8009674 35.9833753,17.7431448 35.44,18.95 C35.18,18.79 34.89,18.63 34.57,18.46 C35.2303219,17.0533848 36.4092991,15.9568286 37.86,15.4 L37.95,15.37 L37.98,15.46 C38,15.53 38.02,15.6 38.04,15.66 C38.07,15.76 38.1,15.86 38.12,15.95 C38.16,16.08 38.19,16.21 38.22,16.33 Z" id="Shape" fill="#FF5364"/><path d="M42.54,15.57 C42.49,15.67 42.44,15.76 42.39,15.85 C42.36,15.9 42.33,15.96 42.3,16.01 C42.22,16.16 42.13,16.3 42.05,16.44 C40.8390426,15.8942379 39.4602847,15.8546391 38.22,16.33 C38.19,16.21 38.16,16.08 38.12,15.95 C38.1,15.86 38.07,15.76 38.04,15.66 C38.02,15.6 38,15.53 37.98,15.46 L37.95,15.37 C38.6050529,15.1226875 39.2998212,14.9972903 40,15 C40.8483494,14.9998145 41.6869899,15.1804972 42.46,15.53 C42.4885156,15.5392609 42.5154819,15.552744 42.54,15.57 Z" id="Shape" fill="#DF4D60"/><path d="M45.63,18.95 L45.54,18.98 C45.23,19.07 44.94,19.15 44.67,19.22 C44.1990326,17.9830902 43.2568552,16.9833753 42.05,16.44 C42.13,16.3 42.22,16.16 42.3,16.01 C42.33,15.96 42.36,15.9 42.39,15.85 C42.44,15.76 42.49,15.67 42.54,15.57 C43.9466152,16.2303219 45.0431714,17.4092991 45.6,18.86 L45.63,18.95 Z" id="Shape" fill="#FF5364"/><path d="M46,21 C46.0001855,21.8483494 45.8195028,22.6869899 45.47,23.46 C45.4607391,23.4885156 45.447256,23.5154819 45.43,23.54 C45.11,23.37 44.82,23.21 44.56,23.05 C45.1057621,21.8390426 45.1453609,20.4602847 44.67,19.22 C44.9366667,19.15 45.2266667,19.07 45.54,18.98 L45.63,18.95 C45.8773125,19.6050529 46.0027097,20.2998212 46,21 Z" id="Shape" fill="#DF4D60"/><path d="M37.95,25.56 C37.79,25.82 37.63,26.11 37.46,26.43 C36.0533848,25.7696781 34.9568286,24.5907009 34.4,23.14 L34.37,23.05 L34.46,23.02 C34.77,22.92 35.06,22.84 35.33,22.78 C35.8009674,24.0169098 36.7431448,25.0166247 37.95,25.56 Z" id="Shape" fill="#FF5364"/><path d="M45,21 C45.0045433,23.5925052 43.0316284,25.7607908 40.4502101,26.0003392 C37.8687917,26.2398877 35.5305796,24.4716628 35.0579987,21.9225901 C34.5854179,19.3735175 36.1343909,16.8846347 38.6301255,16.1829132 C41.12586,15.4811917 43.7449168,16.7981566 44.67,19.22 C44.8868314,19.7884686 44.9986449,20.3915835 45,21 Z" id="Shape" fill="#FFDC00"/><path d="M6.529,36.076 C6.36970273,36.0757464 6.21273817,36.0377047 6.071,35.965 C1.907,33.813 1.192,29.026 1.164,28.823 C0.842,25.835 0.788,22.147 2.34,21.365 C3.969,20.538 5.511,21.996 6.166,22.988 C6.45864172,23.4487382 6.32777555,24.0590241 5.87195367,24.359266 C5.41613178,24.659508 4.80375962,24.5387803 4.496,24.088 C4.206,23.655 3.633,23.088 3.307,23.128 C2.971,23.72 2.894,26.2 3.148,28.576 C3.148,28.576 3.759,32.517 6.989,34.186 C7.39851073,34.3980617 7.60990029,34.8626656 7.50073467,35.3107193 C7.39156905,35.7587729 6.99016073,36.0740722 6.529,36.074 L6.529,36.076 Z" id="Shape" fill="#000000"/><path d="M24.37,56.04 L19.63,56.04 C16.158,56.04 14.785,53.932 13.196,51.491 C12.1524813,49.7669775 10.8981461,48.1797429 9.462,46.766 C5.191,42.711 5.362,38.977 5.524,35.366 C5.557,34.651 5.59,33.925 5.59,33.181 C5.56909313,31.8555116 5.41871188,30.5352379 5.141,29.239 C4.664,26.618 4.013,23.026 4.411,14.494 C5.036,0.878 20.609,0.048 20.767,0.041 L23.19,0.041 C23.609,0.059 32.49,0.516 37.05,6.814 C37.264833,7.10298727 37.3077042,7.48516194 37.1622404,7.81456619 C37.0167767,8.14397043 36.705444,8.36972992 36.3471445,8.40562398 C35.9888451,8.44151803 35.638916,8.28200304 35.431,7.988 C31.431,2.463 23.231,2.044 23.146,2.04 L20.81,2.04 C20.286,2.064 6.949,2.805 6.41,14.586 C6.022,22.893 6.625,26.213 7.11,28.886 C7.41020531,30.3002344 7.57163752,31.7403972 7.592,33.186 C7.592,33.961 7.558,34.718 7.524,35.462 C7.361,39.056 7.232,41.895 10.841,45.32 C12.3883331,46.8414941 13.7425138,48.5476543 14.873,50.4 C16.516,52.925 17.339,54.041 19.63,54.041 L24.37,54.041 C26.661,54.041 27.484,52.925 29.127,50.4 C30.2577698,48.5457895 31.6126386,46.8379294 33.161,45.315 C35.2970168,43.5103538 36.5294764,40.8563039 36.53,38.06 C36.5462233,37.5194653 36.989222,37.0897566 37.53,37.09 L37.562,37.09 C38.1140001,37.1068636 38.5478253,37.5679988 38.531,38.12 C38.5173369,41.4445888 37.0607023,44.5994141 34.539,46.766 C33.1010969,48.1794482 31.8450719,49.7666955 30.8,51.491 C29.215,53.932 27.842,56.04 24.37,56.04 Z" id="Shape" fill="#000000"/><path d="M30.487,60 L13.513,60 C11.8561458,60 10.513,58.6568542 10.513,57 L10.513,47.48 C10.513,46.9277153 10.9607153,46.48 11.513,46.48 C12.0652847,46.48 12.513,46.9277153 12.513,47.48 L12.513,57 C12.513,57.5522847 12.9607153,58 13.513,58 L30.487,58 C31.0392847,58 31.487,57.5522847 31.487,57 L31.487,47.48 C31.487,46.9277153 31.9347153,46.4800001 32.487,46.4800001 C33.0392847,46.4800001 33.487,46.9277153 33.487,47.48 L33.487,57 C33.487,58.6568542 32.1438542,60 30.487,60 Z" id="Shape" fill="#000000"/><path d="M40,27 C36.6862915,27 34,24.3137085 34,21 C34,17.6862915 36.6862915,15 40,15 C43.3137085,15 46,17.6862915 46,21 C45.9966926,24.3123376 43.3123376,26.9966926 40,27 Z M40,17 C37.790861,17 36,18.790861 36,21 C36,23.209139 37.790861,25 40,25 C42.209139,25 44,23.209139 44,21 C44,18.790861 42.209139,17 40,17 Z" id="Shape" fill="#000000"/><path d="M42.052,17.442 C41.6910642,17.4418626 41.3582109,17.2472349 41.1810811,16.9327518 C41.0039512,16.6182686 41.0100352,16.2327375 41.197,15.924 C42.0047239,14.5996532 42.5607283,13.1374293 42.837,11.611 C43.42,8.306 42.47,5.076 40.012,2.011 C37.536,5.074 36.586,8.3 37.167,11.6 C37.1778205,11.657027 37.1831781,11.7149558 37.183,11.773 C37.1981792,12.3118726 36.7834802,12.7657887 36.2454322,12.7992313 C35.7073841,12.8326739 35.2396675,12.4336047 35.188,11.897 C34.521,8.025 35.612,4.278 38.433,0.759 C38.8255106,0.300466602 39.3989129,0.0365124674 40.0025,0.0365124674 C40.6060871,0.0365124674 41.1794894,0.300466602 41.572,0.759 C44.405,4.295 45.494,8.059 44.807,11.959 C44.4857576,13.7281111 43.8416989,15.4230024 42.907,16.959 C42.7261173,17.2584838 42.4018699,17.4416551 42.052,17.442 Z" id="Shape" fill="#000000"/><path d="M30.781,18.183 C30.5760255,18.1824359 30.3762376,18.1185177 30.209,18 C26.9166486,15.5949456 24.8555344,11.8577806 24.578,7.79 C24.5089976,7.18481536 24.7195424,6.58117075 25.1499531,6.15017606 C25.5803638,5.71918138 26.1837224,5.50781827 26.789,5.576 C31.276,6.07 34.711,7.96 37,11.2 C37.0213131,11.2302693 37.0410074,11.2616466 37.059,11.294 C38.0574769,12.7525746 38.7810264,14.3813235 39.194,16.1 C39.2906946,16.451614 39.1883213,16.8279865 38.9268475,17.0821787 C38.6653736,17.3363709 38.2862605,17.4280761 37.937517,17.3214918 C37.5887735,17.2149075 37.325699,16.9269346 37.251,16.57 C36.8890543,15.0620916 36.2494869,13.6347643 35.365,12.361 C35.3455966,12.3337872 35.3278961,12.3053996 35.312,12.276 C33.232029,9.49926841 30.0360757,7.77786412 26.573,7.569 C26.994,11.484 28.605,14.441 31.355,16.369 C31.7133574,16.6191337 31.867779,17.072998 31.7363319,17.4897816 C31.6048848,17.9065651 31.2180199,18.189716 30.781,18.189 L30.781,18.183 Z" id="Shape" fill="#000000"/><path d="M28.7,26.006 C25.4109588,25.9340358 22.2493439,24.7203688 19.757,22.573 C19.2764024,22.1937285 18.9959915,21.6152262 18.9959915,21.003 C18.9959915,20.3907738 19.2764024,19.8122715 19.757,19.433 C23.292,16.6 27.057,15.506 30.957,16.198 C32.7260253,16.5195506 34.4208619,17.1635885 35.957,18.098 C36.2695643,18.2795927 36.4597931,18.615736 36.4545444,18.9771842 C36.4492956,19.3386324 36.2493864,19.6691103 35.931681,19.8415506 C35.6139756,20.0139909 35.2279388,20.0015456 34.922,19.809 C33.5966925,19.0025019 32.1343755,18.4465909 30.608,18.169 C27.308,17.585 24.073,18.537 21.008,20.994 C24.074,23.469 27.302,24.42 30.599,23.839 C30.8898803,23.7909442 31.1872642,23.8719965 31.413533,24.0610021 C31.6398019,24.2500077 31.7725027,24.5282111 31.777,24.823 C31.7775602,25.3296785 31.3990785,25.7567055 30.896,25.817 C30.1707325,25.9425346 29.4360515,26.0057653 28.7,26.006 Z" id="Shape" fill="#000000"/><path d="M26.567,36.438 C25.9970458,36.4403095 25.4533469,36.1986095 25.0732063,35.7739375 C24.6930656,35.3492656 24.5128245,34.7822202 24.578,34.216 C25.07,29.729 26.96,26.294 30.195,24.006 C30.2252693,23.9846869 30.2566466,23.9649926 30.289,23.947 C31.748784,22.9472027 33.3793581,22.2232563 35.1,21.811 C35.451614,21.7143054 35.8279865,21.8166787 36.0821787,22.0781525 C36.3363709,22.3396264 36.4280761,22.7187395 36.3214918,23.067483 C36.2149075,23.4162265 35.9269346,23.679301 35.57,23.754 C34.0620916,24.1159457 32.6347643,24.7555131 31.361,25.64 C31.3337872,25.6594034 31.3053996,25.6771039 31.276,25.693 C28.4992684,27.772971 26.7778641,30.9689243 26.569,34.432 C30.484,34.011 33.441,32.399 35.369,29.649 C35.5644077,29.3325514 35.919292,29.1506912 36.2902875,29.1768871 C36.661283,29.203083 36.9870914,29.4330067 37.1360933,29.773774 C37.2850951,30.1145412 37.2326713,30.5098484 37,30.8 C34.5946664,34.0920343 30.8576614,36.1530603 26.79,36.431 C26.7158413,36.4372496 26.6414047,36.4395861 26.567,36.438 Z" id="Shape" fill="#000000"/><path d="M40,42.005 C39.3882851,42.0057273 38.8098748,41.7264693 38.43,41.247 C35.596,37.712 34.508,33.947 35.195,30.047 C35.5162424,28.2778889 36.1603011,26.5829976 37.095,25.047 C37.3813596,24.5745204 37.9965204,24.4236404 38.469,24.71 C38.9414796,24.9963596 39.0923596,25.6115204 38.806,26.084 C37.9980895,27.4082554 37.4420715,28.8705151 37.166,30.397 C36.583,33.702 37.533,36.933 39.991,39.997 C42.467,36.931 43.417,33.704 42.836,30.406 C42.8251342,30.3486424 42.8197765,30.2903773 42.82,30.232 C42.8122078,29.6980444 43.2253261,29.2521834 43.7583255,29.2193053 C44.2913249,29.1864272 44.7561087,29.5781347 44.814,30.109 C45.481,33.981 44.391,37.729 41.57,41.247 C41.1901252,41.7264693 40.6117149,42.0057273 40,42.005 Z" id="Shape" fill="#000000"/><path d="M53.438,36.438 C53.3635234,36.4383265 53.2890829,36.4346545 53.215,36.427 C48.729,35.935 45.294,34.045 43.006,30.81 C42.9846869,30.7797307 42.9649926,30.7483534 42.947,30.716 C41.9475351,29.2571243 41.2236013,27.6275955 40.811,25.908 C40.7143054,25.556386 40.8166787,25.1800135 41.0781525,24.9258213 C41.3396264,24.6716291 41.7187395,24.5799239 42.067483,24.6865082 C42.4162265,24.7930925 42.679301,25.0810654 42.754,25.438 C43.1157964,26.94565 43.7553807,28.372676 44.64,29.646 C44.659,29.674 44.677,29.702 44.693,29.731 C46.7723338,32.5084714 49.9686572,34.2300751 53.432,34.438 C53.004,30.529 51.393,27.57 48.647,25.638 C48.3543995,25.4320364 48.1939057,25.0856176 48.2259752,24.7292363 C48.2580446,24.372855 48.4778052,24.060654 48.8024752,23.9102363 C49.1271452,23.7598186 49.5073995,23.7940364 49.8,24 C53.034,26.275 54.928,29.709 55.429,34.208 C55.4934219,34.7744513 55.3130429,35.3414726 54.9331861,35.7665915 C54.5533292,36.1917103 54.0101026,36.434516 53.44,36.434 L53.438,36.438 Z" id="Shape" fill="#000000"/><path d="M51.3,26.007 C50.545606,26.0060019 49.7927422,25.9390807 49.05,25.807 C47.2791579,25.4863467 45.5825215,24.842269 44.045,23.907 C43.7176073,23.732891 43.5134361,23.3919141 43.5145416,23.021106 C43.5156471,22.6502979 43.7218478,22.3105444 44.0502728,22.1383906 C44.3786978,21.9662369 44.7754204,21.98995 45.081,22.2 C46.4052554,23.0079105 47.8675151,23.5639285 49.394,23.84 C52.703,24.427 55.931,23.473 58.994,21.016 C55.927,18.539 52.694,17.59 49.394,18.17 C48.8576959,18.250394 48.3550482,17.8886731 48.2609288,17.3546068 C48.1668094,16.8205404 48.5155227,16.3087828 49.047,16.201 C52.939,15.511 56.709,16.601 60.247,19.436 C60.7272223,19.8152899 61.0073752,20.393557 61.0073752,21.0055 C61.0073752,21.617443 60.7272223,22.1957101 60.247,22.575 C57.7532036,24.7224368 54.5902017,25.9357399 51.3,26.007 Z" id="Shape" fill="#000000"/><path d="M44.672,20.223 C44.1656691,20.2225044 43.7396089,19.8436387 43.6799456,19.3408351 C43.6202823,18.8380314 43.9458459,18.3699771 44.438,18.251 C45.94565,17.8892036 47.372676,17.2496193 48.646,16.365 C51.393,14.436 53.004,11.478 53.438,7.572 C49.525,7.994 46.567,9.605 44.638,12.355 C44.4381722,12.6597965 44.0883444,12.8317398 43.7249581,12.8037678 C43.3615717,12.7757958 43.0421802,12.5523388 42.8913541,12.2205504 C42.740528,11.888762 42.7821551,11.5011912 43,11.209 C45.4053336,7.91696566 49.1423386,5.8559397 53.21,5.578 C53.8158662,5.50794552 54.4205865,5.71817447 54.8523395,6.14895379 C55.2840926,6.5797331 55.4956864,7.18397715 55.427,7.79 C54.927,12.29 53.027,15.728 49.798,18.001 C48.3184226,19.0294923 46.6601035,19.7731925 44.908,20.194 C44.8308409,20.2134193 44.7515651,20.2231609 44.672,20.223 Z" id="Shape" fill="#000000"/><circle id="Oval" fill="#000000" cx="40.002" cy="21.003" r="1"/></g></g></svg>
