<?xml version="1.0" encoding="UTF-8"?>
<svg xmlns="http://www.w3.org/2000/svg" xmlns:xlink="http://www.w3.org/1999/xlink" width="512" height="512" viewBox="0 0 60 60" version="1.1"><!-- Generator: Sketch 51.3 (57544) - http://www.bohemiancoding.com/sketch --><title>078 - Depression</title><desc>Created with Sketch.</desc><defs/><g id="Page-1" stroke="none" stroke-width="1" fill="none" fill-rule="evenodd"><g id="078---Depression" transform="translate(-1.000000, 0.000000)" fill-rule="nonzero"><path d="M6.593,33.14 C6.593,33.79 6.573,34.42 6.533,35.04 C2.783,33.1 2.153,28.64 2.153,28.64 C2.153,28.64 1.533,22.85 2.792,22.22 C4.063,21.57 5.333,23.5 5.333,23.5 L5.412,23.49 C5.732,28.45 6.593,30.02 6.593,33.14 Z" id="Shape" fill="#283593"/><path d="M38.59,23.49 C38.27,28.45 37.41,30.02 37.41,33.14 C37.41,33.79 37.43,34.42 37.47,35.04 C37.63,38.76 37.91,42.14 33.85,46 C33.3674124,46.4546547 32.9100622,46.9353732 32.48,47.44 C29.06,51.41 28.6,55 24.37,55 L19.63,55 C15.4,55 14.94,51.41 11.52,47.44 C11.0899378,46.9353732 10.6325876,46.4546547 10.15,46 C6.09,42.14 6.37,38.76 6.53,35.04 C6.57,34.42 6.59,33.79 6.59,33.14 C6.59,30.02 5.73,28.45 5.41,23.49 C5.2465184,20.495563 5.2465184,17.494437 5.41,14.5 C5.95,2.75 18.37,1.2 20.5,1.02 C20.7,1 20.81,1 20.81,1 L23.19,1 C23.19,1 38,1.64 38.59,14.5 C38.7534816,17.494437 38.7534816,20.495563 38.59,23.49 Z" id="Shape" fill="#283593"/><path d="M35.59,23.49 C35.27,28.45 34.41,30.02 34.41,33.14 C34.41,33.79 34.43,34.42 34.47,35.04 C34.63,38.76 34.91,42.14 30.85,46 C30.3674124,46.4546547 29.9100622,46.9353732 29.48,47.44 C26.06,51.41 25.6,55 21.37,55 L19.63,55 C15.4,55 14.94,51.41 11.52,47.44 C11.0899378,46.9353732 10.6325876,46.4546547 10.15,46 C6.09,42.14 6.37,38.76 6.53,35.04 C6.57,34.42 6.59,33.79 6.59,33.14 C6.59,30.02 5.73,28.45 5.41,23.49 C5.2465184,20.495563 5.2465184,17.494437 5.41,14.5 C5.95,2.75 18.37,1.2 20.5,1.02 C22.63,1.2 35.05,2.75 35.59,14.5 C35.7534816,17.494437 35.7534816,20.495563 35.59,23.49 Z" id="Shape" fill="#3F51B5"/><path d="M32.482,47.44 L32.482,56.96 C32.4820138,58.060676 31.5926623,58.9544966 30.492,58.96 L13.513,58.96 C12.4123377,58.9544966 11.5229862,58.060676 11.523,56.96 L11.523,47.44 C14.943,51.41 15.403,55 19.633,55 L24.373,55 C28.6,55 29.063,51.41 32.482,47.44 Z" id="Shape" fill="#283593"/><path d="M50.5,28 L53.5,28 C56.9007633,27.9889421 59.718143,25.3583658 59.9621165,21.9663471 C60.20609,18.5743285 57.7941755,15.5676312 54.43,15.07 C56.3684699,12.2547104 56.5448307,8.58431036 54.8852143,5.59613461 C53.2255979,2.60795887 50.0164893,0.817829916 46.6020129,0.975537276 C43.1875364,1.13324464 40.1571032,3.21156467 38.78,6.34 C36.3514513,4.36477891 32.8119905,4.59059499 30.6541467,6.85842595 C28.4963029,9.12625691 28.4465829,12.6725654 30.54,15 L30.5,15 C26.9101491,15 24,17.9101491 24,21.5 C24,25.0898509 26.9101491,28 30.5,28 L50.5,28 Z" id="Shape" fill="#7F8E94"/><path d="M60,21.5 C60.0034603,23.2249657 59.3197521,24.8802774 58.1000147,26.1000147 C56.8802774,27.3197521 55.2249657,28.0034603 53.5,28 L50.5,28 C53.9007633,27.9889421 56.718143,25.3583658 56.9621165,21.9663471 C57.20609,18.5743285 54.7941755,15.5676312 51.43,15.07 C53.1609994,12.539705 53.4832386,9.3017311 52.2848753,6.47990949 C51.086512,3.65808788 48.5327707,1.64147733 45.51,1.13 C46.0015945,1.04080666 46.5003869,0.997287854 47,1 C50.3370528,0.997331552 53.4012088,2.84271632 54.9594909,5.79359506 C56.517773,8.74447379 56.3139355,12.3156007 54.43,15.07 C57.6261876,15.5320541 59.9984472,18.2705872 60,21.5 Z" id="Shape" fill="#545C60"/><path d="M54.29,33.71 L45,43 L45.2,41.37 L45.43,39.57 L45.86,36.12 C45.8942778,35.8364249 45.8056531,35.5517268 45.6164785,35.337711 C45.4273038,35.1236952 45.1556382,35.0007922 44.87,35 L41.43,35 C41.1041901,34.9998614 40.7988747,34.8410089 40.6117679,34.5742822 C40.4246611,34.3075555 40.3792246,33.9663999 40.49,33.66 L43.76,24.66 C43.9011572,24.2625332 44.2782177,23.9977886 44.7,24 L50.56,24 C50.8876745,23.9993611 51.194613,24.1602538 51.3805048,24.4300967 C51.5663966,24.6999396 51.6073571,25.0440616 51.49,25.35 L49.51,30.65 C49.3926429,30.9559384 49.4336034,31.3000604 49.6194952,31.5699033 C49.805387,31.8397462 50.1123255,32.0006389 50.44,32 L53.59,32 C53.9944441,32.0016958 54.3580455,32.2468472 54.5112679,32.6211476 C54.6644903,32.995448 54.5771614,33.4251909 54.29,33.71 Z" id="Shape" fill="#FEC108"/><path d="M51.29,33.71 L45.43,39.57 L45.86,36.12 C45.8942778,35.8364249 45.8056531,35.5517268 45.6164785,35.337711 C45.4273038,35.1236952 45.1556382,35.0007922 44.87,35 L41.43,35 C41.1041901,34.9998614 40.7988747,34.8410089 40.6117679,34.5742822 C40.4246611,34.3075555 40.3792246,33.9663999 40.49,33.66 L43.76,24.66 C43.9011572,24.2625332 44.2782177,23.9977886 44.7,24 L47.56,24 C47.8876745,23.9993611 48.194613,24.1602538 48.3805048,24.4300967 C48.5663966,24.6999396 48.6073571,25.0440616 48.49,25.35 L46.51,30.65 C46.3926429,30.9559384 46.4336034,31.3000604 46.6194952,31.5699033 C46.805387,31.8397462 47.1123255,32.0006389 47.44,32 L50.59,32 C50.9944441,32.0016958 51.3580455,32.2468472 51.5112679,32.6211476 C51.6644903,32.995448 51.5771614,33.4251909 51.29,33.71 Z" id="Shape" fill="#FFDC00"/><path d="M58,44 C58,45.6568542 56.6568542,47 55,47 C53.3431458,47 52,45.6568542 52,44 C52.2249204,42.8488242 52.7413795,41.7745892 53.5,40.88 C54.25,39.84 55,39 55,39 C55,39 58,42.34 58,44 Z" id="Shape" fill="#0377BC"/><path d="M46,54 C46,55.6568542 44.6568542,57 43,57 C41.3431458,57 40,55.6568542 40,54 C40.2249204,52.8488242 40.7413795,51.7745892 41.5,50.88 C42.25,49.84 43,49 43,49 C43,49 46,52.34 46,54 Z" id="Shape" fill="#0377BC"/><path d="M33,37 C33,38.6568542 31.6568542,40 30,40 C28.3431458,40 27,38.6568542 27,37 C27.2249204,35.8488242 27.7413795,34.7745892 28.5,33.88 C29.25,32.84 30,32 30,32 C30,32 33,35.34 33,37 Z" id="Shape" fill="#0377BC"/><path d="M55,44 C55.0006876,45.072484 54.4287987,46.0637581 53.5,46.6 C52.5712013,46.0637581 51.9993124,45.072484 52,44 C52.2249204,42.8488242 52.7413795,41.7745892 53.5,40.88 C54.2586205,41.7745892 54.7750796,42.8488242 55,44 Z" id="Shape" fill="#02A9F4"/><path d="M43,54 C43.0006876,55.072484 42.4287987,56.0637581 41.5,56.6 C40.5712013,56.0637581 39.9993124,55.072484 40,54 C40.2249204,52.8488242 40.7413795,51.7745892 41.5,50.88 C42.2586205,51.7745892 42.7750796,52.8488242 43,54 Z" id="Shape" fill="#02A9F4"/><path d="M30,37 C30.0006876,38.072484 29.4287987,39.0637581 28.5,39.6 C27.5712013,39.0637581 26.9993124,38.072484 27,37 C27.2249204,35.8488242 27.7413795,34.7745892 28.5,33.88 C29.2586205,34.7745892 29.7750796,35.8488242 30,37 Z" id="Shape" fill="#02A9F4"/><path d="M6.529,36.076 C6.36970273,36.0757464 6.21273817,36.0377047 6.071,35.965 C1.907,33.813 1.192,29.026 1.164,28.823 C0.842,25.835 0.788,22.147 2.34,21.365 C3.969,20.538 5.511,21.996 6.166,22.988 C6.45864172,23.4487382 6.32777555,24.0590241 5.87195367,24.359266 C5.41613178,24.659508 4.80375962,24.5387803 4.496,24.088 C4.206,23.655 3.637,23.088 3.307,23.128 C2.971,23.72 2.894,26.2 3.148,28.576 C3.148,28.576 3.759,32.517 6.989,34.186 C7.39851073,34.3980617 7.60990029,34.8626656 7.50073467,35.3107193 C7.39156905,35.7587729 6.99016073,36.0740722 6.529,36.074 L6.529,36.076 Z" id="Shape" fill="#000000"/><path d="M24.37,56.04 L19.63,56.04 C16.158,56.04 14.785,53.932 13.196,51.491 C12.1524813,49.7669775 10.8981461,48.1797429 9.462,46.766 C5.191,42.711 5.362,38.977 5.524,35.366 C5.557,34.651 5.59,33.925 5.59,33.181 C5.56909313,31.8555116 5.41871188,30.5352379 5.141,29.239 C4.664,26.618 4.013,23.026 4.411,14.494 C5.036,0.878 20.609,0.048 20.767,0.041 L23.19,0.041 C23.505,0.054 29.934,0.371 34.69,4.312 C35.1031461,4.66794734 35.1549302,5.28927694 34.8064069,5.70870481 C34.4578836,6.12813268 33.8375762,6.1909884 33.412,5.85 C29.187,2.35 23.212,2.042 23.146,2.039 L20.81,2.039 C20.286,2.063 6.949,2.804 6.41,14.585 C6.022,22.892 6.625,26.212 7.11,28.885 C7.41020531,30.2992344 7.57163752,31.7393972 7.592,33.185 C7.592,33.96 7.558,34.717 7.524,35.461 C7.361,39.055 7.232,41.894 10.841,45.319 C12.3883982,46.8408044 13.7425814,48.5473036 14.873,50.4 C16.516,52.925 17.339,54.041 19.63,54.041 L24.37,54.041 C26.661,54.041 27.484,52.925 29.127,50.4 C30.2577698,48.5457895 31.6126386,46.8379294 33.161,45.315 C36.77,41.89 36.641,39.051 36.478,35.457 C36.444,34.713 36.41,33.957 36.41,33.181 C36.4298556,31.7561655 36.5872527,30.3365776 36.88,28.942 C36.942,28.591 37.008,28.226 37.073,27.836 C37.164127,27.2911711 37.6796711,26.9233731 38.2245,27.0145001 C38.7693289,27.105627 39.1371269,27.6211711 39.046,28.166 C38.979,28.566 38.912,28.937 38.846,29.295 C38.5745821,30.5731275 38.4275628,31.8745335 38.407,33.181 C38.407,33.925 38.44,34.651 38.473,35.366 C38.637,38.978 38.806,42.712 34.535,46.766 C33.0985025,48.179684 31.8438293,49.7669212 30.8,51.491 C29.215,53.932 27.842,56.04 24.37,56.04 Z" id="Shape" fill="#000000"/><path d="M30.487,60 L13.513,60 C11.8561458,60 10.513,58.6568542 10.513,57 L10.513,47.48 C10.513,46.9277153 10.9607153,46.48 11.513,46.48 C12.0652847,46.48 12.513,46.9277153 12.513,47.48 L12.513,57 C12.513,57.5522847 12.9607153,58 13.513,58 L30.487,58 C31.0392847,58 31.487,57.5522847 31.487,57 L31.487,47.48 C31.487,46.9277153 31.9347153,46.4800001 32.487,46.4800001 C33.0392847,46.4800001 33.487,46.9277153 33.487,47.48 L33.487,57 C33.487,58.6568542 32.1438542,60 30.487,60 Z" id="Shape" fill="#000000"/><path d="M53.5,29 L50.5,29 C49.9477153,29 49.5,28.5522847 49.5,28 C49.5,27.4477153 49.9477153,27 50.5,27 L53.5,27 C56.3732761,26.9851718 58.7509548,24.7611346 58.9574014,21.8952464 C59.1638481,19.0293582 57.129485,16.4874958 54.288,16.061 C53.9452355,16.0122712 53.6520611,15.7897161 53.5129835,15.4726681 C53.373906,15.1556202 53.4087141,14.7891909 53.605,14.504 C54.5170008,13.1793626 55.00362,11.6082278 55,10 C54.9975494,6.22479828 52.3562686,2.96512497 48.6635932,2.1800756 C44.9709178,1.39502623 41.2320142,3.29829551 39.694,6.746 C39.5674904,7.03084616 39.3154025,7.24041852 39.0122421,7.312777 C38.7090816,7.38513548 38.3895181,7.31200514 38.148,7.115 C36.1248531,5.47186212 33.1783929,5.66047118 31.3812611,7.54815308 C29.5841293,9.43583498 29.5404724,12.3880028 31.281,14.328 C31.5469333,14.6210613 31.6150297,15.0433787 31.4546884,15.4051744 C31.2943471,15.7669701 30.935734,16.0001777 30.54,16 C28.5750392,15.9928547 26.7555286,17.0345462 25.7668602,18.7326795 C24.7781918,20.4308127 24.7705678,22.5274009 25.7468602,24.2326795 C26.7231526,25.9379581 28.5350392,26.9928547 30.5,27 L42.55,27 C43.1022847,27 43.55,27.4477153 43.55,28 C43.55,28.5522847 43.1022847,29 42.55,29 L30.5,29 C26.6922273,29.0017965 23.4874087,26.1499809 23.0468336,22.3677818 C22.6062585,18.5855828 25.0697671,15.0734836 28.776,14.2 C27.3671257,11.456249 27.9201187,8.11368643 30.1375902,5.96987748 C32.3550616,3.82606853 35.7143925,3.38627122 38.409,4.887 C41.1626585,0.289757365 47.0507711,-1.31966381 51.7600294,1.23771016 C56.4692877,3.79508414 58.325541,9.61010173 55.969,14.423 C59.4164357,15.6326056 61.4906843,19.1503167 60.8805598,22.7524976 C60.2704353,26.3546784 57.1534793,28.9931219 53.5,29 Z" id="Shape" fill="#000000"/><path d="M49,17 C48.4477153,17 48,16.5522847 48,16 C48,13.790861 46.209139,12 44,12 C43.4477153,12 43,11.5522847 43,11 C43,10.4477153 43.4477153,10 44,10 C47.3123376,10.0033074 49.9966926,12.6876624 50,16 C50,16.5522847 49.5522847,17 49,17 Z" id="Shape" fill="#000000"/><path d="M35,21 C34.4477153,21 34,20.5522847 34,20 C34,17.790861 35.790861,16 38,16 C38.5522847,16 39,16.4477153 39,17 C39,17.5522847 38.5522847,18 38,18 C36.8954305,18 36,18.8954305 36,20 C36,20.5522847 35.5522847,21 35,21 Z" id="Shape" fill="#000000"/><path d="M45,44 C44.8479205,44.0008984 44.6976865,43.9666765 44.561,43.9 C44.1773406,43.7123733 43.9551825,43.3018025 44.008,42.878 L44.867,36 L41.428,36 C40.775549,35.9998695 40.1641762,35.6814966 39.7899934,35.1470067 C39.4158106,34.6125167 39.3258618,33.9291081 39.549,33.316 L42.82,24.316 C43.1090964,23.5268061 43.859523,23.0015074 44.7,23 L50.557,23 C51.2124465,23.0001637 51.8262159,23.3214787 52.1998106,23.8600297 C52.5734054,24.3985806 52.6594063,25.0860106 52.43,25.7 L50.443,31 L53.586,31 C54.3947918,31.0001727 55.1238681,31.487455 55.433356,32.2346909 C55.7428438,32.9819268 55.5718158,33.8420115 55,34.414 L45.707,43.707 C45.5195073,43.8945494 45.2651948,43.9999434 45,44 Z M44.7,25 L41.428,34 L44.867,34 C45.4409232,33.9998391 45.9872586,34.2462426 46.3670419,34.6765361 C46.7468252,35.1068297 46.9234535,35.6795421 46.852,36.249 L46.352,40.232 L53.586,33 L50.443,33 C49.7875535,32.9998363 49.1737841,32.6785213 48.8001894,32.1399703 C48.4265946,31.6014194 48.3405937,30.9139894 48.57,30.3 L50.557,25 L44.7,25 Z" id="Shape" fill="#000000"/><path d="M55,48 C52.790861,48 51,46.209139 51,44 C51,42.059 53.712,38.938 54.256,38.332 C54.4507188,38.1298432 54.7193173,38.0156261 55,38.0156261 C55.2806827,38.0156261 55.5492812,38.1298432 55.744,38.332 C56.288,38.938 59,42.059 59,44 C59,46.209139 57.209139,48 55,48 Z M55,40.549 C53.939,41.874 53,43.362 53,44 C53,45.1045695 53.8954305,46 55,46 C56.1045695,46 57,45.1045695 57,44 C57,43.381 56.062,41.881 55,40.549 Z" id="Shape" fill="#000000"/><path d="M43,58 C40.790861,58 39,56.209139 39,54 C39,52.059 41.712,48.938 42.256,48.332 C42.4507188,48.1298432 42.7193173,48.0156261 43,48.0156261 C43.2806827,48.0156261 43.5492812,48.1298432 43.744,48.332 C44.288,48.938 47,52.059 47,54 C47,56.209139 45.209139,58 43,58 Z M43,50.549 C41.939,51.874 41,53.362 41,54 C41,55.1045695 41.8954305,56 43,56 C44.1045695,56 45,55.1045695 45,54 C45,53.381 44.062,51.881 43,50.549 Z" id="Shape" fill="#000000"/><path d="M30,41 C27.790861,41 26,39.209139 26,37 C26,35.059 28.712,31.938 29.256,31.332 C29.4507188,31.1298432 29.7193173,31.0156261 30,31.0156261 C30.2806827,31.0156261 30.5492812,31.1298432 30.744,31.332 C31.288,31.938 34,35.059 34,37 C34,39.209139 32.209139,41 30,41 Z M30,33.549 C28.939,34.874 28,36.362 28,37 C28,38.1045695 28.8954305,39 30,39 C31.1045695,39 32,38.1045695 32,37 C32,36.381 31.062,34.881 30,33.549 Z" id="Shape" fill="#000000"/></g></g></svg>
