<?xml version="1.0" encoding="UTF-8"?>
<svg xmlns="http://www.w3.org/2000/svg" xmlns:xlink="http://www.w3.org/1999/xlink" width="512" height="512" viewBox="0 0 60 60" version="1.1"><!-- Generator: Sketch 51.3 (57544) - http://www.bohemiancoding.com/sketch --><title>079 - Perfectionist</title><desc>Created with Sketch.</desc><defs/><g id="Page-1" stroke="none" stroke-width="1" fill="none" fill-rule="evenodd"><g id="079---Perfectionist" transform="translate(-1.000000, 0.000000)" fill-rule="nonzero"><path d="M6.593,33.14 C6.593,33.79 6.573,34.42 6.533,35.04 C2.783,33.1 2.153,28.64 2.153,28.64 C2.153,28.64 1.533,22.85 2.792,22.22 C4.063,21.57 5.333,23.5 5.333,23.5 L5.412,23.49 C5.732,28.45 6.593,30.02 6.593,33.14 Z" id="Shape" fill="#FF9801"/><path d="M38.59,23.49 C38.27,28.45 37.41,30.02 37.41,33.14 C37.41,33.79 37.43,34.42 37.47,35.04 C37.63,38.76 37.91,42.14 33.85,46 C33.3674124,46.4546547 32.9100622,46.9353732 32.48,47.44 C29.06,51.41 28.6,55 24.37,55 L19.63,55 C15.4,55 14.94,51.41 11.52,47.44 C11.0899378,46.9353732 10.6325876,46.4546547 10.15,46 C6.09,42.14 6.37,38.76 6.53,35.04 C6.57,34.42 6.59,33.79 6.59,33.14 C6.59,30.02 5.73,28.45 5.41,23.49 C5.2465184,20.495563 5.2465184,17.494437 5.41,14.5 C5.95,2.75 18.37,1.2 20.5,1.02 C20.7,1 20.81,1 20.81,1 L23.19,1 C23.19,1 38,1.64 38.59,14.5 C38.7534816,17.494437 38.7534816,20.495563 38.59,23.49 Z" id="Shape" fill="#FEC108"/><path d="M35.59,23.49 C35.27,28.45 34.41,30.02 34.41,33.14 C34.41,33.79 34.43,34.42 34.47,35.04 C34.63,38.76 34.91,42.14 30.85,46 C30.3674124,46.4546547 29.9100622,46.9353732 29.48,47.44 C26.06,51.41 25.6,55 21.37,55 L19.63,55 C15.4,55 14.94,51.41 11.52,47.44 C11.0899378,46.9353732 10.6325876,46.4546547 10.15,46 C6.09,42.14 6.37,38.76 6.53,35.04 C6.57,34.42 6.59,33.79 6.59,33.14 C6.59,30.02 5.73,28.45 5.41,23.49 C5.2465184,20.495563 5.2465184,17.494437 5.41,14.5 C5.95,2.75 18.37,1.2 20.5,1.02 C22.63,1.2 35.05,2.75 35.59,14.5 C35.7534816,17.494437 35.7534816,20.495563 35.59,23.49 Z" id="Shape" fill="#FFDC00"/><path d="M32.482,47.44 L32.482,56.96 C32.4820138,58.060676 31.5926623,58.9544966 30.492,58.96 L13.513,58.96 C12.4123377,58.9544966 11.5229862,58.060676 11.523,56.96 L11.523,47.44 C14.943,51.41 15.403,55 19.633,55 L24.373,55 C28.6,55 29.063,51.41 32.482,47.44 Z" id="Shape" fill="#FF9801"/><path d="M60,8 C54,8 54,2 54,2 C54,2 54,8 48,8 L33,8 L26,16 L43,37 L60,16 L55.1,10.4 C56.1820744,8.77610428 58.053682,7.85939852 60,8 Z" id="Shape" fill="#B0D3F0"/><polygon id="Shape" fill="#0377BC" points="60 16 43 37 44.64 31.27 49 16"/><polygon id="Shape" fill="#02A9F4" points="57 16 44.64 31.27 49 16"/><polygon id="Shape" fill="#02A9F4" points="43 37 26 16 37 16"/><polygon id="Shape" fill="#02A9F4" points="37 16 26 16 33 8"/><polygon id="Shape" fill="#00BCD4" points="43 8 37 16 33 8"/><path d="M60,16 L49,16 L52.22,9.56 C53.3226419,10.7811153 53.9537626,12.3553712 54,14 C54.0453213,12.724417 54.424623,11.483066 55.1,10.4 L60,16 Z" id="Shape" fill="#02A9F4"/><polygon id="Shape" fill="#02A9F4" points="49 16 37 16 43 8"/><polygon id="Shape" fill="#3F51B5" points="49 16 43 37 37 16"/><path d="M52.22,9.56 L49,16 L43,8 L48,8 C49.5613366,7.91757547 51.0877006,8.48182377 52.22,9.56 Z" id="Shape" fill="#00BCD4"/><path d="M60,8 C58.053682,7.85939852 56.1820744,8.77610428 55.1,10.4 C54.424623,11.483066 54.0453213,12.724417 54,14 C53.9537626,12.3553712 53.3226419,10.7811153 52.22,9.56 C51.0877006,8.48182377 49.5613366,7.91757547 48,8 C54,8 54,2 54,2 C54,2 54,8 60,8 Z" id="Shape" fill="#00BCD4"/><path d="M6.529,36.076 C6.36970273,36.0757464 6.21273817,36.0377047 6.071,35.965 C1.907,33.813 1.192,29.026 1.164,28.823 C0.842,25.835 0.788,22.147 2.34,21.365 C3.969,20.538 5.511,21.996 6.166,22.988 C6.45864172,23.4487382 6.32777555,24.0590241 5.87195367,24.359266 C5.41613178,24.659508 4.80375962,24.5387803 4.496,24.088 C4.206,23.655 3.624,23.088 3.307,23.128 C2.971,23.72 2.894,26.2 3.148,28.576 C3.148,28.576 3.759,32.517 6.989,34.186 C7.39851073,34.3980617 7.60990029,34.8626656 7.50073467,35.3107193 C7.39156905,35.7587729 6.99016073,36.0740722 6.529,36.074 L6.529,36.076 Z" id="Shape" fill="#000000"/><path d="M24.37,56.04 L19.63,56.04 C16.158,56.04 14.785,53.932 13.196,51.491 C12.1524813,49.7669775 10.8981461,48.1797429 9.462,46.766 C5.191,42.711 5.362,38.977 5.524,35.366 C5.557,34.651 5.59,33.925 5.59,33.181 C5.56909313,31.8555116 5.41871188,30.5352379 5.141,29.239 C4.664,26.618 4.013,23.026 4.411,14.494 C5.036,0.878 20.609,0.048 20.767,0.041 L23.19,0.041 C23.634,0.06 33.097,0.541 37.475,7.467 C37.6782331,7.76909094 37.7012174,8.15776853 37.5350044,8.48170658 C37.3687915,8.80564463 37.0396503,9.01364624 36.6757276,9.02472889 C36.3118048,9.03581154 35.9706167,8.84822367 35.785,8.535 C31.972,2.507 23.234,2.044 23.146,2.035 L20.81,2.035 C20.286,2.059 6.949,2.8 6.41,14.581 C6.022,22.888 6.625,26.208 7.11,28.881 C7.41020531,30.2952344 7.57163752,31.7353972 7.592,33.181 C7.592,33.956 7.558,34.713 7.524,35.457 C7.361,39.051 7.232,41.89 10.841,45.315 C12.388659,46.8380459 13.7428521,48.545901 14.873,50.4 C16.516,52.925 17.339,54.041 19.63,54.041 L24.37,54.041 C26.661,54.041 27.484,52.925 29.127,50.4 C30.2577698,48.5457895 31.6126386,46.8379294 33.161,45.315 C36.77,41.89 36.641,39.051 36.478,35.457 C36.444,34.713 36.41,33.957 36.41,33.181 C36.4146935,32.1939821 36.4949278,31.2087712 36.65,30.234 C36.6851588,29.9698971 36.8258064,29.7313019 37.0398537,29.5726506 C37.2539011,29.4139994 37.5230884,29.348826 37.786,29.392 C38.3321232,29.4727779 38.7094704,29.9808314 38.629,30.527 C38.4890001,31.4048568 38.4157901,32.2920686 38.41,33.181 C38.41,33.925 38.443,34.651 38.476,35.366 C38.64,38.978 38.809,42.712 34.538,46.766 C33.1004483,48.1795072 31.8447613,49.766752 30.8,51.491 C29.215,53.932 27.842,56.04 24.37,56.04 Z" id="Shape" fill="#000000"/><path d="M30.487,60 L13.513,60 C11.8561458,60 10.513,58.6568542 10.513,57 L10.513,47.48 C10.513,46.9277153 10.9607153,46.48 11.513,46.48 C12.0652847,46.48 12.513,46.9277153 12.513,47.48 L12.513,57 C12.513,57.5522847 12.9607153,58 13.513,58 L30.487,58 C31.0392847,58 31.487,57.5522847 31.487,57 L31.487,47.48 C31.487,46.9277153 31.9347153,46.4800001 32.487,46.4800001 C33.0392847,46.4800001 33.487,46.9277153 33.487,47.48 L33.487,57 C33.487,58.6568542 32.1438542,60 30.487,60 Z" id="Shape" fill="#000000"/><path d="M43,38 C42.6982951,37.9998777 42.4127724,37.8635471 42.223,37.629 L25.223,16.629 C24.9171271,16.2511888 24.9272538,15.7081447 25.247,15.342 L32.247,7.342 C32.4368924,7.12468639 32.7114098,7.00000517 33,7 L48,7 C48.5522847,7 49,7.44771525 49,8 C49,8.55228475 48.5522847,9 48,9 L33.454,9 L27.307,16.025 L43,35.411 L58.693,16.025 L54.347,11.059 C54.1117406,10.789979 54.0378729,10.415884 54.1532222,10.0776329 C54.2685716,9.73938175 54.5556135,9.48836296 54.9062223,9.41913285 C55.256831,9.34990273 55.6177406,9.472979 55.853,9.742 L60.753,15.342 C61.0727462,15.7081447 61.0828729,16.2511888 60.777,16.629 L43.777,37.629 C43.5872276,37.8635471 43.3017049,37.9998777 43,38 Z" id="Shape" fill="#000000"/><path d="M60,17 L26,17 C25.4477153,17 25,16.5522847 25,16 C25,15.4477153 25.4477153,15 26,15 L60,15 C60.5522847,15 61,15.4477153 61,16 C61,16.5522847 60.5522847,17 60,17 Z" id="Shape" fill="#000000"/><path d="M49,17 C48.6852427,17 48.3888544,16.8518058 48.2,16.6 L43,9.667 L37.8,16.6 C37.5952512,16.881718 37.2566074,17.0339175 36.91,17 C36.5664703,16.9672914 36.2640789,16.7597753 36.11,16.451 L32.11,8.451 C31.8631287,7.95670515 32.0637051,7.35587128 32.558,7.109 C33.0522949,6.86212872 33.6531287,7.06270515 33.9,7.557 L37.176,14.109 L42.2,7.4 C42.3967934,7.1608292 42.6902738,7.02225223 43,7.02225223 C43.3097262,7.02225223 43.6032066,7.1608292 43.8,7.4 L48.829,14.105 L51.329,9.112 C51.4888763,8.79242592 51.8070989,8.5824203 52.1637964,8.56109024 C52.5204938,8.53976019 52.8614753,8.71034623 53.0582964,9.00859025 C53.2551175,9.30683428 53.2778764,9.68742593 53.118,10.007 L49.9,16.447 C49.7459211,16.7557753 49.4435297,16.9632914 49.1,16.996 C49.06,17 49.029,17 49,17 Z" id="Shape" fill="#000000"/><path d="M43,38 C42.5531414,38.0001208 42.1604392,37.7037572 42.038,37.274 L36.038,16.274 C35.9401092,15.9303105 36.0330106,15.5605042 36.281709,15.3038836 C36.5304075,15.0472629 36.8971198,14.9428147 37.243709,15.0298836 C37.5902983,15.1169524 37.8641092,15.3823105 37.962,15.726 L43,33.36 L48.038,15.726 C48.189326,15.1947021 48.7427021,14.886674 49.274,15.038 C49.8052979,15.189326 50.113326,15.7427021 49.962,16.274 L43.962,37.274 C43.8395608,37.7037572 43.4468586,38.0001208 43,38 Z" id="Shape" fill="#000000"/><path d="M54,15 C53.4477153,15 53,14.5522847 53,14 C53,13.491 52.824,9 48,9 C47.4477153,9 47,8.55228475 47,8 C47,7.44771525 47.4477153,7 48,7 C52.943,7 53,2.2 53,2 C53,1.44771525 53.4477153,1 54,1 C54.5522847,1 55,1.44771525 55,2 C55,2.509 55.176,7 60,7 C60.5522847,7 61,7.44771525 61,8 C61,8.55228475 60.5522847,9 60,9 C55.057,9 55,13.8 55,14 C55,14.5522847 54.5522847,15 54,15 Z M51.867,8 C52.7563926,8.55765966 53.4901763,9.33134909 54,10.249 C54.5098237,9.33134909 55.2436074,8.55765966 56.133,8 C55.2436074,7.44234034 54.5098237,6.66865091 54,5.751 C53.4901763,6.66865091 52.7563926,7.44234034 51.867,8 Z" id="Shape" fill="#000000"/></g></g></svg>
