<?xml version="1.0" encoding="UTF-8"?>
<svg xmlns="http://www.w3.org/2000/svg" xmlns:xlink="http://www.w3.org/1999/xlink" width="512" height="512" viewBox="0 0 60 60" version="1.1"><!-- Generator: Sketch 51.3 (57544) - http://www.bohemiancoding.com/sketch --><title>081 - Imagination</title><desc>Created with Sketch.</desc><defs/><g id="Page-1" stroke="none" stroke-width="1" fill="none" fill-rule="evenodd"><g id="081---Imagination" transform="translate(-1.000000, -1.000000)" fill-rule="nonzero"><path d="M41.21,23.26 C39.94,22.61 38.67,24.54 38.67,24.54 L38.59,24.53 C38.7534816,21.535563 38.7534816,18.534437 38.59,15.54 C38,2.68 23.19,2.04 23.19,2.04 L20.81,2.04 C20.81,2.04 6,2.68 5.41,15.54 C5.2465184,18.534437 5.2465184,21.535563 5.41,24.53 L5.33,24.54 C5.33,24.54 4.06,22.61 2.79,23.26 C1.53,23.89 2.15,29.68 2.15,29.68 C2.15,29.68 2.78,34.14 6.53,36.08 C6.37,39.8 6.09,43.18 10.15,47.04 C10.6325876,47.4946547 11.0899378,47.9753732 11.52,48.48 L11.52,58 C11.5199862,59.100676 12.4093377,59.9944966 13.51,60 L30.49,60 C31.5906623,59.9944966 32.4800138,59.100676 32.48,58 L32.48,48.48 C32.9100622,47.9753732 33.3674124,47.4946547 33.85,47.04 C37.91,43.18 37.63,39.8 37.47,36.08 C41.22,34.14 41.85,29.68 41.85,29.68 C41.85,29.68 42.47,23.89 41.21,23.26 Z" id="Shape" fill="#2FA8CC"/><path d="M6.59,34.18 C6.59,34.83 6.57,35.46 6.53,36.08 C2.78,34.14 2.15,29.68 2.15,29.68 C2.15,29.68 1.53,23.89 2.79,23.26 C4.06,22.61 5.33,24.54 5.33,24.54 L5.41,24.53 C5.73,29.49 6.59,31.06 6.59,34.18 Z" id="Shape" fill="#3F51B5"/><path d="M38.59,24.53 C38.27,29.49 37.41,31.06 37.41,34.18 C37.41,34.83 37.43,35.46 37.47,36.08 C37.63,39.8 37.91,43.18 33.85,47.04 C33.3674124,47.4946547 32.9100622,47.9753732 32.48,48.48 C29.06,52.45 28.6,56.04 24.37,56.04 L19.63,56.04 C15.4,56.04 14.94,52.45 11.52,48.48 C11.0899378,47.9753732 10.6325876,47.4946547 10.15,47.04 C6.09,43.18 6.37,39.8 6.53,36.08 C6.57,35.46 6.59,34.83 6.59,34.18 C6.59,31.06 5.73,29.49 5.41,24.53 C5.2465184,21.535563 5.2465184,18.534437 5.41,15.54 C5.95,3.79 18.37,2.24 20.5,2.06 C20.7,2.04 20.81,2.04 20.81,2.04 L23.19,2.04 C23.19,2.04 38,2.68 38.59,15.54 C38.7534816,18.534437 38.7534816,21.535563 38.59,24.53 Z" id="Shape" fill="#0377BC"/><path d="M35.59,24.53 C35.27,29.49 34.41,31.06 34.41,34.18 C34.41,34.83 34.43,35.46 34.47,36.08 C34.63,39.8 34.91,43.18 30.85,47.04 C30.3674124,47.4946547 29.9100622,47.9753732 29.48,48.48 C26.06,52.45 25.6,56.04 21.37,56.04 L19.63,56.04 C15.4,56.04 14.94,52.45 11.52,48.48 C11.0899378,47.9753732 10.6325876,47.4946547 10.15,47.04 C6.09,43.18 6.37,39.8 6.53,36.08 C6.57,35.46 6.59,34.83 6.59,34.18 C6.59,31.06 5.73,29.49 5.41,24.53 C5.2465184,21.535563 5.2465184,18.534437 5.41,15.54 C5.95,3.79 18.37,2.24 20.5,2.06 C22.63,2.24 35.05,3.79 35.59,15.54 C35.7534816,18.534437 35.7534816,21.535563 35.59,24.53 Z" id="Shape" fill="#02A9F4"/><path d="M41.852,29.68 C41.852,29.68 41.222,34.14 37.472,36.08 C37.433,35.46 37.412,34.83 37.412,34.18 C37.412,31.06 38.273,29.49 38.593,24.53 L38.672,24.54 C38.672,24.54 39.943,22.61 41.213,23.26 C42.472,23.89 41.852,29.68 41.852,29.68 Z" id="Shape" fill="#F29C1F"/><path d="M32.482,48.48 L32.482,58 C32.4820138,59.100676 31.5926623,59.9944966 30.492,60 L13.513,60 C12.4123377,59.9944966 11.5229862,59.100676 11.523,58 L11.523,48.48 C14.943,52.45 15.403,56.04 19.633,56.04 L24.373,56.04 C28.6,56.04 29.063,52.45 32.482,48.48 Z" id="Shape" fill="#3F51B5"/><path d="M21,32 C20.9960001,33.3273046 21.5214997,34.6013996 22.4600501,35.5399499 C23.3986004,36.4785003 24.6726954,37.0039999 26,37 L47,37 C49.0222438,36.9977618 50.8445312,35.7790338 51.6188993,33.9109255 C52.3932674,32.0428171 51.9676109,29.8922716 50.54,28.46 C50.0864203,28.0176297 49.5583191,27.6587916 48.98,27.4 C48.9968861,27.2673743 49.0035724,27.1336486 49,27 C49.0011619,24.0729672 46.8867789,21.5737665 44,21.09 L44,21 C43.992997,17.4981812 41.3993517,14.5403126 37.9284651,14.0758448 C34.4575786,13.6113771 31.1774829,15.7832324 30.25,19.16 C29.8423839,19.0509026 29.4219534,18.9970875 29,19 C27.085845,19.0003409 25.3398748,20.0934728 24.5034745,21.8152231 C23.6670742,23.5369734 23.8870521,25.5851333 25.07,27.09 C22.7086452,27.534172 20.9985305,29.5972342 21,32 Z" id="Shape" fill="#F5F5F5"/><path d="M52,36 L51.38,38.49 C51.1580765,39.3799324 50.3571798,40.0033108 49.44,40 L44.56,40 C43.6428202,40.0033108 42.8419235,39.3799324 42.62,38.49 L42,36 L52,36 Z" id="Shape" fill="#6D4122"/><polygon id="Shape" fill="#783E22" points="53 32 52 36 42 36 41 32"/><path d="M49,36 L48.38,38.49 C48.1580765,39.3799324 47.3571798,40.0033108 46.44,40 L44.56,40 C43.6428202,40.0033108 42.8419235,39.3799324 42.62,38.49 L42,36 L49,36 Z" id="Shape" fill="#91562D"/><polygon id="Shape" fill="#A0522D" points="50 32 49 36 42 36 41 32"/><path d="M46.5,2.05 C46.2065736,2.09109896 45.9224192,2.1824343 45.66,2.32 C45.9260397,2.19127022 46.2087795,2.10038957 46.5,2.05 Z" id="Shape" fill="#E64C3C"/><path d="M45.38,2.47 C45.4244371,2.43960829 45.471256,2.41285467 45.52,2.39 C45.55,2.37 45.57,2.36 45.6,2.34 C45.52,2.38 45.45,2.42 45.37,2.47 L45.38,2.47 Z" id="Shape" fill="#E64C3C"/><path d="M34,15 C33.9929626,18.3580233 35.295133,21.5865448 37.63,24 L56.37,24 C59.8546874,20.3802243 60.9381012,15.0748334 59.1516192,10.3786323 C57.3651372,5.68243122 53.0294793,2.43850956 48.02,2.05 C53.06,2.51 57,6.34 57,11 C56.9483293,14.0432164 55.3202,16.841327 52.7,18.39 C49.2028474,20.5355257 44.7971526,20.5355257 41.3,18.39 C38.6798,16.841327 37.0516707,14.0432164 37,11 C37,6.34 40.94,2.51 45.98,2.05 C39.2169755,2.57452725 33.9974527,8.21666578 34,15 Z" id="Shape" fill="#C81E1E"/><path d="M44.83,2.85 C44.8675333,2.81684468 44.9076616,2.78674847 44.95,2.76 C45,2.72 45.06,2.68 45.11,2.64 C45.11,2.64 45.11,2.63 45.1,2.64 C45.02,2.7 44.93,2.77 44.83,2.85 Z" id="Shape" fill="#E64C3C"/><path d="M43.34,4.6 C43.4041597,4.489613 43.4742628,4.38278925 43.55,4.28 L43.55,4.27 C43.55,4.27552285 43.5455228,4.28 43.54,4.28 C43.47,4.39 43.41,4.49 43.34,4.6 Z" id="Shape" fill="#E64C3C"/><path d="M41.3,18.39 C41.5701122,20.3502383 42.1791932,22.2485407 43.1,24 L50.9,24 C51.8208068,22.2485407 52.4298878,20.3502383 52.7,18.39 C49.2028474,20.5355257 44.7971526,20.5355257 41.3,18.39 Z" id="Shape" fill="#CFD8DC"/><path d="M41,14.5 C40.9953936,15.8026183 41.095718,17.1034914 41.3,18.39 C44.7971526,20.5355257 49.2028474,20.5355257 52.7,18.39 C52.904282,17.1034914 53.0046064,15.8026183 53,14.5 C53,7.7 50.39,2.17 47.15,2.01 C47.1004557,2.00169786 47.0502079,1.99834802 47,2 C46.9365024,1.99834111 46.8729727,2.00168478 46.81,2.01 C46.7056313,2.01346356 46.6018295,2.02685734 46.5,2.05 C46.2087795,2.10038957 45.9260397,2.19127022 45.66,2.32 C45.64,2.33 45.62,2.33 45.61,2.34 L45.6,2.34 C45.57,2.36 45.55,2.37 45.52,2.39 C45.471256,2.41285467 45.4244371,2.43960829 45.38,2.47 L45.37,2.47 C45.2803082,2.52189946 45.1935128,2.57865034 45.11,2.64 C45.11,2.64 45.11,2.63 45.1,2.64 C45.0476065,2.67691278 44.9975135,2.7169872 44.95,2.76 C44.9076616,2.78674847 44.8675333,2.81684468 44.83,2.85 C44.74,2.92 44.65,3 44.56,3.08 C44.47,3.16 44.39,3.25 44.3,3.34 C44.1107107,3.53904861 43.9337166,3.74943787 43.77,3.97 C43.7,4.06 43.62,4.16 43.55,4.27 L43.55,4.28 L43.54,4.28 C43.47,4.39 43.41,4.49 43.34,4.6 C43.27,4.71 43.19,4.84 43.12,4.97 C43.07,5.06 43.02,5.15 42.97,5.25 C42.9,5.38 42.83,5.52 42.76,5.66 C42.71,5.76 42.66,5.87 42.62,5.97 C42.53,6.16 42.45,6.35 42.37,6.55 C42.35,6.6 42.33,6.65 42.31,6.71 C42.25,6.87 42.18,7.03 42.13,7.2 C41.8499013,8.01707453 41.626045,8.85235909 41.46,9.7 C41.43,9.87 41.39,10.05 41.36,10.23 C41.33,10.41 41.3,10.6 41.27,10.78 C41.21,11.19 41.16,11.6 41.12,12.02 C41.1,12.22 41.08,12.42 41.07,12.62 C41.06,12.82 41.04,13.03 41.03,13.24 C41.01,13.66 41,14.08 41,14.5 Z" id="Shape" fill="#F5F5F5"/><path d="M53,14.5 C53.0046064,15.8026183 52.904282,17.1034914 52.7,18.39 C55.3202,16.841327 56.9483293,14.0432164 57,11 C57,6.34 53.06,2.51 48.02,2.05 C47.8876381,2.02971436 47.7539069,2.01968452 47.62,2.02 C47.4640109,2.00168271 47.306627,1.99833411 47.15,2.01 C50.39,2.17 53,7.7 53,14.5 Z" id="Shape" fill="#F44335"/><path d="M37,11 C37.0516707,14.0432164 38.6798,16.841327 41.3,18.39 C41.095718,17.1034914 40.9953936,15.8026183 41,14.5 C41,14.08 41.01,13.66 41.03,13.24 C41.04,13.03 41.05,12.82 41.07,12.62 C41.09,12.42 41.1,12.22 41.12,12.02 C41.16,11.6 41.21,11.19 41.27,10.78 C41.3,10.6 41.33,10.41 41.36,10.23 C41.39,10.05 41.42,9.88 41.46,9.7 C41.626045,8.85235909 41.8499013,8.01707453 42.13,7.2 C42.19,7.03 42.25,6.87 42.31,6.71 C42.33,6.65 42.35,6.6 42.37,6.55 C42.45,6.35 42.53,6.16 42.62,5.97 C42.66,5.87 42.71,5.76 42.76,5.66 C42.83,5.52 42.89,5.38 42.97,5.25 C43.02,5.15 43.07,5.06 43.12,4.97 C43.19,4.84 43.26,4.72 43.34,4.6 C43.42,4.48 43.47,4.39 43.54,4.28 C43.5455228,4.28 43.55,4.27552285 43.55,4.27 C43.62,4.17 43.69,4.07 43.77,3.97 C43.9337166,3.74943787 44.1107107,3.53904861 44.3,3.34 C44.381594,3.24840492 44.4684049,3.16159399 44.56,3.08 C44.6423707,2.99480398 44.7327921,2.91777839 44.83,2.85 C44.93,2.77 45.02,2.7 45.1,2.64 C45.11,2.63 45.11,2.64 45.11,2.64 C45.1935128,2.57865034 45.2803082,2.52189946 45.37,2.47 C45.45,2.42 45.52,2.38 45.6,2.34 L45.61,2.34 C45.63,2.33 45.64,2.32 45.66,2.32 C45.9224192,2.1824343 46.2065736,2.09109896 46.5,2.05 C46.6018295,2.02685734 46.7056313,2.01346356 46.81,2.01 C46.6666072,2.00344733 46.5229332,2.00678858 46.38,2.02 C46.2460931,2.01968452 46.1123619,2.02971436 45.98,2.05 C40.94,2.51 37,6.34 37,11 Z" id="Shape" fill="#F44335"/><path d="M6.53,37.076 C6.37067056,37.0760148 6.21364387,37.0379581 6.072,36.965 C1.907,34.813 1.192,30.026 1.164,29.823 C0.842,26.835 0.788,23.147 2.339,22.365 C3.967,21.54 5.511,22.996 6.166,23.988 C6.45864172,24.4487382 6.32777555,25.0590241 5.87195367,25.359266 C5.41613178,25.659508 4.80375962,25.5387803 4.496,25.088 C4.205,24.654 3.609,24.11 3.307,24.128 C2.97,24.72 2.894,27.2 3.148,29.576 C3.148,29.576 3.759,33.517 6.99,35.186 C7.39951073,35.3980617 7.61090029,35.8626656 7.50173467,36.3107193 C7.39256905,36.7587729 6.99116073,37.0740722 6.53,37.074 L6.53,37.076 Z" id="Shape" fill="#000000"/><path d="M24.37,57.04 L19.63,57.04 C16.158,57.04 14.786,54.933 13.197,52.491 C12.152706,50.7669717 10.8977094,49.1797503 9.461,47.766 C5.191,43.711 5.361,39.977 5.524,36.366 C5.557,35.651 5.59,34.925 5.59,34.181 C5.56909313,32.8555116 5.41871188,31.5352379 5.141,30.239 C4.665,27.617 4.013,24.026 4.411,15.494 C5.036,1.878 20.61,1.048 20.767,1.041 L23.19,1.041 C23.59,1.058 32.16,1.491 36.79,7.48 C37.0320129,7.76036524 37.0992462,8.15153163 36.9647346,8.49661357 C36.830223,8.84169551 36.5159985,9.08417111 36.1480875,9.12679037 C35.7801765,9.16940963 35.4188401,9.00519182 35.209,8.7 C31.154,3.458 23.226,3.043 23.146,3.039 L20.81,3.039 C20.287,3.063 6.949,3.804 6.41,15.585 C6.022,23.891 6.625,27.212 7.11,29.885 C7.41069164,31.2991556 7.57212921,32.7393663 7.592,34.185 C7.592,34.96 7.558,35.717 7.524,36.461 C7.361,40.056 7.232,42.895 10.84,46.319 C12.387927,47.8408441 13.742768,49.5473258 14.874,51.4 C16.517,53.924 17.339,55.04 19.63,55.04 L24.37,55.04 C26.661,55.04 27.483,53.924 29.126,51.4 C30.2575158,49.5454611 31.6130448,47.8372796 33.162,46.314 C36.488,43.148 36.644,40.475 36.501,37.042 C36.48962,36.7768879 36.5840771,36.5181228 36.7635717,36.3226858 C36.9430662,36.1272487 37.1928788,36.0111662 37.458,36 C37.7242166,35.9839016 37.9855304,36.0767767 38.181873,36.2572761 C38.3782155,36.4377755 38.4926965,36.6903716 38.499,36.957 C38.654,40.657 38.462,44.03 34.54,47.764 C33.101784,49.1781626 31.8454338,50.7660683 30.8,52.491 C29.214,54.933 27.842,57.04 24.37,57.04 Z" id="Shape" fill="#000000"/><path d="M30.487,61 L13.513,61 C11.8561458,61 10.513,59.6568542 10.513,58 L10.513,48.48 C10.513,47.9277153 10.9607153,47.48 11.513,47.48 C12.0652847,47.48 12.513,47.9277153 12.513,48.48 L12.513,58 C12.513,58.5522847 12.9607153,59 13.513,59 L30.487,59 C31.0392847,59 31.487,58.5522847 31.487,58 L31.487,48.48 C31.487,47.9277153 31.9347153,47.4800001 32.487,47.4800001 C33.0392847,47.4800001 33.487,47.9277153 33.487,48.48 L33.487,58 C33.487,59.6568542 32.1438542,61 30.487,61 Z" id="Shape" fill="#000000"/><path d="M56.37,25 L37.63,25 C37.3586095,25.000431 37.0988436,24.8898769 36.911,24.694 C31.5991486,19.1727076 31.7121186,10.4071944 37.164499,5.02463147 C42.6168794,-0.357931413 51.3831206,-0.357931413 56.835501,5.02463147 C62.2878814,10.4071944 62.4008514,19.1727076 57.089,24.694 C56.9011564,24.8898769 56.6413905,25.000431 56.37,25 Z M38.064,23 L55.936,23 C60.245876,18.1914216 59.977783,10.8344883 55.3293456,6.35235861 C50.6809082,1.87022891 43.3190918,1.87022891 38.6706544,6.35235861 C34.022217,10.8344883 33.754124,18.1914216 38.064,23 Z" id="Shape" fill="#000000"/><path d="M49.438,41 L44.562,41 C43.1855891,41.0004226 41.9854678,40.0641549 41.651,38.729 L40.03,32.242 C39.9555148,31.9433588 40.0227046,31.6270546 40.2121557,31.3844791 C40.4016068,31.1419035 40.6922101,31.000085 41,31 L53,31 C53.3077899,31.000085 53.5983932,31.1419035 53.7878443,31.3844791 C53.9772954,31.6270546 54.0444852,31.9433588 53.97,32.242 L52.349,38.728 C52.0149204,40.063552 50.8147019,41.0003078 49.438,41 Z M42.281,33 L43.591,38.243 C43.7025495,38.6882929 44.1029479,39.0004469 44.562,39 L49.438,39 C49.8973433,39.0003324 50.297839,38.68769 50.409,38.242 L51.719,33 L42.281,33 Z" id="Shape" fill="#000000"/><path d="M54,33 L40,33 C39.4477153,33 39,32.5522847 39,32 C39,31.4477153 39.4477153,31 40,31 L54,31 C54.5522847,31 55,31.4477153 55,32 C55,32.5522847 54.5522847,33 54,33 Z" id="Shape" fill="#000000"/><path d="M52,33 C51.6535599,32.999815 51.3318963,32.8203322 51.1498055,32.5256057 C50.9677146,32.2308792 50.9511412,31.8629025 51.106,31.553 L55.106,23.553 C55.3528713,23.0587052 55.9537051,22.8581287 56.448,23.105 C56.9422948,23.3518713 57.1428713,23.9527052 56.896,24.447 L52.896,32.447 C52.7264146,32.7863743 52.3793861,33.000556 52,33 Z" id="Shape" fill="#000000"/><path d="M49,33 C48.9582123,32.9997926 48.9164732,32.9971213 48.875,32.992 C48.3272162,32.9233712 47.938678,32.4238221 48.007,31.876 L49.007,23.876 C49.0870921,23.3388736 49.5812283,22.9638448 50.1200995,23.0312037 C50.6589708,23.0985626 51.045588,23.5836856 50.991,24.124 L49.991,32.124 C49.9285232,32.6239598 49.503848,32.9993539 49,33 Z" id="Shape" fill="#000000"/><path d="M42,33 C41.6191744,33.0020788 41.2702259,32.7876694 41.1,32.447 L37.1,24.447 C36.8531287,23.9527052 37.0537052,23.3518713 37.548,23.105 C38.0422949,22.8581287 38.6431287,23.0587052 38.89,23.553 L42.89,31.553 C43.0445455,31.8622668 43.0283796,32.2294236 42.8472507,32.5239106 C42.6661219,32.8183976 42.3457279,32.9984342 42,33 Z" id="Shape" fill="#000000"/><path d="M45,33 C44.496152,32.9993539 44.0714768,32.6239598 44.009,32.124 L43.009,24.124 C42.954412,23.5836856 43.3410292,23.0985626 43.8799005,23.0312037 C44.4187717,22.9638448 44.9129079,23.3388736 44.993,23.876 L45.993,31.876 C46.061322,32.4238221 45.6727838,32.9233712 45.125,32.992 C45.0835268,32.9971213 45.0417877,32.9997926 45,33 Z" id="Shape" fill="#000000"/><path d="M50.9,25 C50.5453493,24.9997009 50.2173873,24.8115821 50.0380757,24.5056008 C49.8587641,24.1996195 49.8549303,23.8215546 50.028,23.512 C51.4079719,20.712907 52.0848424,17.6196227 52,14.5 C52,7.723 49.365,3 47,3 C44.635,3 42,7.723 42,14.5 C41.915468,17.6197057 42.5926827,20.7129943 43.973,23.512 C44.1473456,23.8238929 44.1420548,24.205106 43.9591204,24.5120402 C43.7761861,24.8189744 43.4434004,25.0049989 43.0861204,25.0000402 C42.7288405,24.9950815 42.4013456,24.7998929 42.227,24.488 C40.6816746,21.3899471 39.9171493,17.9610834 40,14.5 C40,6.93 43.075,1 47,1 C50.925,1 54,6.93 54,14.5 C54.0828507,17.9610834 53.3183254,21.3899471 51.773,24.488 C51.5962186,24.8041938 51.2622571,25.0000566 50.9,25 Z" id="Shape" fill="#000000"/><path d="M42.25,38 L26,38 C23.1676327,38.0011721 20.7202149,36.0214913 20.129471,33.2514141 C19.5387271,30.4813369 20.9655761,27.6754338 23.552,26.521 C22.6530175,24.5802447 22.855139,22.3076747 24.0825215,20.5560374 C25.309904,18.8044002 27.3769379,17.8385852 29.508,18.021 C30.2273061,15.9749418 31.6602766,14.2568683 33.544,13.182 C34.0217563,12.9237978 34.6182611,13.0940895 34.8876968,13.5656019 C35.1571324,14.0371142 35.0010043,14.6374818 34.536,14.918 C32.8520149,15.876756 31.641672,17.491633 31.194,19.377 C31.1330179,19.6392322 30.9688735,19.865797 30.7386947,20.0054476 C30.5085159,20.1450982 30.2317504,20.1860355 29.971,20.119 C29.1617366,19.919925 28.310783,19.9750956 27.534,20.277 C26.3577291,20.7401916 25.4696523,21.7321768 25.1389076,22.9523275 C24.8081628,24.1724781 25.0736829,25.4771674 25.855,26.471 C26.0706066,26.7456028 26.1273866,27.1127722 26.0047983,27.4396743 C25.88221,27.7665765 25.5980041,28.0058762 25.255,28.071 C23.2294521,28.4578013 21.8299205,30.3210845 22.0228281,32.374191 C22.2157357,34.4272974 23.9378525,35.997274 26,36 L42.25,36 C42.8022847,36 43.25,36.4477153 43.25,37 C43.25,37.5522847 42.8022847,38 42.25,38 Z" id="Shape" fill="#000000"/><path d="M52,37 L42,37 C41.4477153,37 41,36.5522847 41,36 C41,35.4477153 41.4477153,35 42,35 L52,35 C52.5522847,35 53,35.4477153 53,36 C53,36.5522847 52.5522847,37 52,37 Z" id="Shape" fill="#000000"/></g></g></svg>
