<?xml version="1.0" encoding="UTF-8"?>
<svg xmlns="http://www.w3.org/2000/svg" xmlns:xlink="http://www.w3.org/1999/xlink" width="512" height="512" viewBox="0 0 60 60" version="1.1"><!-- Generator: Sketch 51.3 (57544) - http://www.bohemiancoding.com/sketch --><title>082 - Memory</title><desc>Created with Sketch.</desc><defs/><g id="Page-1" stroke="none" stroke-width="1" fill="none" fill-rule="evenodd"><g id="082---Memory" transform="translate(-1.000000, 0.000000)" fill-rule="nonzero"><path d="M41.21,22.26 C39.94,21.61 38.67,23.54 38.67,23.54 L38.59,23.53 C38.7534816,20.535563 38.7534816,17.534437 38.59,14.54 C38,1.68 23.19,1.04 23.19,1.04 L20.81,1.04 C20.81,1.04 6,1.68 5.41,14.54 C5.2465184,17.534437 5.2465184,20.535563 5.41,23.53 L5.33,23.54 C5.33,23.54 4.06,21.61 2.79,22.26 C1.53,22.89 2.15,28.68 2.15,28.68 C2.15,28.68 2.78,33.14 6.53,35.08 C6.37,38.8 6.09,42.18 10.15,46.04 C10.6325876,46.4946547 11.0899378,46.9753732 11.52,47.48 L11.52,57 C11.5199862,58.100676 12.4093377,58.9944966 13.51,59 L30.49,59 C31.5906623,58.9944966 32.4800138,58.100676 32.48,57 L32.48,47.48 C32.9100622,46.9753732 33.3674124,46.4946547 33.85,46.04 C37.91,42.18 37.63,38.8 37.47,35.08 C41.22,33.14 41.85,28.68 41.85,28.68 C41.85,28.68 42.47,22.89 41.21,22.26 Z" id="Shape" fill="#2FA8CC"/><path d="M6.59,33.18 C6.59,33.83 6.57,34.46 6.53,35.08 C2.78,33.14 2.15,28.68 2.15,28.68 C2.15,28.68 1.53,22.89 2.79,22.26 C4.06,21.61 5.33,23.54 5.33,23.54 L5.41,23.53 C5.73,28.49 6.59,30.06 6.59,33.18 Z" id="Shape" fill="#3F51B5"/><path d="M38.59,23.53 C38.27,28.49 37.41,30.06 37.41,33.18 C37.41,33.83 37.43,34.46 37.47,35.08 C37.63,38.8 37.91,42.18 33.85,46.04 C33.3674124,46.4946547 32.9100622,46.9753732 32.48,47.48 C29.06,51.45 28.6,55.04 24.37,55.04 L19.63,55.04 C15.4,55.04 14.94,51.45 11.52,47.48 C11.0899378,46.9753732 10.6325876,46.4946547 10.15,46.04 C6.09,42.18 6.37,38.8 6.53,35.08 C6.57,34.46 6.59,33.83 6.59,33.18 C6.59,30.06 5.73,28.49 5.41,23.53 C5.2465184,20.535563 5.2465184,17.534437 5.41,14.54 C5.95,2.79 18.37,1.24 20.5,1.06 C20.7,1.04 20.81,1.04 20.81,1.04 L23.19,1.04 C23.19,1.04 38,1.68 38.59,14.54 C38.7534816,17.534437 38.7534816,20.535563 38.59,23.53 Z" id="Shape" fill="#0377BC"/><path d="M35.59,23.53 C35.27,28.49 34.41,30.06 34.41,33.18 C34.41,33.83 34.43,34.46 34.47,35.08 C34.63,38.8 34.91,42.18 30.85,46.04 C30.3674124,46.4946547 29.9100622,46.9753732 29.48,47.48 C26.06,51.45 25.6,55.04 21.37,55.04 L19.63,55.04 C15.4,55.04 14.94,51.45 11.52,47.48 C11.0899378,46.9753732 10.6325876,46.4946547 10.15,46.04 C6.09,42.18 6.37,38.8 6.53,35.08 C6.57,34.46 6.59,33.83 6.59,33.18 C6.59,30.06 5.73,28.49 5.41,23.53 C5.2465184,20.535563 5.2465184,17.534437 5.41,14.54 C5.95,2.79 18.37,1.24 20.5,1.06 C22.63,1.24 35.05,2.79 35.59,14.54 C35.7534816,17.534437 35.7534816,20.535563 35.59,23.53 Z" id="Shape" fill="#02A9F4"/><path d="M41.852,28.68 C41.852,28.68 41.222,33.14 37.472,35.08 C37.433,34.46 37.412,33.83 37.412,33.18 C37.412,30.06 38.273,28.49 38.593,23.53 L38.672,23.54 C38.672,23.54 39.943,21.61 41.213,22.26 C42.472,22.89 41.852,28.68 41.852,28.68 Z" id="Shape" fill="#4482C3"/><path d="M32.482,47.48 L32.482,57 C32.4820138,58.100676 31.5926623,58.9944966 30.492,59 L13.513,59 C12.4123377,58.9944966 11.5229862,58.100676 11.523,57 L11.523,47.48 C14.943,51.45 15.403,55.04 19.633,55.04 L24.373,55.04 C28.6,55.04 29.063,51.45 32.482,47.48 Z" id="Shape" fill="#3F51B5"/><path d="M60,6 L60,36 C60,36.5522847 59.5522847,37 59,37 L31,37 C30.4477153,37 30,36.5522847 30,36 L30,13.45 C29.9978412,13.1622319 30.1221464,12.8880292 30.34,12.7 L38.72,5.25 C38.9051499,5.09400454 39.1379644,5.00581724 39.38,5 L59,5 C59.5522847,5 60,5.44771525 60,6 Z" id="Shape" fill="#37474F"/><path d="M57,6 L57,36 C57,36.5522847 56.5522847,37 56,37 L31,37 C30.4477153,37 30,36.5522847 30,36 L30,13.45 C29.9978412,13.1622319 30.1221464,12.8880292 30.34,12.7 L38.72,5.25 C38.9051499,5.09400454 39.1379644,5.00581724 39.38,5 L56,5 C56.5522847,5 57,5.44771525 57,6 Z" id="Shape" fill="#607D8B"/><path d="M35,21 L55,21 C55.5522847,21 56,21.4477153 56,22 L56,37 L34,37 L34,22 C34,21.4477153 34.4477153,21 35,21 Z" id="Shape" fill="#F5F5F5"/><rect id="Rectangle-path" fill="#F44335" x="38" y="26" width="14" height="4" rx="1"/><path d="M50.9,49 L49.5,49 C49.2238576,49 49,49.2238576 49,49.5 L49,56 C49,56.5522847 48.5522847,57 48,57 L42,57 C41.4477153,57 41,56.5522847 41,56 L41,49.5 C41,49.2238576 40.7761424,49 40.5,49 L39.1,49 C38.904651,48.9978099 38.7284697,48.8820456 38.6489266,48.703611 C38.5693835,48.5251764 38.6010493,48.3167574 38.73,48.17 L43.5,42.71 L44.62,41.43 C44.7149941,41.3189168 44.8538379,41.2549615 45,41.2549615 C45.1461621,41.2549615 45.2850059,41.3189168 45.38,41.43 L51.27,48.17 C51.3989507,48.3167574 51.4306165,48.5251764 51.3510734,48.703611 C51.2715303,48.8820456 51.095349,48.9978099 50.9,49 Z" id="Shape" fill="#6A1B9A"/><path d="M47.9,49 L46.5,49 C46.2238576,49 46,49.2238576 46,49.5 L46,56 C46,56.5522847 45.5522847,57 45,57 L42,57 C41.4477153,57 41,56.5522847 41,56 L41,49.5 C41,49.2238576 40.7761424,49 40.5,49 L39.1,49 C38.904651,48.9978099 38.7284697,48.8820456 38.6489266,48.703611 C38.5693835,48.5251764 38.6010493,48.3167574 38.73,48.17 L43.5,42.71 L48.27,48.17 C48.3989507,48.3167574 48.4306165,48.5251764 48.3510734,48.703611 C48.2715303,48.8820456 48.095349,48.9978099 47.9,49 Z" id="Shape" fill="#9D27B0"/><path d="M6.53,36.076 C6.37067056,36.0760148 6.21364387,36.0379581 6.072,35.965 C1.907,33.813 1.192,29.026 1.164,28.823 C0.842,25.835 0.788,22.147 2.339,21.365 C3.967,20.54 5.511,21.996 6.166,22.988 C6.45864172,23.4487382 6.32777555,24.0590241 5.87195367,24.359266 C5.41613178,24.659508 4.80375962,24.5387803 4.496,24.088 C4.205,23.654 3.596,23.11 3.307,23.128 C2.97,23.72 2.894,26.2 3.148,28.576 C3.148,28.576 3.759,32.517 6.99,34.186 C7.39951073,34.3980617 7.61090029,34.8626656 7.50173467,35.3107193 C7.39256905,35.7587729 6.99116073,36.0740722 6.53,36.074 L6.53,36.076 Z" id="Shape" fill="#000000"/><path d="M24.37,56.04 L19.63,56.04 C16.158,56.04 14.786,53.933 13.197,51.491 C12.152706,49.7669717 10.8977094,48.1797503 9.461,46.766 C5.191,42.711 5.361,38.977 5.524,35.366 C5.557,34.651 5.59,33.925 5.59,33.181 C5.56909313,31.8555116 5.41871188,30.5352379 5.141,29.239 C4.665,26.617 4.013,23.026 4.411,14.494 C5.036,0.878 20.61,0.048 20.767,0.041 L23.19,0.041 C23.611,0.059 32.532,0.516 37.073,6.859 C37.2885089,7.14916622 37.3306651,7.53304319 37.1832631,7.86306316 C37.0358612,8.19308314 36.7218447,8.41787718 36.3619262,8.45103127 C36.0020077,8.48418536 35.6522099,8.32053894 35.447,8.023 C31.466,2.463 23.229,2.044 23.147,2.04 L20.81,2.04 C20.287,2.064 6.949,2.805 6.41,14.586 C6.022,22.892 6.625,26.213 7.11,28.886 C7.41069164,30.3001556 7.57212921,31.7403663 7.592,33.186 C7.592,33.961 7.558,34.718 7.524,35.462 C7.361,39.057 7.232,41.896 10.84,45.32 C12.3878619,46.8415337 13.7427004,48.5476764 14.874,50.4 C16.517,52.924 17.339,54.04 19.63,54.04 L24.37,54.04 C26.661,54.04 27.483,52.924 29.126,50.4 C30.2575158,48.5454611 31.6130448,46.8372796 33.162,45.314 C35.5678216,43.2623957 36.8243506,40.1680813 36.53,37.02 C36.5246423,36.7547683 36.6248944,36.4982768 36.8086913,36.3069779 C36.9924883,36.1156791 37.2447662,36.0052516 37.51,36 L37.53,36 C38.0745676,35.9998911 38.5191087,36.4355413 38.53,36.98 C38.8267957,40.6903206 37.3459175,44.321459 34.539,46.766 C33.1012364,48.1795735 31.845226,49.7668026 30.8,51.491 C29.214,53.933 27.842,56.04 24.37,56.04 Z" id="Shape" fill="#000000"/><path d="M30.487,60 L13.513,60 C11.8561458,60 10.513,58.6568542 10.513,57 L10.513,47.48 C10.513,46.9277153 10.9607153,46.48 11.513,46.48 C12.0652847,46.48 12.513,46.9277153 12.513,47.48 L12.513,57 C12.513,57.5522847 12.9607153,58 13.513,58 L30.487,58 C31.0392847,58 31.487,57.5522847 31.487,57 L31.487,47.48 C31.487,46.9277153 31.9347153,46.4800001 32.487,46.4800001 C33.0392847,46.4800001 33.487,46.9277153 33.487,47.48 L33.487,57 C33.487,58.6568542 32.1438542,60 30.487,60 Z" id="Shape" fill="#000000"/><path d="M59,38 L31,38 C29.8954305,38 29,37.1045695 29,36 L29,13.449 C29.0006755,12.8785831 29.2439204,12.3353725 29.669,11.955 L38.051,4.506 C38.417052,4.1802166 38.8899706,4.00015882 39.38,4 L59,4 C60.1045695,4 61,4.8954305 61,6 L61,36 C61,37.1045695 60.1045695,38 59,38 Z M59,6 L39.38,6 L31,13.448 L31,36 L59,36 L59,6 Z" id="Shape" fill="#000000"/><path d="M56,38 L34,38 C33.4477153,38 33,37.5522847 33,37 L33,22 C33,20.8954305 33.8954305,20 35,20 L55,20 C56.1045695,20 57,20.8954305 57,22 L57,37 C57,37.5522847 56.5522847,38 56,38 Z M35,36 L55,36 L55,22 L35,22 L35,36 Z" id="Shape" fill="#000000"/><path d="M56,12 C55.4477153,12 55,11.5522847 55,11 L55,5 C55,4.44771525 55.4477153,4 56,4 C56.5522847,4 57,4.44771525 57,5 L57,11 C57,11.5522847 56.5522847,12 56,12 Z" id="Shape" fill="#000000"/><path d="M52,12 C51.4477153,12 51,11.5522847 51,11 L51,5 C51,4.44771525 51.4477153,4 52,4 C52.5522847,4 53,4.44771525 53,5 L53,11 C53,11.5522847 52.5522847,12 52,12 Z" id="Shape" fill="#000000"/><path d="M48,12 C47.4477153,12 47,11.5522847 47,11 L47,5 C47,4.44771525 47.4477153,4 48,4 C48.5522847,4 49,4.44771525 49,5 L49,11 C49,11.5522847 48.5522847,12 48,12 Z" id="Shape" fill="#000000"/><path d="M44,12 C43.4477153,12 43,11.5522847 43,11 L43,5 C43,4.44771525 43.4477153,4 44,4 C44.5522847,4 45,4.44771525 45,5 L45,11 C45,11.5522847 44.5522847,12 44,12 Z" id="Shape" fill="#000000"/><path d="M40,12 C39.4477153,12 39,11.5522847 39,11 L39,5 C39,4.44771525 39.4477153,4 40,4 C40.5522847,4 41,4.44771525 41,5 L41,11 C41,11.5522847 40.5522847,12 40,12 Z" id="Shape" fill="#000000"/><path d="M32,18 L30,18 C29.4477153,18 29,17.5522847 29,17 C29,16.4477153 29.4477153,16 30,16 L32,16 C32.5522847,16 33,16.4477153 33,17 C33,17.5522847 32.5522847,18 32,18 Z" id="Shape" fill="#000000"/><path d="M51,31 L39,31 C37.8954305,31 37,30.1045695 37,29 L37,27 C37,25.8954305 37.8954305,25 39,25 L51,25 C52.1045695,25 53,25.8954305 53,27 L53,29 C53,30.1045695 52.1045695,31 51,31 Z M39,27 L39,29 L51,29 L51,27 L39,27 Z" id="Shape" fill="#000000"/><path d="M48,58 L42,58 C40.8954305,58 40,57.1045695 40,56 L40,50 L38,50 C37.6079289,49.9996011 37.2522609,49.7701196 37.0903127,49.4130584 C36.9283645,49.0559972 36.9900169,48.6372366 37.248,48.342 L44.248,40.342 C44.4423427,40.13468 44.7138334,40.0170533 44.998,40.0170533 C45.2821666,40.0170533 45.5536573,40.13468 45.748,40.342 L52.748,48.342 C53.0055145,48.6366907 53.0674601,49.0545166 52.9065232,49.4112457 C52.7455863,49.7679748 52.391347,49.9980405 52,50 L50,50 L50,56 C50,57.1045695 49.1045695,58 48,58 Z M40.2,48 L41,48 C41.5522847,48 42,48.4477153 42,49 L42,56 L48,56 L48,49 C48,48.4477153 48.4477153,48 49,48 L49.8,48 L45,42.519 L40.2,48 Z" id="Shape" fill="#000000"/></g></g></svg>
