<?xml version="1.0" encoding="UTF-8"?>
<svg xmlns="http://www.w3.org/2000/svg" xmlns:xlink="http://www.w3.org/1999/xlink" width="512" height="512" viewBox="0 0 60 60" version="1.1"><!-- Generator: Sketch 51.3 (57544) - http://www.bohemiancoding.com/sketch --><title>083 - Triumph</title><desc>Created with Sketch.</desc><defs/><g id="Page-1" stroke="none" stroke-width="1" fill="none" fill-rule="evenodd"><g id="083---Triumph" transform="translate(-1.000000, 0.000000)" fill-rule="nonzero"><path d="M41.21,22.26 C39.94,21.61 38.67,23.54 38.67,23.54 L38.59,23.53 C38.7534816,20.535563 38.7534816,17.534437 38.59,14.54 C38,1.68 23.19,1.04 23.19,1.04 L20.81,1.04 C20.81,1.04 6,1.68 5.41,14.54 C5.2465184,17.534437 5.2465184,20.535563 5.41,23.53 L5.33,23.54 C5.33,23.54 4.06,21.61 2.79,22.26 C1.53,22.89 2.15,28.68 2.15,28.68 C2.15,28.68 2.78,33.14 6.53,35.08 C6.37,38.8 6.09,42.18 10.15,46.04 C10.6325876,46.4946547 11.0899378,46.9753732 11.52,47.48 L11.52,57 C11.5199862,58.100676 12.4093377,58.9944966 13.51,59 L30.49,59 C31.5906623,58.9944966 32.4800138,58.100676 32.48,57 L32.48,47.48 C32.9100622,46.9753732 33.3674124,46.4946547 33.85,46.04 C37.91,42.18 37.63,38.8 37.47,35.08 C41.22,33.14 41.85,28.68 41.85,28.68 C41.85,28.68 42.47,22.89 41.21,22.26 Z" id="Shape" fill="#B0D3F0"/><path d="M38.59,23.53 C38.27,28.49 37.41,30.06 37.41,33.18 C37.41,33.83 37.43,34.46 37.47,35.08 C37.63,38.8 37.91,42.18 33.85,46.04 C33.3674124,46.4946547 32.9100622,46.9753732 32.48,47.48 C29.06,51.45 28.6,55.04 24.37,55.04 L19.63,55.04 C15.4,55.04 14.94,51.45 11.52,47.48 C11.0899378,46.9753732 10.6325876,46.4946547 10.15,46.04 C6.09,42.18 6.37,38.8 6.53,35.08 C6.57,34.46 6.59,33.83 6.59,33.18 C6.59,30.06 5.73,28.49 5.41,23.53 C5.2465184,20.535563 5.2465184,17.534437 5.41,14.54 C5.95,2.79 18.37,1.24 20.5,1.06 C20.7,1.04 20.81,1.04 20.81,1.04 L23.19,1.04 C23.19,1.04 38,1.68 38.59,14.54 C38.7534816,17.534437 38.7534816,20.535563 38.59,23.53 Z" id="Shape" fill="#0377BC"/><path d="M35.59,23.53 C35.27,28.49 34.41,30.06 34.41,33.18 C34.41,33.83 34.43,34.46 34.47,35.08 C34.63,38.8 34.91,42.18 30.85,46.04 C30.3674124,46.4946547 29.9100622,46.9753732 29.48,47.48 C26.06,51.45 25.6,55.04 21.37,55.04 L19.63,55.04 C15.4,55.04 14.94,51.45 11.52,47.48 C11.0899378,46.9753732 10.6325876,46.4946547 10.15,46.04 C6.09,42.18 6.37,38.8 6.53,35.08 C6.57,34.46 6.59,33.83 6.59,33.18 C6.59,30.06 5.73,28.49 5.41,23.53 C5.2465184,20.535563 5.2465184,17.534437 5.41,14.54 C5.95,2.79 18.37,1.24 20.5,1.06 C22.63,1.24 35.05,2.79 35.59,14.54 C35.7534816,17.534437 35.7534816,20.535563 35.59,23.53 Z" id="Shape" fill="#02A9F4"/><polygon id="Shape" fill="#F44335" points="36.65 10.997 40.37 12.019 39.88 6.937 34 1.057 24 1.057"/><polygon id="Shape" fill="#F44335" points="60 1.06 47.35 11 43.48 11.43 43.68 10.01 44.12 6.94 50 1.06"/><polygon id="Shape" fill="#F44335" points="55.65 1.06 44.35 9.94 43.68 10.01 44.12 6.94 50 1.06"/><path d="M6.59,33.18 C6.59,33.83 6.57,34.46 6.53,35.08 C2.78,33.14 2.15,28.68 2.15,28.68 C2.15,28.68 1.53,22.89 2.79,22.26 C4.06,21.61 5.33,23.54 5.33,23.54 L5.41,23.53 C5.73,28.49 6.59,30.06 6.59,33.18 Z" id="Shape" fill="#3F51B5"/><path d="M32.482,47.48 L32.482,57 C32.4820138,58.100676 31.5926623,58.9944966 30.492,59 L13.513,59 C12.4123377,58.9944966 11.5229862,58.100676 11.523,57 L11.523,47.48 C14.943,51.45 15.403,55.04 19.633,55.04 L24.373,55.04 C28.6,55.04 29.063,51.45 32.482,47.48 Z" id="Shape" fill="#3F51B5"/><path d="M44.75,10.247 C44.9150963,9.87200765 45.0002394,9.46672673 45,9.057 C44.999576,7.83702504 44.2604147,6.73880444 43.1303501,6.27913823 C42.0002854,5.81947202 40.7044044,6.08991675 39.8525219,6.96320671 C39.0006395,7.83649666 38.7624339,9.13868948 39.25,10.257 L44.75,10.247 Z" id="Shape" fill="#FFDC00"/><path d="M41.852,28.68 C41.852,28.68 41.222,33.14 37.472,35.08 C37.433,34.46 37.412,33.83 37.412,33.18 C37.412,30.06 38.273,28.49 38.593,23.53 L38.672,23.54 C38.672,23.54 39.943,21.61 41.213,22.26 C42.472,22.89 41.852,28.68 41.852,28.68 Z" id="Shape" fill="#4482C3"/><path d="M57.04,25 C57.04,25.34 57.03,25.67 57,26 C56.8771618,27.9509999 56.3672573,29.8580427 55.5,31.61 C55.2079501,32.2127684 54.8737892,32.7942083 54.5,33.35 C53.4014179,34.9702721 52.002937,36.3653586 50.38,37.46 C49.8276479,37.8337307 49.2495368,38.1678989 48.65,38.46 C46.8980427,39.3272573 44.9909999,39.8371618 43.04,39.96 C42.71,39.99 42.38,40 42.04,40 C41.7,40 41.37,39.99 41.04,39.96 C40.8724903,39.9532492 40.7055295,39.9365531 40.54,39.91 C38.758375,39.7473127 37.0223627,39.2556686 35.42,38.46 C34.8225034,38.1640771 34.2446455,37.8300552 33.69,37.46 C32.0678133,36.3678165 30.6721835,34.9721867 29.58,33.35 C29.2062108,32.7942083 28.8720499,32.2127684 28.58,31.61 C27.7127427,29.8580427 27.2028382,27.9509999 27.08,26 C27.05,25.67 27.04,25.34 27.04,25 C27.04,24.66 27.05,24.33 27.08,24 C27.2028382,22.0490001 27.7127427,20.1419573 28.58,18.39 C28.8720499,17.7872316 29.2062108,17.2057917 29.58,16.65 C30.6721835,15.0278133 32.0678133,13.6321835 33.69,12.54 C34.2446455,12.1699448 34.8225034,11.8359229 35.42,11.54 C37.0223627,10.7443314 38.758375,10.2526873 40.54,10.09 C40.7055295,10.0634469 40.8724903,10.0467508 41.04,10.04 C41.37,10.01 41.7,10 42.04,10 C42.38,10 42.71,10.01 43.04,10.04 C44.9909999,10.1628382 46.8980427,10.6727427 48.65,11.54 C49.2495368,11.8321011 49.8276479,12.1662693 50.38,12.54 C52.002937,13.6346414 53.4014179,15.0297279 54.5,16.65 C54.8737892,17.2057917 55.2079501,17.7872316 55.5,18.39 C56.3672573,20.1419573 56.8771618,22.0490001 57,24 C57.03,24.33 57.04,24.66 57.04,25 Z" id="Shape" fill="#F57C00"/><path d="M54.04,25 C54.04,25.34 54.03,25.67 54,26 C53.8771618,27.9509999 53.3672573,29.8580427 52.5,31.61 C52.2079501,32.2127684 51.8737892,32.7942083 51.5,33.35 C50.4014179,34.9702721 49.002937,36.3653586 47.38,37.46 C46.8276479,37.8337307 46.2495368,38.1678989 45.65,38.46 C44.0506649,39.2543337 42.3181796,39.7459391 40.54,39.91 C38.758375,39.7473127 37.0223627,39.2556686 35.42,38.46 C34.8225034,38.1640771 34.2446455,37.8300552 33.69,37.46 C32.0678133,36.3678165 30.6721835,34.9721867 29.58,33.35 C29.2062108,32.7942083 28.8720499,32.2127684 28.58,31.61 C27.7127427,29.8580427 27.2028382,27.9509999 27.08,26 C27.05,25.67 27.04,25.34 27.04,25 C27.04,24.66 27.05,24.33 27.08,24 C27.2028382,22.0490001 27.7127427,20.1419573 28.58,18.39 C28.8720499,17.7872316 29.2062108,17.2057917 29.58,16.65 C30.6721835,15.0278133 32.0678133,13.6321835 33.69,12.54 C34.2446455,12.1699448 34.8225034,11.8359229 35.42,11.54 C37.0223627,10.7443314 38.758375,10.2526873 40.54,10.09 C42.3181796,10.2540609 44.0506649,10.7456663 45.65,11.54 C46.2495368,11.8321011 46.8276479,12.1662693 47.38,12.54 C49.002937,13.6346414 50.4014179,15.0297279 51.5,16.65 C51.8737892,17.2057917 52.2079501,17.7872316 52.5,18.39 C53.3672573,20.1419573 53.8771618,22.0490001 54,24 C54.03,24.33 54.04,24.66 54.04,25 Z" id="Shape" fill="#FF9801"/><path d="M52.88,23.13 C51.8786377,17.3232358 46.4794001,13.3368719 40.6351782,14.089406 C34.7909563,14.84194 30.5777111,20.0660598 31.0800445,25.9370818 C31.5823779,31.8081037 36.6218531,36.2405469 42.5089685,35.9893301 C48.3960839,35.7381134 53.0396419,30.8924729 53.04,25 C53.0426534,24.3731379 52.9891058,23.7472998 52.88,23.13 Z M47.25,23.95 L45.2,25.87 C45.0768626,25.9851877 45.0172206,26.1529308 45.04,26.32 L45.5,29.07 C45.5320199,29.2564998 45.4560117,29.4450968 45.3036189,29.5572748 C45.1512262,29.6694528 44.9485624,29.6859893 44.78,29.6 L42.23,28.27 C42.0910534,28.191832 41.9222818,28.1880815 41.78,28.26 L39.21,29.56 C39.0394943,29.6436795 38.8364562,29.624613 38.68451,29.5106533 C38.5325638,29.3966937 38.4574093,29.2071157 38.49,29.02 L38.99,26.27 L38.99,26.26 C41.5148816,24.6817211 44.3483632,23.6622133 47.3,23.27 C47.4600413,23.4759918 47.43845,23.7696325 47.25,23.95 Z" id="Shape" fill="#FFEB3A"/><path d="M52.88,23.13 C51.9649675,17.85709 47.3917134,14.0052625 42.04,14 C41.5449169,13.9981144 41.0503295,14.0315325 40.56,14.1 C35.1220584,14.8491202 31.0687294,19.4926503 31.0611719,24.9819429 C31.0536144,30.4712355 35.0941417,35.125909 40.53,35.89 C41.0301168,35.9621621 41.534705,35.9989202 42.04,36 C48.1121626,35.9928365 53.0328365,31.0721626 53.04,25 C53.0426534,24.3731379 52.9891058,23.7472998 52.88,23.13 Z" id="Shape" fill="#FFDC00"/><path d="M49.88,23.13 C49.0605283,18.4172464 45.2962952,14.7701407 40.56,14.1 C35.1220584,14.8491202 31.0687294,19.4926503 31.0611719,24.9819429 C31.0536144,30.4712355 35.0941417,35.125909 40.53,35.89 C45.9754073,35.1455352 50.0356933,30.4960595 50.04,25 C50.0426534,24.3731379 49.9891058,23.7472998 49.88,23.13 Z" id="Shape" fill="#FFEB3A"/><path d="M47.3,23.27 C44.3483632,23.6622133 41.5148816,24.6817211 38.99,26.26 C39.0202468,26.0991254 38.9676486,25.933817 38.85,25.82 L36.83,23.87 C36.69318,23.7357148 36.6441942,23.5355374 36.7035446,23.3532471 C36.7628949,23.1709567 36.9203458,23.0379912 37.11,23.01 L39.95,22.63 C40.1103976,22.6076341 40.251047,22.5114003 40.33,22.37 L41.63,19.85 C41.7174085,19.6839582 41.890425,19.5808344 42.0780568,19.5829426 C42.2656886,19.5850508 42.4363443,19.6920361 42.52,19.86 L43.77,22.39 C43.8472401,22.5364843 43.9872096,22.6396197 44.15,22.67 L46.98,23.09 C47.1060311,23.1060567 47.2208315,23.1706319 47.3,23.27 Z" id="Shape" fill="#F44335"/><path d="M45.2,25.87 C45.0768626,25.9851877 45.0172206,26.1529308 45.04,26.32 L45.5,29.07 C45.5320199,29.2564998 45.4560117,29.4450968 45.3036189,29.5572748 C45.1512262,29.6694528 44.9485624,29.6859893 44.78,29.6 L42.23,28.27 C42.0910534,28.191832 41.9222818,28.1880815 41.78,28.26 L39.21,29.56 C39.0394943,29.6436795 38.8364562,29.624613 38.68451,29.5106533 C38.5325638,29.3966937 38.4574093,29.2071157 38.49,29.02 L38.99,26.27 L38.99,26.26 C41.5148816,24.6817211 44.3483632,23.6622133 47.3,23.27 C47.4600413,23.4759918 47.43845,23.7696325 47.25,23.95 L45.2,25.87 Z" id="Shape" fill="#C81E1E"/><path d="M53.04,25 C53.0403314,29.7533993 49.987354,33.9692881 45.4711077,35.4519631 C40.9548615,36.9346381 35.997138,35.3486471 33.18,31.52 C34.8011427,29.4468746 36.7663918,27.6676645 38.99,26.26 L38.99,26.27 L38.49,29.02 C38.4574093,29.2071157 38.5325638,29.3966937 38.68451,29.5106533 C38.8364562,29.624613 39.0394943,29.6436795 39.21,29.56 L41.78,28.26 C41.9222818,28.1880815 42.0910534,28.191832 42.23,28.27 L44.78,29.6 C44.9485624,29.6859893 45.1512262,29.6694528 45.3036189,29.5572748 C45.4560117,29.4450968 45.5320199,29.2564998 45.5,29.07 L45.04,26.32 C45.0172206,26.1529308 45.0768626,25.9851877 45.2,25.87 L47.25,23.95 C47.43845,23.7696325 47.4600413,23.4759918 47.3,23.27 C49.1488894,23.0145322 51.0206258,22.9675711 52.88,23.13 C52.9891058,23.7472998 53.0426534,24.3731379 53.04,25 Z" id="Shape" fill="#FFDC00"/><path d="M6.53,36.076 C6.37067056,36.0760148 6.21364387,36.0379581 6.072,35.965 C1.907,33.813 1.192,29.026 1.164,28.823 C0.842,25.835 0.788,22.147 2.339,21.365 C3.966,20.54 5.511,21.996 6.166,22.988 C6.45864172,23.4487382 6.32777555,24.0590241 5.87195367,24.359266 C5.41613178,24.659508 4.80375962,24.5387803 4.496,24.088 C4.205,23.654 3.605,23.11 3.307,23.128 C2.97,23.72 2.894,26.2 3.148,28.576 C3.148,28.576 3.759,32.517 6.99,34.186 C7.39951073,34.3980617 7.61090029,34.8626656 7.50173467,35.3107193 C7.39256905,35.7587729 6.99116073,36.0740722 6.53,36.074 L6.53,36.076 Z" id="Shape" fill="#000000"/><path d="M24.37,56.04 L19.63,56.04 C16.158,56.04 14.786,53.933 13.197,51.491 C12.152706,49.7669717 10.8977094,48.1797503 9.461,46.766 C5.191,42.711 5.361,38.977 5.524,35.366 C5.557,34.651 5.59,33.925 5.59,33.181 C5.56909313,31.8555116 5.41871188,30.5352379 5.141,29.239 C4.665,26.617 4.013,23.026 4.411,14.494 C5.036,0.878 20.61,0.048 20.767,0.041 L23.19,0.041 C23.22,0.041 23.585,0.051 24.205,0.129 C24.7528204,0.198116335 25.140946,0.698158084 25.072,1.246 C24.9972912,1.7901801 24.5017569,2.17515167 23.956,2.113 C23.474,2.053 23.182,2.041 23.156,2.04 L20.81,2.04 C20.287,2.064 6.949,2.805 6.41,14.586 C6.022,22.892 6.625,26.213 7.11,28.886 C7.41069164,30.3001556 7.57212921,31.7403663 7.592,33.186 C7.592,33.961 7.558,34.718 7.524,35.462 C7.361,39.057 7.232,41.896 10.84,45.32 C12.3878619,46.8415337 13.7427004,48.5476764 14.874,50.4 C16.517,52.924 17.339,54.04 19.63,54.04 L24.37,54.04 C26.661,54.04 27.483,52.924 29.126,50.4 C30.2575158,48.5454611 31.6130448,46.8372796 33.162,45.314 C34.9911972,43.7491278 36.1684278,41.5562683 36.462,39.167 C36.5290381,38.6222147 37.0226708,38.2332935 37.568018,38.2955954 C38.1133653,38.3578973 38.506561,38.848132 38.449,39.394 C38.1023831,42.2478467 36.7134337,44.8729612 34.549,46.765 C33.1076872,48.1783216 31.8482981,49.7659111 30.8,51.491 C29.214,53.933 27.842,56.04 24.37,56.04 Z" id="Shape" fill="#000000"/><path d="M30.487,60 L13.513,60 C11.8561458,60 10.513,58.6568542 10.513,57 L10.513,47.48 C10.513,46.9277153 10.9607153,46.48 11.513,46.48 C12.0652847,46.48 12.513,46.9277153 12.513,47.48 L12.513,57 C12.513,57.5522847 12.9607153,58 13.513,58 L30.487,58 C31.0392847,58 31.487,57.5522847 31.487,57 L31.487,47.48 C31.487,46.9277153 31.9347153,46.4800001 32.487,46.4800001 C33.0392847,46.4800001 33.487,46.9277153 33.487,47.48 L33.487,57 C33.487,58.6568542 32.1438542,60 30.487,60 Z" id="Shape" fill="#000000"/><path d="M42.036,41 C33.199444,41 26.036,33.836556 26.036,25 C26.036,16.163444 33.199444,9 42.036,9 C50.872556,9 58.036,16.163444 58.036,25 C58.0260802,33.8324438 50.8684438,40.9900802 42.036,41 Z M42.036,11 C34.3040135,11 28.036,17.2680135 28.036,25 C28.036,32.7319865 34.3040135,39 42.036,39 C49.7679865,39 56.036,32.7319865 56.036,25 C56.0277327,17.2714405 49.7645595,11.0082673 42.036,11 Z" id="Shape" fill="#000000"/><path d="M42.036,37 C35.408583,37 30.036,31.627417 30.036,25 C30.036,18.372583 35.408583,13 42.036,13 C48.663417,13 54.036,18.372583 54.036,25 C54.0288352,31.624447 48.660447,36.9928352 42.036,37 Z M42.036,15 C36.5131525,15 32.036,19.4771525 32.036,25 C32.036,30.5228475 36.5131525,35 42.036,35 C47.5588475,35 52.036,30.5228475 52.036,25 C52.0299376,19.4796656 47.5563344,15.0060624 42.036,15 Z" id="Shape" fill="#000000"/><path d="M45.671,31.067 C45.5093939,31.0670509 45.350183,31.0279344 45.207,30.953 L42,29.271 L38.757,30.9 C38.4179414,31.0705966 38.0115286,31.0345342 37.7078062,30.8069014 C37.4040839,30.5792687 37.2554138,30.1993093 37.324,29.826 L37.962,26.353 L35.392,23.866 C35.1163864,23.5994149 35.017479,23.1987053 35.1373925,22.8344921 C35.257306,22.4702789 35.5749218,22.2067052 35.955,22.156 L39.555,21.675 L41.187,18.51 C41.3690096,18.1818896 41.7118615,17.9754165 42.087,17.968 C42.4641692,17.9710336 42.8075437,18.1860293 42.975,18.524 L44.555,21.715 L48.15,22.255 C48.5292146,22.3118953 48.8424998,22.5806272 48.9564514,22.9467635 C49.0704031,23.3128999 48.9649514,23.7119542 48.685,23.974 L46.075,26.419 L46.657,29.901 C46.7055113,30.1909778 46.623956,30.487611 46.4340182,30.7120304 C46.2440803,30.9364498 45.9650076,31.0659137 45.671,31.066 L45.671,31.067 Z M42,27.146 C42.1616893,27.1462576 42.320905,27.1857184 42.464,27.261 L44.349,28.248 L44.01,26.222 C43.9540447,25.8922704 44.0666281,25.5563965 44.31,25.327 L45.805,23.927 L43.735,23.616 C43.411711,23.5670686 43.1327628,23.3631788 42.988,23.07 L42.055,21.186 L41.091,23.056 C40.9410574,23.3468092 40.6583345,23.545873 40.334,23.589 L38.261,23.866 L39.732,25.29 C39.9726287,25.52286 40.0807383,25.8607025 40.02,26.19 L39.649,28.211 L41.549,27.254 C41.6887936,27.1831572 41.8432808,27.1461624 42,27.146 Z" id="Shape" fill="#000000"/><path d="M42.036,14.529 C41.4837153,14.529 41.036,14.0812847 41.036,13.529 L41.036,10 C41.036,9.44771525 41.4837153,9 42.036,9 C42.5882847,9 43.036,9.44771525 43.036,10 L43.036,13.529 C43.036,14.0812847 42.5882847,14.529 42.036,14.529 Z" id="Shape" fill="#000000"/><path d="M36.3,16.066 C35.9423863,16.0663484 35.6118068,15.8757028 35.433,15.566 L33.669,12.51 C33.3928577,12.0314453 33.5569453,11.4196424 34.0355,11.1435 C34.5140547,10.8673577 35.1258576,11.0314453 35.402,11.51 L37.167,14.566 C37.3456305,14.8753971 37.3456329,15.2565896 37.1670064,15.565989 C36.9883798,15.8753884 36.6582611,16.0659909 36.301,16.066 L36.3,16.066 Z" id="Shape" fill="#000000"/><path d="M32.1,20.265 C31.924461,20.2649923 31.7520167,20.2187772 31.6,20.131 L28.543,18.366 C28.0687864,18.0879942 27.9078714,17.479353 28.1827255,17.0033057 C28.4575795,16.5272584 29.06514,16.3623097 29.543,16.634 L32.6,18.4 C32.992998,18.6258741 33.1849154,19.0878402 33.067654,19.5256944 C32.9503925,19.9635486 32.5532835,20.267768 32.1,20.267 L32.1,20.265 Z" id="Shape" fill="#000000"/><path d="M30.565,26 L27.036,26 C26.4837153,26 26.036,25.5522847 26.036,25 C26.036,24.4477153 26.4837153,24 27.036,24 L30.565,24 C31.1172847,24 31.565,24.4477153 31.565,25 C31.565,25.5522847 31.1172847,26 30.565,26 Z" id="Shape" fill="#000000"/><path d="M29.046,33.5 C28.5934119,33.4999801 28.1972589,33.1959884 28.0801191,32.7588223 C27.9629792,32.3216562 28.1540587,31.8603139 28.546,31.634 L31.6,29.869 C32.0785547,29.5928576 32.6903576,29.7569453 32.9665,30.2355 C33.2426423,30.7140547 33.0785547,31.3258576 32.6,31.602 L29.543,33.366 C29.3920098,33.4536194 29.2205714,33.4998423 29.046,33.5 Z" id="Shape" fill="#000000"/><path d="M34.535,38.99 C34.1777389,38.9899909 33.8476202,38.7993884 33.6689936,38.489989 C33.4903671,38.1805896 33.4903695,37.7993971 33.669,37.49 L35.434,34.434 C35.6126328,34.1244294 35.9428503,33.9336738 36.3002627,33.933589 C36.6576751,33.9335042 36.9879831,34.1241031 37.1667627,34.433589 C37.3455423,34.7430748 37.3456328,35.1244294 37.167,35.434 L35.4,38.49 C35.2215505,38.799084 34.8918992,38.9896339 34.535,38.99 Z" id="Shape" fill="#000000"/><path d="M42.036,41 C41.4837153,41 41.036,40.5522847 41.036,40 L41.036,36.471 C41.036,35.9187153 41.4837153,35.471 42.036,35.471 C42.5882847,35.471 43.036,35.9187153 43.036,36.471 L43.036,40 C43.036,40.5522847 42.5882847,41 42.036,41 Z" id="Shape" fill="#000000"/><path d="M49.537,38.99 C49.1790292,38.9907064 48.8479851,38.8000129 48.669,38.49 L46.905,35.434 C46.7235156,35.1244296 46.7218167,34.7413505 46.9005481,34.4301826 C47.0792796,34.1190146 47.4110366,33.927469 47.7698817,33.9282579 C48.1287268,33.9290468 48.4596384,34.1220492 48.637,34.434 L50.4,37.49 C50.5785415,37.7992425 50.5786393,38.1802222 50.4002566,38.4895563 C50.2218739,38.7988904 49.8920824,38.989634 49.535,38.99 L49.537,38.99 Z" id="Shape" fill="#000000"/><path d="M55.025,33.5 C54.8494113,33.5003718 54.6768701,33.4541308 54.525,33.366 L51.47,31.6 C50.9914453,31.3238576 50.8273577,30.7120547 51.1035,30.2335 C51.3796424,29.7549453 51.9914453,29.5908576 52.47,29.867 L55.526,31.632 C55.9179413,31.8583139 56.1090208,32.3196562 55.9918809,32.7568223 C55.8747411,33.1939884 55.4785881,33.4979801 55.026,33.498 L55.025,33.5 Z" id="Shape" fill="#000000"/><path d="M57.036,26 L53.506,26 C52.9537153,26 52.506,25.5522847 52.506,25 C52.506,24.4477153 52.9537153,24 53.506,24 L57.036,24 C57.5882847,24 58.036,24.4477153 58.036,25 C58.036,25.5522847 57.5882847,26 57.036,26 Z" id="Shape" fill="#000000"/><path d="M51.971,20.265 C51.5177165,20.265768 51.1206075,19.9615486 51.003346,19.5236944 C50.8860846,19.0858402 51.078002,18.6238741 51.471,18.398 L54.527,16.634 C55.00486,16.3623097 55.6124205,16.5272584 55.8872745,17.0033057 C56.1621286,17.479353 56.0012136,18.0879942 55.527,18.366 L52.47,20.131 C52.318277,20.2186078 52.1461998,20.2648169 51.971,20.265 Z" id="Shape" fill="#000000"/><path d="M47.77,16.066 C47.4129176,16.065634 47.0831261,15.8748904 46.9047434,15.5655563 C46.7263607,15.2562222 46.7264585,14.8752425 46.905,14.566 L48.669,11.51 C48.9451424,11.0314453 49.5569453,10.8673576 50.0355,11.1435 C50.5140547,11.4196424 50.6781424,12.0314453 50.402,12.51 L48.637,15.566 C48.4581932,15.8757028 48.1276137,16.0663484 47.77,16.066 Z" id="Shape" fill="#000000"/><path d="M39.25,11.257 C38.851839,11.257591 38.4912641,11.0219212 38.332,10.657 C37.6834697,9.16609022 38.0018907,7.43096442 39.1375416,6.26747805 C40.2731925,5.10399168 42.0001007,4.74365613 43.5062746,5.35590102 C45.0124484,5.9681459 45.9981884,7.4311463 46,9.057 C46.0005414,9.60790187 45.8861016,10.1528531 45.664,10.657 C45.5189502,10.9835408 45.2107112,11.2078937 44.8553937,11.2455472 C44.5000762,11.2832008 44.1516613,11.1284345 43.9413937,10.8395472 C43.731126,10.55066 43.6909502,10.1715408 43.836,9.845 C43.9448992,9.59660537 44.0007568,9.32821642 44,9.057 C44,7.9524305 43.1045695,7.057 42,7.057 C40.8954305,7.057 40,7.9524305 40,9.057 C39.9996263,9.33246157 40.0568506,9.60495826 40.168,9.857 C40.273651,10.1005759 40.2781014,10.3761682 40.1803703,10.6230284 C40.0826391,10.8698887 39.8907498,11.0677507 39.647,11.173 C39.5216952,11.2275163 39.3866474,11.2560906 39.25,11.257 Z" id="Shape" fill="#000000"/><path d="M36.649,12 C36.4250352,12.0005862 36.2075031,11.9251375 36.032,11.786 L23.382,1.846 C23.0444904,1.58318748 22.9115213,1.13480267 23.0511916,0.730481794 C23.190862,0.326160918 23.5722375,0.0554535447 24,0.057 L34,0.057 C34.2651948,0.0570566374 34.5195073,0.162450625 34.707,0.35 L40.587,6.229 C40.8397654,6.48158677 40.9385768,6.84983531 40.846213,7.19502996 C40.7538491,7.54022461 40.4843422,7.80992208 40.139213,7.90252996 C39.7940837,7.99513784 39.4257654,7.89658677 39.173,7.644 L33.586,2.057 L26.891,2.057 L37.268,10.211 C37.6056582,10.4739246 37.7385836,10.9225673 37.5986505,11.3269942 C37.4587175,11.7314211 37.0769468,12.0019774 36.649,12 Z" id="Shape" fill="#000000"/><path d="M47.351,12 C46.9246533,12.0003299 46.5449834,11.7303124 46.4053659,11.3274742 C46.2657484,10.9246361 46.3968913,10.4775787 46.732,10.214 L57.109,2.057 L50.414,2.057 L44.827,7.644 C44.4362585,8.03446532 43.8029653,8.03424146 43.4125,7.6435 C43.0220347,7.25275854 43.0222585,6.61946532 43.413,6.229 L49.293,0.35 C49.4804927,0.162450625 49.7348052,0.0570566374 50,0.057 L60,0.057 C60.426163,0.0570965102 60.8054414,0.327264281 60.9447973,0.729998454 C61.0841533,1.13273263 60.9529641,1.57953476 60.618,1.843 L47.968,11.783 C47.7928951,11.923214 47.5753248,11.9997339 47.351,12 Z" id="Shape" fill="#000000"/></g></g></svg>
