<?xml version="1.0" encoding="UTF-8"?>
<svg xmlns="http://www.w3.org/2000/svg" xmlns:xlink="http://www.w3.org/1999/xlink" width="512" height="512" viewBox="0 0 60 60" version="1.1"><!-- Generator: Sketch 51.3 (57544) - http://www.bohemiancoding.com/sketch --><title>084 - Split Personality</title><desc>Created with Sketch.</desc><defs/><g id="Page-1" stroke="none" stroke-width="1" fill="none" fill-rule="evenodd"><g id="084---Split-Personality" transform="translate(-1.000000, 0.000000)" fill-rule="nonzero"><path d="M41.21,22.26 C39.94,21.61 38.67,23.54 38.67,23.54 L38.59,23.53 C38.7534816,20.535563 38.7534816,17.534437 38.59,14.54 C38,1.68 23.19,1.04 23.19,1.04 L20.81,1.04 C20.81,1.04 6,1.68 5.41,14.54 C5.2465184,17.534437 5.2465184,20.535563 5.41,23.53 L5.33,23.54 C5.33,23.54 4.06,21.61 2.79,22.26 C1.53,22.89 2.15,28.68 2.15,28.68 C2.15,28.68 2.78,33.14 6.53,35.08 C6.37,38.8 6.09,42.18 10.15,46.04 C10.6325876,46.4946547 11.0899378,46.9753732 11.52,47.48 L11.52,57 C11.5199862,58.100676 12.4093377,58.9944966 13.51,59 L30.49,59 C31.5906623,58.9944966 32.4800138,58.100676 32.48,57 L32.48,47.48 C32.9100622,46.9753732 33.3674124,46.4946547 33.85,46.04 C37.91,42.18 37.63,38.8 37.47,35.08 C41.22,33.14 41.85,28.68 41.85,28.68 C41.85,28.68 42.47,22.89 41.21,22.26 Z" id="Shape" fill="#955BA5"/><path d="M38.59,23.53 C38.27,28.49 37.41,30.06 37.41,33.18 C37.41,33.83 37.43,34.46 37.47,35.08 C37.63,38.8 37.91,42.18 33.85,46.04 C33.3674124,46.4946547 32.9100622,46.9753732 32.48,47.48 C29.06,51.45 28.6,55.04 24.37,55.04 L19.63,55.04 C15.4,55.04 14.94,51.45 11.52,47.48 C11.0899378,46.9753732 10.6325876,46.4946547 10.15,46.04 C6.09,42.18 6.37,38.8 6.53,35.08 C6.57,34.46 6.59,33.83 6.59,33.18 C6.59,30.06 5.73,28.49 5.41,23.53 C5.2465184,20.535563 5.2465184,17.534437 5.41,14.54 C5.95,2.79 18.37,1.24 20.5,1.06 C20.7,1.04 20.81,1.04 20.81,1.04 L23.19,1.04 C23.19,1.04 38,1.68 38.59,14.54 C38.7534816,17.534437 38.7534816,20.535563 38.59,23.53 Z" id="Shape" fill="#6A1B9A"/><path d="M35.59,23.53 C35.27,28.49 34.41,30.06 34.41,33.18 C34.41,33.83 34.43,34.46 34.47,35.08 C34.63,38.8 34.91,42.18 30.85,46.04 C30.3674124,46.4946547 29.9100622,46.9753732 29.48,47.48 C26.06,51.45 25.6,55.04 21.37,55.04 L19.63,55.04 C15.4,55.04 14.94,51.45 11.52,47.48 C11.0899378,46.9753732 10.6325876,46.4946547 10.15,46.04 C6.09,42.18 6.37,38.8 6.53,35.08 C6.57,34.46 6.59,33.83 6.59,33.18 C6.59,30.06 5.73,28.49 5.41,23.53 C5.2465184,20.535563 5.2465184,17.534437 5.41,14.54 C5.95,2.79 18.37,1.24 20.5,1.06 C22.63,1.24 35.05,2.79 35.59,14.54 C35.7534816,17.534437 35.7534816,20.535563 35.59,23.53 Z" id="Shape" fill="#9D27B0"/><path d="M6.59,33.18 C6.59,33.83 6.57,34.46 6.53,35.08 C2.78,33.14 2.15,28.68 2.15,28.68 C2.15,28.68 1.53,22.89 2.79,22.26 C4.06,21.61 5.33,23.54 5.33,23.54 L5.41,23.53 C5.73,28.49 6.59,30.06 6.59,33.18 Z" id="Shape" fill="#673AB7"/><path d="M32.482,47.48 L32.482,57 C32.4820138,58.100676 31.5926623,58.9944966 30.492,59 L13.513,59 C12.4123377,58.9944966 11.5229862,58.100676 11.523,57 L11.523,47.48 C14.943,51.45 15.403,55.04 19.633,55.04 L24.373,55.04 C28.6,55.04 29.063,51.45 32.482,47.48 Z" id="Shape" fill="#673AB7"/><path d="M41.852,28.68 C41.852,28.68 41.222,33.14 37.472,35.08 C37.433,34.46 37.412,33.83 37.412,33.18 C37.412,30.06 38.273,28.49 38.593,23.53 L38.672,23.54 C38.672,23.54 39.943,21.61 41.213,22.26 C42.472,22.89 41.852,28.68 41.852,28.68 Z" id="Shape" fill="#90BAE1"/><path d="M60,30 C59.9946937,35.0047678 57.1168524,39.5620809 52.6002882,41.7180902 C48.0837239,43.8740996 42.7305517,43.2459106 38.8358281,40.1028456 C34.9411045,36.9597807 33.1965094,31.8600296 34.35,26.99 L46.65,17.01 C46.77,17 46.88,17 47,17 C54.1797017,17 60,22.8202983 60,30 Z" id="Shape" fill="#0377BC"/><path d="M57,29 C57,36.18 51.646,42 45.04,42 C42.0454927,41.9840728 39.1772511,40.7916658 37.054,38.68 C35.0600922,36.2284445 33.9804699,33.1599701 34,30 C33.9984997,28.9879919 34.1064609,27.9787899 34.322,26.99 L45.638,17.01 C45.748,17 45.85,17 45.96,17 C48.9545073,17.0159272 51.8227489,18.2083342 53.946,20.32 C55.9399078,22.7715555 57.0195301,25.8400299 57,29 Z" id="Shape" fill="#02A9F4"/><circle id="Oval" fill="#607D8B" cx="42" cy="27" r="2"/><circle id="Oval" fill="#607D8B" cx="52" cy="27" r="2"/><path d="M47,14 C46.9989078,20.1354806 42.7082607,25.4349199 36.7073017,26.7126581 C30.7063427,27.9903963 24.6290001,24.8985335 22.1285557,19.2956859 C19.6281113,13.6928383 21.3853808,7.10453707 26.3440142,3.49121747 C31.3026476,-0.122102131 38.1125188,0.223386803 42.68,4.32 C45.4298618,6.78637471 47.0006576,10.3061208 47,14 Z" id="Shape" fill="#FEC108"/><path d="M44,13 C44,20.18 38.646,26 32.04,26 C29.0454927,25.9840728 26.1772511,24.7916658 24.054,22.68 C22.0600922,20.2284445 20.9804699,17.1599701 21,14 C21,6.82 26.354,1 32.96,1 C35.9545073,1.01592719 38.8227489,2.20833415 40.946,4.32 C42.9399078,6.77155546 44.0195301,9.84002987 44,13 Z" id="Shape" fill="#FFDC00"/><circle id="Oval" fill="#607D8B" cx="29" cy="11" r="2"/><circle id="Oval" fill="#607D8B" cx="39" cy="11" r="2"/><path d="M6.53,36.076 C6.37067056,36.0760148 6.21364387,36.0379581 6.072,35.965 C1.907,33.813 1.192,29.026 1.164,28.823 C0.842,25.835 0.788,22.147 2.339,21.365 C3.969,20.54 5.511,21.996 6.166,22.988 C6.45864172,23.4487382 6.32777555,24.0590241 5.87195367,24.359266 C5.41613178,24.659508 4.80375962,24.5387803 4.496,24.088 C4.205,23.654 3.61,23.11 3.307,23.128 C2.97,23.72 2.894,26.2 3.148,28.576 C3.148,28.576 3.759,32.517 6.99,34.186 C7.39951073,34.3980617 7.61090029,34.8626656 7.50173467,35.3107193 C7.39256905,35.7587729 6.99116073,36.0740722 6.53,36.074 L6.53,36.076 Z" id="Shape" fill="#000000"/><path d="M24.37,56.04 L19.63,56.04 C16.158,56.04 14.786,53.933 13.197,51.491 C12.152706,49.7669717 10.8977094,48.1797503 9.461,46.766 C5.191,42.711 5.361,38.977 5.524,35.366 C5.557,34.651 5.59,33.925 5.59,33.181 C5.56909313,31.8555116 5.41871188,30.5352379 5.141,29.239 C4.665,26.617 4.013,23.026 4.411,14.494 C5.036,0.878 20.61,0.048 20.767,0.041 L23.19,0.041 C25.1455249,0.177506888 27.0753641,0.56502074 28.932,1.194 C29.4032689,1.33850822 29.6989419,1.80487606 29.628603,2.29275871 C29.5582641,2.78064137 29.1428963,3.1444972 28.65,3.15 L28.64,3.15 C28.531539,3.15022231 28.4237756,3.13265586 28.321,3.098 C26.6470542,2.53004852 24.9084882,2.1742724 23.146,2.039 L20.81,2.039 C20.287,2.063 6.949,2.804 6.41,14.585 C6.022,22.891 6.625,26.212 7.11,28.885 C7.41069164,30.2991556 7.57212921,31.7393663 7.592,33.185 C7.592,33.96 7.558,34.717 7.524,35.461 C7.361,39.056 7.232,41.895 10.84,45.319 C12.387927,46.8408441 13.742768,48.5473258 14.874,50.4 C16.517,52.924 17.339,54.04 19.63,54.04 L24.37,54.04 C26.661,54.04 27.483,52.924 29.126,50.4 C30.2575158,48.5454611 31.6130448,46.8372796 33.162,45.314 C35.1108694,43.6717518 36.3126641,41.3110835 36.494,38.769 C36.5158799,38.4074707 36.731536,38.0860309 37.0577673,37.928693 C37.3839987,37.771355 37.7698064,37.8027152 38.0663448,38.0106747 C38.3628831,38.2186342 38.523795,38.5706831 38.487,38.931 C38.2540944,41.9603746 36.8353782,44.7755271 34.539,46.765 C33.1014027,48.1790921 31.8454137,49.7666298 30.8,51.491 C29.214,53.933 27.842,56.04 24.37,56.04 Z" id="Shape" fill="#000000"/><path d="M30.487,60 L13.513,60 C11.8561458,60 10.513,58.6568542 10.513,57 L10.513,47.48 C10.513,46.9277153 10.9607153,46.48 11.513,46.48 C12.0652847,46.48 12.513,46.9277153 12.513,47.48 L12.513,57 C12.513,57.5522847 12.9607153,58 13.513,58 L30.487,58 C31.0392847,58 31.487,57.5522847 31.487,57 L31.487,47.48 C31.487,46.9277153 31.9347153,46.4800001 32.487,46.4800001 C33.0392847,46.4800001 33.487,46.9277153 33.487,47.48 L33.487,57 C33.487,58.6568542 32.1438542,60 30.487,60 Z" id="Shape" fill="#000000"/><path d="M34,28 C26.2680135,28 20,21.7319865 20,14 C20,6.2680135 26.2680135,1.42034288e-15 34,0 C41.7319865,-1.42034288e-15 48,6.2680135 48,14 C47.9917327,21.7285595 41.7285595,27.9917327 34,28 Z M34,2 C27.372583,2 22,7.372583 22,14 C22,20.627417 27.372583,26 34,26 C40.627417,26 46,20.627417 46,14 C45.9928352,7.37555305 40.624447,2.00716485 34,2 Z" id="Shape" fill="#000000"/><path d="M29,14 C27.3431458,14 26,12.6568542 26,11 C26,9.34314575 27.3431458,8 29,8 C30.6568542,8 32,9.34314575 32,11 C32,11.7956495 31.6839295,12.5587112 31.1213203,13.1213203 C30.5587112,13.6839295 29.7956495,14 29,14 Z M29,10 C28.4477153,10 28,10.4477153 28,11 C28,11.5522847 28.4477153,12 29,12 C29.5522847,12 30,11.5522847 30,11 C30,10.4477153 29.5522847,10 29,10 Z" id="Shape" fill="#000000"/><path d="M39,14 C37.3431458,14 36,12.6568542 36,11 C36,9.34314575 37.3431458,8 39,8 C40.6568542,8 42,9.34314575 42,11 C42,11.7956495 41.6839295,12.5587112 41.1213203,13.1213203 C40.5587112,13.6839295 39.7956495,14 39,14 Z M39,10 C38.4477153,10 38,10.4477153 38,11 C38,11.5522847 38.4477153,12 39,12 C39.5522847,12 40,11.5522847 40,11 C40,10.4477153 39.5522847,10 39,10 Z" id="Shape" fill="#000000"/><path d="M34,23 C30.6876624,22.9966926 28.0033074,20.3123376 28,17 C28,16.4477153 28.4477153,16 29,16 C29.5522847,16 30,16.4477153 30,17 C30,19.209139 31.790861,21 34,21 C36.209139,21 38,19.209139 38,17 C38,16.4477153 38.4477153,16 39,16 C39.5522847,16 40,16.4477153 40,17 C39.9966926,20.3123376 37.3123376,22.9966926 34,23 Z" id="Shape" fill="#000000"/><path d="M47,44 C42.7181136,43.9963004 38.6729434,42.0349579 36.0181988,38.6753604 C33.3634542,35.3157629 32.3905629,30.9267141 33.377,26.76 C33.5095573,26.2286273 34.0448735,25.9027319 34.5777814,26.0289758 C35.1106894,26.1552197 35.4429127,26.6866318 35.323,27.221 C34.1396983,32.1917112 36.2337882,37.3665564 40.5409615,40.1154528 C44.8481347,42.8643492 50.4236004,42.5843184 54.4336629,39.4176843 C58.4437254,36.2510502 60.0087659,30.8924232 58.3333623,26.065292 C56.6579586,21.2381608 52.1096155,18.0013707 47,18 C46.9102727,17.9977832 46.8204906,18.0001196 46.731,18.007 C46.3748062,18.0359385 46.030231,17.8726517 45.8270726,17.5786481 C45.6239143,17.2846444 45.5930372,16.9045902 45.7460726,16.5816481 C45.8991081,16.2587059 46.2128062,16.0419385 46.569,16.013 C46.717,16 46.852,16 47,16 C54.7319865,16 61,22.2680135 61,30 C61,37.7319865 54.7319865,44 47,44 Z" id="Shape" fill="#000000"/><path d="M42,30 C40.3431458,30 39,28.6568542 39,27 C39,25.3431458 40.3431458,24 42,24 C43.6568542,24 45,25.3431458 45,27 C45,28.6568542 43.6568542,30 42,30 Z M42,26 C41.4477153,26 41,26.4477153 41,27 C41,27.5522847 41.4477153,28 42,28 C42.5522847,28 43,27.5522847 43,27 C43,26.4477153 42.5522847,26 42,26 Z" id="Shape" fill="#000000"/><path d="M52,30 C50.3431458,30 49,28.6568542 49,27 C49,25.3431458 50.3431458,24 52,24 C53.6568542,24 55,25.3431458 55,27 C55,28.6568542 53.6568542,30 52,30 Z M52,26 C51.4477153,26 51,26.4477153 51,27 C51,27.5522847 51.4477153,28 52,28 C52.5522847,28 53,27.5522847 53,27 C53,26.4477153 52.5522847,26 52,26 Z" id="Shape" fill="#000000"/><path d="M52,39 C51.4477153,39 51,38.5522847 51,38 C51,35.790861 49.209139,34 47,34 C44.790861,34 43,35.790861 43,38 C43,38.5522847 42.5522847,39 42,39 C41.4477153,39 41,38.5522847 41,38 C41,34.6862915 43.6862915,32 47,32 C50.3137085,32 53,34.6862915 53,38 C53,38.5522847 52.5522847,39 52,39 Z" id="Shape" fill="#000000"/></g></g></svg>
