<?xml version="1.0" encoding="UTF-8"?>
<svg xmlns="http://www.w3.org/2000/svg" xmlns:xlink="http://www.w3.org/1999/xlink" width="512" height="512" viewBox="0 0 60 60" version="1.1"><!-- Generator: Sketch 51.3 (57544) - http://www.bohemiancoding.com/sketch --><title>085 - Peace</title><desc>Created with Sketch.</desc><defs/><g id="Page-1" stroke="none" stroke-width="1" fill="none" fill-rule="evenodd"><g id="085---Peace" transform="translate(-1.000000, 0.000000)" fill-rule="nonzero"><path d="M41.21,22.26 C39.94,21.61 38.67,23.54 38.67,23.54 L38.59,23.53 C38.7534816,20.535563 38.7534816,17.534437 38.59,14.54 C38,1.68 23.19,1.04 23.19,1.04 L20.81,1.04 C20.81,1.04 6,1.68 5.41,14.54 C5.2465184,17.534437 5.2465184,20.535563 5.41,23.53 L5.33,23.54 C5.33,23.54 4.06,21.61 2.79,22.26 C1.53,22.89 2.15,28.68 2.15,28.68 C2.15,28.68 2.78,33.14 6.53,35.08 C6.37,38.8 6.09,42.18 10.15,46.04 C10.6325876,46.4946547 11.0899378,46.9753732 11.52,47.48 L11.52,57 C11.5199862,58.100676 12.4093377,58.9944966 13.51,59 L30.49,59 C31.5906623,58.9944966 32.4800138,58.100676 32.48,57 L32.48,47.48 C32.9100622,46.9753732 33.3674124,46.4946547 33.85,46.04 C37.91,42.18 37.63,38.8 37.47,35.08 C41.22,33.14 41.85,28.68 41.85,28.68 C41.85,28.68 42.47,22.89 41.21,22.26 Z" id="Shape" fill="#4FBA6F"/><path d="M38.59,23.53 C38.27,28.49 37.41,30.06 37.41,33.18 C37.41,33.83 37.43,34.46 37.47,35.08 C37.63,38.8 37.91,42.18 33.85,46.04 C33.3674124,46.4946547 32.9100622,46.9753732 32.48,47.48 C29.06,51.45 28.6,55.04 24.37,55.04 L19.63,55.04 C15.4,55.04 14.94,51.45 11.52,47.48 C11.0899378,46.9753732 10.6325876,46.4946547 10.15,46.04 C6.09,42.18 6.37,38.8 6.53,35.08 C6.57,34.46 6.59,33.83 6.59,33.18 C6.59,30.06 5.73,28.49 5.41,23.53 C5.2465184,20.535563 5.2465184,17.534437 5.41,14.54 C5.95,2.79 18.37,1.24 20.5,1.06 C20.7,1.04 20.81,1.04 20.81,1.04 L23.19,1.04 C23.19,1.04 38,1.68 38.59,14.54 C38.7534816,17.534437 38.7534816,20.535563 38.59,23.53 Z" id="Shape" fill="#549414"/><path d="M35.59,23.53 C35.27,28.49 34.41,30.06 34.41,33.18 C34.41,33.83 34.43,34.46 34.47,35.08 C34.63,38.8 34.91,42.18 30.85,46.04 C30.3674124,46.4946547 29.9100622,46.9753732 29.48,47.48 C26.06,51.45 25.6,55.04 21.37,55.04 L19.63,55.04 C15.4,55.04 14.94,51.45 11.52,47.48 C11.0899378,46.9753732 10.6325876,46.4946547 10.15,46.04 C6.09,42.18 6.37,38.8 6.53,35.08 C6.57,34.46 6.59,33.83 6.59,33.18 C6.59,30.06 5.73,28.49 5.41,23.53 C5.2465184,20.535563 5.2465184,17.534437 5.41,14.54 C5.95,2.79 18.37,1.24 20.5,1.06 C22.63,1.24 35.05,2.79 35.59,14.54 C35.7534816,17.534437 35.7534816,20.535563 35.59,23.53 Z" id="Shape" fill="#60A917"/><path d="M6.59,33.18 C6.59,33.83 6.57,34.46 6.53,35.08 C2.78,33.14 2.15,28.68 2.15,28.68 C2.15,28.68 1.53,22.89 2.79,22.26 C4.06,21.61 5.33,23.54 5.33,23.54 L5.41,23.53 C5.73,28.49 6.59,30.06 6.59,33.18 Z" id="Shape" fill="#008A00"/><path d="M32.482,47.48 L32.482,57 C32.4820138,58.100676 31.5926623,58.9944966 30.492,59 L13.513,59 C12.4123377,58.9944966 11.5229862,58.100676 11.523,57 L11.523,47.48 C14.943,51.45 15.403,55.04 19.633,55.04 L24.373,55.04 C28.6,55.04 29.063,51.45 32.482,47.48 Z" id="Shape" fill="#008A00"/><circle id="Oval" fill="#FFDC00" cx="42" cy="19" r="18"/><path d="M44.25,1.14 C43.5035164,1.0479278 42.7521394,1.00117545 42,1 C32.2839297,1.00538891 24.3276537,8.72463998 24.0285068,18.4361055 C23.72936,28.147571 31.195443,36.3418843 40.8927608,36.9452729 C50.5900786,37.5486616 59.0143771,30.3430832 59.9214147,20.669442 C60.8284522,10.9958008 53.8904589,2.34979517 44.25,1.14 Z M56,19 C56.0035333,21.9335838 55.0795003,24.793186 53.36,27.17 L44,17.81 L44,5.14 C50.8836449,6.14484693 55.9906227,12.0434063 56,19 Z M40,5.14 L40,17.81 L30.64,27.17 C27.7792499,23.1993319 27.2007757,18.0226302 29.1144962,13.5184355 C31.0282167,9.01424078 35.1560224,5.83712061 40,5.14 Z M40,23.47 L40,32.86 C37.5995734,32.5116607 35.3315548,31.5430996 33.42,30.05 L40,23.47 Z M44,32.86 L44,23.47 L50.58,30.05 C48.6684452,31.5430996 46.4004266,32.5116607 44,32.86 Z" id="Shape" fill="#9D27B0"/><path d="M60,19 C59.9917289,28.9376975 51.9376975,36.9917289 42,37 C41.499137,37.0020944 40.9984912,36.978731 40.5,36.93 C49.6704902,36.1479837 56.7738163,28.5739626 56.9666444,19.3722096 C57.1594724,10.1704567 50.3796787,2.30550689 41.25,1.14 C40.98,1.11 40.71,1.08 40.44,1.07 C40.95,1.02 41.47,1 42,1 C42.7521394,1.00117545 43.5035164,1.0479278 44.25,1.14 C53.2504455,2.27394953 60.000594,9.92840364 60,19 Z" id="Shape" fill="#6A1B9A"/><path d="M6.53,36.076 C6.37067056,36.0760148 6.21364387,36.0379581 6.072,35.965 C1.907,33.813 1.192,29.026 1.164,28.823 C0.842,25.835 0.788,22.147 2.339,21.365 C3.968,20.54 5.511,21.996 6.166,22.988 C6.45864172,23.4487382 6.32777555,24.0590241 5.87195367,24.359266 C5.41613178,24.659508 4.80375962,24.5387803 4.496,24.088 C4.205,23.654 3.601,23.11 3.307,23.128 C2.97,23.72 2.894,26.2 3.148,28.576 C3.148,28.576 3.759,32.517 6.99,34.186 C7.39951073,34.3980617 7.61090029,34.8626656 7.50173467,35.3107193 C7.39256905,35.7587729 6.99116073,36.0740722 6.53,36.074 L6.53,36.076 Z" id="Shape" fill="#000000"/><path d="M24.37,56.04 L19.63,56.04 C16.158,56.04 14.786,53.933 13.197,51.491 C12.152706,49.7669717 10.8977094,48.1797503 9.461,46.766 C5.191,42.711 5.361,38.977 5.524,35.366 C5.557,34.651 5.59,33.925 5.59,33.181 C5.56909313,31.8555116 5.41871188,30.5352379 5.141,29.239 C4.665,26.617 4.013,23.026 4.411,14.494 C5.036,0.878 20.61,0.048 20.767,0.041 L23.19,0.041 C26.5845136,0.277095081 29.8794978,1.28943627 32.821,3 C33.2435435,3.30666062 33.3590614,3.88677599 33.0862218,4.33190774 C32.8133823,4.77703948 32.2440189,4.93736288 31.779,4.7 C29.1347161,3.1822792 26.185719,2.27226782 23.146,2.036 L20.81,2.036 C20.287,2.06 6.949,2.801 6.41,14.582 C6.022,22.888 6.625,26.209 7.11,28.882 C7.41069164,30.2961556 7.57212921,31.7363663 7.592,33.182 C7.592,33.957 7.558,34.714 7.524,35.458 C7.361,39.053 7.232,41.892 10.84,45.316 C12.3881224,46.8387753 13.7429708,48.5462739 14.874,50.4 C16.517,52.924 17.339,54.04 19.63,54.04 L24.37,54.04 C26.661,54.04 27.483,52.924 29.126,50.4 C30.2575158,48.5454611 31.6130448,46.8372796 33.162,45.314 C36.441,42.201 36.624,39.469 36.521,36.475 C36.5118245,36.2099093 36.6083449,35.9520333 36.7893227,35.758115 C36.9703006,35.5641968 37.2209075,35.450125 37.486,35.441 C37.7538139,35.4211976 38.0177318,35.514123 38.2140593,35.6973494 C38.4103868,35.8805758 38.5212888,36.1374581 38.52,36.406 C38.635,39.764 38.42,43.083 34.539,46.766 C33.1012364,48.1795735 31.845226,49.7668026 30.8,51.491 C29.214,53.933 27.842,56.04 24.37,56.04 Z" id="Shape" fill="#000000"/><path d="M32.311,4.85 L32.288,4.85 C31.7404072,4.84342842 31.2999606,4.3976322 31.3,3.85 C31.2858208,3.37825436 31.6033983,2.9608177 32.0618275,2.84862317 C32.5202568,2.73642864 32.9947184,2.96002414 33.2,3.385 C33.3627052,3.69477263 33.3516656,4.06705643 33.1708908,4.36664367 C32.990116,4.6662309 32.6659026,4.84954155 32.316,4.85 L32.311,4.85 Z" id="Shape" fill="#000000"/><path d="M30.487,60 L13.513,60 C11.8561458,60 10.513,58.6568542 10.513,57 L10.513,47.48 C10.513,46.9277153 10.9607153,46.48 11.513,46.48 C12.0652847,46.48 12.513,46.9277153 12.513,47.48 L12.513,57 C12.513,57.5522847 12.9607153,58 13.513,58 L30.487,58 C31.0392847,58 31.487,57.5522847 31.487,57 L31.487,47.48 C31.487,46.9277153 31.9347153,46.4800001 32.487,46.4800001 C33.0392847,46.4800001 33.487,46.9277153 33.487,47.48 L33.487,57 C33.487,58.6568542 32.1438542,60 30.487,60 Z" id="Shape" fill="#000000"/><path d="M42,38 C31.5065898,38 23,29.4934102 23,19 C23,8.50658975 31.5065898,1.92760819e-15 42,0 C42.7925218,0.00184132893 43.5842397,0.0505932568 44.371,0.146 C53.8688457,1.35040991 60.9915047,9.4260978 61,19 C60.9911777,29.4897537 52.4897537,37.9911777 42,38 Z M42,2 C32.6154999,2.01047101 25.010471,9.61549991 25,19 C25.0039706,26.269768 29.6301291,32.7324725 36.5104418,35.0799903 C43.3907545,37.427508 51.0023453,35.1402437 55.449,29.389 C57.7627639,26.4214177 59.0132385,22.7629607 59,19 C58.9928146,10.4359879 52.6227156,3.21143126 44.127,2.132 C43.4212981,2.04528292 42.7110088,2.00120291 42,2 Z M44,33.86 C43.4477153,33.86 43,33.4122847 43,32.86 L43,23.47 C43.0000863,23.0656041 43.2437275,22.7010659 43.6173454,22.546322 C43.9909634,22.3915781 44.4210057,22.4770921 44.707,22.763 L51.287,29.343 C51.4909581,29.5460196 51.5975668,29.8270656 51.579568,30.1142796 C51.5615693,30.4014936 51.420708,30.6670315 51.193,30.843 C49.1433262,32.440767 46.7135584,33.4783547 44.142,33.854 C44.0948375,33.8589515 44.0474121,33.8609554 44,33.86 Z M45,25.884 L45,31.652 C46.4340728,31.3084873 47.7990011,30.722745 49.036,29.92 L45,25.884 Z M40,33.86 C39.9525254,33.8599597 39.9050998,33.8569538 39.858,33.851 C37.2865167,33.4750878 34.8568146,32.4375282 32.807,30.84 C32.579292,30.6640315 32.4384307,30.3984936 32.420432,30.1112796 C32.4024332,29.8240656 32.5090419,29.5430196 32.713,29.34 L39.293,22.76 C39.5793801,22.4737033 40.0101518,22.3883786 40.3840431,22.5438929 C40.7579344,22.6994071 41.0011299,23.0650579 41,23.47 L41,32.86 C41,33.4122847 40.5522847,33.86 40,33.86 Z M34.963,29.92 C36.2004433,30.7225893 37.5656722,31.3083154 39,31.652 L39,25.884 L34.963,29.92 Z M53.363,28.17 C53.0978052,28.1699434 52.8434927,28.0645494 52.656,27.877 L43.296,18.517 C43.10735,18.3299996 43.0008514,18.0756262 43,17.81 L43,5.14 C42.9998923,4.84988587 43.1257814,4.57402475 43.345,4.384 C43.5633462,4.19045398 43.8567701,4.10462749 44.145,4.15 C51.5074336,5.24953563 56.9666566,11.5559893 57,19 C57.0055791,22.1439143 56.0152202,25.2088107 54.171,27.755 C53.9995243,27.9928671 53.7322871,28.1434851 53.44,28.167 C53.414,28.169 53.387,28.17 53.36,28.17 L53.363,28.17 Z M45,17.4 L53.2,25.6 C54.3847953,23.6028279 55.0067977,21.3221521 55,19 C54.9712231,12.9853886 50.8453124,7.76528643 45,6.348 L45,17.4 Z M30.64,28.17 L30.56,28.17 C30.2677129,28.1464851 30.0004757,27.9958671 29.829,27.758 C27.983804,25.2111702 26.993374,22.1450034 27,19 C27.0334938,11.5553362 32.4937724,5.24864436 39.857,4.15 C40.1451648,4.10562723 40.4381699,4.19133123 40.657,4.384 C40.8754752,4.57439551 41.0006107,4.85020437 41,5.14 L41,17.81 C40.9999434,18.0751948 40.8945494,18.3295073 40.707,18.517 L31.347,27.877 C31.1595073,28.0645494 30.9051948,28.1699434 30.64,28.17 Z M39,6.348 C33.1544822,7.76496595 29.0284177,12.9852629 29,19 C28.9945342,21.3200838 29.6164804,23.59848 30.8,25.594 L39,17.4 L39,6.348 Z" id="Shape" fill="#000000"/></g></g></svg>
