<?xml version="1.0" encoding="UTF-8"?>
<svg xmlns="http://www.w3.org/2000/svg" xmlns:xlink="http://www.w3.org/1999/xlink" width="512" height="512" viewBox="0 0 60 60" version="1.1"><!-- Generator: Sketch 51.3 (57544) - http://www.bohemiancoding.com/sketch --><title>086 - Idea</title><desc>Created with Sketch.</desc><defs/><g id="Page-1" stroke="none" stroke-width="1" fill="none" fill-rule="evenodd"><g id="086---Idea" transform="translate(-1.000000, 0.000000)"><path d="M41.21,22.26 C39.94,21.61 38.67,23.54 38.67,23.54 L38.59,23.53 C38.7534816,20.535563 38.7534816,17.534437 38.59,14.54 C38,1.68 23.19,1.04 23.19,1.04 L20.81,1.04 C20.81,1.04 6,1.68 5.41,14.54 C5.2465184,17.534437 5.2465184,20.535563 5.41,23.53 L5.33,23.54 C5.33,23.54 4.06,21.61 2.79,22.26 C1.53,22.89 2.15,28.68 2.15,28.68 C2.15,28.68 2.78,33.14 6.53,35.08 C6.37,38.8 6.09,42.18 10.15,46.04 C10.6325876,46.4946547 11.0899378,46.9753732 11.52,47.48 L11.52,57 C11.5199862,58.100676 12.4093377,58.9944966 13.51,59 L30.49,59 C31.5906623,58.9944966 32.4800138,58.100676 32.48,57 L32.48,47.48 C32.9100622,46.9753732 33.3674124,46.4946547 33.85,46.04 C37.91,42.18 37.63,38.8 37.47,35.08 C41.22,33.14 41.85,28.68 41.85,28.68 C41.85,28.68 42.47,22.89 41.21,22.26 Z" id="Shape" fill="#AD1457" fill-rule="nonzero"/><path d="M38.59,23.53 C38.27,28.49 37.41,30.06 37.41,33.18 C37.41,33.83 37.43,34.46 37.47,35.08 C37.63,38.8 37.91,42.18 33.85,46.04 C33.3674124,46.4946547 32.9100622,46.9753732 32.48,47.48 C29.06,51.45 28.6,55.04 24.37,55.04 L19.63,55.04 C15.4,55.04 14.94,51.45 11.52,47.48 C11.0899378,46.9753732 10.6325876,46.4946547 10.15,46.04 C6.09,42.18 6.37,38.8 6.53,35.08 C6.57,34.46 6.59,33.83 6.59,33.18 C6.59,30.06 5.73,28.49 5.41,23.53 C5.2465184,20.535563 5.2465184,17.534437 5.41,14.54 C5.95,2.79 18.37,1.24 20.5,1.06 C20.7,1.04 20.81,1.04 20.81,1.04 L23.19,1.04 C23.19,1.04 38,1.68 38.59,14.54 C38.7534816,17.534437 38.7534816,20.535563 38.59,23.53 Z" id="Shape" fill="#AD1457" fill-rule="nonzero"/><path d="M35.59,23.53 C35.27,28.49 34.41,30.06 34.41,33.18 C34.41,33.83 34.43,34.46 34.47,35.08 C34.63,38.8 34.91,42.18 30.85,46.04 C30.3674124,46.4946547 29.9100622,46.9753732 29.48,47.48 C26.06,51.45 25.6,55.04 21.37,55.04 L19.63,55.04 C15.4,55.04 14.94,51.45 11.52,47.48 C11.0899378,46.9753732 10.6325876,46.4946547 10.15,46.04 C6.09,42.18 6.37,38.8 6.53,35.08 C6.57,34.46 6.59,33.83 6.59,33.18 C6.59,30.06 5.73,28.49 5.41,23.53 C5.2465184,20.535563 5.2465184,17.534437 5.41,14.54 C5.95,2.79 18.37,1.24 20.5,1.06 C22.63,1.24 35.05,2.79 35.59,14.54 C35.7534816,17.534437 35.7534816,20.535563 35.59,23.53 Z" id="Shape" fill="#E91E63" fill-rule="nonzero"/><path d="M6.59,33.18 C6.59,33.83 6.57,34.46 6.53,35.08 C2.78,33.14 2.15,28.68 2.15,28.68 C2.15,28.68 1.53,22.89 2.79,22.26 C4.06,21.61 5.33,23.54 5.33,23.54 L5.41,23.53 C5.73,28.49 6.59,30.06 6.59,33.18 Z" id="Shape" fill="#EF314C" fill-rule="nonzero"/><path d="M32.482,47.48 L32.482,57 C32.4820138,58.100676 31.5926623,58.9944966 30.492,59 L13.513,59 C12.4123377,58.9944966 11.5229862,58.100676 11.523,57 L11.523,47.48 C14.943,51.45 15.403,55.04 19.633,55.04 L24.373,55.04 C28.6,55.04 29.063,51.45 32.482,47.48 Z" id="Shape" fill="#EF314C" fill-rule="nonzero"/><path d="M53.96,18.97 C54.0255274,22.1248919 52.9131693,25.1910073 50.84,27.57 C48.88,29.75 44.96,31.25 44.96,34.74 L38.96,34.74 C38.96,31.25 35.04,29.75 33.08,27.57 C31.0109412,25.1885876 29.8991784,22.1241132 29.96,18.97 C30.0377916,12.9087095 34.4724263,7.7856506 40.46,6.84 C40.9570031,6.7712081 41.4582634,6.73779075 41.96,6.74 C48.6004631,6.92071103 53.9053776,12.327303 53.96,18.97 Z" id="Shape" fill="#FEC108"/><path d="M50.96,18.97 C51.0255274,22.1248919 49.9131693,25.1910073 47.84,27.57 C45.88,29.75 41.96,31.25 41.96,34.74 L38.96,34.74 C38.96,31.25 35.04,29.75 33.08,27.57 C31.0109412,25.1885876 29.8991784,22.1241132 29.96,18.97 C30.0377916,12.9087095 34.4724263,7.7856506 40.46,6.84 C46.4494871,7.78220419 50.8858934,12.9073098 50.96,18.97 Z" id="Shape" fill="#FFDC00"/><path d="M38.962,40.74 L44.962,40.74 L44.962,41.74 C44.962,43.3968542 43.6188542,44.74 41.962,44.74 C40.3051458,44.74 38.962,43.3968542 38.962,41.74 L38.962,40.74 Z" id="Shape" fill="#F5F5F5" fill-rule="nonzero"/><ellipse id="Oval" fill="#FFEB3A" fill-rule="nonzero" cx="41.961" cy="16.74" rx="9" ry="10"/><path d="M46.96,36.74 L46.96,38.74 C46.96,39.8445695 46.0645695,40.74 44.96,40.74 L38.96,40.74 C37.8567981,40.7367052 36.9632948,39.8432019 36.96,38.74 L36.96,36.74 C36.9632948,35.6367981 37.8567981,34.7432948 38.96,34.74 L44.96,34.74 C46.0645695,34.74 46.96,35.6354305 46.96,36.74 Z" id="Shape" fill="#545C60"/><path d="M43.96,36.74 L43.96,38.74 C43.96,39.8445695 43.0645695,40.74 41.96,40.74 L38.96,40.74 C37.8567981,40.7367052 36.9632948,39.8432019 36.96,38.74 L36.96,36.74 C36.9632948,35.6367981 37.8567981,34.7432948 38.96,34.74 L41.96,34.74 C43.0645695,34.74 43.96,35.6354305 43.96,36.74 Z" id="Shape" fill="#7F8E94"/><path d="M6.529,36.076 C6.36970273,36.0757464 6.21273817,36.0377047 6.071,35.965 C1.907,33.813 1.192,29.026 1.164,28.823 C0.842,25.835 0.788,22.147 2.34,21.365 C3.969,20.538 5.511,21.995 6.166,22.988 C6.45864172,23.4487382 6.32777555,24.0590241 5.87195367,24.359266 C5.41613178,24.659508 4.80375962,24.5387803 4.496,24.088 C4.206,23.655 3.63,23.109 3.307,23.128 C2.971,23.72 2.894,26.2 3.148,28.576 C3.148,28.576 3.759,32.517 6.989,34.186 C7.39851073,34.3980617 7.60990029,34.8626656 7.50073467,35.3107193 C7.39156905,35.7587729 6.99016073,36.0740722 6.529,36.074 L6.529,36.076 Z" id="Shape" fill="#000000" fill-rule="nonzero"/><path d="M24.37,56.04 L19.63,56.04 C16.158,56.04 14.785,53.932 13.196,51.491 C12.1524813,49.7669775 10.8981461,48.1797429 9.462,46.766 C5.191,42.711 5.362,38.977 5.524,35.366 C5.557,34.651 5.59,33.925 5.59,33.181 C5.56909313,31.8555116 5.41871188,30.5352379 5.141,29.239 C4.664,26.618 4.013,23.026 4.411,14.494 C5.036,0.878 20.609,0.048 20.767,0.041 L23.19,0.041 C23.645,0.06 33.351,0.558 37.657,7.747 C37.9195085,8.21878858 37.7601213,8.81376774 37.2969202,9.0911482 C36.8337192,9.36852867 36.2339718,9.22814491 35.942,8.774 C32.183,2.5 23.237,2.044 23.142,2.04 L20.81,2.04 C20.286,2.064 6.949,2.805 6.41,14.586 C6.022,22.893 6.625,26.213 7.11,28.886 C7.41020531,30.3002344 7.57163752,31.7403972 7.592,33.186 C7.592,33.961 7.558,34.718 7.524,35.462 C7.361,39.056 7.232,41.895 10.841,45.32 C12.3883331,46.8414941 13.7425138,48.5476543 14.873,50.4 C16.516,52.925 17.339,54.041 19.63,54.041 L24.37,54.041 C26.661,54.041 27.484,52.925 29.127,50.4 C30.2577698,48.5457895 31.6126386,46.8379294 33.161,45.315 C34.7823378,43.909503 35.9012129,42.0136995 36.348,39.915 C36.4116428,39.5605454 36.6609559,39.2676872 37.0007092,39.1482881 C37.3404625,39.028889 37.7181743,39.1013927 37.9895702,39.3381051 C38.2609661,39.5748174 38.3841235,39.9391733 38.312,40.292 C37.7938705,42.8050288 36.4685879,45.0798514 34.538,46.77 C33.1007124,48.182267 31.8450356,49.7681552 30.8,51.491 C29.215,53.932 27.842,56.04 24.37,56.04 Z" id="Shape" fill="#000000" fill-rule="nonzero"/><path d="M30.487,60 L13.513,60 C11.8561458,60 10.513,58.6568542 10.513,57 L10.513,47.48 C10.513,46.9277153 10.9607153,46.48 11.513,46.48 C12.0652847,46.48 12.513,46.9277153 12.513,47.48 L12.513,57 C12.513,57.5522847 12.9607153,58 13.513,58 L30.487,58 C31.0392847,58 31.487,57.5522847 31.487,57 L31.487,47.48 C31.487,46.9277153 31.9347153,46.4800001 32.487,46.4800001 C33.0392847,46.4800001 33.487,46.9277153 33.487,47.48 L33.487,57 C33.487,58.6568542 32.1438542,60 30.487,60 Z" id="Shape" fill="#000000" fill-rule="nonzero"/><path d="M45,42 L39,42 C37.3431458,42 36,40.6568542 36,39 L36,37 C36,35.3431458 37.3431458,34 39,34 L45,34 C46.6568542,34 48,35.3431458 48,37 L48,39 C48,40.6568542 46.6568542,42 45,42 Z M39,36 C38.4477153,36 38,36.4477153 38,37 L38,39 C38,39.5522847 38.4477153,40 39,40 L45,40 C45.5522847,40 46,39.5522847 46,39 L46,37 C46,36.4477153 45.5522847,36 45,36 L39,36 Z" id="Shape" fill="#000000" fill-rule="nonzero"/><path d="M42,46 C39.790861,46 38,44.209139 38,42 L38,41 C38,40.4477153 38.4477153,40 39,40 L45,40 C45.5522847,40 46,40.4477153 46,41 L46,42 C46,44.209139 44.209139,46 42,46 Z M40,42 C40,43.1045695 40.8954305,44 42,44 C43.1045695,44 44,43.1045695 44,42 L40,42 Z" id="Shape" fill="#000000" fill-rule="nonzero"/><path d="M44,36 C43.4477153,36 43,35.5522847 43,35 L43,23 L41,23 L41,35 C41,35.5522847 40.5522847,36 40,36 C39.4477153,36 39,35.5522847 39,35 L39,23 L38,23 C36.3431458,23 35,21.6568542 35,20 C35,18.3431458 36.3431458,17 38,17 C39.6568542,17 41,18.3431458 41,20 L41,21 L43,21 L43,20 C43,18.3431458 44.3431458,17 46,17 C47.6568542,17 49,18.3431458 49,20 C49,21.6568542 47.6568542,23 46,23 L45,23 L45,35 C45,35.5522847 44.5522847,36 44,36 Z M45,21 L46,21 C46.5522847,21 47,20.5522847 47,20 C47,19.4477153 46.5522847,19 46,19 C45.4477153,19 45,19.4477153 45,20 L45,21 Z M38,19 C37.4477153,19 37,19.4477153 37,20 C37,20.5522847 37.4477153,21 38,21 L39,21 L39,20 C39,19.4477153 38.5522847,19 38,19 Z" id="Shape" fill="#000000" fill-rule="nonzero"/><path d="M45,36 L39,36 C38.4477153,36 38,35.5522847 38,35 C38,33.065 36.388,31.819 34.681,30.5 C33.8563523,29.9030957 33.0866313,29.2337732 32.381,28.5 C30.1377973,25.9316175 28.9323478,22.6193944 29,19.21 C29.0278976,12.0073776 34.7987493,6.14330443 42,6 C49.2012507,6.14330443 54.9721024,12.0073776 55,19.21 C55.0683142,22.6193265 53.863178,25.9316685 51.62,28.5 C50.9145935,29.2340095 50.1448505,29.9033512 49.32,30.5 C47.611,31.819 46,33.065 46,35 C46,35.5522847 45.5522847,36 45,36 Z M39.91,34 L44.09,34 C44.52,31.682 46.406,30.224 48.095,28.918 C48.8236756,28.3921546 49.505243,27.8039388 50.132,27.16 C52.0391506,24.9686212 53.0616263,22.1454047 53,19.241 C52.9,13.147 47.868,8 42,8 C36.132,8 31.1,13.147 31,19.241 C30.9378468,22.1447827 31.9588004,24.9677337 33.864,27.16 C34.4909141,27.8030877 35.1721029,28.3909308 35.9,28.917 C37.592,30.223 39.479,31.682 39.909,34 L39.91,34 Z" id="Shape" fill="#000000" fill-rule="nonzero"/><path d="M60,20 L58,20 C57.4477153,20 57,19.5522847 57,19 C57,18.4477153 57.4477153,18 58,18 L60,18 C60.5522847,18 61,18.4477153 61,19 C61,19.5522847 60.5522847,20 60,20 Z" id="Shape" fill="#000000" fill-rule="nonzero"/><path d="M53.313,8.687 C52.9081643,8.68731896 52.5430763,8.44352001 52.3882414,8.06946359 C52.2334066,7.69540717 52.3193761,7.26489995 52.606,6.979 L54.021,5.565 C54.2720745,5.30504342 54.6438779,5.2007874 54.9935073,5.29230284 C55.3431368,5.38381828 55.6161817,5.65686324 55.7076972,6.00649268 C55.7992126,6.35612211 55.6949566,6.72792553 55.435,6.979 L54.021,8.394 C53.8332623,8.58179456 53.5785413,8.68720875 53.313,8.687 Z" id="Shape" fill="#000000" fill-rule="nonzero"/><path d="M42,4 C41.4477153,4 41,3.55228475 41,3 L41,1 C41,0.44771525 41.4477153,1.01453063e-16 42,0 C42.5522847,-1.01453063e-16 43,0.44771525 43,1 L43,3 C43,3.55228475 42.5522847,4 42,4 Z" id="Shape" fill="#000000" fill-rule="nonzero"/><path d="M30.687,8.687 C30.4214587,8.68720875 30.1667377,8.58179456 29.979,8.394 L28.565,6.979 C28.3050434,6.72792553 28.2007874,6.35612211 28.2923028,6.00649268 C28.3838183,5.65686324 28.6568632,5.38381828 29.0064927,5.29230284 C29.3561221,5.2007874 29.7279255,5.30504342 29.979,5.565 L31.394,6.979 C31.6806239,7.26489995 31.7665934,7.69540717 31.6117586,8.06946359 C31.4569237,8.44352001 31.0918357,8.68731896 30.687,8.687 Z" id="Shape" fill="#000000" fill-rule="nonzero"/><path d="M26,20 L24,20 C23.4477153,20 23,19.5522847 23,19 C23,18.4477153 23.4477153,18 24,18 L26,18 C26.5522847,18 27,18.4477153 27,19 C27,19.5522847 26.5522847,20 26,20 Z" id="Shape" fill="#000000" fill-rule="nonzero"/></g></g></svg>
