<?xml version="1.0" encoding="UTF-8"?>
<svg xmlns="http://www.w3.org/2000/svg" xmlns:xlink="http://www.w3.org/1999/xlink" width="512" height="512" viewBox="0 0 60 60" version="1.1"><!-- Generator: Sketch 51.3 (57544) - http://www.bohemiancoding.com/sketch --><title>087 - Goal</title><desc>Created with Sketch.</desc><defs/><g id="Page-1" stroke="none" stroke-width="1" fill="none" fill-rule="evenodd"><g id="087---Goal" transform="translate(-1.000000, 0.000000)" fill-rule="nonzero"><path d="M41.21,22.26 C39.94,21.61 38.67,23.54 38.67,23.54 L38.59,23.53 C38.7534816,20.535563 38.7534816,17.534437 38.59,14.54 C38,1.68 23.19,1.04 23.19,1.04 L20.81,1.04 C20.81,1.04 6,1.68 5.41,14.54 C5.2465184,17.534437 5.2465184,20.535563 5.41,23.53 L5.33,23.54 C5.33,23.54 4.06,21.61 2.79,22.26 C1.53,22.89 2.15,28.68 2.15,28.68 C2.15,28.68 2.78,33.14 6.53,35.08 C6.37,38.8 6.09,42.18 10.15,46.04 C10.6325876,46.4946547 11.0899378,46.9753732 11.52,47.48 L11.52,57 C11.5199862,58.100676 12.4093377,58.9944966 13.51,59 L30.49,59 C31.5906623,58.9944966 32.4800138,58.100676 32.48,57 L32.48,47.48 C32.9100622,46.9753732 33.3674124,46.4946547 33.85,46.04 C37.91,42.18 37.63,38.8 37.47,35.08 C41.22,33.14 41.85,28.68 41.85,28.68 C41.85,28.68 42.47,22.89 41.21,22.26 Z" id="Shape" fill="#FF9801"/><path d="M38.59,23.53 C38.27,28.49 37.41,30.06 37.41,33.18 C37.41,33.83 37.43,34.46 37.47,35.08 C37.63,38.8 37.91,42.18 33.85,46.04 C33.3674124,46.4946547 32.9100622,46.9753732 32.48,47.48 C29.06,51.45 28.6,55.04 24.37,55.04 L19.63,55.04 C15.4,55.04 14.94,51.45 11.52,47.48 C11.0899378,46.9753732 10.6325876,46.4946547 10.15,46.04 C6.09,42.18 6.37,38.8 6.53,35.08 C6.57,34.46 6.59,33.83 6.59,33.18 C6.59,30.06 5.73,28.49 5.41,23.53 C5.2465184,20.535563 5.2465184,17.534437 5.41,14.54 C5.95,2.79 18.37,1.24 20.5,1.06 C20.7,1.04 20.81,1.04 20.81,1.04 L23.19,1.04 C23.19,1.04 38,1.68 38.59,14.54 C38.7534816,17.534437 38.7534816,20.535563 38.59,23.53 Z" id="Shape" fill="#FEC108"/><path d="M35.59,23.53 C35.27,28.49 34.41,30.06 34.41,33.18 C34.41,33.83 34.43,34.46 34.47,35.08 C34.63,38.8 34.91,42.18 30.85,46.04 C30.3674124,46.4946547 29.9100622,46.9753732 29.48,47.48 C26.06,51.45 25.6,55.04 21.37,55.04 L19.63,55.04 C15.4,55.04 14.94,51.45 11.52,47.48 C11.0899378,46.9753732 10.6325876,46.4946547 10.15,46.04 C6.09,42.18 6.37,38.8 6.53,35.08 C6.57,34.46 6.59,33.83 6.59,33.18 C6.59,30.06 5.73,28.49 5.41,23.53 C5.2465184,20.535563 5.2465184,17.534437 5.41,14.54 C5.95,2.79 18.37,1.24 20.5,1.06 C22.63,1.24 35.05,2.79 35.59,14.54 C35.7534816,17.534437 35.7534816,20.535563 35.59,23.53 Z" id="Shape" fill="#FFDC00"/><path d="M6.59,33.18 C6.59,33.83 6.57,34.46 6.53,35.08 C2.78,33.14 2.15,28.68 2.15,28.68 C2.15,28.68 1.53,22.89 2.79,22.26 C4.06,21.61 5.33,23.54 5.33,23.54 L5.41,23.53 C5.73,28.49 6.59,30.06 6.59,33.18 Z" id="Shape" fill="#FF9801"/><path d="M32.482,47.48 L32.482,57 C32.4820138,58.100676 31.5926623,58.9944966 30.492,59 L13.513,59 C12.4123377,58.9944966 11.5229862,58.100676 11.523,57 L11.523,47.48 C14.943,51.45 15.403,55.04 19.633,55.04 L24.373,55.04 C28.6,55.04 29.063,51.45 32.482,47.48 Z" id="Shape" fill="#FF9801"/><path d="M52,12 L52,26 L36,26 L36,10 L50,10 C51.1032019,10.0032948 51.9967052,10.8967981 52,12 Z" id="Shape" fill="#C81E1E"/><path d="M49,12 L49,26 L36,26 L36,10 L47,10 C48.1032019,10.0032948 48.9967052,10.8967981 49,12 Z" id="Shape" fill="#F44335"/><path d="M60,17 L60,31 C60,31.5522847 59.5522847,32 59,32 L43,32 L52,26 L52,16 L59,16 C59.5522847,16 60,16.4477153 60,17 Z" id="Shape" fill="#C81E1E"/><path d="M57,17 L57,31 C57,31.5522847 56.5522847,32 56,32 L43,32 L52,26 L52,16 L56,16 C56.5522847,16 57,16.4477153 57,17 Z" id="Shape" fill="#F44335"/><polygon id="Shape" fill="#C81E1E" points="52 26 43 32 43 26"/><rect id="Rectangle-path" fill="#F5F5F5" x="32" y="6.23" width="4" height="31.77"/><path d="M42,41 L42,43 L26,43 L26,41 C26,38.790861 27.790861,37 30,37 L38,37 C40.209139,37 42,38.790861 42,41 Z" id="Shape" fill="#37474F"/><path d="M39,41 L39,43 L26,43 L26,41 C26,38.790861 27.790861,37 30,37 L35,37 C37.209139,37 39,38.790861 39,41 Z" id="Shape" fill="#607D8B"/><circle id="Oval" fill="#607D8B" cx="34" cy="4" r="4"/><path d="M6.529,36.076 C6.36970273,36.0757464 6.21273817,36.0377047 6.071,35.965 C1.907,33.813 1.192,29.026 1.164,28.823 C0.842,25.835 0.788,22.147 2.34,21.365 C3.969,20.538 5.511,21.995 6.166,22.988 C6.45864172,23.4487382 6.32777555,24.0590241 5.87195367,24.359266 C5.41613178,24.659508 4.80375962,24.5387803 4.496,24.088 C4.206,23.655 3.633,23.109 3.307,23.128 C2.971,23.72 2.894,26.2 3.148,28.576 C3.148,28.576 3.759,32.517 6.989,34.186 C7.39851073,34.3980617 7.60990029,34.8626656 7.50073467,35.3107193 C7.39156905,35.7587729 6.99016073,36.0740722 6.529,36.074 L6.529,36.076 Z" id="Shape" fill="#000000"/><path d="M24.37,56.04 L19.63,56.04 C16.158,56.04 14.785,53.932 13.196,51.491 C12.1524813,49.7669775 10.8981461,48.1797429 9.462,46.766 C5.191,42.711 5.362,38.977 5.524,35.366 C5.557,34.651 5.59,33.925 5.59,33.181 C5.56909313,31.8555116 5.41871188,30.5352379 5.141,29.239 C4.664,26.618 4.013,23.026 4.411,14.494 C5.036,0.878 20.609,0.048 20.767,0.041 L23.19,0.041 C26.1031978,0.244621909 28.9491692,1.01181156 31.57,2.3 C31.9004426,2.45406603 32.1208479,2.77576353 32.1451982,3.13954325 C32.1695485,3.50332298 31.9939842,3.85152548 31.687023,4.04825738 C31.3800618,4.24498928 30.9903573,4.25906838 30.67,4.085 C28.3135436,2.93662677 25.7615756,2.24316459 23.148,2.041 L20.81,2.041 C20.286,2.065 6.949,2.806 6.41,14.587 C6.022,22.894 6.625,26.214 7.11,28.887 C7.41020531,30.3012344 7.57163752,31.7413972 7.592,33.187 C7.592,33.962 7.558,34.719 7.524,35.463 C7.361,39.057 7.232,41.896 10.841,45.321 C12.3882679,46.8421837 13.7424462,48.5480049 14.873,50.4 C16.516,52.925 17.339,54.041 19.63,54.041 L24.37,54.041 C26.661,54.041 27.484,52.925 29.127,50.4 C30.2577698,48.5457895 31.6126386,46.8379294 33.161,45.315 C34.0496653,44.5034141 34.8070092,43.5588427 35.406,42.515 C35.5731885,42.1911973 35.9032847,41.9839783 36.2675697,41.9741468 C36.6318546,41.9643152 36.9726472,42.1534278 37.1570576,42.4677414 C37.3414681,42.7820549 37.3402966,43.1718007 37.154,43.485 C36.4565892,44.7079938 35.5733878,45.8152005 34.536,46.767 C33.0994186,48.1804958 31.8444309,49.7673699 30.8,51.491 C29.215,53.932 27.842,56.04 24.37,56.04 Z" id="Shape" fill="#000000"/><path d="M30.487,60 L13.513,60 C11.8561458,60 10.513,58.6568542 10.513,57 L10.513,47.48 C10.513,46.9277153 10.9607153,46.48 11.513,46.48 C12.0652847,46.48 12.513,46.9277153 12.513,47.48 L12.513,57 C12.513,57.5522847 12.9607153,58 13.513,58 L30.487,58 C31.0392847,58 31.487,57.5522847 31.487,57 L31.487,47.48 C31.487,46.9277153 31.9347153,46.4800001 32.487,46.4800001 C33.0392847,46.4800001 33.487,46.9277153 33.487,47.48 L33.487,57 C33.487,58.6568542 32.1438542,60 30.487,60 Z" id="Shape" fill="#000000"/><path d="M52,27 L36,27 C35.4477153,27 35,26.5522847 35,26 L35,10 C35,9.44771525 35.4477153,9 36,9 L50,9 C51.6568542,9 53,10.3431458 53,12 L53,26 C53,26.5522847 52.5522847,27 52,27 Z M37,25 L51,25 L51,12 C51,11.4477153 50.5522847,11 50,11 L37,11 L37,25 Z" id="Shape" fill="#000000"/><path d="M59,33 L43,33 C42.4477153,33 42,32.5522847 42,32 L42,26 C42,25.4477153 42.4477153,25 43,25 C43.5522847,25 44,25.4477153 44,26 L44,31 L59,31 L59,17 L52,17 C51.4477153,17 51,16.5522847 51,16 C51,15.4477153 51.4477153,15 52,15 L59,15 C60.1045695,15 61,15.8954305 61,17 L61,31 C61,32.1045695 60.1045695,33 59,33 Z" id="Shape" fill="#000000"/><path d="M34,8 C31.790861,8 30,6.209139 30,4 C30,1.790861 31.790861,4.05812251e-16 34,0 C36.209139,-4.05812251e-16 38,1.790861 38,4 C38,5.06086596 37.5785726,6.07828161 36.8284271,6.82842712 C36.0782816,7.57857264 35.060866,8 34,8 Z M34,2 C32.8954305,2 32,2.8954305 32,4 C32,5.1045695 32.8954305,6 34,6 C35.1045695,6 36,5.1045695 36,4 C36,3.46956702 35.7892863,2.96085919 35.4142136,2.58578644 C35.0391408,2.21071368 34.530433,2 34,2 Z" id="Shape" fill="#000000"/><path d="M36,38 L32,38 C31.4477153,38 31,37.5522847 31,37 L31,6.23 C31,5.67771525 31.4477153,5.23 32,5.23 C32.5522847,5.23 33,5.67771525 33,6.23 L33,36 L35,36 L35,6.23 C35,5.67771525 35.4477153,5.23 36,5.23 C36.5522847,5.23 37,5.67771525 37,6.23 L37,37 C37,37.5522847 36.5522847,38 36,38 Z" id="Shape" fill="#000000"/><path d="M42,44 L26,44 C25.4477153,44 25,43.5522847 25,43 L25,41 C25.0033061,38.2399468 27.2399468,36.0033061 30,36 L38,36 C40.7600532,36.0033061 42.9966939,38.2399468 43,41 L43,43 C43,43.2652165 42.8946432,43.5195704 42.7071068,43.7071068 C42.5195704,43.8946432 42.2652165,44 42,44 Z M27,42 L41,42 L41,41 C41,39.3431458 39.6568542,38 38,38 L30,38 C28.3431458,38 27,39.3431458 27,41 L27,42 Z" id="Shape" fill="#000000"/><path d="M42,44 L26,44 C25.4477153,44 25,43.5522847 25,43 L25,41 C25.0033061,38.2399468 27.2399468,36.0033061 30,36 L38,36 C40.7600532,36.0033061 42.9966939,38.2399468 43,41 L43,43 C43,43.2652165 42.8946432,43.5195704 42.7071068,43.7071068 C42.5195704,43.8946432 42.2652165,44 42,44 Z M27,42 L41,42 L41,41 C41,39.3431458 39.6568542,38 38,38 L30,38 C28.3431458,38 27,39.3431458 27,41 L27,42 Z" id="Shape" fill="#000000"/><path d="M43,33 C42.5591231,33.0005403 42.1699098,32.7122901 42.0418732,32.290414 C41.9138366,31.868538 42.0771898,31.4125875 42.444,31.168 L51.444,25.168 C51.741245,24.9697176 52.1216931,24.9450754 52.4420332,25.1033559 C52.7623733,25.2616364 52.9739381,25.578793 52.9970332,25.9353559 C53.0201283,26.2919188 52.851245,26.6337176 52.554,26.832 L43.554,32.832 C43.3899366,32.9413972 43.1971916,32.999847 43,33 Z" id="Shape" fill="#000000"/><path d="M45,15 L36,15 C35.4477153,15 35,14.5522847 35,14 C35,13.4477153 35.4477153,13 36,13 L45,13 C45.5522847,13 46,13.4477153 46,14 C46,14.5522847 45.5522847,15 45,15 Z" id="Shape" fill="#000000"/><path d="M42,19 L36,19 C35.4477153,19 35,18.5522847 35,18 C35,17.4477153 35.4477153,17 36,17 L42,17 C42.5522847,17 43,17.4477153 43,18 C43,18.5522847 42.5522847,19 42,19 Z" id="Shape" fill="#000000"/><path d="M39,23 L36,23 C35.4477153,23 35,22.5522847 35,22 C35,21.4477153 35.4477153,21 36,21 L39,21 C39.5522847,21 40,21.4477153 40,22 C40,22.5522847 39.5522847,23 39,23 Z" id="Shape" fill="#000000"/></g></g></svg>
