<?xml version="1.0" encoding="UTF-8"?>
<svg xmlns="http://www.w3.org/2000/svg" xmlns:xlink="http://www.w3.org/1999/xlink" width="512" height="512" viewBox="0 0 60 60" version="1.1"><!-- Generator: Sketch 51.3 (57544) - http://www.bohemiancoding.com/sketch --><title>088 - Shielded</title><desc>Created with Sketch.</desc><defs/><g id="Page-1" stroke="none" stroke-width="1" fill="none" fill-rule="evenodd"><g id="088---Shielded" transform="translate(-1.000000, 0.000000)" fill-rule="nonzero"><path d="M41.21,22.26 C39.94,21.61 38.67,23.54 38.67,23.54 L38.59,23.53 C38.7534816,20.535563 38.7534816,17.534437 38.59,14.54 C38,1.68 23.19,1.04 23.19,1.04 L20.81,1.04 C20.81,1.04 6,1.68 5.41,14.54 C5.2465184,17.534437 5.2465184,20.535563 5.41,23.53 L5.33,23.54 C5.33,23.54 4.06,21.61 2.79,22.26 C1.53,22.89 2.15,28.68 2.15,28.68 C2.15,28.68 2.78,33.14 6.53,35.08 C6.37,38.8 6.09,42.18 10.15,46.04 C10.6325876,46.4946547 11.0899378,46.9753732 11.52,47.48 L11.52,57 C11.5199862,58.100676 12.4093377,58.9944966 13.51,59 L30.49,59 C31.5906623,58.9944966 32.4800138,58.100676 32.48,57 L32.48,47.48 C32.9100622,46.9753732 33.3674124,46.4946547 33.85,46.04 C37.91,42.18 37.63,38.8 37.47,35.08 C41.22,33.14 41.85,28.68 41.85,28.68 C41.85,28.68 42.47,22.89 41.21,22.26 Z" id="Shape" fill="#F29C1F"/><path d="M38.59,23.53 C38.27,28.49 37.41,30.06 37.41,33.18 C37.41,33.83 37.43,34.46 37.47,35.08 C37.63,38.8 37.91,42.18 33.85,46.04 C33.3674124,46.4946547 32.9100622,46.9753732 32.48,47.48 C29.06,51.45 28.6,55.04 24.37,55.04 L19.63,55.04 C15.4,55.04 14.94,51.45 11.52,47.48 C11.0899378,46.9753732 10.6325876,46.4946547 10.15,46.04 C6.09,42.18 6.37,38.8 6.53,35.08 C6.57,34.46 6.59,33.83 6.59,33.18 C6.59,30.06 5.73,28.49 5.41,23.53 C5.2465184,20.535563 5.2465184,17.534437 5.41,14.54 C5.95,2.79 18.37,1.24 20.5,1.06 C20.7,1.04 20.81,1.04 20.81,1.04 L23.19,1.04 C23.19,1.04 38,1.68 38.59,14.54 C38.7534816,17.534437 38.7534816,20.535563 38.59,23.53 Z" id="Shape" fill="#FEC108"/><path d="M35.59,23.53 C35.27,28.49 34.41,30.06 34.41,33.18 C34.41,33.83 34.43,34.46 34.47,35.08 C34.63,38.8 34.91,42.18 30.85,46.04 C30.3674124,46.4946547 29.9100622,46.9753732 29.48,47.48 C26.06,51.45 25.6,55.04 21.37,55.04 L19.63,55.04 C15.4,55.04 14.94,51.45 11.52,47.48 C11.0899378,46.9753732 10.6325876,46.4946547 10.15,46.04 C6.09,42.18 6.37,38.8 6.53,35.08 C6.57,34.46 6.59,33.83 6.59,33.18 C6.59,30.06 5.73,28.49 5.41,23.53 C5.2465184,20.535563 5.2465184,17.534437 5.41,14.54 C5.95,2.79 18.37,1.24 20.5,1.06 C22.63,1.24 35.05,2.79 35.59,14.54 C35.7534816,17.534437 35.7534816,20.535563 35.59,23.53 Z" id="Shape" fill="#FFDC00"/><path d="M6.59,33.18 C6.59,33.83 6.57,34.46 6.53,35.08 C2.78,33.14 2.15,28.68 2.15,28.68 C2.15,28.68 1.53,22.89 2.79,22.26 C4.06,21.61 5.33,23.54 5.33,23.54 L5.41,23.53 C5.73,28.49 6.59,30.06 6.59,33.18 Z" id="Shape" fill="#FF9801"/><path d="M32.482,47.48 L32.482,57 C32.4820138,58.100676 31.5926623,58.9944966 30.492,59 L13.513,59 C12.4123377,58.9944966 11.5229862,58.100676 11.523,57 L11.523,47.48 C14.943,51.45 15.403,55.04 19.633,55.04 L24.373,55.04 C28.6,55.04 29.063,51.45 32.482,47.48 Z" id="Shape" fill="#FF9801"/><path d="M59.867,11.267 C59.867,11.267 59.736,14.039 59.325,17.744 C58.1049956,17.528475 56.8746988,17.3759396 55.639,17.287 C55.004,17.24 54.379,17.221 53.772,17.221 C46.9020808,17.0146142 40.2491911,19.6403363 35.372,24.483 C34.812,25.024 34.289,25.583 33.813,26.135 C32.7566287,27.3435244 31.8042422,28.6391313 30.966,30.008 C28.666,22.523 28.138,11.267 28.138,11.267 C34.6502976,10.2705393 40.4242283,6.53324599 44,1 C47.5768854,6.53443705 53.3528733,10.2718838 59.867,11.267 Z" id="Shape" fill="#02A9F4"/><path d="M55.937,14.2 C55.853,15.227 55.751,16.263 55.637,17.29 C55.002,17.243 54.377,17.224 53.77,17.224 C46.9000808,17.0176142 40.2471911,19.6433363 35.37,24.486 C34.81,25.027 34.287,25.586 33.811,26.138 C32.9663224,22.2014579 32.3823866,18.2134569 32.063,14.2 C36.600924,12.8800474 40.7156094,10.3982065 44,7 C47.2843906,10.3982065 51.399076,12.8800474 55.937,14.2 Z" id="Shape" fill="#F5F5F5"/><path d="M59.325,17.744 C58.635,23.895 57.179,32.621 54.267,35.533 C51.2172649,38.4976905 47.7600874,41.012032 44,43 C40.2399126,41.012032 36.7827351,38.4976905 33.733,35.533 C32.4027628,33.9248597 31.4549465,32.0357237 30.961,30.008 C31.7992422,28.6391313 32.7516287,27.3435244 33.808,26.135 C34.545,29.42 35.432,31.949 36.375,32.892 C38.6766464,35.1314989 41.2362584,37.0895601 44,38.725 C46.7637416,37.0895601 49.3233536,35.1314989 51.625,32.892 C53.361,31.156 54.855,24.324 55.639,17.287 C56.8746988,17.3759396 58.1049956,17.528475 59.325,17.744 Z" id="Shape" fill="#0377BC"/><path d="M55.64,17.29 C54.85,24.32 53.36,31.16 51.63,32.89 C49.3246702,35.1293591 46.7637098,37.0895175 44,38.73 C41.2362902,37.0895175 38.6753298,35.1293591 36.37,32.89 C35.43,31.95 34.55,29.42 33.81,26.13 C34.28,25.58 34.81,25.02 35.37,24.48 C40.2486453,19.6397806 46.9007264,17.0151008 53.77,17.22 C54.38,17.22 55,17.24 55.64,17.29 Z" id="Shape" fill="#CFD8DC"/><path d="M6.529,36.076 C6.36970273,36.0757464 6.21273817,36.0377047 6.071,35.965 C1.907,33.813 1.192,29.026 1.164,28.823 C0.842,25.835 0.788,22.147 2.34,21.365 C3.969,20.538 5.511,21.995 6.166,22.988 C6.45864172,23.4487382 6.32777555,24.0590241 5.87195367,24.359266 C5.41613178,24.659508 4.80375962,24.5387803 4.496,24.088 C4.206,23.655 3.637,23.109 3.307,23.128 C2.971,23.72 2.894,26.2 3.148,28.576 C3.148,28.576 3.759,32.517 6.989,34.186 C7.39851073,34.3980617 7.60990029,34.8626656 7.50073467,35.3107193 C7.39156905,35.7587729 6.99016073,36.0740722 6.529,36.074 L6.529,36.076 Z" id="Shape" fill="#000000"/><path d="M24.37,56.04 L19.63,56.04 C16.158,56.04 14.785,53.932 13.196,51.491 C12.1524813,49.7669775 10.8981461,48.1797429 9.462,46.766 C5.191,42.711 5.362,38.977 5.524,35.366 C5.557,34.651 5.59,33.925 5.59,33.181 C5.56909313,31.8555116 5.41871188,30.5352379 5.141,29.239 C4.664,26.618 4.013,23.026 4.411,14.494 C5.036,0.878 20.609,0.048 20.767,0.041 L23.19,0.041 C23.64,0.059 33.212,0.555 37.561,7.6 C37.826901,8.06768344 37.6751344,8.66192131 37.2175356,8.94482503 C36.7599369,9.22772875 36.1605244,9.09789628 35.861,8.651 C32.075,2.522 23.236,2.051 23.148,2.044 L20.81,2.044 C20.286,2.068 6.949,2.809 6.41,14.59 C6.022,22.897 6.625,26.217 7.11,28.89 C7.41020531,30.3042344 7.57163752,31.7443972 7.592,33.19 C7.592,33.965 7.558,34.722 7.524,35.466 C7.361,39.06 7.232,41.899 10.841,45.324 C12.3880726,46.8442525 13.7422434,48.5490568 14.873,50.4 C16.516,52.925 17.339,54.041 19.63,54.041 L24.37,54.041 C26.661,54.041 27.484,52.925 29.127,50.4 C30.2577698,48.5457895 31.6126386,46.8379294 33.161,45.315 C35.0312346,43.733156 36.2143439,41.4870409 36.461,39.05 C36.5228888,38.5020927 37.0120123,38.1045687 37.561,38.156 C37.82549,38.1829731 38.0683519,38.3141584 38.2359177,38.5205664 C38.4034834,38.7269743 38.481958,38.9916123 38.454,39.256 C38.1557905,42.1689716 36.7543081,44.8574422 34.537,46.77 C33.1000638,48.1823259 31.8447249,49.7682116 30.8,51.491 C29.215,53.932 27.842,56.04 24.37,56.04 Z" id="Shape" fill="#000000"/><path d="M30.487,60 L13.513,60 C11.8561458,60 10.513,58.6568542 10.513,57 L10.513,47.48 C10.513,46.9277153 10.9607153,46.48 11.513,46.48 C12.0652847,46.48 12.513,46.9277153 12.513,47.48 L12.513,57 C12.513,57.5522847 12.9607153,58 13.513,58 L30.487,58 C31.0392847,58 31.487,57.5522847 31.487,57 L31.487,47.48 C31.487,46.9277153 31.9347153,46.4800001 32.487,46.4800001 C33.0392847,46.4800001 33.487,46.9277153 33.487,47.48 L33.487,57 C33.487,58.6568542 32.1438542,60 30.487,60 Z" id="Shape" fill="#000000"/><path d="M44,44.353 C43.844793,44.3528342 43.691755,44.3165433 43.553,44.247 C39.6619646,42.1995016 36.0873348,39.6002914 32.94,36.53 C28.018,31.607 27.04,12.223 27,11.4 C26.9759036,10.8934745 27.3347567,10.4490984 27.835,10.366 C34.094578,9.38734576 39.6489068,5.80855931 43.127,0.513 C43.3193215,0.217869396 43.6477364,0.0398892687 44,0.0398892687 C44.3522636,0.0398892687 44.6806785,0.217869396 44.873,0.513 C48.3508682,5.80832395 53.9047876,9.38708064 60.164,10.366 C60.6646434,10.4486475 61.0240282,10.8931499 61,11.4 C60.961,12.223 59.983,31.607 55.061,36.53 C51.9136652,39.6002914 48.3390354,42.1995016 44.448,44.247 C44.3089429,44.3166945 44.1555449,44.3529896 44,44.353 Z M29.046,12.177 C29.407,18.14 30.9,31.662 34.354,35.116 C37.2342113,37.908774 40.4789624,40.2991121 44,42.222 C47.5210376,40.2991121 50.7657887,37.908774 53.646,35.116 C57.1,31.662 58.593,18.14 58.954,12.177 C52.9769775,11.0266278 47.6444069,7.68708488 44,2.812 C40.3555931,7.68708488 35.0230225,11.0266278 29.046,12.177 Z" id="Shape" fill="#000000"/><path d="M44,40.039 C43.8193115,40.0388825 43.6420307,39.9898107 43.487,39.897 C40.6256114,38.2110773 37.9775643,36.1868506 35.6,33.868 C33.327,31.595 31.6,22.176 30.966,14.387 C30.9270863,13.9134323 31.2267931,13.4778752 31.683,13.345 C36.0892706,12.0598734 40.086354,9.6526644 43.283,6.359 C43.6829804,5.97085314 44.3190196,5.97085314 44.719,6.359 C47.9160187,9.65219506 51.9129699,12.0593245 56.319,13.345 C56.7748125,13.4778014 57.0744173,13.9127925 57.036,14.386 C56.549,20.386 55.025,31.244 52.401,33.868 C50.0232933,36.1879673 47.3749003,38.213209 44.513,39.9 C44.3576691,39.9917601 44.1804078,40.03979 44,40.039 Z M33.03,15.023 C33.781,23.37 35.501,30.938 37.016,32.454 C39.1304689,34.5190429 41.473618,36.3361242 44,37.87 C46.526382,36.3361242 48.8695311,34.5190429 50.984,32.454 C52.534,30.904 54.221,23.489 54.972,15.023 C50.8658398,13.6952526 47.1143731,11.4533307 44,8.466 C40.8862036,11.4530728 37.1354467,13.6949792 33.03,15.023 Z" id="Shape" fill="#000000"/></g></g></svg>
