<?xml version="1.0" encoding="UTF-8"?>
<svg xmlns="http://www.w3.org/2000/svg" xmlns:xlink="http://www.w3.org/1999/xlink" width="512" height="512" viewBox="0 0 60 60" version="1.1"><!-- Generator: Sketch 51.3 (57544) - http://www.bohemiancoding.com/sketch --><title>089 - Balance</title><desc>Created with Sketch.</desc><defs/><g id="Page-1" stroke="none" stroke-width="1" fill="none" fill-rule="evenodd"><g id="089---Balance" transform="translate(-1.000000, -1.000000)" fill-rule="nonzero"><path d="M41.21,23.26 C39.94,22.61 38.67,24.54 38.67,24.54 L38.59,24.53 C38.7534816,21.535563 38.7534816,18.534437 38.59,15.54 C38,2.68 23.19,2.04 23.19,2.04 L20.81,2.04 C20.81,2.04 6,2.68 5.41,15.54 C5.2465184,18.534437 5.2465184,21.535563 5.41,24.53 L5.33,24.54 C5.33,24.54 4.06,22.61 2.79,23.26 C1.53,23.89 2.15,29.68 2.15,29.68 C2.15,29.68 2.78,34.14 6.53,36.08 C6.37,39.8 6.09,43.18 10.15,47.04 C10.6325876,47.4946547 11.0899378,47.9753732 11.52,48.48 L11.52,58 C11.5199862,59.100676 12.4093377,59.9944966 13.51,60 L30.49,60 C31.5906623,59.9944966 32.4800138,59.100676 32.48,58 L32.48,48.48 C32.9100622,47.9753732 33.3674124,47.4946547 33.85,47.04 C37.91,43.18 37.63,39.8 37.47,36.08 C41.22,34.14 41.85,29.68 41.85,29.68 C41.85,29.68 42.47,23.89 41.21,23.26 Z" id="Shape" fill="#F3D55B"/><path d="M38.59,24.53 C38.27,29.49 37.41,31.06 37.41,34.18 C37.41,34.83 37.43,35.46 37.47,36.08 C37.63,39.8 37.91,43.18 33.85,47.04 C33.3674124,47.4946547 32.9100622,47.9753732 32.48,48.48 C29.06,52.45 28.6,56.04 24.37,56.04 L19.63,56.04 C15.4,56.04 14.94,52.45 11.52,48.48 C11.0899378,47.9753732 10.6325876,47.4946547 10.15,47.04 C6.09,43.18 6.37,39.8 6.53,36.08 C6.57,35.46 6.59,34.83 6.59,34.18 C6.59,31.06 5.73,29.49 5.41,24.53 C5.2465184,21.535563 5.2465184,18.534437 5.41,15.54 C5.95,3.79 18.37,2.24 20.5,2.06 C20.7,2.04 20.81,2.04 20.81,2.04 L23.19,2.04 C23.19,2.04 38,2.68 38.59,15.54 C38.7534816,18.534437 38.7534816,21.535563 38.59,24.53 Z" id="Shape" fill="#FEC108"/><path d="M35.59,24.53 C35.27,29.49 34.41,31.06 34.41,34.18 C34.41,34.83 34.43,35.46 34.47,36.08 C34.63,39.8 34.91,43.18 30.85,47.04 C30.3674124,47.4946547 29.9100622,47.9753732 29.48,48.48 C26.06,52.45 25.6,56.04 21.37,56.04 L19.63,56.04 C15.4,56.04 14.94,52.45 11.52,48.48 C11.0899378,47.9753732 10.6325876,47.4946547 10.15,47.04 C6.09,43.18 6.37,39.8 6.53,36.08 C6.57,35.46 6.59,34.83 6.59,34.18 C6.59,31.06 5.73,29.49 5.41,24.53 C5.2465184,21.535563 5.2465184,18.534437 5.41,15.54 C5.95,3.79 18.37,2.24 20.5,2.06 C22.63,2.24 35.05,3.79 35.59,15.54 C35.7534816,18.534437 35.7534816,21.535563 35.59,24.53 Z" id="Shape" fill="#FFDC00"/><path d="M6.59,34.18 C6.59,34.83 6.57,35.46 6.53,36.08 C2.78,34.14 2.15,29.68 2.15,29.68 C2.15,29.68 1.53,23.89 2.79,23.26 C4.06,22.61 5.33,24.54 5.33,24.54 L5.41,24.53 C5.73,29.49 6.59,31.06 6.59,34.18 Z" id="Shape" fill="#FF9801"/><path d="M32.482,48.48 L32.482,58 C32.4820138,59.100676 31.5926623,59.9944966 30.492,60 L13.513,60 C12.4123377,59.9944966 11.5229862,59.100676 11.523,58 L11.523,48.48 C14.943,52.45 15.403,56.04 19.633,56.04 L24.373,56.04 C28.6,56.04 29.063,52.45 32.482,48.48 Z" id="Shape" fill="#FF9801"/><path d="M60,20 C60.0025252,29.7622719 52.2192044,37.7452788 42.46,37.99 C47.3501307,37.7601899 51.1597101,33.6637972 51.0345735,28.7698692 C50.9094369,23.8759412 46.8954851,19.9795942 42,20 C41.4669688,19.9989508 40.9350131,19.9521119 40.41,19.86 C36.0590185,19.077129 32.9208508,15.2501152 33.0054211,10.8300728 C33.0899914,6.41003039 36.3722561,2.70586103 40.75,2.09 C41.0115553,2.0480065 41.275336,2.02129453 41.54,2.01 C41.69,2 41.84,2 42,2 C42.16,2 42.31,2 42.46,2.01 C52.2192044,2.25472119 60.0025252,10.2377281 60,20 Z" id="Shape" fill="#37474F"/><path d="M57,20 C57.0049363,26.286658 53.7247349,32.1189698 48.35,35.38 C50.9336732,32.8093339 51.7118747,28.9342024 50.3209693,25.5653638 C48.9300639,22.1965252 45.6446798,19.999142 42,20 C41.4669688,19.9989508 40.9350131,19.9521119 40.41,19.86 C36.0590185,19.077129 32.9208508,15.2501152 33.0054211,10.8300728 C33.0899914,6.41003039 36.3722561,2.70586103 40.75,2.09 C49.9698894,2.98595171 57.002237,10.7366807 57,20 Z" id="Shape" fill="#607D8B"/><path d="M51,29 C51.0009389,33.7924616 47.2461979,37.745052 42.46,37.99 C42.31,38 42.16,38 42,38 C41.84,38 41.69,38 41.54,37.99 C31.8377923,37.6664583 24.1399167,29.7076008 24.1399167,20 C24.1399167,10.2923992 31.8377923,2.33354175 41.54,2.01 C36.6498693,2.23981009 32.8402899,6.33620283 32.9654265,11.2301308 C33.0905631,16.1240588 37.1045149,20.0204058 42,20 C46.9705627,20 51,24.0294373 51,29 Z" id="Shape" fill="#F5F5F5"/><circle id="Oval" fill="#F5F5F5" cx="42" cy="11" r="3"/><circle id="Oval" fill="#607D8B" cx="42" cy="29" r="3"/><path d="M6.529,37.036 C6.36970273,37.0357464 6.21273817,36.9977047 6.071,36.925 C1.907,34.773 1.192,29.986 1.164,29.783 C0.842,26.8 0.789,23.106 2.34,22.325 C3.969,21.498 5.511,22.956 6.166,23.948 C6.45864172,24.4087382 6.32777555,25.0190241 5.87195367,25.319266 C5.41613178,25.619508 4.80375962,25.4987803 4.496,25.048 C4.205,24.613 3.636,24.048 3.307,24.089 C2.97,24.68 2.894,27.16 3.148,29.536 C3.148,29.536 3.759,33.477 6.989,35.145 C7.39965725,35.3565193 7.61199718,35.8217883 7.50270399,36.2706031 C7.39341079,36.719418 6.99092951,37.0349687 6.529,37.034 L6.529,37.036 Z" id="Shape" fill="#000000"/><path d="M24.37,57 L19.63,57 C16.158,57 14.785,54.892 13.196,52.451 C12.1524813,50.7269775 10.8981461,49.1397429 9.462,47.726 C5.191,43.671 5.362,39.937 5.524,36.326 C5.557,35.611 5.59,34.885 5.59,34.141 C5.56902808,32.8158462 5.41864719,31.4959106 5.141,30.2 C4.664,27.579 4.013,23.987 4.411,15.455 C5.036,1.838 20.609,1.008 20.767,1 L23.19,1 C26.5955234,1.23527478 29.9013528,2.25042649 32.852,3.967 C33.323375,4.2550165 33.4720165,4.87062497 33.184,5.342 C32.8959835,5.81337503 32.280375,5.9620165 31.809,5.674 C29.1576119,4.14692923 26.197805,3.23322298 23.147,3 L20.81,3 C20.286,3.024 6.949,3.765 6.41,15.546 C6.022,23.853 6.625,27.173 7.11,29.846 C7.41020531,31.2602344 7.57163752,32.7003972 7.592,34.146 C7.592,34.921 7.558,35.678 7.524,36.422 C7.361,40.016 7.232,42.855 10.841,46.28 C12.3895887,47.8027251 13.7444808,49.5106146 14.875,51.365 C16.516,53.884 17.339,55 19.63,55 L24.37,55 C26.661,55 27.484,53.884 29.127,51.359 C30.2575192,49.5046146 31.6124113,47.7967251 33.161,46.274 C36.441,43.161 36.623,40.442 36.521,37.464 C36.5022223,36.9117153 36.9347153,36.4487777 37.487,36.43 C38.0392847,36.4112223 38.5022223,36.8437153 38.521,37.396 C38.632,40.604 38.421,44.047 34.54,47.726 C33.1017454,49.1393892 31.8453826,50.7266391 30.8,52.451 C29.215,54.892 27.842,57 24.37,57 Z" id="Shape" fill="#000000"/><path d="M30.487,60.96 L13.513,60.96 C11.8561458,60.96 10.513,59.6168542 10.513,57.96 L10.513,48.44 C10.513,47.8877153 10.9607153,47.44 11.513,47.44 C12.0652847,47.44 12.513,47.8877153 12.513,48.44 L12.513,57.96 C12.513,58.5122847 12.9607153,58.96 13.513,58.96 L30.487,58.96 C31.0392847,58.96 31.487,58.5122847 31.487,57.96 L31.487,48.44 C31.487,47.8877153 31.9347153,47.4400001 32.487,47.4400001 C33.0392847,47.4400001 33.487,47.8877153 33.487,48.44 L33.487,57.96 C33.487,59.6168542 32.1438542,60.96 30.487,60.96 Z" id="Shape" fill="#000000"/><path d="M42.46,38.99 C41.9077153,39.0040833 41.4485833,38.5677847 41.4345,38.0155 C41.4204167,37.4632153 41.8567153,37.0040833 42.409,36.99 C46.745755,36.7730166 50.1176458,33.1361938 50.0066157,28.7954337 C49.8955856,24.4546736 46.342177,20.9949894 42,21 C36.5595885,21.0240306 32.0981308,16.6943423 31.9590959,11.2556547 C31.8200609,5.81696699 36.0544669,1.26497713 41.489,1.011 C41.8336806,0.990005782 42.1793194,0.990005782 42.524,1.011 C52.8378801,1.22617808 61.067301,9.68409507 61,20 C61.061558,30.3291641 52.8114208,38.7905006 42.484,38.99 L42.46,38.99 Z M41.94,3 C41.825,3 41.715,3 41.604,3.008 C37.2513772,3.20153912 33.8539652,6.84255315 33.96182,11.1981415 C34.0696747,15.5537299 37.6431327,19.0221286 42,19 C45.7988762,19.0023939 49.2687497,21.1558338 50.9571369,24.5588934 C52.6455242,27.961953 52.2611838,32.027615 49.965,35.054 C55.5514486,32.1168085 59.0356745,26.3114364 59,20 C59.0558915,10.7590998 51.6753406,3.18873274 42.436,3.01 C42.267,3 42.137,3 42,3 L41.94,3 Z" id="Shape" fill="#000000"/><path d="M42,39 C41.817,39 41.646,39 41.476,38.988 C31.1625118,38.7728265 22.9332481,30.3155166 23,20 C22.938442,9.67083593 31.1885792,1.20949942 41.516,1.01 C42.0603667,1.00396396 42.5121628,1.42926176 42.539,1.973 C42.5594058,2.51944425 42.137105,2.98094597 41.591,3.009 C37.2452582,3.21462483 33.860485,6.8554264 33.9717236,11.2046078 C34.0829621,15.5537893 37.6494287,19.0167998 42,19 C47.4404115,18.9759694 51.9018692,23.3056577 52.0409041,28.7443453 C52.1799391,34.183033 47.9455331,38.7350229 42.511,38.989 C42.354,39 42.183,39 42,39 Z M42,37 C42.145,37 42.267,37 42.4,36.992 C46.7536268,36.798716 50.1516477,33.1563875 50.0426794,28.7998349 C49.9337111,24.4432823 46.3578457,20.9753883 42,21 C38.2011238,20.9976061 34.7312503,18.8441662 33.0428631,15.4411066 C31.3544758,12.038047 31.7388162,7.97238496 34.035,4.946 C28.4485514,7.88319148 24.9643255,13.6885636 25,20 C24.9441085,29.2409002 32.3246594,36.8112673 41.564,36.99 C41.733,37 41.865,37 42,37 Z" id="Shape" fill="#000000"/><path d="M42,15 C39.790861,15 38,13.209139 38,11 C38,8.790861 39.790861,7 42,7 C44.209139,7 46,8.790861 46,11 C46,12.060866 45.5785726,13.0782816 44.8284271,13.8284271 C44.0782816,14.5785726 43.060866,15 42,15 Z M42,9 C40.8954305,9 40,9.8954305 40,11 C40,12.1045695 40.8954305,13 42,13 C43.1045695,13 44,12.1045695 44,11 C44,9.8954305 43.1045695,9 42,9 Z" id="Shape" fill="#000000"/><path d="M42,33 C39.790861,33 38,31.209139 38,29 C38,26.790861 39.790861,25 42,25 C44.209139,25 46,26.790861 46,29 C46,31.209139 44.209139,33 42,33 Z M42,27 C40.8954305,27 40,27.8954305 40,29 C40,30.1045695 40.8954305,31 42,31 C43.1045695,31 44,30.1045695 44,29 C44,27.8954305 43.1045695,27 42,27 Z" id="Shape" fill="#000000"/></g></g></svg>
