<?xml version="1.0" encoding="UTF-8"?>
<svg xmlns="http://www.w3.org/2000/svg" xmlns:xlink="http://www.w3.org/1999/xlink" width="512" height="512" viewBox="0 0 59 60" version="1.1"><!-- Generator: Sketch 51.3 (57544) - http://www.bohemiancoding.com/sketch --><title>090 - Locked Mind</title><desc>Created with Sketch.</desc><defs/><g id="Page-1" stroke="none" stroke-width="1" fill="none" fill-rule="evenodd"><g id="090---Locked-Mind" transform="translate(-1.000000, 0.000000)" fill-rule="nonzero"><path d="M41.21,22.26 C39.94,21.61 38.67,23.54 38.67,23.54 L38.59,23.53 C38.7534816,20.535563 38.7534816,17.534437 38.59,14.54 C38,1.68 23.19,1.04 23.19,1.04 L20.81,1.04 C20.81,1.04 6,1.68 5.41,14.54 C5.2465184,17.534437 5.2465184,20.535563 5.41,23.53 L5.33,23.54 C5.33,23.54 4.06,21.61 2.79,22.26 C1.53,22.89 2.15,28.68 2.15,28.68 C2.15,28.68 2.78,33.14 6.53,35.08 C6.37,38.8 6.09,42.18 10.15,46.04 C10.6325876,46.4946547 11.0899378,46.9753732 11.52,47.48 L11.52,57 C11.5199862,58.100676 12.4093377,58.9944966 13.51,59 L30.49,59 C31.5906623,58.9944966 32.4800138,58.100676 32.48,57 L32.48,47.48 C32.9100622,46.9753732 33.3674124,46.4946547 33.85,46.04 C37.91,42.18 37.63,38.8 37.47,35.08 C41.22,33.14 41.85,28.68 41.85,28.68 C41.85,28.68 42.47,22.89 41.21,22.26 Z" id="Shape" fill="#35495E"/><path d="M38.59,23.53 C38.27,28.49 37.41,30.06 37.41,33.18 C37.41,33.83 37.43,34.46 37.47,35.08 C37.63,38.8 37.91,42.18 33.85,46.04 C33.3674124,46.4946547 32.9100622,46.9753732 32.48,47.48 C29.06,51.45 28.6,55.04 24.37,55.04 L19.63,55.04 C15.4,55.04 14.94,51.45 11.52,47.48 C11.0899378,46.9753732 10.6325876,46.4946547 10.15,46.04 C6.09,42.18 6.37,38.8 6.53,35.08 C6.57,34.46 6.59,33.83 6.59,33.18 C6.59,30.06 5.73,28.49 5.41,23.53 C5.2465184,20.535563 5.2465184,17.534437 5.41,14.54 C5.95,2.79 18.37,1.24 20.5,1.06 C20.7,1.04 20.81,1.04 20.81,1.04 L23.19,1.04 C23.19,1.04 38,1.68 38.59,14.54 C38.7534816,17.534437 38.7534816,20.535563 38.59,23.53 Z" id="Shape" fill="#283593"/><path d="M35.59,23.53 C35.27,28.49 34.41,30.06 34.41,33.18 C34.41,33.83 34.43,34.46 34.47,35.08 C34.63,38.8 34.91,42.18 30.85,46.04 C30.3674124,46.4946547 29.9100622,46.9753732 29.48,47.48 C26.06,51.45 25.6,55.04 21.37,55.04 L19.63,55.04 C15.4,55.04 14.94,51.45 11.52,47.48 C11.0899378,46.9753732 10.6325876,46.4946547 10.15,46.04 C6.09,42.18 6.37,38.8 6.53,35.08 C6.57,34.46 6.59,33.83 6.59,33.18 C6.59,30.06 5.73,28.49 5.41,23.53 C5.2465184,20.535563 5.2465184,17.534437 5.41,14.54 C5.95,2.79 18.37,1.24 20.5,1.06 C22.63,1.24 35.05,2.79 35.59,14.54 C35.7534816,17.534437 35.7534816,20.535563 35.59,23.53 Z" id="Shape" fill="#3F51B5"/><path d="M56,12 L56,17 L52,17 L52,12 C52,8.13400675 48.8659932,5 45,5 C41.1340068,5 38,8.13400675 38,12 L38,17 L34,17 L34,12 C34,5.92486775 38.9248678,1 45,1 C51.0751322,1 56,5.92486775 56,12 Z" id="Shape" fill="#F5F5F5"/><path d="M56,12 L56.0000016,17 L53,17 L53,12 C53.006858,6.50332974 48.9467486,1.84916223 43.5,1.11 C43.9962102,1.0328963 44.4978502,0.996109367 45,1 C47.9178694,0.998407131 50.716688,2.15682085 52.7799336,4.22006641 C54.8431791,6.28331196 56.0015929,9.08213059 56,12 Z" id="Shape" fill="#CFD8DC"/><path d="M6.59,33.18 C6.59,33.83 6.57,34.46 6.53,35.08 C2.78,33.14 2.15,28.68 2.15,28.68 C2.15,28.68 1.53,22.89 2.79,22.26 C4.06,21.61 5.33,23.54 5.33,23.54 L5.41,23.53 C5.73,28.49 6.59,30.06 6.59,33.18 Z" id="Shape" fill="#283593"/><path d="M32.482,47.48 L32.482,57 C32.4820138,58.100676 31.5926623,58.9944966 30.492,59 L13.513,59 C12.4123377,58.9944966 11.5229862,58.100676 11.523,57 L11.523,47.48 C14.943,51.45 15.403,55.04 19.633,55.04 L24.373,55.04 C28.6,55.04 29.063,51.45 32.482,47.48 Z" id="Shape" fill="#283593"/><rect id="Rectangle-path" fill="#FEC108" x="31" y="17" width="28" height="20" rx="2"/><rect id="Rectangle-path" fill="#FFDC00" x="31" y="17" width="25" height="20" rx="2"/><path d="M47.17,28.36 L47.859,32 C47.8945602,32.2845624 47.80624,32.570697 47.6164778,32.7857099 C47.4267155,33.0007228 47.1537756,33.1239191 46.867,33.124 L43.133,33.124 C42.8462244,33.1239191 42.5732845,33.0007228 42.3835222,32.7857099 C42.19376,32.570697 42.1054398,32.2845624 42.141,32 L42.83,28.36 C41.3401894,27.3978946 40.6617521,25.5696781 41.1632766,23.8686032 C41.6648011,22.1675284 43.2265338,20.9997768 45,20.9997768 C46.7734662,20.9997768 48.3351989,22.1675284 48.8367234,23.8686032 C49.3382479,25.5696781 48.6598106,27.3978946 47.17,28.36 Z" id="Shape" fill="#607D8B"/><path d="M6.529,36.076 C6.36970273,36.0757464 6.21273817,36.0377047 6.071,35.965 C1.907,33.813 1.192,29.026 1.164,28.823 C0.842,25.835 0.788,22.147 2.34,21.365 C3.969,20.538 5.511,21.995 6.166,22.988 C6.45864172,23.4487382 6.32777555,24.0590241 5.87195367,24.359266 C5.41613178,24.659508 4.80375962,24.5387803 4.496,24.088 C4.207,23.655 3.645,23.109 3.307,23.128 C2.971,23.72 2.894,26.2 3.148,28.576 C3.148,28.576 3.759,32.517 6.989,34.186 C7.39851073,34.3980617 7.60990029,34.8626656 7.50073467,35.3107193 C7.39156905,35.7587729 6.99016073,36.0740722 6.529,36.074 L6.529,36.076 Z" id="Shape" fill="#000000"/><path d="M24.37,56.04 L19.63,56.04 C16.158,56.04 14.785,53.932 13.196,51.491 C12.1524813,49.7669775 10.8981461,48.1797429 9.462,46.766 C5.191,42.711 5.362,38.977 5.524,35.366 C5.557,34.651 5.59,33.925 5.59,33.181 C5.56909313,31.8555116 5.41871188,30.5352379 5.141,29.239 C4.664,26.618 4.013,23.026 4.411,14.494 C5.036,0.878 20.609,0.048 20.767,0.041 L23.19,0.041 C23.569,0.057 31.502,0.462 36.238,5.808 C36.6041648,6.22221356 36.5652136,6.85483521 36.151,7.221 C35.7367864,7.58716479 35.1041648,7.54821356 34.738,7.134 C30.572,2.434 23.216,2.043 23.138,2.04 L20.81,2.04 C20.286,2.064 6.949,2.805 6.41,14.586 C6.022,22.893 6.625,26.213 7.11,28.886 C7.41020531,30.3002344 7.57163752,31.7403972 7.592,33.186 C7.592,33.961 7.558,34.718 7.524,35.462 C7.361,39.056 7.232,41.895 10.841,45.32 C12.3883331,46.8414941 13.7425138,48.5476543 14.873,50.4 C16.516,52.925 17.339,54.041 19.63,54.041 L24.37,54.041 C26.661,54.041 27.484,52.925 29.127,50.4 C30.2577698,48.5457895 31.6126386,46.8379294 33.161,45.315 C35.5672151,43.2631853 36.8240989,40.1685426 36.53,37.02 C36.524644,36.7545984 36.6250327,36.4979575 36.8090448,36.3066299 C36.993057,36.1153023 37.2455912,36.0049896 37.511,36 L37.53,36 C38.0745676,35.9998911 38.5191087,36.4355413 38.53,36.98 C38.8270369,40.6905653 37.3456894,44.3219447 34.538,46.766 C33.1004483,48.1795072 31.8447613,49.766752 30.8,51.491 C29.215,53.932 27.842,56.04 24.37,56.04 Z" id="Shape" fill="#000000"/><path d="M30.487,60 L13.513,60 C11.8561458,60 10.513,58.6568542 10.513,57 L10.513,47.48 C10.513,46.9277153 10.9607153,46.48 11.513,46.48 C12.0652847,46.48 12.513,46.9277153 12.513,47.48 L12.513,57 C12.513,57.5522847 12.9607153,58 13.513,58 L30.487,58 C31.0392847,58 31.487,57.5522847 31.487,57 L31.487,47.48 C31.487,46.9277153 31.9347153,46.4800001 32.487,46.4800001 C33.0392847,46.4800001 33.487,46.9277153 33.487,47.48 L33.487,57 C33.487,58.6568542 32.1438542,60 30.487,60 Z" id="Shape" fill="#000000"/><path d="M57,38 L33,38 C31.3431458,38 30,36.6568542 30,35 L30,19 C30,17.3431458 31.3431458,16 33,16 L57,16 C58.6568542,16 60,17.3431458 60,19 L60,35 C60,36.6568542 58.6568542,38 57,38 Z M33,18 C32.4477153,18 32,18.4477153 32,19 L32,35 C32,35.5522847 32.4477153,36 33,36 L57,36 C57.5522847,36 58,35.5522847 58,35 L58,19 C58,18.4477153 57.5522847,18 57,18 L33,18 Z" id="Shape" fill="#000000"/><path d="M56,18 L52,18 C51.4477153,18 51,17.5522847 51,17 L51,12 C50.9999999,8.68629157 48.3137084,6.00000018 45,6.00000018 C41.6862916,6.00000018 39.0000001,8.68629157 39,12 L39,17 C39,17.5522847 38.5522847,18 38,18 L34,18 C33.4477153,18 33,17.5522847 33,17 L33,12 C33.0000001,5.3725831 38.3725831,2.52881092e-07 45,2.52881092e-07 C51.6274169,2.52881092e-07 56.9999999,5.3725831 57,12 L57,17 C57,17.5522847 56.5522847,18 56,18 Z M53,16 L55,16 L55,12 C55,6.4771525 50.5228475,2 45,2 C39.4771525,2 35,6.4771525 35,12 L35,16 L37,16 L37,12 C37,7.581722 40.581722,4 45,4 C49.418278,4 53,7.581722 53,12 L53,16 Z" id="Shape" fill="#000000"/><path d="M46.867,34.124 L43.133,34.124 C42.5590768,34.1241609 42.0127414,33.8777574 41.6329581,33.4474639 C41.2531748,33.0171703 41.0765465,32.4444579 41.148,31.875 L41.732,28.784 C39.9848967,27.2752181 39.497785,24.7665111 40.5533099,22.7135474 C41.6088348,20.6605836 43.93259,19.597075 46.1762246,20.1401186 C48.4198593,20.6831621 50.0000927,22.6915822 50,25 C50.0032916,26.4538836 49.3709431,27.8365751 48.269,28.785 L48.842,31.813 C48.9309932,32.4006647 48.7573144,32.9977542 48.367,33.446 C47.9874941,33.8768259 47.4411391,34.1237784 46.867,34.124 Z M45,22 C44.8793628,22.0000462 44.7588289,22.0070578 44.639,22.021 C43.3835287,22.1717292 42.3573588,23.0934873 42.0732886,24.3256527 C41.7892185,25.5578182 42.308245,26.8358143 43.371,27.521 C43.7123025,27.7419543 43.8858497,28.1475566 43.81,28.547 L43.121,32.187 L46.865,32.124 L46.186,28.547 C46.1103523,28.1473423 46.2843181,27.7416859 46.626,27.521 C47.7439332,26.7998599 48.2534208,25.4286077 47.8775792,24.1524569 C47.5017377,22.8763061 46.330345,22.0000931 45,22 Z" id="Shape" fill="#000000"/><path d="M36,22 L31,22 C30.4477153,22 30,21.5522847 30,21 C30,20.4477153 30.4477153,20 31,20 L36,20 C36.5522847,20 37,20.4477153 37,21 C37,21.5522847 36.5522847,22 36,22 Z" id="Shape" fill="#000000"/><path d="M36,26 L31,26 C30.4477153,26 30,25.5522847 30,25 C30,24.4477153 30.4477153,24 31,24 L36,24 C36.5522847,24 37,24.4477153 37,25 C37,25.5522847 36.5522847,26 36,26 Z" id="Shape" fill="#000000"/><path d="M36,30 L31,30 C30.4477153,30 30,29.5522847 30,29 C30,28.4477153 30.4477153,28 31,28 L36,28 C36.5522847,28 37,28.4477153 37,29 C37,29.5522847 36.5522847,30 36,30 Z" id="Shape" fill="#000000"/><path d="M36,34 L31,34 C30.4477153,34 30,33.5522847 30,33 C30,32.4477153 30.4477153,32 31,32 L36,32 C36.5522847,32 37,32.4477153 37,33 C37,33.5522847 36.5522847,34 36,34 Z" id="Shape" fill="#000000"/><path d="M59,22 L54,22 C53.4477153,22 53,21.5522847 53,21 C53,20.4477153 53.4477153,20 54,20 L59,20 C59.5522847,20 60,20.4477153 60,21 C60,21.5522847 59.5522847,22 59,22 Z" id="Shape" fill="#000000"/><path d="M59,26 L54,26 C53.4477153,26 53,25.5522847 53,25 C53,24.4477153 53.4477153,24 54,24 L59,24 C59.5522847,24 60,24.4477153 60,25 C60,25.5522847 59.5522847,26 59,26 Z" id="Shape" fill="#000000"/><path d="M59,30 L54,30 C53.4477153,30 53,29.5522847 53,29 C53,28.4477153 53.4477153,28 54,28 L59,28 C59.5522847,28 60,28.4477153 60,29 C60,29.5522847 59.5522847,30 59,30 Z" id="Shape" fill="#000000"/><path d="M59,34 L54,34 C53.4477153,34 53,33.5522847 53,33 C53,32.4477153 53.4477153,32 54,32 L59,32 C59.5522847,32 60,32.4477153 60,33 C60,33.5522847 59.5522847,34 59,34 Z" id="Shape" fill="#000000"/></g></g></svg>
