<?xml version="1.0" encoding="UTF-8"?>
<svg xmlns="http://www.w3.org/2000/svg" xmlns:xlink="http://www.w3.org/1999/xlink" width="512" height="512" viewBox="0 0 60 60" version="1.1"><!-- Generator: Sketch 51.3 (57544) - http://www.bohemiancoding.com/sketch --><title>091 - Imagination</title><desc>Created with Sketch.</desc><defs/><g id="Page-1" stroke="none" stroke-width="1" fill="none" fill-rule="evenodd"><g id="091---Imagination" transform="translate(-1.000000, 0.000000)" fill-rule="nonzero"><path d="M41.213,22.22 C39.943,21.57 38.672,23.5 38.672,23.5 L38.593,23.49 C38.7559709,20.4955491 38.7559709,17.4944509 38.593,14.5 C38,1.64 23.193,1 23.193,1 L20.813,1 C20.813,1 6,1.64 5.412,14.5 C5.24902908,17.4944509 5.24902908,20.4955491 5.412,23.49 L5.333,23.5 C5.333,23.5 4.063,21.57 2.792,22.22 C1.533,22.85 2.153,28.64 2.153,28.64 C2.153,28.64 2.783,33.1 6.533,35.04 C6.373,38.76 6.093,42.14 10.153,46 C10.6350751,46.4551694 11.0923982,46.9358594 11.523,47.44 L11.523,56.96 C11.5229862,58.060676 12.4123377,58.9544966 13.513,58.96 L30.492,58.96 C31.5926623,58.9544966 32.4820138,58.060676 32.482,56.96 L32.482,47.44 C32.9126018,46.9358594 33.3699249,46.4551694 33.852,46 C37.912,42.14 37.633,38.76 37.472,35.04 C41.222,33.1 41.852,28.64 41.852,28.64 C41.852,28.64 42.472,22.85 41.213,22.22 Z" id="Shape" fill="#3F51B5"/><path d="M6.593,33.14 C6.593,33.79 6.573,34.42 6.533,35.04 C2.783,33.1 2.153,28.64 2.153,28.64 C2.153,28.64 1.533,22.85 2.792,22.22 C4.063,21.57 5.333,23.5 5.333,23.5 L5.412,23.49 C5.732,28.45 6.593,30.02 6.593,33.14 Z" id="Shape" fill="#3F51B5"/><path d="M38.59,23.49 C38.27,28.45 37.41,30.02 37.41,33.14 C37.41,33.79 37.43,34.42 37.47,35.04 C37.63,38.76 37.91,42.14 33.85,46 C33.3674124,46.4546547 32.9100622,46.9353732 32.48,47.44 C29.06,51.41 28.6,55 24.37,55 L19.63,55 C15.4,55 14.94,51.41 11.52,47.44 C11.0899378,46.9353732 10.6325876,46.4546547 10.15,46 C6.09,42.14 6.37,38.76 6.53,35.04 C6.57,34.42 6.59,33.79 6.59,33.14 C6.59,30.02 5.73,28.45 5.41,23.49 C5.2465184,20.495563 5.2465184,17.494437 5.41,14.5 C5.95,2.75 18.37,1.2 20.5,1.02 C20.7,1 20.81,1 20.81,1 L23.19,1 C23.19,1 38,1.64 38.59,14.5 C38.7534816,17.494437 38.7534816,20.495563 38.59,23.49 Z" id="Shape" fill="#0377BC"/><path d="M35.59,23.49 C35.27,28.45 34.41,30.02 34.41,33.14 C34.41,33.79 34.43,34.42 34.47,35.04 C34.63,38.76 34.91,42.14 30.85,46 C30.3674124,46.4546547 29.9100622,46.9353732 29.48,47.44 C26.06,51.41 25.6,55 21.37,55 L19.63,55 C15.4,55 14.94,51.41 11.52,47.44 C11.0899378,46.9353732 10.6325876,46.4546547 10.15,46 C6.09,42.14 6.37,38.76 6.53,35.04 C6.57,34.42 6.59,33.79 6.59,33.14 C6.59,30.02 5.73,28.45 5.41,23.49 C5.2465184,20.495563 5.2465184,17.494437 5.41,14.5 C5.95,2.75 18.37,1.2 20.5,1.02 C22.63,1.2 35.05,2.75 35.59,14.5 C35.7534816,17.494437 35.7534816,20.495563 35.59,23.49 Z" id="Shape" fill="#02A9F4"/><path d="M32.485,47.44 L32.485,56.96 C32.4850138,58.060676 31.5956623,58.9544966 30.495,58.96 L13.515,58.96 C12.4143377,58.9544966 11.5249862,58.060676 11.525,56.96 L11.525,47.44 C14.945,51.41 15.405,55 19.635,55 L24.375,55 C28.605,55 29.065,51.41 32.485,47.44 Z" id="Shape" fill="#3F51B5"/><path d="M56.91,18.26 C56.1577039,17.4532073 55.1031103,16.9965791 54,17 C53.5575292,17.0014874 53.118322,17.0758147 52.7,17.22 C52.571148,16.6396173 52.4041181,16.068375 52.2,15.51 C50.3244598,10.4227491 45.4885134,7.03377038 40.066608,7.00705052 C34.6447025,6.98033065 29.7755892,10.3214816 27.85,15.39 C27.6201491,15.9850411 27.4362765,16.5968354 27.3,17.22 C26.881678,17.0758147 26.4424708,17.0014874 26,17 C24.8968897,16.9965791 23.8422961,17.4532073 23.09,18.26 C23.1679336,17.5019004 23.298245,16.7501039 23.48,16.01 C25.3127031,8.43054715 32.0670274,3.06984667 39.8646444,3.0060093 C47.6622614,2.94217193 54.5034483,8.19156894 56.46,15.74 C56.6714056,16.5678691 56.8218091,17.4101283 56.91,18.26 Z" id="Shape" fill="#F44335"/><path d="M56.91,18.26 C56.1577039,17.4532073 55.1031103,16.9965791 54,17 C53.9098843,16.9983379 53.8197458,17.0016763 53.73,17.01 C53.66,16.58 53.57,16.16 53.46,15.74 C51.656374,8.77112347 45.6606452,3.69257701 38.49,3.06 C38.98,3.02 39.49,3 40,3 C47.7490211,2.9989033 54.5181865,8.23822089 56.46,15.74 C56.6714056,16.5678691 56.8218091,17.4101283 56.91,18.26 Z" id="Shape" fill="#C81E1E"/><path d="M52.7,17.22 C51.5238757,17.6223953 50.6029735,18.5506942 50.21,19.73 C50.1773894,19.814725 50.1506593,19.9015977 50.13,19.99 C50.1343722,19.1378657 49.7652717,18.3265756 49.12,17.77 L49.12,17.76 C48.962726,17.6200152 48.7918802,17.4960682 48.61,17.39 C47.4528087,13.5585033 43.9020018,10.953462 39.8998386,10.9998101 C35.8976753,11.0461583 32.4081494,13.7327321 31.34,17.59 C31.3342946,17.5951905 31.3307292,17.6023214 31.33,17.61 C31.1369202,18.3111185 31.0294711,19.0330421 31.01,19.76 L31.01,19.77 C30.3643821,20.3305817 29.9955278,21.1449829 30,22 L29.87,22 C29.9593041,21.6742693 30.0030533,21.3377372 30,21 C29.998781,19.2929531 28.9143788,17.77479 27.3,17.22 C27.4362765,16.5968354 27.6201491,15.9850411 27.85,15.39 C29.7755892,10.3214816 34.6447025,6.98033065 40.066608,7.00705052 C45.4885134,7.03377038 50.3244598,10.4227491 52.2,15.51 C52.4041181,16.068375 52.571148,16.6396173 52.7,17.22 Z" id="Shape" fill="#FFDC00"/><path d="M48.99,19.76 C48.4429603,19.270137 47.7343146,18.9994984 47,19 C46.2552706,18.9953822 45.5366728,19.2742411 44.99,19.78 C44.8825424,17.4519793 43.1810005,15.5069194 40.8879394,15.0908687 C38.5948782,14.674818 36.3184714,15.8981228 35.4,18.04 L35.4,18.05 C35.1672935,18.5986087 35.0351892,19.1846099 35.01,19.78 C34.4633272,19.2742411 33.7447294,18.9953822 33,19 C32.2656854,18.9994984 31.5570397,19.270137 31.01,19.76 C31.0294711,19.0330421 31.1369202,18.3111185 31.33,17.61 C31.3307292,17.6023214 31.3342946,17.5951905 31.34,17.59 C32.4081494,13.7327321 35.8976753,11.0461583 39.8998386,10.9998101 C43.9020018,10.953462 47.4528087,13.5585033 48.61,17.39 C48.8439257,18.1590269 48.9717727,18.9563886 48.99,19.76 Z" id="Shape" fill="#02A9F4"/><path d="M38,26 C38.0013291,27.0612728 37.5803285,28.0794609 36.8298947,28.8298947 C36.0794609,29.5803285 35.0612728,30.0013291 34,30 L24,30 C21.790861,30 20,28.209139 20,26 C19.9969467,25.6622628 20.0406959,25.3257307 20.13,25 C20.4128602,23.8595159 21.1955918,22.9077438 22.26,22.41 C22.0856261,21.9604783 21.9974238,21.4821508 22,21 C21.9997035,20.8461684 22.009726,20.6924901 22.03,20.54 C22.0478722,20.3607636 22.0813322,20.1834259 22.13,20.01 C22.3016844,19.3567821 22.6313637,18.7558042 23.09,18.26 C23.8422961,17.4532073 24.8968897,16.9965791 26,17 C27.8184482,17.0047222 29.406443,18.2316226 29.87,19.99 L29.87,20 L29.88,20 C29.9610663,20.3271128 30.0013721,20.6629946 30,21 C30.0030533,21.3377372 29.9593041,21.6742693 29.87,22 L30,22 C29.9955278,21.1449829 30.3643821,20.3305817 31.01,19.77 L31.01,19.76 C31.5570397,19.270137 32.2656854,18.9994984 33,19 C34.6538958,19.0071207 35.9928793,20.3461042 36,22 C36.0032021,22.1713651 35.9864223,22.3425196 35.95,22.51 C36.9057331,23.0400146 37.6004039,23.9409158 37.87,25 C37.9593041,25.3257307 38.0030533,25.6622628 38,26 Z" id="Shape" fill="#F5F5F5"/><path d="M38,26 C38.0013291,27.0612728 37.5803285,28.0794609 36.8298947,28.8298947 C36.0794609,29.5803285 35.0612728,30.0013291 34,30 L31,30.0000031 C32.0612728,30.0013291 33.0794609,29.5803285 33.8298947,28.8298947 C34.5803285,28.0794609 35.0013291,27.0612728 35,26 C35.0030533,25.6622628 34.9593041,25.3257307 34.87,25 C34.6004039,23.9409158 33.9057331,23.0400146 32.95,22.51 C32.9864223,22.3425196 33.0032021,22.1713651 33,22 C33.0029499,21.1524129 32.6425296,20.3441976 32.01,19.78 C31.8534262,19.6391471 31.6824881,19.5151332 31.5,19.41 C32.4269546,18.8748173 33.5688327,18.8740459 34.4965097,19.4079755 C35.4241866,19.9419051 35.9971208,20.9296463 36,22 C36.0032021,22.1713651 35.9864223,22.3425196 35.95,22.51 C36.9057331,23.0400146 37.6004039,23.9409158 37.87,25 C37.9593041,25.3257307 38.0030533,25.6622628 38,26 Z" id="Shape" fill="#CFD8DC"/><path d="M50.13,20 C49.9566596,20.6553991 49.9566596,21.3446009 50.13,22 L50,22 C50.0044722,21.1449829 49.6356179,20.3305817 48.99,19.77 L48.99,19.76 C48.9717727,18.9563886 48.8439257,18.1590269 48.61,17.39 C48.7918802,17.4960682 48.962726,17.6200152 49.12,17.76 L49.12,17.77 C49.8176371,18.3099511 50.2537061,19.1203126 50.32,20 L50.13,20 Z" id="Shape" fill="#F29C1F"/><path d="M60,26 C60,28.209139 58.209139,30 56,30 L46,30 C44.9387272,30.0013291 43.9205391,29.5803285 43.1701053,28.8298947 C42.4196715,28.0794609 41.9986709,27.0612728 42,26 C41.9969467,25.6622628 42.0406959,25.3257307 42.13,25 C42.3995961,23.9409158 43.0942669,23.0400146 44.05,22.51 C44.0135777,22.3425196 43.9967979,22.1713651 44,22 C44.0019538,20.8202736 44.6951482,19.7512083 45.771411,19.2680763 C46.8476738,18.7849443 48.1071826,18.9774455 48.99,19.76 L48.99,19.77 C49.6356179,20.3305817 50.0044722,21.1449829 50,22 L50.13,22 C49.9566596,21.3446009 49.9566596,20.6553991 50.13,20 L50.13,19.99 C50.4985474,18.5833428 51.6014432,17.4874954 53.0104344,17.127974 C54.4194255,16.7684527 55.9125388,17.2018966 56.91,18.26 C57.3686363,18.7558042 57.6983156,19.3567821 57.87,20.01 C57.9186678,20.1834259 57.9521278,20.3607636 57.97,20.54 C57.990274,20.6924901 58.0002965,20.8461684 58,21 C58.0025762,21.4821508 57.9143739,21.9604783 57.74,22.41 C58.8044082,22.9077438 59.5871398,23.8595159 59.87,25 C59.9593041,25.3257307 60.0030533,25.6622628 60,26 Z" id="Shape" fill="#F5F5F5"/><path d="M60,26 C60,28.209139 58.209139,30 56,30 L53,30 C55.209139,30 57,28.209139 57,26 C57.0030533,25.6622628 56.9593041,25.3257307 56.87,25 C56.5871398,23.8595159 55.8044082,22.9077438 54.74,22.41 C54.9143739,21.9604783 55.0025762,21.4821508 55,21 C55.0002965,20.8461684 54.990274,20.6924901 54.97,20.54 C54.9521278,20.3607636 54.9186678,20.1834259 54.87,20.01 C54.6983156,19.3567821 54.3686363,18.7558042 53.91,18.26 C53.5223588,17.837758 53.0435623,17.5094404 52.51,17.3 C52.570648,17.2673578 52.634269,17.2405701 52.7,17.22 C53.118322,17.0758147 53.5575292,17.0014874 54,17 C55.1031103,16.9965791 56.1577039,17.4532073 56.91,18.26 C57.3686363,18.7558042 57.6983156,19.3567821 57.87,20.01 C57.9186678,20.1834259 57.9521278,20.3607636 57.97,20.54 C57.990274,20.6924901 58.0002965,20.8461684 58,21 C58.0025762,21.4821508 57.9143739,21.9604783 57.74,22.41 C58.8044082,22.9077438 59.5871398,23.8595159 59.87,25 C59.9593041,25.3257307 60.0030533,25.6622628 60,26 Z" id="Shape" fill="#CFD8DC"/><path d="M6.53,36.076 C6.37067056,36.0760148 6.21364387,36.0379581 6.072,35.965 C1.907,33.813 1.192,29.026 1.164,28.823 C0.842,25.835 0.788,22.147 2.339,21.365 C3.967,20.54 5.511,21.996 6.166,22.988 C6.45864172,23.4487382 6.32777555,24.0590241 5.87195367,24.359266 C5.41613178,24.659508 4.80375962,24.5387803 4.496,24.088 C4.205,23.654 3.609,23.101 3.307,23.128 C2.97,23.72 2.894,26.2 3.148,28.576 C3.148,28.576 3.759,32.517 6.99,34.186 C7.39951073,34.3980617 7.61090029,34.8626656 7.50173467,35.3107193 C7.39256905,35.7587729 6.99116073,36.0740722 6.53,36.074 L6.53,36.076 Z" id="Shape" fill="#000000"/><path d="M24.37,56.04 L19.63,56.04 C16.158,56.04 14.786,53.933 13.197,51.491 C12.152706,49.7669717 10.8977094,48.1797503 9.461,46.766 C5.191,42.711 5.361,38.977 5.524,35.366 C5.557,34.651 5.59,33.925 5.59,33.181 C5.56909313,31.8555116 5.41871188,30.5352379 5.141,29.239 C4.665,26.617 4.013,23.026 4.411,14.494 C5.036,0.878 20.61,0.048 20.767,0.041 L23.19,0.041 C26.9608593,0.293461198 30.6017539,1.51972635 33.757,3.6 C34.0492433,3.80667814 34.2090257,4.15356654 34.1761588,4.5099957 C34.1432919,4.86642485 33.9227689,5.17824469 33.5976588,5.3279957 C33.2725486,5.4777467 32.8922433,5.44267814 32.6,5.236 C29.7680241,3.38876668 26.5147767,2.28795335 23.143,2.036 L20.81,2.036 C20.287,2.06 6.949,2.801 6.41,14.582 C6.022,22.888 6.625,26.209 7.11,28.882 C7.41069164,30.2961556 7.57212921,31.7363663 7.592,33.182 C7.592,33.957 7.558,34.714 7.524,35.458 C7.361,39.053 7.232,41.892 10.84,45.316 C12.3881224,46.8387753 13.7429708,48.5462739 14.874,50.4 C16.517,52.924 17.339,54.04 19.63,54.04 L24.37,54.04 C26.661,54.04 27.483,52.924 29.126,50.4 C30.2575158,48.5454611 31.6130448,46.8372796 33.162,45.314 C36.77,41.89 36.641,39.049 36.478,35.452 C36.445,34.726 36.412,33.988 36.41,33.232 C36.41,32.6797153 36.8577153,32.232 37.41,32.232 C37.9622847,32.232 38.41,32.6797153 38.41,33.232 C38.41,33.957 38.444,34.667 38.476,35.364 C38.64,38.978 38.809,42.714 34.539,46.769 C33.1014344,48.1816433 31.8454316,49.767855 30.8,51.491 C29.214,53.933 27.842,56.04 24.37,56.04 Z" id="Shape" fill="#000000"/><path d="M30.487,60 L13.513,60 C11.8561458,60 10.513,58.6568542 10.513,57 L10.513,47.48 C10.513,46.9277153 10.9607153,46.48 11.513,46.48 C12.0652847,46.48 12.513,46.9277153 12.513,47.48 L12.513,57 C12.513,57.5522847 12.9607153,58 13.513,58 L30.487,58 C31.0392847,58 31.487,57.5522847 31.487,57 L31.487,47.48 C31.487,46.9277153 31.9347153,46.4800001 32.487,46.4800001 C33.0392847,46.4800001 33.487,46.9277153 33.487,47.48 L33.487,57 C33.487,58.6568542 32.1438542,60 30.487,60 Z" id="Shape" fill="#000000"/><path d="M44.99,20.78 C44.4533385,20.7804512 44.0120029,20.3572105 43.99,19.821 C43.8944002,17.686264 42.1358755,16.0047288 39.999,16.0047288 C37.8621245,16.0047288 36.1035998,17.686264 36.008,19.821 C36.0008518,20.0874247 35.8861526,20.3396077 35.6900381,20.5200858 C35.4939237,20.7005638 35.2331002,20.7939626 34.967,20.779 C34.415704,20.7557346 33.9874378,20.2903252 34.01,19.739 C34.1412973,16.5265051 36.7838231,13.9897754 39.999,13.9897754 C43.2141769,13.9897754 45.8567027,16.5265051 45.988,19.739 C46.0105622,20.2903252 45.582296,20.7557346 45.031,20.779 L44.99,20.78 Z" id="Shape" fill="#000000"/><path d="M56.909,19.26 C56.3958175,19.2594932 55.966318,18.8706104 55.915,18.36 C55.071003,10.2046867 48.1988698,4.00705039 40,4.00705039 C31.8011302,4.00705039 24.928997,10.2046867 24.085,18.36 C24.0226006,18.9077569 23.5340003,19.3052999 22.985,19.255 C22.7203292,19.2282744 22.4772147,19.0971947 22.3094383,18.8907584 C22.1416618,18.684322 22.0630524,18.4195446 22.091,18.155 C23.0376355,8.97763795 30.7699449,2.00188251 39.996,2.00188251 C49.2220551,2.00188251 56.9543645,8.97763795 57.901,18.155 C57.9289476,18.4195446 57.8503382,18.684322 57.6825617,18.8907584 C57.5147853,19.0971947 57.2716708,19.2282744 57.007,19.255 C56.977,19.258 56.943,19.26 56.909,19.26 Z" id="Shape" fill="#000000"/><path d="M52.7,18.22 C52.2308644,18.2191396 51.8253944,17.8922684 51.725,17.434 C50.5220369,11.9223756 45.6423761,7.99287163 40.001,7.99287163 C34.3596239,7.99287163 29.4799631,11.9223756 28.277,17.434 C28.1474146,17.9606311 27.621663,18.2879794 27.0918953,18.1718808 C26.5621276,18.0557822 26.2214639,17.5385589 26.324,17.006 C27.7292341,10.5779572 33.4211507,5.99592826 40.001,5.99592826 C46.5808493,5.99592826 52.2727659,10.5779572 53.678,17.006 C53.7428419,17.3019791 53.6699895,17.6113958 53.479903,17.8473518 C53.2898165,18.0833078 53.0029983,18.2203534 52.7,18.22 Z" id="Shape" fill="#000000"/><path d="M31.01,20.765 L31,20.765 C30.4527987,20.7578858 30.0129538,20.3122475 30.013,19.765 L30.013,19.755 C30.138361,14.3327093 34.5660916,10.0003107 39.9898263,9.99298129 C45.4135611,9.98565192 49.8529846,14.3060679 49.993,19.728 L47.993,19.765 C47.8802925,15.4298627 44.3312975,11.9753989 39.9946975,11.9797406 C35.6580974,11.9840824 32.1160267,15.4456457 32.012,19.781 C32.0032512,20.3278058 31.5568745,20.7661637 31.01,20.765 Z" id="Shape" fill="#000000"/><path d="M34,31 L24,31 C21.9780636,31.0011875 20.1544276,29.7844926 19.3791847,27.9170809 C18.6039417,26.0496691 19.0297035,23.8991525 20.458,22.468 C20.6545794,22.2771907 20.8651679,22.101366 21.088,21.942 C20.6109928,19.4673791 22.0502371,17.0245463 24.4459924,16.2424714 C26.8417476,15.4603965 29.4450831,16.5835619 30.52,18.863 C31.7228232,17.9125173 33.3630761,17.733108 34.7429265,18.4011004 C36.1227769,19.0690928 36.9994607,20.4669636 37,22 C38.7217216,23.2912912 39.4239867,25.5394281 38.7434165,27.5811388 C38.0628463,29.6228495 36.152152,31 34,31 Z M26,18 C24.3431458,18 23,19.3431458 23,21 C22.9969934,21.3565375 23.0614601,21.7104259 23.19,22.043 C23.3830467,22.53195 23.1645665,23.0868898 22.69,23.313 C22.385902,23.4585106 22.1078471,23.6531152 21.867,23.889 C21.0148639,24.7494476 20.7636138,26.0378483 21.2300172,27.1554233 C21.6964205,28.2729983 22.7890063,29.000569 24,29 L34,29 C35.3642402,28.9983035 36.5555546,28.0763484 36.8994118,26.7561528 C37.2432691,25.4359573 36.6530741,24.0499915 35.463,23.383 C35.0739952,23.1655838 34.8758014,22.7169969 34.977,22.283 C34.9954684,22.1898573 35.0031856,22.0949026 35,22 C35,20.8954305 34.1045695,20 33,20 C31.8954305,20 31,20.8954305 31,22 C31,22.5522847 30.5522847,23 30,23 L29.87,23 C29.5568156,23.0001317 29.2616577,22.8535314 29.0725238,22.6039061 C28.8833898,22.3542807 28.822127,22.0304648 28.907,21.729 C28.9719138,21.4915398 29.0032184,21.246152 29,21 C29,19.3431458 27.6568542,18 26,18 Z" id="Shape" fill="#000000"/><path d="M56,31 L46,31 C43.847848,31 41.9371537,29.6228495 41.2565835,27.5811388 C40.5760133,25.5394281 41.2782784,23.2912912 43,22 C43.0005393,20.4669636 43.8772231,19.0690928 45.2570735,18.4011004 C46.6369239,17.733108 48.2771768,17.9125173 49.48,18.863 C50.5549169,16.5835619 53.1582524,15.4603965 55.5540076,16.2424714 C57.9497629,17.0245463 59.3890072,19.4673791 58.912,21.942 C59.1290792,22.0957018 59.3340168,22.2658702 59.525,22.451 C60.963288,23.8783517 61.3978839,26.0326509 60.6254563,27.9059797 C59.8530286,29.7793085 58.0263277,31.0012095 56,31 Z M47,20 C45.8954305,20 45,20.8954305 45,22 C44.9970004,22.0949448 45.0050545,22.1899163 45.024,22.283 C45.125021,22.7172309 44.9263888,23.1658868 44.537,23.383 C43.3469259,24.0499915 42.7567309,25.4359573 43.1005882,26.7561528 C43.4444454,28.0763484 44.6357598,28.9983035 46,29 L56,29 C57.2157244,29.0013707 58.312084,28.2688968 58.7761832,27.1452422 C59.2402824,26.0215876 58.9803552,24.7289313 58.118,23.872 C57.8805404,23.6442706 57.6085019,23.4555987 57.312,23.313 C56.8369073,23.0868539 56.6183303,22.5312312 56.812,22.042 C56.9389981,21.7094017 57.002758,21.3560092 57,21 C57,19.3431458 55.6568542,18 54,18 C52.3431458,18 51,19.3431458 51,21 C50.9967816,21.246152 51.0280862,21.4915398 51.093,21.729 C51.177873,22.0304648 51.1166102,22.3542807 50.9274762,22.6039061 C50.7383423,22.8535314 50.4431844,23.0001317 50.13,23 L50,23 C49.4477153,23 49,22.5522847 49,22 C49,20.8954305 48.1045695,20 47,20 Z" id="Shape" fill="#000000"/></g></g></svg>
