<?xml version="1.0" encoding="UTF-8"?>
<svg xmlns="http://www.w3.org/2000/svg" xmlns:xlink="http://www.w3.org/1999/xlink" width="512" height="512" viewBox="0 0 60 60" version="1.1"><!-- Generator: Sketch 51.3 (57544) - http://www.bohemiancoding.com/sketch --><title>092 - Knowledge</title><desc>Created with Sketch.</desc><defs/><g id="Page-1" stroke="none" stroke-width="1" fill="none" fill-rule="evenodd"><g id="092---Knowledge" transform="translate(-1.000000, 0.000000)" fill-rule="nonzero"><path d="M41.213,22.22 C39.943,21.57 38.672,23.5 38.672,23.5 L38.593,23.49 C38.7559709,20.4955491 38.7559709,17.4944509 38.593,14.5 C38,1.64 23.193,1 23.193,1 L20.813,1 C20.813,1 6,1.64 5.412,14.5 C5.24902908,17.4944509 5.24902908,20.4955491 5.412,23.49 L5.333,23.5 C5.333,23.5 4.063,21.57 2.792,22.22 C1.533,22.85 2.153,28.64 2.153,28.64 C2.153,28.64 2.783,33.1 6.533,35.04 C6.373,38.76 6.093,42.14 10.153,46 C10.6350751,46.4551694 11.0923982,46.9358594 11.523,47.44 L11.523,56.96 C11.5229862,58.060676 12.4123377,58.9544966 13.513,58.96 L30.492,58.96 C31.5926623,58.9544966 32.4820138,58.060676 32.482,56.96 L32.482,47.44 C32.9126018,46.9358594 33.3699249,46.4551694 33.852,46 C37.912,42.14 37.633,38.76 37.472,35.04 C41.222,33.1 41.852,28.64 41.852,28.64 C41.852,28.64 42.472,22.85 41.213,22.22 Z" id="Shape" fill="#2C3E50"/><path d="M6.593,33.14 C6.593,33.79 6.573,34.42 6.533,35.04 C2.783,33.1 2.153,28.64 2.153,28.64 C2.153,28.64 1.533,22.85 2.792,22.22 C4.063,21.57 5.333,23.5 5.333,23.5 L5.412,23.49 C5.732,28.45 6.593,30.02 6.593,33.14 Z" id="Shape" fill="#283593"/><path d="M38.59,23.49 C38.27,28.45 37.41,30.02 37.41,33.14 C37.41,33.79 37.43,34.42 37.47,35.04 C37.63,38.76 37.91,42.14 33.85,46 C33.3674124,46.4546547 32.9100622,46.9353732 32.48,47.44 C29.06,51.41 28.6,55 24.37,55 L19.63,55 C15.4,55 14.94,51.41 11.52,47.44 C11.0899378,46.9353732 10.6325876,46.4546547 10.15,46 C6.09,42.14 6.37,38.76 6.53,35.04 C6.57,34.42 6.59,33.79 6.59,33.14 C6.59,30.02 5.73,28.45 5.41,23.49 C5.2465184,20.495563 5.2465184,17.494437 5.41,14.5 C5.95,2.75 18.37,1.2 20.5,1.02 C20.7,1 20.81,1 20.81,1 L23.19,1 C23.19,1 38,1.64 38.59,14.5 C38.7534816,17.494437 38.7534816,20.495563 38.59,23.49 Z" id="Shape" fill="#283593"/><path d="M35.59,23.49 C35.27,28.45 34.41,30.02 34.41,33.14 C34.41,33.79 34.43,34.42 34.47,35.04 C34.63,38.76 34.91,42.14 30.85,46 C30.3674124,46.4546547 29.9100622,46.9353732 29.48,47.44 C26.06,51.41 25.6,55 21.37,55 L19.63,55 C15.4,55 14.94,51.41 11.52,47.44 C11.0899378,46.9353732 10.6325876,46.4546547 10.15,46 C6.09,42.14 6.37,38.76 6.53,35.04 C6.57,34.42 6.59,33.79 6.59,33.14 C6.59,30.02 5.73,28.45 5.41,23.49 C5.2465184,20.495563 5.2465184,17.494437 5.41,14.5 C5.95,2.75 18.37,1.2 20.5,1.02 C22.63,1.2 35.05,2.75 35.59,14.5 C35.7534816,17.494437 35.7534816,20.495563 35.59,23.49 Z" id="Shape" fill="#3F51B5"/><path d="M32.485,47.44 L32.485,56.96 C32.4850138,58.060676 31.5956623,58.9544966 30.495,58.96 L13.515,58.96 C12.4143377,58.9544966 11.5249862,58.060676 11.525,56.96 L11.525,47.44 C14.945,51.41 15.405,55 19.635,55 L24.375,55 C28.605,55 29.065,51.41 32.485,47.44 Z" id="Shape" fill="#283593"/><rect id="Rectangle-path" fill="#6D4122" x="22" y="8" width="38" height="26" rx="2"/><rect id="Rectangle-path" fill="#91562D" x="22" y="8" width="35" height="26" rx="2"/><rect id="Rectangle-path" fill="#37474F" x="26" y="12" width="30" height="18" rx="1"/><rect id="Rectangle-path" fill="#607D8B" x="26" y="12" width="27" height="18" rx="1"/><circle id="Oval" fill="#7F8E94" cx="41" cy="6" r="2"/><path d="M6.53,36.076 C6.37067056,36.0760148 6.21364387,36.0379581 6.072,35.965 C1.907,33.813 1.192,29.026 1.164,28.823 C0.842,25.835 0.788,22.147 2.339,21.365 C3.967,20.54 5.511,21.996 6.166,22.988 C6.45864172,23.4487382 6.32777555,24.0590241 5.87195367,24.359266 C5.41613178,24.659508 4.80375962,24.5387803 4.496,24.088 C4.205,23.654 3.596,23.101 3.307,23.128 C2.97,23.72 2.894,26.2 3.148,28.576 C3.148,28.576 3.759,32.517 6.99,34.186 C7.39951073,34.3980617 7.61090029,34.8626656 7.50173467,35.3107193 C7.39256905,35.7587729 6.99116073,36.0740722 6.53,36.074 L6.53,36.076 Z" id="Shape" fill="#000000"/><path d="M24.37,56.04 L19.63,56.04 C16.158,56.04 14.786,53.933 13.197,51.491 C12.152706,49.7669717 10.8977094,48.1797503 9.461,46.766 C5.191,42.711 5.361,38.977 5.524,35.366 C5.557,34.651 5.59,33.925 5.59,33.181 C5.56909313,31.8555116 5.41871188,30.5352379 5.141,29.239 C4.665,26.617 4.013,23.026 4.411,14.494 C5.036,0.878 20.61,0.048 20.767,0.041 L23.19,0.041 C23.634,0.06 33.096,0.541 37.475,7.467 C37.6782331,7.76909094 37.7012174,8.15776853 37.5350044,8.48170658 C37.3687915,8.80564463 37.0396503,9.01364624 36.6757276,9.02472889 C36.3118048,9.03581154 35.9706167,8.84822367 35.785,8.535 C31.971,2.507 23.233,2.044 23.146,2.035 L20.81,2.035 C20.287,2.059 6.949,2.8 6.41,14.581 C6.022,22.887 6.625,26.208 7.11,28.881 C7.41069164,30.2951556 7.57212921,31.7353663 7.592,33.181 C7.592,33.956 7.558,34.713 7.524,35.457 C7.361,39.052 7.232,41.891 10.84,45.315 C12.3881876,46.8380857 13.7430385,48.5459232 14.874,50.4 C16.517,52.924 17.339,54.04 19.63,54.04 L24.37,54.04 C26.661,54.04 27.483,52.924 29.126,50.4 C30.2575158,48.5454611 31.6130448,46.8372796 33.162,45.314 C36.768,41.896 36.639,39.058 36.476,35.465 C36.455,34.991 36.433,34.512 36.42,34.026 C36.4107111,33.6687344 36.5927267,33.3336518 36.8974833,33.1469746 C37.20224,32.9602973 37.5834378,32.9503862 37.8974833,33.1209746 C38.2115289,33.2915629 38.4107111,33.6167344 38.42,33.974 C38.433,34.446 38.454,34.913 38.475,35.374 C38.639,38.984 38.808,42.718 34.539,46.766 C33.1014686,48.179782 31.8454822,49.7669806 30.8,51.491 C29.214,53.933 27.842,56.04 24.37,56.04 Z" id="Shape" fill="#000000"/><path d="M30.487,60 L13.513,60 C11.8561458,60 10.513,58.6568542 10.513,57 L10.513,47.48 C10.513,46.9277153 10.9607153,46.48 11.513,46.48 C12.0652847,46.48 12.513,46.9277153 12.513,47.48 L12.513,57 C12.513,57.5522847 12.9607153,58 13.513,58 L30.487,58 C31.0392847,58 31.487,57.5522847 31.487,57 L31.487,47.48 C31.487,46.9277153 31.9347153,46.4800001 32.487,46.4800001 C33.0392847,46.4800001 33.487,46.9277153 33.487,47.48 L33.487,57 C33.487,58.6568542 32.1438542,60 30.487,60 Z" id="Shape" fill="#000000"/><path d="M58,35 L24,35 C22.3431458,35 21,33.6568542 21,32 L21,10 C21,8.34314575 22.3431458,7 24,7 L58,7 C59.6568542,7 61,8.34314575 61,10 L61,32 C61,33.6568542 59.6568542,35 58,35 Z M24,9 C23.4477153,9 23,9.44771525 23,10 L23,32 C23,32.5522847 23.4477153,33 24,33 L58,33 C58.5522847,33 59,32.5522847 59,32 L59,10 C59,9.44771525 58.5522847,9 58,9 L24,9 Z" id="Shape" fill="#000000"/><path d="M55,31 L27,31 C25.8954305,31 25,30.1045695 25,29 L25,13 C25,11.8954305 25.8954305,11 27,11 L55,11 C56.1045695,11 57,11.8954305 57,13 L57,29 C57,30.1045695 56.1045695,31 55,31 Z M27,13 L27,29 L55,29 L55,13 L27,13 Z" id="Shape" fill="#000000"/><path d="M35,27 C34.4477153,27 34,26.5522847 34,26 L34,18.5 C34,17.6715729 33.3284271,17 32.5,17 C31.6715729,17 31,17.6715729 31,18.5 L31,26 C31,26.5522847 30.5522847,27 30,27 C29.4477153,27 29,26.5522847 29,26 L29,18.5 C29,16.5670034 30.5670034,15 32.5,15 C34.4329966,15 36,16.5670034 36,18.5 L36,26 C36,26.5522847 35.5522847,27 35,27 Z" id="Shape" fill="#000000"/><path d="M41.5,27 L40,27 C38.8954305,27 38,26.1045695 38,25 L38,17 C38,15.8954305 38.8954305,15 40,15 L41.5,15 C42.9216675,15.0010109 44.2014802,15.8618765 44.7383519,17.1782762 C45.2752236,18.494676 44.9624774,20.0050401 43.947,21 C44.9624774,21.9949599 45.2752236,23.505324 44.7383519,24.8217238 C44.2014802,26.1381235 42.9216675,26.9989891 41.5,27 Z M40,22 L40,25 L41.5,25 C42.3284271,25 42.9999999,24.3284271 42.9999999,23.5 C42.9999999,22.6715729 42.3284271,22 41.5,22 L40,22 Z M40,20 L41.5,20 C42.3284271,20 43,19.3284271 43,18.5 C43,17.6715729 42.3284271,17 41.5,17 L40,17 L40,20 Z" id="Shape" fill="#000000"/><path d="M52,27 L51,27 C48.790861,27 47,25.209139 47,23 L47,19 C47,16.790861 48.790861,15 51,15 L52,15 C52.5522847,15 53,15.4477153 53,16 C53,16.5522847 52.5522847,17 52,17 L51,17 C49.8954305,17 49,17.8954305 49,19 L49,23 C49,24.1045695 49.8954305,25 51,25 L52,25 C52.5522847,25 53,25.4477153 53,26 C53,26.5522847 52.5522847,27 52,27 Z" id="Shape" fill="#000000"/><path d="M35,22 L30,22 C29.4477153,22 29,21.5522847 29,21 C29,20.4477153 29.4477153,20 30,20 L35,20 C35.5522847,20 36,20.4477153 36,21 C36,21.5522847 35.5522847,22 35,22 Z" id="Shape" fill="#000000"/><path d="M41,9 C39.3431458,9 38,7.65685425 38,6 C38,4.34314575 39.3431458,3 41,3 C42.6568542,3 44,4.34314575 44,6 C44,6.79564947 43.6839295,7.55871121 43.1213203,8.12132034 C42.5587112,8.68392948 41.7956495,9 41,9 Z M41,5 C40.4477153,5 40,5.44771525 40,6 C40,6.55228475 40.4477153,7 41,7 C41.5522847,7 42,6.55228475 42,6 C42,5.44771525 41.5522847,5 41,5 Z" id="Shape" fill="#000000"/></g></g></svg>
