<?xml version="1.0" encoding="UTF-8"?>
<svg xmlns="http://www.w3.org/2000/svg" xmlns:xlink="http://www.w3.org/1999/xlink" width="512" height="512" viewBox="0 0 60 60" version="1.1"><!-- Generator: Sketch 51.3 (57544) - http://www.bohemiancoding.com/sketch --><title>093 - Education</title><desc>Created with Sketch.</desc><defs/><g id="Page-1" stroke="none" stroke-width="1" fill="none" fill-rule="evenodd"><g id="093---Education" transform="translate(-1.000000, -1.000000)" fill-rule="nonzero"><path d="M6.593,34.14 C6.593,34.79 6.573,35.42 6.533,36.04 C2.783,34.1 2.153,29.64 2.153,29.64 C2.153,29.64 1.533,23.85 2.792,23.22 C4.063,22.57 5.333,24.5 5.333,24.5 L5.412,24.49 C5.732,29.45 6.593,31.02 6.593,34.14 Z" id="Shape" fill="#673AB7"/><path d="M38.59,24.49 C38.27,29.45 37.41,31.02 37.41,34.14 C37.41,34.79 37.43,35.42 37.47,36.04 C37.63,39.76 37.91,43.14 33.85,47 C33.3674124,47.4546547 32.9100622,47.9353732 32.48,48.44 C29.06,52.41 28.6,56 24.37,56 L19.63,56 C15.4,56 14.94,52.41 11.52,48.44 C11.0899378,47.9353732 10.6325876,47.4546547 10.15,47 C6.09,43.14 6.37,39.76 6.53,36.04 C6.57,35.42 6.59,34.79 6.59,34.14 C6.59,31.02 5.73,29.45 5.41,24.49 C5.2465184,21.495563 5.2465184,18.494437 5.41,15.5 C5.95,3.75 18.37,2.2 20.5,2.02 C20.7,2 20.81,2 20.81,2 L23.19,2 C23.19,2 38,2.64 38.59,15.5 C38.7534816,18.494437 38.7534816,21.495563 38.59,24.49 Z" id="Shape" fill="#6A1B9A"/><path d="M35.59,24.49 C35.27,29.45 34.41,31.02 34.41,34.14 C34.41,34.79 34.43,35.42 34.47,36.04 C34.63,39.76 34.91,43.14 30.85,47 C30.3674124,47.4546547 29.9100622,47.9353732 29.48,48.44 C26.06,52.41 25.6,56 21.37,56 L19.63,56 C15.4,56 14.94,52.41 11.52,48.44 C11.0899378,47.9353732 10.6325876,47.4546547 10.15,47 C6.09,43.14 6.37,39.76 6.53,36.04 C6.57,35.42 6.59,34.79 6.59,34.14 C6.59,31.02 5.73,29.45 5.41,24.49 C5.2465184,21.495563 5.2465184,18.494437 5.41,15.5 C5.95,3.75 18.37,2.2 20.5,2.02 C22.63,2.2 35.05,3.75 35.59,15.5 C35.7534816,18.494437 35.7534816,21.495563 35.59,24.49 Z" id="Shape" fill="#9D27B0"/><path d="M32.485,48.44 L32.485,57.96 C32.4850138,59.060676 31.5956623,59.9544966 30.495,59.96 L13.515,59.96 C12.4143377,59.9544966 11.5249862,59.060676 11.525,57.96 L11.525,48.44 C14.945,52.41 15.405,56 19.635,56 L24.375,56 C28.605,56 29.065,52.41 32.485,48.44 Z" id="Shape" fill="#673AB7"/><path d="M55.0000565,15.19 L55,26.54 C55.0085704,28.24634 54.0415225,29.8075981 52.51,30.56 C51.9220937,30.8497069 51.2754113,31.0002573 50.62,31 L37.23,31 L33.3,30.52 C31.8107389,29.7521889 30.8763918,28.2155356 30.88,26.54 L30.8799896,15.19 L55.0000565,15.19 Z" id="Shape" fill="#37474F"/><path d="M52.0000565,15.19 L52,26.54 C52.0085704,28.24634 51.0415225,29.8075981 49.51,30.56 C48.9220937,30.8497069 48.2754113,31.0002573 47.62,31 L37.23,31 L33.3,30.52 C31.8107389,29.7521889 30.8763918,28.2155356 30.88,26.54 L30.8799896,15.19 L52.0000565,15.19 Z" id="Shape" fill="#607D8B"/><path d="M59.43,13 L43.5,21.87 C43.1883484,22.0400264 42.8116516,22.0400264 42.5,21.87 L42.4,21.81 L26.57,13 C26.216583,12.7908428 25.9998142,12.4106706 25.9998142,12 C25.9998142,11.5893294 26.216583,11.2091572 26.57,11 L40.6,3.19 L42.5,2.13 C42.8116516,1.95997363 43.1883484,1.95997363 43.5,2.13 L59.43,11 C59.783417,11.2091572 60.0001858,11.5893294 60.0001858,12 C60.0001858,12.4106706 59.783417,12.7908428 59.43,13 Z" id="Shape" fill="#545C60"/><path d="M56.43,14 L42.4,21.81 L26.57,13 C26.216583,12.7908428 25.9998142,12.4106706 25.9998142,12 C25.9998142,11.5893294 26.216583,11.2091572 26.57,11 L40.6,3.19 L56.43,12 C56.783417,12.2091572 57.0001858,12.5893294 57.0001858,13 C57.0001858,13.4106706 56.783417,13.7908428 56.43,14 Z" id="Shape" fill="#7F8E94"/><rect id="Rectangle-path" fill="#FFDC00" x="32" y="30" width="6" height="7" rx="3"/><ellipse id="Oval" fill="#607D8B" cx="43" cy="12" rx="4" ry="2"/><path d="M6.53,37.076 C6.37067056,37.0760148 6.21364387,37.0379581 6.072,36.965 C1.907,34.813 1.192,30.026 1.164,29.823 C0.842,26.835 0.788,23.147 2.339,22.365 C3.966,21.54 5.511,22.996 6.166,23.988 C6.45864172,24.4487382 6.32777555,25.0590241 5.87195367,25.359266 C5.41613178,25.659508 4.80375962,25.5387803 4.496,25.088 C4.205,24.654 3.605,24.101 3.307,24.128 C2.97,24.72 2.894,27.2 3.148,29.576 C3.148,29.576 3.759,33.517 6.99,35.186 C7.39951073,35.3980617 7.61090029,35.8626656 7.50173467,36.3107193 C7.39256905,36.7587729 6.99116073,37.0740722 6.53,37.074 L6.53,37.076 Z" id="Shape" fill="#000000"/><path d="M38.7,20.755 C38.149662,20.7550069 37.7027517,20.3103311 37.7,19.76 L37.7,19.75 C37.7,19.1977153 38.1477153,18.75 38.7,18.75 C39.2522847,18.75 39.7,19.1977153 39.7,19.75 C39.7,20.3022847 39.2522847,20.75 38.7,20.75 L38.7,20.755 Z" id="Shape" fill="#000000"/><path d="M24.37,57.04 L19.63,57.04 C16.158,57.04 14.786,54.933 13.197,52.491 C12.152706,50.7669717 10.8977094,49.1797503 9.461,47.766 C5.191,43.711 5.361,39.977 5.524,36.366 C5.557,35.651 5.59,34.925 5.59,34.181 C5.56909313,32.8555116 5.41871188,31.5352379 5.141,30.239 C4.665,27.617 4.013,24.026 4.411,15.494 C5.036,1.878 20.61,1.048 20.767,1.041 L23.19,1.041 C23.526,1.055 30.473,1.398 35.258,5.806 C35.5204116,6.04858334 35.6334732,6.41273449 35.5545957,6.76128125 C35.4757181,7.10982801 35.2168848,7.38981783 34.8755957,7.49578125 C34.5343065,7.60174467 34.1624116,7.51758334 33.9,7.275 C29.649,3.359 23.21,3.042 23.145,3.039 L20.81,3.039 C20.287,3.063 6.949,3.804 6.41,15.585 C6.022,23.891 6.625,27.212 7.11,29.885 C7.41069164,31.2991556 7.57212921,32.7393663 7.592,34.185 C7.592,34.96 7.558,35.717 7.524,36.461 C7.361,40.056 7.232,42.895 10.84,46.319 C12.387927,47.8408441 13.742768,49.5473258 14.874,51.4 C16.517,53.924 17.339,55.04 19.63,55.04 L24.37,55.04 C26.661,55.04 27.483,53.924 29.126,51.4 C30.2575158,49.5454611 31.6130448,47.8372796 33.162,46.314 C36.762,42.895 36.638,40.067 36.481,36.487 L36.451,35.77 C36.4404524,35.5047296 36.5358201,35.246152 36.7160846,35.0512563 C36.8963491,34.8563605 37.1467138,34.7411441 37.412,34.731 C37.6789284,34.7125101 37.9416394,34.805101 38.1379878,34.98687 C38.3343362,35.168639 38.4468812,35.4234403 38.449,35.691 L38.479,36.399 C38.637,39.999 38.799,43.718 34.539,47.765 C33.1014027,49.1790921 31.8454137,50.7666298 30.8,52.491 C29.214,54.933 27.842,57.04 24.37,57.04 Z" id="Shape" fill="#000000"/><path d="M30.487,61 L13.513,61 C11.8561458,61 10.513,59.6568542 10.513,58 L10.513,48.48 C10.513,47.9277153 10.9607153,47.48 11.513,47.48 C12.0652847,47.48 12.513,47.9277153 12.513,48.48 L12.513,58 C12.513,58.5522847 12.9607153,59 13.513,59 L30.487,59 C31.0392847,59 31.487,58.5522847 31.487,58 L31.487,48.48 C31.487,47.9277153 31.9347153,47.4800001 32.487,47.4800001 C33.0392847,47.4800001 33.487,47.9277153 33.487,48.48 L33.487,58 C33.487,59.6568542 32.1438542,61 30.487,61 Z" id="Shape" fill="#000000"/><path d="M43,23 C42.6539174,22.9997282 42.3137086,22.9105439 42.012,22.741 L26.083,13.87 C25.4126023,13.4860309 24.9990392,12.7725706 24.9990392,12 C24.9990392,11.2274294 25.4126023,10.5139691 26.083,10.13 L42.012,1.257 C42.6255085,0.912069971 43.3744915,0.912069971 43.988,1.257 L59.917,10.13 C60.5873977,10.5139691 61.0009608,11.2274294 61.0009608,12 C61.0009608,12.7725706 60.5873977,13.4860309 59.917,13.87 L43.988,22.743 C43.685936,22.9114302 43.3458487,22.9998942 43,23 Z M43.015,3 L27.057,11.878 C27.0211721,11.9084003 27.0005181,11.9530126 27.0005181,12 C27.0005181,12.0469874 27.0211721,12.0915997 27.057,12.122 L42.985,21 L58.943,12.127 C58.9788279,12.0965997 58.9994819,12.0519874 58.9994819,12.005 C58.9994819,11.9580126 58.9788279,11.9134003 58.943,11.883 L43.015,3 Z" id="Shape" fill="#000000"/><path d="M33.3,31.52 C33.1421047,31.5196898 32.9865268,31.4819948 32.846,31.41 C31.0173366,30.4768052 29.8704115,28.5929857 29.881,26.54 L29.881,15.69 C29.881,15.1377153 30.3287153,14.69 30.881,14.69 C31.4332847,14.69 31.881,15.1377153 31.881,15.69 L31.881,26.54 C31.8723064,27.8409121 32.5971893,29.0357697 33.755,29.629 C34.1671265,29.8389958 34.3814554,30.3042286 34.2732495,30.7539373 C34.1650435,31.2036461 33.7625433,31.5204615 33.3,31.52 Z" id="Shape" fill="#000000"/><path d="M50.62,32 L37.23,32 C36.6777153,32 36.23,31.5522847 36.23,31 C36.23,30.4477153 36.6777153,30 37.23,30 L50.62,30 C51.1223385,30.0010724 51.6180499,29.8853607 52.068,29.662 C53.2609515,29.0818477 54.0130647,27.8664763 54,26.54 L54,15.69 C54,15.1377153 54.4477153,14.69 55,14.69 C55.5522847,14.69 56,15.1377153 56,15.69 L56,26.54 C56.0166264,28.6313724 54.8284891,30.5457017 52.947,31.459 C52.2233393,31.8161104 51.4269765,32.0012554 50.62,32 Z" id="Shape" fill="#000000"/><path d="M43,15 C40.149,15 38,13.71 38,12 C38,10.29 40.149,9 43,9 C45.851,9 48,10.29 48,12 C48,13.71 45.851,15 43,15 Z M43,11 C41.064,11 40,11.751 40,12 C40,12.249 41.064,13 43,13 C44.936,13 46,12.249 46,12 C46,11.751 44.936,11 43,11 Z" id="Shape" fill="#000000"/><path d="M35,31 C34.4477153,31 34,30.5522847 34,30 L34,18 C34.0000566,17.7348052 34.1054506,17.4804927 34.293,17.293 L39.093,12.493 C39.4853789,12.1140278 40.1090848,12.1194476 40.4948186,12.5051814 C40.8805524,12.8909152 40.8859722,13.5146211 40.507,13.907 L36,18.414 L36,30 C36,30.5522847 35.5522847,31 35,31 Z" id="Shape" fill="#000000"/><path d="M35,38 C32.790861,38 31,36.209139 31,34 L31,33 C31,30.790861 32.790861,29 35,29 C37.209139,29 39,30.790861 39,33 L39,34 C39,36.209139 37.209139,38 35,38 Z M35,31 C33.8954305,31 33,31.8954305 33,33 L33,34 C33,35.1045695 33.8954305,36 35,36 C36.1045695,36 37,35.1045695 37,34 L37,33 C37,31.8954305 36.1045695,31 35,31 Z" id="Shape" fill="#000000"/></g></g></svg>
