<?xml version="1.0" encoding="UTF-8"?>
<svg xmlns="http://www.w3.org/2000/svg" xmlns:xlink="http://www.w3.org/1999/xlink" width="512" height="512" viewBox="0 0 60 60" version="1.1"><!-- Generator: Sketch 51.3 (57544) - http://www.bohemiancoding.com/sketch --><title>094 - Happy</title><desc>Created with Sketch.</desc><defs/><g id="Page-1" stroke="none" stroke-width="1" fill="none" fill-rule="evenodd"><g id="094---Happy" transform="translate(-1.000000, 0.000000)" fill-rule="nonzero"><path d="M41.213,22.22 C39.943,21.57 38.672,23.5 38.672,23.5 L38.593,23.49 C38.7559709,20.4955491 38.7559709,17.4944509 38.593,14.5 C38,1.64 23.193,1 23.193,1 L20.813,1 C20.813,1 6,1.64 5.412,14.5 C5.24902908,17.4944509 5.24902908,20.4955491 5.412,23.49 L5.333,23.5 C5.333,23.5 4.063,21.57 2.792,22.22 C1.533,22.85 2.153,28.64 2.153,28.64 C2.153,28.64 2.783,33.1 6.533,35.04 C6.373,38.76 6.093,42.14 10.153,46 C10.6350751,46.4551694 11.0923982,46.9358594 11.523,47.44 L11.523,56.96 C11.5229862,58.060676 12.4123377,58.9544966 13.513,58.96 L30.492,58.96 C31.5926623,58.9544966 32.4820138,58.060676 32.482,56.96 L32.482,47.44 C32.9126018,46.9358594 33.3699249,46.4551694 33.852,46 C37.912,42.14 37.633,38.76 37.472,35.04 C41.222,33.1 41.852,28.64 41.852,28.64 C41.852,28.64 42.472,22.85 41.213,22.22 Z" id="Shape" fill="#2FA8CC"/><path d="M6.593,33.14 C6.593,33.79 6.573,34.42 6.533,35.04 C2.783,33.1 2.153,28.64 2.153,28.64 C2.153,28.64 1.533,22.85 2.792,22.22 C4.063,21.57 5.333,23.5 5.333,23.5 L5.412,23.49 C5.732,28.45 6.593,30.02 6.593,33.14 Z" id="Shape" fill="#3F51B5"/><path d="M38.59,23.49 C38.27,28.45 37.41,30.02 37.41,33.14 C37.41,33.79 37.43,34.42 37.47,35.04 C37.63,38.76 37.91,42.14 33.85,46 C33.3674124,46.4546547 32.9100622,46.9353732 32.48,47.44 C29.06,51.41 28.6,55 24.37,55 L19.63,55 C15.4,55 14.94,51.41 11.52,47.44 C11.0899378,46.9353732 10.6325876,46.4546547 10.15,46 C6.09,42.14 6.37,38.76 6.53,35.04 C6.57,34.42 6.59,33.79 6.59,33.14 C6.59,30.02 5.73,28.45 5.41,23.49 C5.2465184,20.495563 5.2465184,17.494437 5.41,14.5 C5.95,2.75 18.37,1.2 20.5,1.02 C20.7,1 20.81,1 20.81,1 L23.19,1 C23.19,1 38,1.64 38.59,14.5 C38.7534816,17.494437 38.7534816,20.495563 38.59,23.49 Z" id="Shape" fill="#0377BC"/><path d="M35.59,23.49 C35.27,28.45 34.41,30.02 34.41,33.14 C34.41,33.79 34.43,34.42 34.47,35.04 C34.63,38.76 34.91,42.14 30.85,46 C30.3674124,46.4546547 29.9100622,46.9353732 29.48,47.44 C26.06,51.41 25.6,55 21.37,55 L19.63,55 C15.4,55 14.94,51.41 11.52,47.44 C11.0899378,46.9353732 10.6325876,46.4546547 10.15,46 C6.09,42.14 6.37,38.76 6.53,35.04 C6.57,34.42 6.59,33.79 6.59,33.14 C6.59,30.02 5.73,28.45 5.41,23.49 C5.2465184,20.495563 5.2465184,17.494437 5.41,14.5 C5.95,2.75 18.37,1.2 20.5,1.02 C22.63,1.2 35.05,2.75 35.59,14.5 C35.7534816,17.494437 35.7534816,20.495563 35.59,23.49 Z" id="Shape" fill="#02A9F4"/><path d="M32.485,47.44 L32.485,56.96 C32.4850138,58.060676 31.5956623,58.9544966 30.495,58.96 L13.515,58.96 C12.4143377,58.9544966 11.5249862,58.060676 11.525,56.96 L11.525,47.44 C14.945,51.41 15.405,55 19.635,55 L24.375,55 C28.605,55 29.065,51.41 32.485,47.44 Z" id="Shape" fill="#3F51B5"/><polygon id="Shape" fill="#FFEB3A" points="37.39 6.23 40 1 42.61 6.23"/><polygon id="Shape" fill="#FFEB3A" points="30.355 9.514 30 3.679 34.875 6.904"/><polygon id="Shape" fill="#FFEB3A" points="25.904 15.875 22.679 11 28.514 11.355"/><polygon id="Shape" fill="#FFEB3A" points="25.23 23.61 20 21 25.23 18.39"/><polygon id="Shape" fill="#FFEB3A" points="28.514 30.645 22.679 31 25.904 26.125"/><polygon id="Shape" fill="#FFEB3A" points="34.875 35.096 30 38.321 30.355 32.486"/><polygon id="Shape" fill="#FFEB3A" points="42.61 35.77 40 41 37.39 35.77"/><polygon id="Shape" fill="#FFEB3A" points="49.645 32.486 50 38.321 45.125 35.096"/><polygon id="Shape" fill="#FFEB3A" points="54.096 26.125 57.321 31 51.486 30.645"/><polygon id="Shape" fill="#FFEB3A" points="54.77 18.39 60 21 54.77 23.61"/><polygon id="Shape" fill="#FFEB3A" points="51.486 11.355 57.321 11 54.096 15.875"/><polygon id="Shape" fill="#FFEB3A" points="45.125 6.904 50 3.679 49.645 9.514"/><path d="M55,21 C54.9972403,29.2831279 48.2831279,35.9972403 40,36 C39.5088158,36.0038156 39.0178692,35.9770974 38.53,35.92 C38.51,35.92 38.49,35.93 38.47,35.92 C30.825708,35.1273267 25.0171264,28.6852802 25.0171264,21 C25.0171264,13.3147198 30.825708,6.87267331 38.47,6.08 C38.49,6.07 38.51,6.08 38.53,6.08 C39.0178692,6.02290259 39.5088158,5.99618441 40,6 C48.2831279,6.00275966 54.9972403,12.7168721 55,21 Z" id="Shape" fill="#FEC108"/><path d="M52,21 C51.9935489,28.6890571 46.1783891,35.1301992 38.53,35.92 C38.51,35.92 38.49,35.93 38.47,35.92 C30.825708,35.1273267 25.0171264,28.6852802 25.0171264,21 C25.0171264,13.3147198 30.825708,6.87267331 38.47,6.08 C38.49,6.07 38.51,6.08 38.53,6.08 C46.1783891,6.8698008 51.9935489,13.3109429 52,21 Z" id="Shape" fill="#FFDC00"/><path d="M6.53,36.076 C6.37067056,36.0760148 6.21364387,36.0379581 6.072,35.965 C1.907,33.813 1.192,29.026 1.164,28.823 C0.842,25.835 0.788,22.147 2.339,21.365 C3.969,20.54 5.511,21.996 6.166,22.988 C6.45864172,23.4487382 6.32777555,24.0590241 5.87195367,24.359266 C5.41613178,24.659508 4.80375962,24.5387803 4.496,24.088 C4.205,23.654 3.61,23.101 3.307,23.128 C2.97,23.72 2.894,26.2 3.148,28.576 C3.148,28.576 3.759,32.517 6.99,34.186 C7.39951073,34.3980617 7.61090029,34.8626656 7.50173467,35.3107193 C7.39256905,35.7587729 6.99116073,36.0740722 6.53,36.074 L6.53,36.076 Z" id="Shape" fill="#000000"/><path d="M24.37,56.04 L19.63,56.04 C16.158,56.04 14.786,53.933 13.197,51.491 C12.152706,49.7669717 10.8977094,48.1797503 9.461,46.766 C5.191,42.711 5.361,38.977 5.524,35.366 C5.557,34.651 5.59,33.925 5.59,33.181 C5.56909313,31.8555116 5.41871188,30.5352379 5.141,29.239 C4.665,26.617 4.013,23.026 4.411,14.494 C5.036,0.878 20.61,0.048 20.767,0.041 L23.19,0.041 C24.7017473,0.136135988 26.1989549,0.392934237 27.656,0.807 C28.0114452,0.891937916 28.2922486,1.16400762 28.3883712,1.51659265 C28.4844938,1.86917768 28.380625,2.24611765 28.1174681,2.49970039 C27.8543112,2.75328313 27.4737823,2.84311753 27.125,2.734 C25.827679,2.36681768 24.4959834,2.13425684 23.151,2.04 L20.81,2.04 C20.287,2.064 6.949,2.805 6.41,14.586 C6.022,22.892 6.625,26.213 7.11,28.886 C7.41069164,30.3001556 7.57212921,31.7403663 7.592,33.186 C7.592,33.961 7.558,34.718 7.524,35.462 C7.361,39.057 7.232,41.896 10.84,45.32 C12.3878619,46.8415337 13.7427004,48.5476764 14.874,50.4 C16.517,52.924 17.339,54.04 19.63,54.04 L24.37,54.04 C26.661,54.04 27.483,52.924 29.126,50.4 C30.2575158,48.5454611 31.6130448,46.8372796 33.162,45.314 C33.881406,44.6463083 34.5191833,43.8957451 35.062,43.078 C35.3675088,42.6297502 35.9746875,42.5068163 36.4304994,42.8009235 C36.8863112,43.0950307 37.0245185,43.698916 36.742,44.162 C36.1141769,45.1127008 35.3756722,45.9854791 34.542,46.762 C33.1029724,48.1766857 31.8459436,49.7652717 30.8,51.491 C29.214,53.933 27.842,56.04 24.37,56.04 Z" id="Shape" fill="#000000"/><path d="M30.487,60 L13.513,60 C11.8561458,60 10.513,58.6568542 10.513,57 L10.513,47.48 C10.513,46.9277153 10.9607153,46.48 11.513,46.48 C12.0652847,46.48 12.513,46.9277153 12.513,47.48 L12.513,57 C12.513,57.5522847 12.9607153,58 13.513,58 L30.487,58 C31.0392847,58 31.487,57.5522847 31.487,57 L31.487,47.48 C31.487,46.9277153 31.9347153,46.4800001 32.487,46.4800001 C33.0392847,46.4800001 33.487,46.9277153 33.487,47.48 L33.487,57 C33.487,58.6568542 32.1438542,60 30.487,60 Z" id="Shape" fill="#000000"/><path d="M54.31,16.565 C53.7577153,16.565 53.31,16.1172847 53.31,15.565 L53.31,15.555 C53.3127582,15.0033745 53.7616874,14.5581691 54.3133167,14.5600055 C54.864946,14.561842 55.3109009,15.0100267 55.3099861,15.5616583 C55.3090713,16.1132899 54.8616324,16.5599931 54.31,16.56 L54.31,16.565 Z" id="Shape" fill="#000000"/><path d="M40,37 C31.163444,37 24,29.836556 24,21 C24,12.163444 31.163444,5 40,5 C48.836556,5 56,12.163444 56,21 C55.9895304,29.8322157 48.8322157,36.9895304 40,37 Z M40,7 C32.2680135,7 26,13.2680135 26,21 C26,28.7319865 32.2680135,35 40,35 C47.7319865,35 54,28.7319865 54,21 C53.9917327,13.2714405 47.7285595,7.00826732 40,7 Z" id="Shape" fill="#000000"/><path d="M29,22 C28.4477153,22 28,21.5522847 28,21 C28.0071648,14.375553 33.375553,9.00716485 40,9 C40.5522847,9 41,9.44771525 41,10 C41,10.5522847 40.5522847,11 40,11 C34.4796656,11.0060624 30.0060624,15.4796656 30,21 C30,21.5522847 29.5522847,22 29,22 Z" id="Shape" fill="#000000"/><path d="M42.611,7.23 C42.2301744,7.23207881 41.8812259,7.01766936 41.711,6.677 L40,3.239 L38.285,6.677 C38.1254809,6.9967527 37.8074932,7.20711397 37.4508197,7.22884274 C37.0941462,7.25057151 36.7529741,7.08036667 36.5558197,6.78234274 C36.3586652,6.4843188 36.3354809,6.1037527 36.495,5.784 L39.1,0.554 C39.2871996,0.237696934 39.6274523,0.0436933075 39.995,0.0436933075 C40.3625477,0.0436933075 40.7028004,0.237696934 40.89,0.554 L43.5,5.784 C43.7463014,6.27829608 43.5452815,6.87866943 43.051,7.125 C42.9144649,7.19365996 42.7638263,7.22960783 42.611,7.23 Z" id="Shape" fill="#000000"/><path d="M30.354,10.514 C29.8243227,10.5149542 29.3857798,10.1027239 29.354,9.574 L29,3.74 C28.9772522,3.36171577 29.1702937,3.00307491 29.4985711,2.81373298 C29.8268486,2.62439104 30.2339508,2.63688449 30.55,2.846 L35.425,6.069 C35.8583156,6.38302316 35.9676168,6.98252209 35.6730043,7.42926183 C35.3783918,7.87600157 34.784295,8.01162892 34.325,7.737 L31.125,5.619 L31.358,9.453 C31.374135,9.71784023 31.2843558,9.97823597 31.1084288,10.1768572 C30.9325018,10.3754784 30.6848509,10.4960405 30.42,10.512 L30.354,10.514 Z" id="Shape" fill="#000000"/><path d="M25.905,16.875 C25.5690884,16.8753881 25.2554231,16.7070982 25.07,16.427 L21.846,11.552 C21.6364206,11.2359564 21.623641,10.8285578 21.813,10.5 C22.0061924,10.1751804 22.3624515,9.9830234 22.74,10 L28.574,10.354 C28.8388509,10.3699595 29.0865018,10.4905216 29.2624288,10.6891428 C29.4383558,10.887764 29.528135,11.1481598 29.512,11.413 C29.4714291,11.9609407 29.0018306,12.3768834 28.453,12.351 L24.619,12.118 L26.738,15.318 C26.9411706,15.6249067 26.9593265,16.0186119 26.7852645,16.3429148 C26.6112024,16.6672178 26.2730624,16.8696894 25.905,16.87 L25.905,16.875 Z" id="Shape" fill="#000000"/><path d="M25.229,24.61 C25.0741765,24.6102837 24.9214359,24.5743246 24.783,24.505 L19.553,21.895 C19.2135855,21.7258365 18.9990661,21.3792341 18.9990661,21 C18.9990661,20.6207659 19.2135855,20.2741635 19.553,20.105 L24.783,17.495 C25.102984,17.3319683 25.4858178,17.3530372 25.7859789,17.550198 C26.0861401,17.7473588 26.2575309,18.0903322 26.2350026,18.4487475 C26.2124742,18.8071629 25.9994865,19.125976 25.677,19.284 L22.239,21 L25.677,22.716 C26.0914465,22.9237179 26.3087906,23.3890467 26.20208,23.8401847 C26.0953694,24.2913227 25.6925867,24.609969 25.229,24.61 Z" id="Shape" fill="#000000"/><path d="M22.68,32 C22.3117583,32.0000574 21.9732815,31.7977288 21.7989724,31.4733551 C21.6246633,31.1489813 21.6427305,30.7550562 21.846,30.448 L25.07,25.573 C25.3840232,25.1396844 25.9835221,25.0303832 26.4302618,25.3249957 C26.8770016,25.6196082 27.0126289,26.213705 26.738,26.673 L24.619,29.873 L28.453,29.64 C29.0014528,29.6151868 29.4704123,30.0305636 29.512,30.578 C29.528135,30.8428402 29.4383558,31.103236 29.2624288,31.3018572 C29.0865018,31.5004784 28.8388509,31.6210405 28.574,31.637 L22.74,32 L22.68,32 Z" id="Shape" fill="#000000"/><path d="M30,39.32 C29.8246426,39.3196026 29.6523794,39.2737806 29.5,39.187 C29.1709259,38.9979183 28.9772514,38.6388458 29,38.26 L29.354,32.426 C29.3985931,31.8800612 29.865671,31.4663511 30.413,31.488 C30.6778509,31.5039595 30.9255018,31.6245216 31.1014288,31.8231428 C31.2773558,32.021764 31.367135,32.2821598 31.351,32.547 L31.118,36.381 L34.318,34.263 C34.777295,33.9883711 35.3713918,34.1239984 35.6660043,34.5707382 C35.9606168,35.0174779 35.8513156,35.6169768 35.418,35.931 L30.543,39.154 C30.3818414,39.260637 30.1932373,39.3182949 30,39.32 Z" id="Shape" fill="#000000"/><path d="M40,42 C39.6189509,42.0018904 39.2699453,41.787058 39.1,41.446 L36.49,36.216 C36.2434049,35.7217052 36.4442052,35.1210952 36.9385,34.8745001 C37.4327949,34.6279049 38.0334048,34.8287052 38.28,35.323 L40,38.761 L41.715,35.323 C41.9615951,34.8287051 42.5622051,34.6279049 43.0565,34.8745 C43.5507949,35.1210951 43.7515951,35.7217051 43.505,36.216 L40.895,41.446 C40.725855,41.7854402 40.3792488,41.9999875 40,42 Z" id="Shape" fill="#000000"/><path d="M50,39.32 C49.8036951,39.3200462 49.6117183,39.2623141 49.448,39.154 L44.573,35.931 C44.1396844,35.6169768 44.0303832,35.0174779 44.3249957,34.5707382 C44.6196082,34.1239984 45.213705,33.9883711 45.673,34.263 L48.873,36.381 L48.64,32.547 C48.623865,32.2821598 48.7136442,32.021764 48.8895712,31.8231428 C49.0654982,31.6245216 49.3131491,31.5039595 49.578,31.488 C50.1266415,31.4626527 50.5959197,31.8783118 50.637,32.426 L51,38.26 C51.0227486,38.6388458 50.8290741,38.9979183 50.5,39.187 C50.3476206,39.2737806 50.1753574,39.3196026 50,39.32 Z" id="Shape" fill="#000000"/><path d="M57.32,32 L57.26,32 L51.426,31.646 C51.1611491,31.6300405 50.9134982,31.5094784 50.7375712,31.3108572 C50.5616442,31.112236 50.471865,30.8518402 50.488,30.587 C50.5290803,30.0393118 50.9983585,29.6236527 51.547,29.649 L55.381,29.882 L53.262,26.682 C52.9873711,26.222705 53.1229984,25.6286082 53.5697382,25.3339957 C54.0164779,25.0393832 54.6159768,25.1486844 54.93,25.582 L58.154,30.457 C58.3523439,30.7637196 58.3676775,31.1541804 58.1939973,31.4755096 C58.0203171,31.7968387 57.6852573,31.9979099 57.32,32 Z" id="Shape" fill="#000000"/><path d="M54.771,24.61 C54.3074133,24.609969 53.9046306,24.2913227 53.79792,23.8401847 C53.6912094,23.3890467 53.9085535,22.9237179 54.323,22.716 L57.761,21 L54.323,19.284 C54.0005135,19.125976 53.7875258,18.8071629 53.7649974,18.4487475 C53.7424691,18.0903322 53.9138599,17.7473588 54.2140211,17.550198 C54.5141822,17.3530372 54.897016,17.3319683 55.217,17.495 L60.447,20.105 C60.7864145,20.2741635 61.0009339,20.6207659 61.0009339,21 C61.0009339,21.3792341 60.7864145,21.7258365 60.447,21.895 L55.217,24.505 C55.0785641,24.5743246 54.9258235,24.6102837 54.771,24.61 Z" id="Shape" fill="#000000"/><path d="M54.1,16.875 C53.7319376,16.8746894 53.3937976,16.6722178 53.2197355,16.3479148 C53.0456735,16.0236119 53.0638294,15.6299067 53.267,15.323 L55.386,12.123 L51.552,12.356 C51.0029799,12.3824214 50.5330597,11.9661937 50.493,11.418 C50.476865,11.1531598 50.5666442,10.892764 50.7425712,10.6941428 C50.9184982,10.4955216 51.1661491,10.3749595 51.431,10.359 L57.26,10 C57.637702,9.98235078 57.9942853,10.1746827 58.187,10.5 C58.376359,10.8285578 58.3635794,11.2359564 58.154,11.552 L54.93,16.427 C54.7455565,16.7056233 54.4341387,16.8737139 54.1,16.875 Z" id="Shape" fill="#000000"/><path d="M49.646,10.514 L49.585,10.514 C49.3201491,10.4980405 49.0724982,10.3774784 48.8965712,10.1788572 C48.7206442,9.98023597 48.630865,9.71984023 48.647,9.455 L48.88,5.621 L45.68,7.739 C45.220705,8.01362892 44.6266082,7.87800157 44.3319957,7.43126183 C44.0373832,6.98452209 44.1466844,6.38502316 44.58,6.071 L49.455,2.848 C49.7705842,2.6420659 50.1751389,2.63102506 50.5014854,2.81944001 C50.827832,3.00785496 51.0205498,3.36372889 51,3.74 L50.646,9.574 C50.6142202,10.1027239 50.1756773,10.5149542 49.646,10.514 Z" id="Shape" fill="#000000"/></g></g></svg>
