<?xml version="1.0" encoding="UTF-8"?>
<svg xmlns="http://www.w3.org/2000/svg" xmlns:xlink="http://www.w3.org/1999/xlink" width="512" height="512" viewBox="0 0 60 60" version="1.1"><!-- Generator: Sketch 51.3 (57544) - http://www.bohemiancoding.com/sketch --><title>095 - Anxiety</title><desc>Created with Sketch.</desc><defs/><g id="Page-1" stroke="none" stroke-width="1" fill="none" fill-rule="evenodd"><g id="095---Anxiety" transform="translate(-1.000000, 0.000000)" fill-rule="nonzero"><path d="M41.213,22.22 C39.943,21.57 38.672,23.5 38.672,23.5 L38.593,23.49 C38.7559709,20.4955491 38.7559709,17.4944509 38.593,14.5 C38,1.64 23.193,1 23.193,1 L20.813,1 C20.813,1 6,1.64 5.412,14.5 C5.24902908,17.4944509 5.24902908,20.4955491 5.412,23.49 L5.333,23.5 C5.333,23.5 4.063,21.57 2.792,22.22 C1.533,22.85 2.153,28.64 2.153,28.64 C2.153,28.64 2.783,33.1 6.533,35.04 C6.373,38.76 6.093,42.14 10.153,46 C10.6350751,46.4551694 11.0923982,46.9358594 11.523,47.44 L11.523,56.96 C11.5229862,58.060676 12.4123377,58.9544966 13.513,58.96 L30.492,58.96 C31.5926623,58.9544966 32.4820138,58.060676 32.482,56.96 L32.482,47.44 C32.9126018,46.9358594 33.3699249,46.4551694 33.852,46 C37.912,42.14 37.633,38.76 37.472,35.04 C41.222,33.1 41.852,28.64 41.852,28.64 C41.852,28.64 42.472,22.85 41.213,22.22 Z" id="Shape" fill="#894B9D"/><path d="M6.593,33.14 C6.593,33.79 6.573,34.42 6.533,35.04 C2.783,33.1 2.153,28.64 2.153,28.64 C2.153,28.64 1.533,22.85 2.792,22.22 C4.063,21.57 5.333,23.5 5.333,23.5 L5.412,23.49 C5.732,28.45 6.593,30.02 6.593,33.14 Z" id="Shape" fill="#673AB7"/><path d="M38.59,23.49 C38.27,28.45 37.41,30.02 37.41,33.14 C37.41,33.79 37.43,34.42 37.47,35.04 C37.63,38.76 37.91,42.14 33.85,46 C33.3674124,46.4546547 32.9100622,46.9353732 32.48,47.44 C29.06,51.41 28.6,55 24.37,55 L19.63,55 C15.4,55 14.94,51.41 11.52,47.44 C11.0899378,46.9353732 10.6325876,46.4546547 10.15,46 C6.09,42.14 6.37,38.76 6.53,35.04 C6.57,34.42 6.59,33.79 6.59,33.14 C6.59,30.02 5.73,28.45 5.41,23.49 C5.2465184,20.495563 5.2465184,17.494437 5.41,14.5 C5.95,2.75 18.37,1.2 20.5,1.02 C20.7,1 20.81,1 20.81,1 L23.19,1 C23.19,1 38,1.64 38.59,14.5 C38.7534816,17.494437 38.7534816,20.495563 38.59,23.49 Z" id="Shape" fill="#6A1B9A"/><path d="M35.59,23.49 C35.27,28.45 34.41,30.02 34.41,33.14 C34.41,33.79 34.43,34.42 34.47,35.04 C34.63,38.76 34.91,42.14 30.85,46 C30.3674124,46.4546547 29.9100622,46.9353732 29.48,47.44 C26.06,51.41 25.6,55 21.37,55 L19.63,55 C15.4,55 14.94,51.41 11.52,47.44 C11.0899378,46.9353732 10.6325876,46.4546547 10.15,46 C6.09,42.14 6.37,38.76 6.53,35.04 C6.57,34.42 6.59,33.79 6.59,33.14 C6.59,30.02 5.73,28.45 5.41,23.49 C5.2465184,20.495563 5.2465184,17.494437 5.41,14.5 C5.95,2.75 18.37,1.2 20.5,1.02 C22.63,1.2 35.05,2.75 35.59,14.5 C35.7534816,17.494437 35.7534816,20.495563 35.59,23.49 Z" id="Shape" fill="#9D27B0"/><path d="M32.485,47.44 L32.485,56.96 C32.4850138,58.060676 31.5956623,58.9544966 30.495,58.96 L13.515,58.96 C12.4143377,58.9544966 11.5249862,58.060676 11.525,56.96 L11.525,47.44 C14.945,51.41 15.405,55 19.635,55 L24.375,55 C28.605,55 29.065,51.41 32.485,47.44 Z" id="Shape" fill="#673AB7"/><rect id="Rectangle-path" fill="#545C60" x="32" y="31" width="28" height="6" rx="1"/><rect id="Rectangle-path" fill="#7F8E94" x="32" y="31" width="25" height="6" rx="1"/><path d="M58,31 L34,31 L35.69,12.36 C35.9594707,10.3813669 37.6843706,8.92881967 39.68,9 L52.32,9 C54.3156294,8.92881967 56.0405293,10.3813669 56.31,12.36 L58,31 Z" id="Shape" fill="#FDD834"/><path d="M55,31 L34,31 L35.69,12.36 C35.9594707,10.3813669 37.6843706,8.92881967 39.68,9 L49.32,9 C51.3156294,8.92881967 53.0405293,10.3813669 53.31,12.36 L55,31 Z" id="Shape" fill="#FFEB3A"/><polyline id="Shape" fill="#7F8E94" points="48 22.46 48 31 44 31 44 22.46"/><path d="M50,19 C50,21.209139 48.209139,23 46,23 C45.4847146,23.0039542 44.9741272,22.9018367 44.5,22.7 C42.9895658,22.0925605 42,20.6280031 42,19 C42,17.3719969 42.9895658,15.9074395 44.5,15.3 C44.9741272,15.0981633 45.4847146,14.9960458 46,15 C47.060866,15 48.0782816,15.4214274 48.8284271,16.1715729 C49.5785726,16.9217184 50,17.939134 50,19 Z" id="Shape" fill="#C81E1E"/><ellipse id="Oval" fill="#F44335" cx="44.5" cy="19" rx="2.5" ry="3.7"/><path d="M6.53,36.036 C6.37067056,36.0360148 6.21364387,35.9979581 6.072,35.925 C1.907,33.773 1.192,28.986 1.164,28.783 C0.842,25.8 0.788,22.106 2.34,21.325 C3.969,20.497 5.511,21.956 6.166,22.948 C6.45864172,23.4087382 6.32777555,24.0190241 5.87195367,24.319266 C5.41613178,24.619508 4.80375962,24.4987803 4.496,24.048 C4.205,23.614 3.601,23.071 3.307,23.089 C2.97,23.68 2.894,26.16 3.148,28.536 C3.148,28.536 3.759,32.477 6.99,34.145 C7.40065725,34.3565193 7.61299718,34.8217883 7.50370399,35.2706031 C7.39441079,35.719418 6.99192951,36.0349687 6.53,36.034 L6.53,36.036 Z" id="Shape" fill="#000000"/><path d="M24.37,56 L19.63,56 C16.158,56 14.786,53.893 13.197,51.451 C12.152706,49.7269717 10.8977094,48.1397503 9.461,46.726 C5.191,42.671 5.361,38.937 5.524,35.326 C5.557,34.611 5.59,33.885 5.59,33.141 C5.56902808,31.8158462 5.41864719,30.4959106 5.141,29.2 C4.665,26.578 4.013,22.987 4.411,14.455 C5.036,0.838 20.61,0.008 20.767,0 L23.19,0 C26.8426332,0.248366835 30.3757755,1.40316821 33.47,3.36 C33.7674404,3.55908409 33.9357997,3.90195512 33.911456,4.25904424 C33.8871123,4.61613336 33.6737781,4.93298335 33.3520711,5.08985856 C33.030364,5.24673378 32.6493455,5.21971025 32.353,5.019 C29.5740017,3.28141927 26.4143059,2.24534655 23.146,2 L20.81,2 C20.287,2.024 6.949,2.765 6.41,14.546 C6.022,22.852 6.625,26.173 7.11,28.846 C7.41069164,30.2601556 7.57212921,31.7003663 7.592,33.146 C7.592,33.921 7.558,34.678 7.524,35.422 C7.361,39.022 7.232,41.856 10.84,45.28 C12.3891897,46.8030687 13.7447428,48.5112806 14.876,50.366 C16.517,52.884 17.339,54 19.63,54 L24.37,54 C26.661,54 27.483,52.884 29.126,50.36 C30.2572572,48.5052806 31.6128103,46.7970687 33.162,45.274 C35.5609787,43.2351252 36.8174703,40.1561986 36.53,37.021 C36.5243734,36.755597 36.6245059,36.4988478 36.8083315,36.3073315 C36.9921572,36.1158151 37.2445893,36.0052496 37.51,36 C37.7758249,35.9919259 38.0337198,36.0911427 38.2255898,36.2753002 C38.4174597,36.4594578 38.5271676,36.7130676 38.53,36.979 C38.8223851,40.6773334 37.341192,44.2947701 34.539,46.726 C33.1012364,48.1395735 31.845226,49.7268026 30.8,51.451 C29.214,53.893 27.842,56 24.37,56 Z" id="Shape" fill="#000000"/><path d="M30.487,59.96 L13.513,59.96 C11.8561458,59.96 10.513,58.6168542 10.513,56.96 L10.513,47.44 C10.513,46.8877153 10.9607153,46.44 11.513,46.44 C12.0652847,46.44 12.513,46.8877153 12.513,47.44 L12.513,56.96 C12.513,57.5122847 12.9607153,57.96 13.513,57.96 L30.487,57.96 C31.0392847,57.96 31.487,57.5122847 31.487,56.96 L31.487,47.44 C31.487,46.8877153 31.9347153,46.4400001 32.487,46.4400001 C33.0392847,46.4400001 33.487,46.8877153 33.487,47.44 L33.487,56.96 C33.487,58.6168542 32.1438542,59.96 30.487,59.96 Z" id="Shape" fill="#000000"/><path d="M59,38 L33,38 C31.8954305,38 31,37.1045695 31,36 L31,32 C31,30.8954305 31.8954305,30 33,30 L59,30 C60.1045695,30 61,30.8954305 61,32 L61,36 C61,37.1045695 60.1045695,38 59,38 Z M33,32 L33,36 L59,36 L59,32 L33,32 Z" id="Shape" fill="#000000"/><path d="M58,32 L34,32 C33.7182368,32.0011693 33.4490552,31.8834152 33.2586679,31.6757026 C33.0682806,31.4679901 32.9743569,31.1895963 33,30.909 L34.7,12.271 C34.9992576,9.76983849 37.1634637,7.91412192 39.681,8 L52.319,8 C54.8365363,7.91412192 57.0007424,9.76983849 57.3,12.271 L59,30.909 C59.0256431,31.1895963 58.9317194,31.4679901 58.7413321,31.6757026 C58.5509448,31.8834152 58.2817632,32.0011693 58,32 Z M35.1,30 L56.91,30 L55.31,12.453 C55.0836024,10.9927033 53.7953637,9.93618387 52.319,10 L39.681,10 C38.2046363,9.93618387 36.9163976,10.9927033 36.69,12.453 L35.1,30 Z" id="Shape" fill="#000000"/><path d="M48,32 L44,32 C43.4477153,32 43,31.5522847 43,31 L43,22.46 C43,21.9077153 43.4477153,21.46 44,21.46 C44.5522847,21.46 45,21.9077153 45,22.46 L45,30 L47,30 L47,22.46 C47,21.9077153 47.4477153,21.46 48,21.46 C48.5522847,21.46 49,21.9077153 49,22.46 L49,31 C49,31.5522847 48.5522847,32 48,32 Z" id="Shape" fill="#000000"/><path d="M46,24 C43.2385763,24 41,21.7614237 41,19 C41,16.2385763 43.2385763,14 46,14 C48.7614237,14 51,16.2385763 51,19 C50.9966939,21.7600532 48.7600532,23.9966939 46,24 Z M46,16 C44.3431458,16 43,17.3431458 43,19 C43,20.6568542 44.3431458,22 46,22 C47.6568542,22 49,20.6568542 49,19 C49,17.3431458 47.6568542,16 46,16 Z" id="Shape" fill="#000000"/><path d="M46,12 C45.4477153,12 45,11.5522847 45,11 L45,5 C45,4.44771525 45.4477153,4 46,4 C46.5522847,4 47,4.44771525 47,5 L47,11 C47,11.5522847 46.5522847,12 46,12 Z" id="Shape" fill="#000000"/><path d="M52,14 C51.5956041,13.9999137 51.2310659,13.7562725 51.076322,13.3826546 C50.9215781,13.0090366 51.0070921,12.5789943 51.293,12.293 L56.293,7.293 C56.5440745,7.03304342 56.9158779,6.9287874 57.2655073,7.02030284 C57.6151368,7.11181828 57.8881817,7.38486324 57.9796972,7.73449268 C58.0712126,8.08412211 57.9669566,8.45592553 57.707,8.707 L52.707,13.707 C52.5195073,13.8945494 52.2651948,13.9999434 52,14 Z" id="Shape" fill="#000000"/><path d="M40,14 C39.7348052,13.9999434 39.4804927,13.8945494 39.293,13.707 L34.293,8.707 C34.0330434,8.45592553 33.9287874,8.08412211 34.0203028,7.73449268 C34.1118183,7.38486324 34.3848632,7.11181828 34.7344927,7.02030284 C35.0841221,6.9287874 35.4559255,7.03304342 35.707,7.293 L40.707,12.293 C40.9929079,12.5789943 41.0784219,13.0090366 40.923678,13.3826546 C40.7689341,13.7562725 40.4043959,13.9999137 40,14 Z" id="Shape" fill="#000000"/><path d="M38,20 L32,20 C31.4477153,20 31,19.5522847 31,19 C31,18.4477153 31.4477153,18 32,18 L38,18 C38.5522847,18 39,18.4477153 39,19 C39,19.5522847 38.5522847,20 38,20 Z" id="Shape" fill="#000000"/><path d="M60,20 L54,20 C53.4477153,20 53,19.5522847 53,19 C53,18.4477153 53.4477153,18 54,18 L60,18 C60.5522847,18 61,18.4477153 61,19 C61,19.5522847 60.5522847,20 60,20 Z" id="Shape" fill="#000000"/></g></g></svg>
