<?xml version="1.0" encoding="UTF-8"?>
<svg xmlns="http://www.w3.org/2000/svg" xmlns:xlink="http://www.w3.org/1999/xlink" width="512" height="512" viewBox="0 0 60 60" version="1.1"><!-- Generator: Sketch 51.3 (57544) - http://www.bohemiancoding.com/sketch --><title>096 - Target</title><desc>Created with Sketch.</desc><defs/><g id="Page-1" stroke="none" stroke-width="1" fill="none" fill-rule="evenodd"><g id="096---Target" transform="translate(-1.000000, 0.000000)" fill-rule="nonzero"><path d="M41.213,22.22 C39.943,21.57 38.672,23.5 38.672,23.5 L38.593,23.49 C38.7559709,20.4955491 38.7559709,17.4944509 38.593,14.5 C38,1.64 23.193,1 23.193,1 L20.813,1 C20.813,1 6,1.64 5.412,14.5 C5.24902908,17.4944509 5.24902908,20.4955491 5.412,23.49 L5.333,23.5 C5.333,23.5 4.063,21.57 2.792,22.22 C1.533,22.85 2.153,28.64 2.153,28.64 C2.153,28.64 2.783,33.1 6.533,35.04 C6.373,38.76 6.093,42.14 10.153,46 C10.6350751,46.4551694 11.0923982,46.9358594 11.523,47.44 L11.523,56.96 C11.5229862,58.060676 12.4123377,58.9544966 13.513,58.96 L30.492,58.96 C31.5926623,58.9544966 32.4820138,58.060676 32.482,56.96 L32.482,47.44 C32.9126018,46.9358594 33.3699249,46.4551694 33.852,46 C37.912,42.14 37.633,38.76 37.472,35.04 C41.222,33.1 41.852,28.64 41.852,28.64 C41.852,28.64 42.472,22.85 41.213,22.22 Z" id="Shape" fill="#F0C419"/><path d="M6.593,33.14 C6.593,33.79 6.573,34.42 6.533,35.04 C2.783,33.1 2.153,28.64 2.153,28.64 C2.153,28.64 1.533,22.85 2.792,22.22 C4.063,21.57 5.333,23.5 5.333,23.5 L5.412,23.49 C5.732,28.45 6.593,30.02 6.593,33.14 Z" id="Shape" fill="#FF9801"/><path d="M38.59,23.49 C38.27,28.45 37.41,30.02 37.41,33.14 C37.41,33.79 37.43,34.42 37.47,35.04 C37.63,38.76 37.91,42.14 33.85,46 C33.3674124,46.4546547 32.9100622,46.9353732 32.48,47.44 C29.06,51.41 28.6,55 24.37,55 L19.63,55 C15.4,55 14.94,51.41 11.52,47.44 C11.0899378,46.9353732 10.6325876,46.4546547 10.15,46 C6.09,42.14 6.37,38.76 6.53,35.04 C6.57,34.42 6.59,33.79 6.59,33.14 C6.59,30.02 5.73,28.45 5.41,23.49 C5.2465184,20.495563 5.2465184,17.494437 5.41,14.5 C5.95,2.75 18.37,1.2 20.5,1.02 C20.7,1 20.81,1 20.81,1 L23.19,1 C23.19,1 38,1.64 38.59,14.5 C38.7534816,17.494437 38.7534816,20.495563 38.59,23.49 Z" id="Shape" fill="#FEC108"/><path d="M35.59,23.49 C35.27,28.45 34.41,30.02 34.41,33.14 C34.41,33.79 34.43,34.42 34.47,35.04 C34.63,38.76 34.91,42.14 30.85,46 C30.3674124,46.4546547 29.9100622,46.9353732 29.48,47.44 C26.06,51.41 25.6,55 21.37,55 L19.63,55 C15.4,55 14.94,51.41 11.52,47.44 C11.0899378,46.9353732 10.6325876,46.4546547 10.15,46 C6.09,42.14 6.37,38.76 6.53,35.04 C6.57,34.42 6.59,33.79 6.59,33.14 C6.59,30.02 5.73,28.45 5.41,23.49 C5.2465184,20.495563 5.2465184,17.494437 5.41,14.5 C5.95,2.75 18.37,1.2 20.5,1.02 C22.63,1.2 35.05,2.75 35.59,14.5 C35.7534816,17.494437 35.7534816,20.495563 35.59,23.49 Z" id="Shape" fill="#FFDC00"/><path d="M32.485,47.44 L32.485,56.96 C32.4850138,58.060676 31.5956623,58.9544966 30.495,58.96 L13.515,58.96 C12.4143377,58.9544966 11.5249862,58.060676 11.525,56.96 L11.525,47.44 C14.945,51.41 15.405,55 19.635,55 L24.375,55 C28.605,55 29.065,51.41 32.485,47.44 Z" id="Shape" fill="#FF9801"/><path d="M54,25 C54,29.5086803 52.2089337,33.8326968 49.0208153,37.0208153 C45.8326968,40.2089337 41.5086803,42 37,42 C36.499137,42.0020944 35.9984912,41.978731 35.5,41.93 C26.7445275,41.1329904 20.0411359,33.7916735 20.0411359,25 C20.0411359,16.2083265 26.7445275,8.86700965 35.5,8.07 C35.9984912,8.02126903 36.499137,7.99790556 37,8 C46.3888407,8 54,15.6111593 54,25 Z" id="Shape" fill="#CFD8DC"/><ellipse id="Oval" fill="#F5F5F5" cx="35.5" cy="25" rx="15.5" ry="16.93"/><circle id="Oval" fill="#F44335" cx="37" cy="25" r="13"/><circle id="Oval" fill="#F5F5F5" cx="37" cy="25" r="9"/><circle id="Oval" fill="#F44335" cx="37" cy="25" r="5"/><polygon id="Shape" fill="#F44335" points="55 1 55 6 51 10 51 5"/><polygon id="Shape" fill="#FFEB3A" points="60 6 56 10 51 10 55 6"/><path d="M6.529,36.057 C6.36958854,36.0567056 6.21255735,36.018305 6.071,35.945 C1.907,33.793 1.192,29.007 1.164,28.8 C0.842,25.811 0.788,22.124 2.34,21.342 C3.969,20.511 5.511,21.972 6.166,22.964 C6.36967258,23.2623224 6.39663083,23.6472967 6.23652279,23.9710932 C6.07641476,24.2948897 5.75412969,24.5071733 5.39342477,24.5264272 C5.03271985,24.5456812 4.68966769,24.3689124 4.496,24.064 C4.205,23.63 3.635,23.064 3.307,23.105 C2.971,23.696 2.894,26.177 3.148,28.554 C3.148,28.554 3.759,32.493 6.989,34.163 C7.39965725,34.3745193 7.61199718,34.8397883 7.50270399,35.2886031 C7.39341079,35.737418 6.99092951,36.0529687 6.529,36.052 L6.529,36.057 Z" id="Shape" fill="#000000"/><path d="M24.37,56.02 L19.63,56.02 C16.158,56.02 14.785,53.911 13.196,51.471 C12.1525243,49.7466446 10.8981889,48.1590739 9.462,46.745 C5.191,42.69 5.362,38.957 5.524,35.345 C5.557,34.63 5.59,33.903 5.59,33.159 C5.56909183,31.8338421 5.41871024,30.5139003 5.141,29.218 C4.664,26.596 4.013,23.004 4.411,14.472 C5.036,0.858 20.609,0.027 20.767,0.021 L23.19,0.021 C23.636,0.039 33.127,0.521 37.497,7.479 C37.7905393,7.94761361 37.6486136,8.56546062 37.18,8.85899995 C36.7113864,9.15253928 36.0935394,9.01061357 35.8,8.542 C32,2.486 23.234,2.022 23.146,2.019 L20.81,2.019 C20.286,2.043 6.949,2.784 6.41,14.564 C6.022,22.871 6.625,26.192 7.11,28.864 C7.41002303,30.2782638 7.57145323,31.7184088 7.592,33.164 C7.592,33.94 7.558,34.696 7.524,35.441 C7.361,39.034 7.232,41.872 10.841,45.298 C12.3895887,46.8207251 13.7444808,48.5286146 14.875,50.383 C16.518,52.907 17.341,54.024 19.632,54.024 L24.372,54.024 C26.663,54.024 27.486,52.907 29.129,50.383 C30.2595192,48.5286146 31.6144113,46.8207251 33.163,45.298 C34.3021977,44.2724145 35.2102807,43.0163012 35.827,41.613 C36.0374205,41.1021366 36.6221366,40.8585795 37.133,41.069 C37.6438634,41.2794205 37.8874205,41.8641366 37.677,42.375 C36.9535323,44.0385206 35.8845533,45.52916 34.541,46.748 C33.1025804,48.1607589 31.8458903,49.747326 30.8,51.471 C29.215,53.911 27.842,56.02 24.37,56.02 Z" id="Shape" fill="#000000"/><path d="M30.487,59.98 L13.513,59.98 C11.8561458,59.98 10.513,58.6368542 10.513,56.98 L10.513,47.46 C10.513,46.9077153 10.9607153,46.46 11.513,46.46 C12.0652847,46.46 12.513,46.9077153 12.513,47.46 L12.513,56.98 C12.513,57.5322847 12.9607153,57.98 13.513,57.98 L30.487,57.98 C31.0392847,57.98 31.487,57.5322847 31.487,56.98 L31.487,47.46 C31.487,46.9077153 31.9347153,46.4600001 32.487,46.4600001 C33.0392847,46.4600001 33.487,46.9077153 33.487,47.46 L33.487,56.98 C33.487,58.6368542 32.1438542,59.98 30.487,59.98 Z" id="Shape" fill="#000000"/><path d="M37,43 C27.0588745,43 19,34.9411255 19,25 C19,15.0588745 27.0588745,7 37,7 C46.9411255,7 55,15.0588745 55,25 C54.9884279,34.9363282 46.9363282,42.9884279 37,43 Z M37,9 C28.163444,9 21,16.163444 21,25 C21,33.836556 28.163444,41 37,41 C45.836556,41 53,33.836556 53,25 C52.9895304,16.1677843 45.8322157,9.01046962 37,9 Z" id="Shape" fill="#000000"/><path d="M37,39 C29.2680135,39 23,32.7319865 23,25 C23,17.2680135 29.2680135,11 37,11 C44.7319865,11 51,17.2680135 51,25 C50.9917327,32.7285595 44.7285595,38.9917327 37,39 Z M37,13 C30.372583,13 25,18.372583 25,25 C25,31.627417 30.372583,37 37,37 C43.627417,37 49,31.627417 49,25 C48.9928352,18.375553 43.624447,13.0071648 37,13 Z" id="Shape" fill="#000000"/><path d="M37,35 C31.4771525,35 27,30.5228475 27,25 C27,19.4771525 31.4771525,15 37,15 C42.5228475,15 47,19.4771525 47,25 C46.9939376,30.5203344 42.5203344,34.9939376 37,35 Z M37,17 C32.581722,17 29,20.581722 29,25 C29,29.418278 32.581722,33 37,33 C41.418278,33 45,29.418278 45,25 C44.9950401,20.5837781 41.4162219,17.0049599 37,17 Z" id="Shape" fill="#000000"/><path d="M37,31 C33.6862915,31 31,28.3137085 31,25 C31,21.6862915 33.6862915,19 37,19 C40.3137085,19 43,21.6862915 43,25 C42.9966926,28.3123376 40.3123376,30.9966926 37,31 Z M37,21 C34.790861,21 33,22.790861 33,25 C33,27.209139 34.790861,29 37,29 C39.209139,29 41,27.209139 41,25 C41,22.790861 39.209139,21 37,21 Z" id="Shape" fill="#000000"/><path d="M37,26 C36.6003341,26.0001156 36.2389816,25.7622494 36.0810731,25.3951013 C35.9231646,25.0279531 35.9990298,24.6020418 36.274,24.312 L54.274,5.312 C54.5197987,5.05262518 54.8853009,4.94408503 55.2328255,5.02726556 C55.58035,5.11044609 55.8570997,5.37271021 55.9588255,5.71526556 C56.0605513,6.05782091 55.9717987,6.42862518 55.726,6.688 L37.726,25.688 C37.5370954,25.8872589 37.2745707,26.0000794 37,26 Z" id="Shape" fill="#000000"/><path d="M56,11 L51,11 C50.4477153,11 50,10.5522847 50,10 L50,5 C50.0000566,4.73480519 50.1054506,4.48049273 50.293,4.293 L54.293,0.293 C54.5789943,0.00709208442 55.0090366,-0.078421906 55.3826546,0.0763220219 C55.7562725,0.23106595 55.9999137,0.595604102 56,1 L56,5 L60,5 C60.4043959,5.00008635 60.7689341,5.2437275 60.923678,5.61734544 C61.0784219,5.99096338 60.9929079,6.42100575 60.707,6.707 L56.707,10.707 C56.5195073,10.8945494 56.2651948,10.9999434 56,11 Z M52,9 L55.586,9 L57.586,7 L55,7 C54.4477153,7 54,6.55228475 54,6 L54,3.414 L52,5.414 L52,9 Z" id="Shape" fill="#000000"/></g></g></svg>
