<?xml version="1.0" encoding="UTF-8"?>
<svg xmlns="http://www.w3.org/2000/svg" xmlns:xlink="http://www.w3.org/1999/xlink" width="512" height="512" viewBox="0 0 60 60" version="1.1"><!-- Generator: Sketch 51.3 (57544) - http://www.bohemiancoding.com/sketch --><title>097 - Autism</title><desc>Created with Sketch.</desc><defs/><g id="Page-1" stroke="none" stroke-width="1" fill="none" fill-rule="evenodd"><g id="097---Autism" transform="translate(-1.000000, 0.000000)" fill-rule="nonzero"><path d="M41.213,22.22 C39.943,21.57 38.672,23.5 38.672,23.5 L38.593,23.49 C38.7559709,20.4955491 38.7559709,17.4944509 38.593,14.5 C38,1.64 23.193,1 23.193,1 L20.813,1 C20.813,1 6,1.64 5.412,14.5 C5.24902908,17.4944509 5.24902908,20.4955491 5.412,23.49 L5.333,23.5 C5.333,23.5 4.063,21.57 2.792,22.22 C1.533,22.85 2.153,28.64 2.153,28.64 C2.153,28.64 2.783,33.1 6.533,35.04 C6.373,38.76 6.093,42.14 10.153,46 C10.6350751,46.4551694 11.0923982,46.9358594 11.523,47.44 L11.523,56.96 C11.5229862,58.060676 12.4123377,58.9544966 13.513,58.96 L30.492,58.96 C31.5926623,58.9544966 32.4820138,58.060676 32.482,56.96 L32.482,47.44 C32.9126018,46.9358594 33.3699249,46.4551694 33.852,46 C37.912,42.14 37.633,38.76 37.472,35.04 C41.222,33.1 41.852,28.64 41.852,28.64 C41.852,28.64 42.472,22.85 41.213,22.22 Z" id="Shape" fill="#F29C1F"/><path d="M6.593,33.14 C6.593,33.79 6.573,34.42 6.533,35.04 C2.783,33.1 2.153,28.64 2.153,28.64 C2.153,28.64 1.533,22.85 2.792,22.22 C4.063,21.57 5.333,23.5 5.333,23.5 L5.412,23.49 C5.732,28.45 6.593,30.02 6.593,33.14 Z" id="Shape" fill="#FF9801"/><path d="M38.59,23.49 C38.27,28.45 37.41,30.02 37.41,33.14 C37.41,33.79 37.43,34.42 37.47,35.04 C37.63,38.76 37.91,42.14 33.85,46 C33.3674124,46.4546547 32.9100622,46.9353732 32.48,47.44 C29.06,51.41 28.6,55 24.37,55 L19.63,55 C15.4,55 14.94,51.41 11.52,47.44 C11.0899378,46.9353732 10.6325876,46.4546547 10.15,46 C6.09,42.14 6.37,38.76 6.53,35.04 C6.57,34.42 6.59,33.79 6.59,33.14 C6.59,30.02 5.73,28.45 5.41,23.49 C5.2465184,20.495563 5.2465184,17.494437 5.41,14.5 C5.95,2.75 18.37,1.2 20.5,1.02 C20.7,1 20.81,1 20.81,1 L23.19,1 C23.19,1 38,1.64 38.59,14.5 C38.7534816,17.494437 38.7534816,20.495563 38.59,23.49 Z" id="Shape" fill="#FEC108"/><path d="M35.59,23.49 C35.27,28.45 34.41,30.02 34.41,33.14 C34.41,33.79 34.43,34.42 34.47,35.04 C34.63,38.76 34.91,42.14 30.85,46 C30.3674124,46.4546547 29.9100622,46.9353732 29.48,47.44 C26.06,51.41 25.6,55 21.37,55 L19.63,55 C15.4,55 14.94,51.41 11.52,47.44 C11.0899378,46.9353732 10.6325876,46.4546547 10.15,46 C6.09,42.14 6.37,38.76 6.53,35.04 C6.57,34.42 6.59,33.79 6.59,33.14 C6.59,30.02 5.73,28.45 5.41,23.49 C5.2465184,20.495563 5.2465184,17.494437 5.41,14.5 C5.95,2.75 18.37,1.2 20.5,1.02 C22.63,1.2 35.05,2.75 35.59,14.5 C35.7534816,17.494437 35.7534816,20.495563 35.59,23.49 Z" id="Shape" fill="#FFDC00"/><path d="M32.485,47.44 L32.485,56.96 C32.4850138,58.060676 31.5956623,58.9544966 30.495,58.96 L13.515,58.96 C12.4143377,58.9544966 11.5249862,58.060676 11.525,56.96 L11.525,47.44 C14.945,51.41 15.405,55 19.635,55 L24.375,55 C28.605,55 29.065,51.41 32.485,47.44 Z" id="Shape" fill="#FF9801"/><path d="M52,24 L52,37 C51.9967052,38.1032019 51.1032019,38.9967052 50,39 L37,39 L37,33.5 C35.9686129,34.2735403 34.5181311,34.1359168 33.6506276,33.1822074 C32.7831241,32.228498 32.7831241,30.771502 33.6506276,29.8177926 C34.5181311,28.8640832 35.9686129,28.7264597 37,29.5 L37,24 L42.5,24 C41.7264597,22.9686129 41.8640832,21.5181311 42.8177926,20.6506276 C43.771502,19.7831241 45.228498,19.7831241 46.1822074,20.6506276 C47.1359168,21.5181311 47.2735403,22.9686129 46.5,24 L52,24 Z" id="Shape" fill="#6A1B9A"/><path d="M33,31.5 C33,32.4469301 33.5350059,33.3125879 34.381966,33.736068 C35.2289261,34.159548 36.2424559,34.0681581 37,33.5 L37,39 L24,39 C22.8954305,39 22,38.1045695 22,37 L22,24 L27.5,24 C26.7264597,22.9686129 26.8640832,21.5181311 27.8177926,20.6506276 C28.771502,19.7831241 30.228498,19.7831241 31.1822074,20.6506276 C32.1359168,21.5181311 32.2735403,22.9686129 31.5,24 L37,24 L37,29.5 C36.2424559,28.9318419 35.2289261,28.840452 34.381966,29.263932 C33.5350059,29.6874121 33,30.5530699 33,31.5 Z" id="Shape" fill="#673AB7"/><path d="M40.936,17.074 C40.742753,17.8958707 40.1477383,18.5646828 39.3539445,18.8522717 C38.5601507,19.1398606 37.6748268,19.0073704 37,18.5 L37,24 L31.5,24 C32.2735403,22.9686129 32.1359168,21.5181311 31.1822074,20.6506276 C30.228498,19.7831241 28.771502,19.7831241 27.8177926,20.6506276 C26.8640832,21.5181311 26.7264597,22.9686129 27.5,24 L22,24 L22,11 C22,9.8954305 22.8954305,9 24,9 L37,9 L37,14.5 C37.8416465,13.8665321 38.9900688,13.8285972 39.8716847,14.4051418 C40.7533007,14.9816864 41.1789335,16.0489958 40.936,17.074 Z" id="Shape" fill="#9D27B0"/><path d="M60,3 L60,16 L54.5,16 C55.2735403,14.9686129 55.1359168,13.5181311 54.1822074,12.6506276 C53.228498,11.7831241 51.771502,11.7831241 50.8177926,12.6506276 C49.8640832,13.5181311 49.7264597,14.9686129 50.5,16 L46,16 C45.4477153,16 45,15.5522847 45,15 L45,10.5 C46.0313871,11.2735403 47.4818689,11.1359168 48.3493724,10.1822074 C49.2168759,9.22849804 49.2168759,7.77150196 48.3493724,6.81779257 C47.4818689,5.86408318 46.0313871,5.72645969 45,6.5 L45,1 L58,1 C59.1032019,1.0032948 59.9967052,1.89679813 60,3 Z" id="Shape" fill="#4527A0"/><path d="M49,24 L49,37 C48.9967052,38.1032019 48.1032019,38.9967052 47,39 L37,39 L37,33.5 C35.9686129,34.2735403 34.5181311,34.1359168 33.6506276,33.1822074 C32.7831241,32.228498 32.7831241,30.771502 33.6506276,29.8177926 C34.5181311,28.8640832 35.9686129,28.7264597 37,29.5 L37,24 L42.5,24 C41.6715729,22.8954305 41.8954305,21.3284271 43,20.5 C44.1045695,21.3284271 44.3284271,22.8954305 43.5,24 L49,24 Z" id="Shape" fill="#9D27B0"/><path d="M57,3 L57,16 L54.5,16 C55.2464756,15.0046992 55.1474968,13.6119629 54.267767,12.732233 C53.3880371,11.8525032 51.9953008,11.7535244 51,12.5 C50.0046992,11.7535244 48.6119629,11.8525032 47.732233,12.732233 C46.8525032,13.6119629 46.7535244,15.0046992 47.5,16 L46,16 C45.4477153,16 45,15.5522847 45,15 L45,10.5 C46.0313871,11.2735403 47.4818689,11.1359168 48.3493724,10.1822074 C49.2168759,9.22849804 49.2168759,7.77150196 48.3493724,6.81779257 C47.4818689,5.86408318 46.0313871,5.72645969 45,6.5 L45,1 L55,1 C56.1032019,1.0032948 56.9967052,1.89679813 57,3 Z" id="Shape" fill="#673AB7"/><path d="M6.529,36.036 C6.36970273,36.0357464 6.21273817,35.9977047 6.071,35.925 C1.907,33.773 1.192,28.986 1.164,28.783 C0.842,25.8 0.789,22.106 2.34,21.325 C3.969,20.498 5.511,21.955 6.166,22.948 C6.45864172,23.4087382 6.32777555,24.0190241 5.87195367,24.319266 C5.41613178,24.619508 4.80375962,24.4987803 4.496,24.048 C4.205,23.614 3.641,23.071 3.307,23.089 C2.97,23.68 2.894,26.16 3.148,28.536 C3.148,28.536 3.759,32.477 6.989,34.145 C7.39965725,34.3565193 7.61199718,34.8217883 7.50270399,35.2706031 C7.39341079,35.719418 6.99092951,36.0349687 6.529,36.034 L6.529,36.036 Z" id="Shape" fill="#000000"/><path d="M24.37,56 L19.63,56 C16.158,56 14.785,53.892 13.196,51.451 C12.1524813,49.7269775 10.8981461,48.1397429 9.462,46.726 C5.191,42.671 5.362,38.937 5.524,35.326 C5.557,34.611 5.59,33.885 5.59,33.141 C5.56902808,31.8158462 5.41864719,30.4959106 5.141,29.2 C4.664,26.579 4.013,22.987 4.411,14.455 C5.036,0.838 20.609,0.008 20.767,0 L23.19,0 C23.503,0.013 29.882,0.33 34.625,4.228 C34.9124905,4.45121742 35.0559963,4.81301105 34.9996769,5.17260099 C34.9433576,5.53219092 34.6961081,5.83278404 34.3541373,5.95741457 C34.0121665,6.0820451 33.6294848,6.01102907 33.355,5.772 C29.139,2.308 23.206,2 23.146,2 L20.81,2 C20.286,2.024 6.949,2.765 6.41,14.546 C6.022,22.853 6.625,26.173 7.11,28.846 C7.41020531,30.2602344 7.57163752,31.7003972 7.592,33.146 C7.592,33.921 7.558,34.678 7.524,35.422 C7.361,39.016 7.232,41.855 10.841,45.28 C12.3895887,46.8027251 13.7444808,48.5106146 14.875,50.365 C16.516,52.884 17.339,54 19.63,54 L24.37,54 C26.661,54 27.484,52.884 29.127,50.359 C30.2575192,48.5046146 31.6124113,46.7967251 33.161,45.274 C34.0352091,44.4738569 34.7815495,43.5443882 35.374,42.518 C35.5427079,42.198401 35.8707298,41.9946953 36.2319987,41.9851722 C36.5932676,41.9756491 36.9315659,42.1617904 37.1168772,42.4720574 C37.3021885,42.7823244 37.3056763,43.1684361 37.126,43.482 C36.4355764,44.6890366 35.5633498,45.782524 34.54,46.724 C33.1016676,48.1380581 31.8453053,49.7259791 30.8,51.451 C29.215,53.892 27.842,56 24.37,56 Z" id="Shape" fill="#000000"/><path d="M30.487,59.96 L13.513,59.96 C11.8561458,59.96 10.513,58.6168542 10.513,56.96 L10.513,47.44 C10.513,46.8877153 10.9607153,46.44 11.513,46.44 C12.0652847,46.44 12.513,46.8877153 12.513,47.44 L12.513,56.96 C12.513,57.5122847 12.9607153,57.96 13.513,57.96 L30.487,57.96 C31.0392847,57.96 31.487,57.5122847 31.487,56.96 L31.487,47.44 C31.487,46.8877153 31.9347153,46.4400001 32.487,46.4400001 C33.0392847,46.4400001 33.487,46.8877153 33.487,47.44 L33.487,56.96 C33.487,58.6168542 32.1438542,59.96 30.487,59.96 Z" id="Shape" fill="#000000"/><path d="M50,40 L37,40 C36.4477153,40 36,39.5522847 36,39 L36,34.964 C35.8343648,34.987533 35.6672981,34.9995618 35.5,35 C33.5670034,35 32,33.4329966 32,31.5 C32,29.5670034 33.5670034,28 35.5,28 C35.6672981,28.0004382 35.8343648,28.012467 36,28.036 L36,24 C36,23.4477153 36.4477153,23 37,23 L41.036,23 C41.012467,22.8343648 41.0004382,22.6672981 41,22.5 C41,20.5670034 42.5670034,19 44.5,19 C46.4329966,19 48,20.5670034 48,22.5 C47.9995618,22.6672981 47.987533,22.8343648 47.964,23 L52,23 C52.5522847,23 53,23.4477153 53,24 L53,37 C53,38.6568542 51.6568542,40 50,40 Z M38,38 L50,38 C50.5522847,38 51,37.5522847 51,37 L51,25 L46.5,25 C46.1212279,25 45.7749648,24.7859976 45.6055728,24.4472136 C45.4361808,24.1084296 45.4727368,23.7030176 45.7,23.4 C46.1641242,22.7811677 46.0815501,21.9108787 45.5093245,21.3903766 C44.9370988,20.8698745 44.0629012,20.8698745 43.4906755,21.3903766 C42.9184499,21.9108787 42.8358758,22.7811677 43.3,23.4 C43.5272632,23.7030176 43.5638192,24.1084296 43.3944272,24.4472136 C43.2250352,24.7859976 42.8787721,25 42.5,25 L38,25 L38,29.5 C38,29.8787721 37.7859976,30.2250352 37.4472136,30.3944272 C37.1084296,30.5638192 36.7030176,30.5272632 36.4,30.3 C35.7811677,29.8358758 34.9108787,29.9184499 34.3903766,30.4906755 C33.8698745,31.0629012 33.8698745,31.9370988 34.3903766,32.5093245 C34.9108787,33.0815501 35.7811677,33.1641242 36.4,32.7 C36.7030176,32.4727368 37.1084296,32.4361808 37.4472136,32.6055728 C37.7859976,32.7749648 38,33.1212279 38,33.5 L38,38 Z" id="Shape" fill="#000000"/><path d="M37,40 L24,40 C22.3431458,40 21,38.6568542 21,37 L21,24 C21,23.4477153 21.4477153,23 22,23 L26.036,23 C26.012467,22.8343648 26.0004382,22.6672981 26,22.5 C25.9977943,20.7886819 27.2333957,19.3267142 28.9211487,19.0436872 C30.6089017,18.7606602 32.2538266,19.7395793 32.81,21.358 C32.9904887,21.8854312 33.0439378,22.4480167 32.966,23 L37,23 C37.5522847,23 38,23.4477153 38,24 L38,29.5 C38,29.8787721 37.7859976,30.2250352 37.4472136,30.3944272 C37.1084296,30.5638192 36.7030176,30.5272632 36.4,30.3 C35.7811677,29.8358758 34.9108787,29.9184499 34.3903766,30.4906755 C33.8698745,31.0629012 33.8698745,31.9370988 34.3903766,32.5093245 C34.9108787,33.0815501 35.7811677,33.1641242 36.4,32.7 C36.7030176,32.4727368 37.1084296,32.4361808 37.4472136,32.6055728 C37.7859976,32.7749648 38,33.1212279 38,33.5 L38,39 C38,39.5522847 37.5522847,40 37,40 Z M23,25 L23,37 C23,37.5522847 23.4477153,38 24,38 L36,38 L36,34.964 C35.8343648,34.987533 35.6672981,34.9995618 35.5,35 C33.5670034,35 32,33.4329966 32,31.5 C32,29.5670034 33.5670034,28 35.5,28 C35.6672981,28.0004382 35.8343648,28.012467 36,28.036 L36,25 L31.5,25 C31.1233786,24.9983211 30.7796429,24.7851787 30.6107044,24.4485687 C30.4417658,24.1119587 30.4762809,23.708979 30.7,23.406 C31.0034375,23.0032635 31.0842155,22.4750127 30.915,22 C30.749619,21.5205833 30.3504298,21.1591247 29.857,21.042 C29.4043193,20.9352447 28.9276726,21.0413299 28.563,21.33 C27.9311464,21.8359998 27.8147568,22.7520696 28.3,23.4 C28.5272632,23.7030176 28.5638192,24.1084296 28.3944272,24.4472136 C28.2250352,24.7859976 27.8787721,25 27.5,25 L23,25 Z" id="Shape" fill="#000000"/><path d="M37,25 L31.5,25 C31.1233786,24.9983211 30.7796429,24.7851787 30.6107044,24.4485687 C30.4417658,24.1119587 30.4762809,23.708979 30.7,23.406 C31.0034375,23.0032635 31.0842155,22.4750127 30.915,22 C30.749619,21.5205833 30.3504298,21.1591247 29.857,21.042 C29.4043193,20.9352447 28.9276726,21.0413299 28.563,21.33 C27.9311464,21.8359998 27.8147568,22.7520696 28.3,23.4 C28.5272632,23.7030176 28.5638192,24.1084296 28.3944272,24.4472136 C28.2250352,24.7859976 27.8787721,25 27.5,25 L22,25 C21.4477153,25 21,24.5522847 21,24 L21,11 C21,9.34314575 22.3431458,8 24,8 L37,8 C37.5522847,8 38,8.44771525 38,9 L38,13.036 C39.1442834,12.8702217 40.2966031,13.2802671 41.0789461,14.1316227 C41.8612892,14.9829783 42.1726918,16.1657743 41.911,17.292 C41.6439391,18.4684303 40.7852036,19.4218236 39.643,19.81 C39.1152973,19.9908327 38.5523057,20.0442878 38,19.966 L38,24 C38,24.5522847 37.5522847,25 37,25 Z M32.966,23 L36,23 L36,18.5 C36.0016789,18.1233786 36.2148213,17.7796429 36.5514313,17.6107044 C36.8880413,17.4417658 37.291021,17.4762809 37.594,17.7 C37.9965442,18.0061801 38.5262784,18.0888924 39.003,17.92 C39.4822844,17.7541483 39.8433705,17.3545766 39.96,16.861 C40.0682988,16.4084953 39.9616482,15.9313356 39.671,15.568 C39.1556524,14.9532351 38.25486,14.8366671 37.6,15.3 C37.2969824,15.5272632 36.8915704,15.5638192 36.5527864,15.3944272 C36.2140024,15.2250352 36,14.8787721 36,14.5 L36,10 L24,10 C23.4477153,10 23,10.4477153 23,11 L23,23 L26.036,23 C26.012467,22.8343648 26.0004382,22.6672981 26,22.5 C25.9977943,20.7886819 27.2333957,19.3267142 28.9211487,19.0436872 C30.6089017,18.7606602 32.2538266,19.7395793 32.81,21.358 C32.9904887,21.8854312 33.0439378,22.4480167 32.966,23 Z" id="Shape" fill="#000000"/><path d="M60,17 L54.5,17 C54.1212279,17 53.7749648,16.7859976 53.6055728,16.4472136 C53.4361808,16.1084296 53.4727368,15.7030176 53.7,15.4 C54.1641242,14.7811677 54.0815501,13.9108787 53.5093245,13.3903766 C52.9370988,12.8698745 52.0629012,12.8698745 51.4906755,13.3903766 C50.9184499,13.9108787 50.8358758,14.7811677 51.3,15.4 C51.5272632,15.7030176 51.5638192,16.1084296 51.3944272,16.4472136 C51.2250352,16.7859976 50.8787721,17 50.5,17 L46,17 C44.8954305,17 44,16.1045695 44,15 L44,10.5 C44.0016789,10.1233786 44.2148213,9.77964288 44.5514313,9.61070436 C44.8880413,9.44176584 45.291021,9.47628091 45.594,9.7 C45.9967365,10.0034375 46.5249873,10.0842155 47,9.915 C47.4792844,9.74914834 47.8403705,9.34957661 47.957,8.856 C48.0652988,8.4034953 47.9586482,7.92633557 47.668,7.563 C47.1513005,6.95207962 46.2531673,6.83785862 45.6,7.3 C45.2969824,7.52726324 44.8915704,7.56381921 44.5527864,7.39442719 C44.2140024,7.22503518 44,6.87877206 44,6.5 L44,1 C44,0.44771525 44.4477153,1.01453063e-16 45,0 L58,0 C59.6568542,1.01453063e-16 61,1.34314575 61,3 L61,16 C61,16.5522847 60.5522847,17 60,17 Z M55.964,15 L59,15 L59,3 C59,2.44771525 58.5522847,2 58,2 L46,2 L46,5.036 C47.1442834,4.87022168 48.2966031,5.28026705 49.0789461,6.13162268 C49.8612892,6.98297831 50.1726918,8.16577428 49.911,9.292 C49.6439391,10.4684303 48.7852036,11.4218236 47.643,11.81 C47.1152173,11.9904613 46.5523144,12.043908 46,11.966 L46,15 L49.036,15 C49.012467,14.8343648 49.0004382,14.6672981 49,14.5 C49,12.5670034 50.5670034,11 52.5,11 C54.4329966,11 56,12.5670034 56,14.5 C55.9995618,14.6672981 55.987533,14.8343648 55.964,15 Z" id="Shape" fill="#000000"/></g></g></svg>
