<?xml version="1.0" encoding="UTF-8"?>
<svg xmlns="http://www.w3.org/2000/svg" xmlns:xlink="http://www.w3.org/1999/xlink" width="512" height="512" viewBox="0 0 58 60" version="1.1"><!-- Generator: Sketch 51.3 (57544) - http://www.bohemiancoding.com/sketch --><title>098 - Confusion</title><desc>Created with Sketch.</desc><defs/><g id="Page-1" stroke="none" stroke-width="1" fill="none" fill-rule="evenodd"><g id="098---Confusion" transform="translate(-1.000000, 0.000000)" fill-rule="nonzero"><path d="M41.208,22.22 C39.937,21.57 38.667,23.5 38.667,23.5 L38.588,23.49 C38.7509709,20.4955491 38.7509709,17.4944509 38.588,14.5 C38,1.64 23.187,1 23.187,1 L20.807,1 C20.807,1 6,1.64 5.407,14.5 C5.24402908,17.4944509 5.24402908,20.4955491 5.407,23.49 L5.328,23.5 C5.328,23.5 4.057,21.57 2.787,22.22 C1.528,22.85 2.148,28.64 2.148,28.64 C2.148,28.64 2.778,33.1 6.528,35.04 C6.367,38.76 6.088,42.14 10.148,46 C10.6300751,46.4551694 11.0873982,46.9358594 11.518,47.44 L11.518,56.96 C11.5179862,58.060676 12.4073377,58.9544966 13.508,58.96 L30.487,58.96 C31.5876623,58.9544966 32.4770138,58.060676 32.477,56.96 L32.477,47.44 C32.9076018,46.9358594 33.3649249,46.4551694 33.847,46 C37.907,42.14 37.627,38.76 37.467,35.04 C41.217,33.1 41.847,28.64 41.847,28.64 C41.847,28.64 42.467,22.85 41.208,22.22 Z" id="Shape" fill="#3F51B5"/><path d="M6.588,33.14 C6.588,33.79 6.567,34.42 6.528,35.04 C2.778,33.1 2.148,28.64 2.148,28.64 C2.148,28.64 1.528,22.85 2.787,22.22 C4.057,21.57 5.328,23.5 5.328,23.5 L5.407,23.49 C5.727,28.45 6.588,30.02 6.588,33.14 Z" id="Shape" fill="#3F51B5"/><path d="M38.59,23.49 C38.27,28.45 37.41,30.02 37.41,33.14 C37.41,33.79 37.43,34.42 37.47,35.04 C37.63,38.76 37.91,42.14 33.85,46 C33.3674124,46.4546547 32.9100622,46.9353732 32.48,47.44 C29.06,51.41 28.6,55 24.37,55 L19.63,55 C15.4,55 14.94,51.41 11.52,47.44 C11.0899378,46.9353732 10.6325876,46.4546547 10.15,46 C6.09,42.14 6.37,38.76 6.53,35.04 C6.57,34.42 6.59,33.79 6.59,33.14 C6.59,30.02 5.73,28.45 5.41,23.49 C5.2465184,20.495563 5.2465184,17.494437 5.41,14.5 C5.95,2.75 18.37,1.2 20.5,1.02 C20.7,1 20.81,1 20.81,1 L23.19,1 C23.19,1 38,1.64 38.59,14.5 C38.7534816,17.494437 38.7534816,20.495563 38.59,23.49 Z" id="Shape" fill="#0377BC"/><path d="M35.59,23.49 C35.27,28.45 34.41,30.02 34.41,33.14 C34.41,33.79 34.43,34.42 34.47,35.04 C34.63,38.76 34.91,42.14 30.85,46 C30.3674124,46.4546547 29.9100622,46.9353732 29.48,47.44 C26.06,51.41 25.6,55 21.37,55 L19.63,55 C15.4,55 14.94,51.41 11.52,47.44 C11.0899378,46.9353732 10.6325876,46.4546547 10.15,46 C6.09,42.14 6.37,38.76 6.53,35.04 C6.57,34.42 6.59,33.79 6.59,33.14 C6.59,30.02 5.73,28.45 5.41,23.49 C5.2465184,20.495563 5.2465184,17.494437 5.41,14.5 C5.95,2.75 18.37,1.2 20.5,1.02 C22.63,1.2 35.05,2.75 35.59,14.5 C35.7534816,17.494437 35.7534816,20.495563 35.59,23.49 Z" id="Shape" fill="#02A9F4"/><path d="M32.48,47.44 L32.48,56.96 C32.4800138,58.060676 31.5906623,58.9544966 30.49,58.96 L13.51,58.96 C12.4093377,58.9544966 11.5199862,58.060676 11.52,56.96 L11.52,47.44 C14.94,51.41 15.4,55 19.63,55 L24.37,55 C28.6,55 29.06,51.41 32.48,47.44 Z" id="Shape" fill="#3F51B5"/><path d="M48,29.65 L48,35 C48.0006877,36.0721404 47.4291625,37.0631514 46.5008334,37.5995194 C45.5725043,38.1358873 44.4285009,38.1360705 43.5,37.6 C43.2749919,37.4652082 43.0668564,37.304071 42.88,37.12 C42.3165773,36.5583676 41.9999298,35.7955351 42,35 L42,26.79 C42.006905,25.648967 42.7079269,24.6271386 43.77,24.21 C44.1351429,24.0627967 44.526397,23.9913503 44.92,24 L45,24 C48.5048807,24.0479088 51.4872805,21.4571372 51.93,17.98 C52.2138221,15.9726654 51.6134452,13.9408723 50.2841713,12.4101933 C48.9548975,10.8795144 47.0273004,10.0003071 45,10 C44.4958296,10.0016331 43.9931713,10.05525 43.5,10.16 C41.0416112,10.7012166 39.0612865,12.5174682 38.31,14.92 C37.9199523,16.1640391 36.7637286,17.0078795 35.46,17 C34.9318579,17.0035083 34.4129275,16.8616673 33.96,16.59 C33.0323221,16.047772 32.4614882,15.0545209 32.46,13.98 C32.4617297,13.6641186 32.5123284,13.3504069 32.61,13.05 C34.1649028,8.1754775 38.4361968,4.66761365 43.52,4.09 C44.502921,3.97157642 45.4963013,3.96822041 46.48,4.08 C52.7596743,4.79199345 57.6175044,9.91704782 57.9925272,16.2258197 C58.36755,22.5345915 54.1510997,28.1990634 48,29.65 Z" id="Shape" fill="#FEC108"/><path d="M48,45 C48,46.6568542 46.6568542,48 45,48 C43.3431458,48 42,46.6568542 42,45 C42,43.3431458 43.3431458,42 45,42 C46.6568542,42 48,43.3431458 48,45 Z" id="Shape" fill="#FEC108"/><path d="M45,29.65 L45,35 C45.0006876,36.072484 44.4287987,37.0637581 43.5,37.6 C43.2749919,37.4652082 43.0668564,37.304071 42.88,37.12 C42.3165773,36.5583676 41.9999298,35.7955351 42,35 L42,26.79 C42.006905,25.648967 42.7079269,24.6271386 43.77,24.21 C44.1351429,24.0627967 44.526397,23.9913503 44.92,24 L45,24 C48.5048807,24.0479088 51.4872805,21.4571372 51.93,17.98 C52.2138221,15.9726654 51.6134452,13.9408723 50.2841713,12.4101933 C48.9548975,10.8795144 47.0273004,10.0003071 45,10 C44.4958296,10.0016331 43.9931713,10.05525 43.5,10.16 C43.0068287,10.05525 42.5041704,10.0016331 42,10 C38.9344409,10.0018047 36.2252093,11.994244 35.31,14.92 C35.0974633,15.6327175 34.6123502,16.2328204 33.96,16.59 C33.0323221,16.047772 32.4614882,15.0545209 32.46,13.98 C32.4617297,13.6641186 32.5123284,13.3504069 32.61,13.05 C34.1649028,8.1754775 38.4361968,4.66761365 43.52,4.09 C49.7831943,4.82729101 54.6138704,9.9534758 54.9784215,16.2493715 C55.3429726,22.5452673 51.1362393,28.1947449 45,29.65 Z" id="Shape" fill="#FFDC00"/><path d="M45,45 C45.0006876,46.072484 44.4287987,47.0637581 43.5,47.6 C42.5699167,47.0646072 41.996663,46.073173 41.996663,45 C41.996663,43.926827 42.5699167,42.9353928 43.5,42.4 C44.4287987,42.9362419 45.0006876,43.927516 45,45 Z" id="Shape" fill="#FFDC00"/><path d="M6.529,36.076 C6.36970273,36.0757464 6.21273817,36.0377047 6.071,35.965 C1.907,33.813 1.192,29.026 1.164,28.823 C0.842,25.835 0.788,22.147 2.34,21.365 C3.968,20.538 5.511,21.996 6.166,22.988 C6.45864172,23.4487382 6.32777555,24.0590241 5.87195367,24.359266 C5.41613178,24.659508 4.80375962,24.5387803 4.496,24.088 C4.206,23.655 3.639,23.097 3.307,23.128 C2.971,23.72 2.894,26.2 3.148,28.576 C3.148,28.576 3.759,32.517 6.989,34.186 C7.39851073,34.3980617 7.60990029,34.8626656 7.50073467,35.3107193 C7.39156905,35.7587729 6.99016073,36.0740722 6.529,36.074 L6.529,36.076 Z" id="Shape" fill="#000000"/><path d="M24.37,56.04 L19.63,56.04 C16.158,56.04 14.785,53.932 13.196,51.491 C12.1524813,49.7669775 10.8981461,48.1797429 9.462,46.766 C5.191,42.711 5.362,38.977 5.524,35.366 C5.557,34.651 5.59,33.925 5.59,33.181 C5.56909313,31.8555116 5.41871188,30.5352379 5.141,29.239 C4.664,26.618 4.013,23.026 4.411,14.494 C5.036,0.878 20.609,0.048 20.767,0.041 L23.19,0.041 C23.609,0.059 32.49,0.516 37.05,6.814 C37.264833,7.10298727 37.3077042,7.48516194 37.1622404,7.81456619 C37.0167767,8.14397043 36.705444,8.36972992 36.3471445,8.40562398 C35.9888451,8.44151803 35.638916,8.28200304 35.431,7.988 C31.431,2.463 23.231,2.044 23.146,2.04 L20.81,2.04 C20.286,2.064 6.949,2.805 6.41,14.586 C6.022,22.893 6.625,26.213 7.11,28.886 C7.41020531,30.3002344 7.57163752,31.7403972 7.592,33.186 C7.592,33.961 7.558,34.718 7.524,35.462 C7.361,39.056 7.232,41.895 10.841,45.32 C12.3883331,46.8414941 13.7425138,48.5476543 14.873,50.4 C16.516,52.925 17.339,54.041 19.63,54.041 L24.37,54.041 C26.661,54.041 27.484,52.925 29.127,50.4 C30.2577698,48.5457895 31.6126386,46.8379294 33.161,45.315 C36.77,41.89 36.641,39.051 36.478,35.457 C36.444,34.713 36.41,33.957 36.41,33.181 C36.4301679,31.7397883 36.5909298,30.303984 36.89,28.894 C37.026,28.139 37.176,27.317 37.309,26.328 C37.766581,22.4318593 37.8609872,18.5016172 37.591,14.588 C37.5902519,14.5047688 37.5849105,14.4216424 37.575,14.339 C37.5318539,13.9791497 37.6867884,13.6241201 37.9799611,13.4110389 C38.2731338,13.1979577 38.6586511,13.1601809 38.9876097,13.3122995 C39.3165684,13.4644181 39.5374727,13.7826192 39.565,14.144 C39.578,14.275 39.59,14.409 39.59,14.544 C39.8645273,18.562265 39.7640933,22.5973682 39.29,26.597 C39.152,27.621 38.998,28.472 38.856,29.253 C38.5792245,30.5456309 38.4295122,31.862229 38.409,33.184 C38.409,33.928 38.442,34.654 38.475,35.369 C38.639,38.981 38.808,42.715 34.537,46.769 C33.0999978,48.181636 31.8446564,49.7678608 30.8,51.491 C29.215,53.932 27.842,56.04 24.37,56.04 Z" id="Shape" fill="#000000"/><path d="M37.471,36.076 C37.0098393,36.0760722 36.6084309,35.7607729 36.4992653,35.3127193 C36.3900997,34.8646656 36.6014893,34.4000617 37.011,34.188 C40.266,32.506 40.85,28.588 40.855,28.546 C41.106,26.201 41.03,23.724 40.693,23.131 C40.371,23.081 39.76,23.701 39.504,24.09 C39.3103323,24.3949124 38.9672801,24.5716812 38.6065752,24.5524272 C38.2458703,24.5331733 37.9235852,24.3208897 37.7634772,23.9970932 C37.6033692,23.6732967 37.6303274,23.2883224 37.834,22.99 C38.488,21.998 40.027,20.536 41.663,21.368 C43.212,22.149 43.163,25.837 42.84,28.794 C42.808,29.028 42.093,33.815 37.929,35.967 C37.7870905,36.0390116 37.6301347,36.0763657 37.471,36.076 Z" id="Shape" fill="#000000"/><path d="M30.487,60 L13.513,60 C11.8561458,60 10.513,58.6568542 10.513,57 L10.513,47.48 C10.513,46.9277153 10.9607153,46.48 11.513,46.48 C12.0652847,46.48 12.513,46.9277153 12.513,47.48 L12.513,57 C12.513,57.5522847 12.9607153,58 13.513,58 L30.487,58 C31.0392847,58 31.487,57.5522847 31.487,57 L31.487,47.48 C31.487,46.9277153 31.9347153,46.4800001 32.487,46.4800001 C33.0392847,46.4800001 33.487,46.9277153 33.487,47.48 L33.487,57 C33.487,58.6568542 32.1438542,60 30.487,60 Z" id="Shape" fill="#000000"/><path d="M45,39 C42.790861,39 41,37.209139 41,35 L41,26.789 C40.9969699,25.7885026 41.3970795,24.8289605 42.11,24.127 C42.8723459,23.4055516 43.8814033,23.0024294 44.931,23 C47.2974153,23.0276593 49.4590201,21.6617245 50.4498904,19.5125707 C51.4407608,17.3634168 51.0757637,14.8325888 49.518,13.051 C48.088655,11.4126277 45.8848123,10.6757076 43.7574636,11.1247938 C41.6301149,11.57388 39.9121715,13.1386945 39.267,15.215 C38.8122998,16.6484105 37.5906502,17.704669 36.1065914,17.9475419 C34.6225325,18.1904147 33.1279095,17.5786864 32.24,16.365 C31.4736712,15.3228148 31.2562819,13.9752988 31.656,12.745 C33.6827159,6.40016241 39.8990192,2.36169236 46.5199126,3.08854299 C53.140806,3.81539363 58.3329183,9.106295 58.934864,15.7397106 C59.5368097,22.3731262 55.3819058,28.5122175 49,30.419 L49,35 C49,37.209139 47.209139,39 45,39 Z M44.969,25 C44.4307725,24.9778929 43.9067904,25.1761467 43.518,25.549 C43.1852923,25.8756428 42.9985163,26.3227515 43,26.789 L43,35 C43,36.1045695 43.8954305,37 45,37 C46.1045695,37 47,36.1045695 47,35 L47,29.65 C47.0001978,29.1860928 47.3194204,28.7832347 47.771,28.677 C53.6463698,27.2637612 57.5651496,21.715792 56.933,15.706 C56.3282056,10.061871 51.8513758,5.61358631 46.2034937,5.044907 C40.5556115,4.4762277 35.2818497,7.94273556 33.564,13.353 C33.3605783,13.9751896 33.46967,14.657292 33.857,15.185 C34.2988294,15.7879554 35.0411623,16.092627 35.7791833,15.973911 C36.5172043,15.8551951 37.1265453,15.3330971 37.357,14.622 C38.2197446,11.856206 40.5094445,9.77232654 43.3440371,9.17313593 C46.1786298,8.57394531 49.1157771,9.55294718 51.024,11.733 C52.5468166,13.4850858 53.2393698,15.8091485 52.924,18.109 C52.4095044,22.0815707 49.0055308,25.0417905 45,25 L44.969,25 Z" id="Shape" fill="#000000"/><path d="M45,49 C42.790861,49 41,47.209139 41,45 C41,42.790861 42.790861,41 45,41 C47.209139,41 49,42.790861 49,45 C49,47.209139 47.209139,49 45,49 Z M45,43 C43.8954305,43 43,43.8954305 43,45 C43,46.1045695 43.8954305,47 45,47 C46.1045695,47 47,46.1045695 47,45 C47,43.8954305 46.1045695,43 45,43 Z" id="Shape" fill="#000000"/></g></g></svg>
