<?xml version="1.0" encoding="UTF-8"?>
<svg xmlns="http://www.w3.org/2000/svg" xmlns:xlink="http://www.w3.org/1999/xlink" width="512" height="512" viewBox="0 0 60 60" version="1.1"><!-- Generator: Sketch 51.3 (57544) - http://www.bohemiancoding.com/sketch --><title>099 - Strength</title><desc>Created with Sketch.</desc><defs/><g id="Page-1" stroke="none" stroke-width="1" fill="none" fill-rule="evenodd"><g id="099---Strength" transform="translate(-1.000000, 0.000000)" fill-rule="nonzero"><path d="M41.213,22.22 C39.943,21.57 38.672,23.5 38.672,23.5 L38.593,23.49 C38.7559709,20.4955491 38.7559709,17.4944509 38.593,14.5 C38,1.64 23.193,1 23.193,1 L20.813,1 C20.813,1 6,1.64 5.412,14.5 C5.24902908,17.4944509 5.24902908,20.4955491 5.412,23.49 L5.333,23.5 C5.333,23.5 4.063,21.57 2.792,22.22 C1.533,22.85 2.153,28.64 2.153,28.64 C2.153,28.64 2.783,33.1 6.533,35.04 C6.373,38.76 6.093,42.14 10.153,46 C10.6350751,46.4551694 11.0923982,46.9358594 11.523,47.44 L11.523,56.96 C11.5229862,58.060676 12.4123377,58.9544966 13.513,58.96 L30.492,58.96 C31.5926623,58.9544966 32.4820138,58.060676 32.482,56.96 L32.482,47.44 C32.9126018,46.9358594 33.3699249,46.4551694 33.852,46 C37.912,42.14 37.633,38.76 37.472,35.04 C41.222,33.1 41.852,28.64 41.852,28.64 C41.852,28.64 42.472,22.85 41.213,22.22 Z" id="Shape" fill="#673AB7"/><path d="M6.593,33.14 C6.593,33.79 6.573,34.42 6.533,35.04 C2.783,33.1 2.153,28.64 2.153,28.64 C2.153,28.64 1.533,22.85 2.792,22.22 C4.063,21.57 5.333,23.5 5.333,23.5 L5.412,23.49 C5.732,28.45 6.593,30.02 6.593,33.14 Z" id="Shape" fill="#673AB7"/><path d="M38.59,23.49 C38.27,28.45 37.41,30.02 37.41,33.14 C37.41,33.79 37.43,34.42 37.47,35.04 C37.63,38.76 37.91,42.14 33.85,46 C33.3674124,46.4546547 32.9100622,46.9353732 32.48,47.44 C29.06,51.41 28.6,55 24.37,55 L19.63,55 C15.4,55 14.94,51.41 11.52,47.44 C11.0899378,46.9353732 10.6325876,46.4546547 10.15,46 C6.09,42.14 6.37,38.76 6.53,35.04 C6.57,34.42 6.59,33.79 6.59,33.14 C6.59,30.02 5.73,28.45 5.41,23.49 C5.2465184,20.495563 5.2465184,17.494437 5.41,14.5 C5.95,2.75 18.37,1.2 20.5,1.02 C20.7,1 20.81,1 20.81,1 L23.19,1 C23.19,1 38,1.64 38.59,14.5 C38.7534816,17.494437 38.7534816,20.495563 38.59,23.49 Z" id="Shape" fill="#6A1B9A"/><path d="M35.59,23.49 C35.27,28.45 34.41,30.02 34.41,33.14 C34.41,33.79 34.43,34.42 34.47,35.04 C34.63,38.76 34.91,42.14 30.85,46 C30.3674124,46.4546547 29.9100622,46.9353732 29.48,47.44 C26.06,51.41 25.6,55 21.37,55 L19.63,55 C15.4,55 14.94,51.41 11.52,47.44 C11.0899378,46.9353732 10.6325876,46.4546547 10.15,46 C6.09,42.14 6.37,38.76 6.53,35.04 C6.57,34.42 6.59,33.79 6.59,33.14 C6.59,30.02 5.73,28.45 5.41,23.49 C5.2465184,20.495563 5.2465184,17.494437 5.41,14.5 C5.95,2.75 18.37,1.2 20.5,1.02 C22.63,1.2 35.05,2.75 35.59,14.5 C35.7534816,17.494437 35.7534816,20.495563 35.59,23.49 Z" id="Shape" fill="#9D27B0"/><path d="M32.485,47.44 L32.485,56.96 C32.4850138,58.060676 31.5956623,58.9544966 30.495,58.96 L13.515,58.96 C12.4143377,58.9544966 11.5249862,58.060676 11.525,56.96 L11.525,47.44 C14.945,51.41 15.405,55 19.635,55 L24.375,55 C28.605,55 29.065,51.41 32.485,47.44 Z" id="Shape" fill="#673AB7"/><path d="M30.47,27.01 C31.0450868,28.0922072 30.748319,29.4319017 29.77,30.17 L29.76,30.18 C29.1645602,30.6221284 28.4040761,30.7782969 27.6825859,30.6066054 C26.9610957,30.4349139 26.3524687,29.9529409 26.02,29.29 C22.4097391,22.3232942 23.7243088,13.8210615 29.27,8.27 L32.81,11.81 C28.7953227,15.822502 27.8480379,21.9758048 30.47,27.01 Z" id="Shape" fill="#60A917"/><path d="M54.71,8.29 L51.19,11.82 C48.7572061,9.37528464 45.4510063,8.00002088 42.0020766,7.99814442 C38.553147,7.99626796 35.2454527,9.3679333 32.81,11.81 L29.27,8.27 C32.6407488,4.88881439 37.219813,2.99006608 41.9941558,2.9938195 C46.7684986,2.99757291 51.3445717,4.90351866 54.71,8.29 Z" id="Shape" fill="#FFDC00"/><path d="M57.92,29.4 C57.5756471,30.0311593 56.97366,30.4812076 56.2708593,30.632905 C55.5680585,30.7846024 54.834033,30.6229285 54.26,30.19 C54.25,30.19 54.25,30.18 54.24,30.18 L54.23,30.17 C53.2560396,29.4341495 52.9558958,28.1025254 53.52,27.02 C54.8103819,24.5471369 55.2763994,21.7265052 54.85,18.97 C54.426185,16.2565369 53.1433744,13.7504998 51.19,11.82 L53.12,9.88 L54.71,8.29 C60.3064087,13.8548173 61.6093207,22.4231888 57.92,29.4 Z" id="Shape" fill="#C81E1E"/><path d="M54.92,29.4 C54.7590461,29.7075147 54.5339799,29.9769121 54.26,30.19 C54.25,30.19 54.25,30.18 54.24,30.18 L54.23,30.17 C53.2560396,29.4341495 52.9558958,28.1025254 53.52,27.02 C54.8103819,24.5471369 55.2763994,21.7265052 54.85,18.97 C54.426185,16.2565369 53.1433744,13.7504998 51.19,11.82 L53.12,9.88 C57.541102,15.4526881 58.2474641,23.1127925 54.92,29.4 Z" id="Shape" fill="#F44335"/><path d="M39.471,26.386 L47.89,17.857 C48.0557219,17.6895862 48.3158188,17.6605522 48.5143776,17.787302 C48.7129363,17.9140519 48.796093,18.1622018 48.714,18.383 L44.529,29.613 L39.471,26.386 Z" id="Shape" fill="#E91E63"/><circle id="Oval" fill="#F44335" cx="42" cy="28" r="3"/><path d="M6.529,36.076 C6.36970273,36.0757464 6.21273817,36.0377047 6.071,35.965 C1.907,33.813 1.192,29.026 1.164,28.823 C0.842,25.835 0.788,22.147 2.34,21.365 C3.969,20.538 5.511,21.996 6.166,22.988 C6.45864172,23.4487382 6.32777555,24.0590241 5.87195367,24.359266 C5.41613178,24.659508 4.80375962,24.5387803 4.496,24.088 C4.206,23.655 3.624,23.097 3.307,23.128 C2.971,23.72 2.894,26.2 3.148,28.576 C3.148,28.576 3.759,32.517 6.989,34.186 C7.39851073,34.3980617 7.60990029,34.8626656 7.50073467,35.3107193 C7.39156905,35.7587729 6.99016073,36.0740722 6.529,36.074 L6.529,36.076 Z" id="Shape" fill="#000000"/><path d="M24.37,56.04 L19.63,56.04 C16.158,56.04 14.785,53.932 13.196,51.491 C12.1524813,49.7669775 10.8981461,48.1797429 9.462,46.766 C5.191,42.711 5.362,38.977 5.524,35.366 C5.557,34.651 5.59,33.925 5.59,33.181 C5.56909313,31.8555116 5.41871188,30.5352379 5.141,29.239 C4.664,26.618 4.013,23.026 4.411,14.494 C5.036,0.878 20.609,0.048 20.767,0.041 L23.19,0.041 C23.499,0.054 29.765,0.369 34.49,4.161 C34.9120405,4.50873343 34.9764927,5.1309858 34.6346829,5.55783797 C34.292873,5.98469013 33.6715807,6.05781974 33.24,5.722 C29.03,2.348 23.199,2.043 23.14,2.04 L20.81,2.04 C20.286,2.064 6.949,2.805 6.41,14.586 C6.022,22.893 6.625,26.213 7.11,28.886 C7.41020531,30.3002344 7.57163752,31.7403972 7.592,33.186 C7.592,33.961 7.558,34.718 7.524,35.462 C7.361,39.056 7.232,41.895 10.841,45.32 C12.3883331,46.8414941 13.7425138,48.5476543 14.873,50.4 C16.516,52.925 17.339,54.041 19.63,54.041 L24.37,54.041 C26.661,54.041 27.484,52.925 29.127,50.4 C30.2577698,48.5457895 31.6126386,46.8379294 33.161,45.315 C36.769,41.886 36.644,39.05 36.485,35.46 L36.471,35.124 C36.44,34.508 36.41,33.898 36.41,33.281 C36.41,32.7287153 36.8577153,32.281 37.41,32.281 C37.9622847,32.281 38.41,32.7287153 38.41,33.281 C38.41,33.865 38.439,34.44 38.467,35.006 L38.483,35.371 C38.643,38.979 38.808,42.708 34.539,46.771 C33.101458,48.1829258 31.845449,49.7684734 30.8,51.491 C29.215,53.932 27.842,56.04 24.37,56.04 Z" id="Shape" fill="#000000"/><path d="M30.487,60 L13.513,60 C11.8561458,60 10.513,58.6568542 10.513,57 L10.513,47.48 C10.513,46.9277153 10.9607153,46.48 11.513,46.48 C12.0652847,46.48 12.513,46.9277153 12.513,47.48 L12.513,57 C12.513,57.5522847 12.9607153,58 13.513,58 L30.487,58 C31.0392847,58 31.487,57.5522847 31.487,57 L31.487,47.48 C31.487,46.9277153 31.9347153,46.4800001 32.487,46.4800001 C33.0392847,46.4800001 33.487,46.9277153 33.487,47.48 L33.487,57 C33.487,58.6568542 32.1438542,60 30.487,60 Z" id="Shape" fill="#000000"/><path d="M53.006,15.112 C52.687214,15.1137831 52.388877,14.9552212 52.212,14.69 C52.197,14.669 52.152,14.59 52.139,14.57 C51.8695307,14.0980892 52.0151923,13.4978933 52.471,13.202 C52.917658,12.910942 53.5153166,13.0330586 53.812,13.476 C53.826,13.496 53.867,13.564 53.879,13.585 C54.1489978,14.0560307 54.0057274,14.6558387 53.552,14.954 C53.3882459,15.0564424 53.1991558,15.1111608 53.006,15.112 Z" id="Shape" fill="#000000"/><path d="M55.754,31.685 C54.5267776,31.6859542 53.3881751,31.0458814 52.7511613,29.9969347 C52.1141474,28.947988 52.0712395,27.642512 52.638,26.554 C54.4709159,23.0448248 54.4550477,18.8574172 52.5955888,15.3622343 C50.7361299,11.8670514 47.272396,9.51392962 43.338,9.073 C39.936753,8.67863493 36.5305525,9.76933334 33.991,12.066 C31.4542051,14.3434887 30.0035404,17.5908548 30,21 C29.995137,22.9316886 30.4616246,24.8353972 31.359,26.546 C31.9972686,27.7523287 31.8747312,29.2198691 31.0452427,30.3036424 C30.2157542,31.3874157 28.8311661,31.8890192 27.5,31.588 C26.47932,31.3540198 25.6134785,30.6824165 25.133,29.752 C21.1433642,22.0571686 22.8651716,12.6378209 29.319,6.852 C33.3436425,3.21345036 38.741971,1.48738474 44.131,2.116 C53.1779656,3.20470469 60.2086569,10.5108881 60.949,19.593 C61.2127921,23.1515434 60.4701708,26.712522 58.806,29.869 C58.3368176,30.7515785 57.5041309,31.3839525 56.528,31.599 C56.2739053,31.6557895 56.0143632,31.6846275 55.754,31.685 Z M42.033,7 C42.5427999,6.99981016 43.0522282,7.02751826 43.559,7.083 C48.1501781,7.59519232 52.1928229,10.3400841 54.3626068,14.4184778 C56.5323906,18.4968715 56.5497507,23.3832922 54.409,27.477 C54.06437,28.1266811 54.2438072,28.9305427 54.832,29.372 C55.1912694,29.643348 55.6516055,29.7431667 56.091,29.645 C56.4970872,29.5602021 56.8442498,29.298822 57.038,28.932 C60.8009487,21.7916907 59.0245032,12.9897784 52.7867318,7.86786395 C46.5489604,2.74594948 37.5696213,2.71614848 31.29799,7.79654624 C25.0263588,12.876944 23.1915287,21.666871 26.907,28.832 C27.1175159,29.2403195 27.4966051,29.5356948 27.944,29.64 C28.3687842,29.7384142 28.8153377,29.643169 29.163,29.38 C29.7547552,28.9359267 29.9343452,28.1267105 29.586,27.474 C27.3197608,23.1287675 27.4905854,17.9148578 30.0363868,13.7272833 C32.5821883,9.53970884 37.1323118,6.98815788 42.033,7 Z" id="Shape" fill="#000000"/><path d="M41.993,32 C40.1667081,31.9967051 38.5745537,30.7568503 38.1239054,28.9870286 C37.6732571,27.2172068 38.4785631,25.3668885 40.0808797,24.4905698 C41.6831963,23.614251 43.6755932,23.9344849 44.9226039,25.2687702 C46.1696146,26.6030555 46.3545437,28.6125323 45.372,30.152 C44.6358713,31.3053801 43.3612708,32.0024685 41.993,32 Z M42,26 C41.0398945,25.9984816 40.2141715,26.6794264 40.0328338,27.6222527 C39.8514962,28.5650791 40.3657138,29.5037401 41.2578833,29.8584773 C42.1500528,30.2132146 43.1684215,29.8839282 43.684,29.074 C44.0757153,28.45865 44.1013451,27.6788396 43.7508808,27.0390965 C43.4004165,26.3993534 42.7294485,26.0011536 42,26 Z" id="Shape" fill="#000000"/><path d="M44.529,30.613 C44.4099324,30.6129431 44.2918016,30.5919571 44.18,30.551 C43.9312703,30.4584232 43.7295437,30.2707682 43.6192544,30.0293698 C43.5089652,29.7879714 43.4991605,29.5126317 43.592,29.264 L46.963,20.221 L40.183,27.089 C39.7905106,27.4463625 39.1871972,27.4348038 38.808684,27.06267 C38.4301707,26.6905362 38.4083599,26.0875064 38.759,25.689 L48.817,15.5 C49.1479644,15.1625722 49.669979,15.1029418 50.0685139,15.357038 C50.4670489,15.6111342 50.63326,16.1095606 50.467,16.552 L45.467,29.968 C45.3191529,30.3573505 44.9454743,30.6143043 44.529,30.613 Z" id="Shape" fill="#000000"/><path d="M51.19,12.82 C50.7858609,12.8199144 50.4215009,12.5765792 50.2665912,12.203308 C50.1116815,11.8300368 50.1966778,11.4002161 50.482,11.114 L54,7.584 C54.252944,7.3306987 54.6218086,7.23158268 54.967646,7.32398799 C55.3134834,7.4163933 55.5837526,7.68628137 55.676646,8.03198799 C55.7695393,8.3776946 55.670944,8.7466987 55.418,9 L51.898,12.53 C51.7103345,12.7175429 51.4553048,12.8220042 51.19,12.82 Z" id="Shape" fill="#000000"/><path d="M32.81,12.81 C32.5448052,12.8099434 32.2904927,12.7045494 32.103,12.517 L28.562,8.977 C28.3092346,8.7242346 28.2105185,8.35582099 28.303037,8.01053703 C28.3955556,7.66525306 28.6652531,7.39555559 29.010537,7.30303703 C29.355821,7.21051847 29.7242346,7.3092346 29.977,7.562 L33.517,11.103 C33.8029079,11.3889943 33.8884219,11.8190366 33.733678,12.1926546 C33.5789341,12.5662725 33.2143959,12.8099137 32.81,12.81 Z" id="Shape" fill="#000000"/></g></g></svg>
