<?xml version="1.0" encoding="UTF-8"?>
<svg xmlns="http://www.w3.org/2000/svg" xmlns:xlink="http://www.w3.org/1999/xlink" width="512" height="512" viewBox="0 0 60 60" version="1.1"><!-- Generator: Sketch 51.3 (57544) - http://www.bohemiancoding.com/sketch --><title>100 - Vision</title><desc>Created with Sketch.</desc><defs/><g id="Page-1" stroke="none" stroke-width="1" fill="none" fill-rule="evenodd"><g id="100---Vision" transform="translate(-1.000000, 0.000000)" fill-rule="nonzero"><path d="M41.213,22.22 C39.943,21.57 38.672,23.5 38.672,23.5 L38.593,23.49 C38.7559709,20.4955491 38.7559709,17.4944509 38.593,14.5 C38,1.64 23.193,1 23.193,1 L20.813,1 C20.813,1 6,1.64 5.412,14.5 C5.24902908,17.4944509 5.24902908,20.4955491 5.412,23.49 L5.333,23.5 C5.333,23.5 4.063,21.57 2.792,22.22 C1.533,22.85 2.153,28.64 2.153,28.64 C2.153,28.64 2.783,33.1 6.533,35.04 C6.373,38.76 6.093,42.14 10.153,46 C10.6350751,46.4551694 11.0923982,46.9358594 11.523,47.44 L11.523,56.96 C11.5229862,58.060676 12.4123377,58.9544966 13.513,58.96 L30.492,58.96 C31.5926623,58.9544966 32.4820138,58.060676 32.482,56.96 L32.482,47.44 C32.9126018,46.9358594 33.3699249,46.4551694 33.852,46 C37.912,42.14 37.633,38.76 37.472,35.04 C41.222,33.1 41.852,28.64 41.852,28.64 C41.852,28.64 42.472,22.85 41.213,22.22 Z" id="Shape" fill="#283593"/><path d="M6.593,33.14 C6.593,33.79 6.573,34.42 6.533,35.04 C2.783,33.1 2.153,28.64 2.153,28.64 C2.153,28.64 1.533,22.85 2.792,22.22 C4.063,21.57 5.333,23.5 5.333,23.5 L5.412,23.49 C5.732,28.45 6.593,30.02 6.593,33.14 Z" id="Shape" fill="#283593"/><path d="M38.59,23.49 C38.27,28.45 37.41,30.02 37.41,33.14 C37.41,33.79 37.43,34.42 37.47,35.04 C37.63,38.76 37.91,42.14 33.85,46 C33.3674124,46.4546547 32.9100622,46.9353732 32.48,47.44 C29.06,51.41 28.6,55 24.37,55 L19.63,55 C15.4,55 14.94,51.41 11.52,47.44 C11.0899378,46.9353732 10.6325876,46.4546547 10.15,46 C6.09,42.14 6.37,38.76 6.53,35.04 C6.57,34.42 6.59,33.79 6.59,33.14 C6.59,30.02 5.73,28.45 5.41,23.49 C5.2465184,20.495563 5.2465184,17.494437 5.41,14.5 C5.95,2.75 18.37,1.2 20.5,1.02 C20.7,1 20.81,1 20.81,1 L23.19,1 C23.19,1 38,1.64 38.59,14.5 C38.7534816,17.494437 38.7534816,20.495563 38.59,23.49 Z" id="Shape" fill="#283593"/><path d="M35.59,23.49 C35.27,28.45 34.41,30.02 34.41,33.14 C34.41,33.79 34.43,34.42 34.47,35.04 C34.63,38.76 34.91,42.14 30.85,46 C30.3674124,46.4546547 29.9100622,46.9353732 29.48,47.44 C26.06,51.41 25.6,55 21.37,55 L19.63,55 C15.4,55 14.94,51.41 11.52,47.44 C11.0899378,46.9353732 10.6325876,46.4546547 10.15,46 C6.09,42.14 6.37,38.76 6.53,35.04 C6.57,34.42 6.59,33.79 6.59,33.14 C6.59,30.02 5.73,28.45 5.41,23.49 C5.2465184,20.495563 5.2465184,17.494437 5.41,14.5 C5.95,2.75 18.37,1.2 20.5,1.02 C22.63,1.2 35.05,2.75 35.59,14.5 C35.7534816,17.494437 35.7534816,20.495563 35.59,23.49 Z" id="Shape" fill="#3F51B5"/><path d="M60,19 C60,19 51.49,30 41,30 C39.9930222,29.999593 38.9884107,29.9024806 38,29.71 C28.93,27.96 22,19 22,19 C22,19 28.93,10.04 38,8.29 C38.9884107,8.09751942 39.9930222,8.00040697 41,8 C51.49,8 60,19 60,19 Z" id="Shape" fill="#BB193B"/><path d="M54,19 C54,19 47.07,27.96 38,29.71 C28.93,27.96 22,19 22,19 C22,19 28.93,10.04 38,8.29 C47.07,10.04 54,19 54,19 Z" id="Shape" fill="#EF314C"/><path d="M52,19 C52.0020623,20.7880673 51.5660182,22.5494108 50.73,24.13 C47.6248086,25.330938 44.329143,25.964329 41,26 C37.670857,25.964329 34.3751914,25.330938 31.27,24.13 C29.5773655,20.9194307 29.5773655,17.0805693 31.27,13.87 C34.3751914,12.669062 37.670857,12.035671 41,12 C44.329143,12.035671 47.6248086,12.669062 50.73,13.87 C51.5660182,15.4505892 52.0020623,17.2119327 52,19 Z" id="Shape" fill="#00BCD4"/><path d="M31.27,13.87 C29.5773655,17.0805693 29.5773655,20.9194307 31.27,24.13 C27.9413749,22.8920442 24.816767,21.1628923 22,19 C24.816767,16.8371077 27.9413749,15.1079558 31.27,13.87 Z" id="Shape" fill="#F5F5F5"/><path d="M51.57,22.04 C52.3540464,19.3102417 52.0530931,16.3831123 50.73,13.87 C54.0586251,15.1079558 57.183233,16.8371077 60,19 C57.183233,21.1628923 54.0586251,22.8920442 50.73,24.13 C51.0816211,23.4643023 51.3631321,22.763876 51.57,22.04 Z" id="Shape" fill="#CFD8DC"/><path d="M51.57,22.04 C52.1433359,20.0538819 52.1433359,17.9461181 51.57,15.96 C53.223139,16.8329382 54.7959204,17.8502266 56.27,19 C54.7959204,20.1497734 53.223139,21.1670618 51.57,22.04 Z" id="Shape" fill="#F5F5F5"/><circle id="Oval" fill="#02A9F4" cx="41" cy="19" r="7"/><circle id="Oval" fill="#3F51B5" cx="41" cy="19" r="3"/><circle id="Oval" fill="#F5F5F5" cx="37" cy="16" r="3"/><circle id="Oval" fill="#F5F5F5" cx="45" cy="23" r="1"/><path d="M6.529,36.076 C6.36970273,36.0757464 6.21273817,36.0377047 6.071,35.965 C1.907,33.813 1.192,29.026 1.164,28.823 C0.842,25.835 0.788,22.147 2.34,21.365 C3.969,20.538 5.511,21.996 6.166,22.988 C6.45864172,23.4487382 6.32777555,24.0590241 5.87195367,24.359266 C5.41613178,24.659508 4.80375962,24.5387803 4.496,24.088 C4.207,23.655 3.645,23.097 3.307,23.128 C2.971,23.72 2.894,26.2 3.148,28.576 C3.148,28.576 3.759,32.517 6.989,34.186 C7.39851073,34.3980617 7.60990029,34.8626656 7.50073467,35.3107193 C7.39156905,35.7587729 6.99016073,36.0740722 6.529,36.074 L6.529,36.076 Z" id="Shape" fill="#000000"/><path d="M24.37,56.04 L19.63,56.04 C16.158,56.04 14.785,53.932 13.196,51.491 C12.1524813,49.7669775 10.8981461,48.1797429 9.462,46.766 C5.191,42.711 5.362,38.977 5.524,35.366 C5.557,34.651 5.59,33.925 5.59,33.181 C5.56909313,31.8555116 5.41871188,30.5352379 5.141,29.239 C4.664,26.618 4.013,23.026 4.411,14.494 C5.036,0.878 20.609,0.048 20.767,0.041 L23.19,0.041 C25.2265934,0.181519722 27.2348101,0.596954832 29.16,1.276 C29.6816329,1.45825398 29.9567539,2.02886706 29.7745,2.55049999 C29.592246,3.07213292 29.0216329,3.34725395 28.5,3.165 C26.7717545,2.55910829 24.9719455,2.18092652 23.146,2.04 L20.81,2.04 C20.286,2.064 6.949,2.805 6.41,14.586 C6.022,22.893 6.625,26.213 7.11,28.886 C7.41020531,30.3002344 7.57163752,31.7403972 7.592,33.186 C7.592,33.961 7.558,34.718 7.524,35.462 C7.361,39.056 7.232,41.895 10.841,45.32 C12.3883331,46.8414941 13.7425138,48.5476543 14.873,50.4 C16.516,52.925 17.339,54.041 19.63,54.041 L24.37,54.041 C26.661,54.041 27.484,52.925 29.127,50.4 C30.2577698,48.5457895 31.6126386,46.8379294 33.161,45.315 C34.811809,43.8824451 35.9378527,41.9403718 36.361,39.796 C36.4198908,39.4408172 36.6651654,39.1447094 37.0031777,39.0207311 C37.34119,38.8967527 37.7197547,38.9640445 37.9943353,39.1969145 C38.268916,39.4297845 38.3971204,39.79228 38.33,40.146 C37.8373254,42.7148002 36.4997195,45.0450504 34.53,46.766 C33.095515,48.1802074 31.8425579,49.7673984 30.8,51.491 C29.215,53.932 27.842,56.04 24.37,56.04 Z" id="Shape" fill="#000000"/><path d="M30.487,60 L13.513,60 C11.8561458,60 10.513,58.6568542 10.513,57 L10.513,47.48 C10.513,46.9277153 10.9607153,46.48 11.513,46.48 C12.0652847,46.48 12.513,46.9277153 12.513,47.48 L12.513,57 C12.513,57.5522847 12.9607153,58 13.513,58 L30.487,58 C31.0392847,58 31.487,57.5522847 31.487,57 L31.487,47.48 C31.487,46.9277153 31.9347153,46.4800001 32.487,46.4800001 C33.0392847,46.4800001 33.487,46.9277153 33.487,47.48 L33.487,57 C33.487,58.6568542 32.1438542,60 30.487,60 Z" id="Shape" fill="#000000"/><path d="M41,31 C30.141,31 21.568,20.077 21.209,19.611 C20.9311741,19.2510402 20.9311741,18.7489598 21.209,18.389 C21.568,17.923 30.141,7 41,7 C51.859,7 60.432,17.923 60.791,18.389 C61.0688259,18.7489598 61.0688259,19.2510402 60.791,19.611 C60.432,20.077 51.859,31 41,31 Z M23.3,19 C25.244,21.26 32.528,29 41,29 C49.472,29 56.759,21.262 58.7,19 C56.756,16.74 49.472,9 41,9 C32.528,9 25.241,16.738 23.3,19 Z" id="Shape" fill="#000000"/><path d="M40.3,9.02 C39.7477153,9.03132184 39.2908218,8.59278475 39.2795,8.0405 C39.2681782,7.48821525 39.7067153,7.03132184 40.259,7.02 C40.5,7.01 40.756,7 41,7 L41.12,7 C41.326,7 41.544,7.01 41.751,7.021 C42.2947286,7.04738323 42.7192805,7.50071083 42.71,8.045 C42.7002082,8.58521146 42.260298,9.01845641 41.72,9.02 L41.7,9.02 C41.476,9.01 41.293,9 41.12,9 L41,9 C40.783,9 40.559,9.01 40.342,9.019 L40.3,9.02 Z" id="Shape" fill="#000000"/><path d="M28.83,3.22 L28.82,3.22 C28.2686982,3.21724346 27.8236248,2.76881946 27.8250031,2.21751249 C27.8263814,1.66620553 28.2736913,1.2200125 28.825,1.2200125 C29.3763087,1.2200125 29.8236186,1.66620553 29.8249969,2.21751249 C29.8263752,2.76881946 29.3813018,3.21724346 28.83,3.22 Z" id="Shape" fill="#000000"/><path d="M41,31 L40.88,31 C40.674,31 40.456,30.99 40.249,30.979 C39.698579,30.9551887 39.262439,30.5058856 39.255,29.955 C39.2517999,29.6989047 39.350747,29.4520839 39.5299615,29.2691162 C39.7091761,29.0861484 39.9538934,28.9821077 40.21,28.98 L40.351,28.98 C40.524,28.989 40.707,28.999 40.88,28.999 L41,28.999 C41.217,28.999 41.441,28.989 41.658,28.98 L41.75,29.98 L41.72,30.98 C41.5,30.99 41.244,31 41,31 Z" id="Shape" fill="#000000"/><path d="M31.271,25.13 C30.9001794,25.1304714 30.5595439,24.9257051 30.386,24.598 C28.5369324,21.093621 28.5369324,16.902379 30.386,13.398 C30.5490135,13.0747181 30.8740364,12.8647981 31.2357552,12.8491752 C31.597474,12.8335523 31.939386,13.014667 32.129666,13.3226899 C32.3199459,13.6307128 32.328871,14.0175289 32.153,14.334 C30.6153914,17.2518262 30.6153914,20.7401738 32.153,23.658 C32.3170031,23.9676873 32.3069327,24.340627 32.126456,24.6410124 C31.9459792,24.9413978 31.6214324,25.1253946 31.271,25.126 L31.271,25.13 Z" id="Shape" fill="#000000"/><path d="M50.729,25.13 C50.3785676,25.1293946 50.0540208,24.9453978 49.873544,24.6450124 C49.6930673,24.344627 49.6829969,23.9716873 49.847,23.662 C51.3846086,20.7441738 51.3846086,17.2558262 49.847,14.338 C49.671129,14.0215289 49.6800541,13.6347128 49.870334,13.3266899 C50.060614,13.018667 50.402526,12.8375523 50.7642448,12.8531752 C51.1259636,12.8687981 51.4509865,13.0787181 51.614,13.402 C53.4630676,16.906379 53.4630676,21.097621 51.614,24.602 C51.4393812,24.928157 51.0989574,25.1312573 50.729,25.13 Z" id="Shape" fill="#000000"/><path d="M34,20 C33.4477153,20 33,19.5522847 33,19 C33.0049599,14.5837781 36.5837781,11.0049599 41,11 C41.5522847,11 42,11.4477153 42,12 C42,12.5522847 41.5522847,13 41,13 C37.6876624,13.0033074 35.0033074,15.6876624 35,19 C35,19.2652165 34.8946432,19.5195704 34.7071068,19.7071068 C34.5195704,19.8946432 34.2652165,20 34,20 Z" id="Shape" fill="#000000"/><path d="M41,27 C40.4477153,27 40,26.5522847 40,26 C40,25.4477153 40.4477153,25 41,25 C44.3123376,24.9966926 46.9966926,22.3123376 47,19 C47,18.4477153 47.4477153,18 48,18 C48.5522847,18 49,18.4477153 49,19 C48.9950401,23.4162219 45.4162219,26.9950401 41,27 Z" id="Shape" fill="#000000"/><path d="M41,22 C39.3431458,22 38,20.6568542 38,19 C38,17.3431458 39.3431458,16 41,16 C42.6568542,16 44,17.3431458 44,19 C44,20.6568542 42.6568542,22 41,22 Z M41,18 C40.4477153,18 40,18.4477153 40,19 C40,19.5522847 40.4477153,20 41,20 C41.5522847,20 42,19.5522847 42,19 C42,18.4477153 41.5522847,18 41,18 Z" id="Shape" fill="#000000"/><path d="M41,27 C30.271,27 21.724,20.067 21.364,19.772 C21.1332856,19.5820424 20.9996225,19.2988529 20.9996225,19 C20.9996225,18.7011471 21.1332856,18.4179576 21.364,18.228 C21.724,17.933 30.271,11 41,11 C51.729,11 60.276,17.933 60.636,18.228 C60.8667144,18.4179576 61.0003775,18.7011471 61.0003775,19 C61.0003775,19.2988529 60.8667144,19.5820424 60.636,19.772 C60.276,20.067 51.729,27 41,27 Z M23.677,19 C26.21,20.776 33.067,25 41,25 C48.933,25 55.79,20.776 58.323,19 C55.79,17.224 48.933,13 41,13 C33.067,13 26.21,17.224 23.677,19 Z" id="Shape" fill="#000000"/><path d="M41,38 C40.4477153,38 40,37.5522847 40,37 L40,34 C40,33.4477153 40.4477153,33 41,33 C41.5522847,33 42,33.4477153 42,34 L42,37 C42,37.5522847 41.5522847,38 41,38 Z" id="Shape" fill="#000000"/><path d="M50,35.589 C49.6423863,35.5893484 49.3118068,35.3987028 49.133,35.089 L47.633,32.489 C47.4515156,32.1794296 47.4498167,31.7963505 47.6285481,31.4851826 C47.8072796,31.1740146 48.1390366,30.982469 48.4978817,30.9832579 C48.8567268,30.9840468 49.1876384,31.1770492 49.365,31.489 L50.865,34.089 C51.0435415,34.3982425 51.0436393,34.7792222 50.8652566,35.0885563 C50.6868739,35.3978904 50.3570824,35.588634 50,35.589 Z" id="Shape" fill="#000000"/><path d="M48.5,7.01 C48.1429176,7.00963395 47.8131261,6.81889043 47.6347434,6.50955632 C47.4563607,6.2002222 47.4564585,5.81924248 47.635,5.51 L49.135,2.91 C49.4130058,2.43578639 50.021647,2.27487139 50.4976943,2.54972547 C50.9737416,2.82457955 51.1386903,3.43214004 50.867,3.91 L49.367,6.51 C49.1881932,6.81970282 48.8576137,7.01034843 48.5,7.01 Z" id="Shape" fill="#000000"/><path d="M41,5 C40.4477153,5 40,4.55228475 40,4 L40,1 C40,0.44771525 40.4477153,1.01453063e-16 41,0 C41.5522847,-1.01453063e-16 42,0.44771525 42,1 L42,4 C42,4.55228475 41.5522847,5 41,5 Z" id="Shape" fill="#000000"/><path d="M33.5,7.01 C33.1423863,7.01034843 32.8118068,6.81970282 32.633,6.51 L31.133,3.91 C30.8613097,3.43214004 31.0262584,2.82457955 31.5023057,2.54972547 C31.978353,2.27487139 32.5869942,2.43578639 32.865,2.91 L34.365,5.51 C34.5435415,5.81924248 34.5436393,6.2002222 34.3652566,6.50955632 C34.1868739,6.81889043 33.8570824,7.00963395 33.5,7.01 Z" id="Shape" fill="#000000"/><path d="M32,35.589 C31.6429176,35.588634 31.3131261,35.3978904 31.1347434,35.0885563 C30.9563607,34.7792222 30.9564585,34.3982425 31.135,34.089 L32.635,31.489 C32.8123616,31.1770492 33.1432732,30.9840468 33.5021183,30.9832579 C33.8609634,30.982469 34.1927204,31.1740146 34.3714519,31.4851826 C34.5501833,31.7963505 34.5484844,32.1794296 34.367,32.489 L32.867,35.089 C32.6881932,35.3987028 32.3576137,35.5893484 32,35.589 Z" id="Shape" fill="#000000"/></g></g></svg>
